<?xml version="1.0" encoding="UTF-8" standalone="no"?>
<!DOCTYPE svg PUBLIC "-//W3C//DTD SVG 1.1//EN"
 "http://www.w3.org/Graphics/SVG/1.1/DTD/svg11.dtd">
<!-- Generated by graphviz version 2.50.0 (20211204.2007)
 -->
<!-- Title: bwidgets/widgets/builtin_widgets.h Pages: 1 -->
<svg width="1079pt" height="375pt"
 viewBox="0.00 0.00 1079.00 375.00" xmlns="http://www.w3.org/2000/svg" xmlns:xlink="http://www.w3.org/1999/xlink">
<g id="graph0" class="graph" transform="scale(1 1) rotate(0) translate(4 371)">
<title>bwidgets/widgets/builtin_widgets.h</title>
<!-- Node1 -->
<g id="node1" class="node">
<title>Node1</title>
<g id="a_node1"><a xlink:title=" ">
<polygon fill="#bfbfbf" stroke="black" points="363,-336.5 363,-366.5 484,-366.5 484,-336.5 363,-336.5"/>
<text text-anchor="start" x="371" y="-354.5" font-family="Helvetica,sans-Serif" font-size="10.00">bwidgets/widgets/builtin</text>
<text text-anchor="middle" x="423.5" y="-343.5" font-family="Helvetica,sans-Serif" font-size="10.00">_widgets.h</text>
</a>
</g>
</g>
<!-- Node2 -->
<g id="node2" class="node">
<title>Node2</title>
<g id="a_node2"><a xlink:href="bwCheckbox_8h.html" target="_top" xlink:title=" ">
<polygon fill="none" stroke="black" points="313.5,-280.5 313.5,-299.5 395.5,-299.5 395.5,-280.5 313.5,-280.5"/>
<text text-anchor="middle" x="354.5" y="-287.5" font-family="Helvetica,sans-Serif" font-size="10.00">bwCheckbox.h</text>
</a>
</g>
</g>
<!-- Node1&#45;&gt;Node2 -->
<g id="edge1" class="edge">
<title>Node1&#45;&gt;Node2</title>
<path fill="none" stroke="midnightblue" d="M407.15,-336.4C396.6,-327.31 382.9,-315.49 372.12,-306.19"/>
<polygon fill="midnightblue" stroke="midnightblue" points="374.4,-303.54 364.54,-299.66 369.83,-308.84 374.4,-303.54"/>
</g>
<!-- Node23 -->
<g id="node23" class="node">
<title>Node23</title>
<g id="a_node23"><a xlink:href="bwLabel_8h.html" target="_top" xlink:title=" ">
<polygon fill="none" stroke="black" points="352,-224.5 352,-243.5 413,-243.5 413,-224.5 352,-224.5"/>
<text text-anchor="middle" x="382.5" y="-231.5" font-family="Helvetica,sans-Serif" font-size="10.00">bwLabel.h</text>
</a>
</g>
</g>
<!-- Node1&#45;&gt;Node23 -->
<g id="edge26" class="edge">
<title>Node1&#45;&gt;Node23</title>
<path fill="none" stroke="midnightblue" d="M420.55,-336.47C417.34,-322.07 411.67,-299.11 404.5,-280 401.02,-270.74 396.29,-260.82 392.11,-252.66"/>
<polygon fill="midnightblue" stroke="midnightblue" points="395.16,-250.95 387.4,-243.74 388.97,-254.22 395.16,-250.95"/>
</g>
<!-- Node24 -->
<g id="node24" class="node">
<title>Node24</title>
<g id="a_node24"><a xlink:href="bwNumberSlider_8h.html" target="_top" xlink:title=" ">
<polygon fill="none" stroke="black" points="633.5,-280.5 633.5,-299.5 729.5,-299.5 729.5,-280.5 633.5,-280.5"/>
<text text-anchor="middle" x="681.5" y="-287.5" font-family="Helvetica,sans-Serif" font-size="10.00">bwNumberSlider.h</text>
</a>
</g>
</g>
<!-- Node1&#45;&gt;Node24 -->
<g id="edge30" class="edge">
<title>Node1&#45;&gt;Node24</title>
<path fill="none" stroke="midnightblue" d="M484.32,-336.47C530.28,-325.87 592.46,-311.53 634.62,-301.81"/>
<polygon fill="midnightblue" stroke="midnightblue" points="635.66,-305.16 644.62,-299.51 634.08,-298.34 635.66,-305.16"/>
</g>
<!-- Node25 -->
<g id="node25" class="node">
<title>Node25</title>
<g id="a_node25"><a xlink:href="bwTextBox_8h.html" target="_top" xlink:title=" ">
<polygon fill="none" stroke="black" points="634.5,-224.5 634.5,-243.5 708.5,-243.5 708.5,-224.5 634.5,-224.5"/>
<text text-anchor="middle" x="671.5" y="-231.5" font-family="Helvetica,sans-Serif" font-size="10.00">bwTextBox.h</text>
</a>
</g>
</g>
<!-- Node1&#45;&gt;Node25 -->
<g id="edge49" class="edge">
<title>Node1&#45;&gt;Node25</title>
<path fill="none" stroke="midnightblue" d="M484.16,-349.75C566.33,-347.3 706.48,-337.57 738.5,-300 755,-280.64 726.09,-260.59 701.24,-247.97"/>
<polygon fill="midnightblue" stroke="midnightblue" points="702.55,-244.71 692.02,-243.51 699.5,-251.02 702.55,-244.71"/>
</g>
<!-- Node26 -->
<g id="node26" class="node">
<title>Node26</title>
<g id="a_node26"><a xlink:href="bwPanel_8h.html" target="_top" xlink:title=" ">
<polygon fill="none" stroke="black" points="451.5,-280.5 451.5,-299.5 513.5,-299.5 513.5,-280.5 451.5,-280.5"/>
<text text-anchor="middle" x="482.5" y="-287.5" font-family="Helvetica,sans-Serif" font-size="10.00">bwPanel.h</text>
</a>
</g>
</g>
<!-- Node1&#45;&gt;Node26 -->
<g id="edge34" class="edge">
<title>Node1&#45;&gt;Node26</title>
<path fill="none" stroke="midnightblue" d="M437.48,-336.4C446.23,-327.58 457.53,-316.18 466.62,-307.02"/>
<polygon fill="midnightblue" stroke="midnightblue" points="469.36,-309.22 473.91,-299.66 464.39,-304.29 469.36,-309.22"/>
</g>
<!-- Node28 -->
<g id="node28" class="node">
<title>Node28</title>
<g id="a_node28"><a xlink:href="bwPushButton_8h.html" target="_top" xlink:title=" ">
<polygon fill="none" stroke="black" points="0,-280.5 0,-299.5 89,-299.5 89,-280.5 0,-280.5"/>
<text text-anchor="middle" x="44.5" y="-287.5" font-family="Helvetica,sans-Serif" font-size="10.00">bwPushButton.h</text>
</a>
</g>
</g>
<!-- Node1&#45;&gt;Node28 -->
<g id="edge38" class="edge">
<title>Node1&#45;&gt;Node28</title>
<path fill="none" stroke="midnightblue" d="M362.97,-341.3C299.84,-331.66 197.73,-315.93 99.4,-300.13"/>
<polygon fill="midnightblue" stroke="midnightblue" points="99.71,-296.64 89.28,-298.5 98.6,-303.55 99.71,-296.64"/>
</g>
<!-- Node29 -->
<g id="node29" class="node">
<title>Node29</title>
<g id="a_node29"><a xlink:href="bwRadioButton_8h.html" target="_top" xlink:title=" ">
<polygon fill="none" stroke="black" points="107.5,-280.5 107.5,-299.5 199.5,-299.5 199.5,-280.5 107.5,-280.5"/>
<text text-anchor="middle" x="153.5" y="-287.5" font-family="Helvetica,sans-Serif" font-size="10.00">bwRadioButton.h</text>
</a>
</g>
</g>
<!-- Node1&#45;&gt;Node29 -->
<g id="edge41" class="edge">
<title>Node1&#45;&gt;Node29</title>
<path fill="none" stroke="midnightblue" d="M362.91,-337.15C314.34,-326.44 247.09,-311.62 202.03,-301.69"/>
<polygon fill="midnightblue" stroke="midnightblue" points="202.72,-298.26 192.2,-299.53 201.21,-305.1 202.72,-298.26"/>
</g>
<!-- Node30 -->
<g id="node30" class="node">
<title>Node30</title>
<g id="a_node30"><a xlink:href="bwScrollBar_8h.html" target="_top" xlink:title=" ">
<polygon fill="none" stroke="black" points="218,-280.5 218,-299.5 295,-299.5 295,-280.5 218,-280.5"/>
<text text-anchor="middle" x="256.5" y="-287.5" font-family="Helvetica,sans-Serif" font-size="10.00">bwScrollBar.h</text>
</a>
</g>
</g>
<!-- Node1&#45;&gt;Node30 -->
<g id="edge44" class="edge">
<title>Node1&#45;&gt;Node30</title>
<path fill="none" stroke="midnightblue" d="M383.92,-336.4C355.4,-326.24 317.33,-312.67 290.24,-303.02"/>
<polygon fill="midnightblue" stroke="midnightblue" points="291.39,-299.72 280.8,-299.66 289.05,-306.31 291.39,-299.72"/>
</g>
<!-- Node31 -->
<g id="node31" class="node">
<title>Node31</title>
<g id="a_node31"><a xlink:href="bwScrollView_8h.html" target="_top" xlink:title=" ">
<polygon fill="none" stroke="black" points="532,-280.5 532,-299.5 615,-299.5 615,-280.5 532,-280.5"/>
<text text-anchor="middle" x="573.5" y="-287.5" font-family="Helvetica,sans-Serif" font-size="10.00">bwScrollView.h</text>
</a>
</g>
</g>
<!-- Node1&#45;&gt;Node31 -->
<g id="edge46" class="edge">
<title>Node1&#45;&gt;Node31</title>
<path fill="none" stroke="midnightblue" d="M459.05,-336.4C484.33,-326.37 517.97,-313.03 542.23,-303.4"/>
<polygon fill="midnightblue" stroke="midnightblue" points="543.67,-306.6 551.67,-299.66 541.09,-300.09 543.67,-306.6"/>
</g>
<!-- Node3 -->
<g id="node3" class="node">
<title>Node3</title>
<g id="a_node3"><a xlink:href="bwAbstractButton_8h.html" target="_top" xlink:title=" ">
<polygon fill="none" stroke="black" points="205,-224.5 205,-243.5 308,-243.5 308,-224.5 205,-224.5"/>
<text text-anchor="middle" x="256.5" y="-231.5" font-family="Helvetica,sans-Serif" font-size="10.00">bwAbstractButton.h</text>
</a>
</g>
</g>
<!-- Node2&#45;&gt;Node3 -->
<g id="edge2" class="edge">
<title>Node2&#45;&gt;Node3</title>
<path fill="none" stroke="midnightblue" d="M338.75,-280.32C323.18,-271.74 299.12,-258.49 281.04,-248.52"/>
<polygon fill="midnightblue" stroke="midnightblue" points="282.65,-245.42 272.21,-243.65 279.28,-251.55 282.65,-245.42"/>
</g>
<!-- Node4 -->
<g id="node4" class="node">
<title>Node4</title>
<g id="a_node4"><a xlink:title=" ">
<polygon fill="none" stroke="#bfbfbf" points="293.5,-56.5 293.5,-75.5 345.5,-75.5 345.5,-56.5 293.5,-56.5"/>
<text text-anchor="middle" x="319.5" y="-63.5" font-family="Helvetica,sans-Serif" font-size="10.00">memory</text>
</a>
</g>
</g>
<!-- Node3&#45;&gt;Node4 -->
<g id="edge3" class="edge">
<title>Node3&#45;&gt;Node4</title>
<path fill="none" stroke="midnightblue" d="M254.7,-224.41C252.39,-211.8 249.28,-187.64 254.5,-168 263.41,-134.44 288.23,-101.81 304.49,-83.1"/>
<polygon fill="midnightblue" stroke="midnightblue" points="307.21,-85.31 311.27,-75.53 301.99,-80.64 307.21,-85.31"/>
</g>
<!-- Node5 -->
<g id="node5" class="node">
<title>Node5</title>
<g id="a_node5"><a xlink:title=" ">
<polygon fill="none" stroke="#bfbfbf" points="171,-56.5 171,-75.5 212,-75.5 212,-56.5 171,-56.5"/>
<text text-anchor="middle" x="191.5" y="-63.5" font-family="Helvetica,sans-Serif" font-size="10.00">string</text>
</a>
</g>
</g>
<!-- Node3&#45;&gt;Node5 -->
<g id="edge4" class="edge">
<title>Node3&#45;&gt;Node5</title>
<path fill="none" stroke="midnightblue" d="M252.9,-224.39C245.64,-207 228.83,-166.41 215.5,-132 209.46,-116.4 202.9,-98.57 198.16,-85.53"/>
<polygon fill="midnightblue" stroke="midnightblue" points="201.36,-84.08 194.67,-75.87 194.78,-86.46 201.36,-84.08"/>
</g>
<!-- Node6 -->
<g id="node6" class="node">
<title>Node6</title>
<g id="a_node6"><a xlink:href="bwUtil_8h.html" target="_top" xlink:title=" ">
<polygon fill="none" stroke="black" points="263,-168.5 263,-187.5 316,-187.5 316,-168.5 263,-168.5"/>
<text text-anchor="middle" x="289.5" y="-175.5" font-family="Helvetica,sans-Serif" font-size="10.00">bwUtil.h</text>
</a>
</g>
</g>
<!-- Node3&#45;&gt;Node6 -->
<g id="edge5" class="edge">
<title>Node3&#45;&gt;Node6</title>
<path fill="none" stroke="midnightblue" d="M261.95,-224.08C266.51,-216.61 273.17,-205.72 278.79,-196.52"/>
<polygon fill="midnightblue" stroke="midnightblue" points="281.92,-198.11 284.15,-187.75 275.95,-194.46 281.92,-198.11"/>
</g>
<!-- Node7 -->
<g id="node7" class="node">
<title>Node7</title>
<g id="a_node7"><a xlink:href="bwWidget_8h.html" target="_top" xlink:title=" ">
<polygon fill="none" stroke="black" points="554.5,-168.5 554.5,-187.5 622.5,-187.5 622.5,-168.5 554.5,-168.5"/>
<text text-anchor="middle" x="588.5" y="-175.5" font-family="Helvetica,sans-Serif" font-size="10.00">bwWidget.h</text>
</a>
</g>
</g>
<!-- Node3&#45;&gt;Node7 -->
<g id="edge6" class="edge">
<title>Node3&#45;&gt;Node7</title>
<path fill="none" stroke="midnightblue" d="M308.07,-224.99C364.46,-216.18 457.48,-201.47 537.5,-188 539.82,-187.61 542.2,-187.21 544.6,-186.79"/>
<polygon fill="midnightblue" stroke="midnightblue" points="545.24,-190.23 554.5,-185.08 544.05,-183.34 545.24,-190.23"/>
</g>
<!-- Node21 -->
<g id="node21" class="node">
<title>Node21</title>
<g id="a_node21"><a xlink:href="bwWidgetBaseStyle_8h.html" target="_top" xlink:title=" ">
<polygon fill="none" stroke="black" points="415,-168.5 415,-187.5 528,-187.5 528,-168.5 415,-168.5"/>
<text text-anchor="middle" x="471.5" y="-175.5" font-family="Helvetica,sans-Serif" font-size="10.00">bwWidgetBaseStyle.h</text>
</a>
</g>
</g>
<!-- Node3&#45;&gt;Node21 -->
<g id="edge24" class="edge">
<title>Node3&#45;&gt;Node21</title>
<path fill="none" stroke="midnightblue" d="M290.57,-224.44C327.68,-215.12 387.16,-200.18 427.71,-190"/>
<polygon fill="midnightblue" stroke="midnightblue" points="428.75,-193.35 437.59,-187.52 427.04,-186.56 428.75,-193.35"/>
</g>
<!-- Node8 -->
<g id="node8" class="node">
<title>Node8</title>
<g id="a_node8"><a xlink:title=" ">
<polygon fill="none" stroke="#bfbfbf" points="467.5,-56.5 467.5,-75.5 517.5,-75.5 517.5,-56.5 467.5,-56.5"/>
<text text-anchor="middle" x="492.5" y="-63.5" font-family="Helvetica,sans-Serif" font-size="10.00">optional</text>
</a>
</g>
</g>
<!-- Node7&#45;&gt;Node8 -->
<g id="edge7" class="edge">
<title>Node7&#45;&gt;Node8</title>
<path fill="none" stroke="midnightblue" d="M572.35,-168.42C558.53,-160.45 538.82,-147.49 525.5,-132 513.53,-118.08 504.53,-99.07 498.98,-85.21"/>
<polygon fill="midnightblue" stroke="midnightblue" points="502.23,-83.89 495.41,-75.78 495.68,-86.37 502.23,-83.89"/>
</g>
<!-- Node9 -->
<g id="node9" class="node">
<title>Node9</title>
<g id="a_node9"><a xlink:title=" ">
<polygon fill="none" stroke="#bfbfbf" points="1020,-112.5 1020,-131.5 1071,-131.5 1071,-112.5 1020,-112.5"/>
<text text-anchor="middle" x="1045.5" y="-119.5" font-family="Helvetica,sans-Serif" font-size="10.00">typeinfo</text>
</a>
</g>
</g>
<!-- Node7&#45;&gt;Node9 -->
<g id="edge8" class="edge">
<title>Node7&#45;&gt;Node9</title>
<path fill="none" stroke="midnightblue" d="M622.75,-175.14C693.44,-170.91 860.69,-158.94 1009.73,-132.08"/>
<polygon fill="midnightblue" stroke="midnightblue" points="1010.77,-135.45 1019.98,-130.2 1009.51,-128.56 1010.77,-135.45"/>
</g>
<!-- Node10 -->
<g id="node10" class="node">
<title>Node10</title>
<g id="a_node10"><a xlink:href="bwDistance_8h.html" target="_top" xlink:title=" ">
<polygon fill="none" stroke="black" points="925,-112.5 925,-131.5 1002,-131.5 1002,-112.5 925,-112.5"/>
<text text-anchor="middle" x="963.5" y="-119.5" font-family="Helvetica,sans-Serif" font-size="10.00">bwDistance.h</text>
</a>
</g>
</g>
<!-- Node7&#45;&gt;Node10 -->
<g id="edge9" class="edge">
<title>Node7&#45;&gt;Node10</title>
<path fill="none" stroke="midnightblue" d="M622.59,-172.93C680.54,-165.87 802.19,-150.49 914.64,-132.24"/>
<polygon fill="midnightblue" stroke="midnightblue" points="915.5,-135.65 924.8,-130.58 914.37,-128.74 915.5,-135.65"/>
</g>
<!-- Node13 -->
<g id="node13" class="node">
<title>Node13</title>
<g id="a_node13"><a xlink:href="bwFunctorInterface_8h.html" target="_top" xlink:title=" ">
<polygon fill="none" stroke="black" points="534,-112.5 534,-131.5 643,-131.5 643,-112.5 534,-112.5"/>
<text text-anchor="middle" x="588.5" y="-119.5" font-family="Helvetica,sans-Serif" font-size="10.00">bwFunctorInterface.h</text>
</a>
</g>
</g>
<!-- Node7&#45;&gt;Node13 -->
<g id="edge12" class="edge">
<title>Node7&#45;&gt;Node13</title>
<path fill="none" stroke="midnightblue" d="M588.5,-168.08C588.5,-161.01 588.5,-150.86 588.5,-141.99"/>
<polygon fill="midnightblue" stroke="midnightblue" points="592,-141.75 588.5,-131.75 585,-141.75 592,-141.75"/>
</g>
<!-- Node14 -->
<g id="node14" class="node">
<title>Node14</title>
<g id="a_node14"><a xlink:href="bwRectangle_8h.html" target="_top" xlink:title=" ">
<polygon fill="none" stroke="black" points="661.5,-112.5 661.5,-131.5 743.5,-131.5 743.5,-112.5 661.5,-112.5"/>
<text text-anchor="middle" x="702.5" y="-119.5" font-family="Helvetica,sans-Serif" font-size="10.00">bwRectangle.h</text>
</a>
</g>
</g>
<!-- Node7&#45;&gt;Node14 -->
<g id="edge13" class="edge">
<title>Node7&#45;&gt;Node14</title>
<path fill="none" stroke="midnightblue" d="M606.56,-168.44C625.07,-159.68 654.08,-145.94 675.36,-135.86"/>
<polygon fill="midnightblue" stroke="midnightblue" points="676.98,-138.96 684.52,-131.52 673.99,-132.63 676.98,-138.96"/>
</g>
<!-- Node15 -->
<g id="node15" class="node">
<title>Node15</title>
<g id="a_node15"><a xlink:href="bwStyleProperties_8h.html" target="_top" xlink:title=" ">
<polygon fill="none" stroke="black" points="373.5,-112.5 373.5,-131.5 477.5,-131.5 477.5,-112.5 373.5,-112.5"/>
<text text-anchor="middle" x="425.5" y="-119.5" font-family="Helvetica,sans-Serif" font-size="10.00">bwStyleProperties.h</text>
</a>
</g>
</g>
<!-- Node7&#45;&gt;Node15 -->
<g id="edge14" class="edge">
<title>Node7&#45;&gt;Node15</title>
<path fill="none" stroke="midnightblue" d="M562.67,-168.44C535.25,-159.36 491.72,-144.94 461.07,-134.78"/>
<polygon fill="midnightblue" stroke="midnightblue" points="461.8,-131.34 451.21,-131.52 459.6,-137.98 461.8,-131.34"/>
</g>
<!-- Node16 -->
<g id="node16" class="node">
<title>Node16</title>
<g id="a_node16"><a xlink:href="EventHandler_8h.html" target="_top" xlink:title=" ">
<polygon fill="none" stroke="black" points="762,-112.5 762,-131.5 907,-131.5 907,-112.5 762,-112.5"/>
<text text-anchor="middle" x="834.5" y="-119.5" font-family="Helvetica,sans-Serif" font-size="10.00">screen_graph/EventHandler.h</text>
</a>
</g>
</g>
<!-- Node7&#45;&gt;Node16 -->
<g id="edge19" class="edge">
<title>Node7&#45;&gt;Node16</title>
<path fill="none" stroke="midnightblue" d="M622.71,-169.49C665.1,-160.18 737.64,-144.26 785.83,-133.68"/>
<polygon fill="midnightblue" stroke="midnightblue" points="786.71,-137.07 795.72,-131.51 785.21,-130.24 786.71,-137.07"/>
</g>
<!-- Node11 -->
<g id="node11" class="node">
<title>Node11</title>
<g id="a_node11"><a xlink:href="bwPoint_8h.html" target="_top" xlink:title=" ">
<polygon fill="none" stroke="black" points="950.5,-56.5 950.5,-75.5 1010.5,-75.5 1010.5,-56.5 950.5,-56.5"/>
<text text-anchor="middle" x="980.5" y="-63.5" font-family="Helvetica,sans-Serif" font-size="10.00">bwPoint.h</text>
</a>
</g>
</g>
<!-- Node10&#45;&gt;Node11 -->
<g id="edge10" class="edge">
<title>Node10&#45;&gt;Node11</title>
<path fill="none" stroke="midnightblue" d="M966.31,-112.08C968.58,-104.85 971.87,-94.41 974.71,-85.4"/>
<polygon fill="midnightblue" stroke="midnightblue" points="978.08,-86.34 977.75,-75.75 971.4,-84.24 978.08,-86.34"/>
</g>
<!-- Node12 -->
<g id="node12" class="node">
<title>Node12</title>
<g id="a_node12"><a xlink:title=" ">
<polygon fill="none" stroke="#bfbfbf" points="679.5,-0.5 679.5,-19.5 723.5,-19.5 723.5,-0.5 679.5,-0.5"/>
<text text-anchor="middle" x="701.5" y="-7.5" font-family="Helvetica,sans-Serif" font-size="10.00">vector</text>
</a>
</g>
</g>
<!-- Node11&#45;&gt;Node12 -->
<g id="edge11" class="edge">
<title>Node11&#45;&gt;Node12</title>
<path fill="none" stroke="midnightblue" d="M950.29,-57.9C947.33,-57.24 944.36,-56.6 941.5,-56 867.39,-40.51 779.88,-24.73 733.73,-16.61"/>
<polygon fill="midnightblue" stroke="midnightblue" points="734.18,-13.13 723.73,-14.85 732.97,-20.03 734.18,-13.13"/>
</g>
<!-- Node15&#45;&gt;Node4 -->
<g id="edge15" class="edge">
<title>Node15&#45;&gt;Node4</title>
<path fill="none" stroke="midnightblue" d="M408.47,-112.32C391.47,-103.66 365.12,-90.24 345.51,-80.25"/>
<polygon fill="midnightblue" stroke="midnightblue" points="346.99,-77.08 336.49,-75.65 343.81,-83.31 346.99,-77.08"/>
</g>
<!-- Node15&#45;&gt;Node5 -->
<g id="edge17" class="edge">
<title>Node15&#45;&gt;Node5</title>
<path fill="none" stroke="midnightblue" d="M388.42,-112.44C342.35,-101.81 264.6,-83.87 221.88,-74.01"/>
<polygon fill="midnightblue" stroke="midnightblue" points="222.59,-70.58 212.06,-71.75 221.02,-77.4 222.59,-70.58"/>
</g>
<!-- Node15&#45;&gt;Node8 -->
<g id="edge16" class="edge">
<title>Node15&#45;&gt;Node8</title>
<path fill="none" stroke="midnightblue" d="M436.26,-112.32C446.27,-104.26 461.39,-92.08 473.43,-82.37"/>
<polygon fill="midnightblue" stroke="midnightblue" points="475.95,-84.83 481.54,-75.83 471.56,-79.38 475.95,-84.83"/>
</g>
<!-- Node15&#45;&gt;Node12 -->
<g id="edge18" class="edge">
<title>Node15&#45;&gt;Node12</title>
<path fill="none" stroke="midnightblue" d="M427.32,-112.24C430.77,-98.02 439.65,-70.1 458.5,-56 491.41,-31.39 611.15,-18.41 669.33,-13.44"/>
<polygon fill="midnightblue" stroke="midnightblue" points="669.77,-16.92 679.44,-12.6 669.19,-9.94 669.77,-16.92"/>
</g>
<!-- Node17 -->
<g id="node17" class="node">
<title>Node17</title>
<g id="a_node17"><a xlink:title=" ">
<polygon fill="none" stroke="#bfbfbf" points="668.5,-56.5 668.5,-75.5 706.5,-75.5 706.5,-56.5 668.5,-56.5"/>
<text text-anchor="middle" x="687.5" y="-63.5" font-family="Helvetica,sans-Serif" font-size="10.00">array</text>
</a>
</g>
</g>
<!-- Node16&#45;&gt;Node17 -->
<g id="edge20" class="edge">
<title>Node16&#45;&gt;Node17</title>
<path fill="none" stroke="midnightblue" d="M811.21,-112.44C785.54,-103.01 744.22,-87.84 716.48,-77.65"/>
<polygon fill="midnightblue" stroke="midnightblue" points="717.52,-74.3 706.93,-74.14 715.11,-80.87 717.52,-74.3"/>
</g>
<!-- Node18 -->
<g id="node18" class="node">
<title>Node18</title>
<g id="a_node18"><a xlink:title=" ">
<polygon fill="none" stroke="#bfbfbf" points="725,-56.5 725,-75.5 784,-75.5 784,-56.5 725,-56.5"/>
<text text-anchor="middle" x="754.5" y="-63.5" font-family="Helvetica,sans-Serif" font-size="10.00">functional</text>
</a>
</g>
</g>
<!-- Node16&#45;&gt;Node18 -->
<g id="edge21" class="edge">
<title>Node16&#45;&gt;Node18</title>
<path fill="none" stroke="midnightblue" d="M821.65,-112.32C809.28,-103.98 790.37,-91.21 775.76,-81.35"/>
<polygon fill="midnightblue" stroke="midnightblue" points="777.57,-78.35 767.32,-75.65 773.65,-84.15 777.57,-78.35"/>
</g>
<!-- Node19 -->
<g id="node19" class="node">
<title>Node19</title>
<g id="a_node19"><a xlink:title=" ">
<polygon fill="none" stroke="#bfbfbf" points="802,-56.5 802,-75.5 831,-75.5 831,-56.5 802,-56.5"/>
<text text-anchor="middle" x="816.5" y="-63.5" font-family="Helvetica,sans-Serif" font-size="10.00">list</text>
</a>
</g>
</g>
<!-- Node16&#45;&gt;Node19 -->
<g id="edge22" class="edge">
<title>Node16&#45;&gt;Node19</title>
<path fill="none" stroke="midnightblue" d="M831.53,-112.08C829.12,-104.85 825.64,-94.41 822.63,-85.4"/>
<polygon fill="midnightblue" stroke="midnightblue" points="825.9,-84.13 819.42,-75.75 819.26,-86.34 825.9,-84.13"/>
</g>
<!-- Node20 -->
<g id="node20" class="node">
<title>Node20</title>
<g id="a_node20"><a xlink:title=" ">
<polygon fill="none" stroke="#bfbfbf" points="849,-56.5 849,-75.5 932,-75.5 932,-56.5 849,-56.5"/>
<text text-anchor="middle" x="890.5" y="-63.5" font-family="Helvetica,sans-Serif" font-size="10.00">unordered_map</text>
</a>
</g>
</g>
<!-- Node16&#45;&gt;Node20 -->
<g id="edge23" class="edge">
<title>Node16&#45;&gt;Node20</title>
<path fill="none" stroke="midnightblue" d="M843.5,-112.32C851.69,-104.42 864.01,-92.55 873.97,-82.94"/>
<polygon fill="midnightblue" stroke="midnightblue" points="876.57,-85.29 881.34,-75.83 871.71,-80.26 876.57,-85.29"/>
</g>
<!-- Node22 -->
<g id="node22" class="node">
<title>Node22</title>
<g id="a_node22"><a xlink:href="bwColor_8h.html" target="_top" xlink:title=" ">
<polygon fill="none" stroke="black" points="295.5,-112.5 295.5,-131.5 355.5,-131.5 355.5,-112.5 295.5,-112.5"/>
<text text-anchor="middle" x="325.5" y="-119.5" font-family="Helvetica,sans-Serif" font-size="10.00">bwColor.h</text>
</a>
</g>
</g>
<!-- Node21&#45;&gt;Node22 -->
<g id="edge25" class="edge">
<title>Node21&#45;&gt;Node22</title>
<path fill="none" stroke="midnightblue" d="M448.37,-168.44C424.02,-159.44 385.49,-145.19 358.08,-135.05"/>
<polygon fill="midnightblue" stroke="midnightblue" points="359.12,-131.7 348.53,-131.52 356.69,-138.27 359.12,-131.7"/>
</g>
<!-- Node23&#45;&gt;Node5 -->
<g id="edge27" class="edge">
<title>Node23&#45;&gt;Node5</title>
<path fill="none" stroke="midnightblue" d="M375.65,-224.08C365.43,-211.05 345.3,-186.38 325.5,-168 288.68,-133.81 240.64,-99.83 213.22,-81.31"/>
<polygon fill="midnightblue" stroke="midnightblue" points="215.01,-78.3 204.75,-75.64 211.11,-84.12 215.01,-78.3"/>
</g>
<!-- Node23&#45;&gt;Node7 -->
<g id="edge29" class="edge">
<title>Node23&#45;&gt;Node7</title>
<path fill="none" stroke="midnightblue" d="M413.34,-224.92C448.55,-215.69 506.37,-200.53 545.87,-190.17"/>
<polygon fill="midnightblue" stroke="midnightblue" points="546.96,-193.51 555.74,-187.59 545.18,-186.74 546.96,-193.51"/>
</g>
<!-- Node23&#45;&gt;Node22 -->
<g id="edge28" class="edge">
<title>Node23&#45;&gt;Node22</title>
<path fill="none" stroke="midnightblue" d="M380.12,-224.26C376.45,-211.46 368.75,-187.07 358.5,-168 353.18,-158.1 345.9,-147.93 339.53,-139.77"/>
<polygon fill="midnightblue" stroke="midnightblue" points="342.12,-137.4 333.12,-131.81 336.67,-141.79 342.12,-137.4"/>
</g>
<!-- Node24&#45;&gt;Node25 -->
<g id="edge31" class="edge">
<title>Node24&#45;&gt;Node25</title>
<path fill="none" stroke="midnightblue" d="M679.85,-280.08C678.52,-272.93 676.62,-262.64 674.96,-253.69"/>
<polygon fill="midnightblue" stroke="midnightblue" points="678.38,-252.95 673.12,-243.75 671.5,-254.22 678.38,-252.95"/>
</g>
<!-- Node25&#45;&gt;Node7 -->
<g id="edge32" class="edge">
<title>Node25&#45;&gt;Node7</title>
<path fill="none" stroke="midnightblue" d="M658.16,-224.32C645.34,-215.98 625.72,-203.21 610.56,-193.35"/>
<polygon fill="midnightblue" stroke="midnightblue" points="612.09,-190.17 601.8,-187.65 608.28,-196.04 612.09,-190.17"/>
</g>
<!-- Node25&#45;&gt;Node21 -->
<g id="edge33" class="edge">
<title>Node25&#45;&gt;Node21</title>
<path fill="none" stroke="midnightblue" d="M639.81,-224.44C605.43,-215.16 550.42,-200.31 512.71,-190.13"/>
<polygon fill="midnightblue" stroke="midnightblue" points="513.61,-186.74 503.04,-187.52 511.78,-193.5 513.61,-186.74"/>
</g>
<!-- Node27 -->
<g id="node27" class="node">
<title>Node27</title>
<g id="a_node27"><a xlink:href="bwContainerWidget_8h.html" target="_top" xlink:title=" ">
<polygon fill="none" stroke="black" points="431.5,-224.5 431.5,-243.5 541.5,-243.5 541.5,-224.5 431.5,-224.5"/>
<text text-anchor="middle" x="486.5" y="-231.5" font-family="Helvetica,sans-Serif" font-size="10.00">bwContainerWidget.h</text>
</a>
</g>
</g>
<!-- Node26&#45;&gt;Node27 -->
<g id="edge35" class="edge">
<title>Node26&#45;&gt;Node27</title>
<path fill="none" stroke="midnightblue" d="M483.16,-280.08C483.68,-273.01 484.44,-262.86 485.09,-253.99"/>
<polygon fill="midnightblue" stroke="midnightblue" points="488.6,-253.98 485.85,-243.75 481.62,-253.47 488.6,-253.98"/>
</g>
<!-- Node27&#45;&gt;Node7 -->
<g id="edge36" class="edge">
<title>Node27&#45;&gt;Node7</title>
<path fill="none" stroke="midnightblue" d="M502.89,-224.32C519.17,-215.7 544.37,-202.36 563.22,-192.39"/>
<polygon fill="midnightblue" stroke="midnightblue" points="564.95,-195.43 572.15,-187.65 561.68,-189.24 564.95,-195.43"/>
</g>
<!-- Node27&#45;&gt;Node21 -->
<g id="edge37" class="edge">
<title>Node27&#45;&gt;Node21</title>
<path fill="none" stroke="midnightblue" d="M484.02,-224.08C482.01,-216.85 479.11,-206.41 476.61,-197.4"/>
<polygon fill="midnightblue" stroke="midnightblue" points="479.98,-196.45 473.93,-187.75 473.24,-198.32 479.98,-196.45"/>
</g>
<!-- Node28&#45;&gt;Node3 -->
<g id="edge40" class="edge">
<title>Node28&#45;&gt;Node3</title>
<path fill="none" stroke="midnightblue" d="M78.09,-280.44C114.69,-271.12 173.34,-256.18 213.33,-246"/>
<polygon fill="midnightblue" stroke="midnightblue" points="214.24,-249.38 223.07,-243.52 212.51,-242.59 214.24,-249.38"/>
</g>
<!-- Node28&#45;&gt;Node5 -->
<g id="edge39" class="edge">
<title>Node28&#45;&gt;Node5</title>
<path fill="none" stroke="midnightblue" d="M50.26,-280.3C72.17,-247.22 150.51,-128.91 180.08,-84.24"/>
<polygon fill="midnightblue" stroke="midnightblue" points="183.01,-86.15 185.62,-75.88 177.18,-82.29 183.01,-86.15"/>
</g>
<!-- Node29&#45;&gt;Node3 -->
<g id="edge43" class="edge">
<title>Node29&#45;&gt;Node3</title>
<path fill="none" stroke="midnightblue" d="M170.05,-280.32C186.49,-271.7 211.93,-258.36 230.97,-248.39"/>
<polygon fill="midnightblue" stroke="midnightblue" points="232.76,-251.4 239.99,-243.65 229.51,-245.2 232.76,-251.4"/>
</g>
<!-- Node29&#45;&gt;Node5 -->
<g id="edge42" class="edge">
<title>Node29&#45;&gt;Node5</title>
<path fill="none" stroke="midnightblue" d="M154.99,-280.3C160.58,-247.63 180.4,-131.87 188.26,-85.96"/>
<polygon fill="midnightblue" stroke="midnightblue" points="191.74,-86.33 189.98,-75.88 184.84,-85.15 191.74,-86.33"/>
</g>
<!-- Node30&#45;&gt;Node3 -->
<g id="edge45" class="edge">
<title>Node30&#45;&gt;Node3</title>
<path fill="none" stroke="midnightblue" d="M256.5,-280.08C256.5,-273.01 256.5,-262.86 256.5,-253.99"/>
<polygon fill="midnightblue" stroke="midnightblue" points="260,-253.75 256.5,-243.75 253,-253.75 260,-253.75"/>
</g>
<!-- Node31&#45;&gt;Node27 -->
<g id="edge48" class="edge">
<title>Node31&#45;&gt;Node27</title>
<path fill="none" stroke="midnightblue" d="M559.52,-280.32C545.95,-271.9 525.12,-258.97 509.18,-249.07"/>
<polygon fill="midnightblue" stroke="midnightblue" points="510.79,-245.95 500.44,-243.65 507.09,-251.9 510.79,-245.95"/>
</g>
<!-- Node32 -->
<g id="node32" class="node">
<title>Node32</title>
<g id="a_node32"><a xlink:title=" ">
<polygon fill="none" stroke="#bfbfbf" points="559.5,-224.5 559.5,-243.5 603.5,-243.5 603.5,-224.5 559.5,-224.5"/>
<text text-anchor="middle" x="581.5" y="-231.5" font-family="Helvetica,sans-Serif" font-size="10.00">cmath</text>
</a>
</g>
</g>
<!-- Node31&#45;&gt;Node32 -->
<g id="edge47" class="edge">
<title>Node31&#45;&gt;Node32</title>
<path fill="none" stroke="midnightblue" d="M574.82,-280.08C575.88,-272.93 577.41,-262.64 578.73,-253.69"/>
<polygon fill="midnightblue" stroke="midnightblue" points="582.2,-254.16 580.2,-243.75 575.28,-253.13 582.2,-254.16"/>
</g>
</g>
</svg>
