<?xml version="1.0" encoding="UTF-8" standalone="no"?>
<!DOCTYPE svg PUBLIC "-//W3C//DTD SVG 1.1//EN"
 "http://www.w3.org/Graphics/SVG/1.1/DTD/svg11.dtd">
<!-- Generated by graphviz version 2.50.0 (20211204.2007)
 -->
<!-- Title: bwidgets/screen_graph/Builder.h Pages: 1 -->
<svg width="915pt" height="375pt"
 viewBox="0.00 0.00 914.62 375.00" xmlns="http://www.w3.org/2000/svg" xmlns:xlink="http://www.w3.org/1999/xlink">
<g id="graph0" class="graph" transform="scale(1 1) rotate(0) translate(4 371)">
<title>bwidgets/screen_graph/Builder.h</title>
<!-- Node1 -->
<g id="node1" class="node">
<title>Node1</title>
<g id="a_node1"><a xlink:title=" ">
<polygon fill="#bfbfbf" stroke="black" points="262.12,-336.5 262.12,-366.5 379.12,-366.5 379.12,-336.5 262.12,-336.5"/>
<text text-anchor="start" x="270.12" y="-354.5" font-family="Helvetica,sans-Serif" font-size="10.00">bwidgets/screen_graph</text>
<text text-anchor="middle" x="320.62" y="-343.5" font-family="Helvetica,sans-Serif" font-size="10.00">/Builder.h</text>
</a>
</g>
</g>
<!-- Node2 -->
<g id="node2" class="node">
<title>Node2</title>
<g id="a_node2"><a xlink:title=" ">
<polygon fill="none" stroke="#bfbfbf" points="156.62,-280.5 156.62,-299.5 218.62,-299.5 218.62,-280.5 156.62,-280.5"/>
<text text-anchor="middle" x="187.62" y="-287.5" font-family="Helvetica,sans-Serif" font-size="10.00">type_traits</text>
</a>
</g>
</g>
<!-- Node1&#45;&gt;Node2 -->
<g id="edge1" class="edge">
<title>Node1&#45;&gt;Node2</title>
<path fill="none" stroke="midnightblue" d="M289.1,-336.4C266.98,-326.51 237.65,-313.38 216.21,-303.79"/>
<polygon fill="midnightblue" stroke="midnightblue" points="217.53,-300.55 206.97,-299.66 214.67,-306.94 217.53,-300.55"/>
</g>
<!-- Node3 -->
<g id="node3" class="node">
<title>Node3</title>
<g id="a_node3"><a xlink:href="Node_8h.html" target="_top" xlink:title=" ">
<polygon fill="none" stroke="black" points="236.62,-280.5 236.62,-299.5 284.62,-299.5 284.62,-280.5 236.62,-280.5"/>
<text text-anchor="middle" x="260.62" y="-287.5" font-family="Helvetica,sans-Serif" font-size="10.00">Node.h</text>
</a>
</g>
</g>
<!-- Node1&#45;&gt;Node3 -->
<g id="edge2" class="edge">
<title>Node1&#45;&gt;Node3</title>
<path fill="none" stroke="midnightblue" d="M306.4,-336.4C297.41,-327.49 285.78,-315.95 276.49,-306.74"/>
<polygon fill="midnightblue" stroke="midnightblue" points="278.91,-304.21 269.35,-299.66 273.98,-309.18 278.91,-304.21"/>
</g>
<!-- Node6 -->
<g id="node6" class="node">
<title>Node6</title>
<g id="a_node6"><a xlink:href="bwWidget_8h.html" target="_top" xlink:title=" ">
<polygon fill="none" stroke="black" points="317.62,-168.5 317.62,-187.5 385.62,-187.5 385.62,-168.5 317.62,-168.5"/>
<text text-anchor="middle" x="351.62" y="-175.5" font-family="Helvetica,sans-Serif" font-size="10.00">bwWidget.h</text>
</a>
</g>
</g>
<!-- Node1&#45;&gt;Node6 -->
<g id="edge36" class="edge">
<title>Node1&#45;&gt;Node6</title>
<path fill="none" stroke="midnightblue" d="M323.15,-336.47C328.71,-305.7 341.98,-232.33 348.24,-197.7"/>
<polygon fill="midnightblue" stroke="midnightblue" points="351.73,-198.02 350.07,-187.56 344.85,-196.78 351.73,-198.02"/>
</g>
<!-- Node24 -->
<g id="node24" class="node">
<title>Node24</title>
<g id="a_node24"><a xlink:href="ScreenGraph_8h.html" target="_top" xlink:title=" ">
<polygon fill="none" stroke="black" points="720.62,-280.5 720.62,-299.5 802.62,-299.5 802.62,-280.5 720.62,-280.5"/>
<text text-anchor="middle" x="761.62" y="-287.5" font-family="Helvetica,sans-Serif" font-size="10.00">ScreenGraph.h</text>
</a>
</g>
</g>
<!-- Node1&#45;&gt;Node24 -->
<g id="edge28" class="edge">
<title>Node1&#45;&gt;Node24</title>
<path fill="none" stroke="midnightblue" d="M379.18,-342.6C466.13,-330.87 627.97,-309.03 710.44,-297.9"/>
<polygon fill="midnightblue" stroke="midnightblue" points="711.13,-301.34 720.57,-296.54 710.2,-294.41 711.13,-301.34"/>
</g>
<!-- Node4 -->
<g id="node4" class="node">
<title>Node4</title>
<g id="a_node4"><a xlink:title=" ">
<polygon fill="none" stroke="#bfbfbf" points="113.12,-56.5 113.12,-75.5 142.12,-75.5 142.12,-56.5 113.12,-56.5"/>
<text text-anchor="middle" x="127.62" y="-63.5" font-family="Helvetica,sans-Serif" font-size="10.00">list</text>
</a>
</g>
</g>
<!-- Node3&#45;&gt;Node4 -->
<g id="edge3" class="edge">
<title>Node3&#45;&gt;Node4</title>
<path fill="none" stroke="midnightblue" d="M236.56,-282.37C181,-266.55 46.47,-225.12 19.62,-188 -0.29,-160.48 -7.57,-140.02 11.62,-112 32.09,-82.1 75.53,-72.07 103.06,-68.7"/>
<polygon fill="midnightblue" stroke="midnightblue" points="103.49,-72.17 113.08,-67.68 102.78,-65.21 103.49,-72.17"/>
</g>
<!-- Node5 -->
<g id="node5" class="node">
<title>Node5</title>
<g id="a_node5"><a xlink:href="bwContainerWidget_8h.html" target="_top" xlink:title=" ">
<polygon fill="none" stroke="black" points="175.62,-224.5 175.62,-243.5 285.62,-243.5 285.62,-224.5 175.62,-224.5"/>
<text text-anchor="middle" x="230.62" y="-231.5" font-family="Helvetica,sans-Serif" font-size="10.00">bwContainerWidget.h</text>
</a>
</g>
</g>
<!-- Node3&#45;&gt;Node5 -->
<g id="edge4" class="edge">
<title>Node3&#45;&gt;Node5</title>
<path fill="none" stroke="midnightblue" d="M255.66,-280.08C251.51,-272.61 245.46,-261.72 240.35,-252.52"/>
<polygon fill="midnightblue" stroke="midnightblue" points="243.39,-250.79 235.48,-243.75 237.27,-254.19 243.39,-250.79"/>
</g>
<!-- Node3&#45;&gt;Node6 -->
<g id="edge27" class="edge">
<title>Node3&#45;&gt;Node6</title>
<path fill="none" stroke="midnightblue" d="M267.76,-280.37C282.91,-262.05 318.48,-219.05 338.08,-195.36"/>
<polygon fill="midnightblue" stroke="midnightblue" points="340.83,-197.53 344.51,-187.59 335.44,-193.07 340.83,-197.53"/>
</g>
<!-- Node23 -->
<g id="node23" class="node">
<title>Node23</title>
<g id="a_node23"><a xlink:href="bwLayoutInterface_8h.html" target="_top" xlink:title=" ">
<polygon fill="none" stroke="black" points="29.12,-168.5 29.12,-187.5 134.12,-187.5 134.12,-168.5 29.12,-168.5"/>
<text text-anchor="middle" x="81.62" y="-175.5" font-family="Helvetica,sans-Serif" font-size="10.00">bwLayoutInterface.h</text>
</a>
</g>
</g>
<!-- Node3&#45;&gt;Node23 -->
<g id="edge25" class="edge">
<title>Node3&#45;&gt;Node23</title>
<path fill="none" stroke="midnightblue" d="M239.43,-280.35C219.94,-272.06 190.53,-258.65 166.62,-244 141.93,-228.88 115.8,-208.08 99.13,-194.12"/>
<polygon fill="midnightblue" stroke="midnightblue" points="101.23,-191.31 91.34,-187.51 96.7,-196.65 101.23,-191.31"/>
</g>
<!-- Node5&#45;&gt;Node6 -->
<g id="edge5" class="edge">
<title>Node5&#45;&gt;Node6</title>
<path fill="none" stroke="midnightblue" d="M249.79,-224.44C269.53,-215.64 300.5,-201.81 323.11,-191.72"/>
<polygon fill="midnightblue" stroke="midnightblue" points="324.83,-194.79 332.53,-187.52 321.97,-188.4 324.83,-194.79"/>
</g>
<!-- Node21 -->
<g id="node21" class="node">
<title>Node21</title>
<g id="a_node21"><a xlink:href="bwWidgetBaseStyle_8h.html" target="_top" xlink:title=" ">
<polygon fill="none" stroke="black" points="167.12,-168.5 167.12,-187.5 280.12,-187.5 280.12,-168.5 167.12,-168.5"/>
<text text-anchor="middle" x="223.62" y="-175.5" font-family="Helvetica,sans-Serif" font-size="10.00">bwWidgetBaseStyle.h</text>
</a>
</g>
</g>
<!-- Node5&#45;&gt;Node21 -->
<g id="edge23" class="edge">
<title>Node5&#45;&gt;Node21</title>
<path fill="none" stroke="midnightblue" d="M229.46,-224.08C228.53,-216.93 227.2,-206.64 226.04,-197.69"/>
<polygon fill="midnightblue" stroke="midnightblue" points="229.51,-197.22 224.75,-187.75 222.57,-198.12 229.51,-197.22"/>
</g>
<!-- Node7 -->
<g id="node7" class="node">
<title>Node7</title>
<g id="a_node7"><a xlink:title=" ">
<polygon fill="none" stroke="#bfbfbf" points="694.62,-56.5 694.62,-75.5 744.62,-75.5 744.62,-56.5 694.62,-56.5"/>
<text text-anchor="middle" x="719.62" y="-63.5" font-family="Helvetica,sans-Serif" font-size="10.00">optional</text>
</a>
</g>
</g>
<!-- Node6&#45;&gt;Node7 -->
<g id="edge6" class="edge">
<title>Node6&#45;&gt;Node7</title>
<path fill="none" stroke="midnightblue" d="M385.83,-175.51C458.15,-171.83 623.84,-160.46 671.62,-132 689.83,-121.15 703.27,-100.46 711.22,-85.33"/>
<polygon fill="midnightblue" stroke="midnightblue" points="714.57,-86.45 715.84,-75.93 708.29,-83.36 714.57,-86.45"/>
</g>
<!-- Node8 -->
<g id="node8" class="node">
<title>Node8</title>
<g id="a_node8"><a xlink:title=" ">
<polygon fill="none" stroke="#bfbfbf" points="326.12,-112.5 326.12,-131.5 377.12,-131.5 377.12,-112.5 326.12,-112.5"/>
<text text-anchor="middle" x="351.62" y="-119.5" font-family="Helvetica,sans-Serif" font-size="10.00">typeinfo</text>
</a>
</g>
</g>
<!-- Node6&#45;&gt;Node8 -->
<g id="edge7" class="edge">
<title>Node6&#45;&gt;Node8</title>
<path fill="none" stroke="midnightblue" d="M351.62,-168.08C351.62,-161.01 351.62,-150.86 351.62,-141.99"/>
<polygon fill="midnightblue" stroke="midnightblue" points="355.12,-141.75 351.62,-131.75 348.12,-141.75 355.12,-141.75"/>
</g>
<!-- Node9 -->
<g id="node9" class="node">
<title>Node9</title>
<g id="a_node9"><a xlink:href="bwDistance_8h.html" target="_top" xlink:title=" ">
<polygon fill="none" stroke="black" points="757.12,-112.5 757.12,-131.5 834.12,-131.5 834.12,-112.5 757.12,-112.5"/>
<text text-anchor="middle" x="795.62" y="-119.5" font-family="Helvetica,sans-Serif" font-size="10.00">bwDistance.h</text>
</a>
</g>
</g>
<!-- Node6&#45;&gt;Node9 -->
<g id="edge8" class="edge">
<title>Node6&#45;&gt;Node9</title>
<path fill="none" stroke="midnightblue" d="M385.72,-172.85C463.93,-163.34 656.43,-139.93 747.01,-128.91"/>
<polygon fill="midnightblue" stroke="midnightblue" points="747.51,-132.38 757.01,-127.69 746.67,-125.43 747.51,-132.38"/>
</g>
<!-- Node12 -->
<g id="node12" class="node">
<title>Node12</title>
<g id="a_node12"><a xlink:href="bwFunctorInterface_8h.html" target="_top" xlink:title=" ">
<polygon fill="none" stroke="black" points="199.12,-112.5 199.12,-131.5 308.12,-131.5 308.12,-112.5 199.12,-112.5"/>
<text text-anchor="middle" x="253.62" y="-119.5" font-family="Helvetica,sans-Serif" font-size="10.00">bwFunctorInterface.h</text>
</a>
</g>
</g>
<!-- Node6&#45;&gt;Node12 -->
<g id="edge11" class="edge">
<title>Node6&#45;&gt;Node12</title>
<path fill="none" stroke="midnightblue" d="M335.87,-168.32C320.3,-159.74 296.24,-146.49 278.16,-136.52"/>
<polygon fill="midnightblue" stroke="midnightblue" points="279.77,-133.42 269.32,-131.65 276.39,-139.55 279.77,-133.42"/>
</g>
<!-- Node13 -->
<g id="node13" class="node">
<title>Node13</title>
<g id="a_node13"><a xlink:href="bwRectangle_8h.html" target="_top" xlink:title=" ">
<polygon fill="none" stroke="black" points="20.62,-112.5 20.62,-131.5 102.62,-131.5 102.62,-112.5 20.62,-112.5"/>
<text text-anchor="middle" x="61.62" y="-119.5" font-family="Helvetica,sans-Serif" font-size="10.00">bwRectangle.h</text>
</a>
</g>
</g>
<!-- Node6&#45;&gt;Node13 -->
<g id="edge12" class="edge">
<title>Node6&#45;&gt;Node13</title>
<path fill="none" stroke="midnightblue" d="M317.5,-170.65C266.97,-161.24 171.88,-143.53 112.93,-132.55"/>
<polygon fill="midnightblue" stroke="midnightblue" points="113.55,-129.11 103.07,-130.72 112.26,-135.99 113.55,-129.11"/>
</g>
<!-- Node14 -->
<g id="node14" class="node">
<title>Node14</title>
<g id="a_node14"><a xlink:href="bwStyleProperties_8h.html" target="_top" xlink:title=" ">
<polygon fill="none" stroke="black" points="558.62,-112.5 558.62,-131.5 662.62,-131.5 662.62,-112.5 558.62,-112.5"/>
<text text-anchor="middle" x="610.62" y="-119.5" font-family="Helvetica,sans-Serif" font-size="10.00">bwStyleProperties.h</text>
</a>
</g>
</g>
<!-- Node6&#45;&gt;Node14 -->
<g id="edge13" class="edge">
<title>Node6&#45;&gt;Node14</title>
<path fill="none" stroke="midnightblue" d="M385.74,-169.88C430.17,-160.62 508.21,-144.35 559.66,-133.62"/>
<polygon fill="midnightblue" stroke="midnightblue" points="560.5,-137.02 569.58,-131.56 559.07,-130.17 560.5,-137.02"/>
</g>
<!-- Node17 -->
<g id="node17" class="node">
<title>Node17</title>
<g id="a_node17"><a xlink:href="EventHandler_8h.html" target="_top" xlink:title=" ">
<polygon fill="none" stroke="black" points="395.12,-112.5 395.12,-131.5 540.12,-131.5 540.12,-112.5 395.12,-112.5"/>
<text text-anchor="middle" x="467.62" y="-119.5" font-family="Helvetica,sans-Serif" font-size="10.00">screen_graph/EventHandler.h</text>
</a>
</g>
</g>
<!-- Node6&#45;&gt;Node17 -->
<g id="edge18" class="edge">
<title>Node6&#45;&gt;Node17</title>
<path fill="none" stroke="midnightblue" d="M370,-168.44C388.83,-159.68 418.35,-145.94 440,-135.86"/>
<polygon fill="midnightblue" stroke="midnightblue" points="441.73,-138.91 449.32,-131.52 438.78,-132.56 441.73,-138.91"/>
</g>
<!-- Node10 -->
<g id="node10" class="node">
<title>Node10</title>
<g id="a_node10"><a xlink:href="bwPoint_8h.html" target="_top" xlink:title=" ">
<polygon fill="none" stroke="black" points="798.62,-56.5 798.62,-75.5 858.62,-75.5 858.62,-56.5 798.62,-56.5"/>
<text text-anchor="middle" x="828.62" y="-63.5" font-family="Helvetica,sans-Serif" font-size="10.00">bwPoint.h</text>
</a>
</g>
</g>
<!-- Node9&#45;&gt;Node10 -->
<g id="edge9" class="edge">
<title>Node9&#45;&gt;Node10</title>
<path fill="none" stroke="midnightblue" d="M801.07,-112.08C805.63,-104.61 812.28,-93.72 817.91,-84.52"/>
<polygon fill="midnightblue" stroke="midnightblue" points="821.04,-86.11 823.27,-75.75 815.07,-82.46 821.04,-86.11"/>
</g>
<!-- Node11 -->
<g id="node11" class="node">
<title>Node11</title>
<g id="a_node11"><a xlink:title=" ">
<polygon fill="none" stroke="#bfbfbf" points="709.62,-0.5 709.62,-19.5 753.62,-19.5 753.62,-0.5 709.62,-0.5"/>
<text text-anchor="middle" x="731.62" y="-7.5" font-family="Helvetica,sans-Serif" font-size="10.00">vector</text>
</a>
</g>
</g>
<!-- Node10&#45;&gt;Node11 -->
<g id="edge10" class="edge">
<title>Node10&#45;&gt;Node11</title>
<path fill="none" stroke="midnightblue" d="M813.03,-56.32C797.62,-47.74 773.8,-34.49 755.91,-24.52"/>
<polygon fill="midnightblue" stroke="midnightblue" points="757.6,-21.46 747.16,-19.65 754.2,-27.58 757.6,-21.46"/>
</g>
<!-- Node14&#45;&gt;Node7 -->
<g id="edge15" class="edge">
<title>Node14&#45;&gt;Node7</title>
<path fill="none" stroke="midnightblue" d="M628.13,-112.32C645.69,-103.62 672.95,-90.12 693.15,-80.11"/>
<polygon fill="midnightblue" stroke="midnightblue" points="694.74,-83.23 702.15,-75.65 691.63,-76.96 694.74,-83.23"/>
</g>
<!-- Node14&#45;&gt;Node11 -->
<g id="edge17" class="edge">
<title>Node14&#45;&gt;Node11</title>
<path fill="none" stroke="midnightblue" d="M620.11,-112.37C640.52,-93.81 688.81,-49.91 714.63,-26.44"/>
<polygon fill="midnightblue" stroke="midnightblue" points="717.12,-28.91 722.17,-19.59 712.41,-23.73 717.12,-28.91"/>
</g>
<!-- Node15 -->
<g id="node15" class="node">
<title>Node15</title>
<g id="a_node15"><a xlink:title=" ">
<polygon fill="none" stroke="#bfbfbf" points="586.62,-56.5 586.62,-75.5 638.62,-75.5 638.62,-56.5 586.62,-56.5"/>
<text text-anchor="middle" x="612.62" y="-63.5" font-family="Helvetica,sans-Serif" font-size="10.00">memory</text>
</a>
</g>
</g>
<!-- Node14&#45;&gt;Node15 -->
<g id="edge14" class="edge">
<title>Node14&#45;&gt;Node15</title>
<path fill="none" stroke="midnightblue" d="M610.95,-112.08C611.21,-105.01 611.58,-94.86 611.91,-85.99"/>
<polygon fill="midnightblue" stroke="midnightblue" points="615.42,-85.87 612.29,-75.75 608.42,-85.61 615.42,-85.87"/>
</g>
<!-- Node16 -->
<g id="node16" class="node">
<title>Node16</title>
<g id="a_node16"><a xlink:title=" ">
<polygon fill="none" stroke="#bfbfbf" points="527.12,-56.5 527.12,-75.5 568.12,-75.5 568.12,-56.5 527.12,-56.5"/>
<text text-anchor="middle" x="547.62" y="-63.5" font-family="Helvetica,sans-Serif" font-size="10.00">string</text>
</a>
</g>
</g>
<!-- Node14&#45;&gt;Node16 -->
<g id="edge16" class="edge">
<title>Node14&#45;&gt;Node16</title>
<path fill="none" stroke="midnightblue" d="M600.49,-112.32C591.09,-104.26 576.87,-92.08 565.55,-82.37"/>
<polygon fill="midnightblue" stroke="midnightblue" points="567.79,-79.68 557.92,-75.83 563.24,-85 567.79,-79.68"/>
</g>
<!-- Node17&#45;&gt;Node4 -->
<g id="edge21" class="edge">
<title>Node17&#45;&gt;Node4</title>
<path fill="none" stroke="midnightblue" d="M413.74,-112.44C339.12,-100.59 207.3,-79.66 152.55,-70.96"/>
<polygon fill="midnightblue" stroke="midnightblue" points="152.8,-67.46 142.37,-69.34 151.7,-74.37 152.8,-67.46"/>
</g>
<!-- Node18 -->
<g id="node18" class="node">
<title>Node18</title>
<g id="a_node18"><a xlink:title=" ">
<polygon fill="none" stroke="#bfbfbf" points="393.62,-56.5 393.62,-75.5 431.62,-75.5 431.62,-56.5 393.62,-56.5"/>
<text text-anchor="middle" x="412.62" y="-63.5" font-family="Helvetica,sans-Serif" font-size="10.00">array</text>
</a>
</g>
</g>
<!-- Node17&#45;&gt;Node18 -->
<g id="edge19" class="edge">
<title>Node17&#45;&gt;Node18</title>
<path fill="none" stroke="midnightblue" d="M458.53,-112.08C450.44,-104.14 438.42,-92.34 428.71,-82.8"/>
<polygon fill="midnightblue" stroke="midnightblue" points="431.12,-80.26 421.53,-75.75 426.21,-85.25 431.12,-80.26"/>
</g>
<!-- Node19 -->
<g id="node19" class="node">
<title>Node19</title>
<g id="a_node19"><a xlink:title=" ">
<polygon fill="none" stroke="#bfbfbf" points="450.12,-56.5 450.12,-75.5 509.12,-75.5 509.12,-56.5 450.12,-56.5"/>
<text text-anchor="middle" x="479.62" y="-63.5" font-family="Helvetica,sans-Serif" font-size="10.00">functional</text>
</a>
</g>
</g>
<!-- Node17&#45;&gt;Node19 -->
<g id="edge20" class="edge">
<title>Node17&#45;&gt;Node19</title>
<path fill="none" stroke="midnightblue" d="M469.6,-112.08C471.19,-104.93 473.47,-94.64 475.46,-85.69"/>
<polygon fill="midnightblue" stroke="midnightblue" points="478.92,-86.27 477.67,-75.75 472.09,-84.75 478.92,-86.27"/>
</g>
<!-- Node20 -->
<g id="node20" class="node">
<title>Node20</title>
<g id="a_node20"><a xlink:title=" ">
<polygon fill="none" stroke="#bfbfbf" points="292.12,-56.5 292.12,-75.5 375.12,-75.5 375.12,-56.5 292.12,-56.5"/>
<text text-anchor="middle" x="333.62" y="-63.5" font-family="Helvetica,sans-Serif" font-size="10.00">unordered_map</text>
</a>
</g>
</g>
<!-- Node17&#45;&gt;Node20 -->
<g id="edge22" class="edge">
<title>Node17&#45;&gt;Node20</title>
<path fill="none" stroke="midnightblue" d="M446.38,-112.44C424.23,-103.52 389.3,-89.44 364.18,-79.32"/>
<polygon fill="midnightblue" stroke="midnightblue" points="365.33,-76.01 354.75,-75.52 362.72,-82.5 365.33,-76.01"/>
</g>
<!-- Node22 -->
<g id="node22" class="node">
<title>Node22</title>
<g id="a_node22"><a xlink:href="bwColor_8h.html" target="_top" xlink:title=" ">
<polygon fill="none" stroke="black" points="120.62,-112.5 120.62,-131.5 180.62,-131.5 180.62,-112.5 120.62,-112.5"/>
<text text-anchor="middle" x="150.62" y="-119.5" font-family="Helvetica,sans-Serif" font-size="10.00">bwColor.h</text>
</a>
</g>
</g>
<!-- Node21&#45;&gt;Node22 -->
<g id="edge24" class="edge">
<title>Node21&#45;&gt;Node22</title>
<path fill="none" stroke="midnightblue" d="M211.89,-168.32C200.78,-160.11 183.87,-147.6 170.63,-137.81"/>
<polygon fill="midnightblue" stroke="midnightblue" points="172.68,-134.97 162.56,-131.83 168.52,-140.59 172.68,-134.97"/>
</g>
<!-- Node23&#45;&gt;Node13 -->
<g id="edge26" class="edge">
<title>Node23&#45;&gt;Node13</title>
<path fill="none" stroke="midnightblue" d="M78.31,-168.08C75.63,-160.85 71.77,-150.41 68.43,-141.4"/>
<polygon fill="midnightblue" stroke="midnightblue" points="71.61,-139.91 64.86,-131.75 65.05,-142.34 71.61,-139.91"/>
</g>
<!-- Node25 -->
<g id="node25" class="node">
<title>Node25</title>
<g id="a_node25"><a xlink:href="bwContext_8h.html" target="_top" xlink:title=" ">
<polygon fill="none" stroke="black" points="834.62,-224.5 834.62,-243.5 906.62,-243.5 906.62,-224.5 834.62,-224.5"/>
<text text-anchor="middle" x="870.62" y="-231.5" font-family="Helvetica,sans-Serif" font-size="10.00">bwContext.h</text>
</a>
</g>
</g>
<!-- Node24&#45;&gt;Node25 -->
<g id="edge29" class="edge">
<title>Node24&#45;&gt;Node25</title>
<path fill="none" stroke="midnightblue" d="M779.13,-280.32C796.69,-271.62 823.95,-258.12 844.15,-248.11"/>
<polygon fill="midnightblue" stroke="midnightblue" points="845.74,-251.23 853.15,-243.65 842.63,-244.96 845.74,-251.23"/>
</g>
<!-- Node26 -->
<g id="node26" class="node">
<title>Node26</title>
<g id="a_node26"><a xlink:href="bwEventDispatcher_8h.html" target="_top" xlink:title=" ">
<polygon fill="none" stroke="black" points="706.62,-224.5 706.62,-243.5 816.62,-243.5 816.62,-224.5 706.62,-224.5"/>
<text text-anchor="middle" x="761.62" y="-231.5" font-family="Helvetica,sans-Serif" font-size="10.00">bwEventDispatcher.h</text>
</a>
</g>
</g>
<!-- Node24&#45;&gt;Node26 -->
<g id="edge30" class="edge">
<title>Node24&#45;&gt;Node26</title>
<path fill="none" stroke="midnightblue" d="M761.62,-280.08C761.62,-273.01 761.62,-262.86 761.62,-253.99"/>
<polygon fill="midnightblue" stroke="midnightblue" points="765.12,-253.75 761.62,-243.75 758.12,-253.75 765.12,-253.75"/>
</g>
<!-- Node26&#45;&gt;Node7 -->
<g id="edge31" class="edge">
<title>Node26&#45;&gt;Node7</title>
<path fill="none" stroke="midnightblue" d="M759.36,-224.08C752.75,-197.95 733.33,-121.21 724.32,-85.58"/>
<polygon fill="midnightblue" stroke="midnightblue" points="727.63,-84.4 721.78,-75.57 720.84,-86.12 727.63,-84.4"/>
</g>
<!-- Node26&#45;&gt;Node10 -->
<g id="edge35" class="edge">
<title>Node26&#45;&gt;Node10</title>
<path fill="none" stroke="midnightblue" d="M783.67,-224.44C800.22,-217.01 822.39,-204.81 836.62,-188 859.33,-161.16 868.81,-145.66 858.62,-112 855.5,-101.7 849.16,-91.61 843.11,-83.6"/>
<polygon fill="midnightblue" stroke="midnightblue" points="845.83,-81.4 836.83,-75.82 840.39,-85.8 845.83,-81.4"/>
</g>
<!-- Node27 -->
<g id="node27" class="node">
<title>Node27</title>
<g id="a_node27"><a xlink:href="bwEvent_8h.html" target="_top" xlink:title=" ">
<polygon fill="none" stroke="black" points="764.12,-168.5 764.12,-187.5 827.12,-187.5 827.12,-168.5 764.12,-168.5"/>
<text text-anchor="middle" x="795.62" y="-175.5" font-family="Helvetica,sans-Serif" font-size="10.00">bwEvent.h</text>
</a>
</g>
</g>
<!-- Node26&#45;&gt;Node27 -->
<g id="edge32" class="edge">
<title>Node26&#45;&gt;Node27</title>
<path fill="none" stroke="midnightblue" d="M767.23,-224.08C771.98,-216.53 778.93,-205.49 784.77,-196.23"/>
<polygon fill="midnightblue" stroke="midnightblue" points="787.74,-198.08 790.11,-187.75 781.82,-194.35 787.74,-198.08"/>
</g>
<!-- Node27&#45;&gt;Node9 -->
<g id="edge33" class="edge">
<title>Node27&#45;&gt;Node9</title>
<path fill="none" stroke="midnightblue" d="M795.62,-168.08C795.62,-161.01 795.62,-150.86 795.62,-141.99"/>
<polygon fill="midnightblue" stroke="midnightblue" points="799.12,-141.75 795.62,-131.75 792.12,-141.75 799.12,-141.75"/>
</g>
<!-- Node27&#45;&gt;Node10 -->
<g id="edge34" class="edge">
<title>Node27&#45;&gt;Node10</title>
<path fill="none" stroke="midnightblue" d="M809.99,-168.33C821.5,-160.47 836.8,-147.72 843.62,-132 850.22,-116.76 844.71,-98.19 838.6,-84.81"/>
<polygon fill="midnightblue" stroke="midnightblue" points="841.63,-83.06 833.99,-75.73 835.39,-86.23 841.63,-83.06"/>
</g>
</g>
</svg>
