<?xml version="1.0" encoding="UTF-8" standalone="no"?>
<!DOCTYPE svg PUBLIC "-//W3C//DTD SVG 1.1//EN"
 "http://www.w3.org/Graphics/SVG/1.1/DTD/svg11.dtd">
<!-- Generated by graphviz version 2.50.0 (20211204.2007)
 -->
<!-- Title: bwidgets/widgets/bwAbstractButton.h Pages: 1 -->
<svg width="868pt" height="263pt"
 viewBox="0.00 0.00 868.00 263.00" xmlns="http://www.w3.org/2000/svg" xmlns:xlink="http://www.w3.org/1999/xlink">
<g id="graph0" class="graph" transform="scale(1 1) rotate(0) translate(4 259)">
<title>bwidgets/widgets/bwAbstractButton.h</title>
<!-- Node1 -->
<g id="node1" class="node">
<title>Node1</title>
<g id="a_node1"><a xlink:title=" ">
<polygon fill="#bfbfbf" stroke="black" points="238.5,-224.5 238.5,-254.5 383.5,-254.5 383.5,-224.5 238.5,-224.5"/>
<text text-anchor="start" x="246.5" y="-242.5" font-family="Helvetica,sans-Serif" font-size="10.00">bwidgets/widgets/bwAbstract</text>
<text text-anchor="middle" x="311" y="-231.5" font-family="Helvetica,sans-Serif" font-size="10.00">Button.h</text>
</a>
</g>
</g>
<!-- Node2 -->
<g id="node2" class="node">
<title>Node2</title>
<g id="a_node2"><a xlink:title=" ">
<polygon fill="none" stroke="#bfbfbf" points="0,-56.5 0,-75.5 52,-75.5 52,-56.5 0,-56.5"/>
<text text-anchor="middle" x="26" y="-63.5" font-family="Helvetica,sans-Serif" font-size="10.00">memory</text>
</a>
</g>
</g>
<!-- Node1&#45;&gt;Node2 -->
<g id="edge1" class="edge">
<title>Node1&#45;&gt;Node2</title>
<path fill="none" stroke="midnightblue" d="M238.02,-233.89C195.69,-228.16 143.18,-215.56 104,-188 66.99,-161.96 43.32,-112.23 32.63,-85.34"/>
<polygon fill="midnightblue" stroke="midnightblue" points="35.77,-83.76 28.95,-75.65 29.22,-86.25 35.77,-83.76"/>
</g>
<!-- Node3 -->
<g id="node3" class="node">
<title>Node3</title>
<g id="a_node3"><a xlink:title=" ">
<polygon fill="none" stroke="#bfbfbf" points="72.5,-56.5 72.5,-75.5 113.5,-75.5 113.5,-56.5 72.5,-56.5"/>
<text text-anchor="middle" x="93" y="-63.5" font-family="Helvetica,sans-Serif" font-size="10.00">string</text>
</a>
</g>
</g>
<!-- Node1&#45;&gt;Node3 -->
<g id="edge2" class="edge">
<title>Node1&#45;&gt;Node3</title>
<path fill="none" stroke="midnightblue" d="M238.3,-227.14C183.1,-214.29 110.79,-187.41 75,-132 65.61,-117.45 73.07,-98.02 81.05,-84.21"/>
<polygon fill="midnightblue" stroke="midnightblue" points="84.07,-85.99 86.46,-75.67 78.15,-82.24 84.07,-85.99"/>
</g>
<!-- Node4 -->
<g id="node4" class="node">
<title>Node4</title>
<g id="a_node4"><a xlink:href="bwUtil_8h.html" target="_top" xlink:title=" ">
<polygon fill="none" stroke="black" points="363.5,-168.5 363.5,-187.5 416.5,-187.5 416.5,-168.5 363.5,-168.5"/>
<text text-anchor="middle" x="390" y="-175.5" font-family="Helvetica,sans-Serif" font-size="10.00">bwUtil.h</text>
</a>
</g>
</g>
<!-- Node1&#45;&gt;Node4 -->
<g id="edge3" class="edge">
<title>Node1&#45;&gt;Node4</title>
<path fill="none" stroke="midnightblue" d="M329.72,-224.4C341.91,-215.22 357.79,-203.26 370.19,-193.92"/>
<polygon fill="midnightblue" stroke="midnightblue" points="372.62,-196.47 378.5,-187.66 368.41,-190.88 372.62,-196.47"/>
</g>
<!-- Node5 -->
<g id="node5" class="node">
<title>Node5</title>
<g id="a_node5"><a xlink:href="bwWidget_8h.html" target="_top" xlink:title=" ">
<polygon fill="none" stroke="black" points="277,-168.5 277,-187.5 345,-187.5 345,-168.5 277,-168.5"/>
<text text-anchor="middle" x="311" y="-175.5" font-family="Helvetica,sans-Serif" font-size="10.00">bwWidget.h</text>
</a>
</g>
</g>
<!-- Node1&#45;&gt;Node5 -->
<g id="edge4" class="edge">
<title>Node1&#45;&gt;Node5</title>
<path fill="none" stroke="midnightblue" d="M311,-224.4C311,-216.47 311,-206.46 311,-197.86"/>
<polygon fill="midnightblue" stroke="midnightblue" points="314.5,-197.66 311,-187.66 307.5,-197.66 314.5,-197.66"/>
</g>
<!-- Node19 -->
<g id="node19" class="node">
<title>Node19</title>
<g id="a_node19"><a xlink:href="bwWidgetBaseStyle_8h.html" target="_top" xlink:title=" ">
<polygon fill="none" stroke="black" points="624.5,-168.5 624.5,-187.5 737.5,-187.5 737.5,-168.5 624.5,-168.5"/>
<text text-anchor="middle" x="681" y="-175.5" font-family="Helvetica,sans-Serif" font-size="10.00">bwWidgetBaseStyle.h</text>
</a>
</g>
</g>
<!-- Node1&#45;&gt;Node19 -->
<g id="edge22" class="edge">
<title>Node1&#45;&gt;Node19</title>
<path fill="none" stroke="midnightblue" d="M383.66,-226.82C451.88,-215.84 552.9,-199.6 617.85,-189.16"/>
<polygon fill="midnightblue" stroke="midnightblue" points="618.63,-192.57 627.95,-187.53 617.52,-185.66 618.63,-192.57"/>
</g>
<!-- Node6 -->
<g id="node6" class="node">
<title>Node6</title>
<g id="a_node6"><a xlink:title=" ">
<polygon fill="none" stroke="#bfbfbf" points="178,-56.5 178,-75.5 228,-75.5 228,-56.5 178,-56.5"/>
<text text-anchor="middle" x="203" y="-63.5" font-family="Helvetica,sans-Serif" font-size="10.00">optional</text>
</a>
</g>
</g>
<!-- Node5&#45;&gt;Node6 -->
<g id="edge5" class="edge">
<title>Node5&#45;&gt;Node6</title>
<path fill="none" stroke="midnightblue" d="M289.73,-168.47C273.1,-160.92 250.31,-148.54 235,-132 222.47,-118.47 213.8,-99.11 208.67,-85.05"/>
<polygon fill="midnightblue" stroke="midnightblue" points="211.96,-83.85 205.44,-75.5 205.33,-86.1 211.96,-83.85"/>
</g>
<!-- Node7 -->
<g id="node7" class="node">
<title>Node7</title>
<g id="a_node7"><a xlink:title=" ">
<polygon fill="none" stroke="#bfbfbf" points="244.5,-112.5 244.5,-131.5 295.5,-131.5 295.5,-112.5 244.5,-112.5"/>
<text text-anchor="middle" x="270" y="-119.5" font-family="Helvetica,sans-Serif" font-size="10.00">typeinfo</text>
</a>
</g>
</g>
<!-- Node5&#45;&gt;Node7 -->
<g id="edge6" class="edge">
<title>Node5&#45;&gt;Node7</title>
<path fill="none" stroke="midnightblue" d="M304.23,-168.08C298.44,-160.46 289.94,-149.26 282.86,-139.94"/>
<polygon fill="midnightblue" stroke="midnightblue" points="285.48,-137.6 276.64,-131.75 279.9,-141.83 285.48,-137.6"/>
</g>
<!-- Node8 -->
<g id="node8" class="node">
<title>Node8</title>
<g id="a_node8"><a xlink:href="bwDistance_8h.html" target="_top" xlink:title=" ">
<polygon fill="none" stroke="black" points="313.5,-112.5 313.5,-131.5 390.5,-131.5 390.5,-112.5 313.5,-112.5"/>
<text text-anchor="middle" x="352" y="-119.5" font-family="Helvetica,sans-Serif" font-size="10.00">bwDistance.h</text>
</a>
</g>
</g>
<!-- Node5&#45;&gt;Node8 -->
<g id="edge7" class="edge">
<title>Node5&#45;&gt;Node8</title>
<path fill="none" stroke="midnightblue" d="M317.77,-168.08C323.56,-160.46 332.06,-149.26 339.14,-139.94"/>
<polygon fill="midnightblue" stroke="midnightblue" points="342.1,-141.83 345.36,-131.75 336.52,-137.6 342.1,-141.83"/>
</g>
<!-- Node11 -->
<g id="node11" class="node">
<title>Node11</title>
<g id="a_node11"><a xlink:href="bwFunctorInterface_8h.html" target="_top" xlink:title=" ">
<polygon fill="none" stroke="black" points="408.5,-112.5 408.5,-131.5 517.5,-131.5 517.5,-112.5 408.5,-112.5"/>
<text text-anchor="middle" x="463" y="-119.5" font-family="Helvetica,sans-Serif" font-size="10.00">bwFunctorInterface.h</text>
</a>
</g>
</g>
<!-- Node5&#45;&gt;Node11 -->
<g id="edge10" class="edge">
<title>Node5&#45;&gt;Node11</title>
<path fill="none" stroke="midnightblue" d="M335.08,-168.44C360.54,-159.4 400.89,-145.06 429.46,-134.92"/>
<polygon fill="midnightblue" stroke="midnightblue" points="430.78,-138.16 439.03,-131.52 428.43,-131.57 430.78,-138.16"/>
</g>
<!-- Node12 -->
<g id="node12" class="node">
<title>Node12</title>
<g id="a_node12"><a xlink:href="bwRectangle_8h.html" target="_top" xlink:title=" ">
<polygon fill="none" stroke="black" points="536,-112.5 536,-131.5 618,-131.5 618,-112.5 536,-112.5"/>
<text text-anchor="middle" x="577" y="-119.5" font-family="Helvetica,sans-Serif" font-size="10.00">bwRectangle.h</text>
</a>
</g>
</g>
<!-- Node5&#45;&gt;Node12 -->
<g id="edge11" class="edge">
<title>Node5&#45;&gt;Node12</title>
<path fill="none" stroke="midnightblue" d="M345.26,-169.81C348.22,-169.19 351.16,-168.58 354,-168 412.99,-155.88 480.81,-142.23 526.02,-133.18"/>
<polygon fill="midnightblue" stroke="midnightblue" points="526.76,-136.6 535.88,-131.21 525.39,-129.74 526.76,-136.6"/>
</g>
<!-- Node13 -->
<g id="node13" class="node">
<title>Node13</title>
<g id="a_node13"><a xlink:href="bwStyleProperties_8h.html" target="_top" xlink:title=" ">
<polygon fill="none" stroke="black" points="84,-112.5 84,-131.5 188,-131.5 188,-112.5 84,-112.5"/>
<text text-anchor="middle" x="136" y="-119.5" font-family="Helvetica,sans-Serif" font-size="10.00">bwStyleProperties.h</text>
</a>
</g>
</g>
<!-- Node5&#45;&gt;Node13 -->
<g id="edge12" class="edge">
<title>Node5&#45;&gt;Node13</title>
<path fill="none" stroke="midnightblue" d="M283.27,-168.44C253.57,-159.28 206.28,-144.69 173.33,-134.52"/>
<polygon fill="midnightblue" stroke="midnightblue" points="174.19,-131.12 163.6,-131.52 172.12,-137.81 174.19,-131.12"/>
</g>
<!-- Node14 -->
<g id="node14" class="node">
<title>Node14</title>
<g id="a_node14"><a xlink:href="EventHandler_8h.html" target="_top" xlink:title=" ">
<polygon fill="none" stroke="black" points="636.5,-112.5 636.5,-131.5 781.5,-131.5 781.5,-112.5 636.5,-112.5"/>
<text text-anchor="middle" x="709" y="-119.5" font-family="Helvetica,sans-Serif" font-size="10.00">screen_graph/EventHandler.h</text>
</a>
</g>
</g>
<!-- Node5&#45;&gt;Node14 -->
<g id="edge17" class="edge">
<title>Node5&#45;&gt;Node14</title>
<path fill="none" stroke="midnightblue" d="M345.22,-169.58C348.18,-169.01 351.14,-168.48 354,-168 404.74,-159.49 538.41,-143.16 626.47,-132.68"/>
<polygon fill="midnightblue" stroke="midnightblue" points="626.92,-136.16 636.44,-131.5 626.09,-129.2 626.92,-136.16"/>
</g>
<!-- Node9 -->
<g id="node9" class="node">
<title>Node9</title>
<g id="a_node9"><a xlink:href="bwPoint_8h.html" target="_top" xlink:title=" ">
<polygon fill="none" stroke="black" points="284,-56.5 284,-75.5 344,-75.5 344,-56.5 284,-56.5"/>
<text text-anchor="middle" x="314" y="-63.5" font-family="Helvetica,sans-Serif" font-size="10.00">bwPoint.h</text>
</a>
</g>
</g>
<!-- Node8&#45;&gt;Node9 -->
<g id="edge8" class="edge">
<title>Node8&#45;&gt;Node9</title>
<path fill="none" stroke="midnightblue" d="M345.73,-112.08C340.36,-104.46 332.48,-93.26 325.92,-83.94"/>
<polygon fill="midnightblue" stroke="midnightblue" points="328.78,-81.91 320.16,-75.75 323.05,-85.94 328.78,-81.91"/>
</g>
<!-- Node10 -->
<g id="node10" class="node">
<title>Node10</title>
<g id="a_node10"><a xlink:title=" ">
<polygon fill="none" stroke="#bfbfbf" points="229,-0.5 229,-19.5 273,-19.5 273,-0.5 229,-0.5"/>
<text text-anchor="middle" x="251" y="-7.5" font-family="Helvetica,sans-Serif" font-size="10.00">vector</text>
</a>
</g>
</g>
<!-- Node9&#45;&gt;Node10 -->
<g id="edge9" class="edge">
<title>Node9&#45;&gt;Node10</title>
<path fill="none" stroke="midnightblue" d="M303.88,-56.32C294.47,-48.26 280.26,-36.08 268.93,-26.37"/>
<polygon fill="midnightblue" stroke="midnightblue" points="271.18,-23.68 261.31,-19.83 266.62,-29 271.18,-23.68"/>
</g>
<!-- Node13&#45;&gt;Node2 -->
<g id="edge13" class="edge">
<title>Node13&#45;&gt;Node2</title>
<path fill="none" stroke="midnightblue" d="M118.33,-112.32C100.61,-103.62 73.1,-90.12 52.71,-80.11"/>
<polygon fill="midnightblue" stroke="midnightblue" points="54.15,-76.92 43.63,-75.65 51.06,-83.2 54.15,-76.92"/>
</g>
<!-- Node13&#45;&gt;Node3 -->
<g id="edge15" class="edge">
<title>Node13&#45;&gt;Node3</title>
<path fill="none" stroke="midnightblue" d="M128.9,-112.08C122.76,-104.38 113.73,-93.03 106.26,-83.65"/>
<polygon fill="midnightblue" stroke="midnightblue" points="108.94,-81.39 99.97,-75.75 103.46,-85.75 108.94,-81.39"/>
</g>
<!-- Node13&#45;&gt;Node6 -->
<g id="edge14" class="edge">
<title>Node13&#45;&gt;Node6</title>
<path fill="none" stroke="midnightblue" d="M146.76,-112.32C156.77,-104.26 171.89,-92.08 183.93,-82.37"/>
<polygon fill="midnightblue" stroke="midnightblue" points="186.45,-84.83 192.04,-75.83 182.06,-79.38 186.45,-84.83"/>
</g>
<!-- Node13&#45;&gt;Node10 -->
<g id="edge16" class="edge">
<title>Node13&#45;&gt;Node10</title>
<path fill="none" stroke="midnightblue" d="M138.52,-112.44C142.84,-98.99 152.8,-72.73 169,-56 183.07,-41.47 202.86,-30.43 219.47,-22.92"/>
<polygon fill="midnightblue" stroke="midnightblue" points="221.01,-26.06 228.82,-18.9 218.25,-19.63 221.01,-26.06"/>
</g>
<!-- Node15 -->
<g id="node15" class="node">
<title>Node15</title>
<g id="a_node15"><a xlink:title=" ">
<polygon fill="none" stroke="#bfbfbf" points="592,-56.5 592,-75.5 630,-75.5 630,-56.5 592,-56.5"/>
<text text-anchor="middle" x="611" y="-63.5" font-family="Helvetica,sans-Serif" font-size="10.00">array</text>
</a>
</g>
</g>
<!-- Node14&#45;&gt;Node15 -->
<g id="edge18" class="edge">
<title>Node14&#45;&gt;Node15</title>
<path fill="none" stroke="midnightblue" d="M693.25,-112.32C677.68,-103.74 653.62,-90.49 635.54,-80.52"/>
<polygon fill="midnightblue" stroke="midnightblue" points="637.15,-77.42 626.71,-75.65 633.78,-83.55 637.15,-77.42"/>
</g>
<!-- Node16 -->
<g id="node16" class="node">
<title>Node16</title>
<g id="a_node16"><a xlink:title=" ">
<polygon fill="none" stroke="#bfbfbf" points="648.5,-56.5 648.5,-75.5 707.5,-75.5 707.5,-56.5 648.5,-56.5"/>
<text text-anchor="middle" x="678" y="-63.5" font-family="Helvetica,sans-Serif" font-size="10.00">functional</text>
</a>
</g>
</g>
<!-- Node14&#45;&gt;Node16 -->
<g id="edge19" class="edge">
<title>Node14&#45;&gt;Node16</title>
<path fill="none" stroke="midnightblue" d="M703.88,-112.08C699.59,-104.61 693.34,-93.72 688.06,-84.52"/>
<polygon fill="midnightblue" stroke="midnightblue" points="691.04,-82.68 683.02,-75.75 684.97,-86.17 691.04,-82.68"/>
</g>
<!-- Node17 -->
<g id="node17" class="node">
<title>Node17</title>
<g id="a_node17"><a xlink:title=" ">
<polygon fill="none" stroke="#bfbfbf" points="725.5,-56.5 725.5,-75.5 754.5,-75.5 754.5,-56.5 725.5,-56.5"/>
<text text-anchor="middle" x="740" y="-63.5" font-family="Helvetica,sans-Serif" font-size="10.00">list</text>
</a>
</g>
</g>
<!-- Node14&#45;&gt;Node17 -->
<g id="edge20" class="edge">
<title>Node14&#45;&gt;Node17</title>
<path fill="none" stroke="midnightblue" d="M714.12,-112.08C718.41,-104.61 724.66,-93.72 729.94,-84.52"/>
<polygon fill="midnightblue" stroke="midnightblue" points="733.03,-86.17 734.98,-75.75 726.96,-82.68 733.03,-86.17"/>
</g>
<!-- Node18 -->
<g id="node18" class="node">
<title>Node18</title>
<g id="a_node18"><a xlink:title=" ">
<polygon fill="none" stroke="#bfbfbf" points="772.5,-56.5 772.5,-75.5 855.5,-75.5 855.5,-56.5 772.5,-56.5"/>
<text text-anchor="middle" x="814" y="-63.5" font-family="Helvetica,sans-Serif" font-size="10.00">unordered_map</text>
</a>
</g>
</g>
<!-- Node14&#45;&gt;Node18 -->
<g id="edge21" class="edge">
<title>Node14&#45;&gt;Node18</title>
<path fill="none" stroke="midnightblue" d="M725.87,-112.32C742.71,-103.66 768.81,-90.24 788.24,-80.25"/>
<polygon fill="midnightblue" stroke="midnightblue" points="789.88,-83.34 797.17,-75.65 786.68,-77.12 789.88,-83.34"/>
</g>
<!-- Node20 -->
<g id="node20" class="node">
<title>Node20</title>
<g id="a_node20"><a xlink:href="bwColor_8h.html" target="_top" xlink:title=" ">
<polygon fill="none" stroke="black" points="800,-112.5 800,-131.5 860,-131.5 860,-112.5 800,-112.5"/>
<text text-anchor="middle" x="830" y="-119.5" font-family="Helvetica,sans-Serif" font-size="10.00">bwColor.h</text>
</a>
</g>
</g>
<!-- Node19&#45;&gt;Node20 -->
<g id="edge23" class="edge">
<title>Node19&#45;&gt;Node20</title>
<path fill="none" stroke="midnightblue" d="M704.61,-168.44C729.46,-159.44 768.77,-145.19 796.75,-135.05"/>
<polygon fill="midnightblue" stroke="midnightblue" points="798.29,-138.21 806.5,-131.52 795.91,-131.63 798.29,-138.21"/>
</g>
</g>
</svg>
