<?xml version="1.0" encoding="UTF-8" standalone="no"?>
<!DOCTYPE svg PUBLIC "-//W3C//DTD SVG 1.1//EN"
 "http://www.w3.org/Graphics/SVG/1.1/DTD/svg11.dtd">
<!-- Generated by graphviz version 2.50.0 (20211204.2007)
 -->
<!-- Title: bwidgets/widgets/bwCheckbox.cc Pages: 1 -->
<svg width="1203pt" height="364pt"
 viewBox="0.00 0.00 1203.20 364.00" xmlns="http://www.w3.org/2000/svg" xmlns:xlink="http://www.w3.org/1999/xlink">
<g id="graph0" class="graph" transform="scale(1 1) rotate(0) translate(4 360)">
<title>bwidgets/widgets/bwCheckbox.cc</title>
<!-- Node1 -->
<g id="node1" class="node">
<title>Node1</title>
<g id="a_node1"><a xlink:title=" ">
<polygon fill="#bfbfbf" stroke="black" points="262.67,-336.5 262.67,-355.5 428.67,-355.5 428.67,-336.5 262.67,-336.5"/>
<text text-anchor="middle" x="345.67" y="-343.5" font-family="Helvetica,sans-Serif" font-size="10.00">bwidgets/widgets/bwCheckbox.cc</text>
</a>
</g>
</g>
<!-- Node2 -->
<g id="node2" class="node">
<title>Node2</title>
<g id="a_node2"><a xlink:href="bwEvent_8h.html" target="_top" xlink:title=" ">
<polygon fill="none" stroke="black" points="1113.17,-168.5 1113.17,-187.5 1176.17,-187.5 1176.17,-168.5 1113.17,-168.5"/>
<text text-anchor="middle" x="1144.67" y="-175.5" font-family="Helvetica,sans-Serif" font-size="10.00">bwEvent.h</text>
</a>
</g>
</g>
<!-- Node1&#45;&gt;Node2 -->
<g id="edge1" class="edge">
<title>Node1&#45;&gt;Node2</title>
<path fill="none" stroke="midnightblue" d="M386.67,-336.48C523.68,-308.02 964.82,-216.37 1102.93,-187.67"/>
<polygon fill="midnightblue" stroke="midnightblue" points="1104.02,-191.02 1113.09,-185.56 1102.59,-184.17 1104.02,-191.02"/>
</g>
<!-- Node6 -->
<g id="node6" class="node">
<title>Node6</title>
<g id="a_node6"><a xlink:href="bwPainter_8h.html" target="_top" xlink:title=" ">
<polygon fill="none" stroke="black" points="111.67,-224.5 111.67,-243.5 179.67,-243.5 179.67,-224.5 111.67,-224.5"/>
<text text-anchor="middle" x="145.67" y="-231.5" font-family="Helvetica,sans-Serif" font-size="10.00">bwPainter.h</text>
</a>
</g>
</g>
<!-- Node1&#45;&gt;Node6 -->
<g id="edge6" class="edge">
<title>Node1&#45;&gt;Node6</title>
<path fill="none" stroke="midnightblue" d="M294.27,-336.47C265.05,-329.87 228.8,-318.62 200.67,-300 181.86,-287.55 165.94,-266.85 156.14,-252.16"/>
<polygon fill="midnightblue" stroke="midnightblue" points="158.95,-250.06 150.62,-243.52 153.05,-253.83 158.95,-250.06"/>
</g>
<!-- Node13 -->
<g id="node13" class="node">
<title>Node13</title>
<g id="a_node13"><a xlink:href="bwStyle_8h.html" target="_top" xlink:title=" ">
<polygon fill="none" stroke="black" points="253.67,-112.5 253.67,-131.5 313.67,-131.5 313.67,-112.5 253.67,-112.5"/>
<text text-anchor="middle" x="283.67" y="-119.5" font-family="Helvetica,sans-Serif" font-size="10.00">bwStyle.h</text>
</a>
</g>
</g>
<!-- Node1&#45;&gt;Node13 -->
<g id="edge14" class="edge">
<title>Node1&#45;&gt;Node13</title>
<path fill="none" stroke="midnightblue" d="M336.26,-336.25C313.25,-314.12 254.5,-253.05 233.67,-188 230.96,-179.53 230.05,-176.12 233.67,-168 239.24,-155.5 250.19,-145.01 260.42,-137.32"/>
<polygon fill="midnightblue" stroke="midnightblue" points="262.52,-140.12 268.72,-131.53 258.51,-134.38 262.52,-140.12"/>
</g>
<!-- Node15 -->
<g id="node15" class="node">
<title>Node15</title>
<g id="a_node15"><a xlink:href="bwCheckbox_8h.html" target="_top" xlink:title=" ">
<polygon fill="none" stroke="black" points="389.67,-280.5 389.67,-299.5 471.67,-299.5 471.67,-280.5 389.67,-280.5"/>
<text text-anchor="middle" x="430.67" y="-287.5" font-family="Helvetica,sans-Serif" font-size="10.00">bwCheckbox.h</text>
</a>
</g>
</g>
<!-- Node1&#45;&gt;Node15 -->
<g id="edge17" class="edge">
<title>Node1&#45;&gt;Node15</title>
<path fill="none" stroke="midnightblue" d="M359.33,-336.32C372.59,-327.9 392.94,-314.97 408.52,-305.07"/>
<polygon fill="midnightblue" stroke="midnightblue" points="410.48,-307.97 417.05,-299.65 406.73,-302.06 410.48,-307.97"/>
</g>
<!-- Node3 -->
<g id="node3" class="node">
<title>Node3</title>
<g id="a_node3"><a xlink:href="bwDistance_8h.html" target="_top" xlink:title=" ">
<polygon fill="none" stroke="black" points="1106.17,-112.5 1106.17,-131.5 1183.17,-131.5 1183.17,-112.5 1106.17,-112.5"/>
<text text-anchor="middle" x="1144.67" y="-119.5" font-family="Helvetica,sans-Serif" font-size="10.00">bwDistance.h</text>
</a>
</g>
</g>
<!-- Node2&#45;&gt;Node3 -->
<g id="edge2" class="edge">
<title>Node2&#45;&gt;Node3</title>
<path fill="none" stroke="midnightblue" d="M1144.67,-168.08C1144.67,-161.01 1144.67,-150.86 1144.67,-141.99"/>
<polygon fill="midnightblue" stroke="midnightblue" points="1148.17,-141.75 1144.67,-131.75 1141.17,-141.75 1148.17,-141.75"/>
</g>
<!-- Node4 -->
<g id="node4" class="node">
<title>Node4</title>
<g id="a_node4"><a xlink:href="bwPoint_8h.html" target="_top" xlink:title=" ">
<polygon fill="none" stroke="black" points="1114.67,-56.5 1114.67,-75.5 1174.67,-75.5 1174.67,-56.5 1114.67,-56.5"/>
<text text-anchor="middle" x="1144.67" y="-63.5" font-family="Helvetica,sans-Serif" font-size="10.00">bwPoint.h</text>
</a>
</g>
</g>
<!-- Node2&#45;&gt;Node4 -->
<g id="edge5" class="edge">
<title>Node2&#45;&gt;Node4</title>
<path fill="none" stroke="midnightblue" d="M1159.04,-168.33C1170.55,-160.47 1185.86,-147.72 1192.67,-132 1200.98,-112.82 1183.35,-93.94 1167.16,-81.52"/>
<polygon fill="midnightblue" stroke="midnightblue" points="1169.14,-78.63 1158.98,-75.64 1165.06,-84.31 1169.14,-78.63"/>
</g>
<!-- Node3&#45;&gt;Node4 -->
<g id="edge3" class="edge">
<title>Node3&#45;&gt;Node4</title>
<path fill="none" stroke="midnightblue" d="M1144.67,-112.08C1144.67,-105.01 1144.67,-94.86 1144.67,-85.99"/>
<polygon fill="midnightblue" stroke="midnightblue" points="1148.17,-85.75 1144.67,-75.75 1141.17,-85.75 1148.17,-85.75"/>
</g>
<!-- Node5 -->
<g id="node5" class="node">
<title>Node5</title>
<g id="a_node5"><a xlink:title=" ">
<polygon fill="none" stroke="#bfbfbf" points="615.67,-0.5 615.67,-19.5 659.67,-19.5 659.67,-0.5 615.67,-0.5"/>
<text text-anchor="middle" x="637.67" y="-7.5" font-family="Helvetica,sans-Serif" font-size="10.00">vector</text>
</a>
</g>
</g>
<!-- Node4&#45;&gt;Node5 -->
<g id="edge4" class="edge">
<title>Node4&#45;&gt;Node5</title>
<path fill="none" stroke="midnightblue" d="M1114.21,-58.19C1110.01,-57.38 1105.74,-56.62 1101.67,-56 940.77,-31.43 746.32,-17.69 670.33,-12.93"/>
<polygon fill="midnightblue" stroke="midnightblue" points="670.19,-9.42 659.99,-12.29 669.76,-16.4 670.19,-9.42"/>
</g>
<!-- Node6&#45;&gt;Node5 -->
<g id="edge9" class="edge">
<title>Node6&#45;&gt;Node5</title>
<path fill="none" stroke="midnightblue" d="M111.29,-230.06C61.5,-224.36 -21.87,-208.57 5.67,-168 75.02,-65.84 486.14,-23.71 605.31,-13.55"/>
<polygon fill="midnightblue" stroke="midnightblue" points="605.93,-17.01 615.6,-12.69 605.34,-10.04 605.93,-17.01"/>
</g>
<!-- Node7 -->
<g id="node7" class="node">
<title>Node7</title>
<g id="a_node7"><a xlink:title=" ">
<polygon fill="none" stroke="#bfbfbf" points="431.67,-56.5 431.67,-75.5 483.67,-75.5 483.67,-56.5 431.67,-56.5"/>
<text text-anchor="middle" x="457.67" y="-63.5" font-family="Helvetica,sans-Serif" font-size="10.00">memory</text>
</a>
</g>
</g>
<!-- Node6&#45;&gt;Node7 -->
<g id="edge7" class="edge">
<title>Node6&#45;&gt;Node7</title>
<path fill="none" stroke="midnightblue" d="M150.06,-224.28C161.91,-201.7 196.91,-141.06 244.67,-112 273.96,-94.18 368.69,-79.02 421.42,-71.7"/>
<polygon fill="midnightblue" stroke="midnightblue" points="421.93,-75.16 431.37,-70.34 420.99,-68.22 421.93,-75.16"/>
</g>
<!-- Node8 -->
<g id="node8" class="node">
<title>Node8</title>
<g id="a_node8"><a xlink:title=" ">
<polygon fill="none" stroke="#bfbfbf" points="317.17,-56.5 317.17,-75.5 358.17,-75.5 358.17,-56.5 317.17,-56.5"/>
<text text-anchor="middle" x="337.67" y="-63.5" font-family="Helvetica,sans-Serif" font-size="10.00">string</text>
</a>
</g>
</g>
<!-- Node6&#45;&gt;Node8 -->
<g id="edge8" class="edge">
<title>Node6&#45;&gt;Node8</title>
<path fill="none" stroke="midnightblue" d="M143.98,-224.37C140.22,-202.51 133.69,-144.42 162.67,-112 181.68,-90.72 262.04,-76.96 306.96,-70.78"/>
<polygon fill="midnightblue" stroke="midnightblue" points="307.58,-74.23 317.03,-69.44 306.66,-67.29 307.58,-74.23"/>
</g>
<!-- Node9 -->
<g id="node9" class="node">
<title>Node9</title>
<g id="a_node9"><a xlink:href="bwGradient_8h.html" target="_top" xlink:title=" ">
<polygon fill="none" stroke="black" points="374.67,-168.5 374.67,-187.5 448.67,-187.5 448.67,-168.5 374.67,-168.5"/>
<text text-anchor="middle" x="411.67" y="-175.5" font-family="Helvetica,sans-Serif" font-size="10.00">bwGradient.h</text>
</a>
</g>
</g>
<!-- Node6&#45;&gt;Node9 -->
<g id="edge10" class="edge">
<title>Node6&#45;&gt;Node9</title>
<path fill="none" stroke="midnightblue" d="M179.9,-226.05C226.96,-216.5 311.82,-199.27 364.76,-188.52"/>
<polygon fill="midnightblue" stroke="midnightblue" points="365.48,-191.95 374.58,-186.53 364.08,-185.09 365.48,-191.95"/>
</g>
<!-- Node12 -->
<g id="node12" class="node">
<title>Node12</title>
<g id="a_node12"><a xlink:href="bwIconInterface_8h.html" target="_top" xlink:title=" ">
<polygon fill="none" stroke="black" points="15.17,-168.5 15.17,-187.5 110.17,-187.5 110.17,-168.5 15.17,-168.5"/>
<text text-anchor="middle" x="62.67" y="-175.5" font-family="Helvetica,sans-Serif" font-size="10.00">bwIconInterface.h</text>
</a>
</g>
</g>
<!-- Node6&#45;&gt;Node12 -->
<g id="edge13" class="edge">
<title>Node6&#45;&gt;Node12</title>
<path fill="none" stroke="midnightblue" d="M132.33,-224.32C119.51,-215.98 99.89,-203.21 84.73,-193.35"/>
<polygon fill="midnightblue" stroke="midnightblue" points="86.26,-190.17 75.97,-187.65 82.45,-196.04 86.26,-190.17"/>
</g>
<!-- Node10 -->
<g id="node10" class="node">
<title>Node10</title>
<g id="a_node10"><a xlink:href="bwColor_8h.html" target="_top" xlink:title=" ">
<polygon fill="none" stroke="black" points="331.67,-112.5 331.67,-131.5 391.67,-131.5 391.67,-112.5 331.67,-112.5"/>
<text text-anchor="middle" x="361.67" y="-119.5" font-family="Helvetica,sans-Serif" font-size="10.00">bwColor.h</text>
</a>
</g>
</g>
<!-- Node9&#45;&gt;Node10 -->
<g id="edge11" class="edge">
<title>Node9&#45;&gt;Node10</title>
<path fill="none" stroke="midnightblue" d="M403.41,-168.08C396.21,-160.3 385.56,-148.8 376.82,-139.37"/>
<polygon fill="midnightblue" stroke="midnightblue" points="379.14,-136.71 369.77,-131.75 374,-141.47 379.14,-136.71"/>
</g>
<!-- Node11 -->
<g id="node11" class="node">
<title>Node11</title>
<g id="a_node11"><a xlink:href="bwRectangle_8h.html" target="_top" xlink:title=" ">
<polygon fill="none" stroke="black" points="485.67,-112.5 485.67,-131.5 567.67,-131.5 567.67,-112.5 485.67,-112.5"/>
<text text-anchor="middle" x="526.67" y="-119.5" font-family="Helvetica,sans-Serif" font-size="10.00">bwRectangle.h</text>
</a>
</g>
</g>
<!-- Node9&#45;&gt;Node11 -->
<g id="edge12" class="edge">
<title>Node9&#45;&gt;Node11</title>
<path fill="none" stroke="midnightblue" d="M429.89,-168.44C448.57,-159.68 477.83,-145.94 499.29,-135.86"/>
<polygon fill="midnightblue" stroke="midnightblue" points="500.97,-138.93 508.53,-131.52 497.99,-132.6 500.97,-138.93"/>
</g>
<!-- Node13&#45;&gt;Node8 -->
<g id="edge16" class="edge">
<title>Node13&#45;&gt;Node8</title>
<path fill="none" stroke="midnightblue" d="M292.59,-112.08C300.45,-104.22 312.1,-92.57 321.59,-83.08"/>
<polygon fill="midnightblue" stroke="midnightblue" points="324.32,-85.3 328.92,-75.75 319.37,-80.35 324.32,-85.3"/>
</g>
<!-- Node14 -->
<g id="node14" class="node">
<title>Node14</title>
<g id="a_node14"><a xlink:title=" ">
<polygon fill="none" stroke="#bfbfbf" points="712.67,-56.5 712.67,-75.5 750.67,-75.5 750.67,-56.5 712.67,-56.5"/>
<text text-anchor="middle" x="731.67" y="-63.5" font-family="Helvetica,sans-Serif" font-size="10.00">array</text>
</a>
</g>
</g>
<!-- Node13&#45;&gt;Node14 -->
<g id="edge15" class="edge">
<title>Node13&#45;&gt;Node14</title>
<path fill="none" stroke="midnightblue" d="M313.83,-113.67C316.81,-113.06 319.79,-112.49 322.67,-112 463.77,-88.04 634.52,-74.02 702.09,-69.06"/>
<polygon fill="midnightblue" stroke="midnightblue" points="702.67,-72.53 712.39,-68.31 702.17,-65.54 702.67,-72.53"/>
</g>
<!-- Node16 -->
<g id="node16" class="node">
<title>Node16</title>
<g id="a_node16"><a xlink:href="bwAbstractButton_8h.html" target="_top" xlink:title=" ">
<polygon fill="none" stroke="black" points="444.17,-224.5 444.17,-243.5 547.17,-243.5 547.17,-224.5 444.17,-224.5"/>
<text text-anchor="middle" x="495.67" y="-231.5" font-family="Helvetica,sans-Serif" font-size="10.00">bwAbstractButton.h</text>
</a>
</g>
</g>
<!-- Node15&#45;&gt;Node16 -->
<g id="edge18" class="edge">
<title>Node15&#45;&gt;Node16</title>
<path fill="none" stroke="midnightblue" d="M441.11,-280.32C450.82,-272.26 465.49,-260.08 477.17,-250.37"/>
<polygon fill="midnightblue" stroke="midnightblue" points="479.58,-252.92 485.04,-243.83 475.11,-247.53 479.58,-252.92"/>
</g>
<!-- Node16&#45;&gt;Node7 -->
<g id="edge19" class="edge">
<title>Node16&#45;&gt;Node7</title>
<path fill="none" stroke="midnightblue" d="M495.81,-224.47C495.83,-211.93 495.19,-187.86 490.67,-168 486.86,-151.26 482.19,-148.25 476.67,-132 471.41,-116.52 466.26,-98.68 462.65,-85.61"/>
<polygon fill="midnightblue" stroke="midnightblue" points="466.01,-84.64 460.01,-75.91 459.26,-86.48 466.01,-84.64"/>
</g>
<!-- Node16&#45;&gt;Node8 -->
<g id="edge20" class="edge">
<title>Node16&#45;&gt;Node8</title>
<path fill="none" stroke="midnightblue" d="M491.43,-224.12C485.04,-211.16 472.13,-186.56 457.67,-168 429.23,-131.48 385.66,-98.94 359.59,-81.18"/>
<polygon fill="midnightblue" stroke="midnightblue" points="361.41,-78.19 351.15,-75.54 357.51,-84.01 361.41,-78.19"/>
</g>
<!-- Node17 -->
<g id="node17" class="node">
<title>Node17</title>
<g id="a_node17"><a xlink:href="bwUtil_8h.html" target="_top" xlink:title=" ">
<polygon fill="none" stroke="black" points="786.17,-168.5 786.17,-187.5 839.17,-187.5 839.17,-168.5 786.17,-168.5"/>
<text text-anchor="middle" x="812.67" y="-175.5" font-family="Helvetica,sans-Serif" font-size="10.00">bwUtil.h</text>
</a>
</g>
</g>
<!-- Node16&#45;&gt;Node17 -->
<g id="edge21" class="edge">
<title>Node16&#45;&gt;Node17</title>
<path fill="none" stroke="midnightblue" d="M547.19,-226.11C601.63,-218.52 690.17,-205.32 776.07,-187.97"/>
<polygon fill="midnightblue" stroke="midnightblue" points="776.89,-191.37 785.99,-185.94 775.49,-184.51 776.89,-191.37"/>
</g>
<!-- Node18 -->
<g id="node18" class="node">
<title>Node18</title>
<g id="a_node18"><a xlink:href="bwWidget_8h.html" target="_top" xlink:title=" ">
<polygon fill="none" stroke="black" points="699.67,-168.5 699.67,-187.5 767.67,-187.5 767.67,-168.5 699.67,-168.5"/>
<text text-anchor="middle" x="733.67" y="-175.5" font-family="Helvetica,sans-Serif" font-size="10.00">bwWidget.h</text>
</a>
</g>
</g>
<!-- Node16&#45;&gt;Node18 -->
<g id="edge22" class="edge">
<title>Node16&#45;&gt;Node18</title>
<path fill="none" stroke="midnightblue" d="M533.38,-224.44C575.82,-214.81 644.68,-199.19 689.57,-189"/>
<polygon fill="midnightblue" stroke="midnightblue" points="690.63,-192.36 699.61,-186.73 689.08,-185.53 690.63,-192.36"/>
</g>
<!-- Node27 -->
<g id="node27" class="node">
<title>Node27</title>
<g id="a_node27"><a xlink:href="bwWidgetBaseStyle_8h.html" target="_top" xlink:title=" ">
<polygon fill="none" stroke="black" points="243.17,-168.5 243.17,-187.5 356.17,-187.5 356.17,-168.5 243.17,-168.5"/>
<text text-anchor="middle" x="299.67" y="-175.5" font-family="Helvetica,sans-Serif" font-size="10.00">bwWidgetBaseStyle.h</text>
</a>
</g>
</g>
<!-- Node16&#45;&gt;Node27 -->
<g id="edge38" class="edge">
<title>Node16&#45;&gt;Node27</title>
<path fill="none" stroke="midnightblue" d="M464.61,-224.44C431.07,-215.2 377.47,-200.44 340.53,-190.26"/>
<polygon fill="midnightblue" stroke="midnightblue" points="341.15,-186.8 330.58,-187.52 339.29,-193.55 341.15,-186.8"/>
</g>
<!-- Node18&#45;&gt;Node3 -->
<g id="edge25" class="edge">
<title>Node18&#45;&gt;Node3</title>
<path fill="none" stroke="midnightblue" d="M767.73,-169.72C771.08,-169.1 774.44,-168.51 777.67,-168 915.86,-146.14 954.45,-153.14 1096.06,-132.15"/>
<polygon fill="midnightblue" stroke="midnightblue" points="1096.61,-135.6 1105.98,-130.65 1095.57,-128.68 1096.61,-135.6"/>
</g>
<!-- Node18&#45;&gt;Node11 -->
<g id="edge27" class="edge">
<title>Node18&#45;&gt;Node11</title>
<path fill="none" stroke="midnightblue" d="M700.87,-168.44C665.29,-159.16 608.36,-144.31 569.32,-134.13"/>
<polygon fill="midnightblue" stroke="midnightblue" points="569.88,-130.65 559.32,-131.52 568.11,-137.43 569.88,-130.65"/>
</g>
<!-- Node19 -->
<g id="node19" class="node">
<title>Node19</title>
<g id="a_node19"><a xlink:title=" ">
<polygon fill="none" stroke="#bfbfbf" points="792.67,-56.5 792.67,-75.5 842.67,-75.5 842.67,-56.5 792.67,-56.5"/>
<text text-anchor="middle" x="817.67" y="-63.5" font-family="Helvetica,sans-Serif" font-size="10.00">optional</text>
</a>
</g>
</g>
<!-- Node18&#45;&gt;Node19 -->
<g id="edge23" class="edge">
<title>Node18&#45;&gt;Node19</title>
<path fill="none" stroke="midnightblue" d="M767.82,-169.81C812.98,-159.96 887.83,-142.31 895.67,-132 912.18,-110.28 880.22,-91.07 852.37,-79.27"/>
<polygon fill="midnightblue" stroke="midnightblue" points="853.35,-75.89 842.77,-75.41 850.74,-82.39 853.35,-75.89"/>
</g>
<!-- Node20 -->
<g id="node20" class="node">
<title>Node20</title>
<g id="a_node20"><a xlink:title=" ">
<polygon fill="none" stroke="#bfbfbf" points="708.17,-112.5 708.17,-131.5 759.17,-131.5 759.17,-112.5 708.17,-112.5"/>
<text text-anchor="middle" x="733.67" y="-119.5" font-family="Helvetica,sans-Serif" font-size="10.00">typeinfo</text>
</a>
</g>
</g>
<!-- Node18&#45;&gt;Node20 -->
<g id="edge24" class="edge">
<title>Node18&#45;&gt;Node20</title>
<path fill="none" stroke="midnightblue" d="M733.67,-168.08C733.67,-161.01 733.67,-150.86 733.67,-141.99"/>
<polygon fill="midnightblue" stroke="midnightblue" points="737.17,-141.75 733.67,-131.75 730.17,-141.75 737.17,-141.75"/>
</g>
<!-- Node21 -->
<g id="node21" class="node">
<title>Node21</title>
<g id="a_node21"><a xlink:href="bwFunctorInterface_8h.html" target="_top" xlink:title=" ">
<polygon fill="none" stroke="black" points="777.17,-112.5 777.17,-131.5 886.17,-131.5 886.17,-112.5 777.17,-112.5"/>
<text text-anchor="middle" x="831.67" y="-119.5" font-family="Helvetica,sans-Serif" font-size="10.00">bwFunctorInterface.h</text>
</a>
</g>
</g>
<!-- Node18&#45;&gt;Node21 -->
<g id="edge26" class="edge">
<title>Node18&#45;&gt;Node21</title>
<path fill="none" stroke="midnightblue" d="M749.42,-168.32C764.99,-159.74 789.05,-146.49 807.13,-136.52"/>
<polygon fill="midnightblue" stroke="midnightblue" points="808.89,-139.55 815.96,-131.65 805.52,-133.42 808.89,-139.55"/>
</g>
<!-- Node22 -->
<g id="node22" class="node">
<title>Node22</title>
<g id="a_node22"><a xlink:href="bwStyleProperties_8h.html" target="_top" xlink:title=" ">
<polygon fill="none" stroke="black" points="585.67,-112.5 585.67,-131.5 689.67,-131.5 689.67,-112.5 585.67,-112.5"/>
<text text-anchor="middle" x="637.67" y="-119.5" font-family="Helvetica,sans-Serif" font-size="10.00">bwStyleProperties.h</text>
</a>
</g>
</g>
<!-- Node18&#45;&gt;Node22 -->
<g id="edge28" class="edge">
<title>Node18&#45;&gt;Node22</title>
<path fill="none" stroke="midnightblue" d="M718.25,-168.32C703.13,-159.82 679.85,-146.73 662.2,-136.8"/>
<polygon fill="midnightblue" stroke="midnightblue" points="663.49,-133.51 653.06,-131.65 660.06,-139.61 663.49,-133.51"/>
</g>
<!-- Node23 -->
<g id="node23" class="node">
<title>Node23</title>
<g id="a_node23"><a xlink:href="EventHandler_8h.html" target="_top" xlink:title=" ">
<polygon fill="none" stroke="black" points="943.17,-112.5 943.17,-131.5 1088.17,-131.5 1088.17,-112.5 943.17,-112.5"/>
<text text-anchor="middle" x="1015.67" y="-119.5" font-family="Helvetica,sans-Serif" font-size="10.00">screen_graph/EventHandler.h</text>
</a>
</g>
</g>
<!-- Node18&#45;&gt;Node23 -->
<g id="edge33" class="edge">
<title>Node18&#45;&gt;Node23</title>
<path fill="none" stroke="midnightblue" d="M767.77,-169.97C771.11,-169.3 774.46,-168.63 777.67,-168 839.88,-155.76 911.37,-142.33 959.63,-133.35"/>
<polygon fill="midnightblue" stroke="midnightblue" points="960.37,-136.78 969.56,-131.51 959.09,-129.89 960.37,-136.78"/>
</g>
<!-- Node22&#45;&gt;Node5 -->
<g id="edge32" class="edge">
<title>Node22&#45;&gt;Node5</title>
<path fill="none" stroke="midnightblue" d="M637.67,-112.37C637.67,-94.62 637.67,-53.67 637.67,-29.6"/>
<polygon fill="midnightblue" stroke="midnightblue" points="641.17,-29.59 637.67,-19.59 634.17,-29.59 641.17,-29.59"/>
</g>
<!-- Node22&#45;&gt;Node7 -->
<g id="edge29" class="edge">
<title>Node22&#45;&gt;Node7</title>
<path fill="none" stroke="midnightblue" d="M609.15,-112.44C577.89,-103.06 527.66,-88 493.7,-77.81"/>
<polygon fill="midnightblue" stroke="midnightblue" points="494.3,-74.34 483.72,-74.82 492.29,-81.04 494.3,-74.34"/>
</g>
<!-- Node22&#45;&gt;Node8 -->
<g id="edge31" class="edge">
<title>Node22&#45;&gt;Node8</title>
<path fill="none" stroke="midnightblue" d="M590.13,-112.44C528,-101.26 420.93,-81.99 368.46,-72.54"/>
<polygon fill="midnightblue" stroke="midnightblue" points="368.89,-69.06 358.43,-70.74 367.65,-75.95 368.89,-69.06"/>
</g>
<!-- Node22&#45;&gt;Node19 -->
<g id="edge30" class="edge">
<title>Node22&#45;&gt;Node19</title>
<path fill="none" stroke="midnightblue" d="M666.19,-112.44C697.72,-102.98 748.54,-87.74 782.52,-77.55"/>
<polygon fill="midnightblue" stroke="midnightblue" points="783.9,-80.78 792.48,-74.56 781.89,-74.08 783.9,-80.78"/>
</g>
<!-- Node23&#45;&gt;Node14 -->
<g id="edge34" class="edge">
<title>Node23&#45;&gt;Node14</title>
<path fill="none" stroke="midnightblue" d="M970.67,-112.44C911.95,-101.28 810.83,-82.05 761.07,-72.59"/>
<polygon fill="midnightblue" stroke="midnightblue" points="761.46,-69.1 750.98,-70.67 760.15,-75.98 761.46,-69.1"/>
</g>
<!-- Node24 -->
<g id="node24" class="node">
<title>Node24</title>
<g id="a_node24"><a xlink:title=" ">
<polygon fill="none" stroke="#bfbfbf" points="986.17,-56.5 986.17,-75.5 1045.17,-75.5 1045.17,-56.5 986.17,-56.5"/>
<text text-anchor="middle" x="1015.67" y="-63.5" font-family="Helvetica,sans-Serif" font-size="10.00">functional</text>
</a>
</g>
</g>
<!-- Node23&#45;&gt;Node24 -->
<g id="edge35" class="edge">
<title>Node23&#45;&gt;Node24</title>
<path fill="none" stroke="midnightblue" d="M1015.67,-112.08C1015.67,-105.01 1015.67,-94.86 1015.67,-85.99"/>
<polygon fill="midnightblue" stroke="midnightblue" points="1019.17,-85.75 1015.67,-75.75 1012.17,-85.75 1019.17,-85.75"/>
</g>
<!-- Node25 -->
<g id="node25" class="node">
<title>Node25</title>
<g id="a_node25"><a xlink:title=" ">
<polygon fill="none" stroke="#bfbfbf" points="1063.17,-56.5 1063.17,-75.5 1092.17,-75.5 1092.17,-56.5 1063.17,-56.5"/>
<text text-anchor="middle" x="1077.67" y="-63.5" font-family="Helvetica,sans-Serif" font-size="10.00">list</text>
</a>
</g>
</g>
<!-- Node23&#45;&gt;Node25 -->
<g id="edge36" class="edge">
<title>Node23&#45;&gt;Node25</title>
<path fill="none" stroke="midnightblue" d="M1025.63,-112.32C1034.8,-104.34 1048.61,-92.31 1059.7,-82.65"/>
<polygon fill="midnightblue" stroke="midnightblue" points="1062.29,-85.04 1067.53,-75.83 1057.69,-79.76 1062.29,-85.04"/>
</g>
<!-- Node26 -->
<g id="node26" class="node">
<title>Node26</title>
<g id="a_node26"><a xlink:title=" ">
<polygon fill="none" stroke="#bfbfbf" points="885.17,-56.5 885.17,-75.5 968.17,-75.5 968.17,-56.5 885.17,-56.5"/>
<text text-anchor="middle" x="926.67" y="-63.5" font-family="Helvetica,sans-Serif" font-size="10.00">unordered_map</text>
</a>
</g>
</g>
<!-- Node23&#45;&gt;Node26 -->
<g id="edge37" class="edge">
<title>Node23&#45;&gt;Node26</title>
<path fill="none" stroke="midnightblue" d="M1001.37,-112.32C987.49,-103.9 966.18,-90.97 949.87,-81.07"/>
<polygon fill="midnightblue" stroke="midnightblue" points="951.3,-77.85 940.93,-75.65 947.67,-83.83 951.3,-77.85"/>
</g>
<!-- Node27&#45;&gt;Node10 -->
<g id="edge39" class="edge">
<title>Node27&#45;&gt;Node10</title>
<path fill="none" stroke="midnightblue" d="M309.63,-168.32C318.8,-160.34 332.61,-148.31 343.7,-138.65"/>
<polygon fill="midnightblue" stroke="midnightblue" points="346.29,-141.04 351.53,-131.83 341.69,-135.76 346.29,-141.04"/>
</g>
</g>
</svg>
