<?xml version="1.0" encoding="UTF-8" standalone="no"?>
<!DOCTYPE svg PUBLIC "-//W3C//DTD SVG 1.1//EN"
 "http://www.w3.org/Graphics/SVG/1.1/DTD/svg11.dtd">
<!-- Generated by graphviz version 2.50.0 (20211204.2007)
 -->
<!-- Title: bwidgets/widgets/bwContainerWidget.h Pages: 1 -->
<svg width="815pt" height="263pt"
 viewBox="0.00 0.00 815.00 263.00" xmlns="http://www.w3.org/2000/svg" xmlns:xlink="http://www.w3.org/1999/xlink">
<g id="graph0" class="graph" transform="scale(1 1) rotate(0) translate(4 259)">
<title>bwidgets/widgets/bwContainerWidget.h</title>
<!-- Node1 -->
<g id="node1" class="node">
<title>Node1</title>
<g id="a_node1"><a xlink:title=" ">
<polygon fill="#bfbfbf" stroke="black" points="366.5,-224.5 366.5,-254.5 516.5,-254.5 516.5,-224.5 366.5,-224.5"/>
<text text-anchor="start" x="374.5" y="-242.5" font-family="Helvetica,sans-Serif" font-size="10.00">bwidgets/widgets/bwContainer</text>
<text text-anchor="middle" x="441.5" y="-231.5" font-family="Helvetica,sans-Serif" font-size="10.00">Widget.h</text>
</a>
</g>
</g>
<!-- Node2 -->
<g id="node2" class="node">
<title>Node2</title>
<g id="a_node2"><a xlink:href="bwWidget_8h.html" target="_top" xlink:title=" ">
<polygon fill="none" stroke="black" points="353.5,-168.5 353.5,-187.5 421.5,-187.5 421.5,-168.5 353.5,-168.5"/>
<text text-anchor="middle" x="387.5" y="-175.5" font-family="Helvetica,sans-Serif" font-size="10.00">bwWidget.h</text>
</a>
</g>
</g>
<!-- Node1&#45;&gt;Node2 -->
<g id="edge1" class="edge">
<title>Node1&#45;&gt;Node2</title>
<path fill="none" stroke="midnightblue" d="M428.7,-224.4C420.78,-215.66 410.56,-204.41 402.29,-195.3"/>
<polygon fill="midnightblue" stroke="midnightblue" points="404.67,-192.71 395.36,-187.66 399.49,-197.42 404.67,-192.71"/>
</g>
<!-- Node18 -->
<g id="node18" class="node">
<title>Node18</title>
<g id="a_node18"><a xlink:href="bwWidgetBaseStyle_8h.html" target="_top" xlink:title=" ">
<polygon fill="none" stroke="black" points="577,-168.5 577,-187.5 690,-187.5 690,-168.5 577,-168.5"/>
<text text-anchor="middle" x="633.5" y="-175.5" font-family="Helvetica,sans-Serif" font-size="10.00">bwWidgetBaseStyle.h</text>
</a>
</g>
</g>
<!-- Node1&#45;&gt;Node18 -->
<g id="edge19" class="edge">
<title>Node1&#45;&gt;Node18</title>
<path fill="none" stroke="midnightblue" d="M487,-224.4C520.32,-214.07 564.99,-200.23 596.21,-190.56"/>
<polygon fill="midnightblue" stroke="midnightblue" points="597.33,-193.87 605.84,-187.57 595.25,-187.19 597.33,-193.87"/>
</g>
<!-- Node3 -->
<g id="node3" class="node">
<title>Node3</title>
<g id="a_node3"><a xlink:title=" ">
<polygon fill="none" stroke="#bfbfbf" points="474.5,-56.5 474.5,-75.5 524.5,-75.5 524.5,-56.5 474.5,-56.5"/>
<text text-anchor="middle" x="499.5" y="-63.5" font-family="Helvetica,sans-Serif" font-size="10.00">optional</text>
</a>
</g>
</g>
<!-- Node2&#45;&gt;Node3 -->
<g id="edge2" class="edge">
<title>Node2&#45;&gt;Node3</title>
<path fill="none" stroke="midnightblue" d="M421.56,-174.08C449.03,-169.73 486.02,-158.91 504.5,-132 513.79,-118.47 510.95,-99.41 506.74,-85.42"/>
<polygon fill="midnightblue" stroke="midnightblue" points="510.02,-84.2 503.44,-75.9 503.41,-86.49 510.02,-84.2"/>
</g>
<!-- Node4 -->
<g id="node4" class="node">
<title>Node4</title>
<g id="a_node4"><a xlink:title=" ">
<polygon fill="none" stroke="#bfbfbf" points="0,-112.5 0,-131.5 51,-131.5 51,-112.5 0,-112.5"/>
<text text-anchor="middle" x="25.5" y="-119.5" font-family="Helvetica,sans-Serif" font-size="10.00">typeinfo</text>
</a>
</g>
</g>
<!-- Node2&#45;&gt;Node4 -->
<g id="edge3" class="edge">
<title>Node2&#45;&gt;Node4</title>
<path fill="none" stroke="midnightblue" d="M353.27,-173.7C295.11,-167.79 173.16,-154.1 61.15,-132.13"/>
<polygon fill="midnightblue" stroke="midnightblue" points="61.53,-128.64 51.04,-130.12 60.17,-135.5 61.53,-128.64"/>
</g>
<!-- Node5 -->
<g id="node5" class="node">
<title>Node5</title>
<g id="a_node5"><a xlink:href="bwDistance_8h.html" target="_top" xlink:title=" ">
<polygon fill="none" stroke="black" points="69,-112.5 69,-131.5 146,-131.5 146,-112.5 69,-112.5"/>
<text text-anchor="middle" x="107.5" y="-119.5" font-family="Helvetica,sans-Serif" font-size="10.00">bwDistance.h</text>
</a>
</g>
</g>
<!-- Node2&#45;&gt;Node5 -->
<g id="edge4" class="edge">
<title>Node2&#45;&gt;Node5</title>
<path fill="none" stroke="midnightblue" d="M353.45,-170.43C304.19,-160.93 212.8,-143.31 156.36,-132.42"/>
<polygon fill="midnightblue" stroke="midnightblue" points="156.73,-128.93 146.24,-130.47 155.4,-135.8 156.73,-128.93"/>
</g>
<!-- Node8 -->
<g id="node8" class="node">
<title>Node8</title>
<g id="a_node8"><a xlink:href="bwFunctorInterface_8h.html" target="_top" xlink:title=" ">
<polygon fill="none" stroke="black" points="164,-112.5 164,-131.5 273,-131.5 273,-112.5 164,-112.5"/>
<text text-anchor="middle" x="218.5" y="-119.5" font-family="Helvetica,sans-Serif" font-size="10.00">bwFunctorInterface.h</text>
</a>
</g>
</g>
<!-- Node2&#45;&gt;Node8 -->
<g id="edge7" class="edge">
<title>Node2&#45;&gt;Node8</title>
<path fill="none" stroke="midnightblue" d="M360.72,-168.44C332.17,-159.32 286.77,-144.81 254.96,-134.65"/>
<polygon fill="midnightblue" stroke="midnightblue" points="255.74,-131.23 245.15,-131.52 253.61,-137.89 255.74,-131.23"/>
</g>
<!-- Node9 -->
<g id="node9" class="node">
<title>Node9</title>
<g id="a_node9"><a xlink:href="bwRectangle_8h.html" target="_top" xlink:title=" ">
<polygon fill="none" stroke="black" points="291.5,-112.5 291.5,-131.5 373.5,-131.5 373.5,-112.5 291.5,-112.5"/>
<text text-anchor="middle" x="332.5" y="-119.5" font-family="Helvetica,sans-Serif" font-size="10.00">bwRectangle.h</text>
</a>
</g>
</g>
<!-- Node2&#45;&gt;Node9 -->
<g id="edge8" class="edge">
<title>Node2&#45;&gt;Node9</title>
<path fill="none" stroke="midnightblue" d="M378.42,-168.08C370.33,-160.14 358.3,-148.34 348.59,-138.8"/>
<polygon fill="midnightblue" stroke="midnightblue" points="351,-136.26 341.41,-131.75 346.1,-141.25 351,-136.26"/>
</g>
<!-- Node10 -->
<g id="node10" class="node">
<title>Node10</title>
<g id="a_node10"><a xlink:href="bwStyleProperties_8h.html" target="_top" xlink:title=" ">
<polygon fill="none" stroke="black" points="391.5,-112.5 391.5,-131.5 495.5,-131.5 495.5,-112.5 391.5,-112.5"/>
<text text-anchor="middle" x="443.5" y="-119.5" font-family="Helvetica,sans-Serif" font-size="10.00">bwStyleProperties.h</text>
</a>
</g>
</g>
<!-- Node2&#45;&gt;Node10 -->
<g id="edge9" class="edge">
<title>Node2&#45;&gt;Node10</title>
<path fill="none" stroke="midnightblue" d="M396.5,-168.32C404.69,-160.42 417.01,-148.55 426.97,-138.94"/>
<polygon fill="midnightblue" stroke="midnightblue" points="429.57,-141.29 434.34,-131.83 424.71,-136.26 429.57,-141.29"/>
</g>
<!-- Node13 -->
<g id="node13" class="node">
<title>Node13</title>
<g id="a_node13"><a xlink:href="EventHandler_8h.html" target="_top" xlink:title=" ">
<polygon fill="none" stroke="black" points="578,-112.5 578,-131.5 723,-131.5 723,-112.5 578,-112.5"/>
<text text-anchor="middle" x="650.5" y="-119.5" font-family="Helvetica,sans-Serif" font-size="10.00">screen_graph/EventHandler.h</text>
</a>
</g>
</g>
<!-- Node2&#45;&gt;Node13 -->
<g id="edge14" class="edge">
<title>Node2&#45;&gt;Node13</title>
<path fill="none" stroke="midnightblue" d="M421.61,-170C466.7,-160.74 546.53,-144.35 598.98,-133.58"/>
<polygon fill="midnightblue" stroke="midnightblue" points="599.99,-136.94 609.09,-131.5 598.59,-130.09 599.99,-136.94"/>
</g>
<!-- Node6 -->
<g id="node6" class="node">
<title>Node6</title>
<g id="a_node6"><a xlink:href="bwPoint_8h.html" target="_top" xlink:title=" ">
<polygon fill="none" stroke="black" points="172.5,-56.5 172.5,-75.5 232.5,-75.5 232.5,-56.5 172.5,-56.5"/>
<text text-anchor="middle" x="202.5" y="-63.5" font-family="Helvetica,sans-Serif" font-size="10.00">bwPoint.h</text>
</a>
</g>
</g>
<!-- Node5&#45;&gt;Node6 -->
<g id="edge5" class="edge">
<title>Node5&#45;&gt;Node6</title>
<path fill="none" stroke="midnightblue" d="M122.76,-112.32C137.72,-103.82 160.75,-90.73 178.23,-80.8"/>
<polygon fill="midnightblue" stroke="midnightblue" points="180.31,-83.64 187.27,-75.65 176.85,-77.55 180.31,-83.64"/>
</g>
<!-- Node7 -->
<g id="node7" class="node">
<title>Node7</title>
<g id="a_node7"><a xlink:title=" ">
<polygon fill="none" stroke="#bfbfbf" points="239.5,-0.5 239.5,-19.5 283.5,-19.5 283.5,-0.5 239.5,-0.5"/>
<text text-anchor="middle" x="261.5" y="-7.5" font-family="Helvetica,sans-Serif" font-size="10.00">vector</text>
</a>
</g>
</g>
<!-- Node6&#45;&gt;Node7 -->
<g id="edge6" class="edge">
<title>Node6&#45;&gt;Node7</title>
<path fill="none" stroke="midnightblue" d="M211.98,-56.32C220.7,-48.34 233.84,-36.31 244.4,-26.65"/>
<polygon fill="midnightblue" stroke="midnightblue" points="246.83,-29.17 251.85,-19.83 242.11,-24 246.83,-29.17"/>
</g>
<!-- Node10&#45;&gt;Node3 -->
<g id="edge11" class="edge">
<title>Node10&#45;&gt;Node3</title>
<path fill="none" stroke="midnightblue" d="M452.5,-112.32C460.69,-104.42 473.01,-92.55 482.97,-82.94"/>
<polygon fill="midnightblue" stroke="midnightblue" points="485.57,-85.29 490.34,-75.83 480.71,-80.26 485.57,-85.29"/>
</g>
<!-- Node10&#45;&gt;Node7 -->
<g id="edge13" class="edge">
<title>Node10&#45;&gt;Node7</title>
<path fill="none" stroke="midnightblue" d="M433.26,-112.28C417.47,-99.09 385.9,-73.7 356.5,-56 335.73,-43.49 310.94,-31.85 291.88,-23.54"/>
<polygon fill="midnightblue" stroke="midnightblue" points="293.07,-20.24 282.5,-19.51 290.31,-26.67 293.07,-20.24"/>
</g>
<!-- Node11 -->
<g id="node11" class="node">
<title>Node11</title>
<g id="a_node11"><a xlink:title=" ">
<polygon fill="none" stroke="#bfbfbf" points="404.5,-56.5 404.5,-75.5 456.5,-75.5 456.5,-56.5 404.5,-56.5"/>
<text text-anchor="middle" x="430.5" y="-63.5" font-family="Helvetica,sans-Serif" font-size="10.00">memory</text>
</a>
</g>
</g>
<!-- Node10&#45;&gt;Node11 -->
<g id="edge10" class="edge">
<title>Node10&#45;&gt;Node11</title>
<path fill="none" stroke="midnightblue" d="M441.35,-112.08C439.63,-104.93 437.15,-94.64 435,-85.69"/>
<polygon fill="midnightblue" stroke="midnightblue" points="438.35,-84.65 432.61,-75.75 431.54,-86.29 438.35,-84.65"/>
</g>
<!-- Node12 -->
<g id="node12" class="node">
<title>Node12</title>
<g id="a_node12"><a xlink:title=" ">
<polygon fill="none" stroke="#bfbfbf" points="307,-56.5 307,-75.5 348,-75.5 348,-56.5 307,-56.5"/>
<text text-anchor="middle" x="327.5" y="-63.5" font-family="Helvetica,sans-Serif" font-size="10.00">string</text>
</a>
</g>
</g>
<!-- Node10&#45;&gt;Node12 -->
<g id="edge12" class="edge">
<title>Node10&#45;&gt;Node12</title>
<path fill="none" stroke="midnightblue" d="M425.12,-112.44C406.28,-103.68 376.77,-89.94 355.12,-79.86"/>
<polygon fill="midnightblue" stroke="midnightblue" points="356.34,-76.56 345.79,-75.52 353.38,-82.91 356.34,-76.56"/>
</g>
<!-- Node14 -->
<g id="node14" class="node">
<title>Node14</title>
<g id="a_node14"><a xlink:title=" ">
<polygon fill="none" stroke="#bfbfbf" points="644.5,-56.5 644.5,-75.5 682.5,-75.5 682.5,-56.5 644.5,-56.5"/>
<text text-anchor="middle" x="663.5" y="-63.5" font-family="Helvetica,sans-Serif" font-size="10.00">array</text>
</a>
</g>
</g>
<!-- Node13&#45;&gt;Node14 -->
<g id="edge15" class="edge">
<title>Node13&#45;&gt;Node14</title>
<path fill="none" stroke="midnightblue" d="M652.65,-112.08C654.37,-104.93 656.85,-94.64 659,-85.69"/>
<polygon fill="midnightblue" stroke="midnightblue" points="662.46,-86.29 661.39,-75.75 655.65,-84.65 662.46,-86.29"/>
</g>
<!-- Node15 -->
<g id="node15" class="node">
<title>Node15</title>
<g id="a_node15"><a xlink:title=" ">
<polygon fill="none" stroke="#bfbfbf" points="701,-56.5 701,-75.5 760,-75.5 760,-56.5 701,-56.5"/>
<text text-anchor="middle" x="730.5" y="-63.5" font-family="Helvetica,sans-Serif" font-size="10.00">functional</text>
</a>
</g>
</g>
<!-- Node13&#45;&gt;Node15 -->
<g id="edge16" class="edge">
<title>Node13&#45;&gt;Node15</title>
<path fill="none" stroke="midnightblue" d="M663.35,-112.32C675.72,-103.98 694.63,-91.21 709.24,-81.35"/>
<polygon fill="midnightblue" stroke="midnightblue" points="711.35,-84.15 717.68,-75.65 707.43,-78.35 711.35,-84.15"/>
</g>
<!-- Node16 -->
<g id="node16" class="node">
<title>Node16</title>
<g id="a_node16"><a xlink:title=" ">
<polygon fill="none" stroke="#bfbfbf" points="778,-56.5 778,-75.5 807,-75.5 807,-56.5 778,-56.5"/>
<text text-anchor="middle" x="792.5" y="-63.5" font-family="Helvetica,sans-Serif" font-size="10.00">list</text>
</a>
</g>
</g>
<!-- Node13&#45;&gt;Node16 -->
<g id="edge17" class="edge">
<title>Node13&#45;&gt;Node16</title>
<path fill="none" stroke="midnightblue" d="M673,-112.44C699.07,-102.53 741.86,-86.26 768.54,-76.11"/>
<polygon fill="midnightblue" stroke="midnightblue" points="769.81,-79.37 777.91,-72.55 767.32,-72.83 769.81,-79.37"/>
</g>
<!-- Node17 -->
<g id="node17" class="node">
<title>Node17</title>
<g id="a_node17"><a xlink:title=" ">
<polygon fill="none" stroke="#bfbfbf" points="543,-56.5 543,-75.5 626,-75.5 626,-56.5 543,-56.5"/>
<text text-anchor="middle" x="584.5" y="-63.5" font-family="Helvetica,sans-Serif" font-size="10.00">unordered_map</text>
</a>
</g>
</g>
<!-- Node13&#45;&gt;Node17 -->
<g id="edge18" class="edge">
<title>Node13&#45;&gt;Node17</title>
<path fill="none" stroke="midnightblue" d="M639.9,-112.32C630.04,-104.26 615.15,-92.08 603.28,-82.37"/>
<polygon fill="midnightblue" stroke="midnightblue" points="605.25,-79.46 595.3,-75.83 600.82,-84.88 605.25,-79.46"/>
</g>
<!-- Node19 -->
<g id="node19" class="node">
<title>Node19</title>
<g id="a_node19"><a xlink:href="bwColor_8h.html" target="_top" xlink:title=" ">
<polygon fill="none" stroke="black" points="741.5,-112.5 741.5,-131.5 801.5,-131.5 801.5,-112.5 741.5,-112.5"/>
<text text-anchor="middle" x="771.5" y="-119.5" font-family="Helvetica,sans-Serif" font-size="10.00">bwColor.h</text>
</a>
</g>
</g>
<!-- Node18&#45;&gt;Node19 -->
<g id="edge20" class="edge">
<title>Node18&#45;&gt;Node19</title>
<path fill="none" stroke="midnightblue" d="M655.37,-168.44C678.28,-159.48 714.48,-145.31 740.37,-135.18"/>
<polygon fill="midnightblue" stroke="midnightblue" points="741.7,-138.42 749.74,-131.52 739.15,-131.9 741.7,-138.42"/>
</g>
</g>
</svg>
