<?xml version="1.0" encoding="UTF-8" standalone="no"?>
<!DOCTYPE svg PUBLIC "-//W3C//DTD SVG 1.1//EN"
 "http://www.w3.org/Graphics/SVG/1.1/DTD/svg11.dtd">
<!-- Generated by graphviz version 2.50.0 (20211204.2007)
 -->
<!-- Title: bwidgets/widgets/bwContainerWidget.h Pages: 1 -->
<svg width="1212pt" height="240pt"
 viewBox="0.00 0.00 1211.50 240.00" xmlns="http://www.w3.org/2000/svg" xmlns:xlink="http://www.w3.org/1999/xlink">
<g id="graph0" class="graph" transform="scale(1 1) rotate(0) translate(4 236)">
<title>bwidgets/widgets/bwContainerWidget.h</title>
<!-- Node1 -->
<g id="node1" class="node">
<title>Node1</title>
<g id="a_node1"><a xlink:title=" ">
<polygon fill="#bfbfbf" stroke="black" points="632.5,-201.5 632.5,-231.5 782.5,-231.5 782.5,-201.5 632.5,-201.5"/>
<text text-anchor="start" x="640.5" y="-219.5" font-family="Helvetica,sans-Serif" font-size="10.00">bwidgets/widgets/bwContainer</text>
<text text-anchor="middle" x="707.5" y="-208.5" font-family="Helvetica,sans-Serif" font-size="10.00">Widget.h</text>
</a>
</g>
</g>
<!-- Node2 -->
<g id="node2" class="node">
<title>Node2</title>
<g id="a_node2"><a xlink:href="Node_8h.html" target="_top" xlink:title=" ">
<polygon fill="none" stroke="black" points="417,-134.5 417,-164.5 534,-164.5 534,-134.5 417,-134.5"/>
<text text-anchor="start" x="425" y="-152.5" font-family="Helvetica,sans-Serif" font-size="10.00">bwidgets/screen_graph</text>
<text text-anchor="middle" x="475.5" y="-141.5" font-family="Helvetica,sans-Serif" font-size="10.00">/Node.h</text>
</a>
</g>
</g>
<!-- Node1&#45;&gt;Node2 -->
<g id="edge1" class="edge">
<title>Node1&#45;&gt;Node2</title>
<path fill="none" stroke="midnightblue" d="M647.59,-198.71C609.84,-188.14 561.64,-174.63 525.87,-164.61"/>
<polygon fill="midnightblue" stroke="midnightblue" points="646.87,-202.15 657.45,-201.48 648.76,-195.41 646.87,-202.15"/>
</g>
<!-- Node11 -->
<g id="node11" class="node">
<title>Node11</title>
<g id="a_node11"><a xlink:href="bwContainerWidget_8cc.html" target="_top" xlink:title=" ">
<polygon fill="none" stroke="black" points="552.5,-134.5 552.5,-164.5 702.5,-164.5 702.5,-134.5 552.5,-134.5"/>
<text text-anchor="start" x="560.5" y="-152.5" font-family="Helvetica,sans-Serif" font-size="10.00">bwidgets/widgets/bwContainer</text>
<text text-anchor="middle" x="627.5" y="-141.5" font-family="Helvetica,sans-Serif" font-size="10.00">Widget.cc</text>
</a>
</g>
</g>
<!-- Node1&#45;&gt;Node11 -->
<g id="edge11" class="edge">
<title>Node1&#45;&gt;Node11</title>
<path fill="none" stroke="midnightblue" d="M682.13,-194.88C669.97,-185.01 655.72,-173.43 644.82,-164.58"/>
<polygon fill="midnightblue" stroke="midnightblue" points="680.17,-197.81 690.14,-201.4 684.59,-192.37 680.17,-197.81"/>
</g>
<!-- Node12 -->
<g id="node12" class="node">
<title>Node12</title>
<g id="a_node12"><a xlink:href="bwPanel_8h.html" target="_top" xlink:title=" ">
<polygon fill="none" stroke="black" points="872,-140 872,-159 1013,-159 1013,-140 872,-140"/>
<text text-anchor="middle" x="942.5" y="-147" font-family="Helvetica,sans-Serif" font-size="10.00">bwidgets/widgets/bwPanel.h</text>
</a>
</g>
</g>
<!-- Node1&#45;&gt;Node12 -->
<g id="edge12" class="edge">
<title>Node1&#45;&gt;Node12</title>
<path fill="none" stroke="midnightblue" d="M768.06,-198.75C814.02,-186.04 875.31,-169.09 911.67,-159.03"/>
<polygon fill="midnightblue" stroke="midnightblue" points="766.91,-195.44 758.2,-201.48 768.77,-202.18 766.91,-195.44"/>
</g>
<!-- Node18 -->
<g id="node18" class="node">
<title>Node18</title>
<g id="a_node18"><a xlink:href="bwScrollView_8h.html" target="_top" xlink:title=" ">
<polygon fill="none" stroke="black" points="721,-134.5 721,-164.5 854,-164.5 854,-134.5 721,-134.5"/>
<text text-anchor="start" x="729" y="-152.5" font-family="Helvetica,sans-Serif" font-size="10.00">bwidgets/widgets/bwScroll</text>
<text text-anchor="middle" x="787.5" y="-141.5" font-family="Helvetica,sans-Serif" font-size="10.00">View.h</text>
</a>
</g>
</g>
<!-- Node1&#45;&gt;Node18 -->
<g id="edge18" class="edge">
<title>Node1&#45;&gt;Node18</title>
<path fill="none" stroke="midnightblue" d="M732.87,-194.88C745.03,-185.01 759.28,-173.43 770.18,-164.58"/>
<polygon fill="midnightblue" stroke="midnightblue" points="730.41,-192.37 724.86,-201.4 734.83,-197.81 730.41,-192.37"/>
</g>
<!-- Node3 -->
<g id="node3" class="node">
<title>Node3</title>
<g id="a_node3"><a xlink:href="bwEventDispatcher_8cc.html" target="_top" xlink:title=" ">
<polygon fill="none" stroke="black" points="405,-73 405,-92 562,-92 562,-73 405,-73"/>
<text text-anchor="middle" x="483.5" y="-80" font-family="Helvetica,sans-Serif" font-size="10.00">bwidgets/bwEventDispatcher.cc</text>
</a>
</g>
</g>
<!-- Node2&#45;&gt;Node3 -->
<g id="edge2" class="edge">
<title>Node2&#45;&gt;Node3</title>
<path fill="none" stroke="midnightblue" d="M478.48,-124.25C479.87,-113.02 481.42,-100.38 482.43,-92.19"/>
<polygon fill="midnightblue" stroke="midnightblue" points="474.98,-124.04 477.24,-134.4 481.93,-124.9 474.98,-124.04"/>
</g>
<!-- Node4 -->
<g id="node4" class="node">
<title>Node4</title>
<g id="a_node4"><a xlink:href="Builder_8h.html" target="_top" xlink:title=" ">
<polygon fill="none" stroke="black" points="580,-67.5 580,-97.5 697,-97.5 697,-67.5 580,-67.5"/>
<text text-anchor="start" x="588" y="-85.5" font-family="Helvetica,sans-Serif" font-size="10.00">bwidgets/screen_graph</text>
<text text-anchor="middle" x="638.5" y="-74.5" font-family="Helvetica,sans-Serif" font-size="10.00">/Builder.h</text>
</a>
</g>
</g>
<!-- Node2&#45;&gt;Node4 -->
<g id="edge3" class="edge">
<title>Node2&#45;&gt;Node4</title>
<path fill="none" stroke="midnightblue" d="M520.18,-130.68C546.33,-120.26 578.87,-107.28 603.2,-97.58"/>
<polygon fill="midnightblue" stroke="midnightblue" points="518.86,-127.44 510.87,-134.4 521.45,-133.94 518.86,-127.44"/>
</g>
<!-- Node6 -->
<g id="node6" class="node">
<title>Node6</title>
<g id="a_node6"><a xlink:href="bwScrollView_8cc.html" target="_top" xlink:title=" ">
<polygon fill="none" stroke="black" points="659,-0.5 659,-30.5 792,-30.5 792,-0.5 659,-0.5"/>
<text text-anchor="start" x="667" y="-18.5" font-family="Helvetica,sans-Serif" font-size="10.00">bwidgets/widgets/bwScroll</text>
<text text-anchor="middle" x="725.5" y="-7.5" font-family="Helvetica,sans-Serif" font-size="10.00">View.cc</text>
</a>
</g>
</g>
<!-- Node2&#45;&gt;Node6 -->
<g id="edge10" class="edge">
<title>Node2&#45;&gt;Node6</title>
<path fill="none" stroke="midnightblue" d="M543.94,-133.76C611.78,-119.12 705.75,-98.74 706.5,-98 724.5,-80.25 726.81,-48.98 726.44,-30.76"/>
<polygon fill="midnightblue" stroke="midnightblue" points="543.17,-130.35 534.13,-135.88 544.65,-137.19 543.17,-130.35"/>
</g>
<!-- Node7 -->
<g id="node7" class="node">
<title>Node7</title>
<g id="a_node7"><a xlink:href="Drawer_8cc.html" target="_top" xlink:title=" ">
<polygon fill="none" stroke="black" points="0,-67.5 0,-97.5 117,-97.5 117,-67.5 0,-67.5"/>
<text text-anchor="start" x="8" y="-85.5" font-family="Helvetica,sans-Serif" font-size="10.00">bwidgets/screen_graph</text>
<text text-anchor="middle" x="58.5" y="-74.5" font-family="Helvetica,sans-Serif" font-size="10.00">/Drawer.cc</text>
</a>
</g>
</g>
<!-- Node2&#45;&gt;Node7 -->
<g id="edge6" class="edge">
<title>Node2&#45;&gt;Node7</title>
<path fill="none" stroke="midnightblue" d="M406.65,-140.01C335.91,-130.95 222.68,-115.5 125.5,-98 122.81,-97.51 120.06,-97 117.28,-96.46"/>
<polygon fill="midnightblue" stroke="midnightblue" points="406.41,-143.51 416.78,-141.3 407.3,-136.56 406.41,-143.51"/>
</g>
<!-- Node8 -->
<g id="node8" class="node">
<title>Node8</title>
<g id="a_node8"><a xlink:href="EventHandler_8cc.html" target="_top" xlink:title=" ">
<polygon fill="none" stroke="black" points="135,-67.5 135,-97.5 252,-97.5 252,-67.5 135,-67.5"/>
<text text-anchor="start" x="143" y="-85.5" font-family="Helvetica,sans-Serif" font-size="10.00">bwidgets/screen_graph</text>
<text text-anchor="middle" x="193.5" y="-74.5" font-family="Helvetica,sans-Serif" font-size="10.00">/EventHandler.cc</text>
</a>
</g>
</g>
<!-- Node2&#45;&gt;Node8 -->
<g id="edge7" class="edge">
<title>Node2&#45;&gt;Node8</title>
<path fill="none" stroke="midnightblue" d="M406.86,-132.68C359.52,-121.77 297.24,-107.41 252.2,-97.03"/>
<polygon fill="midnightblue" stroke="midnightblue" points="406.2,-136.12 416.73,-134.95 407.77,-129.3 406.2,-136.12"/>
</g>
<!-- Node9 -->
<g id="node9" class="node">
<title>Node9</title>
<g id="a_node9"><a xlink:href="Iterators_8h.html" target="_top" xlink:title=" ">
<polygon fill="none" stroke="black" points="270,-67.5 270,-97.5 387,-97.5 387,-67.5 270,-67.5"/>
<text text-anchor="start" x="278" y="-85.5" font-family="Helvetica,sans-Serif" font-size="10.00">bwidgets/screen_graph</text>
<text text-anchor="middle" x="328.5" y="-74.5" font-family="Helvetica,sans-Serif" font-size="10.00">/Iterators.h</text>
</a>
</g>
</g>
<!-- Node2&#45;&gt;Node9 -->
<g id="edge8" class="edge">
<title>Node2&#45;&gt;Node9</title>
<path fill="none" stroke="midnightblue" d="M434.27,-130.27C410.86,-119.92 381.99,-107.15 360.33,-97.58"/>
<polygon fill="midnightblue" stroke="midnightblue" points="433.04,-133.55 443.6,-134.4 435.87,-127.15 433.04,-133.55"/>
</g>
<!-- Node5 -->
<g id="node5" class="node">
<title>Node5</title>
<g id="a_node5"><a xlink:href="Builder_8cc.html" target="_top" xlink:title=" ">
<polygon fill="none" stroke="black" points="524,-0.5 524,-30.5 641,-30.5 641,-0.5 524,-0.5"/>
<text text-anchor="start" x="532" y="-18.5" font-family="Helvetica,sans-Serif" font-size="10.00">bwidgets/screen_graph</text>
<text text-anchor="middle" x="582.5" y="-7.5" font-family="Helvetica,sans-Serif" font-size="10.00">/Builder.cc</text>
</a>
</g>
</g>
<!-- Node4&#45;&gt;Node5 -->
<g id="edge4" class="edge">
<title>Node4&#45;&gt;Node5</title>
<path fill="none" stroke="midnightblue" d="M619.75,-59.74C611.46,-50.12 601.96,-39.09 594.63,-30.58"/>
<polygon fill="midnightblue" stroke="midnightblue" points="617.17,-62.1 626.35,-67.4 622.47,-57.54 617.17,-62.1"/>
</g>
<!-- Node4&#45;&gt;Node6 -->
<g id="edge5" class="edge">
<title>Node4&#45;&gt;Node6</title>
<path fill="none" stroke="midnightblue" d="M665.71,-61.17C679.02,-51.23 694.7,-39.51 706.66,-30.58"/>
<polygon fill="midnightblue" stroke="midnightblue" points="663.29,-58.61 657.38,-67.4 667.48,-64.21 663.29,-58.61"/>
</g>
<!-- Node10 -->
<g id="node10" class="node">
<title>Node10</title>
<g id="a_node10"><a xlink:href="Iterators_8cc.html" target="_top" xlink:title=" ">
<polygon fill="none" stroke="black" points="270,-0.5 270,-30.5 387,-30.5 387,-0.5 270,-0.5"/>
<text text-anchor="start" x="278" y="-18.5" font-family="Helvetica,sans-Serif" font-size="10.00">bwidgets/screen_graph</text>
<text text-anchor="middle" x="328.5" y="-7.5" font-family="Helvetica,sans-Serif" font-size="10.00">/Iterators.cc</text>
</a>
</g>
</g>
<!-- Node9&#45;&gt;Node10 -->
<g id="edge9" class="edge">
<title>Node9&#45;&gt;Node10</title>
<path fill="none" stroke="midnightblue" d="M328.5,-57.11C328.5,-48.15 328.5,-38.32 328.5,-30.58"/>
<polygon fill="midnightblue" stroke="midnightblue" points="325,-57.4 328.5,-67.4 332,-57.4 325,-57.4"/>
</g>
<!-- Node13 -->
<g id="node13" class="node">
<title>Node13</title>
<g id="a_node13"><a xlink:href="builtin__widgets_8h.html" target="_top" xlink:title=" ">
<polygon fill="none" stroke="black" points="847,-67.5 847,-97.5 968,-97.5 968,-67.5 847,-67.5"/>
<text text-anchor="start" x="855" y="-85.5" font-family="Helvetica,sans-Serif" font-size="10.00">bwidgets/widgets/builtin</text>
<text text-anchor="middle" x="907.5" y="-74.5" font-family="Helvetica,sans-Serif" font-size="10.00">_widgets.h</text>
</a>
</g>
</g>
<!-- Node12&#45;&gt;Node13 -->
<g id="edge13" class="edge">
<title>Node12&#45;&gt;Node13</title>
<path fill="none" stroke="midnightblue" d="M932.92,-130.71C927.31,-120.29 920.32,-107.3 915.09,-97.59"/>
<polygon fill="midnightblue" stroke="midnightblue" points="929.96,-132.59 937.78,-139.73 936.12,-129.27 929.96,-132.59"/>
</g>
<!-- Node17 -->
<g id="node17" class="node">
<title>Node17</title>
<g id="a_node17"><a xlink:href="bwPanel_8cc.html" target="_top" xlink:title=" ">
<polygon fill="none" stroke="black" points="986.5,-73 986.5,-92 1132.5,-92 1132.5,-73 986.5,-73"/>
<text text-anchor="middle" x="1059.5" y="-80" font-family="Helvetica,sans-Serif" font-size="10.00">bwidgets/widgets/bwPanel.cc</text>
</a>
</g>
</g>
<!-- Node12&#45;&gt;Node17 -->
<g id="edge17" class="edge">
<title>Node12&#45;&gt;Node17</title>
<path fill="none" stroke="midnightblue" d="M967.18,-134.79C990.37,-121.9 1024.36,-103.02 1043.97,-92.13"/>
<polygon fill="midnightblue" stroke="midnightblue" points="965.32,-131.82 958.28,-139.73 968.72,-137.94 965.32,-131.82"/>
</g>
<!-- Node14 -->
<g id="node14" class="node">
<title>Node14</title>
<g id="a_node14"><a xlink:href="bwStyleCSS_8cc.html" target="_top" xlink:title=" ">
<polygon fill="none" stroke="black" points="810,-0.5 810,-30.5 935,-30.5 935,-0.5 810,-0.5"/>
<text text-anchor="start" x="818" y="-18.5" font-family="Helvetica,sans-Serif" font-size="10.00">bwidgets/styling/bwStyle</text>
<text text-anchor="middle" x="872.5" y="-7.5" font-family="Helvetica,sans-Serif" font-size="10.00">CSS.cc</text>
</a>
</g>
</g>
<!-- Node13&#45;&gt;Node14 -->
<g id="edge14" class="edge">
<title>Node13&#45;&gt;Node14</title>
<path fill="none" stroke="midnightblue" d="M895.16,-58.58C890.13,-49.24 884.48,-38.75 880.08,-30.58"/>
<polygon fill="midnightblue" stroke="midnightblue" points="892.08,-60.25 899.91,-67.4 898.25,-56.93 892.08,-60.25"/>
</g>
<!-- Node15 -->
<g id="node15" class="node">
<title>Node15</title>
<g id="a_node15"><a xlink:href="bwStyleClassic_8cc.html" target="_top" xlink:title=" ">
<polygon fill="none" stroke="black" points="953.5,-0.5 953.5,-30.5 1069.5,-30.5 1069.5,-0.5 953.5,-0.5"/>
<text text-anchor="start" x="961.5" y="-18.5" font-family="Helvetica,sans-Serif" font-size="10.00">bwidgets/styling/styles</text>
<text text-anchor="middle" x="1011.5" y="-7.5" font-family="Helvetica,sans-Serif" font-size="10.00">/bwStyleClassic.cc</text>
</a>
</g>
</g>
<!-- Node13&#45;&gt;Node15 -->
<g id="edge15" class="edge">
<title>Node13&#45;&gt;Node15</title>
<path fill="none" stroke="midnightblue" d="M938.68,-62.02C954.86,-51.9 974.27,-39.77 988.98,-30.58"/>
<polygon fill="midnightblue" stroke="midnightblue" points="936.69,-59.13 930.07,-67.4 940.4,-65.06 936.69,-59.13"/>
</g>
<!-- Node16 -->
<g id="node16" class="node">
<title>Node16</title>
<g id="a_node16"><a xlink:href="bwStyleFlatGrey_8cc.html" target="_top" xlink:title=" ">
<polygon fill="none" stroke="black" points="1087.5,-0.5 1087.5,-30.5 1203.5,-30.5 1203.5,-0.5 1087.5,-0.5"/>
<text text-anchor="start" x="1095.5" y="-18.5" font-family="Helvetica,sans-Serif" font-size="10.00">bwidgets/styling/styles</text>
<text text-anchor="middle" x="1145.5" y="-7.5" font-family="Helvetica,sans-Serif" font-size="10.00">/bwStyleFlatGrey.cc</text>
</a>
</g>
</g>
<!-- Node13&#45;&gt;Node16 -->
<g id="edge16" class="edge">
<title>Node13&#45;&gt;Node16</title>
<path fill="none" stroke="midnightblue" d="M968.96,-64.71C1007.69,-54.14 1057.13,-40.63 1093.83,-30.61"/>
<polygon fill="midnightblue" stroke="midnightblue" points="967.57,-61.46 958.85,-67.48 969.42,-68.22 967.57,-61.46"/>
</g>
<!-- Node18&#45;&gt;Node6 -->
<g id="edge20" class="edge">
<title>Node18&#45;&gt;Node6</title>
<path fill="none" stroke="midnightblue" d="M776.52,-125.12C763.63,-97.68 742.68,-53.09 732.09,-30.52"/>
<polygon fill="midnightblue" stroke="midnightblue" points="773.45,-126.81 780.86,-134.37 779.78,-123.83 773.45,-126.81"/>
</g>
<!-- Node18&#45;&gt;Node13 -->
<g id="edge19" class="edge">
<title>Node18&#45;&gt;Node13</title>
<path fill="none" stroke="midnightblue" d="M822.44,-129.57C841.32,-119.35 864.23,-106.94 881.51,-97.58"/>
<polygon fill="midnightblue" stroke="midnightblue" points="820.66,-126.56 813.54,-134.4 824,-132.71 820.66,-126.56"/>
</g>
</g>
</svg>
