<?xml version="1.0" encoding="UTF-8" standalone="no"?>
<!DOCTYPE svg PUBLIC "-//W3C//DTD SVG 1.1//EN"
 "http://www.w3.org/Graphics/SVG/1.1/DTD/svg11.dtd">
<!-- Generated by graphviz version 2.50.0 (20211204.2007)
 -->
<!-- Title: bwidgets/generics/bwColor.h Pages: 1 -->
<svg width="2918pt" height="363pt"
 viewBox="0.00 0.00 2918.47 363.00" xmlns="http://www.w3.org/2000/svg" xmlns:xlink="http://www.w3.org/1999/xlink">
<g id="graph0" class="graph" transform="scale(1 1) rotate(0) translate(4 359)">
<title>bwidgets/generics/bwColor.h</title>
<!-- Node1 -->
<g id="node1" class="node">
<title>Node1</title>
<g id="a_node1"><a xlink:title=" ">
<polygon fill="#bfbfbf" stroke="black" points="1573.5,-335.5 1573.5,-354.5 1715.5,-354.5 1715.5,-335.5 1573.5,-335.5"/>
<text text-anchor="middle" x="1644.5" y="-342.5" font-family="Helvetica,sans-Serif" font-size="10.00">bwidgets/generics/bwColor.h</text>
</a>
</g>
</g>
<!-- Node2 -->
<g id="node2" class="node">
<title>Node2</title>
<g id="a_node2"><a xlink:href="bwColor_8cc.html" target="_top" xlink:title=" ">
<polygon fill="none" stroke="black" points="1374,-274 1374,-293 1521,-293 1521,-274 1374,-274"/>
<text text-anchor="middle" x="1447.5" y="-281" font-family="Helvetica,sans-Serif" font-size="10.00">bwidgets/generics/bwColor.cc</text>
</a>
</g>
</g>
<!-- Node1&#45;&gt;Node2 -->
<g id="edge1" class="edge">
<title>Node1&#45;&gt;Node2</title>
<path fill="none" stroke="midnightblue" d="M1606.52,-332.53C1568.23,-320.96 1510.03,-303.38 1475.67,-293.01"/>
<polygon fill="midnightblue" stroke="midnightblue" points="1605.69,-335.93 1616.27,-335.48 1607.71,-329.23 1605.69,-335.93"/>
</g>
<!-- Node3 -->
<g id="node3" class="node">
<title>Node3</title>
<g id="a_node3"><a xlink:href="bwGradient_8h.html" target="_top" xlink:title=" ">
<polygon fill="none" stroke="black" points="858.5,-207 858.5,-226 1014.5,-226 1014.5,-207 858.5,-207"/>
<text text-anchor="middle" x="936.5" y="-214" font-family="Helvetica,sans-Serif" font-size="10.00">bwidgets/generics/bwGradient.h</text>
</a>
</g>
</g>
<!-- Node1&#45;&gt;Node3 -->
<g id="edge2" class="edge">
<title>Node1&#45;&gt;Node3</title>
<path fill="none" stroke="midnightblue" d="M1619.56,-330.48C1604.44,-321.98 1584.95,-310.48 1568.5,-299 1550.63,-286.52 1550.76,-276.04 1530.5,-268 1426.55,-226.73 1139.62,-244.72 1028.5,-232 1014.52,-230.4 999.42,-228.21 985.57,-226.02"/>
<polygon fill="midnightblue" stroke="midnightblue" points="1617.91,-333.57 1628.35,-335.36 1621.3,-327.45 1617.91,-333.57"/>
</g>
<!-- Node20 -->
<g id="node20" class="node">
<title>Node20</title>
<g id="a_node20"><a xlink:href="bwStyleProperties_8cc.html" target="_top" xlink:title=" ">
<polygon fill="none" stroke="black" points="2233,-268.5 2233,-298.5 2358,-298.5 2358,-268.5 2233,-268.5"/>
<text text-anchor="start" x="2241" y="-286.5" font-family="Helvetica,sans-Serif" font-size="10.00">bwidgets/styling/bwStyle</text>
<text text-anchor="middle" x="2295.5" y="-275.5" font-family="Helvetica,sans-Serif" font-size="10.00">Properties.cc</text>
</a>
</g>
</g>
<!-- Node1&#45;&gt;Node20 -->
<g id="edge19" class="edge">
<title>Node1&#45;&gt;Node20</title>
<path fill="none" stroke="midnightblue" d="M1726.07,-340.38C1837.62,-334.8 2043.86,-322.22 2218.5,-299 2223.22,-298.37 2228.09,-297.65 2232.98,-296.86"/>
<polygon fill="midnightblue" stroke="midnightblue" points="1725.72,-336.89 1715.9,-340.88 1726.06,-343.88 1725.72,-336.89"/>
</g>
<!-- Node21 -->
<g id="node21" class="node">
<title>Node21</title>
<g id="a_node21"><a xlink:href="bwWidgetBaseStyle_8h.html" target="_top" xlink:title=" ">
<polygon fill="none" stroke="black" points="1577.5,-268.5 1577.5,-298.5 1711.5,-298.5 1711.5,-268.5 1577.5,-268.5"/>
<text text-anchor="start" x="1585.5" y="-286.5" font-family="Helvetica,sans-Serif" font-size="10.00">bwidgets/styling/bwWidget</text>
<text text-anchor="middle" x="1644.5" y="-275.5" font-family="Helvetica,sans-Serif" font-size="10.00">BaseStyle.h</text>
</a>
</g>
</g>
<!-- Node1&#45;&gt;Node21 -->
<g id="edge20" class="edge">
<title>Node1&#45;&gt;Node21</title>
<path fill="none" stroke="midnightblue" d="M1644.5,-325.23C1644.5,-316.59 1644.5,-306.5 1644.5,-298.52"/>
<polygon fill="midnightblue" stroke="midnightblue" points="1641,-325.48 1644.5,-335.48 1648,-325.48 1641,-325.48"/>
</g>
<!-- Node43 -->
<g id="node43" class="node">
<title>Node43</title>
<g id="a_node43"><a xlink:href="bwLabel_8h.html" target="_top" xlink:title=" ">
<polygon fill="none" stroke="black" points="2285.5,-140 2285.5,-159 2425.5,-159 2425.5,-140 2285.5,-140"/>
<text text-anchor="middle" x="2355.5" y="-147" font-family="Helvetica,sans-Serif" font-size="10.00">bwidgets/widgets/bwLabel.h</text>
</a>
</g>
</g>
<!-- Node1&#45;&gt;Node43 -->
<g id="edge66" class="edge">
<title>Node1&#45;&gt;Node43</title>
<path fill="none" stroke="midnightblue" d="M1721.67,-334.05C1828.06,-318.98 2024.83,-286.24 2185.5,-232 2245.35,-211.79 2311.58,-175.73 2340.55,-159.21"/>
<polygon fill="midnightblue" stroke="midnightblue" points="1721.08,-330.6 1711.67,-335.45 1722.05,-337.53 1721.08,-330.6"/>
</g>
<!-- Node4 -->
<g id="node4" class="node">
<title>Node4</title>
<g id="a_node4"><a xlink:href="bwPainter_8h.html" target="_top" xlink:title=" ">
<polygon fill="none" stroke="black" points="1108.5,-140 1108.5,-159 1218.5,-159 1218.5,-140 1108.5,-140"/>
<text text-anchor="middle" x="1163.5" y="-147" font-family="Helvetica,sans-Serif" font-size="10.00">bwidgets/bwPainter.h</text>
</a>
</g>
</g>
<!-- Node3&#45;&gt;Node4 -->
<g id="edge3" class="edge">
<title>Node3&#45;&gt;Node4</title>
<path fill="none" stroke="midnightblue" d="M976.34,-204.09C1021.25,-191.23 1093.24,-170.62 1133.59,-159.06"/>
<polygon fill="midnightblue" stroke="midnightblue" points="975.29,-200.75 966.64,-206.87 977.22,-207.48 975.29,-200.75"/>
</g>
<!-- Node19 -->
<g id="node19" class="node">
<title>Node19</title>
<g id="a_node19"><a xlink:href="bwGradient_8cc.html" target="_top" xlink:title=" ">
<polygon fill="none" stroke="black" points="310,-140 310,-159 471,-159 471,-140 310,-140"/>
<text text-anchor="middle" x="390.5" y="-147" font-family="Helvetica,sans-Serif" font-size="10.00">bwidgets/generics/bwGradient.cc</text>
</a>
</g>
</g>
<!-- Node3&#45;&gt;Node19 -->
<g id="edge18" class="edge">
<title>Node3&#45;&gt;Node19</title>
<path fill="none" stroke="midnightblue" d="M848.19,-207.1C756.02,-198.02 607.38,-182.47 479.5,-165 466.63,-163.24 452.74,-161.1 439.86,-159.01"/>
<polygon fill="midnightblue" stroke="midnightblue" points="848.02,-210.6 858.32,-208.1 848.71,-203.64 848.02,-210.6"/>
</g>
<!-- Node5 -->
<g id="node5" class="node">
<title>Node5</title>
<g id="a_node5"><a xlink:href="bwPainter_8cc.html" target="_top" xlink:title=" ">
<polygon fill="none" stroke="black" points="754,-73 754,-92 869,-92 869,-73 754,-73"/>
<text text-anchor="middle" x="811.5" y="-80" font-family="Helvetica,sans-Serif" font-size="10.00">bwidgets/bwPainter.cc</text>
</a>
</g>
</g>
<!-- Node4&#45;&gt;Node5 -->
<g id="edge4" class="edge">
<title>Node4&#45;&gt;Node5</title>
<path fill="none" stroke="midnightblue" d="M1101.84,-138.26C1044.03,-128.51 955.25,-113.1 878.5,-98 869.16,-96.16 859.11,-94.06 849.71,-92.03"/>
<polygon fill="midnightblue" stroke="midnightblue" points="1101.46,-141.75 1111.91,-139.96 1102.63,-134.85 1101.46,-141.75"/>
</g>
<!-- Node6 -->
<g id="node6" class="node">
<title>Node6</title>
<g id="a_node6"><a xlink:href="Drawer_8cc.html" target="_top" xlink:title=" ">
<polygon fill="none" stroke="black" points="619,-67.5 619,-97.5 736,-97.5 736,-67.5 619,-67.5"/>
<text text-anchor="start" x="627" y="-85.5" font-family="Helvetica,sans-Serif" font-size="10.00">bwidgets/screen_graph</text>
<text text-anchor="middle" x="677.5" y="-74.5" font-family="Helvetica,sans-Serif" font-size="10.00">/Drawer.cc</text>
</a>
</g>
</g>
<!-- Node4&#45;&gt;Node6 -->
<g id="edge5" class="edge">
<title>Node4&#45;&gt;Node6</title>
<path fill="none" stroke="midnightblue" d="M1098.36,-142.55C1015.73,-134.56 869.01,-118.93 744.5,-98 741.8,-97.55 739.05,-97.06 736.27,-96.54"/>
<polygon fill="midnightblue" stroke="midnightblue" points="1098.07,-146.04 1108.36,-143.51 1098.74,-139.07 1098.07,-146.04"/>
</g>
<!-- Node7 -->
<g id="node7" class="node">
<title>Node7</title>
<g id="a_node7"><a xlink:href="bwStyleCSS_8cc.html" target="_top" xlink:title=" ">
<polygon fill="none" stroke="black" points="2429,-0.5 2429,-30.5 2554,-30.5 2554,-0.5 2429,-0.5"/>
<text text-anchor="start" x="2437" y="-18.5" font-family="Helvetica,sans-Serif" font-size="10.00">bwidgets/styling/bwStyle</text>
<text text-anchor="middle" x="2491.5" y="-7.5" font-family="Helvetica,sans-Serif" font-size="10.00">CSS.cc</text>
</a>
</g>
</g>
<!-- Node4&#45;&gt;Node7 -->
<g id="edge6" class="edge">
<title>Node4&#45;&gt;Node7</title>
<path fill="none" stroke="midnightblue" d="M1170.33,-130.5C1178.81,-110.97 1195.32,-80.74 1220.5,-67 1312.55,-16.79 2058.73,-35.32 2163.5,-31 2255.9,-27.19 2362.93,-22.39 2428.93,-19.38"/>
<polygon fill="midnightblue" stroke="midnightblue" points="1167.06,-129.26 1166.53,-139.84 1173.54,-131.9 1167.06,-129.26"/>
</g>
<!-- Node8 -->
<g id="node8" class="node">
<title>Node8</title>
<g id="a_node8"><a xlink:href="bwWidgetBaseStyle_8cc.html" target="_top" xlink:title=" ">
<polygon fill="none" stroke="black" points="887.5,-67.5 887.5,-97.5 1021.5,-97.5 1021.5,-67.5 887.5,-67.5"/>
<text text-anchor="start" x="895.5" y="-85.5" font-family="Helvetica,sans-Serif" font-size="10.00">bwidgets/styling/bwWidget</text>
<text text-anchor="middle" x="954.5" y="-74.5" font-family="Helvetica,sans-Serif" font-size="10.00">BaseStyle.cc</text>
</a>
</g>
</g>
<!-- Node4&#45;&gt;Node8 -->
<g id="edge7" class="edge">
<title>Node4&#45;&gt;Node8</title>
<path fill="none" stroke="midnightblue" d="M1125.8,-136.77C1090.36,-125.75 1037.28,-109.24 999.61,-97.53"/>
<polygon fill="midnightblue" stroke="midnightblue" points="1125.16,-140.24 1135.75,-139.87 1127.24,-133.56 1125.16,-140.24"/>
</g>
<!-- Node9 -->
<g id="node9" class="node">
<title>Node9</title>
<g id="a_node9"><a xlink:href="bwStyleClassic_8cc.html" target="_top" xlink:title=" ">
<polygon fill="none" stroke="black" points="1391.5,-0.5 1391.5,-30.5 1507.5,-30.5 1507.5,-0.5 1391.5,-0.5"/>
<text text-anchor="start" x="1399.5" y="-18.5" font-family="Helvetica,sans-Serif" font-size="10.00">bwidgets/styling/styles</text>
<text text-anchor="middle" x="1449.5" y="-7.5" font-family="Helvetica,sans-Serif" font-size="10.00">/bwStyleClassic.cc</text>
</a>
</g>
</g>
<!-- Node4&#45;&gt;Node9 -->
<g id="edge8" class="edge">
<title>Node4&#45;&gt;Node9</title>
<path fill="none" stroke="midnightblue" d="M1153.15,-130.79C1144.08,-112.68 1134.48,-84.76 1149.5,-67 1179.85,-31.11 1313.04,-20.71 1391.37,-17.71"/>
<polygon fill="midnightblue" stroke="midnightblue" points="1150.14,-132.58 1157.98,-139.71 1156.3,-129.25 1150.14,-132.58"/>
</g>
<!-- Node10 -->
<g id="node10" class="node">
<title>Node10</title>
<g id="a_node10"><a xlink:href="bwStyleFlatGrey_8cc.html" target="_top" xlink:title=" ">
<polygon fill="none" stroke="black" points="2038.5,-0.5 2038.5,-30.5 2154.5,-30.5 2154.5,-0.5 2038.5,-0.5"/>
<text text-anchor="start" x="2046.5" y="-18.5" font-family="Helvetica,sans-Serif" font-size="10.00">bwidgets/styling/styles</text>
<text text-anchor="middle" x="2096.5" y="-7.5" font-family="Helvetica,sans-Serif" font-size="10.00">/bwStyleFlatGrey.cc</text>
</a>
</g>
</g>
<!-- Node4&#45;&gt;Node10 -->
<g id="edge9" class="edge">
<title>Node4&#45;&gt;Node10</title>
<path fill="none" stroke="midnightblue" d="M1163.25,-129.69C1164.12,-110.62 1168.74,-81.86 1187.5,-67 1220.89,-40.55 1842.92,-22.83 2038.29,-17.9"/>
<polygon fill="midnightblue" stroke="midnightblue" points="1159.75,-129.81 1163.1,-139.87 1166.75,-129.92 1159.75,-129.81"/>
</g>
<!-- Node11 -->
<g id="node11" class="node">
<title>Node11</title>
<g id="a_node11"><a xlink:href="bwAbstractButton_8cc.html" target="_top" xlink:title=" ">
<polygon fill="none" stroke="black" points="1731,-67.5 1731,-97.5 1876,-97.5 1876,-67.5 1731,-67.5"/>
<text text-anchor="start" x="1739" y="-85.5" font-family="Helvetica,sans-Serif" font-size="10.00">bwidgets/widgets/bwAbstract</text>
<text text-anchor="middle" x="1803.5" y="-74.5" font-family="Helvetica,sans-Serif" font-size="10.00">Button.cc</text>
</a>
</g>
</g>
<!-- Node4&#45;&gt;Node11 -->
<g id="edge10" class="edge">
<title>Node4&#45;&gt;Node11</title>
<path fill="none" stroke="midnightblue" d="M1207.46,-137.78C1214.47,-136.33 1221.66,-135.01 1228.5,-134 1446.29,-101.95 1504.08,-125.43 1722.5,-98 1725.19,-97.66 1727.93,-97.29 1730.7,-96.9"/>
<polygon fill="midnightblue" stroke="midnightblue" points="1206.43,-134.42 1197.4,-139.95 1207.91,-141.26 1206.43,-134.42"/>
</g>
<!-- Node12 -->
<g id="node12" class="node">
<title>Node12</title>
<g id="a_node12"><a xlink:href="bwCheckbox_8cc.html" target="_top" xlink:title=" ">
<polygon fill="none" stroke="black" points="2083.5,-73 2083.5,-92 2249.5,-92 2249.5,-73 2083.5,-73"/>
<text text-anchor="middle" x="2166.5" y="-80" font-family="Helvetica,sans-Serif" font-size="10.00">bwidgets/widgets/bwCheckbox.cc</text>
</a>
</g>
</g>
<!-- Node4&#45;&gt;Node12 -->
<g id="edge11" class="edge">
<title>Node4&#45;&gt;Node12</title>
<path fill="none" stroke="midnightblue" d="M1206.23,-137.86C1213.62,-136.33 1221.25,-134.96 1228.5,-134 1584.84,-86.69 1678.12,-125.94 2036.5,-98 2056.42,-96.45 2078.01,-94.25 2097.76,-92.03"/>
<polygon fill="midnightblue" stroke="midnightblue" points="1205.4,-134.45 1196.37,-140 1206.88,-141.29 1205.4,-134.45"/>
</g>
<!-- Node13 -->
<g id="node13" class="node">
<title>Node13</title>
<g id="a_node13"><a xlink:href="bwLabel_8cc.html" target="_top" xlink:title=" ">
<polygon fill="none" stroke="black" points="2268,-73 2268,-92 2413,-92 2413,-73 2268,-73"/>
<text text-anchor="middle" x="2340.5" y="-80" font-family="Helvetica,sans-Serif" font-size="10.00">bwidgets/widgets/bwLabel.cc</text>
</a>
</g>
</g>
<!-- Node4&#45;&gt;Node13 -->
<g id="edge12" class="edge">
<title>Node4&#45;&gt;Node13</title>
<path fill="none" stroke="midnightblue" d="M1206.22,-137.8C1213.61,-136.28 1221.25,-134.93 1228.5,-134 1682.86,-75.89 1802.96,-146 2258.5,-98 2271.73,-96.61 2286.04,-94.34 2298.94,-92.01"/>
<polygon fill="midnightblue" stroke="midnightblue" points="1205.39,-134.39 1196.36,-139.93 1206.87,-141.24 1205.39,-134.39"/>
</g>
<!-- Node14 -->
<g id="node14" class="node">
<title>Node14</title>
<g id="a_node14"><a xlink:href="bwNumberSlider_8cc.html" target="_top" xlink:title=" ">
<polygon fill="none" stroke="black" points="1570,-67.5 1570,-97.5 1713,-97.5 1713,-67.5 1570,-67.5"/>
<text text-anchor="start" x="1578" y="-85.5" font-family="Helvetica,sans-Serif" font-size="10.00">bwidgets/widgets/bwNumber</text>
<text text-anchor="middle" x="1641.5" y="-74.5" font-family="Helvetica,sans-Serif" font-size="10.00">Slider.cc</text>
</a>
</g>
</g>
<!-- Node4&#45;&gt;Node14 -->
<g id="edge13" class="edge">
<title>Node4&#45;&gt;Node14</title>
<path fill="none" stroke="midnightblue" d="M1208.68,-137.74C1215.3,-136.36 1222.06,-135.06 1228.5,-134 1374.94,-109.8 1413.59,-119.09 1560.5,-98 1563.61,-97.55 1566.79,-97.08 1569.99,-96.58"/>
<polygon fill="midnightblue" stroke="midnightblue" points="1207.48,-134.42 1198.44,-139.95 1208.96,-141.26 1207.48,-134.42"/>
</g>
<!-- Node15 -->
<g id="node15" class="node">
<title>Node15</title>
<g id="a_node15"><a xlink:href="bwPanel_8cc.html" target="_top" xlink:title=" ">
<polygon fill="none" stroke="black" points="1229.5,-73 1229.5,-92 1375.5,-92 1375.5,-73 1229.5,-73"/>
<text text-anchor="middle" x="1302.5" y="-80" font-family="Helvetica,sans-Serif" font-size="10.00">bwidgets/widgets/bwPanel.cc</text>
</a>
</g>
</g>
<!-- Node4&#45;&gt;Node15 -->
<g id="edge14" class="edge">
<title>Node4&#45;&gt;Node15</title>
<path fill="none" stroke="midnightblue" d="M1191.06,-135.61C1218.59,-122.74 1260.15,-103.31 1283.97,-92.17"/>
<polygon fill="midnightblue" stroke="midnightblue" points="1189.53,-132.46 1181.96,-139.87 1192.5,-138.8 1189.53,-132.46"/>
</g>
<!-- Node16 -->
<g id="node16" class="node">
<title>Node16</title>
<g id="a_node16"><a xlink:href="bwScrollBar_8cc.html" target="_top" xlink:title=" ">
<polygon fill="none" stroke="black" points="1894,-67.5 1894,-97.5 2027,-97.5 2027,-67.5 1894,-67.5"/>
<text text-anchor="start" x="1902" y="-85.5" font-family="Helvetica,sans-Serif" font-size="10.00">bwidgets/widgets/bwScroll</text>
<text text-anchor="middle" x="1960.5" y="-74.5" font-family="Helvetica,sans-Serif" font-size="10.00">Bar.cc</text>
</a>
</g>
</g>
<!-- Node4&#45;&gt;Node16 -->
<g id="edge15" class="edge">
<title>Node4&#45;&gt;Node16</title>
<path fill="none" stroke="midnightblue" d="M1206.98,-137.77C1214.13,-136.3 1221.5,-134.97 1228.5,-134 1518.19,-94.03 1595.27,-133.84 1885.5,-98 1888.26,-97.66 1891.08,-97.28 1893.92,-96.86"/>
<polygon fill="midnightblue" stroke="midnightblue" points="1205.74,-134.45 1196.71,-139.99 1207.22,-141.29 1205.74,-134.45"/>
</g>
<!-- Node17 -->
<g id="node17" class="node">
<title>Node17</title>
<g id="a_node17"><a xlink:href="bwScrollView_8cc.html" target="_top" xlink:title=" ">
<polygon fill="none" stroke="black" points="983,-0.5 983,-30.5 1116,-30.5 1116,-0.5 983,-0.5"/>
<text text-anchor="start" x="991" y="-18.5" font-family="Helvetica,sans-Serif" font-size="10.00">bwidgets/widgets/bwScroll</text>
<text text-anchor="middle" x="1049.5" y="-7.5" font-family="Helvetica,sans-Serif" font-size="10.00">View.cc</text>
</a>
</g>
</g>
<!-- Node4&#45;&gt;Node17 -->
<g id="edge16" class="edge">
<title>Node4&#45;&gt;Node17</title>
<path fill="none" stroke="midnightblue" d="M1127.58,-135.99C1109.01,-127.83 1087.38,-115.42 1073.5,-98 1057.69,-78.16 1052.29,-48.19 1050.45,-30.66"/>
<polygon fill="midnightblue" stroke="midnightblue" points="1126.38,-139.28 1136.96,-139.87 1129.06,-132.81 1126.38,-139.28"/>
</g>
<!-- Node18 -->
<g id="node18" class="node">
<title>Node18</title>
<g id="a_node18"><a xlink:href="bwTextBox_8cc.html" target="_top" xlink:title=" ">
<polygon fill="none" stroke="black" points="1393.5,-73 1393.5,-92 1551.5,-92 1551.5,-73 1393.5,-73"/>
<text text-anchor="middle" x="1472.5" y="-80" font-family="Helvetica,sans-Serif" font-size="10.00">bwidgets/widgets/bwTextBox.cc</text>
</a>
</g>
</g>
<!-- Node4&#45;&gt;Node18 -->
<g id="edge17" class="edge">
<title>Node4&#45;&gt;Node18</title>
<path fill="none" stroke="midnightblue" d="M1211.06,-137.8C1216.93,-136.51 1222.85,-135.21 1228.5,-134 1299.13,-118.81 1381.44,-101.95 1430.14,-92.06"/>
<polygon fill="midnightblue" stroke="midnightblue" points="1210.29,-134.39 1201.29,-139.97 1211.81,-141.22 1210.29,-134.39"/>
</g>
<!-- Node21&#45;&gt;Node5 -->
<g id="edge21" class="edge">
<title>Node21&#45;&gt;Node5</title>
<path fill="none" stroke="midnightblue" d="M1567.35,-268.55C1566.06,-268.36 1564.77,-268.18 1563.5,-268 1401.59,-245.58 1356.55,-269.69 1197.5,-232 1049.38,-196.9 881.87,-118.1 828.66,-92.04"/>
<polygon fill="midnightblue" stroke="midnightblue" points="1566.97,-272.03 1577.38,-270.06 1568.02,-265.11 1566.97,-272.03"/>
</g>
<!-- Node21&#45;&gt;Node8 -->
<g id="edge22" class="edge">
<title>Node21&#45;&gt;Node8</title>
<path fill="none" stroke="midnightblue" d="M1567.11,-268.17C1502.14,-256.06 1414.49,-239.52 1379.5,-232 1254.4,-205.13 1215.82,-218.31 1099.5,-165 1078.08,-155.18 1076.68,-146.16 1056.5,-134 1033.82,-120.34 1006.94,-107.14 986.46,-97.67"/>
<polygon fill="midnightblue" stroke="midnightblue" points="1566.86,-271.68 1577.33,-270.07 1568.14,-264.8 1566.86,-271.68"/>
</g>
<!-- Node22 -->
<g id="node22" class="node">
<title>Node22</title>
<g id="a_node22"><a xlink:href="bwAbstractButton_8h.html" target="_top" xlink:title=" ">
<polygon fill="none" stroke="black" points="2031,-201.5 2031,-231.5 2176,-231.5 2176,-201.5 2031,-201.5"/>
<text text-anchor="start" x="2039" y="-219.5" font-family="Helvetica,sans-Serif" font-size="10.00">bwidgets/widgets/bwAbstract</text>
<text text-anchor="middle" x="2103.5" y="-208.5" font-family="Helvetica,sans-Serif" font-size="10.00">Button.h</text>
</a>
</g>
</g>
<!-- Node21&#45;&gt;Node22 -->
<g id="edge23" class="edge">
<title>Node21&#45;&gt;Node22</title>
<path fill="none" stroke="midnightblue" d="M1721.72,-271.56C1807.95,-259.35 1946.42,-239.74 2030.78,-227.8"/>
<polygon fill="midnightblue" stroke="midnightblue" points="1721.14,-268.11 1711.73,-272.98 1722.13,-275.04 1721.14,-268.11"/>
</g>
<!-- Node30 -->
<g id="node30" class="node">
<title>Node30</title>
<g id="a_node30"><a xlink:href="bwContainerWidget_8h.html" target="_top" xlink:title=" ">
<polygon fill="none" stroke="black" points="1388.5,-201.5 1388.5,-231.5 1538.5,-231.5 1538.5,-201.5 1388.5,-201.5"/>
<text text-anchor="start" x="1396.5" y="-219.5" font-family="Helvetica,sans-Serif" font-size="10.00">bwidgets/widgets/bwContainer</text>
<text text-anchor="middle" x="1463.5" y="-208.5" font-family="Helvetica,sans-Serif" font-size="10.00">Widget.h</text>
</a>
</g>
</g>
<!-- Node21&#45;&gt;Node30 -->
<g id="edge42" class="edge">
<title>Node21&#45;&gt;Node30</title>
<path fill="none" stroke="midnightblue" d="M1595.64,-264.96C1566.49,-254.48 1529.96,-241.37 1502.7,-231.58"/>
<polygon fill="midnightblue" stroke="midnightblue" points="1594.63,-268.31 1605.23,-268.4 1597,-261.72 1594.63,-268.31"/>
</g>
<!-- Node41 -->
<g id="node41" class="node">
<title>Node41</title>
<g id="a_node41"><a xlink:href="bwTextBox_8h.html" target="_top" xlink:title=" ">
<polygon fill="none" stroke="black" points="1700.5,-207 1700.5,-226 1852.5,-226 1852.5,-207 1700.5,-207"/>
<text text-anchor="middle" x="1776.5" y="-214" font-family="Helvetica,sans-Serif" font-size="10.00">bwidgets/widgets/bwTextBox.h</text>
</a>
</g>
</g>
<!-- Node21&#45;&gt;Node41 -->
<g id="edge60" class="edge">
<title>Node21&#45;&gt;Node41</title>
<path fill="none" stroke="midnightblue" d="M1682.14,-263.97C1707.49,-251.48 1739.75,-235.6 1759.22,-226.01"/>
<polygon fill="midnightblue" stroke="midnightblue" points="1680.57,-260.84 1673.14,-268.4 1683.66,-267.12 1680.57,-260.84"/>
</g>
<!-- Node22&#45;&gt;Node7 -->
<g id="edge24" class="edge">
<title>Node22&#45;&gt;Node7</title>
<path fill="none" stroke="midnightblue" d="M2186.55,-215.17C2347.92,-213.62 2697.83,-205.52 2810.5,-165 2858.78,-147.64 2881,-143.61 2904.5,-98 2910.81,-85.75 2913.63,-77.32 2904.5,-67 2881.7,-41.24 2664.13,-25.85 2554.3,-19.67"/>
<polygon fill="midnightblue" stroke="midnightblue" points="2186.17,-211.68 2176.2,-215.27 2186.23,-218.67 2186.17,-211.68"/>
</g>
<!-- Node22&#45;&gt;Node11 -->
<g id="edge25" class="edge">
<title>Node22&#45;&gt;Node11</title>
<path fill="none" stroke="midnightblue" d="M2032.87,-198.66C2005.04,-190.53 1973.37,-179.38 1946.5,-165 1926.98,-154.55 1926.24,-145.8 1907.5,-134 1885.08,-119.89 1858.13,-106.9 1837.28,-97.63"/>
<polygon fill="midnightblue" stroke="midnightblue" points="2031.97,-202.04 2042.54,-201.4 2033.88,-195.31 2031.97,-202.04"/>
</g>
<!-- Node23 -->
<g id="node23" class="node">
<title>Node23</title>
<g id="a_node23"><a xlink:href="bwCheckbox_8h.html" target="_top" xlink:title=" ">
<polygon fill="none" stroke="black" points="2106,-140 2106,-159 2267,-159 2267,-140 2106,-140"/>
<text text-anchor="middle" x="2186.5" y="-147" font-family="Helvetica,sans-Serif" font-size="10.00">bwidgets/widgets/bwCheckbox.h</text>
</a>
</g>
</g>
<!-- Node22&#45;&gt;Node23 -->
<g id="edge26" class="edge">
<title>Node22&#45;&gt;Node23</title>
<path fill="none" stroke="midnightblue" d="M2129.67,-195.01C2145.08,-182.94 2163.76,-168.3 2175.4,-159.19"/>
<polygon fill="midnightblue" stroke="midnightblue" points="2127.22,-192.47 2121.51,-201.4 2131.54,-197.99 2127.22,-192.47"/>
</g>
<!-- Node25 -->
<g id="node25" class="node">
<title>Node25</title>
<g id="a_node25"><a xlink:href="bwPushButton_8h.html" target="_top" xlink:title=" ">
<polygon fill="none" stroke="black" points="2482,-140 2482,-159 2649,-159 2649,-140 2482,-140"/>
<text text-anchor="middle" x="2565.5" y="-147" font-family="Helvetica,sans-Serif" font-size="10.00">bwidgets/widgets/bwPushButton.h</text>
</a>
</g>
</g>
<!-- Node22&#45;&gt;Node25 -->
<g id="edge32" class="edge">
<title>Node22&#45;&gt;Node25</title>
<path fill="none" stroke="midnightblue" d="M2186.2,-204.24C2260,-194.15 2370.99,-178.83 2467.5,-165 2480.78,-163.1 2495.06,-161.01 2508.51,-159.02"/>
<polygon fill="midnightblue" stroke="midnightblue" points="2185.48,-200.81 2176.04,-205.63 2186.42,-207.75 2185.48,-200.81"/>
</g>
<!-- Node27 -->
<g id="node27" class="node">
<title>Node27</title>
<g id="a_node27"><a xlink:href="bwRadioButton_8h.html" target="_top" xlink:title=" ">
<polygon fill="none" stroke="black" points="2667.5,-134.5 2667.5,-164.5 2801.5,-164.5 2801.5,-134.5 2667.5,-134.5"/>
<text text-anchor="start" x="2675.5" y="-152.5" font-family="Helvetica,sans-Serif" font-size="10.00">bwidgets/widgets/bwRadio</text>
<text text-anchor="middle" x="2734.5" y="-141.5" font-family="Helvetica,sans-Serif" font-size="10.00">Button.h</text>
</a>
</g>
</g>
<!-- Node22&#45;&gt;Node27 -->
<g id="edge35" class="edge">
<title>Node22&#45;&gt;Node27</title>
<path fill="none" stroke="midnightblue" d="M2186.29,-210.5C2295.01,-203.36 2491.66,-188.45 2658.5,-165 2661.43,-164.59 2664.41,-164.14 2667.42,-163.67"/>
<polygon fill="midnightblue" stroke="midnightblue" points="2185.8,-207.03 2176.05,-211.17 2186.25,-214.01 2185.8,-207.03"/>
</g>
<!-- Node29 -->
<g id="node29" class="node">
<title>Node29</title>
<g id="a_node29"><a xlink:href="bwScrollBar_8h.html" target="_top" xlink:title=" ">
<polygon fill="none" stroke="black" points="1955,-134.5 1955,-164.5 2088,-164.5 2088,-134.5 1955,-134.5"/>
<text text-anchor="start" x="1963" y="-152.5" font-family="Helvetica,sans-Serif" font-size="10.00">bwidgets/widgets/bwScroll</text>
<text text-anchor="middle" x="2021.5" y="-141.5" font-family="Helvetica,sans-Serif" font-size="10.00">Bar.h</text>
</a>
</g>
</g>
<!-- Node22&#45;&gt;Node29 -->
<g id="edge38" class="edge">
<title>Node22&#45;&gt;Node29</title>
<path fill="none" stroke="midnightblue" d="M2077.85,-195.17C2065.31,-185.23 2050.53,-173.51 2039.26,-164.58"/>
<polygon fill="midnightblue" stroke="midnightblue" points="2075.7,-197.93 2085.71,-201.4 2080.04,-192.44 2075.7,-197.93"/>
</g>
<!-- Node23&#45;&gt;Node12 -->
<g id="edge31" class="edge">
<title>Node23&#45;&gt;Node12</title>
<path fill="none" stroke="midnightblue" d="M2180.78,-129.91C2176.96,-117.49 2172.11,-101.72 2169.15,-92.13"/>
<polygon fill="midnightblue" stroke="midnightblue" points="2177.52,-131.21 2183.8,-139.73 2184.21,-129.15 2177.52,-131.21"/>
</g>
<!-- Node24 -->
<g id="node24" class="node">
<title>Node24</title>
<g id="a_node24"><a xlink:href="builtin__widgets_8h.html" target="_top" xlink:title=" ">
<polygon fill="none" stroke="black" points="2431,-67.5 2431,-97.5 2552,-97.5 2552,-67.5 2431,-67.5"/>
<text text-anchor="start" x="2439" y="-85.5" font-family="Helvetica,sans-Serif" font-size="10.00">bwidgets/widgets/builtin</text>
<text text-anchor="middle" x="2491.5" y="-74.5" font-family="Helvetica,sans-Serif" font-size="10.00">_widgets.h</text>
</a>
</g>
</g>
<!-- Node23&#45;&gt;Node24 -->
<g id="edge27" class="edge">
<title>Node23&#45;&gt;Node24</title>
<path fill="none" stroke="midnightblue" d="M2236.58,-137.83C2289.82,-126.48 2374.04,-108.53 2430.96,-96.4"/>
<polygon fill="midnightblue" stroke="midnightblue" points="2235.74,-134.43 2226.69,-139.94 2237.2,-141.27 2235.74,-134.43"/>
</g>
<!-- Node24&#45;&gt;Node7 -->
<g id="edge28" class="edge">
<title>Node24&#45;&gt;Node7</title>
<path fill="none" stroke="midnightblue" d="M2491.5,-57.11C2491.5,-48.15 2491.5,-38.32 2491.5,-30.58"/>
<polygon fill="midnightblue" stroke="midnightblue" points="2488,-57.4 2491.5,-67.4 2495,-57.4 2488,-57.4"/>
</g>
<!-- Node24&#45;&gt;Node9 -->
<g id="edge29" class="edge">
<title>Node24&#45;&gt;Node9</title>
<path fill="none" stroke="midnightblue" d="M2420.53,-66.87C2069.65,-21.98 1657.57,-16.74 1507.63,-16.38"/>
<polygon fill="midnightblue" stroke="midnightblue" points="2420.27,-70.36 2430.63,-68.17 2421.17,-63.42 2420.27,-70.36"/>
</g>
<!-- Node24&#45;&gt;Node10 -->
<g id="edge30" class="edge">
<title>Node24&#45;&gt;Node10</title>
<path fill="none" stroke="midnightblue" d="M2421.09,-66.79C2322.12,-48.93 2217.89,-33.52 2154.66,-24.55"/>
<polygon fill="midnightblue" stroke="midnightblue" points="2420.49,-70.24 2430.95,-68.59 2421.74,-63.35 2420.49,-70.24"/>
</g>
<!-- Node25&#45;&gt;Node24 -->
<g id="edge33" class="edge">
<title>Node25&#45;&gt;Node24</title>
<path fill="none" stroke="midnightblue" d="M2547.77,-132.93C2535.53,-122.18 2519.4,-108 2507.54,-97.59"/>
<polygon fill="midnightblue" stroke="midnightblue" points="2545.7,-135.76 2555.52,-139.73 2550.32,-130.5 2545.7,-135.76"/>
</g>
<!-- Node26 -->
<g id="node26" class="node">
<title>Node26</title>
<g id="a_node26"><a xlink:href="bwPushButton_8cc.html" target="_top" xlink:title=" ">
<polygon fill="none" stroke="black" points="2570,-73 2570,-92 2743,-92 2743,-73 2570,-73"/>
<text text-anchor="middle" x="2656.5" y="-80" font-family="Helvetica,sans-Serif" font-size="10.00">bwidgets/widgets/bwPushButton.cc</text>
</a>
</g>
</g>
<!-- Node25&#45;&gt;Node26 -->
<g id="edge34" class="edge">
<title>Node25&#45;&gt;Node26</title>
<path fill="none" stroke="midnightblue" d="M2585.91,-133.92C2603.9,-121.07 2629.51,-102.78 2644.42,-92.13"/>
<polygon fill="midnightblue" stroke="midnightblue" points="2583.88,-131.07 2577.77,-139.73 2587.94,-136.77 2583.88,-131.07"/>
</g>
<!-- Node27&#45;&gt;Node24 -->
<g id="edge36" class="edge">
<title>Node27&#45;&gt;Node24</title>
<path fill="none" stroke="midnightblue" d="M2672.25,-131.85C2632.64,-121.25 2581.89,-107.68 2544.25,-97.61"/>
<polygon fill="midnightblue" stroke="midnightblue" points="2671.51,-135.27 2682.07,-134.48 2673.32,-128.51 2671.51,-135.27"/>
</g>
<!-- Node28 -->
<g id="node28" class="node">
<title>Node28</title>
<g id="a_node28"><a xlink:href="bwRadioButton_8cc.html" target="_top" xlink:title=" ">
<polygon fill="none" stroke="black" points="2761.5,-67.5 2761.5,-97.5 2895.5,-97.5 2895.5,-67.5 2761.5,-67.5"/>
<text text-anchor="start" x="2769.5" y="-85.5" font-family="Helvetica,sans-Serif" font-size="10.00">bwidgets/widgets/bwRadio</text>
<text text-anchor="middle" x="2828.5" y="-74.5" font-family="Helvetica,sans-Serif" font-size="10.00">Button.cc</text>
</a>
</g>
</g>
<!-- Node27&#45;&gt;Node28 -->
<g id="edge37" class="edge">
<title>Node27&#45;&gt;Node28</title>
<path fill="none" stroke="midnightblue" d="M2763.49,-128.45C2777.95,-118.45 2795.09,-106.6 2808.14,-97.58"/>
<polygon fill="midnightblue" stroke="midnightblue" points="2761.13,-125.83 2754.9,-134.4 2765.11,-131.59 2761.13,-125.83"/>
</g>
<!-- Node29&#45;&gt;Node16 -->
<g id="edge40" class="edge">
<title>Node29&#45;&gt;Node16</title>
<path fill="none" stroke="midnightblue" d="M2001.35,-127.02C1992.26,-117.34 1981.78,-106.17 1973.71,-97.58"/>
<polygon fill="midnightblue" stroke="midnightblue" points="1998.87,-129.5 2008.26,-134.4 2003.97,-124.71 1998.87,-129.5"/>
</g>
<!-- Node29&#45;&gt;Node17 -->
<g id="edge41" class="edge">
<title>Node29&#45;&gt;Node17</title>
<path fill="none" stroke="midnightblue" d="M2035.3,-125.03C2043.98,-106.87 2051.05,-82.31 2036.5,-67 2032.53,-62.82 1337.45,-29.97 1116.26,-19.61"/>
<polygon fill="midnightblue" stroke="midnightblue" points="2031.95,-123.87 2030.44,-134.36 2038.16,-127.1 2031.95,-123.87"/>
</g>
<!-- Node29&#45;&gt;Node24 -->
<g id="edge39" class="edge">
<title>Node29&#45;&gt;Node24</title>
<path fill="none" stroke="midnightblue" d="M2098.32,-133.96C2242.96,-112.74 2282.22,-120.45 2422.5,-98 2425.28,-97.56 2428.12,-97.07 2430.98,-96.56"/>
<polygon fill="midnightblue" stroke="midnightblue" points="2097.55,-130.54 2088.18,-135.47 2098.58,-137.46 2097.55,-130.54"/>
</g>
<!-- Node31 -->
<g id="node31" class="node">
<title>Node31</title>
<g id="a_node31"><a xlink:href="Node_8h.html" target="_top" xlink:title=" ">
<polygon fill="none" stroke="black" points="489,-134.5 489,-164.5 606,-164.5 606,-134.5 489,-134.5"/>
<text text-anchor="start" x="497" y="-152.5" font-family="Helvetica,sans-Serif" font-size="10.00">bwidgets/screen_graph</text>
<text text-anchor="middle" x="547.5" y="-141.5" font-family="Helvetica,sans-Serif" font-size="10.00">/Node.h</text>
</a>
</g>
</g>
<!-- Node30&#45;&gt;Node31 -->
<g id="edge43" class="edge">
<title>Node30&#45;&gt;Node31</title>
<path fill="none" stroke="midnightblue" d="M1377.96,-209.43C1193.63,-196.35 762.93,-165.79 606.01,-154.65"/>
<polygon fill="midnightblue" stroke="midnightblue" points="1377.93,-212.94 1388.15,-210.15 1378.42,-205.95 1377.93,-212.94"/>
</g>
<!-- Node38 -->
<g id="node38" class="node">
<title>Node38</title>
<g id="a_node38"><a xlink:href="bwContainerWidget_8cc.html" target="_top" xlink:title=" ">
<polygon fill="none" stroke="black" points="1388.5,-134.5 1388.5,-164.5 1538.5,-164.5 1538.5,-134.5 1388.5,-134.5"/>
<text text-anchor="start" x="1396.5" y="-152.5" font-family="Helvetica,sans-Serif" font-size="10.00">bwidgets/widgets/bwContainer</text>
<text text-anchor="middle" x="1463.5" y="-141.5" font-family="Helvetica,sans-Serif" font-size="10.00">Widget.cc</text>
</a>
</g>
</g>
<!-- Node30&#45;&gt;Node38 -->
<g id="edge53" class="edge">
<title>Node30&#45;&gt;Node38</title>
<path fill="none" stroke="midnightblue" d="M1463.5,-191.11C1463.5,-182.15 1463.5,-172.32 1463.5,-164.58"/>
<polygon fill="midnightblue" stroke="midnightblue" points="1460,-191.4 1463.5,-201.4 1467,-191.4 1460,-191.4"/>
</g>
<!-- Node39 -->
<g id="node39" class="node">
<title>Node39</title>
<g id="a_node39"><a xlink:href="bwPanel_8h.html" target="_top" xlink:title=" ">
<polygon fill="none" stroke="black" points="1557,-140 1557,-159 1698,-159 1698,-140 1557,-140"/>
<text text-anchor="middle" x="1627.5" y="-147" font-family="Helvetica,sans-Serif" font-size="10.00">bwidgets/widgets/bwPanel.h</text>
</a>
</g>
</g>
<!-- Node30&#45;&gt;Node39 -->
<g id="edge54" class="edge">
<title>Node30&#45;&gt;Node39</title>
<path fill="none" stroke="midnightblue" d="M1508.61,-197.62C1540.35,-185.04 1581.41,-168.77 1606.04,-159.01"/>
<polygon fill="midnightblue" stroke="midnightblue" points="1507.09,-194.46 1499.09,-201.4 1509.67,-200.97 1507.09,-194.46"/>
</g>
<!-- Node40 -->
<g id="node40" class="node">
<title>Node40</title>
<g id="a_node40"><a xlink:href="bwScrollView_8h.html" target="_top" xlink:title=" ">
<polygon fill="none" stroke="black" points="1237,-134.5 1237,-164.5 1370,-164.5 1370,-134.5 1237,-134.5"/>
<text text-anchor="start" x="1245" y="-152.5" font-family="Helvetica,sans-Serif" font-size="10.00">bwidgets/widgets/bwScroll</text>
<text text-anchor="middle" x="1303.5" y="-141.5" font-family="Helvetica,sans-Serif" font-size="10.00">View.h</text>
</a>
</g>
</g>
<!-- Node30&#45;&gt;Node40 -->
<g id="edge57" class="edge">
<title>Node30&#45;&gt;Node40</title>
<path fill="none" stroke="midnightblue" d="M1419.3,-197.54C1393.7,-187.14 1361.93,-174.24 1338.15,-164.58"/>
<polygon fill="midnightblue" stroke="midnightblue" points="1418.2,-200.87 1428.78,-201.4 1420.84,-194.39 1418.2,-200.87"/>
</g>
<!-- Node31&#45;&gt;Node6 -->
<g id="edge48" class="edge">
<title>Node31&#45;&gt;Node6</title>
<path fill="none" stroke="midnightblue" d="M584.79,-129.85C605.35,-119.58 630.45,-107.03 649.35,-97.58"/>
<polygon fill="midnightblue" stroke="midnightblue" points="583.09,-126.79 575.71,-134.4 586.22,-133.05 583.09,-126.79"/>
</g>
<!-- Node31&#45;&gt;Node17 -->
<g id="edge52" class="edge">
<title>Node31&#45;&gt;Node17</title>
<path fill="none" stroke="midnightblue" d="M558.37,-125.47C568.69,-106.39 586.1,-80.31 609.5,-67 671.65,-31.63 875.76,-21 982.74,-17.83"/>
<polygon fill="midnightblue" stroke="midnightblue" points="555.22,-123.96 553.76,-134.45 561.44,-127.16 555.22,-123.96"/>
</g>
<!-- Node32 -->
<g id="node32" class="node">
<title>Node32</title>
<g id="a_node32"><a xlink:href="bwEventDispatcher_8cc.html" target="_top" xlink:title=" ">
<polygon fill="none" stroke="black" points="270,-73 270,-92 427,-92 427,-73 270,-73"/>
<text text-anchor="middle" x="348.5" y="-80" font-family="Helvetica,sans-Serif" font-size="10.00">bwidgets/bwEventDispatcher.cc</text>
</a>
</g>
</g>
<!-- Node31&#45;&gt;Node32 -->
<g id="edge44" class="edge">
<title>Node31&#45;&gt;Node32</title>
<path fill="none" stroke="midnightblue" d="M494.75,-131.27C455.97,-118.6 404.94,-101.93 374.54,-92.01"/>
<polygon fill="midnightblue" stroke="midnightblue" points="493.73,-134.62 504.32,-134.4 495.9,-127.96 493.73,-134.62"/>
</g>
<!-- Node33 -->
<g id="node33" class="node">
<title>Node33</title>
<g id="a_node33"><a xlink:href="Builder_8h.html" target="_top" xlink:title=" ">
<polygon fill="none" stroke="black" points="135,-67.5 135,-97.5 252,-97.5 252,-67.5 135,-67.5"/>
<text text-anchor="start" x="143" y="-85.5" font-family="Helvetica,sans-Serif" font-size="10.00">bwidgets/screen_graph</text>
<text text-anchor="middle" x="193.5" y="-74.5" font-family="Helvetica,sans-Serif" font-size="10.00">/Builder.h</text>
</a>
</g>
</g>
<!-- Node31&#45;&gt;Node33 -->
<g id="edge45" class="edge">
<title>Node31&#45;&gt;Node33</title>
<path fill="none" stroke="midnightblue" d="M478.9,-133.95C380.87,-115.74 354.28,-115.84 260.5,-98 257.81,-97.49 255.06,-96.95 252.29,-96.4"/>
<polygon fill="midnightblue" stroke="midnightblue" points="478.46,-137.42 488.93,-135.83 479.75,-130.54 478.46,-137.42"/>
</g>
<!-- Node35 -->
<g id="node35" class="node">
<title>Node35</title>
<g id="a_node35"><a xlink:href="EventHandler_8cc.html" target="_top" xlink:title=" ">
<polygon fill="none" stroke="black" points="445,-67.5 445,-97.5 562,-97.5 562,-67.5 445,-67.5"/>
<text text-anchor="start" x="453" y="-85.5" font-family="Helvetica,sans-Serif" font-size="10.00">bwidgets/screen_graph</text>
<text text-anchor="middle" x="503.5" y="-74.5" font-family="Helvetica,sans-Serif" font-size="10.00">/EventHandler.cc</text>
</a>
</g>
</g>
<!-- Node31&#45;&gt;Node35 -->
<g id="edge49" class="edge">
<title>Node31&#45;&gt;Node35</title>
<path fill="none" stroke="midnightblue" d="M532.18,-125.87C525.81,-116.46 518.62,-105.83 513.03,-97.58"/>
<polygon fill="midnightblue" stroke="midnightblue" points="529.45,-128.08 537.95,-134.4 535.25,-124.15 529.45,-128.08"/>
</g>
<!-- Node36 -->
<g id="node36" class="node">
<title>Node36</title>
<g id="a_node36"><a xlink:href="Iterators_8h.html" target="_top" xlink:title=" ">
<polygon fill="none" stroke="black" points="0,-67.5 0,-97.5 117,-97.5 117,-67.5 0,-67.5"/>
<text text-anchor="start" x="8" y="-85.5" font-family="Helvetica,sans-Serif" font-size="10.00">bwidgets/screen_graph</text>
<text text-anchor="middle" x="58.5" y="-74.5" font-family="Helvetica,sans-Serif" font-size="10.00">/Iterators.h</text>
</a>
</g>
</g>
<!-- Node31&#45;&gt;Node36 -->
<g id="edge50" class="edge">
<title>Node31&#45;&gt;Node36</title>
<path fill="none" stroke="midnightblue" d="M478.93,-134.04C321.52,-110 278.49,-122.26 125.5,-98 122.8,-97.57 120.04,-97.1 117.26,-96.6"/>
<polygon fill="midnightblue" stroke="midnightblue" points="478.55,-137.52 488.97,-135.6 479.62,-130.6 478.55,-137.52"/>
</g>
<!-- Node33&#45;&gt;Node17 -->
<g id="edge47" class="edge">
<title>Node33&#45;&gt;Node17</title>
<path fill="none" stroke="midnightblue" d="M262.3,-66.88C534.23,-29.68 848.33,-19.99 982.92,-17.41"/>
<polygon fill="midnightblue" stroke="midnightblue" points="261.66,-63.43 252.24,-68.27 262.62,-70.37 261.66,-63.43"/>
</g>
<!-- Node34 -->
<g id="node34" class="node">
<title>Node34</title>
<g id="a_node34"><a xlink:href="Builder_8cc.html" target="_top" xlink:title=" ">
<polygon fill="none" stroke="black" points="135,-0.5 135,-30.5 252,-30.5 252,-0.5 135,-0.5"/>
<text text-anchor="start" x="143" y="-18.5" font-family="Helvetica,sans-Serif" font-size="10.00">bwidgets/screen_graph</text>
<text text-anchor="middle" x="193.5" y="-7.5" font-family="Helvetica,sans-Serif" font-size="10.00">/Builder.cc</text>
</a>
</g>
</g>
<!-- Node33&#45;&gt;Node34 -->
<g id="edge46" class="edge">
<title>Node33&#45;&gt;Node34</title>
<path fill="none" stroke="midnightblue" d="M193.5,-57.11C193.5,-48.15 193.5,-38.32 193.5,-30.58"/>
<polygon fill="midnightblue" stroke="midnightblue" points="190,-57.4 193.5,-67.4 197,-57.4 190,-57.4"/>
</g>
<!-- Node37 -->
<g id="node37" class="node">
<title>Node37</title>
<g id="a_node37"><a xlink:href="Iterators_8cc.html" target="_top" xlink:title=" ">
<polygon fill="none" stroke="black" points="0,-0.5 0,-30.5 117,-30.5 117,-0.5 0,-0.5"/>
<text text-anchor="start" x="8" y="-18.5" font-family="Helvetica,sans-Serif" font-size="10.00">bwidgets/screen_graph</text>
<text text-anchor="middle" x="58.5" y="-7.5" font-family="Helvetica,sans-Serif" font-size="10.00">/Iterators.cc</text>
</a>
</g>
</g>
<!-- Node36&#45;&gt;Node37 -->
<g id="edge51" class="edge">
<title>Node36&#45;&gt;Node37</title>
<path fill="none" stroke="midnightblue" d="M58.5,-57.11C58.5,-48.15 58.5,-38.32 58.5,-30.58"/>
<polygon fill="midnightblue" stroke="midnightblue" points="55,-57.4 58.5,-67.4 62,-57.4 55,-57.4"/>
</g>
<!-- Node39&#45;&gt;Node15 -->
<g id="edge56" class="edge">
<title>Node39&#45;&gt;Node15</title>
<path fill="none" stroke="midnightblue" d="M1574.79,-137.96C1510.82,-125.16 1404.22,-103.84 1345.16,-92.03"/>
<polygon fill="midnightblue" stroke="midnightblue" points="1574.19,-141.41 1584.68,-139.94 1575.56,-134.54 1574.19,-141.41"/>
</g>
<!-- Node39&#45;&gt;Node24 -->
<g id="edge55" class="edge">
<title>Node39&#45;&gt;Node24</title>
<path fill="none" stroke="midnightblue" d="M1700.99,-138.75C1716.03,-136.98 1731.76,-135.29 1746.5,-134 2046.23,-107.79 2124.18,-137.05 2422.5,-98 2425.17,-97.65 2427.89,-97.25 2430.63,-96.82"/>
<polygon fill="midnightblue" stroke="midnightblue" points="1700.23,-135.32 1690.72,-139.99 1701.06,-142.27 1700.23,-135.32"/>
</g>
<!-- Node40&#45;&gt;Node17 -->
<g id="edge59" class="edge">
<title>Node40&#45;&gt;Node17</title>
<path fill="none" stroke="midnightblue" d="M1267.2,-129.63C1215.64,-102.84 1122.38,-54.37 1076.49,-30.52"/>
<polygon fill="midnightblue" stroke="midnightblue" points="1265.83,-132.87 1276.32,-134.37 1269.06,-126.66 1265.83,-132.87"/>
</g>
<!-- Node40&#45;&gt;Node24 -->
<g id="edge58" class="edge">
<title>Node40&#45;&gt;Node24</title>
<path fill="none" stroke="midnightblue" d="M1380.42,-134.04C1842.25,-83.42 1965.42,-153.49 2422.5,-98 2425.17,-97.68 2427.9,-97.3 2430.64,-96.88"/>
<polygon fill="midnightblue" stroke="midnightblue" points="1379.69,-130.6 1370.14,-135.18 1380.46,-137.56 1379.69,-130.6"/>
</g>
<!-- Node41&#45;&gt;Node18 -->
<g id="edge65" class="edge">
<title>Node41&#45;&gt;Node18</title>
<path fill="none" stroke="midnightblue" d="M1766.71,-198.25C1755.09,-179.41 1733.91,-149.83 1707.5,-134 1691.57,-124.45 1584.18,-103.77 1520.22,-92.05"/>
<polygon fill="midnightblue" stroke="midnightblue" points="1763.78,-200.17 1771.9,-206.99 1769.8,-196.6 1763.78,-200.17"/>
</g>
<!-- Node41&#45;&gt;Node24 -->
<g id="edge61" class="edge">
<title>Node41&#45;&gt;Node24</title>
<path fill="none" stroke="midnightblue" d="M1862.5,-209.86C2038.05,-198.21 2422.23,-172 2434.5,-165 2461.04,-149.85 2478.13,-116.69 2486.15,-97.67"/>
<polygon fill="midnightblue" stroke="midnightblue" points="1862.26,-206.36 1852.52,-210.52 1862.73,-213.35 1862.26,-206.36"/>
</g>
<!-- Node42 -->
<g id="node42" class="node">
<title>Node42</title>
<g id="a_node42"><a xlink:href="bwNumberSlider_8h.html" target="_top" xlink:title=" ">
<polygon fill="none" stroke="black" points="1755,-134.5 1755,-164.5 1898,-164.5 1898,-134.5 1755,-134.5"/>
<text text-anchor="start" x="1763" y="-152.5" font-family="Helvetica,sans-Serif" font-size="10.00">bwidgets/widgets/bwNumber</text>
<text text-anchor="middle" x="1826.5" y="-141.5" font-family="Helvetica,sans-Serif" font-size="10.00">Slider.h</text>
</a>
</g>
</g>
<!-- Node41&#45;&gt;Node42 -->
<g id="edge62" class="edge">
<title>Node41&#45;&gt;Node42</title>
<path fill="none" stroke="midnightblue" d="M1789.44,-198.67C1797.58,-188.09 1807.96,-174.6 1815.66,-164.59"/>
<polygon fill="midnightblue" stroke="midnightblue" points="1786.57,-196.67 1783.24,-206.73 1792.11,-200.94 1786.57,-196.67"/>
</g>
<!-- Node42&#45;&gt;Node14 -->
<g id="edge64" class="edge">
<title>Node42&#45;&gt;Node14</title>
<path fill="none" stroke="midnightblue" d="M1776.56,-130.96C1746.76,-120.48 1709.43,-107.37 1681.56,-97.58"/>
<polygon fill="midnightblue" stroke="midnightblue" points="1775.76,-134.38 1786.36,-134.4 1778.08,-127.78 1775.76,-134.38"/>
</g>
<!-- Node42&#45;&gt;Node24 -->
<g id="edge63" class="edge">
<title>Node42&#45;&gt;Node24</title>
<path fill="none" stroke="midnightblue" d="M1908.31,-138.12C1921.08,-136.64 1934.14,-135.21 1946.5,-134 2157.64,-113.27 2212.45,-127.88 2422.5,-98 2425.29,-97.6 2428.13,-97.16 2431,-96.68"/>
<polygon fill="midnightblue" stroke="midnightblue" points="1907.67,-134.67 1898.15,-139.31 1908.49,-141.62 1907.67,-134.67"/>
</g>
<!-- Node43&#45;&gt;Node13 -->
<g id="edge68" class="edge">
<title>Node43&#45;&gt;Node13</title>
<path fill="none" stroke="midnightblue" d="M2351.21,-129.91C2348.34,-117.49 2344.7,-101.72 2342.49,-92.13"/>
<polygon fill="midnightblue" stroke="midnightblue" points="2347.82,-130.78 2353.48,-139.73 2354.64,-129.2 2347.82,-130.78"/>
</g>
<!-- Node43&#45;&gt;Node24 -->
<g id="edge67" class="edge">
<title>Node43&#45;&gt;Node24</title>
<path fill="none" stroke="midnightblue" d="M2382.75,-135.47C2405.75,-124.49 2438.58,-108.79 2462.15,-97.53"/>
<polygon fill="midnightblue" stroke="midnightblue" points="2381.07,-132.4 2373.56,-139.87 2384.09,-138.71 2381.07,-132.4"/>
</g>
</g>
</svg>
