<?xml version="1.0" encoding="UTF-8" standalone="no"?>
<!DOCTYPE svg PUBLIC "-//W3C//DTD SVG 1.1//EN"
 "http://www.w3.org/Graphics/SVG/1.1/DTD/svg11.dtd">
<!-- Generated by graphviz version 2.50.0 (20211204.2007)
 -->
<!-- Title: bwidgets/generics/bwColor.cc Pages: 1 -->
<svg width="282pt" height="84pt"
 viewBox="0.00 0.00 281.50 84.00" xmlns="http://www.w3.org/2000/svg" xmlns:xlink="http://www.w3.org/1999/xlink">
<g id="graph0" class="graph" transform="scale(1 1) rotate(0) translate(4 80)">
<title>bwidgets/generics/bwColor.cc</title>
<!-- Node1 -->
<g id="node1" class="node">
<title>Node1</title>
<g id="a_node1"><a xlink:title=" ">
<polygon fill="#bfbfbf" stroke="black" points="52,-56.5 52,-75.5 199,-75.5 199,-56.5 52,-56.5"/>
<text text-anchor="middle" x="125.5" y="-63.5" font-family="Helvetica,sans-Serif" font-size="10.00">bwidgets/generics/bwColor.cc</text>
</a>
</g>
</g>
<!-- Node2 -->
<g id="node2" class="node">
<title>Node2</title>
<g id="a_node2"><a xlink:title=" ">
<polygon fill="none" stroke="#bfbfbf" points="0,-0.5 0,-19.5 49,-19.5 49,-0.5 0,-0.5"/>
<text text-anchor="middle" x="24.5" y="-7.5" font-family="Helvetica,sans-Serif" font-size="10.00">cassert</text>
</a>
</g>
</g>
<!-- Node1&#45;&gt;Node2 -->
<g id="edge1" class="edge">
<title>Node1&#45;&gt;Node2</title>
<path fill="none" stroke="midnightblue" d="M109.27,-56.32C93.15,-47.7 68.2,-34.36 49.54,-24.39"/>
<polygon fill="midnightblue" stroke="midnightblue" points="51.16,-21.28 40.69,-19.65 47.86,-27.46 51.16,-21.28"/>
</g>
<!-- Node3 -->
<g id="node3" class="node">
<title>Node3</title>
<g id="a_node3"><a xlink:title=" ">
<polygon fill="none" stroke="#bfbfbf" points="67.5,-0.5 67.5,-19.5 111.5,-19.5 111.5,-0.5 67.5,-0.5"/>
<text text-anchor="middle" x="89.5" y="-7.5" font-family="Helvetica,sans-Serif" font-size="10.00">cmath</text>
</a>
</g>
</g>
<!-- Node1&#45;&gt;Node3 -->
<g id="edge2" class="edge">
<title>Node1&#45;&gt;Node3</title>
<path fill="none" stroke="midnightblue" d="M119.56,-56.08C114.52,-48.53 107.16,-37.49 100.99,-28.23"/>
<polygon fill="midnightblue" stroke="midnightblue" points="103.79,-26.13 95.33,-19.75 97.97,-30.01 103.79,-26.13"/>
</g>
<!-- Node4 -->
<g id="node4" class="node">
<title>Node4</title>
<g id="a_node4"><a xlink:href="bwRange_8h.html" target="_top" xlink:title=" ">
<polygon fill="none" stroke="black" points="129.5,-0.5 129.5,-19.5 195.5,-19.5 195.5,-0.5 129.5,-0.5"/>
<text text-anchor="middle" x="162.5" y="-7.5" font-family="Helvetica,sans-Serif" font-size="10.00">bwRange.h</text>
</a>
</g>
</g>
<!-- Node1&#45;&gt;Node4 -->
<g id="edge3" class="edge">
<title>Node1&#45;&gt;Node4</title>
<path fill="none" stroke="midnightblue" d="M131.61,-56.08C136.78,-48.53 144.35,-37.49 150.69,-28.23"/>
<polygon fill="midnightblue" stroke="midnightblue" points="153.74,-29.98 156.5,-19.75 147.96,-26.02 153.74,-29.98"/>
</g>
<!-- Node5 -->
<g id="node5" class="node">
<title>Node5</title>
<g id="a_node5"><a xlink:href="bwColor_8h.html" target="_top" xlink:title=" ">
<polygon fill="none" stroke="black" points="213.5,-0.5 213.5,-19.5 273.5,-19.5 273.5,-0.5 213.5,-0.5"/>
<text text-anchor="middle" x="243.5" y="-7.5" font-family="Helvetica,sans-Serif" font-size="10.00">bwColor.h</text>
</a>
</g>
</g>
<!-- Node1&#45;&gt;Node5 -->
<g id="edge4" class="edge">
<title>Node1&#45;&gt;Node5</title>
<path fill="none" stroke="midnightblue" d="M144.2,-56.44C163.44,-47.64 193.65,-33.81 215.7,-23.72"/>
<polygon fill="midnightblue" stroke="midnightblue" points="217.25,-26.86 224.89,-19.52 214.34,-20.5 217.25,-26.86"/>
</g>
</g>
</svg>
