<?xml version="1.0" encoding="UTF-8" standalone="no"?>
<!DOCTYPE svg PUBLIC "-//W3C//DTD SVG 1.1//EN"
 "http://www.w3.org/Graphics/SVG/1.1/DTD/svg11.dtd">
<!-- Generated by graphviz version 2.50.0 (20211204.2007)
 -->
<!-- Title: bwidgets/generics/bwDistance.h Pages: 1 -->
<svg width="2834pt" height="419pt"
 viewBox="0.00 0.00 2834.20 419.00" xmlns="http://www.w3.org/2000/svg" xmlns:xlink="http://www.w3.org/1999/xlink">
<g id="graph0" class="graph" transform="scale(1 1) rotate(0) translate(4 415)">
<title>bwidgets/generics/bwDistance.h</title>
<!-- Node1 -->
<g id="node1" class="node">
<title>Node1</title>
<g id="a_node1"><a xlink:title=" ">
<polygon fill="#bfbfbf" stroke="black" points="1709.7,-391.5 1709.7,-410.5 1867.7,-410.5 1867.7,-391.5 1709.7,-391.5"/>
<text text-anchor="middle" x="1788.7" y="-398.5" font-family="Helvetica,sans-Serif" font-size="10.00">bwidgets/generics/bwDistance.h</text>
</a>
</g>
</g>
<!-- Node2 -->
<g id="node2" class="node">
<title>Node2</title>
<g id="a_node2"><a xlink:href="bwEvent_8h.html" target="_top" xlink:title=" ">
<polygon fill="none" stroke="black" points="1990.2,-274 1990.2,-293 2095.2,-293 2095.2,-274 1990.2,-274"/>
<text text-anchor="middle" x="2042.7" y="-281" font-family="Helvetica,sans-Serif" font-size="10.00">bwidgets/bwEvent.h</text>
</a>
</g>
</g>
<!-- Node1&#45;&gt;Node2 -->
<g id="edge1" class="edge">
<title>Node1&#45;&gt;Node2</title>
<path fill="none" stroke="midnightblue" d="M1817.15,-387.06C1869.45,-363.28 1979.53,-313.23 2023.74,-293.12"/>
<polygon fill="midnightblue" stroke="midnightblue" points="1815.45,-383.99 1807.8,-391.32 1818.35,-390.37 1815.45,-383.99"/>
</g>
<!-- Node20 -->
<g id="node20" class="node">
<title>Node20</title>
<g id="a_node20"><a xlink:href="bwWidget_8h.html" target="_top" xlink:title=" ">
<polygon fill="none" stroke="black" points="1664.2,-335.5 1664.2,-354.5 1811.2,-354.5 1811.2,-335.5 1664.2,-335.5"/>
<text text-anchor="middle" x="1737.7" y="-342.5" font-family="Helvetica,sans-Serif" font-size="10.00">bwidgets/widgets/bwWidget.h</text>
</a>
</g>
</g>
<!-- Node1&#45;&gt;Node20 -->
<g id="edge22" class="edge">
<title>Node1&#45;&gt;Node20</title>
<path fill="none" stroke="midnightblue" d="M1773.33,-383.72C1764.34,-374.2 1753.35,-362.56 1745.97,-354.75"/>
<polygon fill="midnightblue" stroke="midnightblue" points="1770.87,-386.22 1780.28,-391.08 1775.96,-381.41 1770.87,-386.22"/>
</g>
<!-- Node3 -->
<g id="node3" class="node">
<title>Node3</title>
<g id="a_node3"><a xlink:href="bwEvent_8cc.html" target="_top" xlink:title=" ">
<polygon fill="none" stroke="black" points="2184.7,-207 2184.7,-226 2294.7,-226 2294.7,-207 2184.7,-207"/>
<text text-anchor="middle" x="2239.7" y="-214" font-family="Helvetica,sans-Serif" font-size="10.00">bwidgets/bwEvent.cc</text>
</a>
</g>
</g>
<!-- Node2&#45;&gt;Node3 -->
<g id="edge2" class="edge">
<title>Node2&#45;&gt;Node3</title>
<path fill="none" stroke="midnightblue" d="M2078.77,-270.6C2117.83,-257.71 2179.17,-237.47 2213.75,-226.06"/>
<polygon fill="midnightblue" stroke="midnightblue" points="2077.26,-267.41 2068.86,-273.87 2079.46,-274.06 2077.26,-267.41"/>
</g>
<!-- Node4 -->
<g id="node4" class="node">
<title>Node4</title>
<g id="a_node4"><a xlink:href="bwEventDispatcher_8cc.html" target="_top" xlink:title=" ">
<polygon fill="none" stroke="black" points="2669.2,-73 2669.2,-92 2826.2,-92 2826.2,-73 2669.2,-73"/>
<text text-anchor="middle" x="2747.7" y="-80" font-family="Helvetica,sans-Serif" font-size="10.00">bwidgets/bwEventDispatcher.cc</text>
</a>
</g>
</g>
<!-- Node2&#45;&gt;Node4 -->
<g id="edge3" class="edge">
<title>Node2&#45;&gt;Node4</title>
<path fill="none" stroke="midnightblue" d="M2105.54,-280.46C2252.08,-275.27 2607.61,-259.91 2653.7,-232 2709.04,-198.5 2737.19,-118.64 2745.23,-92.18"/>
<polygon fill="midnightblue" stroke="midnightblue" points="2105.22,-276.97 2095.35,-280.82 2105.47,-283.97 2105.22,-276.97"/>
</g>
<!-- Node5 -->
<g id="node5" class="node">
<title>Node5</title>
<g id="a_node5"><a xlink:href="bwEventDispatcher_8h.html" target="_top" xlink:title=" ">
<polygon fill="none" stroke="black" points="2492.7,-207 2492.7,-226 2644.7,-226 2644.7,-207 2492.7,-207"/>
<text text-anchor="middle" x="2568.7" y="-214" font-family="Helvetica,sans-Serif" font-size="10.00">bwidgets/bwEventDispatcher.h</text>
</a>
</g>
</g>
<!-- Node2&#45;&gt;Node5 -->
<g id="edge4" class="edge">
<title>Node2&#45;&gt;Node5</title>
<path fill="none" stroke="midnightblue" d="M2105.73,-274.71C2204.99,-262.45 2397,-238.72 2499.79,-226.02"/>
<polygon fill="midnightblue" stroke="midnightblue" points="2105.04,-271.27 2095.55,-275.97 2105.9,-278.22 2105.04,-271.27"/>
</g>
<!-- Node9 -->
<g id="node9" class="node">
<title>Node9</title>
<g id="a_node9"><a xlink:href="bwScrollView_8cc.html" target="_top" xlink:title=" ">
<polygon fill="none" stroke="black" points="1995.2,-0.5 1995.2,-30.5 2128.2,-30.5 2128.2,-0.5 1995.2,-0.5"/>
<text text-anchor="start" x="2003.2" y="-18.5" font-family="Helvetica,sans-Serif" font-size="10.00">bwidgets/widgets/bwScroll</text>
<text text-anchor="middle" x="2061.7" y="-7.5" font-family="Helvetica,sans-Serif" font-size="10.00">View.cc</text>
</a>
</g>
</g>
<!-- Node2&#45;&gt;Node9 -->
<g id="edge20" class="edge">
<title>Node2&#45;&gt;Node9</title>
<path fill="none" stroke="midnightblue" d="M2067.66,-268.68C2081.7,-259.8 2098.59,-247.11 2109.7,-232 2128.45,-206.52 2128.29,-196.16 2133.7,-165 2136.06,-151.43 2140.1,-146.2 2133.7,-134 2120.66,-109.1 2097.64,-121.15 2081.7,-98 2067.58,-77.48 2063.4,-48.01 2062.18,-30.7"/>
<polygon fill="midnightblue" stroke="midnightblue" points="2065.68,-265.78 2058.93,-273.95 2069.3,-271.77 2065.68,-265.78"/>
</g>
<!-- Node13 -->
<g id="node13" class="node">
<title>Node13</title>
<g id="a_node13"><a xlink:href="bwAbstractButton_8cc.html" target="_top" xlink:title=" ">
<polygon fill="none" stroke="black" points="900.2,-201.5 900.2,-231.5 1045.2,-231.5 1045.2,-201.5 900.2,-201.5"/>
<text text-anchor="start" x="908.2" y="-219.5" font-family="Helvetica,sans-Serif" font-size="10.00">bwidgets/widgets/bwAbstract</text>
<text text-anchor="middle" x="972.7" y="-208.5" font-family="Helvetica,sans-Serif" font-size="10.00">Button.cc</text>
</a>
</g>
</g>
<!-- Node2&#45;&gt;Node13 -->
<g id="edge14" class="edge">
<title>Node2&#45;&gt;Node13</title>
<path fill="none" stroke="midnightblue" d="M1979.7,-274.88C1957.04,-272.36 1931.25,-269.76 1907.7,-268 1528.87,-239.7 1431.32,-273.57 1053.7,-232 1051.01,-231.7 1048.26,-231.37 1045.49,-231.01"/>
<polygon fill="midnightblue" stroke="midnightblue" points="1979.55,-278.38 1989.88,-276.02 1980.34,-271.43 1979.55,-278.38"/>
</g>
<!-- Node14 -->
<g id="node14" class="node">
<title>Node14</title>
<g id="a_node14"><a xlink:href="bwCheckbox_8cc.html" target="_top" xlink:title=" ">
<polygon fill="none" stroke="black" points="1442.7,-140 1442.7,-159 1608.7,-159 1608.7,-140 1442.7,-140"/>
<text text-anchor="middle" x="1525.7" y="-147" font-family="Helvetica,sans-Serif" font-size="10.00">bwidgets/widgets/bwCheckbox.cc</text>
</a>
</g>
</g>
<!-- Node2&#45;&gt;Node14 -->
<g id="edge15" class="edge">
<title>Node2&#45;&gt;Node14</title>
<path fill="none" stroke="midnightblue" d="M2024.39,-267.59C2012.04,-257.54 1995.39,-243.97 1980.7,-232 1963.81,-218.23 1962.77,-209.51 1942.7,-201 1817.86,-148.03 1774.3,-181.56 1639.7,-165 1624.26,-163.1 1607.64,-161.01 1592,-159.03"/>
<polygon fill="midnightblue" stroke="midnightblue" points="2022.21,-270.32 2032.17,-273.92 2026.63,-264.9 2022.21,-270.32"/>
</g>
<!-- Node15 -->
<g id="node15" class="node">
<title>Node15</title>
<g id="a_node15"><a xlink:href="bwNumberSlider_8cc.html" target="_top" xlink:title=" ">
<polygon fill="none" stroke="black" points="1981.2,-134.5 1981.2,-164.5 2124.2,-164.5 2124.2,-134.5 1981.2,-134.5"/>
<text text-anchor="start" x="1989.2" y="-152.5" font-family="Helvetica,sans-Serif" font-size="10.00">bwidgets/widgets/bwNumber</text>
<text text-anchor="middle" x="2052.7" y="-141.5" font-family="Helvetica,sans-Serif" font-size="10.00">Slider.cc</text>
</a>
</g>
</g>
<!-- Node2&#45;&gt;Node15 -->
<g id="edge16" class="edge">
<title>Node2&#45;&gt;Node15</title>
<path fill="none" stroke="midnightblue" d="M2064.99,-267.6C2076.17,-258.73 2088.61,-246.41 2094.7,-232 2100.07,-219.31 2099.39,-213.96 2094.7,-201 2089.59,-186.84 2078.58,-173.86 2069.12,-164.6"/>
<polygon fill="midnightblue" stroke="midnightblue" points="2062.75,-264.91 2056.81,-273.68 2066.92,-270.52 2062.75,-264.91"/>
</g>
<!-- Node16 -->
<g id="node16" class="node">
<title>Node16</title>
<g id="a_node16"><a xlink:href="bwPanel_8cc.html" target="_top" xlink:title=" ">
<polygon fill="none" stroke="black" points="1811.7,-140 1811.7,-159 1957.7,-159 1957.7,-140 1811.7,-140"/>
<text text-anchor="middle" x="1884.7" y="-147" font-family="Helvetica,sans-Serif" font-size="10.00">bwidgets/widgets/bwPanel.cc</text>
</a>
</g>
</g>
<!-- Node2&#45;&gt;Node16 -->
<g id="edge17" class="edge">
<title>Node2&#45;&gt;Node16</title>
<path fill="none" stroke="midnightblue" d="M2041.85,-263.67C2040.06,-245.46 2034.66,-218.19 2018.7,-201 1997.9,-178.59 1966.15,-166.06 1938.78,-159.08"/>
<polygon fill="midnightblue" stroke="midnightblue" points="2038.36,-263.93 2042.57,-273.66 2045.34,-263.43 2038.36,-263.93"/>
</g>
<!-- Node17 -->
<g id="node17" class="node">
<title>Node17</title>
<g id="a_node17"><a xlink:href="bwRadioButton_8cc.html" target="_top" xlink:title=" ">
<polygon fill="none" stroke="black" points="1648.7,-134.5 1648.7,-164.5 1782.7,-164.5 1782.7,-134.5 1648.7,-134.5"/>
<text text-anchor="start" x="1656.7" y="-152.5" font-family="Helvetica,sans-Serif" font-size="10.00">bwidgets/widgets/bwRadio</text>
<text text-anchor="middle" x="1715.7" y="-141.5" font-family="Helvetica,sans-Serif" font-size="10.00">Button.cc</text>
</a>
</g>
</g>
<!-- Node2&#45;&gt;Node17 -->
<g id="edge18" class="edge">
<title>Node2&#45;&gt;Node17</title>
<path fill="none" stroke="midnightblue" d="M2034.28,-264.88C2024.26,-245.94 2005.69,-216.47 1980.7,-201 1972.26,-195.77 1858.5,-175.27 1782.8,-162.05"/>
<polygon fill="midnightblue" stroke="midnightblue" points="2031.21,-266.58 2038.84,-273.93 2037.47,-263.43 2031.21,-266.58"/>
</g>
<!-- Node18 -->
<g id="node18" class="node">
<title>Node18</title>
<g id="a_node18"><a xlink:href="bwScrollBar_8cc.html" target="_top" xlink:title=" ">
<polygon fill="none" stroke="black" points="1247.2,-134.5 1247.2,-164.5 1380.2,-164.5 1380.2,-134.5 1247.2,-134.5"/>
<text text-anchor="start" x="1255.2" y="-152.5" font-family="Helvetica,sans-Serif" font-size="10.00">bwidgets/widgets/bwScroll</text>
<text text-anchor="middle" x="1313.7" y="-141.5" font-family="Helvetica,sans-Serif" font-size="10.00">Bar.cc</text>
</a>
</g>
</g>
<!-- Node2&#45;&gt;Node18 -->
<g id="edge19" class="edge">
<title>Node2&#45;&gt;Node18</title>
<path fill="none" stroke="midnightblue" d="M2012.24,-269.87C1991.74,-260.72 1964.57,-247.31 1942.7,-232 1926.22,-220.46 1928.12,-209.11 1909.7,-201 1812.62,-158.25 1539.28,-175.37 1433.7,-165 1416.37,-163.3 1397.66,-161.18 1380.29,-159.08"/>
<polygon fill="midnightblue" stroke="midnightblue" points="2010.86,-273.09 2021.42,-273.88 2013.66,-266.67 2010.86,-273.09"/>
</g>
<!-- Node19 -->
<g id="node19" class="node">
<title>Node19</title>
<g id="a_node19"><a xlink:href="bwTextBox_8cc.html" target="_top" xlink:title=" ">
<polygon fill="none" stroke="black" points="1742.7,-207 1742.7,-226 1900.7,-226 1900.7,-207 1742.7,-207"/>
<text text-anchor="middle" x="1821.7" y="-214" font-family="Helvetica,sans-Serif" font-size="10.00">bwidgets/widgets/bwTextBox.cc</text>
</a>
</g>
</g>
<!-- Node2&#45;&gt;Node19 -->
<g id="edge21" class="edge">
<title>Node2&#45;&gt;Node19</title>
<path fill="none" stroke="midnightblue" d="M2003.64,-271.01C1959.9,-258.15 1890.02,-237.59 1850.82,-226.06"/>
<polygon fill="midnightblue" stroke="midnightblue" points="2002.78,-274.4 2013.36,-273.87 2004.75,-267.69 2002.78,-274.4"/>
</g>
<!-- Node5&#45;&gt;Node4 -->
<g id="edge5" class="edge">
<title>Node5&#45;&gt;Node4</title>
<path fill="none" stroke="midnightblue" d="M2588.61,-200.82C2626.13,-173.15 2706.26,-114.06 2736.15,-92.02"/>
<polygon fill="midnightblue" stroke="midnightblue" points="2586.42,-198.09 2580.45,-206.84 2590.57,-203.72 2586.42,-198.09"/>
</g>
<!-- Node6 -->
<g id="node6" class="node">
<title>Node6</title>
<g id="a_node6"><a xlink:href="ScreenGraph_8h.html" target="_top" xlink:title=" ">
<polygon fill="none" stroke="black" points="2510.2,-134.5 2510.2,-164.5 2627.2,-164.5 2627.2,-134.5 2510.2,-134.5"/>
<text text-anchor="start" x="2518.2" y="-152.5" font-family="Helvetica,sans-Serif" font-size="10.00">bwidgets/screen_graph</text>
<text text-anchor="middle" x="2568.7" y="-141.5" font-family="Helvetica,sans-Serif" font-size="10.00">/ScreenGraph.h</text>
</a>
</g>
</g>
<!-- Node5&#45;&gt;Node6 -->
<g id="edge6" class="edge">
<title>Node5&#45;&gt;Node6</title>
<path fill="none" stroke="midnightblue" d="M2568.7,-196.41C2568.7,-186.22 2568.7,-173.9 2568.7,-164.59"/>
<polygon fill="midnightblue" stroke="midnightblue" points="2565.2,-196.73 2568.7,-206.73 2572.2,-196.73 2565.2,-196.73"/>
</g>
<!-- Node6&#45;&gt;Node4 -->
<g id="edge7" class="edge">
<title>Node6&#45;&gt;Node4</title>
<path fill="none" stroke="midnightblue" d="M2617.05,-130.95C2651.81,-118.32 2697.17,-101.85 2724.28,-92.01"/>
<polygon fill="midnightblue" stroke="midnightblue" points="2615.75,-127.69 2607.54,-134.4 2618.14,-134.27 2615.75,-127.69"/>
</g>
<!-- Node7 -->
<g id="node7" class="node">
<title>Node7</title>
<g id="a_node7"><a xlink:href="Builder_8h.html" target="_top" xlink:title=" ">
<polygon fill="none" stroke="black" points="2264.2,-67.5 2264.2,-97.5 2381.2,-97.5 2381.2,-67.5 2264.2,-67.5"/>
<text text-anchor="start" x="2272.2" y="-85.5" font-family="Helvetica,sans-Serif" font-size="10.00">bwidgets/screen_graph</text>
<text text-anchor="middle" x="2322.7" y="-74.5" font-family="Helvetica,sans-Serif" font-size="10.00">/Builder.h</text>
</a>
</g>
</g>
<!-- Node6&#45;&gt;Node7 -->
<g id="edge8" class="edge">
<title>Node6&#45;&gt;Node7</title>
<path fill="none" stroke="midnightblue" d="M2505.94,-131.92C2465.8,-121.31 2414.29,-107.7 2376.11,-97.61"/>
<polygon fill="midnightblue" stroke="midnightblue" points="2505.07,-135.31 2515.63,-134.48 2506.85,-128.54 2505.07,-135.31"/>
</g>
<!-- Node10 -->
<g id="node10" class="node">
<title>Node10</title>
<g id="a_node10"><a xlink:href="Drawer_8cc.html" target="_top" xlink:title=" ">
<polygon fill="none" stroke="black" points="2534.2,-67.5 2534.2,-97.5 2651.2,-97.5 2651.2,-67.5 2534.2,-67.5"/>
<text text-anchor="start" x="2542.2" y="-85.5" font-family="Helvetica,sans-Serif" font-size="10.00">bwidgets/screen_graph</text>
<text text-anchor="middle" x="2592.7" y="-74.5" font-family="Helvetica,sans-Serif" font-size="10.00">/Drawer.cc</text>
</a>
</g>
</g>
<!-- Node6&#45;&gt;Node10 -->
<g id="edge11" class="edge">
<title>Node6&#45;&gt;Node10</title>
<path fill="none" stroke="midnightblue" d="M2577.38,-124.99C2580.78,-115.8 2584.55,-105.58 2587.51,-97.58"/>
<polygon fill="midnightblue" stroke="midnightblue" points="2574.09,-123.8 2573.91,-134.4 2580.66,-126.23 2574.09,-123.8"/>
</g>
<!-- Node11 -->
<g id="node11" class="node">
<title>Node11</title>
<g id="a_node11"><a xlink:href="Iterators_8h.html" target="_top" xlink:title=" ">
<polygon fill="none" stroke="black" points="2399.2,-67.5 2399.2,-97.5 2516.2,-97.5 2516.2,-67.5 2399.2,-67.5"/>
<text text-anchor="start" x="2407.2" y="-85.5" font-family="Helvetica,sans-Serif" font-size="10.00">bwidgets/screen_graph</text>
<text text-anchor="middle" x="2457.7" y="-74.5" font-family="Helvetica,sans-Serif" font-size="10.00">/Iterators.h</text>
</a>
</g>
</g>
<!-- Node6&#45;&gt;Node11 -->
<g id="edge12" class="edge">
<title>Node6&#45;&gt;Node11</title>
<path fill="none" stroke="midnightblue" d="M2535.91,-129.3C2518.54,-119.12 2497.59,-106.85 2481.74,-97.58"/>
<polygon fill="midnightblue" stroke="midnightblue" points="2534.22,-132.36 2544.62,-134.4 2537.76,-126.32 2534.22,-132.36"/>
</g>
<!-- Node8 -->
<g id="node8" class="node">
<title>Node8</title>
<g id="a_node8"><a xlink:href="Builder_8cc.html" target="_top" xlink:title=" ">
<polygon fill="none" stroke="black" points="2264.2,-0.5 2264.2,-30.5 2381.2,-30.5 2381.2,-0.5 2264.2,-0.5"/>
<text text-anchor="start" x="2272.2" y="-18.5" font-family="Helvetica,sans-Serif" font-size="10.00">bwidgets/screen_graph</text>
<text text-anchor="middle" x="2322.7" y="-7.5" font-family="Helvetica,sans-Serif" font-size="10.00">/Builder.cc</text>
</a>
</g>
</g>
<!-- Node7&#45;&gt;Node8 -->
<g id="edge9" class="edge">
<title>Node7&#45;&gt;Node8</title>
<path fill="none" stroke="midnightblue" d="M2322.7,-57.11C2322.7,-48.15 2322.7,-38.32 2322.7,-30.58"/>
<polygon fill="midnightblue" stroke="midnightblue" points="2319.2,-57.4 2322.7,-67.4 2326.2,-57.4 2319.2,-57.4"/>
</g>
<!-- Node7&#45;&gt;Node9 -->
<g id="edge10" class="edge">
<title>Node7&#45;&gt;Node9</title>
<path fill="none" stroke="midnightblue" d="M2256.66,-65.05C2213.99,-54.43 2159.04,-40.74 2118.37,-30.61"/>
<polygon fill="midnightblue" stroke="midnightblue" points="2255.84,-68.46 2266.39,-67.48 2257.53,-61.66 2255.84,-68.46"/>
</g>
<!-- Node12 -->
<g id="node12" class="node">
<title>Node12</title>
<g id="a_node12"><a xlink:href="Iterators_8cc.html" target="_top" xlink:title=" ">
<polygon fill="none" stroke="black" points="2399.2,-0.5 2399.2,-30.5 2516.2,-30.5 2516.2,-0.5 2399.2,-0.5"/>
<text text-anchor="start" x="2407.2" y="-18.5" font-family="Helvetica,sans-Serif" font-size="10.00">bwidgets/screen_graph</text>
<text text-anchor="middle" x="2457.7" y="-7.5" font-family="Helvetica,sans-Serif" font-size="10.00">/Iterators.cc</text>
</a>
</g>
</g>
<!-- Node11&#45;&gt;Node12 -->
<g id="edge13" class="edge">
<title>Node11&#45;&gt;Node12</title>
<path fill="none" stroke="midnightblue" d="M2457.7,-57.11C2457.7,-48.15 2457.7,-38.32 2457.7,-30.58"/>
<polygon fill="midnightblue" stroke="midnightblue" points="2454.2,-57.4 2457.7,-67.4 2461.2,-57.4 2454.2,-57.4"/>
</g>
<!-- Node20&#45;&gt;Node7 -->
<g id="edge23" class="edge">
<title>Node20&#45;&gt;Node7</title>
<path fill="none" stroke="midnightblue" d="M1821.47,-340.04C1963.89,-331.36 2243.71,-305.19 2303.7,-232 2336,-192.6 2329.98,-126.48 2325.38,-97.66"/>
<polygon fill="midnightblue" stroke="midnightblue" points="1821.23,-336.55 1811.45,-340.63 1821.64,-343.53 1821.23,-336.55"/>
</g>
<!-- Node21 -->
<g id="node21" class="node">
<title>Node21</title>
<g id="a_node21"><a xlink:href="Node_8h.html" target="_top" xlink:title=" ">
<polygon fill="none" stroke="black" points="2351.2,-134.5 2351.2,-164.5 2468.2,-164.5 2468.2,-134.5 2351.2,-134.5"/>
<text text-anchor="start" x="2359.2" y="-152.5" font-family="Helvetica,sans-Serif" font-size="10.00">bwidgets/screen_graph</text>
<text text-anchor="middle" x="2409.7" y="-141.5" font-family="Helvetica,sans-Serif" font-size="10.00">/Node.h</text>
</a>
</g>
</g>
<!-- Node20&#45;&gt;Node21 -->
<g id="edge24" class="edge">
<title>Node20&#45;&gt;Node21</title>
<path fill="none" stroke="midnightblue" d="M1821.83,-342.27C1976.73,-338.41 2295.08,-327.14 2336.7,-299 2384.07,-266.98 2401.91,-195.01 2407.5,-164.55"/>
<polygon fill="midnightblue" stroke="midnightblue" points="1821.33,-338.78 1811.42,-342.52 1821.5,-345.78 1821.33,-338.78"/>
</g>
<!-- Node23 -->
<g id="node23" class="node">
<title>Node23</title>
<g id="a_node23"><a xlink:href="bwAbstractButton_8h.html" target="_top" xlink:title=" ">
<polygon fill="none" stroke="black" points="375.2,-268.5 375.2,-298.5 520.2,-298.5 520.2,-268.5 375.2,-268.5"/>
<text text-anchor="start" x="383.2" y="-286.5" font-family="Helvetica,sans-Serif" font-size="10.00">bwidgets/widgets/bwAbstract</text>
<text text-anchor="middle" x="447.7" y="-275.5" font-family="Helvetica,sans-Serif" font-size="10.00">Button.h</text>
</a>
</g>
</g>
<!-- Node20&#45;&gt;Node23 -->
<g id="edge31" class="edge">
<title>Node20&#45;&gt;Node23</title>
<path fill="none" stroke="midnightblue" d="M1654.07,-340.45C1481.47,-333.08 1073.26,-315.43 730.7,-299 659.21,-295.57 577.56,-291.36 520.4,-288.36"/>
<polygon fill="midnightblue" stroke="midnightblue" points="1653.96,-343.95 1664.1,-340.88 1654.26,-336.95 1653.96,-343.95"/>
</g>
<!-- Node33 -->
<g id="node33" class="node">
<title>Node33</title>
<g id="a_node33"><a xlink:href="bwContainerWidget_8h.html" target="_top" xlink:title=" ">
<polygon fill="none" stroke="black" points="1378.7,-268.5 1378.7,-298.5 1528.7,-298.5 1528.7,-268.5 1378.7,-268.5"/>
<text text-anchor="start" x="1386.7" y="-286.5" font-family="Helvetica,sans-Serif" font-size="10.00">bwidgets/widgets/bwContainer</text>
<text text-anchor="middle" x="1453.7" y="-275.5" font-family="Helvetica,sans-Serif" font-size="10.00">Widget.h</text>
</a>
</g>
</g>
<!-- Node20&#45;&gt;Node33 -->
<g id="edge50" class="edge">
<title>Node20&#45;&gt;Node33</title>
<path fill="none" stroke="midnightblue" d="M1687.18,-333.41C1640.76,-323.69 1571.63,-309.21 1520.64,-298.52"/>
<polygon fill="midnightblue" stroke="midnightblue" points="1686.51,-336.85 1697.01,-335.48 1687.94,-330 1686.51,-336.85"/>
</g>
<!-- Node37 -->
<g id="node37" class="node">
<title>Node37</title>
<g id="a_node37"><a xlink:href="bwLabel_8h.html" target="_top" xlink:title=" ">
<polygon fill="none" stroke="black" points="739.7,-274 739.7,-293 879.7,-293 879.7,-274 739.7,-274"/>
<text text-anchor="middle" x="809.7" y="-281" font-family="Helvetica,sans-Serif" font-size="10.00">bwidgets/widgets/bwLabel.h</text>
</a>
</g>
</g>
<!-- Node20&#45;&gt;Node37 -->
<g id="edge59" class="edge">
<title>Node20&#45;&gt;Node37</title>
<path fill="none" stroke="midnightblue" d="M1654.11,-338.64C1473.14,-327.04 1047.86,-299.77 879.81,-288.99"/>
<polygon fill="midnightblue" stroke="midnightblue" points="1653.91,-342.13 1664.11,-339.28 1654.35,-335.15 1653.91,-342.13"/>
</g>
<!-- Node39 -->
<g id="node39" class="node">
<title>Node39</title>
<g id="a_node39"><a xlink:href="bwTextBox_8h.html" target="_top" xlink:title=" ">
<polygon fill="none" stroke="black" points="1576.7,-274 1576.7,-293 1728.7,-293 1728.7,-274 1576.7,-274"/>
<text text-anchor="middle" x="1652.7" y="-281" font-family="Helvetica,sans-Serif" font-size="10.00">bwidgets/widgets/bwTextBox.h</text>
</a>
</g>
</g>
<!-- Node20&#45;&gt;Node39 -->
<g id="edge62" class="edge">
<title>Node20&#45;&gt;Node39</title>
<path fill="none" stroke="midnightblue" d="M1717.15,-329.61C1700.8,-318.17 1678.48,-302.55 1664.86,-293.01"/>
<polygon fill="midnightblue" stroke="midnightblue" points="1715.33,-332.61 1725.53,-335.48 1719.34,-326.87 1715.33,-332.61"/>
</g>
<!-- Node41 -->
<g id="node41" class="node">
<title>Node41</title>
<g id="a_node41"><a xlink:href="bwWidget_8cc.html" target="_top" xlink:title=" ">
<polygon fill="none" stroke="black" points="1746.7,-274 1746.7,-293 1898.7,-293 1898.7,-274 1746.7,-274"/>
<text text-anchor="middle" x="1822.7" y="-281" font-family="Helvetica,sans-Serif" font-size="10.00">bwidgets/widgets/bwWidget.cc</text>
</a>
</g>
</g>
<!-- Node20&#45;&gt;Node41 -->
<g id="edge68" class="edge">
<title>Node20&#45;&gt;Node41</title>
<path fill="none" stroke="midnightblue" d="M1758.26,-329.61C1774.61,-318.17 1796.92,-302.55 1810.55,-293.01"/>
<polygon fill="midnightblue" stroke="midnightblue" points="1756.07,-326.87 1749.88,-335.48 1760.08,-332.61 1756.07,-326.87"/>
</g>
<!-- Node21&#45;&gt;Node4 -->
<g id="edge25" class="edge">
<title>Node21&#45;&gt;Node4</title>
<path fill="none" stroke="midnightblue" d="M2478.67,-135.24C2545.95,-122.3 2646.27,-103.01 2703.5,-92"/>
<polygon fill="midnightblue" stroke="midnightblue" points="2477.74,-131.85 2468.58,-137.18 2479.06,-138.73 2477.74,-131.85"/>
</g>
<!-- Node21&#45;&gt;Node7 -->
<g id="edge26" class="edge">
<title>Node21&#45;&gt;Node7</title>
<path fill="none" stroke="midnightblue" d="M2382.49,-128.17C2369.19,-118.23 2353.51,-106.51 2341.55,-97.58"/>
<polygon fill="midnightblue" stroke="midnightblue" points="2380.72,-131.21 2390.83,-134.4 2384.91,-125.61 2380.72,-131.21"/>
</g>
<!-- Node21&#45;&gt;Node9 -->
<g id="edge30" class="edge">
<title>Node21&#45;&gt;Node9</title>
<path fill="none" stroke="midnightblue" d="M2341.11,-131.68C2313.65,-123.51 2282.29,-112.32 2255.7,-98 2236.21,-87.5 2236.21,-77.48 2216.7,-67 2186.92,-50.99 2151.16,-38.92 2121.51,-30.6"/>
<polygon fill="midnightblue" stroke="midnightblue" points="2340.45,-135.13 2351.03,-134.55 2342.4,-128.41 2340.45,-135.13"/>
</g>
<!-- Node21&#45;&gt;Node10 -->
<g id="edge27" class="edge">
<title>Node21&#45;&gt;Node10</title>
<path fill="none" stroke="midnightblue" d="M2459.1,-130.96C2488.58,-120.48 2525.51,-107.37 2553.07,-97.58"/>
<polygon fill="midnightblue" stroke="midnightblue" points="2457.66,-127.75 2449.41,-134.4 2460.01,-134.35 2457.66,-127.75"/>
</g>
<!-- Node21&#45;&gt;Node11 -->
<g id="edge29" class="edge">
<title>Node21&#45;&gt;Node11</title>
<path fill="none" stroke="midnightblue" d="M2426.2,-126.16C2433.2,-116.68 2441.15,-105.92 2447.31,-97.58"/>
<polygon fill="midnightblue" stroke="midnightblue" points="2423.24,-124.27 2420.12,-134.4 2428.88,-128.43 2423.24,-124.27"/>
</g>
<!-- Node22 -->
<g id="node22" class="node">
<title>Node22</title>
<g id="a_node22"><a xlink:href="EventHandler_8cc.html" target="_top" xlink:title=" ">
<polygon fill="none" stroke="black" points="2090.2,-67.5 2090.2,-97.5 2207.2,-97.5 2207.2,-67.5 2090.2,-67.5"/>
<text text-anchor="start" x="2098.2" y="-85.5" font-family="Helvetica,sans-Serif" font-size="10.00">bwidgets/screen_graph</text>
<text text-anchor="middle" x="2148.7" y="-74.5" font-family="Helvetica,sans-Serif" font-size="10.00">/EventHandler.cc</text>
</a>
</g>
</g>
<!-- Node21&#45;&gt;Node22 -->
<g id="edge28" class="edge">
<title>Node21&#45;&gt;Node22</title>
<path fill="none" stroke="midnightblue" d="M2343.66,-132.05C2300.99,-121.43 2246.04,-107.74 2205.37,-97.61"/>
<polygon fill="midnightblue" stroke="midnightblue" points="2342.84,-135.46 2353.39,-134.48 2344.53,-128.66 2342.84,-135.46"/>
</g>
<!-- Node23&#45;&gt;Node13 -->
<g id="edge33" class="edge">
<title>Node23&#45;&gt;Node13</title>
<path fill="none" stroke="midnightblue" d="M530.44,-274.6C619.58,-265.74 765.5,-250.19 890.7,-232 893.71,-231.56 896.77,-231.1 899.86,-230.62"/>
<polygon fill="midnightblue" stroke="midnightblue" points="530,-271.13 520.4,-275.6 530.69,-278.1 530,-271.13"/>
</g>
<!-- Node24 -->
<g id="node24" class="node">
<title>Node24</title>
<g id="a_node24"><a xlink:href="bwStyleCSS_8cc.html" target="_top" xlink:title=" ">
<polygon fill="none" stroke="black" points="389.2,-67.5 389.2,-97.5 514.2,-97.5 514.2,-67.5 389.2,-67.5"/>
<text text-anchor="start" x="397.2" y="-85.5" font-family="Helvetica,sans-Serif" font-size="10.00">bwidgets/styling/bwStyle</text>
<text text-anchor="middle" x="451.7" y="-74.5" font-family="Helvetica,sans-Serif" font-size="10.00">CSS.cc</text>
</a>
</g>
</g>
<!-- Node23&#45;&gt;Node24 -->
<g id="edge32" class="edge">
<title>Node23&#45;&gt;Node24</title>
<path fill="none" stroke="midnightblue" d="M365.15,-278.52C247.72,-272 44.08,-257.19 21.7,-232 -7.22,-199.44 -7.24,-166.55 21.7,-134 45.68,-107.04 275.57,-92.11 389.01,-86.34"/>
<polygon fill="midnightblue" stroke="midnightblue" points="365.02,-282.02 375.19,-279.07 365.4,-275.03 365.02,-282.02"/>
</g>
<!-- Node25 -->
<g id="node25" class="node">
<title>Node25</title>
<g id="a_node25"><a xlink:href="bwCheckbox_8h.html" target="_top" xlink:title=" ">
<polygon fill="none" stroke="black" points="367.2,-207 367.2,-226 528.2,-226 528.2,-207 367.2,-207"/>
<text text-anchor="middle" x="447.7" y="-214" font-family="Helvetica,sans-Serif" font-size="10.00">bwidgets/widgets/bwCheckbox.h</text>
</a>
</g>
</g>
<!-- Node23&#45;&gt;Node25 -->
<g id="edge34" class="edge">
<title>Node23&#45;&gt;Node25</title>
<path fill="none" stroke="midnightblue" d="M447.7,-258.25C447.7,-247.02 447.7,-234.38 447.7,-226.19"/>
<polygon fill="midnightblue" stroke="midnightblue" points="444.2,-258.4 447.7,-268.4 451.2,-258.4 444.2,-258.4"/>
</g>
<!-- Node29 -->
<g id="node29" class="node">
<title>Node29</title>
<g id="a_node29"><a xlink:href="bwPushButton_8h.html" target="_top" xlink:title=" ">
<polygon fill="none" stroke="black" points="31.2,-207 31.2,-226 198.2,-226 198.2,-207 31.2,-207"/>
<text text-anchor="middle" x="114.7" y="-214" font-family="Helvetica,sans-Serif" font-size="10.00">bwidgets/widgets/bwPushButton.h</text>
</a>
</g>
</g>
<!-- Node23&#45;&gt;Node29 -->
<g id="edge40" class="edge">
<title>Node23&#45;&gt;Node29</title>
<path fill="none" stroke="midnightblue" d="M365.96,-266.54C300.43,-253.75 211,-236.3 158.4,-226.03"/>
<polygon fill="midnightblue" stroke="midnightblue" points="365.37,-270 375.86,-268.48 366.71,-263.12 365.37,-270"/>
</g>
<!-- Node31 -->
<g id="node31" class="node">
<title>Node31</title>
<g id="a_node31"><a xlink:href="bwRadioButton_8h.html" target="_top" xlink:title=" ">
<polygon fill="none" stroke="black" points="584.7,-201.5 584.7,-231.5 718.7,-231.5 718.7,-201.5 584.7,-201.5"/>
<text text-anchor="start" x="592.7" y="-219.5" font-family="Helvetica,sans-Serif" font-size="10.00">bwidgets/widgets/bwRadio</text>
<text text-anchor="middle" x="651.7" y="-208.5" font-family="Helvetica,sans-Serif" font-size="10.00">Button.h</text>
</a>
</g>
</g>
<!-- Node23&#45;&gt;Node31 -->
<g id="edge43" class="edge">
<title>Node23&#45;&gt;Node31</title>
<path fill="none" stroke="midnightblue" d="M501.66,-265.31C534.66,-254.79 576.36,-241.51 607.42,-231.61"/>
<polygon fill="midnightblue" stroke="midnightblue" points="500.18,-262.11 491.72,-268.48 502.31,-268.77 500.18,-262.11"/>
</g>
<!-- Node32 -->
<g id="node32" class="node">
<title>Node32</title>
<g id="a_node32"><a xlink:href="bwScrollBar_8h.html" target="_top" xlink:title=" ">
<polygon fill="none" stroke="black" points="216.2,-201.5 216.2,-231.5 349.2,-231.5 349.2,-201.5 216.2,-201.5"/>
<text text-anchor="start" x="224.2" y="-219.5" font-family="Helvetica,sans-Serif" font-size="10.00">bwidgets/widgets/bwScroll</text>
<text text-anchor="middle" x="282.7" y="-208.5" font-family="Helvetica,sans-Serif" font-size="10.00">Bar.h</text>
</a>
</g>
</g>
<!-- Node23&#45;&gt;Node32 -->
<g id="edge46" class="edge">
<title>Node23&#45;&gt;Node32</title>
<path fill="none" stroke="midnightblue" d="M402.47,-264.68C376.01,-254.26 343.07,-241.28 318.44,-231.58"/>
<polygon fill="midnightblue" stroke="midnightblue" points="401.31,-267.99 411.9,-268.4 403.88,-261.47 401.31,-267.99"/>
</g>
<!-- Node25&#45;&gt;Node14 -->
<g id="edge39" class="edge">
<title>Node25&#45;&gt;Node14</title>
<path fill="none" stroke="midnightblue" d="M525.27,-205.85C541.89,-204.02 559.36,-202.29 575.7,-201 936.72,-172.6 1028.6,-192.21 1389.7,-165 1410.54,-163.43 1433.12,-161.23 1453.79,-159.01"/>
<polygon fill="midnightblue" stroke="midnightblue" points="524.6,-202.4 515.05,-206.99 525.38,-209.36 524.6,-202.4"/>
</g>
<!-- Node26 -->
<g id="node26" class="node">
<title>Node26</title>
<g id="a_node26"><a xlink:href="builtin__widgets_8h.html" target="_top" xlink:title=" ">
<polygon fill="none" stroke="black" points="582.2,-134.5 582.2,-164.5 703.2,-164.5 703.2,-134.5 582.2,-134.5"/>
<text text-anchor="start" x="590.2" y="-152.5" font-family="Helvetica,sans-Serif" font-size="10.00">bwidgets/widgets/builtin</text>
<text text-anchor="middle" x="642.7" y="-141.5" font-family="Helvetica,sans-Serif" font-size="10.00">_widgets.h</text>
</a>
</g>
</g>
<!-- Node25&#45;&gt;Node26 -->
<g id="edge35" class="edge">
<title>Node25&#45;&gt;Node26</title>
<path fill="none" stroke="midnightblue" d="M483.31,-203.63C516.37,-192.61 565.62,-176.19 600.62,-164.53"/>
<polygon fill="midnightblue" stroke="midnightblue" points="481.98,-200.39 473.6,-206.87 484.19,-207.03 481.98,-200.39"/>
</g>
<!-- Node26&#45;&gt;Node24 -->
<g id="edge36" class="edge">
<title>Node26&#45;&gt;Node24</title>
<path fill="none" stroke="midnightblue" d="M591.55,-131.09C560.72,-120.6 521.96,-107.41 493.07,-97.58"/>
<polygon fill="midnightblue" stroke="midnightblue" points="590.67,-134.49 601.26,-134.4 592.92,-127.86 590.67,-134.49"/>
</g>
<!-- Node27 -->
<g id="node27" class="node">
<title>Node27</title>
<g id="a_node27"><a xlink:href="bwStyleClassic_8cc.html" target="_top" xlink:title=" ">
<polygon fill="none" stroke="black" points="701.7,-67.5 701.7,-97.5 817.7,-97.5 817.7,-67.5 701.7,-67.5"/>
<text text-anchor="start" x="709.7" y="-85.5" font-family="Helvetica,sans-Serif" font-size="10.00">bwidgets/styling/styles</text>
<text text-anchor="middle" x="759.7" y="-74.5" font-family="Helvetica,sans-Serif" font-size="10.00">/bwStyleClassic.cc</text>
</a>
</g>
</g>
<!-- Node26&#45;&gt;Node27 -->
<g id="edge37" class="edge">
<title>Node26&#45;&gt;Node27</title>
<path fill="none" stroke="midnightblue" d="M677.02,-129.44C695.38,-119.24 717.59,-106.9 734.37,-97.58"/>
<polygon fill="midnightblue" stroke="midnightblue" points="675.13,-126.48 668.09,-134.4 678.53,-132.6 675.13,-126.48"/>
</g>
<!-- Node28 -->
<g id="node28" class="node">
<title>Node28</title>
<g id="a_node28"><a xlink:href="bwStyleFlatGrey_8cc.html" target="_top" xlink:title=" ">
<polygon fill="none" stroke="black" points="567.7,-67.5 567.7,-97.5 683.7,-97.5 683.7,-67.5 567.7,-67.5"/>
<text text-anchor="start" x="575.7" y="-85.5" font-family="Helvetica,sans-Serif" font-size="10.00">bwidgets/styling/styles</text>
<text text-anchor="middle" x="625.7" y="-74.5" font-family="Helvetica,sans-Serif" font-size="10.00">/bwStyleFlatGrey.cc</text>
</a>
</g>
</g>
<!-- Node26&#45;&gt;Node28 -->
<g id="edge38" class="edge">
<title>Node26&#45;&gt;Node28</title>
<path fill="none" stroke="midnightblue" d="M636.48,-124.7C634.1,-115.59 631.46,-105.49 629.39,-97.58"/>
<polygon fill="midnightblue" stroke="midnightblue" points="633.1,-125.61 639.02,-134.4 639.87,-123.84 633.1,-125.61"/>
</g>
<!-- Node29&#45;&gt;Node26 -->
<g id="edge41" class="edge">
<title>Node29&#45;&gt;Node26</title>
<path fill="none" stroke="midnightblue" d="M176.26,-205.44C186.42,-203.88 196.85,-202.35 206.7,-201 340.34,-182.74 497.61,-165.59 581.95,-156.74"/>
<polygon fill="midnightblue" stroke="midnightblue" points="175.57,-202.01 166.23,-207 176.65,-208.92 175.57,-202.01"/>
</g>
<!-- Node30 -->
<g id="node30" class="node">
<title>Node30</title>
<g id="a_node30"><a xlink:href="bwPushButton_8cc.html" target="_top" xlink:title=" ">
<polygon fill="none" stroke="black" points="31.2,-140 31.2,-159 204.2,-159 204.2,-140 31.2,-140"/>
<text text-anchor="middle" x="117.7" y="-147" font-family="Helvetica,sans-Serif" font-size="10.00">bwidgets/widgets/bwPushButton.cc</text>
</a>
</g>
</g>
<!-- Node29&#45;&gt;Node30 -->
<g id="edge42" class="edge">
<title>Node29&#45;&gt;Node30</title>
<path fill="none" stroke="midnightblue" d="M115.58,-196.54C116.15,-184.17 116.87,-168.62 117.31,-159.13"/>
<polygon fill="midnightblue" stroke="midnightblue" points="112.07,-196.58 115.11,-206.73 119.07,-196.91 112.07,-196.58"/>
</g>
<!-- Node31&#45;&gt;Node17 -->
<g id="edge45" class="edge">
<title>Node31&#45;&gt;Node17</title>
<path fill="none" stroke="midnightblue" d="M728.71,-201.01C1122.72,-156.54 1226.83,-201.72 1617.7,-165 1627.72,-164.06 1638.28,-162.79 1648.6,-161.39"/>
<polygon fill="midnightblue" stroke="midnightblue" points="728.3,-197.54 718.76,-202.15 729.09,-204.49 728.3,-197.54"/>
</g>
<!-- Node31&#45;&gt;Node26 -->
<g id="edge44" class="edge">
<title>Node31&#45;&gt;Node26</title>
<path fill="none" stroke="midnightblue" d="M648.37,-191.4C647.12,-182.37 645.74,-172.41 644.65,-164.58"/>
<polygon fill="midnightblue" stroke="midnightblue" points="644.91,-191.97 649.75,-201.4 651.85,-191.01 644.91,-191.97"/>
</g>
<!-- Node32&#45;&gt;Node9 -->
<g id="edge49" class="edge">
<title>Node32&#45;&gt;Node9</title>
<path fill="none" stroke="midnightblue" d="M290.42,-191.37C302.94,-156.75 331.27,-94.16 379.7,-67 451.23,-26.89 1691.53,-18.29 1995.07,-16.78"/>
<polygon fill="midnightblue" stroke="midnightblue" points="287,-190.56 287.04,-201.15 293.62,-192.84 287,-190.56"/>
</g>
<!-- Node32&#45;&gt;Node18 -->
<g id="edge48" class="edge">
<title>Node32&#45;&gt;Node18</title>
<path fill="none" stroke="midnightblue" d="M359.28,-200.92C697.73,-160.16 1092.55,-152.37 1247.08,-150.86"/>
<polygon fill="midnightblue" stroke="midnightblue" points="358.79,-197.45 349.28,-202.13 359.63,-204.4 358.79,-197.45"/>
</g>
<!-- Node32&#45;&gt;Node26 -->
<g id="edge47" class="edge">
<title>Node32&#45;&gt;Node26</title>
<path fill="none" stroke="midnightblue" d="M359.41,-200.7C441.96,-185.46 526.58,-170.6 582.05,-160.96"/>
<polygon fill="midnightblue" stroke="midnightblue" points="358.55,-197.3 349.35,-202.56 359.82,-204.18 358.55,-197.3"/>
</g>
<!-- Node33&#45;&gt;Node21 -->
<g id="edge51" class="edge">
<title>Node33&#45;&gt;Node21</title>
<path fill="none" stroke="midnightblue" d="M1538.88,-271.46C1548.6,-270.26 1558.36,-269.09 1567.7,-268 1719.52,-250.36 1758.22,-252.3 1909.7,-232 2069.88,-210.53 2257.72,-177.89 2350.98,-161.18"/>
<polygon fill="midnightblue" stroke="midnightblue" points="1538.29,-268.01 1528.8,-272.71 1539.15,-274.95 1538.29,-268.01"/>
</g>
<!-- Node34 -->
<g id="node34" class="node">
<title>Node34</title>
<g id="a_node34"><a xlink:href="bwContainerWidget_8cc.html" target="_top" xlink:title=" ">
<polygon fill="none" stroke="black" points="1214.7,-201.5 1214.7,-231.5 1364.7,-231.5 1364.7,-201.5 1214.7,-201.5"/>
<text text-anchor="start" x="1222.7" y="-219.5" font-family="Helvetica,sans-Serif" font-size="10.00">bwidgets/widgets/bwContainer</text>
<text text-anchor="middle" x="1289.7" y="-208.5" font-family="Helvetica,sans-Serif" font-size="10.00">Widget.cc</text>
</a>
</g>
</g>
<!-- Node33&#45;&gt;Node34 -->
<g id="edge52" class="edge">
<title>Node33&#45;&gt;Node34</title>
<path fill="none" stroke="midnightblue" d="M1408.75,-264.68C1382.44,-254.26 1349.7,-241.28 1325.22,-231.58"/>
<polygon fill="midnightblue" stroke="midnightblue" points="1407.53,-267.97 1418.12,-268.4 1410.11,-261.46 1407.53,-267.97"/>
</g>
<!-- Node35 -->
<g id="node35" class="node">
<title>Node35</title>
<g id="a_node35"><a xlink:href="bwPanel_8h.html" target="_top" xlink:title=" ">
<polygon fill="none" stroke="black" points="1383.2,-207 1383.2,-226 1524.2,-226 1524.2,-207 1383.2,-207"/>
<text text-anchor="middle" x="1453.7" y="-214" font-family="Helvetica,sans-Serif" font-size="10.00">bwidgets/widgets/bwPanel.h</text>
</a>
</g>
</g>
<!-- Node33&#45;&gt;Node35 -->
<g id="edge53" class="edge">
<title>Node33&#45;&gt;Node35</title>
<path fill="none" stroke="midnightblue" d="M1453.7,-258.25C1453.7,-247.02 1453.7,-234.38 1453.7,-226.19"/>
<polygon fill="midnightblue" stroke="midnightblue" points="1450.2,-258.4 1453.7,-268.4 1457.2,-258.4 1450.2,-258.4"/>
</g>
<!-- Node36 -->
<g id="node36" class="node">
<title>Node36</title>
<g id="a_node36"><a xlink:href="bwScrollView_8h.html" target="_top" xlink:title=" ">
<polygon fill="none" stroke="black" points="1063.2,-201.5 1063.2,-231.5 1196.2,-231.5 1196.2,-201.5 1063.2,-201.5"/>
<text text-anchor="start" x="1071.2" y="-219.5" font-family="Helvetica,sans-Serif" font-size="10.00">bwidgets/widgets/bwScroll</text>
<text text-anchor="middle" x="1129.7" y="-208.5" font-family="Helvetica,sans-Serif" font-size="10.00">View.h</text>
</a>
</g>
</g>
<!-- Node33&#45;&gt;Node36 -->
<g id="edge56" class="edge">
<title>Node33&#45;&gt;Node36</title>
<path fill="none" stroke="midnightblue" d="M1373.83,-266.47C1319.31,-255.54 1247.92,-241.22 1196.44,-230.89"/>
<polygon fill="midnightblue" stroke="midnightblue" points="1373.31,-269.94 1383.8,-268.48 1374.68,-263.08 1373.31,-269.94"/>
</g>
<!-- Node35&#45;&gt;Node16 -->
<g id="edge55" class="edge">
<title>Node35&#45;&gt;Node16</title>
<path fill="none" stroke="midnightblue" d="M1521.62,-205.48C1589.89,-195.38 1698.12,-179.29 1791.7,-165 1804.14,-163.1 1817.51,-161.03 1830.13,-159.07"/>
<polygon fill="midnightblue" stroke="midnightblue" points="1520.82,-202.06 1511.43,-206.99 1521.84,-208.99 1520.82,-202.06"/>
</g>
<!-- Node35&#45;&gt;Node26 -->
<g id="edge54" class="edge">
<title>Node35&#45;&gt;Node26</title>
<path fill="none" stroke="midnightblue" d="M1401.6,-205.2C1392.34,-203.61 1382.76,-202.13 1373.7,-201 1126.29,-170.13 829.23,-156.93 703.57,-152.43"/>
<polygon fill="midnightblue" stroke="midnightblue" points="1401.03,-208.65 1411.49,-206.95 1402.25,-201.76 1401.03,-208.65"/>
</g>
<!-- Node36&#45;&gt;Node9 -->
<g id="edge58" class="edge">
<title>Node36&#45;&gt;Node9</title>
<path fill="none" stroke="midnightblue" d="M1150.99,-194.38C1171.59,-175.29 1204.63,-148.09 1238.7,-134 1376.01,-77.25 1824.74,-35.79 1995.2,-21.72"/>
<polygon fill="midnightblue" stroke="midnightblue" points="1148.58,-191.83 1143.73,-201.25 1153.39,-196.92 1148.58,-191.83"/>
</g>
<!-- Node36&#45;&gt;Node26 -->
<g id="edge57" class="edge">
<title>Node36&#45;&gt;Node26</title>
<path fill="none" stroke="midnightblue" d="M1052.85,-200.93C922.4,-180.76 781.79,-164.96 703.46,-156.69"/>
<polygon fill="midnightblue" stroke="midnightblue" points="1052.6,-204.44 1063.02,-202.52 1053.68,-197.52 1052.6,-204.44"/>
</g>
<!-- Node37&#45;&gt;Node26 -->
<g id="edge60" class="edge">
<title>Node37&#45;&gt;Node26</title>
<path fill="none" stroke="midnightblue" d="M729.28,-275.79C669.43,-268.93 594.92,-255.81 575.7,-232 556.49,-208.2 590.86,-180.77 617.07,-164.57"/>
<polygon fill="midnightblue" stroke="midnightblue" points="729.19,-279.3 739.51,-276.92 729.95,-272.34 729.19,-279.3"/>
</g>
<!-- Node38 -->
<g id="node38" class="node">
<title>Node38</title>
<g id="a_node38"><a xlink:href="bwLabel_8cc.html" target="_top" xlink:title=" ">
<polygon fill="none" stroke="black" points="737.2,-207 737.2,-226 882.2,-226 882.2,-207 737.2,-207"/>
<text text-anchor="middle" x="809.7" y="-214" font-family="Helvetica,sans-Serif" font-size="10.00">bwidgets/widgets/bwLabel.cc</text>
</a>
</g>
</g>
<!-- Node37&#45;&gt;Node38 -->
<g id="edge61" class="edge">
<title>Node37&#45;&gt;Node38</title>
<path fill="none" stroke="midnightblue" d="M809.7,-263.54C809.7,-251.17 809.7,-235.62 809.7,-226.13"/>
<polygon fill="midnightblue" stroke="midnightblue" points="806.2,-263.73 809.7,-273.73 813.2,-263.73 806.2,-263.73"/>
</g>
<!-- Node39&#45;&gt;Node19 -->
<g id="edge67" class="edge">
<title>Node39&#45;&gt;Node19</title>
<path fill="none" stroke="midnightblue" d="M1684.5,-270.27C1718.04,-257.37 1770.03,-237.38 1799.44,-226.06"/>
<polygon fill="midnightblue" stroke="midnightblue" points="1683.22,-267.01 1675.15,-273.87 1685.74,-273.55 1683.22,-267.01"/>
</g>
<!-- Node39&#45;&gt;Node26 -->
<g id="edge63" class="edge">
<title>Node39&#45;&gt;Node26</title>
<path fill="none" stroke="midnightblue" d="M1629.14,-268.55C1612.97,-258.76 1591.18,-245.11 1572.7,-232 1554.65,-219.18 1554.39,-208.89 1533.7,-201 1456.66,-171.64 891.65,-156.19 703.48,-151.82"/>
<polygon fill="midnightblue" stroke="midnightblue" points="1627.57,-271.69 1637.94,-273.84 1631.17,-265.69 1627.57,-271.69"/>
</g>
<!-- Node40 -->
<g id="node40" class="node">
<title>Node40</title>
<g id="a_node40"><a xlink:href="bwNumberSlider_8h.html" target="_top" xlink:title=" ">
<polygon fill="none" stroke="black" points="1581.2,-201.5 1581.2,-231.5 1724.2,-231.5 1724.2,-201.5 1581.2,-201.5"/>
<text text-anchor="start" x="1589.2" y="-219.5" font-family="Helvetica,sans-Serif" font-size="10.00">bwidgets/widgets/bwNumber</text>
<text text-anchor="middle" x="1652.7" y="-208.5" font-family="Helvetica,sans-Serif" font-size="10.00">Slider.h</text>
</a>
</g>
</g>
<!-- Node39&#45;&gt;Node40 -->
<g id="edge64" class="edge">
<title>Node39&#45;&gt;Node40</title>
<path fill="none" stroke="midnightblue" d="M1652.7,-263.41C1652.7,-253.22 1652.7,-240.9 1652.7,-231.59"/>
<polygon fill="midnightblue" stroke="midnightblue" points="1649.2,-263.73 1652.7,-273.73 1656.2,-263.73 1649.2,-263.73"/>
</g>
<!-- Node40&#45;&gt;Node15 -->
<g id="edge66" class="edge">
<title>Node40&#45;&gt;Node15</title>
<path fill="none" stroke="midnightblue" d="M1734.25,-200.93C1838.72,-183.63 1866.39,-181.21 1966.7,-165 1971.34,-164.25 1976.11,-163.47 1980.92,-162.68"/>
<polygon fill="midnightblue" stroke="midnightblue" points="1733.53,-197.51 1724.24,-202.6 1734.68,-204.41 1733.53,-197.51"/>
</g>
<!-- Node40&#45;&gt;Node26 -->
<g id="edge65" class="edge">
<title>Node40&#45;&gt;Node26</title>
<path fill="none" stroke="midnightblue" d="M1570.67,-201.46C1569.34,-201.3 1568.02,-201.15 1566.7,-201 1242.57,-164.93 851.48,-154.31 703.44,-151.46"/>
<polygon fill="midnightblue" stroke="midnightblue" points="1570.63,-204.98 1580.99,-202.79 1571.52,-198.04 1570.63,-204.98"/>
</g>
</g>
</svg>
