<?xml version="1.0" encoding="UTF-8" standalone="no"?>
<!DOCTYPE svg PUBLIC "-//W3C//DTD SVG 1.1//EN"
 "http://www.w3.org/Graphics/SVG/1.1/DTD/svg11.dtd">
<!-- Generated by graphviz version 2.50.0 (20211204.2007)
 -->
<!-- Title: bwidgets/bwEventDispatcher.h Pages: 1 -->
<svg width="184pt" height="252pt"
 viewBox="0.00 0.00 184.00 252.00" xmlns="http://www.w3.org/2000/svg" xmlns:xlink="http://www.w3.org/1999/xlink">
<g id="graph0" class="graph" transform="scale(1 1) rotate(0) translate(4 248)">
<title>bwidgets/bwEventDispatcher.h</title>
<!-- Node1 -->
<g id="node1" class="node">
<title>Node1</title>
<g id="a_node1"><a xlink:title=" ">
<polygon fill="#bfbfbf" stroke="black" points="24,-224.5 24,-243.5 176,-243.5 176,-224.5 24,-224.5"/>
<text text-anchor="middle" x="100" y="-231.5" font-family="Helvetica,sans-Serif" font-size="10.00">bwidgets/bwEventDispatcher.h</text>
</a>
</g>
</g>
<!-- Node2 -->
<g id="node2" class="node">
<title>Node2</title>
<g id="a_node2"><a xlink:title=" ">
<polygon fill="none" stroke="#bfbfbf" points="0,-168.5 0,-187.5 50,-187.5 50,-168.5 0,-168.5"/>
<text text-anchor="middle" x="25" y="-175.5" font-family="Helvetica,sans-Serif" font-size="10.00">optional</text>
</a>
</g>
</g>
<!-- Node1&#45;&gt;Node2 -->
<g id="edge1" class="edge">
<title>Node1&#45;&gt;Node2</title>
<path fill="none" stroke="midnightblue" d="M87.95,-224.32C76.54,-216.11 59.17,-203.6 45.57,-193.81"/>
<polygon fill="midnightblue" stroke="midnightblue" points="47.43,-190.84 37.27,-187.83 43.34,-196.52 47.43,-190.84"/>
</g>
<!-- Node3 -->
<g id="node3" class="node">
<title>Node3</title>
<g id="a_node3"><a xlink:href="bwEvent_8h.html" target="_top" xlink:title=" ">
<polygon fill="none" stroke="black" points="68.5,-168.5 68.5,-187.5 131.5,-187.5 131.5,-168.5 68.5,-168.5"/>
<text text-anchor="middle" x="100" y="-175.5" font-family="Helvetica,sans-Serif" font-size="10.00">bwEvent.h</text>
</a>
</g>
</g>
<!-- Node1&#45;&gt;Node3 -->
<g id="edge2" class="edge">
<title>Node1&#45;&gt;Node3</title>
<path fill="none" stroke="midnightblue" d="M100,-224.08C100,-217.01 100,-206.86 100,-197.99"/>
<polygon fill="midnightblue" stroke="midnightblue" points="103.5,-197.75 100,-187.75 96.5,-197.75 103.5,-197.75"/>
</g>
<!-- Node5 -->
<g id="node5" class="node">
<title>Node5</title>
<g id="a_node5"><a xlink:href="bwPoint_8h.html" target="_top" xlink:title=" ">
<polygon fill="none" stroke="black" points="92,-56.5 92,-75.5 152,-75.5 152,-56.5 92,-56.5"/>
<text text-anchor="middle" x="122" y="-63.5" font-family="Helvetica,sans-Serif" font-size="10.00">bwPoint.h</text>
</a>
</g>
</g>
<!-- Node1&#45;&gt;Node5 -->
<g id="edge7" class="edge">
<title>Node1&#45;&gt;Node5</title>
<path fill="none" stroke="midnightblue" d="M111.27,-224.43C120.97,-216.27 134.28,-203.05 140,-188 153.28,-153.07 139.8,-108.99 130.07,-84.84"/>
<polygon fill="midnightblue" stroke="midnightblue" points="133.24,-83.35 126.1,-75.53 126.8,-86.1 133.24,-83.35"/>
</g>
<!-- Node4 -->
<g id="node4" class="node">
<title>Node4</title>
<g id="a_node4"><a xlink:href="bwDistance_8h.html" target="_top" xlink:title=" ">
<polygon fill="none" stroke="black" points="16.5,-112.5 16.5,-131.5 93.5,-131.5 93.5,-112.5 16.5,-112.5"/>
<text text-anchor="middle" x="55" y="-119.5" font-family="Helvetica,sans-Serif" font-size="10.00">bwDistance.h</text>
</a>
</g>
</g>
<!-- Node3&#45;&gt;Node4 -->
<g id="edge3" class="edge">
<title>Node3&#45;&gt;Node4</title>
<path fill="none" stroke="midnightblue" d="M92.57,-168.08C86.15,-160.38 76.69,-149.03 68.88,-139.65"/>
<polygon fill="midnightblue" stroke="midnightblue" points="71.38,-137.19 62.29,-131.75 66.01,-141.67 71.38,-137.19"/>
</g>
<!-- Node3&#45;&gt;Node5 -->
<g id="edge6" class="edge">
<title>Node3&#45;&gt;Node5</title>
<path fill="none" stroke="midnightblue" d="M101.73,-168.37C105.28,-150.62 113.47,-109.67 118.28,-85.6"/>
<polygon fill="midnightblue" stroke="midnightblue" points="121.75,-86.08 120.28,-75.59 114.89,-84.71 121.75,-86.08"/>
</g>
<!-- Node4&#45;&gt;Node5 -->
<g id="edge4" class="edge">
<title>Node4&#45;&gt;Node5</title>
<path fill="none" stroke="midnightblue" d="M65.76,-112.32C75.77,-104.26 90.89,-92.08 102.93,-82.37"/>
<polygon fill="midnightblue" stroke="midnightblue" points="105.45,-84.83 111.04,-75.83 101.06,-79.38 105.45,-84.83"/>
</g>
<!-- Node6 -->
<g id="node6" class="node">
<title>Node6</title>
<g id="a_node6"><a xlink:title=" ">
<polygon fill="none" stroke="#bfbfbf" points="100,-0.5 100,-19.5 144,-19.5 144,-0.5 100,-0.5"/>
<text text-anchor="middle" x="122" y="-7.5" font-family="Helvetica,sans-Serif" font-size="10.00">vector</text>
</a>
</g>
</g>
<!-- Node5&#45;&gt;Node6 -->
<g id="edge5" class="edge">
<title>Node5&#45;&gt;Node6</title>
<path fill="none" stroke="midnightblue" d="M122,-56.08C122,-49.01 122,-38.86 122,-29.99"/>
<polygon fill="midnightblue" stroke="midnightblue" points="125.5,-29.75 122,-19.75 118.5,-29.75 125.5,-29.75"/>
</g>
</g>
</svg>
