<?xml version="1.0" encoding="UTF-8" standalone="no"?>
<!DOCTYPE svg PUBLIC "-//W3C//DTD SVG 1.1//EN"
 "http://www.w3.org/Graphics/SVG/1.1/DTD/svg11.dtd">
<!-- Generated by graphviz version 2.50.0 (20211204.2007)
 -->
<!-- Title: bwidgets/bwEventDispatcher.h Pages: 1 -->
<svg width="570pt" height="229pt"
 viewBox="0.00 0.00 570.00 229.00" xmlns="http://www.w3.org/2000/svg" xmlns:xlink="http://www.w3.org/1999/xlink">
<g id="graph0" class="graph" transform="scale(1 1) rotate(0) translate(4 225)">
<title>bwidgets/bwEventDispatcher.h</title>
<!-- Node1 -->
<g id="node1" class="node">
<title>Node1</title>
<g id="a_node1"><a xlink:title=" ">
<polygon fill="#bfbfbf" stroke="black" points="79.5,-201.5 79.5,-220.5 231.5,-220.5 231.5,-201.5 79.5,-201.5"/>
<text text-anchor="middle" x="155.5" y="-208.5" font-family="Helvetica,sans-Serif" font-size="10.00">bwidgets/bwEventDispatcher.h</text>
</a>
</g>
</g>
<!-- Node2 -->
<g id="node2" class="node">
<title>Node2</title>
<g id="a_node2"><a xlink:href="bwEventDispatcher_8cc.html" target="_top" xlink:title=" ">
<polygon fill="none" stroke="black" points="0,-73 0,-92 157,-92 157,-73 0,-73"/>
<text text-anchor="middle" x="78.5" y="-80" font-family="Helvetica,sans-Serif" font-size="10.00">bwidgets/bwEventDispatcher.cc</text>
</a>
</g>
</g>
<!-- Node1&#45;&gt;Node2 -->
<g id="edge1" class="edge">
<title>Node1&#45;&gt;Node2</title>
<path fill="none" stroke="midnightblue" d="M145.01,-192.76C128.35,-165.4 96.45,-112.99 83.83,-92.26"/>
<polygon fill="midnightblue" stroke="midnightblue" points="142.02,-194.58 150.21,-201.31 148,-190.94 142.02,-194.58"/>
</g>
<!-- Node3 -->
<g id="node3" class="node">
<title>Node3</title>
<g id="a_node3"><a xlink:href="ScreenGraph_8h.html" target="_top" xlink:title=" ">
<polygon fill="none" stroke="black" points="175,-134.5 175,-164.5 292,-164.5 292,-134.5 175,-134.5"/>
<text text-anchor="start" x="183" y="-152.5" font-family="Helvetica,sans-Serif" font-size="10.00">bwidgets/screen_graph</text>
<text text-anchor="middle" x="233.5" y="-141.5" font-family="Helvetica,sans-Serif" font-size="10.00">/ScreenGraph.h</text>
</a>
</g>
</g>
<!-- Node1&#45;&gt;Node3 -->
<g id="edge2" class="edge">
<title>Node1&#45;&gt;Node3</title>
<path fill="none" stroke="midnightblue" d="M174.91,-195.2C187.21,-185.81 203.02,-173.75 215.12,-164.52"/>
<polygon fill="midnightblue" stroke="midnightblue" points="172.5,-192.63 166.68,-201.48 176.75,-198.19 172.5,-192.63"/>
</g>
<!-- Node3&#45;&gt;Node2 -->
<g id="edge3" class="edge">
<title>Node3&#45;&gt;Node2</title>
<path fill="none" stroke="midnightblue" d="M190.48,-130.46C160.53,-117.9 121.96,-101.72 98.79,-92.01"/>
<polygon fill="midnightblue" stroke="midnightblue" points="189.29,-133.76 199.87,-134.4 192,-127.3 189.29,-133.76"/>
</g>
<!-- Node4 -->
<g id="node4" class="node">
<title>Node4</title>
<g id="a_node4"><a xlink:href="Builder_8h.html" target="_top" xlink:title=" ">
<polygon fill="none" stroke="black" points="175,-67.5 175,-97.5 292,-97.5 292,-67.5 175,-67.5"/>
<text text-anchor="start" x="183" y="-85.5" font-family="Helvetica,sans-Serif" font-size="10.00">bwidgets/screen_graph</text>
<text text-anchor="middle" x="233.5" y="-74.5" font-family="Helvetica,sans-Serif" font-size="10.00">/Builder.h</text>
</a>
</g>
</g>
<!-- Node3&#45;&gt;Node4 -->
<g id="edge4" class="edge">
<title>Node3&#45;&gt;Node4</title>
<path fill="none" stroke="midnightblue" d="M233.5,-124.11C233.5,-115.15 233.5,-105.32 233.5,-97.58"/>
<polygon fill="midnightblue" stroke="midnightblue" points="230,-124.4 233.5,-134.4 237,-124.4 230,-124.4"/>
</g>
<!-- Node7 -->
<g id="node7" class="node">
<title>Node7</title>
<g id="a_node7"><a xlink:href="Drawer_8cc.html" target="_top" xlink:title=" ">
<polygon fill="none" stroke="black" points="310,-67.5 310,-97.5 427,-97.5 427,-67.5 310,-67.5"/>
<text text-anchor="start" x="318" y="-85.5" font-family="Helvetica,sans-Serif" font-size="10.00">bwidgets/screen_graph</text>
<text text-anchor="middle" x="368.5" y="-74.5" font-family="Helvetica,sans-Serif" font-size="10.00">/Drawer.cc</text>
</a>
</g>
</g>
<!-- Node3&#45;&gt;Node7 -->
<g id="edge7" class="edge">
<title>Node3&#45;&gt;Node7</title>
<path fill="none" stroke="midnightblue" d="M271.94,-129.99C293.34,-119.69 319.55,-107.07 339.26,-97.58"/>
<polygon fill="midnightblue" stroke="midnightblue" points="270.28,-126.9 262.79,-134.4 273.32,-133.21 270.28,-126.9"/>
</g>
<!-- Node8 -->
<g id="node8" class="node">
<title>Node8</title>
<g id="a_node8"><a xlink:href="Iterators_8h.html" target="_top" xlink:title=" ">
<polygon fill="none" stroke="black" points="445,-67.5 445,-97.5 562,-97.5 562,-67.5 445,-67.5"/>
<text text-anchor="start" x="453" y="-85.5" font-family="Helvetica,sans-Serif" font-size="10.00">bwidgets/screen_graph</text>
<text text-anchor="middle" x="503.5" y="-74.5" font-family="Helvetica,sans-Serif" font-size="10.00">/Iterators.h</text>
</a>
</g>
</g>
<!-- Node3&#45;&gt;Node8 -->
<g id="edge8" class="edge">
<title>Node3&#45;&gt;Node8</title>
<path fill="none" stroke="midnightblue" d="M301.55,-132.12C345.73,-121.48 402.72,-107.76 444.89,-97.61"/>
<polygon fill="midnightblue" stroke="midnightblue" points="300.66,-128.73 291.75,-134.48 302.3,-135.54 300.66,-128.73"/>
</g>
<!-- Node5 -->
<g id="node5" class="node">
<title>Node5</title>
<g id="a_node5"><a xlink:href="Builder_8cc.html" target="_top" xlink:title=" ">
<polygon fill="none" stroke="black" points="96,-0.5 96,-30.5 213,-30.5 213,-0.5 96,-0.5"/>
<text text-anchor="start" x="104" y="-18.5" font-family="Helvetica,sans-Serif" font-size="10.00">bwidgets/screen_graph</text>
<text text-anchor="middle" x="154.5" y="-7.5" font-family="Helvetica,sans-Serif" font-size="10.00">/Builder.cc</text>
</a>
</g>
</g>
<!-- Node4&#45;&gt;Node5 -->
<g id="edge5" class="edge">
<title>Node4&#45;&gt;Node5</title>
<path fill="none" stroke="midnightblue" d="M208.44,-60.88C196.44,-51.01 182.37,-39.43 171.61,-30.58"/>
<polygon fill="midnightblue" stroke="midnightblue" points="206.41,-63.75 216.36,-67.4 210.86,-58.34 206.41,-63.75"/>
</g>
<!-- Node6 -->
<g id="node6" class="node">
<title>Node6</title>
<g id="a_node6"><a xlink:href="bwScrollView_8cc.html" target="_top" xlink:title=" ">
<polygon fill="none" stroke="black" points="231,-0.5 231,-30.5 364,-30.5 364,-0.5 231,-0.5"/>
<text text-anchor="start" x="239" y="-18.5" font-family="Helvetica,sans-Serif" font-size="10.00">bwidgets/widgets/bwScroll</text>
<text text-anchor="middle" x="297.5" y="-7.5" font-family="Helvetica,sans-Serif" font-size="10.00">View.cc</text>
</a>
</g>
</g>
<!-- Node4&#45;&gt;Node6 -->
<g id="edge6" class="edge">
<title>Node4&#45;&gt;Node6</title>
<path fill="none" stroke="midnightblue" d="M254.65,-60.02C264.18,-50.34 275.17,-39.17 283.64,-30.58"/>
<polygon fill="midnightblue" stroke="midnightblue" points="251.91,-57.81 247.39,-67.4 256.9,-62.73 251.91,-57.81"/>
</g>
<!-- Node9 -->
<g id="node9" class="node">
<title>Node9</title>
<g id="a_node9"><a xlink:href="Iterators_8cc.html" target="_top" xlink:title=" ">
<polygon fill="none" stroke="black" points="445,-0.5 445,-30.5 562,-30.5 562,-0.5 445,-0.5"/>
<text text-anchor="start" x="453" y="-18.5" font-family="Helvetica,sans-Serif" font-size="10.00">bwidgets/screen_graph</text>
<text text-anchor="middle" x="503.5" y="-7.5" font-family="Helvetica,sans-Serif" font-size="10.00">/Iterators.cc</text>
</a>
</g>
</g>
<!-- Node8&#45;&gt;Node9 -->
<g id="edge9" class="edge">
<title>Node8&#45;&gt;Node9</title>
<path fill="none" stroke="midnightblue" d="M503.5,-57.11C503.5,-48.15 503.5,-38.32 503.5,-30.58"/>
<polygon fill="midnightblue" stroke="midnightblue" points="500,-57.4 503.5,-67.4 507,-57.4 500,-57.4"/>
</g>
</g>
</svg>
