<?xml version="1.0" encoding="UTF-8" standalone="no"?>
<!DOCTYPE svg PUBLIC "-//W3C//DTD SVG 1.1//EN"
 "http://www.w3.org/Graphics/SVG/1.1/DTD/svg11.dtd">
<!-- Generated by graphviz version 2.50.0 (20211204.2007)
 -->
<!-- Title: bwidgets/bwEvent.h Pages: 1 -->
<svg width="1763pt" height="296pt"
 viewBox="0.00 0.00 1762.50 296.00" xmlns="http://www.w3.org/2000/svg" xmlns:xlink="http://www.w3.org/1999/xlink">
<g id="graph0" class="graph" transform="scale(1 1) rotate(0) translate(4 292)">
<title>bwidgets/bwEvent.h</title>
<!-- Node1 -->
<g id="node1" class="node">
<title>Node1</title>
<g id="a_node1"><a xlink:title=" ">
<polygon fill="#bfbfbf" stroke="black" points="813,-268.5 813,-287.5 918,-287.5 918,-268.5 813,-268.5"/>
<text text-anchor="middle" x="865.5" y="-275.5" font-family="Helvetica,sans-Serif" font-size="10.00">bwidgets/bwEvent.h</text>
</a>
</g>
</g>
<!-- Node2 -->
<g id="node2" class="node">
<title>Node2</title>
<g id="a_node2"><a xlink:href="bwEvent_8cc.html" target="_top" xlink:title=" ">
<polygon fill="none" stroke="black" points="105.5,-207 105.5,-226 215.5,-226 215.5,-207 105.5,-207"/>
<text text-anchor="middle" x="160.5" y="-214" font-family="Helvetica,sans-Serif" font-size="10.00">bwidgets/bwEvent.cc</text>
</a>
</g>
</g>
<!-- Node1&#45;&gt;Node2 -->
<g id="edge1" class="edge">
<title>Node1&#45;&gt;Node2</title>
<path fill="none" stroke="midnightblue" d="M802.57,-275.39C688.05,-271.84 438.13,-261.16 229.5,-232 218.71,-230.49 207.08,-228.28 196.51,-226.04"/>
<polygon fill="midnightblue" stroke="midnightblue" points="802.79,-278.9 812.89,-275.7 803,-271.9 802.79,-278.9"/>
</g>
<!-- Node3 -->
<g id="node3" class="node">
<title>Node3</title>
<g id="a_node3"><a xlink:href="bwEventDispatcher_8cc.html" target="_top" xlink:title=" ">
<polygon fill="none" stroke="black" points="0,-73 0,-92 157,-92 157,-73 0,-73"/>
<text text-anchor="middle" x="78.5" y="-80" font-family="Helvetica,sans-Serif" font-size="10.00">bwidgets/bwEventDispatcher.cc</text>
</a>
</g>
</g>
<!-- Node1&#45;&gt;Node3 -->
<g id="edge2" class="edge">
<title>Node1&#45;&gt;Node3</title>
<path fill="none" stroke="midnightblue" d="M802.74,-276.43C672.55,-274.55 377.39,-266.49 283.5,-232 238.95,-215.63 123.64,-121.17 88.69,-92.04"/>
<polygon fill="midnightblue" stroke="midnightblue" points="802.9,-279.93 812.95,-276.57 803,-272.93 802.9,-279.93"/>
</g>
<!-- Node4 -->
<g id="node4" class="node">
<title>Node4</title>
<g id="a_node4"><a xlink:href="bwEventDispatcher_8h.html" target="_top" xlink:title=" ">
<polygon fill="none" stroke="black" points="292.5,-207 292.5,-226 444.5,-226 444.5,-207 292.5,-207"/>
<text text-anchor="middle" x="368.5" y="-214" font-family="Helvetica,sans-Serif" font-size="10.00">bwidgets/bwEventDispatcher.h</text>
</a>
</g>
</g>
<!-- Node1&#45;&gt;Node4 -->
<g id="edge3" class="edge">
<title>Node1&#45;&gt;Node4</title>
<path fill="none" stroke="midnightblue" d="M802.71,-269.48C710.03,-258.39 537.1,-237.69 439.78,-226.03"/>
<polygon fill="midnightblue" stroke="midnightblue" points="802.44,-272.98 812.78,-270.69 803.27,-266.02 802.44,-272.98"/>
</g>
<!-- Node8 -->
<g id="node8" class="node">
<title>Node8</title>
<g id="a_node8"><a xlink:href="bwScrollView_8cc.html" target="_top" xlink:title=" ">
<polygon fill="none" stroke="black" points="484,-0.5 484,-30.5 617,-30.5 617,-0.5 484,-0.5"/>
<text text-anchor="start" x="492" y="-18.5" font-family="Helvetica,sans-Serif" font-size="10.00">bwidgets/widgets/bwScroll</text>
<text text-anchor="middle" x="550.5" y="-7.5" font-family="Helvetica,sans-Serif" font-size="10.00">View.cc</text>
</a>
</g>
</g>
<!-- Node1&#45;&gt;Node8 -->
<g id="edge19" class="edge">
<title>Node1&#45;&gt;Node8</title>
<path fill="none" stroke="midnightblue" d="M802.45,-273.67C736.08,-268.85 637.53,-257.52 610.5,-232 555.71,-180.27 594.71,-138.69 571.5,-67 567.46,-54.53 561.68,-40.83 557.2,-30.85"/>
<polygon fill="midnightblue" stroke="midnightblue" points="802.59,-277.19 812.81,-274.39 803.08,-270.21 802.59,-277.19"/>
</g>
<!-- Node12 -->
<g id="node12" class="node">
<title>Node12</title>
<g id="a_node12"><a xlink:href="bwAbstractButton_8cc.html" target="_top" xlink:title=" ">
<polygon fill="none" stroke="black" points="619,-201.5 619,-231.5 764,-231.5 764,-201.5 619,-201.5"/>
<text text-anchor="start" x="627" y="-219.5" font-family="Helvetica,sans-Serif" font-size="10.00">bwidgets/widgets/bwAbstract</text>
<text text-anchor="middle" x="691.5" y="-208.5" font-family="Helvetica,sans-Serif" font-size="10.00">Button.cc</text>
</a>
</g>
</g>
<!-- Node1&#45;&gt;Node12 -->
<g id="edge13" class="edge">
<title>Node1&#45;&gt;Node12</title>
<path fill="none" stroke="midnightblue" d="M831.08,-265.23C802.75,-255.54 762.51,-241.78 732.51,-231.52"/>
<polygon fill="midnightblue" stroke="midnightblue" points="829.98,-268.55 840.57,-268.48 832.24,-261.93 829.98,-268.55"/>
</g>
<!-- Node13 -->
<g id="node13" class="node">
<title>Node13</title>
<g id="a_node13"><a xlink:href="bwCheckbox_8cc.html" target="_top" xlink:title=" ">
<polygon fill="none" stroke="black" points="782.5,-207 782.5,-226 948.5,-226 948.5,-207 782.5,-207"/>
<text text-anchor="middle" x="865.5" y="-214" font-family="Helvetica,sans-Serif" font-size="10.00">bwidgets/widgets/bwCheckbox.cc</text>
</a>
</g>
</g>
<!-- Node1&#45;&gt;Node13 -->
<g id="edge14" class="edge">
<title>Node1&#45;&gt;Node13</title>
<path fill="none" stroke="midnightblue" d="M865.5,-258.32C865.5,-247.5 865.5,-234.4 865.5,-226.01"/>
<polygon fill="midnightblue" stroke="midnightblue" points="862,-258.48 865.5,-268.48 869,-258.48 862,-258.48"/>
</g>
<!-- Node14 -->
<g id="node14" class="node">
<title>Node14</title>
<g id="a_node14"><a xlink:href="bwNumberSlider_8cc.html" target="_top" xlink:title=" ">
<polygon fill="none" stroke="black" points="967,-201.5 967,-231.5 1110,-231.5 1110,-201.5 967,-201.5"/>
<text text-anchor="start" x="975" y="-219.5" font-family="Helvetica,sans-Serif" font-size="10.00">bwidgets/widgets/bwNumber</text>
<text text-anchor="middle" x="1038.5" y="-208.5" font-family="Helvetica,sans-Serif" font-size="10.00">Slider.cc</text>
</a>
</g>
</g>
<!-- Node1&#45;&gt;Node14 -->
<g id="edge15" class="edge">
<title>Node1&#45;&gt;Node14</title>
<path fill="none" stroke="midnightblue" d="M900.09,-265.1C928.24,-255.42 968.03,-241.74 997.73,-231.52"/>
<polygon fill="midnightblue" stroke="midnightblue" points="898.6,-261.91 890.29,-268.48 900.88,-268.53 898.6,-261.91"/>
</g>
<!-- Node15 -->
<g id="node15" class="node">
<title>Node15</title>
<g id="a_node15"><a xlink:href="bwPanel_8cc.html" target="_top" xlink:title=" ">
<polygon fill="none" stroke="black" points="1128.5,-207 1128.5,-226 1274.5,-226 1274.5,-207 1128.5,-207"/>
<text text-anchor="middle" x="1201.5" y="-214" font-family="Helvetica,sans-Serif" font-size="10.00">bwidgets/widgets/bwPanel.cc</text>
</a>
</g>
</g>
<!-- Node1&#45;&gt;Node15 -->
<g id="edge16" class="edge">
<title>Node1&#45;&gt;Node15</title>
<path fill="none" stroke="midnightblue" d="M923.73,-266.69C988.78,-255.17 1092.86,-236.74 1153.45,-226.01"/>
<polygon fill="midnightblue" stroke="midnightblue" points="922.88,-263.28 913.64,-268.48 924.1,-270.18 922.88,-263.28"/>
</g>
<!-- Node16 -->
<g id="node16" class="node">
<title>Node16</title>
<g id="a_node16"><a xlink:href="bwRadioButton_8cc.html" target="_top" xlink:title=" ">
<polygon fill="none" stroke="black" points="1292.5,-201.5 1292.5,-231.5 1426.5,-231.5 1426.5,-201.5 1292.5,-201.5"/>
<text text-anchor="start" x="1300.5" y="-219.5" font-family="Helvetica,sans-Serif" font-size="10.00">bwidgets/widgets/bwRadio</text>
<text text-anchor="middle" x="1359.5" y="-208.5" font-family="Helvetica,sans-Serif" font-size="10.00">Button.cc</text>
</a>
</g>
</g>
<!-- Node1&#45;&gt;Node16 -->
<g id="edge17" class="edge">
<title>Node1&#45;&gt;Node16</title>
<path fill="none" stroke="midnightblue" d="M928.28,-271.84C1010.24,-264.75 1158.02,-250.69 1283.5,-232 1286.42,-231.56 1289.4,-231.1 1292.41,-230.61"/>
<polygon fill="midnightblue" stroke="midnightblue" points="927.8,-268.37 918.13,-272.72 928.4,-275.35 927.8,-268.37"/>
</g>
<!-- Node17 -->
<g id="node17" class="node">
<title>Node17</title>
<g id="a_node17"><a xlink:href="bwScrollBar_8cc.html" target="_top" xlink:title=" ">
<polygon fill="none" stroke="black" points="1445,-201.5 1445,-231.5 1578,-231.5 1578,-201.5 1445,-201.5"/>
<text text-anchor="start" x="1453" y="-219.5" font-family="Helvetica,sans-Serif" font-size="10.00">bwidgets/widgets/bwScroll</text>
<text text-anchor="middle" x="1511.5" y="-208.5" font-family="Helvetica,sans-Serif" font-size="10.00">Bar.cc</text>
</a>
</g>
</g>
<!-- Node1&#45;&gt;Node17 -->
<g id="edge18" class="edge">
<title>Node1&#45;&gt;Node17</title>
<path fill="none" stroke="midnightblue" d="M928.5,-274.29C1033.83,-269.25 1252.22,-256.64 1435.5,-232 1438.56,-231.59 1441.69,-231.13 1444.84,-230.65"/>
<polygon fill="midnightblue" stroke="midnightblue" points="928.18,-270.8 918.36,-274.77 928.51,-277.79 928.18,-270.8"/>
</g>
<!-- Node18 -->
<g id="node18" class="node">
<title>Node18</title>
<g id="a_node18"><a xlink:href="bwTextBox_8cc.html" target="_top" xlink:title=" ">
<polygon fill="none" stroke="black" points="1596.5,-207 1596.5,-226 1754.5,-226 1754.5,-207 1596.5,-207"/>
<text text-anchor="middle" x="1675.5" y="-214" font-family="Helvetica,sans-Serif" font-size="10.00">bwidgets/widgets/bwTextBox.cc</text>
</a>
</g>
</g>
<!-- Node1&#45;&gt;Node18 -->
<g id="edge20" class="edge">
<title>Node1&#45;&gt;Node18</title>
<path fill="none" stroke="midnightblue" d="M928.4,-275.22C1054.02,-271.19 1344.74,-259.49 1587.5,-232 1601.04,-230.47 1615.67,-228.27 1629.04,-226.06"/>
<polygon fill="midnightblue" stroke="midnightblue" points="928.09,-271.73 918.2,-275.54 928.31,-278.72 928.09,-271.73"/>
</g>
<!-- Node4&#45;&gt;Node3 -->
<g id="edge4" class="edge">
<title>Node4&#45;&gt;Node3</title>
<path fill="none" stroke="midnightblue" d="M348.65,-200.64C318.08,-177.8 262.46,-136.42 257.5,-134 215.14,-113.32 162.87,-99.8 125.78,-92"/>
<polygon fill="midnightblue" stroke="midnightblue" points="346.79,-203.62 356.9,-206.81 350.99,-198.02 346.79,-203.62"/>
</g>
<!-- Node5 -->
<g id="node5" class="node">
<title>Node5</title>
<g id="a_node5"><a xlink:href="ScreenGraph_8h.html" target="_top" xlink:title=" ">
<polygon fill="none" stroke="black" points="310,-134.5 310,-164.5 427,-164.5 427,-134.5 310,-134.5"/>
<text text-anchor="start" x="318" y="-152.5" font-family="Helvetica,sans-Serif" font-size="10.00">bwidgets/screen_graph</text>
<text text-anchor="middle" x="368.5" y="-141.5" font-family="Helvetica,sans-Serif" font-size="10.00">/ScreenGraph.h</text>
</a>
</g>
</g>
<!-- Node4&#45;&gt;Node5 -->
<g id="edge5" class="edge">
<title>Node4&#45;&gt;Node5</title>
<path fill="none" stroke="midnightblue" d="M368.5,-196.41C368.5,-186.22 368.5,-173.9 368.5,-164.59"/>
<polygon fill="midnightblue" stroke="midnightblue" points="365,-196.73 368.5,-206.73 372,-196.73 365,-196.73"/>
</g>
<!-- Node5&#45;&gt;Node3 -->
<g id="edge6" class="edge">
<title>Node5&#45;&gt;Node3</title>
<path fill="none" stroke="midnightblue" d="M299.76,-133.09C242.58,-120.28 163.26,-102.5 116.77,-92.08"/>
<polygon fill="midnightblue" stroke="midnightblue" points="299.29,-136.57 309.81,-135.35 300.82,-129.74 299.29,-136.57"/>
</g>
<!-- Node6 -->
<g id="node6" class="node">
<title>Node6</title>
<g id="a_node6"><a xlink:href="Builder_8h.html" target="_top" xlink:title=" ">
<polygon fill="none" stroke="black" points="310,-67.5 310,-97.5 427,-97.5 427,-67.5 310,-67.5"/>
<text text-anchor="start" x="318" y="-85.5" font-family="Helvetica,sans-Serif" font-size="10.00">bwidgets/screen_graph</text>
<text text-anchor="middle" x="368.5" y="-74.5" font-family="Helvetica,sans-Serif" font-size="10.00">/Builder.h</text>
</a>
</g>
</g>
<!-- Node5&#45;&gt;Node6 -->
<g id="edge7" class="edge">
<title>Node5&#45;&gt;Node6</title>
<path fill="none" stroke="midnightblue" d="M368.5,-124.11C368.5,-115.15 368.5,-105.32 368.5,-97.58"/>
<polygon fill="midnightblue" stroke="midnightblue" points="365,-124.4 368.5,-134.4 372,-124.4 365,-124.4"/>
</g>
<!-- Node9 -->
<g id="node9" class="node">
<title>Node9</title>
<g id="a_node9"><a xlink:href="Drawer_8cc.html" target="_top" xlink:title=" ">
<polygon fill="none" stroke="black" points="445,-67.5 445,-97.5 562,-97.5 562,-67.5 445,-67.5"/>
<text text-anchor="start" x="453" y="-85.5" font-family="Helvetica,sans-Serif" font-size="10.00">bwidgets/screen_graph</text>
<text text-anchor="middle" x="503.5" y="-74.5" font-family="Helvetica,sans-Serif" font-size="10.00">/Drawer.cc</text>
</a>
</g>
</g>
<!-- Node5&#45;&gt;Node9 -->
<g id="edge10" class="edge">
<title>Node5&#45;&gt;Node9</title>
<path fill="none" stroke="midnightblue" d="M406.94,-129.99C428.34,-119.69 454.55,-107.07 474.26,-97.58"/>
<polygon fill="midnightblue" stroke="midnightblue" points="405.28,-126.9 397.79,-134.4 408.32,-133.21 405.28,-126.9"/>
</g>
<!-- Node10 -->
<g id="node10" class="node">
<title>Node10</title>
<g id="a_node10"><a xlink:href="Iterators_8h.html" target="_top" xlink:title=" ">
<polygon fill="none" stroke="black" points="175,-67.5 175,-97.5 292,-97.5 292,-67.5 175,-67.5"/>
<text text-anchor="start" x="183" y="-85.5" font-family="Helvetica,sans-Serif" font-size="10.00">bwidgets/screen_graph</text>
<text text-anchor="middle" x="233.5" y="-74.5" font-family="Helvetica,sans-Serif" font-size="10.00">/Iterators.h</text>
</a>
</g>
</g>
<!-- Node5&#45;&gt;Node10 -->
<g id="edge11" class="edge">
<title>Node5&#45;&gt;Node10</title>
<path fill="none" stroke="midnightblue" d="M330.06,-129.99C308.66,-119.69 282.45,-107.07 262.74,-97.58"/>
<polygon fill="midnightblue" stroke="midnightblue" points="328.68,-133.21 339.21,-134.4 331.72,-126.9 328.68,-133.21"/>
</g>
<!-- Node7 -->
<g id="node7" class="node">
<title>Node7</title>
<g id="a_node7"><a xlink:href="Builder_8cc.html" target="_top" xlink:title=" ">
<polygon fill="none" stroke="black" points="310,-0.5 310,-30.5 427,-30.5 427,-0.5 310,-0.5"/>
<text text-anchor="start" x="318" y="-18.5" font-family="Helvetica,sans-Serif" font-size="10.00">bwidgets/screen_graph</text>
<text text-anchor="middle" x="368.5" y="-7.5" font-family="Helvetica,sans-Serif" font-size="10.00">/Builder.cc</text>
</a>
</g>
</g>
<!-- Node6&#45;&gt;Node7 -->
<g id="edge8" class="edge">
<title>Node6&#45;&gt;Node7</title>
<path fill="none" stroke="midnightblue" d="M368.5,-57.11C368.5,-48.15 368.5,-38.32 368.5,-30.58"/>
<polygon fill="midnightblue" stroke="midnightblue" points="365,-57.4 368.5,-67.4 372,-57.4 365,-57.4"/>
</g>
<!-- Node6&#45;&gt;Node8 -->
<g id="edge9" class="edge">
<title>Node6&#45;&gt;Node8</title>
<path fill="none" stroke="midnightblue" d="M417.63,-63.96C446.94,-53.48 483.68,-40.37 511.09,-30.58"/>
<polygon fill="midnightblue" stroke="midnightblue" points="416.23,-60.74 407.99,-67.4 418.59,-67.33 416.23,-60.74"/>
</g>
<!-- Node11 -->
<g id="node11" class="node">
<title>Node11</title>
<g id="a_node11"><a xlink:href="Iterators_8cc.html" target="_top" xlink:title=" ">
<polygon fill="none" stroke="black" points="175,-0.5 175,-30.5 292,-30.5 292,-0.5 175,-0.5"/>
<text text-anchor="start" x="183" y="-18.5" font-family="Helvetica,sans-Serif" font-size="10.00">bwidgets/screen_graph</text>
<text text-anchor="middle" x="233.5" y="-7.5" font-family="Helvetica,sans-Serif" font-size="10.00">/Iterators.cc</text>
</a>
</g>
</g>
<!-- Node10&#45;&gt;Node11 -->
<g id="edge12" class="edge">
<title>Node10&#45;&gt;Node11</title>
<path fill="none" stroke="midnightblue" d="M233.5,-57.11C233.5,-48.15 233.5,-38.32 233.5,-30.58"/>
<polygon fill="midnightblue" stroke="midnightblue" points="230,-57.4 233.5,-67.4 237,-57.4 230,-57.4"/>
</g>
</g>
</svg>
