<?xml version="1.0" encoding="UTF-8" standalone="no"?>
<!DOCTYPE svg PUBLIC "-//W3C//DTD SVG 1.1//EN"
 "http://www.w3.org/Graphics/SVG/1.1/DTD/svg11.dtd">
<!-- Generated by graphviz version 2.50.0 (20211204.2007)
 -->
<!-- Title: bwidgets/bwEventDispatcher.cc Pages: 1 -->
<svg width="908pt" height="364pt"
 viewBox="0.00 0.00 907.50 364.00" xmlns="http://www.w3.org/2000/svg" xmlns:xlink="http://www.w3.org/1999/xlink">
<g id="graph0" class="graph" transform="scale(1 1) rotate(0) translate(4 360)">
<title>bwidgets/bwEventDispatcher.cc</title>
<!-- Node1 -->
<g id="node1" class="node">
<title>Node1</title>
<g id="a_node1"><a xlink:title=" ">
<polygon fill="#bfbfbf" stroke="black" points="153.5,-336.5 153.5,-355.5 310.5,-355.5 310.5,-336.5 153.5,-336.5"/>
<text text-anchor="middle" x="232" y="-343.5" font-family="Helvetica,sans-Serif" font-size="10.00">bwidgets/bwEventDispatcher.cc</text>
</a>
</g>
</g>
<!-- Node2 -->
<g id="node2" class="node">
<title>Node2</title>
<g id="a_node2"><a xlink:title=" ">
<polygon fill="none" stroke="#bfbfbf" points="0,-280.5 0,-299.5 54,-299.5 54,-280.5 0,-280.5"/>
<text text-anchor="middle" x="27" y="-287.5" font-family="Helvetica,sans-Serif" font-size="10.00">iostream</text>
</a>
</g>
</g>
<!-- Node1&#45;&gt;Node2 -->
<g id="edge1" class="edge">
<title>Node1&#45;&gt;Node2</title>
<path fill="none" stroke="midnightblue" d="M199.52,-336.44C162.62,-326.72 102.54,-310.9 63.91,-300.72"/>
<polygon fill="midnightblue" stroke="midnightblue" points="64.66,-297.3 54.09,-298.14 62.87,-304.07 64.66,-297.3"/>
</g>
<!-- Node3 -->
<g id="node3" class="node">
<title>Node3</title>
<g id="a_node3"><a xlink:href="bwEvent_8h.html" target="_top" xlink:title=" ">
<polygon fill="none" stroke="black" points="50.5,-168.5 50.5,-187.5 113.5,-187.5 113.5,-168.5 50.5,-168.5"/>
<text text-anchor="middle" x="82" y="-175.5" font-family="Helvetica,sans-Serif" font-size="10.00">bwEvent.h</text>
</a>
</g>
</g>
<!-- Node1&#45;&gt;Node3 -->
<g id="edge2" class="edge">
<title>Node1&#45;&gt;Node3</title>
<path fill="none" stroke="midnightblue" d="M240.48,-336.23C248.05,-327.75 258.6,-314.13 263,-300 273.65,-265.77 263.35,-247.17 236,-224 204.32,-197.16 157.31,-186.32 123.57,-181.94"/>
<polygon fill="midnightblue" stroke="midnightblue" points="123.9,-178.46 113.56,-180.78 123.09,-185.41 123.9,-178.46"/>
</g>
<!-- Node7 -->
<g id="node7" class="node">
<title>Node7</title>
<g id="a_node7"><a xlink:href="EventHandler_8h.html" target="_top" xlink:title=" ">
<polygon fill="none" stroke="black" points="711.5,-112.5 711.5,-131.5 856.5,-131.5 856.5,-112.5 711.5,-112.5"/>
<text text-anchor="middle" x="784" y="-119.5" font-family="Helvetica,sans-Serif" font-size="10.00">screen_graph/EventHandler.h</text>
</a>
</g>
</g>
<!-- Node1&#45;&gt;Node7 -->
<g id="edge7" class="edge">
<title>Node1&#45;&gt;Node7</title>
<path fill="none" stroke="midnightblue" d="M309.6,-336.49C356.22,-329.84 416.16,-318.51 467,-300 586.63,-256.44 714.82,-171.43 763.59,-137.5"/>
<polygon fill="midnightblue" stroke="midnightblue" points="765.83,-140.2 772.01,-131.6 761.81,-134.47 765.83,-140.2"/>
</g>
<!-- Node12 -->
<g id="node12" class="node">
<title>Node12</title>
<g id="a_node12"><a xlink:href="Node_8h.html" target="_top" xlink:title=" ">
<polygon fill="none" stroke="black" points="348,-280.5 348,-299.5 458,-299.5 458,-280.5 348,-280.5"/>
<text text-anchor="middle" x="403" y="-287.5" font-family="Helvetica,sans-Serif" font-size="10.00">screen_graph/Node.h</text>
</a>
</g>
</g>
<!-- Node1&#45;&gt;Node12 -->
<g id="edge12" class="edge">
<title>Node1&#45;&gt;Node12</title>
<path fill="none" stroke="midnightblue" d="M259.1,-336.44C287.99,-327.32 333.92,-312.81 366.11,-302.65"/>
<polygon fill="midnightblue" stroke="midnightblue" points="367.55,-305.87 376.03,-299.52 365.44,-299.19 367.55,-305.87"/>
</g>
<!-- Node25 -->
<g id="node25" class="node">
<title>Node25</title>
<g id="a_node25"><a xlink:href="ScreenGraph_8h.html" target="_top" xlink:title=" ">
<polygon fill="none" stroke="black" points="110.5,-280.5 110.5,-299.5 253.5,-299.5 253.5,-280.5 110.5,-280.5"/>
<text text-anchor="middle" x="182" y="-287.5" font-family="Helvetica,sans-Serif" font-size="10.00">screen_graph/ScreenGraph.h</text>
</a>
</g>
</g>
<!-- Node1&#45;&gt;Node25 -->
<g id="edge32" class="edge">
<title>Node1&#45;&gt;Node25</title>
<path fill="none" stroke="midnightblue" d="M223.74,-336.08C216.54,-328.3 205.89,-316.8 197.15,-307.37"/>
<polygon fill="midnightblue" stroke="midnightblue" points="199.47,-304.71 190.1,-299.75 194.33,-309.47 199.47,-304.71"/>
</g>
<!-- Node27 -->
<g id="node27" class="node">
<title>Node27</title>
<g id="a_node27"><a xlink:href="bwEventDispatcher_8h.html" target="_top" xlink:title=" ">
<polygon fill="none" stroke="black" points="27,-224.5 27,-243.5 137,-243.5 137,-224.5 27,-224.5"/>
<text text-anchor="middle" x="82" y="-231.5" font-family="Helvetica,sans-Serif" font-size="10.00">bwEventDispatcher.h</text>
</a>
</g>
</g>
<!-- Node1&#45;&gt;Node27 -->
<g id="edge38" class="edge">
<title>Node1&#45;&gt;Node27</title>
<path fill="none" stroke="midnightblue" d="M170.6,-336.46C146.02,-330.13 119.26,-319.13 101,-300 89.21,-287.65 84.69,-268.4 82.97,-254.05"/>
<polygon fill="midnightblue" stroke="midnightblue" points="86.44,-253.49 82.12,-243.82 79.46,-254.08 86.44,-253.49"/>
</g>
<!-- Node4 -->
<g id="node4" class="node">
<title>Node4</title>
<g id="a_node4"><a xlink:href="bwDistance_8h.html" target="_top" xlink:title=" ">
<polygon fill="none" stroke="black" points="43.5,-112.5 43.5,-131.5 120.5,-131.5 120.5,-112.5 43.5,-112.5"/>
<text text-anchor="middle" x="82" y="-119.5" font-family="Helvetica,sans-Serif" font-size="10.00">bwDistance.h</text>
</a>
</g>
</g>
<!-- Node3&#45;&gt;Node4 -->
<g id="edge3" class="edge">
<title>Node3&#45;&gt;Node4</title>
<path fill="none" stroke="midnightblue" d="M82,-168.08C82,-161.01 82,-150.86 82,-141.99"/>
<polygon fill="midnightblue" stroke="midnightblue" points="85.5,-141.75 82,-131.75 78.5,-141.75 85.5,-141.75"/>
</g>
<!-- Node5 -->
<g id="node5" class="node">
<title>Node5</title>
<g id="a_node5"><a xlink:href="bwPoint_8h.html" target="_top" xlink:title=" ">
<polygon fill="none" stroke="black" points="19,-56.5 19,-75.5 79,-75.5 79,-56.5 19,-56.5"/>
<text text-anchor="middle" x="49" y="-63.5" font-family="Helvetica,sans-Serif" font-size="10.00">bwPoint.h</text>
</a>
</g>
</g>
<!-- Node3&#45;&gt;Node5 -->
<g id="edge6" class="edge">
<title>Node3&#45;&gt;Node5</title>
<path fill="none" stroke="midnightblue" d="M67.63,-168.33C56.12,-160.47 40.81,-147.72 34,-132 27.4,-116.76 32.9,-98.19 39.02,-84.81"/>
<polygon fill="midnightblue" stroke="midnightblue" points="42.22,-86.23 43.63,-75.73 35.98,-83.06 42.22,-86.23"/>
</g>
<!-- Node4&#45;&gt;Node5 -->
<g id="edge4" class="edge">
<title>Node4&#45;&gt;Node5</title>
<path fill="none" stroke="midnightblue" d="M76.55,-112.08C71.99,-104.61 65.33,-93.72 59.71,-84.52"/>
<polygon fill="midnightblue" stroke="midnightblue" points="62.55,-82.46 54.35,-75.75 56.58,-86.11 62.55,-82.46"/>
</g>
<!-- Node6 -->
<g id="node6" class="node">
<title>Node6</title>
<g id="a_node6"><a xlink:title=" ">
<polygon fill="none" stroke="#bfbfbf" points="181,-0.5 181,-19.5 225,-19.5 225,-0.5 181,-0.5"/>
<text text-anchor="middle" x="203" y="-7.5" font-family="Helvetica,sans-Serif" font-size="10.00">vector</text>
</a>
</g>
</g>
<!-- Node5&#45;&gt;Node6 -->
<g id="edge5" class="edge">
<title>Node5&#45;&gt;Node6</title>
<path fill="none" stroke="midnightblue" d="M73.4,-56.44C99.8,-47.19 142.01,-32.39 171.04,-22.21"/>
<polygon fill="midnightblue" stroke="midnightblue" points="172.43,-25.43 180.71,-18.82 170.12,-18.82 172.43,-25.43"/>
</g>
<!-- Node8 -->
<g id="node8" class="node">
<title>Node8</title>
<g id="a_node8"><a xlink:title=" ">
<polygon fill="none" stroke="#bfbfbf" points="636,-56.5 636,-75.5 674,-75.5 674,-56.5 636,-56.5"/>
<text text-anchor="middle" x="655" y="-63.5" font-family="Helvetica,sans-Serif" font-size="10.00">array</text>
</a>
</g>
</g>
<!-- Node7&#45;&gt;Node8 -->
<g id="edge8" class="edge">
<title>Node7&#45;&gt;Node8</title>
<path fill="none" stroke="midnightblue" d="M763.56,-112.44C741.95,-103.4 707.72,-89.07 683.47,-78.92"/>
<polygon fill="midnightblue" stroke="midnightblue" points="684.66,-75.62 674.08,-74.99 681.96,-82.08 684.66,-75.62"/>
</g>
<!-- Node9 -->
<g id="node9" class="node">
<title>Node9</title>
<g id="a_node9"><a xlink:title=" ">
<polygon fill="none" stroke="#bfbfbf" points="692.5,-56.5 692.5,-75.5 751.5,-75.5 751.5,-56.5 692.5,-56.5"/>
<text text-anchor="middle" x="722" y="-63.5" font-family="Helvetica,sans-Serif" font-size="10.00">functional</text>
</a>
</g>
</g>
<!-- Node7&#45;&gt;Node9 -->
<g id="edge9" class="edge">
<title>Node7&#45;&gt;Node9</title>
<path fill="none" stroke="midnightblue" d="M774.04,-112.32C764.87,-104.34 751.06,-92.31 739.97,-82.65"/>
<polygon fill="midnightblue" stroke="midnightblue" points="741.98,-79.76 732.14,-75.83 737.38,-85.04 741.98,-79.76"/>
</g>
<!-- Node10 -->
<g id="node10" class="node">
<title>Node10</title>
<g id="a_node10"><a xlink:title=" ">
<polygon fill="none" stroke="#bfbfbf" points="870.5,-56.5 870.5,-75.5 899.5,-75.5 899.5,-56.5 870.5,-56.5"/>
<text text-anchor="middle" x="885" y="-63.5" font-family="Helvetica,sans-Serif" font-size="10.00">list</text>
</a>
</g>
</g>
<!-- Node7&#45;&gt;Node10 -->
<g id="edge10" class="edge">
<title>Node7&#45;&gt;Node10</title>
<path fill="none" stroke="midnightblue" d="M800.23,-112.32C816.83,-103.45 842.78,-89.57 861.6,-79.51"/>
<polygon fill="midnightblue" stroke="midnightblue" points="863.28,-82.58 870.45,-74.78 859.98,-76.41 863.28,-82.58"/>
</g>
<!-- Node11 -->
<g id="node11" class="node">
<title>Node11</title>
<g id="a_node11"><a xlink:title=" ">
<polygon fill="none" stroke="#bfbfbf" points="769.5,-56.5 769.5,-75.5 852.5,-75.5 852.5,-56.5 769.5,-56.5"/>
<text text-anchor="middle" x="811" y="-63.5" font-family="Helvetica,sans-Serif" font-size="10.00">unordered_map</text>
</a>
</g>
</g>
<!-- Node7&#45;&gt;Node11 -->
<g id="edge11" class="edge">
<title>Node7&#45;&gt;Node11</title>
<path fill="none" stroke="midnightblue" d="M788.46,-112.08C792.15,-104.69 797.52,-93.95 802.09,-84.81"/>
<polygon fill="midnightblue" stroke="midnightblue" points="805.28,-86.26 806.62,-75.75 799.02,-83.13 805.28,-86.26"/>
</g>
<!-- Node12&#45;&gt;Node10 -->
<g id="edge13" class="edge">
<title>Node12&#45;&gt;Node10</title>
<path fill="none" stroke="midnightblue" d="M458.35,-286.2C555.01,-278.28 754.86,-247.97 866,-132 877.81,-119.68 882.34,-100.42 884.04,-86.07"/>
<polygon fill="midnightblue" stroke="midnightblue" points="887.55,-86.08 884.89,-75.83 880.58,-85.5 887.55,-86.08"/>
</g>
<!-- Node13 -->
<g id="node13" class="node">
<title>Node13</title>
<g id="a_node13"><a xlink:href="bwContainerWidget_8h.html" target="_top" xlink:title=" ">
<polygon fill="none" stroke="black" points="348,-224.5 348,-243.5 458,-243.5 458,-224.5 348,-224.5"/>
<text text-anchor="middle" x="403" y="-231.5" font-family="Helvetica,sans-Serif" font-size="10.00">bwContainerWidget.h</text>
</a>
</g>
</g>
<!-- Node12&#45;&gt;Node13 -->
<g id="edge14" class="edge">
<title>Node12&#45;&gt;Node13</title>
<path fill="none" stroke="midnightblue" d="M403,-280.08C403,-273.01 403,-262.86 403,-253.99"/>
<polygon fill="midnightblue" stroke="midnightblue" points="406.5,-253.75 403,-243.75 399.5,-253.75 406.5,-253.75"/>
</g>
<!-- Node14 -->
<g id="node14" class="node">
<title>Node14</title>
<g id="a_node14"><a xlink:href="bwWidget_8h.html" target="_top" xlink:title=" ">
<polygon fill="none" stroke="black" points="452,-168.5 452,-187.5 520,-187.5 520,-168.5 452,-168.5"/>
<text text-anchor="middle" x="486" y="-175.5" font-family="Helvetica,sans-Serif" font-size="10.00">bwWidget.h</text>
</a>
</g>
</g>
<!-- Node12&#45;&gt;Node14 -->
<g id="edge31" class="edge">
<title>Node12&#45;&gt;Node14</title>
<path fill="none" stroke="midnightblue" d="M421.31,-280.46C435.74,-272.83 455.3,-260.35 467,-244 476.73,-230.41 481.51,-211.86 483.84,-198.06"/>
<polygon fill="midnightblue" stroke="midnightblue" points="487.36,-198.18 485.28,-187.79 480.43,-197.21 487.36,-198.18"/>
</g>
<!-- Node24 -->
<g id="node24" class="node">
<title>Node24</title>
<g id="a_node24"><a xlink:href="bwLayoutInterface_8h.html" target="_top" xlink:title=" ">
<polygon fill="none" stroke="black" points="197.5,-168.5 197.5,-187.5 302.5,-187.5 302.5,-168.5 197.5,-168.5"/>
<text text-anchor="middle" x="250" y="-175.5" font-family="Helvetica,sans-Serif" font-size="10.00">bwLayoutInterface.h</text>
</a>
</g>
</g>
<!-- Node12&#45;&gt;Node24 -->
<g id="edge29" class="edge">
<title>Node12&#45;&gt;Node24</title>
<path fill="none" stroke="midnightblue" d="M390.68,-280.44C377.76,-271.43 356.89,-256.82 339,-244 315.29,-227.01 288.26,-207.21 270.27,-193.97"/>
<polygon fill="midnightblue" stroke="midnightblue" points="271.88,-190.8 261.76,-187.69 267.73,-196.44 271.88,-190.8"/>
</g>
<!-- Node13&#45;&gt;Node14 -->
<g id="edge15" class="edge">
<title>Node13&#45;&gt;Node14</title>
<path fill="none" stroke="midnightblue" d="M416.34,-224.32C429.16,-215.98 448.78,-203.21 463.94,-193.35"/>
<polygon fill="midnightblue" stroke="midnightblue" points="466.22,-196.04 472.7,-187.65 462.41,-190.17 466.22,-196.04"/>
</g>
<!-- Node22 -->
<g id="node22" class="node">
<title>Node22</title>
<g id="a_node22"><a xlink:href="bwWidgetBaseStyle_8h.html" target="_top" xlink:title=" ">
<polygon fill="none" stroke="black" points="320.5,-168.5 320.5,-187.5 433.5,-187.5 433.5,-168.5 320.5,-168.5"/>
<text text-anchor="middle" x="377" y="-175.5" font-family="Helvetica,sans-Serif" font-size="10.00">bwWidgetBaseStyle.h</text>
</a>
</g>
</g>
<!-- Node13&#45;&gt;Node22 -->
<g id="edge27" class="edge">
<title>Node13&#45;&gt;Node22</title>
<path fill="none" stroke="midnightblue" d="M398.71,-224.08C395.15,-216.69 389.98,-205.95 385.58,-196.81"/>
<polygon fill="midnightblue" stroke="midnightblue" points="388.71,-195.24 381.21,-187.75 382.4,-198.28 388.71,-195.24"/>
</g>
<!-- Node14&#45;&gt;Node4 -->
<g id="edge18" class="edge">
<title>Node14&#45;&gt;Node4</title>
<path fill="none" stroke="midnightblue" d="M451.78,-169.57C448.82,-169.01 445.86,-168.48 443,-168 384.02,-158.17 214.79,-138.26 130.67,-128.56"/>
<polygon fill="midnightblue" stroke="midnightblue" points="130.94,-125.07 120.6,-127.4 130.14,-132.02 130.94,-125.07"/>
</g>
<!-- Node14&#45;&gt;Node7 -->
<g id="edge26" class="edge">
<title>Node14&#45;&gt;Node7</title>
<path fill="none" stroke="midnightblue" d="M520.18,-170.81C570.73,-161.65 665.99,-144.38 727.15,-133.3"/>
<polygon fill="midnightblue" stroke="midnightblue" points="727.82,-136.74 737.03,-131.51 726.57,-129.85 727.82,-136.74"/>
</g>
<!-- Node15 -->
<g id="node15" class="node">
<title>Node15</title>
<g id="a_node15"><a xlink:title=" ">
<polygon fill="none" stroke="#bfbfbf" points="313,-56.5 313,-75.5 363,-75.5 363,-56.5 313,-56.5"/>
<text text-anchor="middle" x="338" y="-63.5" font-family="Helvetica,sans-Serif" font-size="10.00">optional</text>
</a>
</g>
</g>
<!-- Node14&#45;&gt;Node15 -->
<g id="edge16" class="edge">
<title>Node14&#45;&gt;Node15</title>
<path fill="none" stroke="midnightblue" d="M455.54,-168.37C433.93,-161.17 405.13,-149.27 384,-132 368,-118.92 355,-98.95 346.95,-84.6"/>
<polygon fill="midnightblue" stroke="midnightblue" points="350,-82.88 342.2,-75.71 343.83,-86.18 350,-82.88"/>
</g>
<!-- Node16 -->
<g id="node16" class="node">
<title>Node16</title>
<g id="a_node16"><a xlink:title=" ">
<polygon fill="none" stroke="#bfbfbf" points="515.5,-112.5 515.5,-131.5 566.5,-131.5 566.5,-112.5 515.5,-112.5"/>
<text text-anchor="middle" x="541" y="-119.5" font-family="Helvetica,sans-Serif" font-size="10.00">typeinfo</text>
</a>
</g>
</g>
<!-- Node14&#45;&gt;Node16 -->
<g id="edge17" class="edge">
<title>Node14&#45;&gt;Node16</title>
<path fill="none" stroke="midnightblue" d="M495.08,-168.08C503.17,-160.14 515.2,-148.34 524.91,-138.8"/>
<polygon fill="midnightblue" stroke="midnightblue" points="527.4,-141.25 532.09,-131.75 522.5,-136.26 527.4,-141.25"/>
</g>
<!-- Node17 -->
<g id="node17" class="node">
<title>Node17</title>
<g id="a_node17"><a xlink:href="bwFunctorInterface_8h.html" target="_top" xlink:title=" ">
<polygon fill="none" stroke="black" points="584.5,-112.5 584.5,-131.5 693.5,-131.5 693.5,-112.5 584.5,-112.5"/>
<text text-anchor="middle" x="639" y="-119.5" font-family="Helvetica,sans-Serif" font-size="10.00">bwFunctorInterface.h</text>
</a>
</g>
</g>
<!-- Node14&#45;&gt;Node17 -->
<g id="edge19" class="edge">
<title>Node14&#45;&gt;Node17</title>
<path fill="none" stroke="midnightblue" d="M510.24,-168.44C535.87,-159.4 576.49,-145.06 605.24,-134.92"/>
<polygon fill="midnightblue" stroke="midnightblue" points="606.61,-138.15 614.87,-131.52 604.28,-131.54 606.61,-138.15"/>
</g>
<!-- Node18 -->
<g id="node18" class="node">
<title>Node18</title>
<g id="a_node18"><a xlink:href="bwRectangle_8h.html" target="_top" xlink:title=" ">
<polygon fill="none" stroke="black" points="255,-112.5 255,-131.5 337,-131.5 337,-112.5 255,-112.5"/>
<text text-anchor="middle" x="296" y="-119.5" font-family="Helvetica,sans-Serif" font-size="10.00">bwRectangle.h</text>
</a>
</g>
</g>
<!-- Node14&#45;&gt;Node18 -->
<g id="edge20" class="edge">
<title>Node14&#45;&gt;Node18</title>
<path fill="none" stroke="midnightblue" d="M455.89,-168.44C423.37,-159.2 371.42,-144.44 335.61,-134.26"/>
<polygon fill="midnightblue" stroke="midnightblue" points="336.54,-130.88 325.97,-131.52 334.63,-137.62 336.54,-130.88"/>
</g>
<!-- Node19 -->
<g id="node19" class="node">
<title>Node19</title>
<g id="a_node19"><a xlink:href="bwStyleProperties_8h.html" target="_top" xlink:title=" ">
<polygon fill="none" stroke="black" points="393,-112.5 393,-131.5 497,-131.5 497,-112.5 393,-112.5"/>
<text text-anchor="middle" x="445" y="-119.5" font-family="Helvetica,sans-Serif" font-size="10.00">bwStyleProperties.h</text>
</a>
</g>
</g>
<!-- Node14&#45;&gt;Node19 -->
<g id="edge21" class="edge">
<title>Node14&#45;&gt;Node19</title>
<path fill="none" stroke="midnightblue" d="M479.23,-168.08C473.44,-160.46 464.94,-149.26 457.86,-139.94"/>
<polygon fill="midnightblue" stroke="midnightblue" points="460.48,-137.6 451.64,-131.75 454.9,-141.83 460.48,-137.6"/>
</g>
<!-- Node19&#45;&gt;Node6 -->
<g id="edge25" class="edge">
<title>Node19&#45;&gt;Node6</title>
<path fill="none" stroke="midnightblue" d="M437.84,-112.43C425.73,-98.5 399.79,-70.96 372,-56 327.9,-32.26 270.48,-20.43 235.2,-15.02"/>
<polygon fill="midnightblue" stroke="midnightblue" points="235.4,-11.51 225,-13.54 234.4,-18.44 235.4,-11.51"/>
</g>
<!-- Node19&#45;&gt;Node15 -->
<g id="edge23" class="edge">
<title>Node19&#45;&gt;Node15</title>
<path fill="none" stroke="midnightblue" d="M427.81,-112.32C410.65,-103.66 384.05,-90.24 364.25,-80.25"/>
<polygon fill="midnightblue" stroke="midnightblue" points="365.65,-77.04 355.15,-75.65 362.5,-83.28 365.65,-77.04"/>
</g>
<!-- Node20 -->
<g id="node20" class="node">
<title>Node20</title>
<g id="a_node20"><a xlink:title=" ">
<polygon fill="none" stroke="#bfbfbf" points="419,-56.5 419,-75.5 471,-75.5 471,-56.5 419,-56.5"/>
<text text-anchor="middle" x="445" y="-63.5" font-family="Helvetica,sans-Serif" font-size="10.00">memory</text>
</a>
</g>
</g>
<!-- Node19&#45;&gt;Node20 -->
<g id="edge22" class="edge">
<title>Node19&#45;&gt;Node20</title>
<path fill="none" stroke="midnightblue" d="M445,-112.08C445,-105.01 445,-94.86 445,-85.99"/>
<polygon fill="midnightblue" stroke="midnightblue" points="448.5,-85.75 445,-75.75 441.5,-85.75 448.5,-85.75"/>
</g>
<!-- Node21 -->
<g id="node21" class="node">
<title>Node21</title>
<g id="a_node21"><a xlink:title=" ">
<polygon fill="none" stroke="#bfbfbf" points="489.5,-56.5 489.5,-75.5 530.5,-75.5 530.5,-56.5 489.5,-56.5"/>
<text text-anchor="middle" x="510" y="-63.5" font-family="Helvetica,sans-Serif" font-size="10.00">string</text>
</a>
</g>
</g>
<!-- Node19&#45;&gt;Node21 -->
<g id="edge24" class="edge">
<title>Node19&#45;&gt;Node21</title>
<path fill="none" stroke="midnightblue" d="M455.44,-112.32C465.15,-104.26 479.82,-92.08 491.5,-82.37"/>
<polygon fill="midnightblue" stroke="midnightblue" points="493.91,-84.92 499.37,-75.83 489.44,-79.53 493.91,-84.92"/>
</g>
<!-- Node23 -->
<g id="node23" class="node">
<title>Node23</title>
<g id="a_node23"><a xlink:href="bwColor_8h.html" target="_top" xlink:title=" ">
<polygon fill="none" stroke="black" points="177,-112.5 177,-131.5 237,-131.5 237,-112.5 177,-112.5"/>
<text text-anchor="middle" x="207" y="-119.5" font-family="Helvetica,sans-Serif" font-size="10.00">bwColor.h</text>
</a>
</g>
</g>
<!-- Node22&#45;&gt;Node23 -->
<g id="edge28" class="edge">
<title>Node22&#45;&gt;Node23</title>
<path fill="none" stroke="midnightblue" d="M350.06,-168.44C321.34,-159.32 275.67,-144.81 243.68,-134.65"/>
<polygon fill="midnightblue" stroke="midnightblue" points="244.4,-131.21 233.81,-131.52 242.28,-137.88 244.4,-131.21"/>
</g>
<!-- Node24&#45;&gt;Node18 -->
<g id="edge30" class="edge">
<title>Node24&#45;&gt;Node18</title>
<path fill="none" stroke="midnightblue" d="M257.6,-168.08C264.23,-160.3 274.02,-148.8 282.06,-139.37"/>
<polygon fill="midnightblue" stroke="midnightblue" points="284.73,-141.63 288.55,-131.75 279.4,-137.09 284.73,-141.63"/>
</g>
<!-- Node26 -->
<g id="node26" class="node">
<title>Node26</title>
<g id="a_node26"><a xlink:href="bwContext_8h.html" target="_top" xlink:title=" ">
<polygon fill="none" stroke="black" points="155,-224.5 155,-243.5 227,-243.5 227,-224.5 155,-224.5"/>
<text text-anchor="middle" x="191" y="-231.5" font-family="Helvetica,sans-Serif" font-size="10.00">bwContext.h</text>
</a>
</g>
</g>
<!-- Node25&#45;&gt;Node26 -->
<g id="edge33" class="edge">
<title>Node25&#45;&gt;Node26</title>
<path fill="none" stroke="midnightblue" d="M183.49,-280.08C184.68,-272.93 186.39,-262.64 187.88,-253.69"/>
<polygon fill="midnightblue" stroke="midnightblue" points="191.35,-254.19 189.54,-243.75 184.45,-253.04 191.35,-254.19"/>
</g>
<!-- Node25&#45;&gt;Node27 -->
<g id="edge34" class="edge">
<title>Node25&#45;&gt;Node27</title>
<path fill="none" stroke="midnightblue" d="M165.93,-280.32C150.04,-271.74 125.49,-258.49 107.04,-248.52"/>
<polygon fill="midnightblue" stroke="midnightblue" points="108.49,-245.33 98.03,-243.65 105.16,-251.49 108.49,-245.33"/>
</g>
<!-- Node27&#45;&gt;Node3 -->
<g id="edge36" class="edge">
<title>Node27&#45;&gt;Node3</title>
<path fill="none" stroke="midnightblue" d="M82,-224.08C82,-217.01 82,-206.86 82,-197.99"/>
<polygon fill="midnightblue" stroke="midnightblue" points="85.5,-197.75 82,-187.75 78.5,-197.75 85.5,-197.75"/>
</g>
<!-- Node27&#45;&gt;Node5 -->
<g id="edge37" class="edge">
<title>Node27&#45;&gt;Node5</title>
<path fill="none" stroke="midnightblue" d="M71.63,-224.45C62.21,-216.11 48.66,-202.6 41,-188 29.12,-165.38 30.91,-157.38 28,-132 26.99,-123.17 26.07,-120.68 28,-112 30.12,-102.43 34.51,-92.48 38.72,-84.37"/>
<polygon fill="midnightblue" stroke="midnightblue" points="41.82,-86 43.62,-75.56 35.7,-82.6 41.82,-86"/>
</g>
<!-- Node27&#45;&gt;Node15 -->
<g id="edge35" class="edge">
<title>Node27&#45;&gt;Node15</title>
<path fill="none" stroke="midnightblue" d="M90.73,-224.5C99.44,-215.78 112.95,-201.6 123,-188 146.34,-156.44 136.69,-135.68 168,-112 207.67,-82 265.7,-71.96 302.65,-68.62"/>
<polygon fill="midnightblue" stroke="midnightblue" points="303.25,-72.09 312.94,-67.82 302.7,-65.11 303.25,-72.09"/>
</g>
</g>
</svg>
