<?xml version="1.0" encoding="UTF-8" standalone="no"?>
<!DOCTYPE svg PUBLIC "-//W3C//DTD SVG 1.1//EN"
 "http://www.w3.org/Graphics/SVG/1.1/DTD/svg11.dtd">
<!-- Generated by graphviz version 2.50.0 (20211204.2007)
 -->
<!-- Title: bwidgets/generics/bwGradient.h Pages: 1 -->
<svg width="172pt" height="84pt"
 viewBox="0.00 0.00 172.00 84.00" xmlns="http://www.w3.org/2000/svg" xmlns:xlink="http://www.w3.org/1999/xlink">
<g id="graph0" class="graph" transform="scale(1 1) rotate(0) translate(4 80)">
<title>bwidgets/generics/bwGradient.h</title>
<!-- Node1 -->
<g id="node1" class="node">
<title>Node1</title>
<g id="a_node1"><a xlink:title=" ">
<polygon fill="#bfbfbf" stroke="black" points="0,-56.5 0,-75.5 156,-75.5 156,-56.5 0,-56.5"/>
<text text-anchor="middle" x="78" y="-63.5" font-family="Helvetica,sans-Serif" font-size="10.00">bwidgets/generics/bwGradient.h</text>
</a>
</g>
</g>
<!-- Node2 -->
<g id="node2" class="node">
<title>Node2</title>
<g id="a_node2"><a xlink:href="bwColor_8h.html" target="_top" xlink:title=" ">
<polygon fill="none" stroke="black" points="4,-0.5 4,-19.5 64,-19.5 64,-0.5 4,-0.5"/>
<text text-anchor="middle" x="34" y="-7.5" font-family="Helvetica,sans-Serif" font-size="10.00">bwColor.h</text>
</a>
</g>
</g>
<!-- Node1&#45;&gt;Node2 -->
<g id="edge1" class="edge">
<title>Node1&#45;&gt;Node2</title>
<path fill="none" stroke="midnightblue" d="M70.73,-56.08C64.46,-48.38 55.21,-37.03 47.57,-27.65"/>
<polygon fill="midnightblue" stroke="midnightblue" points="50.16,-25.29 41.13,-19.75 44.73,-29.71 50.16,-25.29"/>
</g>
<!-- Node3 -->
<g id="node3" class="node">
<title>Node3</title>
<g id="a_node3"><a xlink:href="bwRectangle_8h.html" target="_top" xlink:title=" ">
<polygon fill="none" stroke="black" points="82,-0.5 82,-19.5 164,-19.5 164,-0.5 82,-0.5"/>
<text text-anchor="middle" x="123" y="-7.5" font-family="Helvetica,sans-Serif" font-size="10.00">bwRectangle.h</text>
</a>
</g>
</g>
<!-- Node1&#45;&gt;Node3 -->
<g id="edge2" class="edge">
<title>Node1&#45;&gt;Node3</title>
<path fill="none" stroke="midnightblue" d="M85.43,-56.08C91.85,-48.38 101.31,-37.03 109.12,-27.65"/>
<polygon fill="midnightblue" stroke="midnightblue" points="111.99,-29.67 115.71,-19.75 106.62,-25.19 111.99,-29.67"/>
</g>
</g>
</svg>
