<?xml version="1.0" encoding="UTF-8" standalone="no"?>
<!DOCTYPE svg PUBLIC "-//W3C//DTD SVG 1.1//EN"
 "http://www.w3.org/Graphics/SVG/1.1/DTD/svg11.dtd">
<!-- Generated by graphviz version 2.50.0 (20211204.2007)
 -->
<!-- Title: bwidgets/bwIconInterface.h Pages: 1 -->
<svg width="2138pt" height="151pt"
 viewBox="0.00 0.00 2137.50 151.00" xmlns="http://www.w3.org/2000/svg" xmlns:xlink="http://www.w3.org/1999/xlink">
<g id="graph0" class="graph" transform="scale(1 1) rotate(0) translate(4 147)">
<title>bwidgets/bwIconInterface.h</title>
<!-- Node1 -->
<g id="node1" class="node">
<title>Node1</title>
<g id="a_node1"><a xlink:title=" ">
<polygon fill="#bfbfbf" stroke="black" points="923,-123.5 923,-142.5 1060,-142.5 1060,-123.5 923,-123.5"/>
<text text-anchor="middle" x="991.5" y="-130.5" font-family="Helvetica,sans-Serif" font-size="10.00">bwidgets/bwIconInterface.h</text>
</a>
</g>
</g>
<!-- Node2 -->
<g id="node2" class="node">
<title>Node2</title>
<g id="a_node2"><a xlink:href="bwPainter_8h.html" target="_top" xlink:title=" ">
<polygon fill="none" stroke="black" points="936.5,-67.5 936.5,-86.5 1046.5,-86.5 1046.5,-67.5 936.5,-67.5"/>
<text text-anchor="middle" x="991.5" y="-74.5" font-family="Helvetica,sans-Serif" font-size="10.00">bwidgets/bwPainter.h</text>
</a>
</g>
</g>
<!-- Node1&#45;&gt;Node2 -->
<g id="edge1" class="edge">
<title>Node1&#45;&gt;Node2</title>
<path fill="none" stroke="midnightblue" d="M991.5,-112.8C991.5,-103.91 991.5,-93.78 991.5,-86.75"/>
<polygon fill="midnightblue" stroke="midnightblue" points="988,-113.08 991.5,-123.08 995,-113.08 988,-113.08"/>
</g>
<!-- Node3 -->
<g id="node3" class="node">
<title>Node3</title>
<g id="a_node3"><a xlink:href="bwPainter_8cc.html" target="_top" xlink:title=" ">
<polygon fill="none" stroke="black" points="0,-6 0,-25 115,-25 115,-6 0,-6"/>
<text text-anchor="middle" x="57.5" y="-13" font-family="Helvetica,sans-Serif" font-size="10.00">bwidgets/bwPainter.cc</text>
</a>
</g>
</g>
<!-- Node2&#45;&gt;Node3 -->
<g id="edge2" class="edge">
<title>Node2&#45;&gt;Node3</title>
<path fill="none" stroke="midnightblue" d="M926.31,-76.27C781.31,-76.07 421.42,-71.17 123.5,-31 112.92,-29.57 101.52,-27.33 91.22,-25.03"/>
<polygon fill="midnightblue" stroke="midnightblue" points="926.37,-79.77 936.37,-76.28 926.37,-72.77 926.37,-79.77"/>
</g>
<!-- Node4 -->
<g id="node4" class="node">
<title>Node4</title>
<g id="a_node4"><a xlink:href="Drawer_8cc.html" target="_top" xlink:title=" ">
<polygon fill="none" stroke="black" points="133,-0.5 133,-30.5 250,-30.5 250,-0.5 133,-0.5"/>
<text text-anchor="start" x="141" y="-18.5" font-family="Helvetica,sans-Serif" font-size="10.00">bwidgets/screen_graph</text>
<text text-anchor="middle" x="191.5" y="-7.5" font-family="Helvetica,sans-Serif" font-size="10.00">/Drawer.cc</text>
</a>
</g>
</g>
<!-- Node2&#45;&gt;Node4 -->
<g id="edge3" class="edge">
<title>Node2&#45;&gt;Node4</title>
<path fill="none" stroke="midnightblue" d="M925.97,-75.31C797.38,-73.21 503.21,-64.79 258.5,-31 255.79,-30.63 253.02,-30.2 250.24,-29.74"/>
<polygon fill="midnightblue" stroke="midnightblue" points="925.99,-78.81 936.05,-75.46 926.1,-71.81 925.99,-78.81"/>
</g>
<!-- Node5 -->
<g id="node5" class="node">
<title>Node5</title>
<g id="a_node5"><a xlink:href="bwStyleCSS_8cc.html" target="_top" xlink:title=" ">
<polygon fill="none" stroke="black" points="268,-0.5 268,-30.5 393,-30.5 393,-0.5 268,-0.5"/>
<text text-anchor="start" x="276" y="-18.5" font-family="Helvetica,sans-Serif" font-size="10.00">bwidgets/styling/bwStyle</text>
<text text-anchor="middle" x="330.5" y="-7.5" font-family="Helvetica,sans-Serif" font-size="10.00">CSS.cc</text>
</a>
</g>
</g>
<!-- Node2&#45;&gt;Node5 -->
<g id="edge4" class="edge">
<title>Node2&#45;&gt;Node5</title>
<path fill="none" stroke="midnightblue" d="M926.28,-73.63C817.35,-69.08 591.7,-57.18 402.5,-31 399.47,-30.58 396.37,-30.11 393.25,-29.61"/>
<polygon fill="midnightblue" stroke="midnightblue" points="926.31,-77.13 936.45,-74.05 926.6,-70.14 926.31,-77.13"/>
</g>
<!-- Node6 -->
<g id="node6" class="node">
<title>Node6</title>
<g id="a_node6"><a xlink:href="bwWidgetBaseStyle_8cc.html" target="_top" xlink:title=" ">
<polygon fill="none" stroke="black" points="411.5,-0.5 411.5,-30.5 545.5,-30.5 545.5,-0.5 411.5,-0.5"/>
<text text-anchor="start" x="419.5" y="-18.5" font-family="Helvetica,sans-Serif" font-size="10.00">bwidgets/styling/bwWidget</text>
<text text-anchor="middle" x="478.5" y="-7.5" font-family="Helvetica,sans-Serif" font-size="10.00">BaseStyle.cc</text>
</a>
</g>
</g>
<!-- Node2&#45;&gt;Node6 -->
<g id="edge5" class="edge">
<title>Node2&#45;&gt;Node6</title>
<path fill="none" stroke="midnightblue" d="M926.38,-71.05C840.8,-64.15 685.93,-50.27 554.5,-31 551.58,-30.57 548.59,-30.11 545.58,-29.62"/>
<polygon fill="midnightblue" stroke="midnightblue" points="926.22,-74.55 936.47,-71.86 926.78,-67.57 926.22,-74.55"/>
</g>
<!-- Node7 -->
<g id="node7" class="node">
<title>Node7</title>
<g id="a_node7"><a xlink:href="bwStyleClassic_8cc.html" target="_top" xlink:title=" ">
<polygon fill="none" stroke="black" points="563.5,-0.5 563.5,-30.5 679.5,-30.5 679.5,-0.5 563.5,-0.5"/>
<text text-anchor="start" x="571.5" y="-18.5" font-family="Helvetica,sans-Serif" font-size="10.00">bwidgets/styling/styles</text>
<text text-anchor="middle" x="621.5" y="-7.5" font-family="Helvetica,sans-Serif" font-size="10.00">/bwStyleClassic.cc</text>
</a>
</g>
</g>
<!-- Node2&#45;&gt;Node7 -->
<g id="edge6" class="edge">
<title>Node2&#45;&gt;Node7</title>
<path fill="none" stroke="midnightblue" d="M926.35,-67.58C864.85,-59.34 770.15,-45.88 688.5,-31 685.57,-30.47 682.58,-29.9 679.56,-29.31"/>
<polygon fill="midnightblue" stroke="midnightblue" points="925.93,-71.06 936.31,-68.91 926.86,-64.12 925.93,-71.06"/>
</g>
<!-- Node8 -->
<g id="node8" class="node">
<title>Node8</title>
<g id="a_node8"><a xlink:href="bwStyleFlatGrey_8cc.html" target="_top" xlink:title=" ">
<polygon fill="none" stroke="black" points="697.5,-0.5 697.5,-30.5 813.5,-30.5 813.5,-0.5 697.5,-0.5"/>
<text text-anchor="start" x="705.5" y="-18.5" font-family="Helvetica,sans-Serif" font-size="10.00">bwidgets/styling/styles</text>
<text text-anchor="middle" x="755.5" y="-7.5" font-family="Helvetica,sans-Serif" font-size="10.00">/bwStyleFlatGrey.cc</text>
</a>
</g>
</g>
<!-- Node2&#45;&gt;Node8 -->
<g id="edge7" class="edge">
<title>Node2&#45;&gt;Node8</title>
<path fill="none" stroke="midnightblue" d="M947.8,-64.98C909.26,-55.27 852.88,-41.05 811.12,-30.52"/>
<polygon fill="midnightblue" stroke="midnightblue" points="947.13,-68.42 957.69,-67.48 948.85,-61.64 947.13,-68.42"/>
</g>
<!-- Node9 -->
<g id="node9" class="node">
<title>Node9</title>
<g id="a_node9"><a xlink:href="bwAbstractButton_8cc.html" target="_top" xlink:title=" ">
<polygon fill="none" stroke="black" points="832,-0.5 832,-30.5 977,-30.5 977,-0.5 832,-0.5"/>
<text text-anchor="start" x="840" y="-18.5" font-family="Helvetica,sans-Serif" font-size="10.00">bwidgets/widgets/bwAbstract</text>
<text text-anchor="middle" x="904.5" y="-7.5" font-family="Helvetica,sans-Serif" font-size="10.00">Button.cc</text>
</a>
</g>
</g>
<!-- Node2&#45;&gt;Node9 -->
<g id="edge8" class="edge">
<title>Node2&#45;&gt;Node9</title>
<path fill="none" stroke="midnightblue" d="M970.65,-61.74C956.82,-52.28 938.76,-39.93 925,-30.52"/>
<polygon fill="midnightblue" stroke="midnightblue" points="968.8,-64.72 979.04,-67.48 972.76,-58.94 968.8,-64.72"/>
</g>
<!-- Node10 -->
<g id="node10" class="node">
<title>Node10</title>
<g id="a_node10"><a xlink:href="bwCheckbox_8cc.html" target="_top" xlink:title=" ">
<polygon fill="none" stroke="black" points="995.5,-6 995.5,-25 1161.5,-25 1161.5,-6 995.5,-6"/>
<text text-anchor="middle" x="1078.5" y="-13" font-family="Helvetica,sans-Serif" font-size="10.00">bwidgets/widgets/bwCheckbox.cc</text>
</a>
</g>
</g>
<!-- Node2&#45;&gt;Node10 -->
<g id="edge9" class="edge">
<title>Node2&#45;&gt;Node10</title>
<path fill="none" stroke="midnightblue" d="M1012.54,-61.61C1029.27,-50.17 1052.11,-34.55 1066.06,-25.01"/>
<polygon fill="midnightblue" stroke="midnightblue" points="1010.24,-58.94 1003.96,-67.48 1014.2,-64.72 1010.24,-58.94"/>
</g>
<!-- Node11 -->
<g id="node11" class="node">
<title>Node11</title>
<g id="a_node11"><a xlink:href="bwLabel_8cc.html" target="_top" xlink:title=" ">
<polygon fill="none" stroke="black" points="1180,-6 1180,-25 1325,-25 1325,-6 1180,-6"/>
<text text-anchor="middle" x="1252.5" y="-13" font-family="Helvetica,sans-Serif" font-size="10.00">bwidgets/widgets/bwLabel.cc</text>
</a>
</g>
</g>
<!-- Node2&#45;&gt;Node11 -->
<g id="edge10" class="edge">
<title>Node2&#45;&gt;Node11</title>
<path fill="none" stroke="midnightblue" d="M1038.94,-65.19C1089.58,-53.64 1168.79,-35.58 1215.17,-25.01"/>
<polygon fill="midnightblue" stroke="midnightblue" points="1037.87,-61.84 1028.89,-67.48 1039.42,-68.66 1037.87,-61.84"/>
</g>
<!-- Node12 -->
<g id="node12" class="node">
<title>Node12</title>
<g id="a_node12"><a xlink:href="bwNumberSlider_8cc.html" target="_top" xlink:title=" ">
<polygon fill="none" stroke="black" points="1343,-0.5 1343,-30.5 1486,-30.5 1486,-0.5 1343,-0.5"/>
<text text-anchor="start" x="1351" y="-18.5" font-family="Helvetica,sans-Serif" font-size="10.00">bwidgets/widgets/bwNumber</text>
<text text-anchor="middle" x="1414.5" y="-7.5" font-family="Helvetica,sans-Serif" font-size="10.00">Slider.cc</text>
</a>
</g>
</g>
<!-- Node2&#45;&gt;Node12 -->
<g id="edge11" class="edge">
<title>Node2&#45;&gt;Node12</title>
<path fill="none" stroke="midnightblue" d="M1056.86,-68.39C1125.98,-60.11 1238.12,-46.05 1334.5,-31 1337.29,-30.56 1340.13,-30.11 1343,-29.64"/>
<polygon fill="midnightblue" stroke="midnightblue" points="1056.08,-64.96 1046.57,-69.62 1056.91,-71.91 1056.08,-64.96"/>
</g>
<!-- Node13 -->
<g id="node13" class="node">
<title>Node13</title>
<g id="a_node13"><a xlink:href="bwPanel_8cc.html" target="_top" xlink:title=" ">
<polygon fill="none" stroke="black" points="1504.5,-6 1504.5,-25 1650.5,-25 1650.5,-6 1504.5,-6"/>
<text text-anchor="middle" x="1577.5" y="-13" font-family="Helvetica,sans-Serif" font-size="10.00">bwidgets/widgets/bwPanel.cc</text>
</a>
</g>
</g>
<!-- Node2&#45;&gt;Node13 -->
<g id="edge12" class="edge">
<title>Node2&#45;&gt;Node13</title>
<path fill="none" stroke="midnightblue" d="M1057.03,-71.95C1153.38,-65.6 1338.8,-51.81 1495.5,-31 1507.82,-29.36 1521.12,-27.19 1533.35,-25.02"/>
<polygon fill="midnightblue" stroke="midnightblue" points="1056.61,-68.47 1046.86,-72.62 1057.07,-75.46 1056.61,-68.47"/>
</g>
<!-- Node14 -->
<g id="node14" class="node">
<title>Node14</title>
<g id="a_node14"><a xlink:href="bwScrollBar_8cc.html" target="_top" xlink:title=" ">
<polygon fill="none" stroke="black" points="1669,-0.5 1669,-30.5 1802,-30.5 1802,-0.5 1669,-0.5"/>
<text text-anchor="start" x="1677" y="-18.5" font-family="Helvetica,sans-Serif" font-size="10.00">bwidgets/widgets/bwScroll</text>
<text text-anchor="middle" x="1735.5" y="-7.5" font-family="Helvetica,sans-Serif" font-size="10.00">Bar.cc</text>
</a>
</g>
</g>
<!-- Node2&#45;&gt;Node14 -->
<g id="edge13" class="edge">
<title>Node2&#45;&gt;Node14</title>
<path fill="none" stroke="midnightblue" d="M1056.82,-74.23C1176.68,-70.39 1439.66,-59.27 1659.5,-31 1662.56,-30.61 1665.69,-30.17 1668.85,-29.69"/>
<polygon fill="midnightblue" stroke="midnightblue" points="1056.59,-70.73 1046.71,-74.54 1056.81,-77.73 1056.59,-70.73"/>
</g>
<!-- Node15 -->
<g id="node15" class="node">
<title>Node15</title>
<g id="a_node15"><a xlink:href="bwScrollView_8cc.html" target="_top" xlink:title=" ">
<polygon fill="none" stroke="black" points="1820,-0.5 1820,-30.5 1953,-30.5 1953,-0.5 1820,-0.5"/>
<text text-anchor="start" x="1828" y="-18.5" font-family="Helvetica,sans-Serif" font-size="10.00">bwidgets/widgets/bwScroll</text>
<text text-anchor="middle" x="1886.5" y="-7.5" font-family="Helvetica,sans-Serif" font-size="10.00">View.cc</text>
</a>
</g>
</g>
<!-- Node2&#45;&gt;Node15 -->
<g id="edge14" class="edge">
<title>Node2&#45;&gt;Node15</title>
<path fill="none" stroke="midnightblue" d="M1057.01,-75.43C1196.36,-73.54 1532.3,-65.49 1811.5,-31 1814.26,-30.66 1817.08,-30.28 1819.92,-29.86"/>
<polygon fill="midnightblue" stroke="midnightblue" points="1056.87,-71.93 1046.92,-75.56 1056.96,-78.93 1056.87,-71.93"/>
</g>
<!-- Node16 -->
<g id="node16" class="node">
<title>Node16</title>
<g id="a_node16"><a xlink:href="bwTextBox_8cc.html" target="_top" xlink:title=" ">
<polygon fill="none" stroke="black" points="1971.5,-6 1971.5,-25 2129.5,-25 2129.5,-6 1971.5,-6"/>
<text text-anchor="middle" x="2050.5" y="-13" font-family="Helvetica,sans-Serif" font-size="10.00">bwidgets/widgets/bwTextBox.cc</text>
</a>
</g>
</g>
<!-- Node2&#45;&gt;Node16 -->
<g id="edge15" class="edge">
<title>Node2&#45;&gt;Node16</title>
<path fill="none" stroke="midnightblue" d="M1057.1,-75.6C1213.99,-74.08 1623.1,-66.7 1962.5,-31 1976.36,-29.54 1991.35,-27.32 2004.96,-25.04"/>
<polygon fill="midnightblue" stroke="midnightblue" points="1056.66,-72.11 1046.69,-75.7 1056.72,-79.11 1056.66,-72.11"/>
</g>
</g>
</svg>
