<?xml version="1.0" encoding="UTF-8" standalone="no"?>
<!DOCTYPE svg PUBLIC "-//W3C//DTD SVG 1.1//EN"
 "http://www.w3.org/Graphics/SVG/1.1/DTD/svg11.dtd">
<!-- Generated by graphviz version 2.50.0 (20211204.2007)
 -->
<!-- Title: bwidgets/widgets/bwLabel.cc Pages: 1 -->
<svg width="1178pt" height="308pt"
 viewBox="0.00 0.00 1178.00 308.00" xmlns="http://www.w3.org/2000/svg" xmlns:xlink="http://www.w3.org/1999/xlink">
<g id="graph0" class="graph" transform="scale(1 1) rotate(0) translate(4 304)">
<title>bwidgets/widgets/bwLabel.cc</title>
<!-- Node1 -->
<g id="node1" class="node">
<title>Node1</title>
<g id="a_node1"><a xlink:title=" ">
<polygon fill="#bfbfbf" stroke="black" points="201,-280.5 201,-299.5 346,-299.5 346,-280.5 201,-280.5"/>
<text text-anchor="middle" x="273.5" y="-287.5" font-family="Helvetica,sans-Serif" font-size="10.00">bwidgets/widgets/bwLabel.cc</text>
</a>
</g>
</g>
<!-- Node2 -->
<g id="node2" class="node">
<title>Node2</title>
<g id="a_node2"><a xlink:title=" ">
<polygon fill="none" stroke="#bfbfbf" points="103.5,-224.5 103.5,-243.5 147.5,-243.5 147.5,-224.5 103.5,-224.5"/>
<text text-anchor="middle" x="125.5" y="-231.5" font-family="Helvetica,sans-Serif" font-size="10.00">cmath</text>
</a>
</g>
</g>
<!-- Node1&#45;&gt;Node2 -->
<g id="edge1" class="edge">
<title>Node1&#45;&gt;Node2</title>
<path fill="none" stroke="midnightblue" d="M250.05,-280.44C225.08,-271.33 185.39,-256.85 157.55,-246.69"/>
<polygon fill="midnightblue" stroke="midnightblue" points="158.47,-243.3 147.87,-243.16 156.07,-249.88 158.47,-243.3"/>
</g>
<!-- Node3 -->
<g id="node3" class="node">
<title>Node3</title>
<g id="a_node3"><a xlink:href="bwPainter_8h.html" target="_top" xlink:title=" ">
<polygon fill="none" stroke="black" points="165.5,-224.5 165.5,-243.5 233.5,-243.5 233.5,-224.5 165.5,-224.5"/>
<text text-anchor="middle" x="199.5" y="-231.5" font-family="Helvetica,sans-Serif" font-size="10.00">bwPainter.h</text>
</a>
</g>
</g>
<!-- Node1&#45;&gt;Node3 -->
<g id="edge2" class="edge">
<title>Node1&#45;&gt;Node3</title>
<path fill="none" stroke="midnightblue" d="M261.61,-280.32C250.35,-272.11 233.21,-259.6 219.79,-249.81"/>
<polygon fill="midnightblue" stroke="midnightblue" points="221.75,-246.9 211.61,-243.83 217.62,-252.56 221.75,-246.9"/>
</g>
<!-- Node11 -->
<g id="node11" class="node">
<title>Node11</title>
<g id="a_node11"><a xlink:href="bwStyle_8h.html" target="_top" xlink:title=" ">
<polygon fill="none" stroke="black" points="895.5,-112.5 895.5,-131.5 955.5,-131.5 955.5,-112.5 895.5,-112.5"/>
<text text-anchor="middle" x="925.5" y="-119.5" font-family="Helvetica,sans-Serif" font-size="10.00">bwStyle.h</text>
</a>
</g>
</g>
<!-- Node1&#45;&gt;Node11 -->
<g id="edge10" class="edge">
<title>Node1&#45;&gt;Node11</title>
<path fill="none" stroke="midnightblue" d="M307.18,-280.42C417.4,-252.36 767.04,-163.34 885.68,-133.14"/>
<polygon fill="midnightblue" stroke="midnightblue" points="886.62,-136.51 895.45,-130.65 884.89,-129.73 886.62,-136.51"/>
</g>
<!-- Node13 -->
<g id="node13" class="node">
<title>Node13</title>
<g id="a_node13"><a xlink:href="bwLabel_8h.html" target="_top" xlink:title=" ">
<polygon fill="none" stroke="black" points="318,-224.5 318,-243.5 379,-243.5 379,-224.5 318,-224.5"/>
<text text-anchor="middle" x="348.5" y="-231.5" font-family="Helvetica,sans-Serif" font-size="10.00">bwLabel.h</text>
</a>
</g>
</g>
<!-- Node1&#45;&gt;Node13 -->
<g id="edge13" class="edge">
<title>Node1&#45;&gt;Node13</title>
<path fill="none" stroke="midnightblue" d="M285.55,-280.32C296.96,-272.11 314.33,-259.6 327.93,-249.81"/>
<polygon fill="midnightblue" stroke="midnightblue" points="330.16,-252.52 336.23,-243.83 326.07,-246.84 330.16,-252.52"/>
</g>
<!-- Node4 -->
<g id="node4" class="node">
<title>Node4</title>
<g id="a_node4"><a xlink:title=" ">
<polygon fill="none" stroke="#bfbfbf" points="253.5,-56.5 253.5,-75.5 305.5,-75.5 305.5,-56.5 253.5,-56.5"/>
<text text-anchor="middle" x="279.5" y="-63.5" font-family="Helvetica,sans-Serif" font-size="10.00">memory</text>
</a>
</g>
</g>
<!-- Node3&#45;&gt;Node4 -->
<g id="edge3" class="edge">
<title>Node3&#45;&gt;Node4</title>
<path fill="none" stroke="midnightblue" d="M195.01,-224.26C184.83,-203.12 162.62,-148.32 185.5,-112 198.18,-91.87 222.63,-80.55 243.42,-74.3"/>
<polygon fill="midnightblue" stroke="midnightblue" points="244.53,-77.62 253.26,-71.62 242.69,-70.87 244.53,-77.62"/>
</g>
<!-- Node5 -->
<g id="node5" class="node">
<title>Node5</title>
<g id="a_node5"><a xlink:title=" ">
<polygon fill="none" stroke="#bfbfbf" points="410,-56.5 410,-75.5 451,-75.5 451,-56.5 410,-56.5"/>
<text text-anchor="middle" x="430.5" y="-63.5" font-family="Helvetica,sans-Serif" font-size="10.00">string</text>
</a>
</g>
</g>
<!-- Node3&#45;&gt;Node5 -->
<g id="edge4" class="edge">
<title>Node3&#45;&gt;Node5</title>
<path fill="none" stroke="midnightblue" d="M197.89,-224.27C194.37,-202.2 188.51,-143.64 218.5,-112 242.96,-86.2 346.84,-73.97 399.55,-69.33"/>
<polygon fill="midnightblue" stroke="midnightblue" points="400,-72.81 409.67,-68.48 399.41,-65.83 400,-72.81"/>
</g>
<!-- Node6 -->
<g id="node6" class="node">
<title>Node6</title>
<g id="a_node6"><a xlink:title=" ">
<polygon fill="none" stroke="#bfbfbf" points="473.5,-0.5 473.5,-19.5 517.5,-19.5 517.5,-0.5 473.5,-0.5"/>
<text text-anchor="middle" x="495.5" y="-7.5" font-family="Helvetica,sans-Serif" font-size="10.00">vector</text>
</a>
</g>
</g>
<!-- Node3&#45;&gt;Node6 -->
<g id="edge5" class="edge">
<title>Node3&#45;&gt;Node6</title>
<path fill="none" stroke="midnightblue" d="M192.61,-224.32C186.23,-215.68 177.19,-201.77 173.5,-188 169.54,-173.24 164.91,-131.5 174.5,-112 192.08,-76.25 208.22,-72.47 244.5,-56 317.92,-22.67 413.92,-13.99 463.21,-11.75"/>
<polygon fill="midnightblue" stroke="midnightblue" points="463.42,-15.25 473.28,-11.36 463.15,-8.25 463.42,-15.25"/>
</g>
<!-- Node7 -->
<g id="node7" class="node">
<title>Node7</title>
<g id="a_node7"><a xlink:href="bwGradient_8h.html" target="_top" xlink:title=" ">
<polygon fill="none" stroke="black" points="285.5,-168.5 285.5,-187.5 359.5,-187.5 359.5,-168.5 285.5,-168.5"/>
<text text-anchor="middle" x="322.5" y="-175.5" font-family="Helvetica,sans-Serif" font-size="10.00">bwGradient.h</text>
</a>
</g>
</g>
<!-- Node3&#45;&gt;Node7 -->
<g id="edge6" class="edge">
<title>Node3&#45;&gt;Node7</title>
<path fill="none" stroke="midnightblue" d="M218.99,-224.44C239.14,-215.6 270.82,-201.69 293.83,-191.59"/>
<polygon fill="midnightblue" stroke="midnightblue" points="295.35,-194.74 303.1,-187.52 292.54,-188.33 295.35,-194.74"/>
</g>
<!-- Node10 -->
<g id="node10" class="node">
<title>Node10</title>
<g id="a_node10"><a xlink:href="bwIconInterface_8h.html" target="_top" xlink:title=" ">
<polygon fill="none" stroke="black" points="0,-168.5 0,-187.5 95,-187.5 95,-168.5 0,-168.5"/>
<text text-anchor="middle" x="47.5" y="-175.5" font-family="Helvetica,sans-Serif" font-size="10.00">bwIconInterface.h</text>
</a>
</g>
</g>
<!-- Node3&#45;&gt;Node10 -->
<g id="edge9" class="edge">
<title>Node3&#45;&gt;Node10</title>
<path fill="none" stroke="midnightblue" d="M175.42,-224.44C149.96,-215.4 109.61,-201.06 81.04,-190.92"/>
<polygon fill="midnightblue" stroke="midnightblue" points="82.07,-187.57 71.47,-187.52 79.72,-194.16 82.07,-187.57"/>
</g>
<!-- Node8 -->
<g id="node8" class="node">
<title>Node8</title>
<g id="a_node8"><a xlink:href="bwColor_8h.html" target="_top" xlink:title=" ">
<polygon fill="none" stroke="black" points="227.5,-112.5 227.5,-131.5 287.5,-131.5 287.5,-112.5 227.5,-112.5"/>
<text text-anchor="middle" x="257.5" y="-119.5" font-family="Helvetica,sans-Serif" font-size="10.00">bwColor.h</text>
</a>
</g>
</g>
<!-- Node7&#45;&gt;Node8 -->
<g id="edge7" class="edge">
<title>Node7&#45;&gt;Node8</title>
<path fill="none" stroke="midnightblue" d="M312.06,-168.32C302.35,-160.26 287.68,-148.08 276,-138.37"/>
<polygon fill="midnightblue" stroke="midnightblue" points="278.06,-135.53 268.13,-131.83 273.59,-140.92 278.06,-135.53"/>
</g>
<!-- Node9 -->
<g id="node9" class="node">
<title>Node9</title>
<g id="a_node9"><a xlink:href="bwRectangle_8h.html" target="_top" xlink:title=" ">
<polygon fill="none" stroke="black" points="305.5,-112.5 305.5,-131.5 387.5,-131.5 387.5,-112.5 305.5,-112.5"/>
<text text-anchor="middle" x="346.5" y="-119.5" font-family="Helvetica,sans-Serif" font-size="10.00">bwRectangle.h</text>
</a>
</g>
</g>
<!-- Node7&#45;&gt;Node9 -->
<g id="edge8" class="edge">
<title>Node7&#45;&gt;Node9</title>
<path fill="none" stroke="midnightblue" d="M326.46,-168.08C329.71,-160.77 334.42,-150.18 338.45,-141.1"/>
<polygon fill="midnightblue" stroke="midnightblue" points="341.75,-142.31 342.61,-131.75 335.35,-139.47 341.75,-142.31"/>
</g>
<!-- Node11&#45;&gt;Node5 -->
<g id="edge12" class="edge">
<title>Node11&#45;&gt;Node5</title>
<path fill="none" stroke="midnightblue" d="M895.44,-113.82C892.09,-113.15 888.73,-112.52 885.5,-112 843.81,-105.27 557.04,-78.64 461.44,-69.84"/>
<polygon fill="midnightblue" stroke="midnightblue" points="461.54,-66.33 451.26,-68.9 460.9,-73.3 461.54,-66.33"/>
</g>
<!-- Node12 -->
<g id="node12" class="node">
<title>Node12</title>
<g id="a_node12"><a xlink:title=" ">
<polygon fill="none" stroke="#bfbfbf" points="906.5,-56.5 906.5,-75.5 944.5,-75.5 944.5,-56.5 906.5,-56.5"/>
<text text-anchor="middle" x="925.5" y="-63.5" font-family="Helvetica,sans-Serif" font-size="10.00">array</text>
</a>
</g>
</g>
<!-- Node11&#45;&gt;Node12 -->
<g id="edge11" class="edge">
<title>Node11&#45;&gt;Node12</title>
<path fill="none" stroke="midnightblue" d="M925.5,-112.08C925.5,-105.01 925.5,-94.86 925.5,-85.99"/>
<polygon fill="midnightblue" stroke="midnightblue" points="929,-85.75 925.5,-75.75 922,-85.75 929,-85.75"/>
</g>
<!-- Node13&#45;&gt;Node5 -->
<g id="edge14" class="edge">
<title>Node13&#45;&gt;Node5</title>
<path fill="none" stroke="midnightblue" d="M352.91,-224.08C365.93,-197.72 404.38,-119.88 421.78,-84.66"/>
<polygon fill="midnightblue" stroke="midnightblue" points="424.98,-86.08 426.27,-75.57 418.7,-82.98 424.98,-86.08"/>
</g>
<!-- Node13&#45;&gt;Node8 -->
<g id="edge15" class="edge">
<title>Node13&#45;&gt;Node8</title>
<path fill="none" stroke="midnightblue" d="M326.57,-224.41C310.5,-217.04 289.32,-204.92 276.5,-188 266.3,-174.54 261.57,-155.73 259.38,-141.8"/>
<polygon fill="midnightblue" stroke="midnightblue" points="262.85,-141.35 258.11,-131.88 255.9,-142.24 262.85,-141.35"/>
</g>
<!-- Node14 -->
<g id="node14" class="node">
<title>Node14</title>
<g id="a_node14"><a xlink:href="bwWidget_8h.html" target="_top" xlink:title=" ">
<polygon fill="none" stroke="black" points="568.5,-168.5 568.5,-187.5 636.5,-187.5 636.5,-168.5 568.5,-168.5"/>
<text text-anchor="middle" x="602.5" y="-175.5" font-family="Helvetica,sans-Serif" font-size="10.00">bwWidget.h</text>
</a>
</g>
</g>
<!-- Node13&#45;&gt;Node14 -->
<g id="edge16" class="edge">
<title>Node13&#45;&gt;Node14</title>
<path fill="none" stroke="midnightblue" d="M379.14,-226.49C423.79,-216.99 507.01,-199.3 558.29,-188.4"/>
<polygon fill="midnightblue" stroke="midnightblue" points="559.05,-191.82 568.11,-186.31 557.6,-184.97 559.05,-191.82"/>
</g>
<!-- Node14&#45;&gt;Node9 -->
<g id="edge23" class="edge">
<title>Node14&#45;&gt;Node9</title>
<path fill="none" stroke="midnightblue" d="M568.24,-169.77C524.27,-160.5 447.61,-144.33 396.96,-133.64"/>
<polygon fill="midnightblue" stroke="midnightblue" points="397.39,-130.16 386.88,-131.52 395.94,-137.01 397.39,-130.16"/>
</g>
<!-- Node15 -->
<g id="node15" class="node">
<title>Node15</title>
<g id="a_node15"><a xlink:title=" ">
<polygon fill="none" stroke="#bfbfbf" points="537.5,-56.5 537.5,-75.5 587.5,-75.5 587.5,-56.5 537.5,-56.5"/>
<text text-anchor="middle" x="562.5" y="-63.5" font-family="Helvetica,sans-Serif" font-size="10.00">optional</text>
</a>
</g>
</g>
<!-- Node14&#45;&gt;Node15 -->
<g id="edge17" class="edge">
<title>Node14&#45;&gt;Node15</title>
<path fill="none" stroke="midnightblue" d="M599.36,-168.37C592.88,-150.54 577.88,-109.3 569.14,-85.27"/>
<polygon fill="midnightblue" stroke="midnightblue" points="572.33,-83.79 565.62,-75.59 565.75,-86.19 572.33,-83.79"/>
</g>
<!-- Node16 -->
<g id="node16" class="node">
<title>Node16</title>
<g id="a_node16"><a xlink:title=" ">
<polygon fill="none" stroke="#bfbfbf" points="604,-112.5 604,-131.5 655,-131.5 655,-112.5 604,-112.5"/>
<text text-anchor="middle" x="629.5" y="-119.5" font-family="Helvetica,sans-Serif" font-size="10.00">typeinfo</text>
</a>
</g>
</g>
<!-- Node14&#45;&gt;Node16 -->
<g id="edge18" class="edge">
<title>Node14&#45;&gt;Node16</title>
<path fill="none" stroke="midnightblue" d="M606.96,-168.08C610.65,-160.69 616.02,-149.95 620.59,-140.81"/>
<polygon fill="midnightblue" stroke="midnightblue" points="623.78,-142.26 625.12,-131.75 617.52,-139.13 623.78,-142.26"/>
</g>
<!-- Node17 -->
<g id="node17" class="node">
<title>Node17</title>
<g id="a_node17"><a xlink:href="bwDistance_8h.html" target="_top" xlink:title=" ">
<polygon fill="none" stroke="black" points="800,-112.5 800,-131.5 877,-131.5 877,-112.5 800,-112.5"/>
<text text-anchor="middle" x="838.5" y="-119.5" font-family="Helvetica,sans-Serif" font-size="10.00">bwDistance.h</text>
</a>
</g>
</g>
<!-- Node14&#45;&gt;Node17 -->
<g id="edge19" class="edge">
<title>Node14&#45;&gt;Node17</title>
<path fill="none" stroke="midnightblue" d="M636.56,-169.21C677.27,-159.89 745.6,-144.26 791.36,-133.79"/>
<polygon fill="midnightblue" stroke="midnightblue" points="792.36,-137.15 801.33,-131.5 790.8,-130.32 792.36,-137.15"/>
</g>
<!-- Node19 -->
<g id="node19" class="node">
<title>Node19</title>
<g id="a_node19"><a xlink:href="bwFunctorInterface_8h.html" target="_top" xlink:title=" ">
<polygon fill="none" stroke="black" points="673,-112.5 673,-131.5 782,-131.5 782,-112.5 673,-112.5"/>
<text text-anchor="middle" x="727.5" y="-119.5" font-family="Helvetica,sans-Serif" font-size="10.00">bwFunctorInterface.h</text>
</a>
</g>
</g>
<!-- Node14&#45;&gt;Node19 -->
<g id="edge22" class="edge">
<title>Node14&#45;&gt;Node19</title>
<path fill="none" stroke="midnightblue" d="M622.31,-168.44C642.79,-159.6 674.98,-145.69 698.36,-135.59"/>
<polygon fill="midnightblue" stroke="midnightblue" points="699.99,-138.7 707.79,-131.52 697.22,-132.27 699.99,-138.7"/>
</g>
<!-- Node20 -->
<g id="node20" class="node">
<title>Node20</title>
<g id="a_node20"><a xlink:href="bwStyleProperties_8h.html" target="_top" xlink:title=" ">
<polygon fill="none" stroke="black" points="443.5,-112.5 443.5,-131.5 547.5,-131.5 547.5,-112.5 443.5,-112.5"/>
<text text-anchor="middle" x="495.5" y="-119.5" font-family="Helvetica,sans-Serif" font-size="10.00">bwStyleProperties.h</text>
</a>
</g>
</g>
<!-- Node14&#45;&gt;Node20 -->
<g id="edge24" class="edge">
<title>Node14&#45;&gt;Node20</title>
<path fill="none" stroke="midnightblue" d="M585.31,-168.32C568.15,-159.66 541.55,-146.24 521.75,-136.25"/>
<polygon fill="midnightblue" stroke="midnightblue" points="523.15,-133.04 512.65,-131.65 520,-139.28 523.15,-133.04"/>
</g>
<!-- Node21 -->
<g id="node21" class="node">
<title>Node21</title>
<g id="a_node21"><a xlink:href="EventHandler_8h.html" target="_top" xlink:title=" ">
<polygon fill="none" stroke="black" points="974,-112.5 974,-131.5 1119,-131.5 1119,-112.5 974,-112.5"/>
<text text-anchor="middle" x="1046.5" y="-119.5" font-family="Helvetica,sans-Serif" font-size="10.00">screen_graph/EventHandler.h</text>
</a>
</g>
</g>
<!-- Node14&#45;&gt;Node21 -->
<g id="edge29" class="edge">
<title>Node14&#45;&gt;Node21</title>
<path fill="none" stroke="midnightblue" d="M636.6,-172.85C706.62,-164.34 868.23,-144.68 966.31,-132.75"/>
<polygon fill="midnightblue" stroke="midnightblue" points="966.97,-136.2 976.48,-131.52 966.13,-129.25 966.97,-136.2"/>
</g>
<!-- Node18 -->
<g id="node18" class="node">
<title>Node18</title>
<g id="a_node18"><a xlink:href="bwPoint_8h.html" target="_top" xlink:title=" ">
<polygon fill="none" stroke="black" points="707.5,-56.5 707.5,-75.5 767.5,-75.5 767.5,-56.5 707.5,-56.5"/>
<text text-anchor="middle" x="737.5" y="-63.5" font-family="Helvetica,sans-Serif" font-size="10.00">bwPoint.h</text>
</a>
</g>
</g>
<!-- Node17&#45;&gt;Node18 -->
<g id="edge20" class="edge">
<title>Node17&#45;&gt;Node18</title>
<path fill="none" stroke="midnightblue" d="M822.27,-112.32C806.15,-103.7 781.2,-90.36 762.54,-80.39"/>
<polygon fill="midnightblue" stroke="midnightblue" points="764.16,-77.28 753.69,-75.65 760.86,-83.46 764.16,-77.28"/>
</g>
<!-- Node18&#45;&gt;Node6 -->
<g id="edge21" class="edge">
<title>Node18&#45;&gt;Node6</title>
<path fill="none" stroke="midnightblue" d="M707.34,-58.27C661.52,-48.05 574.74,-28.68 527.72,-18.19"/>
<polygon fill="midnightblue" stroke="midnightblue" points="528.29,-14.73 517.77,-15.97 526.77,-21.56 528.29,-14.73"/>
</g>
<!-- Node20&#45;&gt;Node4 -->
<g id="edge25" class="edge">
<title>Node20&#45;&gt;Node4</title>
<path fill="none" stroke="midnightblue" d="M461.27,-112.44C421.47,-102.49 356.04,-86.14 315.49,-76"/>
<polygon fill="midnightblue" stroke="midnightblue" points="316.3,-72.59 305.75,-73.56 314.6,-79.38 316.3,-72.59"/>
</g>
<!-- Node20&#45;&gt;Node5 -->
<g id="edge27" class="edge">
<title>Node20&#45;&gt;Node5</title>
<path fill="none" stroke="midnightblue" d="M485.06,-112.32C475.35,-104.26 460.68,-92.08 449,-82.37"/>
<polygon fill="midnightblue" stroke="midnightblue" points="451.06,-79.53 441.13,-75.83 446.59,-84.92 451.06,-79.53"/>
</g>
<!-- Node20&#45;&gt;Node6 -->
<g id="edge28" class="edge">
<title>Node20&#45;&gt;Node6</title>
<path fill="none" stroke="midnightblue" d="M495.5,-112.37C495.5,-94.62 495.5,-53.67 495.5,-29.6"/>
<polygon fill="midnightblue" stroke="midnightblue" points="499,-29.59 495.5,-19.59 492,-29.59 499,-29.59"/>
</g>
<!-- Node20&#45;&gt;Node15 -->
<g id="edge26" class="edge">
<title>Node20&#45;&gt;Node15</title>
<path fill="none" stroke="midnightblue" d="M506.26,-112.32C516.27,-104.26 531.39,-92.08 543.43,-82.37"/>
<polygon fill="midnightblue" stroke="midnightblue" points="545.95,-84.83 551.54,-75.83 541.56,-79.38 545.95,-84.83"/>
</g>
<!-- Node21&#45;&gt;Node12 -->
<g id="edge30" class="edge">
<title>Node21&#45;&gt;Node12</title>
<path fill="none" stroke="midnightblue" d="M1027.33,-112.44C1007.59,-103.64 976.61,-89.81 954.01,-79.72"/>
<polygon fill="midnightblue" stroke="midnightblue" points="955.14,-76.4 944.58,-75.52 952.29,-82.79 955.14,-76.4"/>
</g>
<!-- Node22 -->
<g id="node22" class="node">
<title>Node22</title>
<g id="a_node22"><a xlink:title=" ">
<polygon fill="none" stroke="#bfbfbf" points="1111,-56.5 1111,-75.5 1170,-75.5 1170,-56.5 1111,-56.5"/>
<text text-anchor="middle" x="1140.5" y="-63.5" font-family="Helvetica,sans-Serif" font-size="10.00">functional</text>
</a>
</g>
</g>
<!-- Node21&#45;&gt;Node22 -->
<g id="edge31" class="edge">
<title>Node21&#45;&gt;Node22</title>
<path fill="none" stroke="midnightblue" d="M1061.6,-112.32C1076.4,-103.82 1099.19,-90.73 1116.48,-80.8"/>
<polygon fill="midnightblue" stroke="midnightblue" points="1118.51,-83.67 1125.43,-75.65 1115.02,-77.6 1118.51,-83.67"/>
</g>
<!-- Node23 -->
<g id="node23" class="node">
<title>Node23</title>
<g id="a_node23"><a xlink:title=" ">
<polygon fill="none" stroke="#bfbfbf" points="963,-56.5 963,-75.5 992,-75.5 992,-56.5 963,-56.5"/>
<text text-anchor="middle" x="977.5" y="-63.5" font-family="Helvetica,sans-Serif" font-size="10.00">list</text>
</a>
</g>
</g>
<!-- Node21&#45;&gt;Node23 -->
<g id="edge32" class="edge">
<title>Node21&#45;&gt;Node23</title>
<path fill="none" stroke="midnightblue" d="M1035.41,-112.32C1025.01,-104.18 1009.24,-91.84 996.78,-82.09"/>
<polygon fill="midnightblue" stroke="midnightblue" points="998.82,-79.24 988.79,-75.83 994.51,-84.75 998.82,-79.24"/>
</g>
<!-- Node24 -->
<g id="node24" class="node">
<title>Node24</title>
<g id="a_node24"><a xlink:title=" ">
<polygon fill="none" stroke="#bfbfbf" points="1010,-56.5 1010,-75.5 1093,-75.5 1093,-56.5 1010,-56.5"/>
<text text-anchor="middle" x="1051.5" y="-63.5" font-family="Helvetica,sans-Serif" font-size="10.00">unordered_map</text>
</a>
</g>
</g>
<!-- Node21&#45;&gt;Node24 -->
<g id="edge33" class="edge">
<title>Node21&#45;&gt;Node24</title>
<path fill="none" stroke="midnightblue" d="M1047.33,-112.08C1047.98,-105.01 1048.92,-94.86 1049.74,-85.99"/>
<polygon fill="midnightblue" stroke="midnightblue" points="1053.25,-86.03 1050.69,-75.75 1046.28,-85.39 1053.25,-86.03"/>
</g>
</g>
</svg>
