<?xml version="1.0" encoding="UTF-8" standalone="no"?>
<!DOCTYPE svg PUBLIC "-//W3C//DTD SVG 1.1//EN"
 "http://www.w3.org/Graphics/SVG/1.1/DTD/svg11.dtd">
<!-- Generated by graphviz version 2.50.0 (20211204.2007)
 -->
<!-- Title: bwidgets/widgets/bwLabel.h Pages: 1 -->
<svg width="728pt" height="252pt"
 viewBox="0.00 0.00 728.30 252.00" xmlns="http://www.w3.org/2000/svg" xmlns:xlink="http://www.w3.org/1999/xlink">
<g id="graph0" class="graph" transform="scale(1 1) rotate(0) translate(4 248)">
<title>bwidgets/widgets/bwLabel.h</title>
<!-- Node1 -->
<g id="node1" class="node">
<title>Node1</title>
<g id="a_node1"><a xlink:title=" ">
<polygon fill="#bfbfbf" stroke="black" points="247.8,-224.5 247.8,-243.5 387.8,-243.5 387.8,-224.5 247.8,-224.5"/>
<text text-anchor="middle" x="317.8" y="-231.5" font-family="Helvetica,sans-Serif" font-size="10.00">bwidgets/widgets/bwLabel.h</text>
</a>
</g>
</g>
<!-- Node2 -->
<g id="node2" class="node">
<title>Node2</title>
<g id="a_node2"><a xlink:title=" ">
<polygon fill="none" stroke="#bfbfbf" points="8.3,-56.5 8.3,-75.5 49.3,-75.5 49.3,-56.5 8.3,-56.5"/>
<text text-anchor="middle" x="28.8" y="-63.5" font-family="Helvetica,sans-Serif" font-size="10.00">string</text>
</a>
</g>
</g>
<!-- Node1&#45;&gt;Node2 -->
<g id="edge1" class="edge">
<title>Node1&#45;&gt;Node2</title>
<path fill="none" stroke="midnightblue" d="M247.62,-232.62C173.56,-227.98 60.09,-207.93 4.8,-132 -5.77,-117.48 4.15,-97.79 14.26,-83.9"/>
<polygon fill="midnightblue" stroke="midnightblue" points="17.27,-85.74 20.71,-75.72 11.77,-81.4 17.27,-85.74"/>
</g>
<!-- Node3 -->
<g id="node3" class="node">
<title>Node3</title>
<g id="a_node3"><a xlink:href="bwColor_8h.html" target="_top" xlink:title=" ">
<polygon fill="none" stroke="black" points="369.8,-168.5 369.8,-187.5 429.8,-187.5 429.8,-168.5 369.8,-168.5"/>
<text text-anchor="middle" x="399.8" y="-175.5" font-family="Helvetica,sans-Serif" font-size="10.00">bwColor.h</text>
</a>
</g>
</g>
<!-- Node1&#45;&gt;Node3 -->
<g id="edge2" class="edge">
<title>Node1&#45;&gt;Node3</title>
<path fill="none" stroke="midnightblue" d="M330.98,-224.32C343.65,-215.98 363.04,-203.21 378.01,-193.35"/>
<polygon fill="midnightblue" stroke="midnightblue" points="380.23,-196.08 386.66,-187.65 376.38,-190.23 380.23,-196.08"/>
</g>
<!-- Node4 -->
<g id="node4" class="node">
<title>Node4</title>
<g id="a_node4"><a xlink:href="bwWidget_8h.html" target="_top" xlink:title=" ">
<polygon fill="none" stroke="black" points="283.8,-168.5 283.8,-187.5 351.8,-187.5 351.8,-168.5 283.8,-168.5"/>
<text text-anchor="middle" x="317.8" y="-175.5" font-family="Helvetica,sans-Serif" font-size="10.00">bwWidget.h</text>
</a>
</g>
</g>
<!-- Node1&#45;&gt;Node4 -->
<g id="edge3" class="edge">
<title>Node1&#45;&gt;Node4</title>
<path fill="none" stroke="midnightblue" d="M317.8,-224.08C317.8,-217.01 317.8,-206.86 317.8,-197.99"/>
<polygon fill="midnightblue" stroke="midnightblue" points="321.3,-197.75 317.8,-187.75 314.3,-197.75 321.3,-197.75"/>
</g>
<!-- Node5 -->
<g id="node5" class="node">
<title>Node5</title>
<g id="a_node5"><a xlink:title=" ">
<polygon fill="none" stroke="#bfbfbf" points="284.8,-56.5 284.8,-75.5 334.8,-75.5 334.8,-56.5 284.8,-56.5"/>
<text text-anchor="middle" x="309.8" y="-63.5" font-family="Helvetica,sans-Serif" font-size="10.00">optional</text>
</a>
</g>
</g>
<!-- Node4&#45;&gt;Node5 -->
<g id="edge4" class="edge">
<title>Node4&#45;&gt;Node5</title>
<path fill="none" stroke="midnightblue" d="M347.89,-168.43C376.31,-159.65 415.88,-145.43 424.8,-132 429.72,-124.6 429.81,-119.34 424.8,-112 415.41,-98.24 375.03,-84.6 344.75,-76.01"/>
<polygon fill="midnightblue" stroke="midnightblue" points="345.5,-72.58 334.93,-73.29 343.64,-79.33 345.5,-72.58"/>
</g>
<!-- Node6 -->
<g id="node6" class="node">
<title>Node6</title>
<g id="a_node6"><a xlink:title=" ">
<polygon fill="none" stroke="#bfbfbf" points="14.3,-112.5 14.3,-131.5 65.3,-131.5 65.3,-112.5 14.3,-112.5"/>
<text text-anchor="middle" x="39.8" y="-119.5" font-family="Helvetica,sans-Serif" font-size="10.00">typeinfo</text>
</a>
</g>
</g>
<!-- Node4&#45;&gt;Node6 -->
<g id="edge5" class="edge">
<title>Node4&#45;&gt;Node6</title>
<path fill="none" stroke="midnightblue" d="M283.45,-171.4C238.08,-163.84 155.52,-149.51 75.15,-131.95"/>
<polygon fill="midnightblue" stroke="midnightblue" points="75.89,-128.52 65.37,-129.79 74.38,-135.36 75.89,-128.52"/>
</g>
<!-- Node7 -->
<g id="node7" class="node">
<title>Node7</title>
<g id="a_node7"><a xlink:href="bwDistance_8h.html" target="_top" xlink:title=" ">
<polygon fill="none" stroke="black" points="643.3,-112.5 643.3,-131.5 720.3,-131.5 720.3,-112.5 643.3,-112.5"/>
<text text-anchor="middle" x="681.8" y="-119.5" font-family="Helvetica,sans-Serif" font-size="10.00">bwDistance.h</text>
</a>
</g>
</g>
<!-- Node4&#45;&gt;Node7 -->
<g id="edge6" class="edge">
<title>Node4&#45;&gt;Node7</title>
<path fill="none" stroke="midnightblue" d="M352.03,-169.61C354.99,-169.04 357.95,-168.49 360.8,-168 478.37,-147.77 508.81,-149.63 626.8,-132 628.86,-131.69 630.96,-131.37 633.07,-131.05"/>
<polygon fill="midnightblue" stroke="midnightblue" points="633.73,-134.49 643.06,-129.48 632.64,-127.57 633.73,-134.49"/>
</g>
<!-- Node10 -->
<g id="node10" class="node">
<title>Node10</title>
<g id="a_node10"><a xlink:href="bwFunctorInterface_8h.html" target="_top" xlink:title=" ">
<polygon fill="none" stroke="black" points="206.3,-112.5 206.3,-131.5 315.3,-131.5 315.3,-112.5 206.3,-112.5"/>
<text text-anchor="middle" x="260.8" y="-119.5" font-family="Helvetica,sans-Serif" font-size="10.00">bwFunctorInterface.h</text>
</a>
</g>
</g>
<!-- Node4&#45;&gt;Node10 -->
<g id="edge9" class="edge">
<title>Node4&#45;&gt;Node10</title>
<path fill="none" stroke="midnightblue" d="M308.64,-168.32C300.3,-160.42 287.77,-148.55 277.62,-138.94"/>
<polygon fill="midnightblue" stroke="midnightblue" points="279.79,-136.17 270.13,-131.83 274.98,-141.25 279.79,-136.17"/>
</g>
<!-- Node11 -->
<g id="node11" class="node">
<title>Node11</title>
<g id="a_node11"><a xlink:href="bwRectangle_8h.html" target="_top" xlink:title=" ">
<polygon fill="none" stroke="black" points="333.8,-112.5 333.8,-131.5 415.8,-131.5 415.8,-112.5 333.8,-112.5"/>
<text text-anchor="middle" x="374.8" y="-119.5" font-family="Helvetica,sans-Serif" font-size="10.00">bwRectangle.h</text>
</a>
</g>
</g>
<!-- Node4&#45;&gt;Node11 -->
<g id="edge10" class="edge">
<title>Node4&#45;&gt;Node11</title>
<path fill="none" stroke="midnightblue" d="M326.96,-168.32C335.3,-160.42 347.83,-148.55 357.98,-138.94"/>
<polygon fill="midnightblue" stroke="midnightblue" points="360.62,-141.25 365.48,-131.83 355.81,-136.17 360.62,-141.25"/>
</g>
<!-- Node12 -->
<g id="node12" class="node">
<title>Node12</title>
<g id="a_node12"><a xlink:href="bwStyleProperties_8h.html" target="_top" xlink:title=" ">
<polygon fill="none" stroke="black" points="83.8,-112.5 83.8,-131.5 187.8,-131.5 187.8,-112.5 83.8,-112.5"/>
<text text-anchor="middle" x="135.8" y="-119.5" font-family="Helvetica,sans-Serif" font-size="10.00">bwStyleProperties.h</text>
</a>
</g>
</g>
<!-- Node4&#45;&gt;Node12 -->
<g id="edge11" class="edge">
<title>Node4&#45;&gt;Node12</title>
<path fill="none" stroke="midnightblue" d="M288.96,-168.44C257.95,-159.24 208.47,-144.56 174.18,-134.39"/>
<polygon fill="midnightblue" stroke="midnightblue" points="175.09,-131.01 164.51,-131.52 173.1,-137.72 175.09,-131.01"/>
</g>
<!-- Node14 -->
<g id="node14" class="node">
<title>Node14</title>
<g id="a_node14"><a xlink:href="EventHandler_8h.html" target="_top" xlink:title=" ">
<polygon fill="none" stroke="black" points="472.3,-112.5 472.3,-131.5 617.3,-131.5 617.3,-112.5 472.3,-112.5"/>
<text text-anchor="middle" x="544.8" y="-119.5" font-family="Helvetica,sans-Serif" font-size="10.00">screen_graph/EventHandler.h</text>
</a>
</g>
</g>
<!-- Node4&#45;&gt;Node14 -->
<g id="edge16" class="edge">
<title>Node4&#45;&gt;Node14</title>
<path fill="none" stroke="midnightblue" d="M352.28,-168.8C391.52,-159.46 455.77,-144.18 499.14,-133.86"/>
<polygon fill="midnightblue" stroke="midnightblue" points="499.96,-137.27 508.87,-131.55 498.34,-130.46 499.96,-137.27"/>
</g>
<!-- Node8 -->
<g id="node8" class="node">
<title>Node8</title>
<g id="a_node8"><a xlink:href="bwPoint_8h.html" target="_top" xlink:title=" ">
<polygon fill="none" stroke="black" points="655.8,-56.5 655.8,-75.5 715.8,-75.5 715.8,-56.5 655.8,-56.5"/>
<text text-anchor="middle" x="685.8" y="-63.5" font-family="Helvetica,sans-Serif" font-size="10.00">bwPoint.h</text>
</a>
</g>
</g>
<!-- Node7&#45;&gt;Node8 -->
<g id="edge7" class="edge">
<title>Node7&#45;&gt;Node8</title>
<path fill="none" stroke="midnightblue" d="M682.46,-112.08C682.99,-105.01 683.74,-94.86 684.4,-85.99"/>
<polygon fill="midnightblue" stroke="midnightblue" points="687.91,-85.98 685.15,-75.75 680.92,-85.47 687.91,-85.98"/>
</g>
<!-- Node9 -->
<g id="node9" class="node">
<title>Node9</title>
<g id="a_node9"><a xlink:title=" ">
<polygon fill="none" stroke="#bfbfbf" points="396.8,-0.5 396.8,-19.5 440.8,-19.5 440.8,-0.5 396.8,-0.5"/>
<text text-anchor="middle" x="418.8" y="-7.5" font-family="Helvetica,sans-Serif" font-size="10.00">vector</text>
</a>
</g>
</g>
<!-- Node8&#45;&gt;Node9 -->
<g id="edge8" class="edge">
<title>Node8&#45;&gt;Node9</title>
<path fill="none" stroke="midnightblue" d="M655.59,-57.93C652.62,-57.26 649.66,-56.61 646.8,-56 577.04,-41.07 494.87,-25.3 450.72,-16.97"/>
<polygon fill="midnightblue" stroke="midnightblue" points="451.33,-13.52 440.86,-15.11 450.04,-20.4 451.33,-13.52"/>
</g>
<!-- Node12&#45;&gt;Node2 -->
<g id="edge14" class="edge">
<title>Node12&#45;&gt;Node2</title>
<path fill="none" stroke="midnightblue" d="M118.61,-112.32C101.45,-103.66 74.86,-90.24 55.05,-80.25"/>
<polygon fill="midnightblue" stroke="midnightblue" points="56.45,-77.04 45.95,-75.65 53.3,-83.28 56.45,-77.04"/>
</g>
<!-- Node12&#45;&gt;Node5 -->
<g id="edge13" class="edge">
<title>Node12&#45;&gt;Node5</title>
<path fill="none" stroke="midnightblue" d="M163.37,-112.44C193.59,-103.06 242.14,-88 274.97,-77.81"/>
<polygon fill="midnightblue" stroke="midnightblue" points="276.11,-81.12 284.62,-74.82 274.03,-74.44 276.11,-81.12"/>
</g>
<!-- Node12&#45;&gt;Node9 -->
<g id="edge15" class="edge">
<title>Node12&#45;&gt;Node9</title>
<path fill="none" stroke="midnightblue" d="M152.31,-112.48C178.18,-99.32 230.08,-73.72 275.8,-56 313.36,-41.44 357.76,-28.04 387.01,-19.72"/>
<polygon fill="midnightblue" stroke="midnightblue" points="388.02,-23.07 396.69,-16.99 386.12,-16.33 388.02,-23.07"/>
</g>
<!-- Node13 -->
<g id="node13" class="node">
<title>Node13</title>
<g id="a_node13"><a xlink:title=" ">
<polygon fill="none" stroke="#bfbfbf" points="109.8,-56.5 109.8,-75.5 161.8,-75.5 161.8,-56.5 109.8,-56.5"/>
<text text-anchor="middle" x="135.8" y="-63.5" font-family="Helvetica,sans-Serif" font-size="10.00">memory</text>
</a>
</g>
</g>
<!-- Node12&#45;&gt;Node13 -->
<g id="edge12" class="edge">
<title>Node12&#45;&gt;Node13</title>
<path fill="none" stroke="midnightblue" d="M135.8,-112.08C135.8,-105.01 135.8,-94.86 135.8,-85.99"/>
<polygon fill="midnightblue" stroke="midnightblue" points="139.3,-85.75 135.8,-75.75 132.3,-85.75 139.3,-85.75"/>
</g>
<!-- Node15 -->
<g id="node15" class="node">
<title>Node15</title>
<g id="a_node15"><a xlink:title=" ">
<polygon fill="none" stroke="#bfbfbf" points="599.8,-56.5 599.8,-75.5 637.8,-75.5 637.8,-56.5 599.8,-56.5"/>
<text text-anchor="middle" x="618.8" y="-63.5" font-family="Helvetica,sans-Serif" font-size="10.00">array</text>
</a>
</g>
</g>
<!-- Node14&#45;&gt;Node15 -->
<g id="edge17" class="edge">
<title>Node14&#45;&gt;Node15</title>
<path fill="none" stroke="midnightblue" d="M556.69,-112.32C567.95,-104.11 585.09,-91.6 598.51,-81.81"/>
<polygon fill="midnightblue" stroke="midnightblue" points="600.68,-84.56 606.7,-75.83 596.55,-78.9 600.68,-84.56"/>
</g>
<!-- Node16 -->
<g id="node16" class="node">
<title>Node16</title>
<g id="a_node16"><a xlink:title=" ">
<polygon fill="none" stroke="#bfbfbf" points="374.3,-56.5 374.3,-75.5 433.3,-75.5 433.3,-56.5 374.3,-56.5"/>
<text text-anchor="middle" x="403.8" y="-63.5" font-family="Helvetica,sans-Serif" font-size="10.00">functional</text>
</a>
</g>
</g>
<!-- Node14&#45;&gt;Node16 -->
<g id="edge18" class="edge">
<title>Node14&#45;&gt;Node16</title>
<path fill="none" stroke="midnightblue" d="M522.46,-112.44C499.05,-103.48 462.07,-89.31 435.61,-79.18"/>
<polygon fill="midnightblue" stroke="midnightblue" points="436.63,-75.82 426.04,-75.52 434.13,-82.36 436.63,-75.82"/>
</g>
<!-- Node17 -->
<g id="node17" class="node">
<title>Node17</title>
<g id="a_node17"><a xlink:title=" ">
<polygon fill="none" stroke="#bfbfbf" points="451.3,-56.5 451.3,-75.5 480.3,-75.5 480.3,-56.5 451.3,-56.5"/>
<text text-anchor="middle" x="465.8" y="-63.5" font-family="Helvetica,sans-Serif" font-size="10.00">list</text>
</a>
</g>
</g>
<!-- Node14&#45;&gt;Node17 -->
<g id="edge19" class="edge">
<title>Node14&#45;&gt;Node17</title>
<path fill="none" stroke="midnightblue" d="M532.11,-112.32C519.9,-103.98 501.22,-91.21 486.8,-81.35"/>
<polygon fill="midnightblue" stroke="midnightblue" points="488.69,-78.41 478.46,-75.65 484.74,-84.19 488.69,-78.41"/>
</g>
<!-- Node18 -->
<g id="node18" class="node">
<title>Node18</title>
<g id="a_node18"><a xlink:title=" ">
<polygon fill="none" stroke="#bfbfbf" points="498.3,-56.5 498.3,-75.5 581.3,-75.5 581.3,-56.5 498.3,-56.5"/>
<text text-anchor="middle" x="539.8" y="-63.5" font-family="Helvetica,sans-Serif" font-size="10.00">unordered_map</text>
</a>
</g>
</g>
<!-- Node14&#45;&gt;Node18 -->
<g id="edge20" class="edge">
<title>Node14&#45;&gt;Node18</title>
<path fill="none" stroke="midnightblue" d="M543.98,-112.08C543.32,-105.01 542.38,-94.86 541.56,-85.99"/>
<polygon fill="midnightblue" stroke="midnightblue" points="545.02,-85.39 540.61,-75.75 538.05,-86.03 545.02,-85.39"/>
</g>
</g>
</svg>
