<?xml version="1.0" encoding="UTF-8" standalone="no"?>
<!DOCTYPE svg PUBLIC "-//W3C//DTD SVG 1.1//EN"
 "http://www.w3.org/Graphics/SVG/1.1/DTD/svg11.dtd">
<!-- Generated by graphviz version 2.50.0 (20211204.2007)
 -->
<!-- Title: bwidgets/widgets/bwNumberSlider.h Pages: 1 -->
<svg width="431pt" height="173pt"
 viewBox="0.00 0.00 431.00 173.00" xmlns="http://www.w3.org/2000/svg" xmlns:xlink="http://www.w3.org/1999/xlink">
<g id="graph0" class="graph" transform="scale(1 1) rotate(0) translate(4 169)">
<title>bwidgets/widgets/bwNumberSlider.h</title>
<!-- Node1 -->
<g id="node1" class="node">
<title>Node1</title>
<g id="a_node1"><a xlink:title=" ">
<polygon fill="#bfbfbf" stroke="black" points="205,-134.5 205,-164.5 348,-164.5 348,-134.5 205,-134.5"/>
<text text-anchor="start" x="213" y="-152.5" font-family="Helvetica,sans-Serif" font-size="10.00">bwidgets/widgets/bwNumber</text>
<text text-anchor="middle" x="276.5" y="-141.5" font-family="Helvetica,sans-Serif" font-size="10.00">Slider.h</text>
</a>
</g>
</g>
<!-- Node2 -->
<g id="node2" class="node">
<title>Node2</title>
<g id="a_node2"><a xlink:href="builtin__widgets_8h.html" target="_top" xlink:title=" ">
<polygon fill="none" stroke="black" points="141,-67.5 141,-97.5 262,-97.5 262,-67.5 141,-67.5"/>
<text text-anchor="start" x="149" y="-85.5" font-family="Helvetica,sans-Serif" font-size="10.00">bwidgets/widgets/builtin</text>
<text text-anchor="middle" x="201.5" y="-74.5" font-family="Helvetica,sans-Serif" font-size="10.00">_widgets.h</text>
</a>
</g>
</g>
<!-- Node1&#45;&gt;Node2 -->
<g id="edge1" class="edge">
<title>Node1&#45;&gt;Node2</title>
<path fill="none" stroke="midnightblue" d="M252.38,-127.6C241.06,-117.78 227.86,-106.34 217.74,-97.58"/>
<polygon fill="midnightblue" stroke="midnightblue" points="250.38,-130.49 260.23,-134.4 254.96,-125.2 250.38,-130.49"/>
</g>
<!-- Node6 -->
<g id="node6" class="node">
<title>Node6</title>
<g id="a_node6"><a xlink:href="bwNumberSlider_8cc.html" target="_top" xlink:title=" ">
<polygon fill="none" stroke="black" points="280,-67.5 280,-97.5 423,-97.5 423,-67.5 280,-67.5"/>
<text text-anchor="start" x="288" y="-85.5" font-family="Helvetica,sans-Serif" font-size="10.00">bwidgets/widgets/bwNumber</text>
<text text-anchor="middle" x="351.5" y="-74.5" font-family="Helvetica,sans-Serif" font-size="10.00">Slider.cc</text>
</a>
</g>
</g>
<!-- Node1&#45;&gt;Node6 -->
<g id="edge5" class="edge">
<title>Node1&#45;&gt;Node6</title>
<path fill="none" stroke="midnightblue" d="M300.62,-127.6C311.94,-117.78 325.14,-106.34 335.26,-97.58"/>
<polygon fill="midnightblue" stroke="midnightblue" points="298.04,-125.2 292.77,-134.4 302.62,-130.49 298.04,-125.2"/>
</g>
<!-- Node3 -->
<g id="node3" class="node">
<title>Node3</title>
<g id="a_node3"><a xlink:href="bwStyleCSS_8cc.html" target="_top" xlink:title=" ">
<polygon fill="none" stroke="black" points="0,-0.5 0,-30.5 125,-30.5 125,-0.5 0,-0.5"/>
<text text-anchor="start" x="8" y="-18.5" font-family="Helvetica,sans-Serif" font-size="10.00">bwidgets/styling/bwStyle</text>
<text text-anchor="middle" x="62.5" y="-7.5" font-family="Helvetica,sans-Serif" font-size="10.00">CSS.cc</text>
</a>
</g>
</g>
<!-- Node2&#45;&gt;Node3 -->
<g id="edge2" class="edge">
<title>Node2&#45;&gt;Node3</title>
<path fill="none" stroke="midnightblue" d="M162.22,-63.13C140.13,-52.8 112.99,-40.11 92.6,-30.58"/>
<polygon fill="midnightblue" stroke="midnightblue" points="160.8,-66.33 171.34,-67.4 163.76,-59.99 160.8,-66.33"/>
</g>
<!-- Node4 -->
<g id="node4" class="node">
<title>Node4</title>
<g id="a_node4"><a xlink:href="bwStyleClassic_8cc.html" target="_top" xlink:title=" ">
<polygon fill="none" stroke="black" points="143.5,-0.5 143.5,-30.5 259.5,-30.5 259.5,-0.5 143.5,-0.5"/>
<text text-anchor="start" x="151.5" y="-18.5" font-family="Helvetica,sans-Serif" font-size="10.00">bwidgets/styling/styles</text>
<text text-anchor="middle" x="201.5" y="-7.5" font-family="Helvetica,sans-Serif" font-size="10.00">/bwStyleClassic.cc</text>
</a>
</g>
</g>
<!-- Node2&#45;&gt;Node4 -->
<g id="edge3" class="edge">
<title>Node2&#45;&gt;Node4</title>
<path fill="none" stroke="midnightblue" d="M201.5,-57.11C201.5,-48.15 201.5,-38.32 201.5,-30.58"/>
<polygon fill="midnightblue" stroke="midnightblue" points="198,-57.4 201.5,-67.4 205,-57.4 198,-57.4"/>
</g>
<!-- Node5 -->
<g id="node5" class="node">
<title>Node5</title>
<g id="a_node5"><a xlink:href="bwStyleFlatGrey_8cc.html" target="_top" xlink:title=" ">
<polygon fill="none" stroke="black" points="277.5,-0.5 277.5,-30.5 393.5,-30.5 393.5,-0.5 277.5,-0.5"/>
<text text-anchor="start" x="285.5" y="-18.5" font-family="Helvetica,sans-Serif" font-size="10.00">bwidgets/styling/styles</text>
<text text-anchor="middle" x="335.5" y="-7.5" font-family="Helvetica,sans-Serif" font-size="10.00">/bwStyleFlatGrey.cc</text>
</a>
</g>
</g>
<!-- Node2&#45;&gt;Node5 -->
<g id="edge4" class="edge">
<title>Node2&#45;&gt;Node5</title>
<path fill="none" stroke="midnightblue" d="M239.65,-62.99C260.89,-52.69 286.91,-40.07 306.48,-30.58"/>
<polygon fill="midnightblue" stroke="midnightblue" points="238.05,-59.88 230.58,-67.4 241.1,-66.18 238.05,-59.88"/>
</g>
</g>
</svg>
