<?xml version="1.0" encoding="UTF-8" standalone="no"?>
<!DOCTYPE svg PUBLIC "-//W3C//DTD SVG 1.1//EN"
 "http://www.w3.org/Graphics/SVG/1.1/DTD/svg11.dtd">
<!-- Generated by graphviz version 2.50.0 (20211204.2007)
 -->
<!-- Title: bwidgets/bwPainter.cc Pages: 1 -->
<svg width="950pt" height="196pt"
 viewBox="0.00 0.00 949.50 196.00" xmlns="http://www.w3.org/2000/svg" xmlns:xlink="http://www.w3.org/1999/xlink">
<g id="graph0" class="graph" transform="scale(1 1) rotate(0) translate(4 192)">
<title>bwidgets/bwPainter.cc</title>
<!-- Node1 -->
<g id="node1" class="node">
<title>Node1</title>
<g id="a_node1"><a xlink:title=" ">
<polygon fill="#bfbfbf" stroke="black" points="387.5,-168.5 387.5,-187.5 502.5,-187.5 502.5,-168.5 387.5,-168.5"/>
<text text-anchor="middle" x="445" y="-175.5" font-family="Helvetica,sans-Serif" font-size="10.00">bwidgets/bwPainter.cc</text>
</a>
</g>
</g>
<!-- Node2 -->
<g id="node2" class="node">
<title>Node2</title>
<g id="a_node2"><a xlink:title=" ">
<polygon fill="none" stroke="#bfbfbf" points="0,-112.5 0,-131.5 56,-131.5 56,-112.5 0,-112.5"/>
<text text-anchor="middle" x="28" y="-119.5" font-family="Helvetica,sans-Serif" font-size="10.00">algorithm</text>
</a>
</g>
</g>
<!-- Node1&#45;&gt;Node2 -->
<g id="edge1" class="edge">
<title>Node1&#45;&gt;Node2</title>
<path fill="none" stroke="midnightblue" d="M387.38,-172.36C314.7,-166.02 185.73,-153.16 66.26,-132.03"/>
<polygon fill="midnightblue" stroke="midnightblue" points="66.67,-128.55 56.21,-130.23 65.43,-135.44 66.67,-128.55"/>
</g>
<!-- Node3 -->
<g id="node3" class="node">
<title>Node3</title>
<g id="a_node3"><a xlink:title=" ">
<polygon fill="none" stroke="#bfbfbf" points="74.5,-112.5 74.5,-131.5 123.5,-131.5 123.5,-112.5 74.5,-112.5"/>
<text text-anchor="middle" x="99" y="-119.5" font-family="Helvetica,sans-Serif" font-size="10.00">cassert</text>
</a>
</g>
</g>
<!-- Node1&#45;&gt;Node3 -->
<g id="edge2" class="edge">
<title>Node1&#45;&gt;Node3</title>
<path fill="none" stroke="midnightblue" d="M387.44,-170.72C326.72,-163.64 228.11,-150.86 133.8,-131.95"/>
<polygon fill="midnightblue" stroke="midnightblue" points="134.3,-128.48 123.8,-129.92 132.91,-135.34 134.3,-128.48"/>
</g>
<!-- Node4 -->
<g id="node4" class="node">
<title>Node4</title>
<g id="a_node4"><a xlink:title=" ">
<polygon fill="none" stroke="#bfbfbf" points="142,-112.5 142,-131.5 186,-131.5 186,-112.5 142,-112.5"/>
<text text-anchor="middle" x="164" y="-119.5" font-family="Helvetica,sans-Serif" font-size="10.00">cmath</text>
</a>
</g>
</g>
<!-- Node1&#45;&gt;Node4 -->
<g id="edge3" class="edge">
<title>Node1&#45;&gt;Node4</title>
<path fill="none" stroke="midnightblue" d="M388.06,-168.49C339.45,-160.83 267.51,-148.57 196.32,-132.12"/>
<polygon fill="midnightblue" stroke="midnightblue" points="196.81,-128.64 186.28,-129.77 195.22,-135.46 196.81,-128.64"/>
</g>
<!-- Node5 -->
<g id="node5" class="node">
<title>Node5</title>
<g id="a_node5"><a xlink:title=" ">
<polygon fill="none" stroke="#bfbfbf" points="204,-112.5 204,-131.5 258,-131.5 258,-112.5 204,-112.5"/>
<text text-anchor="middle" x="231" y="-119.5" font-family="Helvetica,sans-Serif" font-size="10.00">iostream</text>
</a>
</g>
</g>
<!-- Node1&#45;&gt;Node5 -->
<g id="edge4" class="edge">
<title>Node1&#45;&gt;Node5</title>
<path fill="none" stroke="midnightblue" d="M411.09,-168.44C372.09,-158.6 308.26,-142.5 268,-132.34"/>
<polygon fill="midnightblue" stroke="midnightblue" points="268.85,-128.94 258.3,-129.89 267.14,-135.73 268.85,-128.94"/>
</g>
<!-- Node6 -->
<g id="node6" class="node">
<title>Node6</title>
<g id="a_node6"><a xlink:href="bwPaintEngine_8h.html" target="_top" xlink:title=" ">
<polygon fill="none" stroke="black" points="354,-112.5 354,-131.5 444,-131.5 444,-112.5 354,-112.5"/>
<text text-anchor="middle" x="399" y="-119.5" font-family="Helvetica,sans-Serif" font-size="10.00">bwPaintEngine.h</text>
</a>
</g>
</g>
<!-- Node1&#45;&gt;Node6 -->
<g id="edge5" class="edge">
<title>Node1&#45;&gt;Node6</title>
<path fill="none" stroke="midnightblue" d="M437.4,-168.08C430.77,-160.3 420.98,-148.8 412.94,-139.37"/>
<polygon fill="midnightblue" stroke="midnightblue" points="415.6,-137.09 406.45,-131.75 410.27,-141.63 415.6,-137.09"/>
</g>
<!-- Node9 -->
<g id="node9" class="node">
<title>Node9</title>
<g id="a_node9"><a xlink:href="bwPoint_8h.html" target="_top" xlink:title=" ">
<polygon fill="none" stroke="black" points="462,-112.5 462,-131.5 522,-131.5 522,-112.5 462,-112.5"/>
<text text-anchor="middle" x="492" y="-119.5" font-family="Helvetica,sans-Serif" font-size="10.00">bwPoint.h</text>
</a>
</g>
</g>
<!-- Node1&#45;&gt;Node9 -->
<g id="edge8" class="edge">
<title>Node1&#45;&gt;Node9</title>
<path fill="none" stroke="midnightblue" d="M452.76,-168.08C459.54,-160.3 469.54,-148.8 477.76,-139.37"/>
<polygon fill="midnightblue" stroke="midnightblue" points="480.46,-141.59 484.38,-131.75 475.18,-137 480.46,-141.59"/>
</g>
<!-- Node11 -->
<g id="node11" class="node">
<title>Node11</title>
<g id="a_node11"><a xlink:href="bwPolygon_8h.html" target="_top" xlink:title=" ">
<polygon fill="none" stroke="black" points="540.5,-112.5 540.5,-131.5 613.5,-131.5 613.5,-112.5 540.5,-112.5"/>
<text text-anchor="middle" x="577" y="-119.5" font-family="Helvetica,sans-Serif" font-size="10.00">bwPolygon.h</text>
</a>
</g>
</g>
<!-- Node1&#45;&gt;Node11 -->
<g id="edge10" class="edge">
<title>Node1&#45;&gt;Node11</title>
<path fill="none" stroke="midnightblue" d="M465.92,-168.44C487.74,-159.52 522.15,-145.44 546.89,-135.32"/>
<polygon fill="midnightblue" stroke="midnightblue" points="548.25,-138.54 556.18,-131.52 545.6,-132.06 548.25,-138.54"/>
</g>
<!-- Node12 -->
<g id="node12" class="node">
<title>Node12</title>
<g id="a_node12"><a xlink:href="bwRange_8h.html" target="_top" xlink:title=" ">
<polygon fill="none" stroke="black" points="756,-112.5 756,-131.5 822,-131.5 822,-112.5 756,-112.5"/>
<text text-anchor="middle" x="789" y="-119.5" font-family="Helvetica,sans-Serif" font-size="10.00">bwRange.h</text>
</a>
</g>
</g>
<!-- Node1&#45;&gt;Node12 -->
<g id="edge12" class="edge">
<title>Node1&#45;&gt;Node12</title>
<path fill="none" stroke="midnightblue" d="M502.6,-168.95C562.51,-160.42 658.99,-146.23 742,-132 743.27,-131.78 744.55,-131.56 745.85,-131.33"/>
<polygon fill="midnightblue" stroke="midnightblue" points="746.69,-134.73 755.91,-129.5 745.44,-127.85 746.69,-134.73"/>
</g>
<!-- Node13 -->
<g id="node13" class="node">
<title>Node13</title>
<g id="a_node13"><a xlink:href="bwStyle_8h.html" target="_top" xlink:title=" ">
<polygon fill="none" stroke="black" points="276,-112.5 276,-131.5 336,-131.5 336,-112.5 276,-112.5"/>
<text text-anchor="middle" x="306" y="-119.5" font-family="Helvetica,sans-Serif" font-size="10.00">bwStyle.h</text>
</a>
</g>
</g>
<!-- Node1&#45;&gt;Node13 -->
<g id="edge13" class="edge">
<title>Node1&#45;&gt;Node13</title>
<path fill="none" stroke="midnightblue" d="M422.98,-168.44C399.9,-159.48 363.44,-145.31 337.36,-135.18"/>
<polygon fill="midnightblue" stroke="midnightblue" points="338.51,-131.88 327.92,-131.52 335.98,-138.4 338.51,-131.88"/>
</g>
<!-- Node15 -->
<g id="node15" class="node">
<title>Node15</title>
<g id="a_node15"><a xlink:href="bwUtil_8h.html" target="_top" xlink:title=" ">
<polygon fill="none" stroke="black" points="840.5,-112.5 840.5,-131.5 893.5,-131.5 893.5,-112.5 840.5,-112.5"/>
<text text-anchor="middle" x="867" y="-119.5" font-family="Helvetica,sans-Serif" font-size="10.00">bwUtil.h</text>
</a>
</g>
</g>
<!-- Node1&#45;&gt;Node15 -->
<g id="edge16" class="edge">
<title>Node1&#45;&gt;Node15</title>
<path fill="none" stroke="midnightblue" d="M502.57,-172.62C576.3,-166.5 708.16,-153.8 830.44,-131.87"/>
<polygon fill="midnightblue" stroke="midnightblue" points="831.13,-135.3 840.35,-130.07 829.88,-128.42 831.13,-135.3"/>
</g>
<!-- Node16 -->
<g id="node16" class="node">
<title>Node16</title>
<g id="a_node16"><a xlink:href="bwWidgetBaseStyle_8h.html" target="_top" xlink:title=" ">
<polygon fill="none" stroke="black" points="828.5,-56.5 828.5,-75.5 941.5,-75.5 941.5,-56.5 828.5,-56.5"/>
<text text-anchor="middle" x="885" y="-63.5" font-family="Helvetica,sans-Serif" font-size="10.00">bwWidgetBaseStyle.h</text>
</a>
</g>
</g>
<!-- Node1&#45;&gt;Node16 -->
<g id="edge17" class="edge">
<title>Node1&#45;&gt;Node16</title>
<path fill="none" stroke="midnightblue" d="M502.67,-172.45C557.03,-166.93 640.19,-155.31 709,-132 727.08,-125.88 729.42,-119.43 747,-112 778.84,-98.55 816.17,-86.59 843.97,-78.39"/>
<polygon fill="midnightblue" stroke="midnightblue" points="845.14,-81.7 853.76,-75.54 843.18,-74.98 845.14,-81.7"/>
</g>
<!-- Node18 -->
<g id="node18" class="node">
<title>Node18</title>
<g id="a_node18"><a xlink:href="bwPainter_8h.html" target="_top" xlink:title=" ">
<polygon fill="none" stroke="black" points="632,-112.5 632,-131.5 700,-131.5 700,-112.5 632,-112.5"/>
<text text-anchor="middle" x="666" y="-119.5" font-family="Helvetica,sans-Serif" font-size="10.00">bwPainter.h</text>
</a>
</g>
</g>
<!-- Node1&#45;&gt;Node18 -->
<g id="edge19" class="edge">
<title>Node1&#45;&gt;Node18</title>
<path fill="none" stroke="midnightblue" d="M480.02,-168.44C518.47,-159.05 580.29,-143.94 621.99,-133.75"/>
<polygon fill="midnightblue" stroke="midnightblue" points="622.99,-137.11 631.87,-131.34 621.33,-130.31 622.99,-137.11"/>
</g>
<!-- Node7 -->
<g id="node7" class="node">
<title>Node7</title>
<g id="a_node7"><a xlink:title=" ">
<polygon fill="none" stroke="#bfbfbf" points="378.5,-56.5 378.5,-75.5 419.5,-75.5 419.5,-56.5 378.5,-56.5"/>
<text text-anchor="middle" x="399" y="-63.5" font-family="Helvetica,sans-Serif" font-size="10.00">string</text>
</a>
</g>
</g>
<!-- Node6&#45;&gt;Node7 -->
<g id="edge6" class="edge">
<title>Node6&#45;&gt;Node7</title>
<path fill="none" stroke="midnightblue" d="M399,-112.08C399,-105.01 399,-94.86 399,-85.99"/>
<polygon fill="midnightblue" stroke="midnightblue" points="402.5,-85.75 399,-75.75 395.5,-85.75 402.5,-85.75"/>
</g>
<!-- Node8 -->
<g id="node8" class="node">
<title>Node8</title>
<g id="a_node8"><a xlink:href="bwRectangle_8h.html" target="_top" xlink:title=" ">
<polygon fill="none" stroke="black" points="547,-0.5 547,-19.5 629,-19.5 629,-0.5 547,-0.5"/>
<text text-anchor="middle" x="588" y="-7.5" font-family="Helvetica,sans-Serif" font-size="10.00">bwRectangle.h</text>
</a>
</g>
</g>
<!-- Node6&#45;&gt;Node8 -->
<g id="edge7" class="edge">
<title>Node6&#45;&gt;Node8</title>
<path fill="none" stroke="midnightblue" d="M408.6,-112.09C423.46,-98.64 453.31,-72.92 482,-56 504.6,-42.67 531.88,-31.18 553.1,-23.15"/>
<polygon fill="midnightblue" stroke="midnightblue" points="554.53,-26.36 562.69,-19.6 552.1,-19.79 554.53,-26.36"/>
</g>
<!-- Node10 -->
<g id="node10" class="node">
<title>Node10</title>
<g id="a_node10"><a xlink:title=" ">
<polygon fill="none" stroke="#bfbfbf" points="491,-56.5 491,-75.5 535,-75.5 535,-56.5 491,-56.5"/>
<text text-anchor="middle" x="513" y="-63.5" font-family="Helvetica,sans-Serif" font-size="10.00">vector</text>
</a>
</g>
</g>
<!-- Node9&#45;&gt;Node10 -->
<g id="edge9" class="edge">
<title>Node9&#45;&gt;Node10</title>
<path fill="none" stroke="midnightblue" d="M495.47,-112.08C498.31,-104.77 502.43,-94.18 505.96,-85.1"/>
<polygon fill="midnightblue" stroke="midnightblue" points="509.23,-86.34 509.6,-75.75 502.71,-83.8 509.23,-86.34"/>
</g>
<!-- Node11&#45;&gt;Node10 -->
<g id="edge11" class="edge">
<title>Node11&#45;&gt;Node10</title>
<path fill="none" stroke="midnightblue" d="M566.72,-112.32C557.16,-104.26 542.72,-92.08 531.22,-82.37"/>
<polygon fill="midnightblue" stroke="midnightblue" points="533.37,-79.61 523.47,-75.83 528.86,-84.96 533.37,-79.61"/>
</g>
<!-- Node13&#45;&gt;Node7 -->
<g id="edge15" class="edge">
<title>Node13&#45;&gt;Node7</title>
<path fill="none" stroke="midnightblue" d="M320.94,-112.32C335.59,-103.82 358.13,-90.73 375.24,-80.8"/>
<polygon fill="midnightblue" stroke="midnightblue" points="377.2,-83.7 384.1,-75.65 373.69,-77.65 377.2,-83.7"/>
</g>
<!-- Node14 -->
<g id="node14" class="node">
<title>Node14</title>
<g id="a_node14"><a xlink:title=" ">
<polygon fill="none" stroke="#bfbfbf" points="287,-56.5 287,-75.5 325,-75.5 325,-56.5 287,-56.5"/>
<text text-anchor="middle" x="306" y="-63.5" font-family="Helvetica,sans-Serif" font-size="10.00">array</text>
</a>
</g>
</g>
<!-- Node13&#45;&gt;Node14 -->
<g id="edge14" class="edge">
<title>Node13&#45;&gt;Node14</title>
<path fill="none" stroke="midnightblue" d="M306,-112.08C306,-105.01 306,-94.86 306,-85.99"/>
<polygon fill="midnightblue" stroke="midnightblue" points="309.5,-85.75 306,-75.75 302.5,-85.75 309.5,-85.75"/>
</g>
<!-- Node17 -->
<g id="node17" class="node">
<title>Node17</title>
<g id="a_node17"><a xlink:href="bwColor_8h.html" target="_top" xlink:title=" ">
<polygon fill="none" stroke="black" points="701,-0.5 701,-19.5 761,-19.5 761,-0.5 701,-0.5"/>
<text text-anchor="middle" x="731" y="-7.5" font-family="Helvetica,sans-Serif" font-size="10.00">bwColor.h</text>
</a>
</g>
</g>
<!-- Node16&#45;&gt;Node17 -->
<g id="edge18" class="edge">
<title>Node16&#45;&gt;Node17</title>
<path fill="none" stroke="midnightblue" d="M860.6,-56.44C834.8,-47.4 793.92,-33.06 764.98,-22.92"/>
<polygon fill="midnightblue" stroke="midnightblue" points="765.88,-19.52 755.29,-19.52 763.57,-26.13 765.88,-19.52"/>
</g>
<!-- Node18&#45;&gt;Node7 -->
<g id="edge21" class="edge">
<title>Node18&#45;&gt;Node7</title>
<path fill="none" stroke="midnightblue" d="M631.74,-113.8C628.78,-113.19 625.84,-112.58 623,-112 553.9,-97.83 472.71,-81.63 429.57,-73.06"/>
<polygon fill="midnightblue" stroke="midnightblue" points="430.19,-69.62 419.7,-71.1 428.83,-76.48 430.19,-69.62"/>
</g>
<!-- Node18&#45;&gt;Node10 -->
<g id="edge22" class="edge">
<title>Node18&#45;&gt;Node10</title>
<path fill="none" stroke="midnightblue" d="M641.76,-112.44C615.53,-103.19 573.6,-88.39 544.75,-78.21"/>
<polygon fill="midnightblue" stroke="midnightblue" points="545.74,-74.84 535.14,-74.82 543.41,-81.44 545.74,-74.84"/>
</g>
<!-- Node19 -->
<g id="node19" class="node">
<title>Node19</title>
<g id="a_node19"><a xlink:title=" ">
<polygon fill="none" stroke="#bfbfbf" points="553,-56.5 553,-75.5 605,-75.5 605,-56.5 553,-56.5"/>
<text text-anchor="middle" x="579" y="-63.5" font-family="Helvetica,sans-Serif" font-size="10.00">memory</text>
</a>
</g>
</g>
<!-- Node18&#45;&gt;Node19 -->
<g id="edge20" class="edge">
<title>Node18&#45;&gt;Node19</title>
<path fill="none" stroke="midnightblue" d="M652.02,-112.32C638.45,-103.9 617.62,-90.97 601.68,-81.07"/>
<polygon fill="midnightblue" stroke="midnightblue" points="603.29,-77.95 592.94,-75.65 599.59,-83.9 603.29,-77.95"/>
</g>
<!-- Node20 -->
<g id="node20" class="node">
<title>Node20</title>
<g id="a_node20"><a xlink:href="bwGradient_8h.html" target="_top" xlink:title=" ">
<polygon fill="none" stroke="black" points="623,-56.5 623,-75.5 697,-75.5 697,-56.5 623,-56.5"/>
<text text-anchor="middle" x="660" y="-63.5" font-family="Helvetica,sans-Serif" font-size="10.00">bwGradient.h</text>
</a>
</g>
</g>
<!-- Node18&#45;&gt;Node20 -->
<g id="edge23" class="edge">
<title>Node18&#45;&gt;Node20</title>
<path fill="none" stroke="midnightblue" d="M665.01,-112.08C664.21,-104.93 663.07,-94.64 662.08,-85.69"/>
<polygon fill="midnightblue" stroke="midnightblue" points="665.56,-85.3 660.97,-75.75 658.6,-86.08 665.56,-85.3"/>
</g>
<!-- Node21 -->
<g id="node21" class="node">
<title>Node21</title>
<g id="a_node21"><a xlink:href="bwIconInterface_8h.html" target="_top" xlink:title=" ">
<polygon fill="none" stroke="black" points="715.5,-56.5 715.5,-75.5 810.5,-75.5 810.5,-56.5 715.5,-56.5"/>
<text text-anchor="middle" x="763" y="-63.5" font-family="Helvetica,sans-Serif" font-size="10.00">bwIconInterface.h</text>
</a>
</g>
</g>
<!-- Node18&#45;&gt;Node21 -->
<g id="edge26" class="edge">
<title>Node18&#45;&gt;Node21</title>
<path fill="none" stroke="midnightblue" d="M681.58,-112.32C697,-103.74 720.81,-90.49 738.71,-80.52"/>
<polygon fill="midnightblue" stroke="midnightblue" points="740.42,-83.58 747.45,-75.65 737.01,-77.46 740.42,-83.58"/>
</g>
<!-- Node20&#45;&gt;Node8 -->
<g id="edge25" class="edge">
<title>Node20&#45;&gt;Node8</title>
<path fill="none" stroke="midnightblue" d="M648.43,-56.32C637.58,-48.18 621.12,-35.84 608.12,-26.09"/>
<polygon fill="midnightblue" stroke="midnightblue" points="609.88,-23.03 599.78,-19.83 605.68,-28.63 609.88,-23.03"/>
</g>
<!-- Node20&#45;&gt;Node17 -->
<g id="edge24" class="edge">
<title>Node20&#45;&gt;Node17</title>
<path fill="none" stroke="midnightblue" d="M671.41,-56.32C682.11,-48.18 698.34,-35.84 711.16,-26.09"/>
<polygon fill="midnightblue" stroke="midnightblue" points="713.54,-28.67 719.39,-19.83 709.31,-23.1 713.54,-28.67"/>
</g>
</g>
</svg>
