<?xml version="1.0" encoding="UTF-8" standalone="no"?>
<!DOCTYPE svg PUBLIC "-//W3C//DTD SVG 1.1//EN"
 "http://www.w3.org/Graphics/SVG/1.1/DTD/svg11.dtd">
<!-- Generated by graphviz version 2.50.0 (20211204.2007)
 -->
<!-- Title: bwidgets/bwPaintEngine.h Pages: 1 -->
<svg width="258pt" height="95pt"
 viewBox="0.00 0.00 258.00 95.00" xmlns="http://www.w3.org/2000/svg" xmlns:xlink="http://www.w3.org/1999/xlink">
<g id="graph0" class="graph" transform="scale(1 1) rotate(0) translate(4 91)">
<title>bwidgets/bwPaintEngine.h</title>
<!-- Node1 -->
<g id="node1" class="node">
<title>Node1</title>
<g id="a_node1"><a xlink:title=" ">
<polygon fill="#bfbfbf" stroke="black" points="58.5,-67.5 58.5,-86.5 190.5,-86.5 190.5,-67.5 58.5,-67.5"/>
<text text-anchor="middle" x="124.5" y="-74.5" font-family="Helvetica,sans-Serif" font-size="10.00">bwidgets/bwPaintEngine.h</text>
</a>
</g>
</g>
<!-- Node2 -->
<g id="node2" class="node">
<title>Node2</title>
<g id="a_node2"><a xlink:href="bwPainter_8cc.html" target="_top" xlink:title=" ">
<polygon fill="none" stroke="black" points="0,-6 0,-25 115,-25 115,-6 0,-6"/>
<text text-anchor="middle" x="57.5" y="-13" font-family="Helvetica,sans-Serif" font-size="10.00">bwidgets/bwPainter.cc</text>
</a>
</g>
</g>
<!-- Node1&#45;&gt;Node2 -->
<g id="edge1" class="edge">
<title>Node1&#45;&gt;Node2</title>
<path fill="none" stroke="midnightblue" d="M107.21,-60.65C94.44,-49.31 77.52,-34.28 67.08,-25.01"/>
<polygon fill="midnightblue" stroke="midnightblue" points="105.1,-63.45 114.9,-67.48 109.75,-58.22 105.1,-63.45"/>
</g>
<!-- Node3 -->
<g id="node3" class="node">
<title>Node3</title>
<g id="a_node3"><a xlink:href="Drawer_8cc.html" target="_top" xlink:title=" ">
<polygon fill="none" stroke="black" points="133,-0.5 133,-30.5 250,-30.5 250,-0.5 133,-0.5"/>
<text text-anchor="start" x="141" y="-18.5" font-family="Helvetica,sans-Serif" font-size="10.00">bwidgets/screen_graph</text>
<text text-anchor="middle" x="191.5" y="-7.5" font-family="Helvetica,sans-Serif" font-size="10.00">/Drawer.cc</text>
</a>
</g>
</g>
<!-- Node1&#45;&gt;Node3 -->
<g id="edge2" class="edge">
<title>Node1&#45;&gt;Node3</title>
<path fill="none" stroke="midnightblue" d="M141.79,-60.65C152.26,-51.35 165.52,-39.57 175.71,-30.52"/>
<polygon fill="midnightblue" stroke="midnightblue" points="139.25,-58.22 134.1,-67.48 143.9,-63.45 139.25,-58.22"/>
</g>
</g>
</svg>
