<?xml version="1.0" encoding="UTF-8" standalone="no"?>
<!DOCTYPE svg PUBLIC "-//W3C//DTD SVG 1.1//EN"
 "http://www.w3.org/Graphics/SVG/1.1/DTD/svg11.dtd">
<!-- Generated by graphviz version 2.50.0 (20211204.2007)
 -->
<!-- Title: bwidgets/widgets/bwPanel.h Pages: 1 -->
<svg width="435pt" height="162pt"
 viewBox="0.00 0.00 434.50 162.00" xmlns="http://www.w3.org/2000/svg" xmlns:xlink="http://www.w3.org/1999/xlink">
<g id="graph0" class="graph" transform="scale(1 1) rotate(0) translate(4 158)">
<title>bwidgets/widgets/bwPanel.h</title>
<!-- Node1 -->
<g id="node1" class="node">
<title>Node1</title>
<g id="a_node1"><a xlink:title=" ">
<polygon fill="#bfbfbf" stroke="black" points="207,-134.5 207,-153.5 348,-153.5 348,-134.5 207,-134.5"/>
<text text-anchor="middle" x="277.5" y="-141.5" font-family="Helvetica,sans-Serif" font-size="10.00">bwidgets/widgets/bwPanel.h</text>
</a>
</g>
</g>
<!-- Node2 -->
<g id="node2" class="node">
<title>Node2</title>
<g id="a_node2"><a xlink:href="builtin__widgets_8h.html" target="_top" xlink:title=" ">
<polygon fill="none" stroke="black" points="141,-67.5 141,-97.5 262,-97.5 262,-67.5 141,-67.5"/>
<text text-anchor="start" x="149" y="-85.5" font-family="Helvetica,sans-Serif" font-size="10.00">bwidgets/widgets/builtin</text>
<text text-anchor="middle" x="201.5" y="-74.5" font-family="Helvetica,sans-Serif" font-size="10.00">_widgets.h</text>
</a>
</g>
</g>
<!-- Node1&#45;&gt;Node2 -->
<g id="edge1" class="edge">
<title>Node1&#45;&gt;Node2</title>
<path fill="none" stroke="midnightblue" d="M258.59,-128.2C246.61,-118.81 231.2,-106.75 219.41,-97.52"/>
<polygon fill="midnightblue" stroke="midnightblue" points="256.58,-131.07 266.61,-134.48 260.89,-125.55 256.58,-131.07"/>
</g>
<!-- Node6 -->
<g id="node6" class="node">
<title>Node6</title>
<g id="a_node6"><a xlink:href="bwPanel_8cc.html" target="_top" xlink:title=" ">
<polygon fill="none" stroke="black" points="280.5,-73 280.5,-92 426.5,-92 426.5,-73 280.5,-73"/>
<text text-anchor="middle" x="353.5" y="-80" font-family="Helvetica,sans-Serif" font-size="10.00">bwidgets/widgets/bwPanel.cc</text>
</a>
</g>
</g>
<!-- Node1&#45;&gt;Node6 -->
<g id="edge5" class="edge">
<title>Node1&#45;&gt;Node6</title>
<path fill="none" stroke="midnightblue" d="M296.28,-128.29C310.86,-116.88 330.56,-101.46 342.63,-92.01"/>
<polygon fill="midnightblue" stroke="midnightblue" points="294.11,-125.55 288.39,-134.48 298.42,-131.07 294.11,-125.55"/>
</g>
<!-- Node3 -->
<g id="node3" class="node">
<title>Node3</title>
<g id="a_node3"><a xlink:href="bwStyleCSS_8cc.html" target="_top" xlink:title=" ">
<polygon fill="none" stroke="black" points="0,-0.5 0,-30.5 125,-30.5 125,-0.5 0,-0.5"/>
<text text-anchor="start" x="8" y="-18.5" font-family="Helvetica,sans-Serif" font-size="10.00">bwidgets/styling/bwStyle</text>
<text text-anchor="middle" x="62.5" y="-7.5" font-family="Helvetica,sans-Serif" font-size="10.00">CSS.cc</text>
</a>
</g>
</g>
<!-- Node2&#45;&gt;Node3 -->
<g id="edge2" class="edge">
<title>Node2&#45;&gt;Node3</title>
<path fill="none" stroke="midnightblue" d="M162.22,-63.13C140.13,-52.8 112.99,-40.11 92.6,-30.58"/>
<polygon fill="midnightblue" stroke="midnightblue" points="160.8,-66.33 171.34,-67.4 163.76,-59.99 160.8,-66.33"/>
</g>
<!-- Node4 -->
<g id="node4" class="node">
<title>Node4</title>
<g id="a_node4"><a xlink:href="bwStyleClassic_8cc.html" target="_top" xlink:title=" ">
<polygon fill="none" stroke="black" points="143.5,-0.5 143.5,-30.5 259.5,-30.5 259.5,-0.5 143.5,-0.5"/>
<text text-anchor="start" x="151.5" y="-18.5" font-family="Helvetica,sans-Serif" font-size="10.00">bwidgets/styling/styles</text>
<text text-anchor="middle" x="201.5" y="-7.5" font-family="Helvetica,sans-Serif" font-size="10.00">/bwStyleClassic.cc</text>
</a>
</g>
</g>
<!-- Node2&#45;&gt;Node4 -->
<g id="edge3" class="edge">
<title>Node2&#45;&gt;Node4</title>
<path fill="none" stroke="midnightblue" d="M201.5,-57.11C201.5,-48.15 201.5,-38.32 201.5,-30.58"/>
<polygon fill="midnightblue" stroke="midnightblue" points="198,-57.4 201.5,-67.4 205,-57.4 198,-57.4"/>
</g>
<!-- Node5 -->
<g id="node5" class="node">
<title>Node5</title>
<g id="a_node5"><a xlink:href="bwStyleFlatGrey_8cc.html" target="_top" xlink:title=" ">
<polygon fill="none" stroke="black" points="277.5,-0.5 277.5,-30.5 393.5,-30.5 393.5,-0.5 277.5,-0.5"/>
<text text-anchor="start" x="285.5" y="-18.5" font-family="Helvetica,sans-Serif" font-size="10.00">bwidgets/styling/styles</text>
<text text-anchor="middle" x="335.5" y="-7.5" font-family="Helvetica,sans-Serif" font-size="10.00">/bwStyleFlatGrey.cc</text>
</a>
</g>
</g>
<!-- Node2&#45;&gt;Node5 -->
<g id="edge4" class="edge">
<title>Node2&#45;&gt;Node5</title>
<path fill="none" stroke="midnightblue" d="M239.65,-62.99C260.89,-52.69 286.91,-40.07 306.48,-30.58"/>
<polygon fill="midnightblue" stroke="midnightblue" points="238.05,-59.88 230.58,-67.4 241.1,-66.18 238.05,-59.88"/>
</g>
</g>
</svg>
