<?xml version="1.0" encoding="UTF-8" standalone="no"?>
<!DOCTYPE svg PUBLIC "-//W3C//DTD SVG 1.1//EN"
 "http://www.w3.org/Graphics/SVG/1.1/DTD/svg11.dtd">
<!-- Generated by graphviz version 2.50.0 (20211204.2007)
 -->
<!-- Title: bwidgets/generics/bwPoint.h Pages: 1 -->
<svg width="2643pt" height="408pt"
 viewBox="0.00 0.00 2642.55 408.00" xmlns="http://www.w3.org/2000/svg" xmlns:xlink="http://www.w3.org/1999/xlink">
<g id="graph0" class="graph" transform="scale(1 1) rotate(0) translate(4 404)">
<title>bwidgets/generics/bwPoint.h</title>
<!-- Node1 -->
<g id="node1" class="node">
<title>Node1</title>
<g id="a_node1"><a xlink:title=" ">
<polygon fill="#bfbfbf" stroke="black" points="969,-380.5 969,-399.5 1111,-399.5 1111,-380.5 969,-380.5"/>
<text text-anchor="middle" x="1040" y="-387.5" font-family="Helvetica,sans-Serif" font-size="10.00">bwidgets/generics/bwPoint.h</text>
</a>
</g>
</g>
<!-- Node2 -->
<g id="node2" class="node">
<title>Node2</title>
<g id="a_node2"><a xlink:href="bwEvent_8h.html" target="_top" xlink:title=" ">
<polygon fill="none" stroke="black" points="946.5,-268.5 946.5,-287.5 1051.5,-287.5 1051.5,-268.5 946.5,-268.5"/>
<text text-anchor="middle" x="999" y="-275.5" font-family="Helvetica,sans-Serif" font-size="10.00">bwidgets/bwEvent.h</text>
</a>
</g>
</g>
<!-- Node1&#45;&gt;Node2 -->
<g id="edge1" class="edge">
<title>Node1&#45;&gt;Node2</title>
<path fill="none" stroke="midnightblue" d="M1008.62,-375.83C995.42,-368.53 981.42,-358.05 974,-344 963.83,-324.76 980.32,-300.44 991.01,-287.7"/>
<polygon fill="midnightblue" stroke="midnightblue" points="1007.04,-378.96 1017.54,-380.38 1010.22,-372.72 1007.04,-378.96"/>
</g>
<!-- Node5 -->
<g id="node5" class="node">
<title>Node5</title>
<g id="a_node5"><a xlink:href="bwEventDispatcher_8h.html" target="_top" xlink:title=" ">
<polygon fill="none" stroke="black" points="309,-207 309,-226 461,-226 461,-207 309,-207"/>
<text text-anchor="middle" x="385" y="-214" font-family="Helvetica,sans-Serif" font-size="10.00">bwidgets/bwEventDispatcher.h</text>
</a>
</g>
</g>
<!-- Node1&#45;&gt;Node5 -->
<g id="edge22" class="edge">
<title>Node1&#45;&gt;Node5</title>
<path fill="none" stroke="midnightblue" d="M958.94,-379.67C902.42,-372.28 825.51,-360.45 759,-344 621.6,-310.01 462.51,-248.55 406.13,-226.05"/>
<polygon fill="midnightblue" stroke="midnightblue" points="958.53,-383.15 968.9,-380.96 959.43,-376.21 958.53,-383.15"/>
</g>
<!-- Node20 -->
<g id="node20" class="node">
<title>Node20</title>
<g id="a_node20"><a xlink:href="bwPainter_8cc.html" target="_top" xlink:title=" ">
<polygon fill="none" stroke="black" points="982.5,-324.5 982.5,-343.5 1097.5,-343.5 1097.5,-324.5 982.5,-324.5"/>
<text text-anchor="middle" x="1040" y="-331.5" font-family="Helvetica,sans-Serif" font-size="10.00">bwidgets/bwPainter.cc</text>
</a>
</g>
</g>
<!-- Node1&#45;&gt;Node20 -->
<g id="edge23" class="edge">
<title>Node1&#45;&gt;Node20</title>
<path fill="none" stroke="midnightblue" d="M1040,-369.8C1040,-360.91 1040,-350.78 1040,-343.75"/>
<polygon fill="midnightblue" stroke="midnightblue" points="1036.5,-370.08 1040,-380.08 1043.5,-370.08 1036.5,-370.08"/>
</g>
<!-- Node21 -->
<g id="node21" class="node">
<title>Node21</title>
<g id="a_node21"><a xlink:href="bwDistance_8h.html" target="_top" xlink:title=" ">
<polygon fill="none" stroke="black" points="768,-324.5 768,-343.5 926,-343.5 926,-324.5 768,-324.5"/>
<text text-anchor="middle" x="847" y="-331.5" font-family="Helvetica,sans-Serif" font-size="10.00">bwidgets/generics/bwDistance.h</text>
</a>
</g>
</g>
<!-- Node1&#45;&gt;Node21 -->
<g id="edge24" class="edge">
<title>Node1&#45;&gt;Node21</title>
<path fill="none" stroke="midnightblue" d="M999.61,-377.7C963.18,-367.51 910.41,-352.74 877.44,-343.52"/>
<polygon fill="midnightblue" stroke="midnightblue" points="998.85,-381.12 1009.42,-380.44 1000.73,-374.38 998.85,-381.12"/>
</g>
<!-- Node44 -->
<g id="node44" class="node">
<title>Node44</title>
<g id="a_node44"><a xlink:href="bwGradient_8cc.html" target="_top" xlink:title=" ">
<polygon fill="none" stroke="black" points="1115.5,-324.5 1115.5,-343.5 1276.5,-343.5 1276.5,-324.5 1115.5,-324.5"/>
<text text-anchor="middle" x="1196" y="-331.5" font-family="Helvetica,sans-Serif" font-size="10.00">bwidgets/generics/bwGradient.cc</text>
</a>
</g>
</g>
<!-- Node1&#45;&gt;Node44 -->
<g id="edge73" class="edge">
<title>Node1&#45;&gt;Node44</title>
<path fill="none" stroke="midnightblue" d="M1074.17,-377.17C1103.54,-367 1145.2,-352.59 1171.4,-343.52"/>
<polygon fill="midnightblue" stroke="midnightblue" points="1073.02,-373.86 1064.72,-380.44 1075.31,-380.48 1073.02,-373.86"/>
</g>
<!-- Node45 -->
<g id="node45" class="node">
<title>Node45</title>
<g id="a_node45"><a xlink:href="bwPoint_8cc.html" target="_top" xlink:title=" ">
<polygon fill="none" stroke="black" points="1294.5,-324.5 1294.5,-343.5 1441.5,-343.5 1441.5,-324.5 1294.5,-324.5"/>
<text text-anchor="middle" x="1368" y="-331.5" font-family="Helvetica,sans-Serif" font-size="10.00">bwidgets/generics/bwPoint.cc</text>
</a>
</g>
</g>
<!-- Node1&#45;&gt;Node45 -->
<g id="edge74" class="edge">
<title>Node1&#45;&gt;Node45</title>
<path fill="none" stroke="midnightblue" d="M1102.01,-378.79C1163.99,-368.59 1258.19,-353.08 1316.27,-343.52"/>
<polygon fill="midnightblue" stroke="midnightblue" points="1101.27,-375.37 1091.97,-380.44 1102.41,-382.27 1101.27,-375.37"/>
</g>
<!-- Node46 -->
<g id="node46" class="node">
<title>Node46</title>
<g id="a_node46"><a xlink:href="bwPolygon_8cc.html" target="_top" xlink:title=" ">
<polygon fill="none" stroke="black" points="1460,-324.5 1460,-343.5 1620,-343.5 1620,-324.5 1460,-324.5"/>
<text text-anchor="middle" x="1540" y="-331.5" font-family="Helvetica,sans-Serif" font-size="10.00">bwidgets/generics/bwPolygon.cc</text>
</a>
</g>
</g>
<!-- Node1&#45;&gt;Node46 -->
<g id="edge75" class="edge">
<title>Node1&#45;&gt;Node46</title>
<path fill="none" stroke="midnightblue" d="M1121.11,-380.24C1214.83,-370.12 1368.02,-353.57 1460.89,-343.54"/>
<polygon fill="midnightblue" stroke="midnightblue" points="1120.67,-376.77 1111.11,-381.32 1121.42,-383.73 1120.67,-376.77"/>
</g>
<!-- Node3 -->
<g id="node3" class="node">
<title>Node3</title>
<g id="a_node3"><a xlink:href="bwEvent_8cc.html" target="_top" xlink:title=" ">
<polygon fill="none" stroke="black" points="2426,-207 2426,-226 2536,-226 2536,-207 2426,-207"/>
<text text-anchor="middle" x="2481" y="-214" font-family="Helvetica,sans-Serif" font-size="10.00">bwidgets/bwEvent.cc</text>
</a>
</g>
</g>
<!-- Node2&#45;&gt;Node3 -->
<g id="edge2" class="edge">
<title>Node2&#45;&gt;Node3</title>
<path fill="none" stroke="midnightblue" d="M1061.75,-276.6C1300.08,-274.85 2149.18,-266.27 2417,-232 2427.51,-230.66 2438.83,-228.37 2448.98,-226.01"/>
<polygon fill="midnightblue" stroke="midnightblue" points="1061.5,-273.1 1051.53,-276.68 1061.55,-280.1 1061.5,-273.1"/>
</g>
<!-- Node4 -->
<g id="node4" class="node">
<title>Node4</title>
<g id="a_node4"><a xlink:href="bwEventDispatcher_8cc.html" target="_top" xlink:title=" ">
<polygon fill="none" stroke="black" points="628.5,-73 628.5,-92 785.5,-92 785.5,-73 628.5,-73"/>
<text text-anchor="middle" x="707" y="-80" font-family="Helvetica,sans-Serif" font-size="10.00">bwidgets/bwEventDispatcher.cc</text>
</a>
</g>
</g>
<!-- Node2&#45;&gt;Node4 -->
<g id="edge3" class="edge">
<title>Node2&#45;&gt;Node4</title>
<path fill="none" stroke="midnightblue" d="M936.1,-269.6C861.39,-260.46 741.44,-244.58 698,-232 627.08,-211.47 586.32,-226.84 546,-165 519.01,-123.6 586.41,-102.28 642.13,-92.01"/>
<polygon fill="midnightblue" stroke="midnightblue" points="935.97,-273.11 946.32,-270.84 936.82,-266.16 935.97,-273.11"/>
</g>
<!-- Node2&#45;&gt;Node5 -->
<g id="edge4" class="edge">
<title>Node2&#45;&gt;Node5</title>
<path fill="none" stroke="midnightblue" d="M935.75,-271.18C808.9,-259.5 533.7,-234.13 513,-232 495.09,-230.16 475.79,-228.04 457.74,-226"/>
<polygon fill="midnightblue" stroke="midnightblue" points="935.81,-274.7 946.09,-272.13 936.45,-267.73 935.81,-274.7"/>
</g>
<!-- Node9 -->
<g id="node9" class="node">
<title>Node9</title>
<g id="a_node9"><a xlink:href="bwScrollView_8cc.html" target="_top" xlink:title=" ">
<polygon fill="none" stroke="black" points="747.5,-0.5 747.5,-30.5 880.5,-30.5 880.5,-0.5 747.5,-0.5"/>
<text text-anchor="start" x="755.5" y="-18.5" font-family="Helvetica,sans-Serif" font-size="10.00">bwidgets/widgets/bwScroll</text>
<text text-anchor="middle" x="814" y="-7.5" font-family="Helvetica,sans-Serif" font-size="10.00">View.cc</text>
</a>
</g>
</g>
<!-- Node2&#45;&gt;Node9 -->
<g id="edge20" class="edge">
<title>Node2&#45;&gt;Node9</title>
<path fill="none" stroke="midnightblue" d="M986.86,-259.91C952.58,-211.64 855.46,-74.88 823.98,-30.56"/>
<polygon fill="midnightblue" stroke="midnightblue" points="984.2,-262.21 992.84,-268.33 989.91,-258.15 984.2,-262.21"/>
</g>
<!-- Node13 -->
<g id="node13" class="node">
<title>Node13</title>
<g id="a_node13"><a xlink:href="bwAbstractButton_8cc.html" target="_top" xlink:title=" ">
<polygon fill="none" stroke="black" points="2431.5,-134.5 2431.5,-164.5 2576.5,-164.5 2576.5,-134.5 2431.5,-134.5"/>
<text text-anchor="start" x="2439.5" y="-152.5" font-family="Helvetica,sans-Serif" font-size="10.00">bwidgets/widgets/bwAbstract</text>
<text text-anchor="middle" x="2504" y="-141.5" font-family="Helvetica,sans-Serif" font-size="10.00">Button.cc</text>
</a>
</g>
</g>
<!-- Node2&#45;&gt;Node13 -->
<g id="edge14" class="edge">
<title>Node2&#45;&gt;Node13</title>
<path fill="none" stroke="midnightblue" d="M1061.89,-276.36C1348.56,-273.27 2518.74,-259.04 2545,-232 2563.98,-212.46 2538.95,-182.39 2520.48,-164.75"/>
<polygon fill="midnightblue" stroke="midnightblue" points="1061.63,-272.86 1051.67,-276.46 1061.71,-279.86 1061.63,-272.86"/>
</g>
<!-- Node14 -->
<g id="node14" class="node">
<title>Node14</title>
<g id="a_node14"><a xlink:href="bwCheckbox_8cc.html" target="_top" xlink:title=" ">
<polygon fill="none" stroke="black" points="2441,-73 2441,-92 2607,-92 2607,-73 2441,-73"/>
<text text-anchor="middle" x="2524" y="-80" font-family="Helvetica,sans-Serif" font-size="10.00">bwidgets/widgets/bwCheckbox.cc</text>
</a>
</g>
</g>
<!-- Node2&#45;&gt;Node14 -->
<g id="edge15" class="edge">
<title>Node2&#45;&gt;Node14</title>
<path fill="none" stroke="midnightblue" d="M1062.2,-277.1C1350.49,-277.34 2529.6,-275.61 2594,-232 2631.61,-206.53 2646.72,-172.73 2623,-134 2609.6,-112.12 2583.4,-99.34 2561.32,-92.12"/>
<polygon fill="midnightblue" stroke="midnightblue" points="1061.92,-273.6 1051.92,-277.09 1061.92,-280.6 1061.92,-273.6"/>
</g>
<!-- Node15 -->
<g id="node15" class="node">
<title>Node15</title>
<g id="a_node15"><a xlink:href="bwNumberSlider_8cc.html" target="_top" xlink:title=" ">
<polygon fill="none" stroke="black" points="1119.5,-67.5 1119.5,-97.5 1262.5,-97.5 1262.5,-67.5 1119.5,-67.5"/>
<text text-anchor="start" x="1127.5" y="-85.5" font-family="Helvetica,sans-Serif" font-size="10.00">bwidgets/widgets/bwNumber</text>
<text text-anchor="middle" x="1191" y="-74.5" font-family="Helvetica,sans-Serif" font-size="10.00">Slider.cc</text>
</a>
</g>
</g>
<!-- Node2&#45;&gt;Node15 -->
<g id="edge16" class="edge">
<title>Node2&#45;&gt;Node15</title>
<path fill="none" stroke="midnightblue" d="M995.63,-258.37C991.35,-228.39 987.77,-169.22 1018,-134 1031.6,-118.15 1078.07,-105.1 1119.42,-96.24"/>
<polygon fill="midnightblue" stroke="midnightblue" points="992.19,-259.01 997.24,-268.33 999.1,-257.9 992.19,-259.01"/>
</g>
<!-- Node16 -->
<g id="node16" class="node">
<title>Node16</title>
<g id="a_node16"><a xlink:href="bwPanel_8cc.html" target="_top" xlink:title=" ">
<polygon fill="none" stroke="black" points="1616,-73 1616,-92 1762,-92 1762,-73 1616,-73"/>
<text text-anchor="middle" x="1689" y="-80" font-family="Helvetica,sans-Serif" font-size="10.00">bwidgets/widgets/bwPanel.cc</text>
</a>
</g>
</g>
<!-- Node2&#45;&gt;Node16 -->
<g id="edge17" class="edge">
<title>Node2&#45;&gt;Node16</title>
<path fill="none" stroke="midnightblue" d="M1061.89,-276.27C1301.23,-272.83 2145.66,-254.39 2221,-165 2229.88,-154.47 2230.27,-144.19 2221,-134 2190.72,-100.71 1900.82,-88.88 1762.17,-85.09"/>
<polygon fill="midnightblue" stroke="midnightblue" points="1061.57,-272.77 1051.62,-276.41 1061.67,-279.77 1061.57,-272.77"/>
</g>
<!-- Node17 -->
<g id="node17" class="node">
<title>Node17</title>
<g id="a_node17"><a xlink:href="bwRadioButton_8cc.html" target="_top" xlink:title=" ">
<polygon fill="none" stroke="black" points="957,-67.5 957,-97.5 1091,-97.5 1091,-67.5 957,-67.5"/>
<text text-anchor="start" x="965" y="-85.5" font-family="Helvetica,sans-Serif" font-size="10.00">bwidgets/widgets/bwRadio</text>
<text text-anchor="middle" x="1024" y="-74.5" font-family="Helvetica,sans-Serif" font-size="10.00">Button.cc</text>
</a>
</g>
</g>
<!-- Node2&#45;&gt;Node17 -->
<g id="edge18" class="edge">
<title>Node2&#45;&gt;Node17</title>
<path fill="none" stroke="midnightblue" d="M991.95,-258.74C989.19,-250.67 986.37,-241 985,-232 978.46,-188.94 970.94,-175.22 985,-134 989.72,-120.16 999.94,-107.17 1008.74,-97.83"/>
<polygon fill="midnightblue" stroke="midnightblue" points="988.69,-260.02 995.4,-268.22 995.27,-257.63 988.69,-260.02"/>
</g>
<!-- Node18 -->
<g id="node18" class="node">
<title>Node18</title>
<g id="a_node18"><a xlink:href="bwScrollBar_8cc.html" target="_top" xlink:title=" ">
<polygon fill="none" stroke="black" points="2132.5,-67.5 2132.5,-97.5 2265.5,-97.5 2265.5,-67.5 2132.5,-67.5"/>
<text text-anchor="start" x="2140.5" y="-85.5" font-family="Helvetica,sans-Serif" font-size="10.00">bwidgets/widgets/bwScroll</text>
<text text-anchor="middle" x="2199" y="-74.5" font-family="Helvetica,sans-Serif" font-size="10.00">Bar.cc</text>
</a>
</g>
</g>
<!-- Node2&#45;&gt;Node18 -->
<g id="edge19" class="edge">
<title>Node2&#45;&gt;Node18</title>
<path fill="none" stroke="midnightblue" d="M1061.73,-276.86C1345.27,-276 2496.13,-270.17 2562,-232 2602.85,-208.33 2634.25,-169.4 2603,-134 2581.07,-109.16 2374.54,-93.62 2265.59,-87.08"/>
<polygon fill="midnightblue" stroke="midnightblue" points="1061.61,-273.36 1051.62,-276.89 1061.63,-280.36 1061.61,-273.36"/>
</g>
<!-- Node19 -->
<g id="node19" class="node">
<title>Node19</title>
<g id="a_node19"><a xlink:href="bwTextBox_8cc.html" target="_top" xlink:title=" ">
<polygon fill="none" stroke="black" points="2054,-140 2054,-159 2212,-159 2212,-140 2054,-140"/>
<text text-anchor="middle" x="2133" y="-147" font-family="Helvetica,sans-Serif" font-size="10.00">bwidgets/widgets/bwTextBox.cc</text>
</a>
</g>
</g>
<!-- Node2&#45;&gt;Node19 -->
<g id="edge21" class="edge">
<title>Node2&#45;&gt;Node19</title>
<path fill="none" stroke="midnightblue" d="M1062.13,-276.01C1188.86,-273.38 1483.11,-264.05 1728,-232 1866.85,-213.83 2029.49,-175.97 2098.86,-159.02"/>
<polygon fill="midnightblue" stroke="midnightblue" points="1061.77,-272.51 1051.84,-276.21 1061.91,-279.51 1061.77,-272.51"/>
</g>
<!-- Node5&#45;&gt;Node4 -->
<g id="edge5" class="edge">
<title>Node5&#45;&gt;Node4</title>
<path fill="none" stroke="midnightblue" d="M408.79,-201.81C425.77,-191.9 449.03,-178.01 469,-165 489.04,-151.94 491.3,-144.06 513,-134 558.31,-112.99 613.78,-99.67 653.78,-92.01"/>
<polygon fill="midnightblue" stroke="midnightblue" points="406.96,-198.83 400.07,-206.88 410.48,-204.89 406.96,-198.83"/>
</g>
<!-- Node6 -->
<g id="node6" class="node">
<title>Node6</title>
<g id="a_node6"><a xlink:href="ScreenGraph_8h.html" target="_top" xlink:title=" ">
<polygon fill="none" stroke="black" points="208.5,-134.5 208.5,-164.5 325.5,-164.5 325.5,-134.5 208.5,-134.5"/>
<text text-anchor="start" x="216.5" y="-152.5" font-family="Helvetica,sans-Serif" font-size="10.00">bwidgets/screen_graph</text>
<text text-anchor="middle" x="267" y="-141.5" font-family="Helvetica,sans-Serif" font-size="10.00">/ScreenGraph.h</text>
</a>
</g>
</g>
<!-- Node5&#45;&gt;Node6 -->
<g id="edge6" class="edge">
<title>Node5&#45;&gt;Node6</title>
<path fill="none" stroke="midnightblue" d="M360.31,-201.9C340.46,-190.97 312.66,-175.65 292.58,-164.59"/>
<polygon fill="midnightblue" stroke="midnightblue" points="358.64,-204.97 369.09,-206.73 362.02,-198.84 358.64,-204.97"/>
</g>
<!-- Node6&#45;&gt;Node4 -->
<g id="edge7" class="edge">
<title>Node6&#45;&gt;Node4</title>
<path fill="none" stroke="midnightblue" d="M335.84,-133.75C443.51,-115.12 557.73,-100.63 631,-92.02"/>
<polygon fill="midnightblue" stroke="midnightblue" points="335.02,-130.34 325.77,-135.51 336.23,-137.23 335.02,-130.34"/>
</g>
<!-- Node7 -->
<g id="node7" class="node">
<title>Node7</title>
<g id="a_node7"><a xlink:href="Builder_8h.html" target="_top" xlink:title=" ">
<polygon fill="none" stroke="black" points="49.5,-67.5 49.5,-97.5 166.5,-97.5 166.5,-67.5 49.5,-67.5"/>
<text text-anchor="start" x="57.5" y="-85.5" font-family="Helvetica,sans-Serif" font-size="10.00">bwidgets/screen_graph</text>
<text text-anchor="middle" x="108" y="-74.5" font-family="Helvetica,sans-Serif" font-size="10.00">/Builder.h</text>
</a>
</g>
</g>
<!-- Node6&#45;&gt;Node7 -->
<g id="edge8" class="edge">
<title>Node6&#45;&gt;Node7</title>
<path fill="none" stroke="midnightblue" d="M223.08,-130.54C197.63,-120.14 166.07,-107.24 142.43,-97.58"/>
<polygon fill="midnightblue" stroke="midnightblue" points="221.92,-133.85 232.5,-134.4 224.57,-127.37 221.92,-133.85"/>
</g>
<!-- Node10 -->
<g id="node10" class="node">
<title>Node10</title>
<g id="a_node10"><a xlink:href="Drawer_8cc.html" target="_top" xlink:title=" ">
<polygon fill="none" stroke="black" points="184.5,-67.5 184.5,-97.5 301.5,-97.5 301.5,-67.5 184.5,-67.5"/>
<text text-anchor="start" x="192.5" y="-85.5" font-family="Helvetica,sans-Serif" font-size="10.00">bwidgets/screen_graph</text>
<text text-anchor="middle" x="243" y="-74.5" font-family="Helvetica,sans-Serif" font-size="10.00">/Drawer.cc</text>
</a>
</g>
</g>
<!-- Node6&#45;&gt;Node10 -->
<g id="edge11" class="edge">
<title>Node6&#45;&gt;Node10</title>
<path fill="none" stroke="midnightblue" d="M258.32,-124.99C254.93,-115.8 251.15,-105.58 248.2,-97.58"/>
<polygon fill="midnightblue" stroke="midnightblue" points="255.05,-126.23 261.79,-134.4 261.61,-123.8 255.05,-126.23"/>
</g>
<!-- Node11 -->
<g id="node11" class="node">
<title>Node11</title>
<g id="a_node11"><a xlink:href="Iterators_8h.html" target="_top" xlink:title=" ">
<polygon fill="none" stroke="black" points="319.5,-67.5 319.5,-97.5 436.5,-97.5 436.5,-67.5 319.5,-67.5"/>
<text text-anchor="start" x="327.5" y="-85.5" font-family="Helvetica,sans-Serif" font-size="10.00">bwidgets/screen_graph</text>
<text text-anchor="middle" x="378" y="-74.5" font-family="Helvetica,sans-Serif" font-size="10.00">/Iterators.h</text>
</a>
</g>
</g>
<!-- Node6&#45;&gt;Node11 -->
<g id="edge12" class="edge">
<title>Node6&#45;&gt;Node11</title>
<path fill="none" stroke="midnightblue" d="M299.8,-129.3C317.16,-119.12 338.12,-106.85 353.96,-97.58"/>
<polygon fill="midnightblue" stroke="midnightblue" points="297.95,-126.32 291.09,-134.4 301.48,-132.36 297.95,-126.32"/>
</g>
<!-- Node8 -->
<g id="node8" class="node">
<title>Node8</title>
<g id="a_node8"><a xlink:href="Builder_8cc.html" target="_top" xlink:title=" ">
<polygon fill="none" stroke="black" points="49.5,-0.5 49.5,-30.5 166.5,-30.5 166.5,-0.5 49.5,-0.5"/>
<text text-anchor="start" x="57.5" y="-18.5" font-family="Helvetica,sans-Serif" font-size="10.00">bwidgets/screen_graph</text>
<text text-anchor="middle" x="108" y="-7.5" font-family="Helvetica,sans-Serif" font-size="10.00">/Builder.cc</text>
</a>
</g>
</g>
<!-- Node7&#45;&gt;Node8 -->
<g id="edge9" class="edge">
<title>Node7&#45;&gt;Node8</title>
<path fill="none" stroke="midnightblue" d="M108,-57.11C108,-48.15 108,-38.32 108,-30.58"/>
<polygon fill="midnightblue" stroke="midnightblue" points="104.5,-57.4 108,-67.4 111.5,-57.4 104.5,-57.4"/>
</g>
<!-- Node7&#45;&gt;Node9 -->
<g id="edge10" class="edge">
<title>Node7&#45;&gt;Node9</title>
<path fill="none" stroke="midnightblue" d="M176.88,-66.84C390.27,-36.08 632.72,-23.45 747.44,-18.82"/>
<polygon fill="midnightblue" stroke="midnightblue" points="176.13,-63.41 166.74,-68.32 177.14,-70.34 176.13,-63.41"/>
</g>
<!-- Node12 -->
<g id="node12" class="node">
<title>Node12</title>
<g id="a_node12"><a xlink:href="Iterators_8cc.html" target="_top" xlink:title=" ">
<polygon fill="none" stroke="black" points="319.5,-0.5 319.5,-30.5 436.5,-30.5 436.5,-0.5 319.5,-0.5"/>
<text text-anchor="start" x="327.5" y="-18.5" font-family="Helvetica,sans-Serif" font-size="10.00">bwidgets/screen_graph</text>
<text text-anchor="middle" x="378" y="-7.5" font-family="Helvetica,sans-Serif" font-size="10.00">/Iterators.cc</text>
</a>
</g>
</g>
<!-- Node11&#45;&gt;Node12 -->
<g id="edge13" class="edge">
<title>Node11&#45;&gt;Node12</title>
<path fill="none" stroke="midnightblue" d="M378,-57.11C378,-48.15 378,-38.32 378,-30.58"/>
<polygon fill="midnightblue" stroke="midnightblue" points="374.5,-57.4 378,-67.4 381.5,-57.4 374.5,-57.4"/>
</g>
<!-- Node21&#45;&gt;Node2 -->
<g id="edge25" class="edge">
<title>Node21&#45;&gt;Node2</title>
<path fill="none" stroke="midnightblue" d="M880.67,-321.04C909.27,-310.88 949.61,-296.55 975.03,-287.52"/>
<polygon fill="midnightblue" stroke="midnightblue" points="879.34,-317.8 871.08,-324.44 881.68,-324.39 879.34,-317.8"/>
</g>
<!-- Node22 -->
<g id="node22" class="node">
<title>Node22</title>
<g id="a_node22"><a xlink:href="bwWidget_8h.html" target="_top" xlink:title=" ">
<polygon fill="none" stroke="black" points="744.5,-268.5 744.5,-287.5 891.5,-287.5 891.5,-268.5 744.5,-268.5"/>
<text text-anchor="middle" x="818" y="-275.5" font-family="Helvetica,sans-Serif" font-size="10.00">bwidgets/widgets/bwWidget.h</text>
</a>
</g>
</g>
<!-- Node21&#45;&gt;Node22 -->
<g id="edge26" class="edge">
<title>Node21&#45;&gt;Node22</title>
<path fill="none" stroke="midnightblue" d="M837.32,-314.98C832.4,-305.82 826.64,-295.09 822.7,-287.75"/>
<polygon fill="midnightblue" stroke="midnightblue" points="834.4,-316.93 842.21,-324.08 840.56,-313.62 834.4,-316.93"/>
</g>
<!-- Node22&#45;&gt;Node7 -->
<g id="edge27" class="edge">
<title>Node22&#45;&gt;Node7</title>
<path fill="none" stroke="midnightblue" d="M733.89,-274.73C608.2,-270.49 377.81,-259.19 300,-232 220.44,-204.2 148,-129.2 120.12,-97.72"/>
<polygon fill="midnightblue" stroke="midnightblue" points="734.13,-278.24 744.24,-275.07 734.36,-271.24 734.13,-278.24"/>
</g>
<!-- Node23 -->
<g id="node23" class="node">
<title>Node23</title>
<g id="a_node23"><a xlink:href="Node_8h.html" target="_top" xlink:title=" ">
<polygon fill="none" stroke="black" points="343.5,-134.5 343.5,-164.5 460.5,-164.5 460.5,-134.5 343.5,-134.5"/>
<text text-anchor="start" x="351.5" y="-152.5" font-family="Helvetica,sans-Serif" font-size="10.00">bwidgets/screen_graph</text>
<text text-anchor="middle" x="402" y="-141.5" font-family="Helvetica,sans-Serif" font-size="10.00">/Node.h</text>
</a>
</g>
</g>
<!-- Node22&#45;&gt;Node23 -->
<g id="edge28" class="edge">
<title>Node22&#45;&gt;Node23</title>
<path fill="none" stroke="midnightblue" d="M734.16,-269.21C658.03,-261.31 551.91,-247.99 513,-232 510.41,-230.94 452.07,-187.71 421.03,-164.65"/>
<polygon fill="midnightblue" stroke="midnightblue" points="733.91,-272.7 744.22,-270.24 734.63,-265.74 733.91,-272.7"/>
</g>
<!-- Node25 -->
<g id="node25" class="node">
<title>Node25</title>
<g id="a_node25"><a xlink:href="bwAbstractButton_8h.html" target="_top" xlink:title=" ">
<polygon fill="none" stroke="black" points="1351.5,-201.5 1351.5,-231.5 1496.5,-231.5 1496.5,-201.5 1351.5,-201.5"/>
<text text-anchor="start" x="1359.5" y="-219.5" font-family="Helvetica,sans-Serif" font-size="10.00">bwidgets/widgets/bwAbstract</text>
<text text-anchor="middle" x="1424" y="-208.5" font-family="Helvetica,sans-Serif" font-size="10.00">Button.h</text>
</a>
</g>
</g>
<!-- Node22&#45;&gt;Node25 -->
<g id="edge35" class="edge">
<title>Node22&#45;&gt;Node25</title>
<path fill="none" stroke="midnightblue" d="M901.89,-268.76C1021.31,-257.04 1238.33,-235.73 1351.28,-224.64"/>
<polygon fill="midnightblue" stroke="midnightblue" points="901.31,-265.3 891.7,-269.76 902,-272.27 901.31,-265.3"/>
</g>
<!-- Node35 -->
<g id="node35" class="node">
<title>Node35</title>
<g id="a_node35"><a xlink:href="bwContainerWidget_8h.html" target="_top" xlink:title=" ">
<polygon fill="none" stroke="black" points="707,-201.5 707,-231.5 857,-231.5 857,-201.5 707,-201.5"/>
<text text-anchor="start" x="715" y="-219.5" font-family="Helvetica,sans-Serif" font-size="10.00">bwidgets/widgets/bwContainer</text>
<text text-anchor="middle" x="782" y="-208.5" font-family="Helvetica,sans-Serif" font-size="10.00">Widget.h</text>
</a>
</g>
</g>
<!-- Node22&#45;&gt;Node35 -->
<g id="edge54" class="edge">
<title>Node22&#45;&gt;Node35</title>
<path fill="none" stroke="midnightblue" d="M807.52,-259.68C802.1,-250.73 795.58,-239.94 790.48,-231.52"/>
<polygon fill="midnightblue" stroke="midnightblue" points="804.67,-261.73 812.84,-268.48 810.66,-258.11 804.67,-261.73"/>
</g>
<!-- Node39 -->
<g id="node39" class="node">
<title>Node39</title>
<g id="a_node39"><a xlink:href="bwLabel_8h.html" target="_top" xlink:title=" ">
<polygon fill="none" stroke="black" points="2268,-207 2268,-226 2408,-226 2408,-207 2268,-207"/>
<text text-anchor="middle" x="2338" y="-214" font-family="Helvetica,sans-Serif" font-size="10.00">bwidgets/widgets/bwLabel.h</text>
</a>
</g>
</g>
<!-- Node22&#45;&gt;Node39 -->
<g id="edge63" class="edge">
<title>Node22&#45;&gt;Node39</title>
<path fill="none" stroke="midnightblue" d="M901.73,-270.3C913.9,-269.45 926.27,-268.65 938,-268 1447.66,-239.71 2062.61,-223.86 2267.67,-219.07"/>
<polygon fill="midnightblue" stroke="midnightblue" points="901.31,-266.82 891.59,-271.03 901.81,-273.81 901.31,-266.82"/>
</g>
<!-- Node41 -->
<g id="node41" class="node">
<title>Node41</title>
<g id="a_node41"><a xlink:href="bwTextBox_8h.html" target="_top" xlink:title=" ">
<polygon fill="none" stroke="black" points="1567,-207 1567,-226 1719,-226 1719,-207 1567,-207"/>
<text text-anchor="middle" x="1643" y="-214" font-family="Helvetica,sans-Serif" font-size="10.00">bwidgets/widgets/bwTextBox.h</text>
</a>
</g>
</g>
<!-- Node22&#45;&gt;Node41 -->
<g id="edge66" class="edge">
<title>Node22&#45;&gt;Node41</title>
<path fill="none" stroke="midnightblue" d="M901.75,-270.59C913.91,-269.7 926.28,-268.81 938,-268 1190.35,-250.54 1253.95,-253.32 1506,-232 1526.14,-230.3 1547.91,-228.14 1568.04,-226.01"/>
<polygon fill="midnightblue" stroke="midnightblue" points="901.32,-267.12 891.61,-271.34 901.84,-274.1 901.32,-267.12"/>
</g>
<!-- Node43 -->
<g id="node43" class="node">
<title>Node43</title>
<g id="a_node43"><a xlink:href="bwWidget_8cc.html" target="_top" xlink:title=" ">
<polygon fill="none" stroke="black" points="0,-207 0,-226 152,-226 152,-207 0,-207"/>
<text text-anchor="middle" x="76" y="-214" font-family="Helvetica,sans-Serif" font-size="10.00">bwidgets/widgets/bwWidget.cc</text>
</a>
</g>
</g>
<!-- Node22&#45;&gt;Node43 -->
<g id="edge72" class="edge">
<title>Node22&#45;&gt;Node43</title>
<path fill="none" stroke="midnightblue" d="M734.26,-273.66C609.95,-268.14 369.38,-255.35 166,-232 152.32,-230.43 137.54,-228.25 124,-226.06"/>
<polygon fill="midnightblue" stroke="midnightblue" points="734.32,-277.16 744.47,-274.1 734.63,-270.17 734.32,-277.16"/>
</g>
<!-- Node23&#45;&gt;Node4 -->
<g id="edge29" class="edge">
<title>Node23&#45;&gt;Node4</title>
<path fill="none" stroke="midnightblue" d="M470.65,-133.87C531.07,-120.99 616.97,-102.69 666.85,-92.06"/>
<polygon fill="midnightblue" stroke="midnightblue" points="469.86,-130.46 460.81,-135.97 471.32,-137.31 469.86,-130.46"/>
</g>
<!-- Node23&#45;&gt;Node7 -->
<g id="edge30" class="edge">
<title>Node23&#45;&gt;Node7</title>
<path fill="none" stroke="midnightblue" d="M333.34,-133.32C282.77,-122.14 214.73,-107.1 166.69,-96.47"/>
<polygon fill="midnightblue" stroke="midnightblue" points="332.69,-136.76 343.21,-135.5 334.2,-129.93 332.69,-136.76"/>
</g>
<!-- Node23&#45;&gt;Node9 -->
<g id="edge34" class="edge">
<title>Node23&#45;&gt;Node9</title>
<path fill="none" stroke="midnightblue" d="M470.63,-131.99C512.15,-121.43 560.68,-107.91 580,-98 599.7,-87.89 599.18,-76.88 619,-67 659.37,-46.87 708.57,-34.21 747.45,-26.59"/>
<polygon fill="midnightblue" stroke="midnightblue" points="469.63,-128.63 460.79,-134.47 471.35,-135.42 469.63,-128.63"/>
</g>
<!-- Node23&#45;&gt;Node10 -->
<g id="edge31" class="edge">
<title>Node23&#45;&gt;Node10</title>
<path fill="none" stroke="midnightblue" d="M358.08,-130.54C332.63,-120.14 301.07,-107.24 277.43,-97.58"/>
<polygon fill="midnightblue" stroke="midnightblue" points="356.92,-133.85 367.5,-134.4 359.57,-127.37 356.92,-133.85"/>
</g>
<!-- Node23&#45;&gt;Node11 -->
<g id="edge33" class="edge">
<title>Node23&#45;&gt;Node11</title>
<path fill="none" stroke="midnightblue" d="M393.32,-124.99C389.93,-115.8 386.15,-105.58 383.2,-97.58"/>
<polygon fill="midnightblue" stroke="midnightblue" points="390.05,-126.23 396.79,-134.4 396.61,-123.8 390.05,-126.23"/>
</g>
<!-- Node24 -->
<g id="node24" class="node">
<title>Node24</title>
<g id="a_node24"><a xlink:href="EventHandler_8cc.html" target="_top" xlink:title=" ">
<polygon fill="none" stroke="black" points="454.5,-67.5 454.5,-97.5 571.5,-97.5 571.5,-67.5 454.5,-67.5"/>
<text text-anchor="start" x="462.5" y="-85.5" font-family="Helvetica,sans-Serif" font-size="10.00">bwidgets/screen_graph</text>
<text text-anchor="middle" x="513" y="-74.5" font-family="Helvetica,sans-Serif" font-size="10.00">/EventHandler.cc</text>
</a>
</g>
</g>
<!-- Node23&#45;&gt;Node24 -->
<g id="edge32" class="edge">
<title>Node23&#45;&gt;Node24</title>
<path fill="none" stroke="midnightblue" d="M434.8,-129.3C452.16,-119.12 473.12,-106.85 488.96,-97.58"/>
<polygon fill="midnightblue" stroke="midnightblue" points="432.95,-126.32 426.09,-134.4 436.48,-132.36 432.95,-126.32"/>
</g>
<!-- Node25&#45;&gt;Node13 -->
<g id="edge37" class="edge">
<title>Node25&#45;&gt;Node13</title>
<path fill="none" stroke="midnightblue" d="M1506.98,-205.66C1523.84,-203.9 1541.48,-202.24 1558,-201 1941.7,-172.29 2040.52,-207 2423,-165 2425.7,-164.7 2428.44,-164.37 2431.21,-164.01"/>
<polygon fill="midnightblue" stroke="midnightblue" points="1506.17,-202.22 1496.59,-206.76 1506.91,-209.18 1506.17,-202.22"/>
</g>
<!-- Node26 -->
<g id="node26" class="node">
<title>Node26</title>
<g id="a_node26"><a xlink:href="bwStyleCSS_8cc.html" target="_top" xlink:title=" ">
<polygon fill="none" stroke="black" points="1129.5,-0.5 1129.5,-30.5 1254.5,-30.5 1254.5,-0.5 1129.5,-0.5"/>
<text text-anchor="start" x="1137.5" y="-18.5" font-family="Helvetica,sans-Serif" font-size="10.00">bwidgets/styling/bwStyle</text>
<text text-anchor="middle" x="1192" y="-7.5" font-family="Helvetica,sans-Serif" font-size="10.00">CSS.cc</text>
</a>
</g>
</g>
<!-- Node25&#45;&gt;Node26 -->
<g id="edge36" class="edge">
<title>Node25&#45;&gt;Node26</title>
<path fill="none" stroke="midnightblue" d="M1341.24,-211.34C1239.5,-205.17 1073.51,-191.38 1018,-165 979.1,-146.52 964.91,-137.6 948,-98 942.59,-85.33 939.3,-77.68 948,-67 970.47,-39.41 1064.81,-26.42 1129.38,-20.67"/>
<polygon fill="midnightblue" stroke="midnightblue" points="1341.3,-214.85 1351.49,-211.95 1341.71,-207.86 1341.3,-214.85"/>
</g>
<!-- Node27 -->
<g id="node27" class="node">
<title>Node27</title>
<g id="a_node27"><a xlink:href="bwCheckbox_8h.html" target="_top" xlink:title=" ">
<polygon fill="none" stroke="black" points="1874.5,-140 1874.5,-159 2035.5,-159 2035.5,-140 1874.5,-140"/>
<text text-anchor="middle" x="1955" y="-147" font-family="Helvetica,sans-Serif" font-size="10.00">bwidgets/widgets/bwCheckbox.h</text>
</a>
</g>
</g>
<!-- Node25&#45;&gt;Node27 -->
<g id="edge38" class="edge">
<title>Node25&#45;&gt;Node27</title>
<path fill="none" stroke="midnightblue" d="M1507.11,-206.48C1615.37,-194.66 1798.74,-174.32 1866,-165 1878.72,-163.24 1892.42,-161.12 1905.17,-159.05"/>
<polygon fill="midnightblue" stroke="midnightblue" points="1506.43,-203.04 1496.87,-207.6 1507.19,-210 1506.43,-203.04"/>
</g>
<!-- Node31 -->
<g id="node31" class="node">
<title>Node31</title>
<g id="a_node31"><a xlink:href="bwPushButton_8h.html" target="_top" xlink:title=" ">
<polygon fill="none" stroke="black" points="1340.5,-140 1340.5,-159 1507.5,-159 1507.5,-140 1340.5,-140"/>
<text text-anchor="middle" x="1424" y="-147" font-family="Helvetica,sans-Serif" font-size="10.00">bwidgets/widgets/bwPushButton.h</text>
</a>
</g>
</g>
<!-- Node25&#45;&gt;Node31 -->
<g id="edge44" class="edge">
<title>Node25&#45;&gt;Node31</title>
<path fill="none" stroke="midnightblue" d="M1424,-191.25C1424,-180.02 1424,-167.38 1424,-159.19"/>
<polygon fill="midnightblue" stroke="midnightblue" points="1420.5,-191.4 1424,-201.4 1427.5,-191.4 1420.5,-191.4"/>
</g>
<!-- Node33 -->
<g id="node33" class="node">
<title>Node33</title>
<g id="a_node33"><a xlink:href="bwRadioButton_8h.html" target="_top" xlink:title=" ">
<polygon fill="none" stroke="black" points="1027,-134.5 1027,-164.5 1161,-164.5 1161,-134.5 1027,-134.5"/>
<text text-anchor="start" x="1035" y="-152.5" font-family="Helvetica,sans-Serif" font-size="10.00">bwidgets/widgets/bwRadio</text>
<text text-anchor="middle" x="1094" y="-141.5" font-family="Helvetica,sans-Serif" font-size="10.00">Button.h</text>
</a>
</g>
</g>
<!-- Node25&#45;&gt;Node33 -->
<g id="edge47" class="edge">
<title>Node25&#45;&gt;Node33</title>
<path fill="none" stroke="midnightblue" d="M1342.94,-199.53C1287.08,-188.53 1213.72,-174.08 1161.13,-163.72"/>
<polygon fill="midnightblue" stroke="midnightblue" points="1342.31,-202.98 1352.8,-201.48 1343.67,-196.11 1342.31,-202.98"/>
</g>
<!-- Node34 -->
<g id="node34" class="node">
<title>Node34</title>
<g id="a_node34"><a xlink:href="bwScrollBar_8h.html" target="_top" xlink:title=" ">
<polygon fill="none" stroke="black" points="1723.5,-134.5 1723.5,-164.5 1856.5,-164.5 1856.5,-134.5 1723.5,-134.5"/>
<text text-anchor="start" x="1731.5" y="-152.5" font-family="Helvetica,sans-Serif" font-size="10.00">bwidgets/widgets/bwScroll</text>
<text text-anchor="middle" x="1790" y="-141.5" font-family="Helvetica,sans-Serif" font-size="10.00">Bar.h</text>
</a>
</g>
</g>
<!-- Node25&#45;&gt;Node34 -->
<g id="edge50" class="edge">
<title>Node25&#45;&gt;Node34</title>
<path fill="none" stroke="midnightblue" d="M1506.62,-200.83C1572.07,-189.2 1662.32,-173.18 1723.24,-162.36"/>
<polygon fill="midnightblue" stroke="midnightblue" points="1505.98,-197.39 1496.75,-202.58 1507.21,-204.28 1505.98,-197.39"/>
</g>
<!-- Node27&#45;&gt;Node14 -->
<g id="edge43" class="edge">
<title>Node27&#45;&gt;Node14</title>
<path fill="none" stroke="midnightblue" d="M2014.84,-138.39C2024.9,-136.83 2035.23,-135.3 2045,-134 2183.42,-115.57 2345.09,-99.69 2440.76,-90.88"/>
<polygon fill="midnightblue" stroke="midnightblue" points="2014.24,-134.94 2004.91,-139.96 2015.34,-141.85 2014.24,-134.94"/>
</g>
<!-- Node28 -->
<g id="node28" class="node">
<title>Node28</title>
<g id="a_node28"><a xlink:href="builtin__widgets_8h.html" target="_top" xlink:title=" ">
<polygon fill="none" stroke="black" points="1476.5,-67.5 1476.5,-97.5 1597.5,-97.5 1597.5,-67.5 1476.5,-67.5"/>
<text text-anchor="start" x="1484.5" y="-85.5" font-family="Helvetica,sans-Serif" font-size="10.00">bwidgets/widgets/builtin</text>
<text text-anchor="middle" x="1537" y="-74.5" font-family="Helvetica,sans-Serif" font-size="10.00">_widgets.h</text>
</a>
</g>
</g>
<!-- Node27&#45;&gt;Node28 -->
<g id="edge39" class="edge">
<title>Node27&#45;&gt;Node28</title>
<path fill="none" stroke="midnightblue" d="M1893.76,-138.33C1884.46,-136.84 1874.98,-135.36 1866,-134 1751.08,-116.65 1721.52,-117.8 1607,-98 1603.94,-97.47 1600.81,-96.91 1597.66,-96.32"/>
<polygon fill="midnightblue" stroke="midnightblue" points="1893.3,-141.8 1903.73,-139.94 1894.42,-134.89 1893.3,-141.8"/>
</g>
<!-- Node28&#45;&gt;Node26 -->
<g id="edge40" class="edge">
<title>Node28&#45;&gt;Node26</title>
<path fill="none" stroke="midnightblue" d="M1466.39,-66.71C1388,-51.39 1308.27,-36.99 1254.57,-27.47"/>
<polygon fill="midnightblue" stroke="midnightblue" points="1465.95,-70.19 1476.44,-68.68 1467.3,-63.32 1465.95,-70.19"/>
</g>
<!-- Node29 -->
<g id="node29" class="node">
<title>Node29</title>
<g id="a_node29"><a xlink:href="bwStyleClassic_8cc.html" target="_top" xlink:title=" ">
<polygon fill="none" stroke="black" points="1412,-0.5 1412,-30.5 1528,-30.5 1528,-0.5 1412,-0.5"/>
<text text-anchor="start" x="1420" y="-18.5" font-family="Helvetica,sans-Serif" font-size="10.00">bwidgets/styling/styles</text>
<text text-anchor="middle" x="1470" y="-7.5" font-family="Helvetica,sans-Serif" font-size="10.00">/bwStyleClassic.cc</text>
</a>
</g>
</g>
<!-- Node28&#45;&gt;Node29 -->
<g id="edge41" class="edge">
<title>Node28&#45;&gt;Node29</title>
<path fill="none" stroke="midnightblue" d="M1515.16,-60.31C1505.11,-50.56 1493.46,-39.26 1484.51,-30.58"/>
<polygon fill="midnightblue" stroke="midnightblue" points="1512.85,-62.94 1522.46,-67.4 1517.72,-57.92 1512.85,-62.94"/>
</g>
<!-- Node30 -->
<g id="node30" class="node">
<title>Node30</title>
<g id="a_node30"><a xlink:href="bwStyleFlatGrey_8cc.html" target="_top" xlink:title=" ">
<polygon fill="none" stroke="black" points="1546,-0.5 1546,-30.5 1662,-30.5 1662,-0.5 1546,-0.5"/>
<text text-anchor="start" x="1554" y="-18.5" font-family="Helvetica,sans-Serif" font-size="10.00">bwidgets/styling/styles</text>
<text text-anchor="middle" x="1604" y="-7.5" font-family="Helvetica,sans-Serif" font-size="10.00">/bwStyleFlatGrey.cc</text>
</a>
</g>
</g>
<!-- Node28&#45;&gt;Node30 -->
<g id="edge42" class="edge">
<title>Node28&#45;&gt;Node30</title>
<path fill="none" stroke="midnightblue" d="M1558.84,-60.31C1568.89,-50.56 1580.54,-39.26 1589.49,-30.58"/>
<polygon fill="midnightblue" stroke="midnightblue" points="1556.28,-57.92 1551.54,-67.4 1561.15,-62.94 1556.28,-57.92"/>
</g>
<!-- Node31&#45;&gt;Node28 -->
<g id="edge45" class="edge">
<title>Node31&#45;&gt;Node28</title>
<path fill="none" stroke="midnightblue" d="M1448.16,-134.6C1467.13,-123.69 1493.45,-108.55 1512.51,-97.59"/>
<polygon fill="midnightblue" stroke="midnightblue" points="1446.16,-131.71 1439.24,-139.73 1449.65,-137.78 1446.16,-131.71"/>
</g>
<!-- Node32 -->
<g id="node32" class="node">
<title>Node32</title>
<g id="a_node32"><a xlink:href="bwPushButton_8cc.html" target="_top" xlink:title=" ">
<polygon fill="none" stroke="black" points="1285.5,-73 1285.5,-92 1458.5,-92 1458.5,-73 1285.5,-73"/>
<text text-anchor="middle" x="1372" y="-80" font-family="Helvetica,sans-Serif" font-size="10.00">bwidgets/widgets/bwPushButton.cc</text>
</a>
</g>
</g>
<!-- Node31&#45;&gt;Node32 -->
<g id="edge46" class="edge">
<title>Node31&#45;&gt;Node32</title>
<path fill="none" stroke="midnightblue" d="M1410.62,-131.77C1400.48,-119.1 1386.96,-102.2 1378.9,-92.13"/>
<polygon fill="midnightblue" stroke="midnightblue" points="1408.01,-134.11 1416.99,-139.73 1413.47,-129.74 1408.01,-134.11"/>
</g>
<!-- Node33&#45;&gt;Node17 -->
<g id="edge49" class="edge">
<title>Node33&#45;&gt;Node17</title>
<path fill="none" stroke="midnightblue" d="M1071.18,-127.31C1060.68,-117.56 1048.51,-106.26 1039.16,-97.58"/>
<polygon fill="midnightblue" stroke="midnightblue" points="1069.1,-130.16 1078.81,-134.4 1073.86,-125.03 1069.1,-130.16"/>
</g>
<!-- Node33&#45;&gt;Node28 -->
<g id="edge48" class="edge">
<title>Node33&#45;&gt;Node28</title>
<path fill="none" stroke="midnightblue" d="M1171.31,-134.03C1304.14,-113.96 1340.02,-119.16 1468,-98 1470.78,-97.54 1473.61,-97.05 1476.47,-96.53"/>
<polygon fill="midnightblue" stroke="midnightblue" points="1170.5,-130.61 1161.15,-135.59 1171.56,-137.53 1170.5,-130.61"/>
</g>
<!-- Node34&#45;&gt;Node9 -->
<g id="edge53" class="edge">
<title>Node34&#45;&gt;Node9</title>
<path fill="none" stroke="midnightblue" d="M1791.51,-124.26C1791.21,-105.59 1787.39,-80.73 1771,-67 1766.72,-63.42 1096.96,-30.35 880.58,-19.75"/>
<polygon fill="midnightblue" stroke="midnightblue" points="1788,-124.35 1791.34,-134.41 1795,-124.47 1788,-124.35"/>
</g>
<!-- Node34&#45;&gt;Node18 -->
<g id="edge52" class="edge">
<title>Node34&#45;&gt;Node18</title>
<path fill="none" stroke="midnightblue" d="M1866.82,-133.9C1965.12,-117.2 2067.14,-102.17 2132.22,-92.86"/>
<polygon fill="midnightblue" stroke="midnightblue" points="1865.97,-130.49 1856.7,-135.63 1867.15,-137.39 1865.97,-130.49"/>
</g>
<!-- Node34&#45;&gt;Node28 -->
<g id="edge51" class="edge">
<title>Node34&#45;&gt;Node28</title>
<path fill="none" stroke="midnightblue" d="M1725.72,-131.98C1684.39,-121.37 1631.27,-107.72 1591.92,-97.61"/>
<polygon fill="midnightblue" stroke="midnightblue" points="1724.86,-135.38 1735.41,-134.48 1726.6,-128.6 1724.86,-135.38"/>
</g>
<!-- Node35&#45;&gt;Node23 -->
<g id="edge55" class="edge">
<title>Node35&#45;&gt;Node23</title>
<path fill="none" stroke="midnightblue" d="M696.98,-200.96C625.08,-188.66 523.96,-171.36 460.74,-160.55"/>
<polygon fill="midnightblue" stroke="midnightblue" points="696.48,-204.42 706.92,-202.66 697.66,-197.52 696.48,-204.42"/>
</g>
<!-- Node36 -->
<g id="node36" class="node">
<title>Node36</title>
<g id="a_node36"><a xlink:href="bwContainerWidget_8cc.html" target="_top" xlink:title=" ">
<polygon fill="none" stroke="black" points="555,-134.5 555,-164.5 705,-164.5 705,-134.5 555,-134.5"/>
<text text-anchor="start" x="563" y="-152.5" font-family="Helvetica,sans-Serif" font-size="10.00">bwidgets/widgets/bwContainer</text>
<text text-anchor="middle" x="630" y="-141.5" font-family="Helvetica,sans-Serif" font-size="10.00">Widget.cc</text>
</a>
</g>
</g>
<!-- Node35&#45;&gt;Node36 -->
<g id="edge56" class="edge">
<title>Node35&#45;&gt;Node36</title>
<path fill="none" stroke="midnightblue" d="M739.69,-197.41C715.42,-187.03 685.41,-174.2 662.92,-164.58"/>
<polygon fill="midnightblue" stroke="midnightblue" points="738.45,-200.68 749.02,-201.4 741.2,-194.25 738.45,-200.68"/>
</g>
<!-- Node37 -->
<g id="node37" class="node">
<title>Node37</title>
<g id="a_node37"><a xlink:href="bwPanel_8h.html" target="_top" xlink:title=" ">
<polygon fill="none" stroke="black" points="1525.5,-140 1525.5,-159 1666.5,-159 1666.5,-140 1525.5,-140"/>
<text text-anchor="middle" x="1596" y="-147" font-family="Helvetica,sans-Serif" font-size="10.00">bwidgets/widgets/bwPanel.h</text>
</a>
</g>
</g>
<!-- Node35&#45;&gt;Node37 -->
<g id="edge57" class="edge">
<title>Node35&#45;&gt;Node37</title>
<path fill="none" stroke="midnightblue" d="M867.17,-212.77C1004.42,-207.67 1282.85,-194.44 1517,-165 1529.18,-163.47 1542.31,-161.28 1554.32,-159.06"/>
<polygon fill="midnightblue" stroke="midnightblue" points="867,-209.28 857.13,-213.14 867.25,-216.27 867,-209.28"/>
</g>
<!-- Node38 -->
<g id="node38" class="node">
<title>Node38</title>
<g id="a_node38"><a xlink:href="bwScrollView_8h.html" target="_top" xlink:title=" ">
<polygon fill="none" stroke="black" points="723.5,-134.5 723.5,-164.5 856.5,-164.5 856.5,-134.5 723.5,-134.5"/>
<text text-anchor="start" x="731.5" y="-152.5" font-family="Helvetica,sans-Serif" font-size="10.00">bwidgets/widgets/bwScroll</text>
<text text-anchor="middle" x="790" y="-141.5" font-family="Helvetica,sans-Serif" font-size="10.00">View.h</text>
</a>
</g>
</g>
<!-- Node35&#45;&gt;Node38 -->
<g id="edge60" class="edge">
<title>Node35&#45;&gt;Node38</title>
<path fill="none" stroke="midnightblue" d="M784.97,-191.4C786.08,-182.37 787.3,-172.41 788.27,-164.58"/>
<polygon fill="midnightblue" stroke="midnightblue" points="781.48,-191.04 783.74,-201.4 788.43,-191.9 781.48,-191.04"/>
</g>
<!-- Node37&#45;&gt;Node16 -->
<g id="edge59" class="edge">
<title>Node37&#45;&gt;Node16</title>
<path fill="none" stroke="midnightblue" d="M1616.86,-133.92C1635.25,-121.07 1661.41,-102.78 1676.66,-92.13"/>
<polygon fill="midnightblue" stroke="midnightblue" points="1614.73,-131.14 1608.54,-139.73 1618.74,-136.87 1614.73,-131.14"/>
</g>
<!-- Node37&#45;&gt;Node28 -->
<g id="edge58" class="edge">
<title>Node37&#45;&gt;Node28</title>
<path fill="none" stroke="midnightblue" d="M1581.3,-132.3C1571.61,-121.63 1559.06,-107.8 1549.79,-97.59"/>
<polygon fill="midnightblue" stroke="midnightblue" points="1578.73,-134.68 1588.04,-139.73 1583.91,-129.98 1578.73,-134.68"/>
</g>
<!-- Node38&#45;&gt;Node9 -->
<g id="edge62" class="edge">
<title>Node38&#45;&gt;Node9</title>
<path fill="none" stroke="midnightblue" d="M794.38,-124.39C799.38,-96.9 807.38,-52.89 811.45,-30.52"/>
<polygon fill="midnightblue" stroke="midnightblue" points="790.91,-123.91 792.57,-134.37 797.8,-125.16 790.91,-123.91"/>
</g>
<!-- Node38&#45;&gt;Node28 -->
<g id="edge61" class="edge">
<title>Node38&#45;&gt;Node28</title>
<path fill="none" stroke="midnightblue" d="M866.71,-143.36C1031.64,-132.24 1409.8,-106.25 1468,-98 1470.79,-97.61 1473.63,-97.16 1476.5,-96.69"/>
<polygon fill="midnightblue" stroke="midnightblue" points="866.38,-139.88 856.64,-144.04 866.85,-146.86 866.38,-139.88"/>
</g>
<!-- Node39&#45;&gt;Node28 -->
<g id="edge64" class="edge">
<title>Node39&#45;&gt;Node28</title>
<path fill="none" stroke="midnightblue" d="M2393.48,-205.1C2465.64,-191.45 2582.93,-168.76 2586,-165 2594.72,-154.33 2595.56,-143.92 2586,-134 2548.23,-94.81 1661.03,-104.54 1607,-98 1603.92,-97.63 1600.77,-97.19 1597.6,-96.7"/>
<polygon fill="midnightblue" stroke="midnightblue" points="2392.8,-201.67 2383.62,-206.96 2394.09,-208.55 2392.8,-201.67"/>
</g>
<!-- Node40 -->
<g id="node40" class="node">
<title>Node40</title>
<g id="a_node40"><a xlink:href="bwLabel_8cc.html" target="_top" xlink:title=" ">
<polygon fill="none" stroke="black" points="2268.5,-140 2268.5,-159 2413.5,-159 2413.5,-140 2268.5,-140"/>
<text text-anchor="middle" x="2341" y="-147" font-family="Helvetica,sans-Serif" font-size="10.00">bwidgets/widgets/bwLabel.cc</text>
</a>
</g>
</g>
<!-- Node39&#45;&gt;Node40 -->
<g id="edge65" class="edge">
<title>Node39&#45;&gt;Node40</title>
<path fill="none" stroke="midnightblue" d="M2338.88,-196.54C2339.45,-184.17 2340.16,-168.62 2340.6,-159.13"/>
<polygon fill="midnightblue" stroke="midnightblue" points="2335.37,-196.58 2338.4,-206.73 2342.36,-196.91 2335.37,-196.58"/>
</g>
<!-- Node41&#45;&gt;Node19 -->
<g id="edge71" class="edge">
<title>Node41&#45;&gt;Node19</title>
<path fill="none" stroke="midnightblue" d="M1727.77,-205.81C1809.22,-196.27 1935.69,-180.87 2045,-165 2057.41,-163.2 2070.78,-161.09 2083.25,-159.04"/>
<polygon fill="midnightblue" stroke="midnightblue" points="1727.1,-202.36 1717.58,-207 1727.92,-209.31 1727.1,-202.36"/>
</g>
<!-- Node41&#45;&gt;Node28 -->
<g id="edge67" class="edge">
<title>Node41&#45;&gt;Node28</title>
<path fill="none" stroke="midnightblue" d="M1658.48,-199.2C1672.94,-181.94 1690.3,-154.41 1676,-134 1666.2,-120.02 1629.07,-106.93 1595.64,-97.59"/>
<polygon fill="midnightblue" stroke="midnightblue" points="1655.78,-196.97 1651.77,-206.78 1661.02,-201.62 1655.78,-196.97"/>
</g>
<!-- Node42 -->
<g id="node42" class="node">
<title>Node42</title>
<g id="a_node42"><a xlink:href="bwNumberSlider_8h.html" target="_top" xlink:title=" ">
<polygon fill="none" stroke="black" points="1179.5,-134.5 1179.5,-164.5 1322.5,-164.5 1322.5,-134.5 1179.5,-134.5"/>
<text text-anchor="start" x="1187.5" y="-152.5" font-family="Helvetica,sans-Serif" font-size="10.00">bwidgets/widgets/bwNumber</text>
<text text-anchor="middle" x="1251" y="-141.5" font-family="Helvetica,sans-Serif" font-size="10.00">Slider.h</text>
</a>
</g>
</g>
<!-- Node41&#45;&gt;Node42 -->
<g id="edge68" class="edge">
<title>Node41&#45;&gt;Node42</title>
<path fill="none" stroke="midnightblue" d="M1578.57,-205.35C1515.64,-195.36 1417.17,-179.54 1332,-165 1328.9,-164.47 1325.74,-163.93 1322.54,-163.37"/>
<polygon fill="midnightblue" stroke="midnightblue" points="1578.32,-208.85 1588.74,-206.96 1579.41,-201.94 1578.32,-208.85"/>
</g>
<!-- Node42&#45;&gt;Node15 -->
<g id="edge70" class="edge">
<title>Node42&#45;&gt;Node15</title>
<path fill="none" stroke="midnightblue" d="M1231.18,-127.02C1222.24,-117.34 1211.93,-106.17 1203.99,-97.58"/>
<polygon fill="midnightblue" stroke="midnightblue" points="1228.63,-129.42 1237.98,-134.4 1233.77,-124.67 1228.63,-129.42"/>
</g>
<!-- Node42&#45;&gt;Node28 -->
<g id="edge69" class="edge">
<title>Node42&#45;&gt;Node28</title>
<path fill="none" stroke="midnightblue" d="M1322.59,-132.23C1369.97,-121.46 1431.43,-107.49 1476.39,-97.28"/>
<polygon fill="midnightblue" stroke="midnightblue" points="1321.68,-128.85 1312.71,-134.48 1323.23,-135.67 1321.68,-128.85"/>
</g>
</g>
</svg>
