<?xml version="1.0" encoding="UTF-8" standalone="no"?>
<!DOCTYPE svg PUBLIC "-//W3C//DTD SVG 1.1//EN"
 "http://www.w3.org/Graphics/SVG/1.1/DTD/svg11.dtd">
<!-- Generated by graphviz version 2.50.0 (20211204.2007)
 -->
<!-- Title: bwidgets/generics/bwPolygon.h Pages: 1 -->
<svg width="302pt" height="84pt"
 viewBox="0.00 0.00 301.50 84.00" xmlns="http://www.w3.org/2000/svg" xmlns:xlink="http://www.w3.org/1999/xlink">
<g id="graph0" class="graph" transform="scale(1 1) rotate(0) translate(4 80)">
<title>bwidgets/generics/bwPolygon.h</title>
<!-- Node1 -->
<g id="node1" class="node">
<title>Node1</title>
<g id="a_node1"><a xlink:title=" ">
<polygon fill="#bfbfbf" stroke="black" points="58,-56.5 58,-75.5 213,-75.5 213,-56.5 58,-56.5"/>
<text text-anchor="middle" x="135.5" y="-63.5" font-family="Helvetica,sans-Serif" font-size="10.00">bwidgets/generics/bwPolygon.h</text>
</a>
</g>
</g>
<!-- Node2 -->
<g id="node2" class="node">
<title>Node2</title>
<g id="a_node2"><a xlink:href="bwPainter_8cc.html" target="_top" xlink:title=" ">
<polygon fill="none" stroke="black" points="0,-0.5 0,-19.5 115,-19.5 115,-0.5 0,-0.5"/>
<text text-anchor="middle" x="57.5" y="-7.5" font-family="Helvetica,sans-Serif" font-size="10.00">bwidgets/bwPainter.cc</text>
</a>
</g>
</g>
<!-- Node1&#45;&gt;Node2 -->
<g id="edge1" class="edge">
<title>Node1&#45;&gt;Node2</title>
<path fill="none" stroke="midnightblue" d="M114.73,-50.62C100.48,-40.76 82.04,-27.99 70,-19.65"/>
<polygon fill="midnightblue" stroke="midnightblue" points="112.75,-53.51 122.97,-56.32 116.74,-47.75 112.75,-53.51"/>
</g>
<!-- Node3 -->
<g id="node3" class="node">
<title>Node3</title>
<g id="a_node3"><a xlink:href="bwPolygon_8cc.html" target="_top" xlink:title=" ">
<polygon fill="none" stroke="black" points="133.5,-0.5 133.5,-19.5 293.5,-19.5 293.5,-0.5 133.5,-0.5"/>
<text text-anchor="middle" x="213.5" y="-7.5" font-family="Helvetica,sans-Serif" font-size="10.00">bwidgets/generics/bwPolygon.cc</text>
</a>
</g>
</g>
<!-- Node1&#45;&gt;Node3 -->
<g id="edge2" class="edge">
<title>Node1&#45;&gt;Node3</title>
<path fill="none" stroke="midnightblue" d="M156.27,-50.62C170.52,-40.76 188.96,-27.99 201,-19.65"/>
<polygon fill="midnightblue" stroke="midnightblue" points="154.26,-47.75 148.03,-56.32 158.25,-53.51 154.26,-47.75"/>
</g>
</g>
</svg>
