<?xml version="1.0" encoding="UTF-8" standalone="no"?>
<!DOCTYPE svg PUBLIC "-//W3C//DTD SVG 1.1//EN"
 "http://www.w3.org/Graphics/SVG/1.1/DTD/svg11.dtd">
<!-- Generated by graphviz version 2.50.0 (20211204.2007)
 -->
<!-- Title: bwidgets/widgets/bwPushButton.h Pages: 1 -->
<svg width="932pt" height="308pt"
 viewBox="0.00 0.00 931.50 308.00" xmlns="http://www.w3.org/2000/svg" xmlns:xlink="http://www.w3.org/1999/xlink">
<g id="graph0" class="graph" transform="scale(1 1) rotate(0) translate(4 304)">
<title>bwidgets/widgets/bwPushButton.h</title>
<!-- Node1 -->
<g id="node1" class="node">
<title>Node1</title>
<g id="a_node1"><a xlink:title=" ">
<polygon fill="#bfbfbf" stroke="black" points="0,-280.5 0,-299.5 167,-299.5 167,-280.5 0,-280.5"/>
<text text-anchor="middle" x="83.5" y="-287.5" font-family="Helvetica,sans-Serif" font-size="10.00">bwidgets/widgets/bwPushButton.h</text>
</a>
</g>
</g>
<!-- Node2 -->
<g id="node2" class="node">
<title>Node2</title>
<g id="a_node2"><a xlink:title=" ">
<polygon fill="none" stroke="#bfbfbf" points="61,-56.5 61,-75.5 102,-75.5 102,-56.5 61,-56.5"/>
<text text-anchor="middle" x="81.5" y="-63.5" font-family="Helvetica,sans-Serif" font-size="10.00">string</text>
</a>
</g>
</g>
<!-- Node1&#45;&gt;Node2 -->
<g id="edge1" class="edge">
<title>Node1&#45;&gt;Node2</title>
<path fill="none" stroke="midnightblue" d="M83.42,-280.3C83.13,-247.63 82.08,-131.87 81.67,-85.96"/>
<polygon fill="midnightblue" stroke="midnightblue" points="85.17,-85.85 81.58,-75.88 78.17,-85.91 85.17,-85.85"/>
</g>
<!-- Node3 -->
<g id="node3" class="node">
<title>Node3</title>
<g id="a_node3"><a xlink:href="bwAbstractButton_8h.html" target="_top" xlink:title=" ">
<polygon fill="none" stroke="black" points="177,-224.5 177,-243.5 280,-243.5 280,-224.5 177,-224.5"/>
<text text-anchor="middle" x="228.5" y="-231.5" font-family="Helvetica,sans-Serif" font-size="10.00">bwAbstractButton.h</text>
</a>
</g>
</g>
<!-- Node1&#45;&gt;Node3 -->
<g id="edge2" class="edge">
<title>Node1&#45;&gt;Node3</title>
<path fill="none" stroke="midnightblue" d="M106.48,-280.44C130.66,-271.44 168.92,-257.19 196.15,-247.05"/>
<polygon fill="midnightblue" stroke="midnightblue" points="197.48,-250.29 205.63,-243.52 195.04,-243.73 197.48,-250.29"/>
</g>
<!-- Node3&#45;&gt;Node2 -->
<g id="edge4" class="edge">
<title>Node3&#45;&gt;Node2</title>
<path fill="none" stroke="midnightblue" d="M209.43,-224.38C193.62,-216.55 171.26,-203.82 155.5,-188 124.47,-156.87 100.74,-110.32 89.21,-84.99"/>
<polygon fill="midnightblue" stroke="midnightblue" points="92.28,-83.27 85.03,-75.54 85.87,-86.11 92.28,-83.27"/>
</g>
<!-- Node4 -->
<g id="node4" class="node">
<title>Node4</title>
<g id="a_node4"><a xlink:title=" ">
<polygon fill="none" stroke="#bfbfbf" points="124.5,-56.5 124.5,-75.5 176.5,-75.5 176.5,-56.5 124.5,-56.5"/>
<text text-anchor="middle" x="150.5" y="-63.5" font-family="Helvetica,sans-Serif" font-size="10.00">memory</text>
</a>
</g>
</g>
<!-- Node3&#45;&gt;Node4 -->
<g id="edge3" class="edge">
<title>Node3&#45;&gt;Node4</title>
<path fill="none" stroke="midnightblue" d="M216.48,-224.39C195.83,-208.76 154.3,-173.48 138.5,-132 132.7,-116.77 137.03,-98.43 142.03,-85.12"/>
<polygon fill="midnightblue" stroke="midnightblue" points="145.35,-86.26 146.01,-75.68 138.9,-83.54 145.35,-86.26"/>
</g>
<!-- Node5 -->
<g id="node5" class="node">
<title>Node5</title>
<g id="a_node5"><a xlink:href="bwUtil_8h.html" target="_top" xlink:title=" ">
<polygon fill="none" stroke="black" points="386,-168.5 386,-187.5 439,-187.5 439,-168.5 386,-168.5"/>
<text text-anchor="middle" x="412.5" y="-175.5" font-family="Helvetica,sans-Serif" font-size="10.00">bwUtil.h</text>
</a>
</g>
</g>
<!-- Node3&#45;&gt;Node5 -->
<g id="edge5" class="edge">
<title>Node3&#45;&gt;Node5</title>
<path fill="none" stroke="midnightblue" d="M257.66,-224.44C289.75,-215.02 341.39,-199.87 376.12,-189.68"/>
<polygon fill="midnightblue" stroke="midnightblue" points="377.26,-192.99 385.87,-186.82 375.29,-186.27 377.26,-192.99"/>
</g>
<!-- Node6 -->
<g id="node6" class="node">
<title>Node6</title>
<g id="a_node6"><a xlink:href="bwWidget_8h.html" target="_top" xlink:title=" ">
<polygon fill="none" stroke="black" points="299.5,-168.5 299.5,-187.5 367.5,-187.5 367.5,-168.5 299.5,-168.5"/>
<text text-anchor="middle" x="333.5" y="-175.5" font-family="Helvetica,sans-Serif" font-size="10.00">bwWidget.h</text>
</a>
</g>
</g>
<!-- Node3&#45;&gt;Node6 -->
<g id="edge6" class="edge">
<title>Node3&#45;&gt;Node6</title>
<path fill="none" stroke="midnightblue" d="M245.37,-224.32C262.21,-215.66 288.31,-202.24 307.74,-192.25"/>
<polygon fill="midnightblue" stroke="midnightblue" points="309.38,-195.34 316.67,-187.65 306.18,-189.12 309.38,-195.34"/>
</g>
<!-- Node20 -->
<g id="node20" class="node">
<title>Node20</title>
<g id="a_node20"><a xlink:href="bwWidgetBaseStyle_8h.html" target="_top" xlink:title=" ">
<polygon fill="none" stroke="black" points="647,-168.5 647,-187.5 760,-187.5 760,-168.5 647,-168.5"/>
<text text-anchor="middle" x="703.5" y="-175.5" font-family="Helvetica,sans-Serif" font-size="10.00">bwWidgetBaseStyle.h</text>
</a>
</g>
</g>
<!-- Node3&#45;&gt;Node20 -->
<g id="edge24" class="edge">
<title>Node3&#45;&gt;Node20</title>
<path fill="none" stroke="midnightblue" d="M280.24,-227.12C366.77,-217.28 540.78,-197.5 636.53,-186.61"/>
<polygon fill="midnightblue" stroke="midnightblue" points="637.14,-190.07 646.68,-185.46 636.35,-183.11 637.14,-190.07"/>
</g>
<!-- Node7 -->
<g id="node7" class="node">
<title>Node7</title>
<g id="a_node7"><a xlink:title=" ">
<polygon fill="none" stroke="#bfbfbf" points="241.5,-56.5 241.5,-75.5 291.5,-75.5 291.5,-56.5 241.5,-56.5"/>
<text text-anchor="middle" x="266.5" y="-63.5" font-family="Helvetica,sans-Serif" font-size="10.00">optional</text>
</a>
</g>
</g>
<!-- Node6&#45;&gt;Node7 -->
<g id="edge7" class="edge">
<title>Node6&#45;&gt;Node7</title>
<path fill="none" stroke="midnightblue" d="M325.97,-168.42C318.47,-159.65 306.9,-145.42 298.5,-132 289.02,-116.86 280.21,-98.51 274.24,-85.17"/>
<polygon fill="midnightblue" stroke="midnightblue" points="277.32,-83.47 270.11,-75.71 270.91,-86.28 277.32,-83.47"/>
</g>
<!-- Node8 -->
<g id="node8" class="node">
<title>Node8</title>
<g id="a_node8"><a xlink:title=" ">
<polygon fill="none" stroke="#bfbfbf" points="308,-112.5 308,-131.5 359,-131.5 359,-112.5 308,-112.5"/>
<text text-anchor="middle" x="333.5" y="-119.5" font-family="Helvetica,sans-Serif" font-size="10.00">typeinfo</text>
</a>
</g>
</g>
<!-- Node6&#45;&gt;Node8 -->
<g id="edge8" class="edge">
<title>Node6&#45;&gt;Node8</title>
<path fill="none" stroke="midnightblue" d="M333.5,-168.08C333.5,-161.01 333.5,-150.86 333.5,-141.99"/>
<polygon fill="midnightblue" stroke="midnightblue" points="337,-141.75 333.5,-131.75 330,-141.75 337,-141.75"/>
</g>
<!-- Node9 -->
<g id="node9" class="node">
<title>Node9</title>
<g id="a_node9"><a xlink:href="bwDistance_8h.html" target="_top" xlink:title=" ">
<polygon fill="none" stroke="black" points="377,-112.5 377,-131.5 454,-131.5 454,-112.5 377,-112.5"/>
<text text-anchor="middle" x="415.5" y="-119.5" font-family="Helvetica,sans-Serif" font-size="10.00">bwDistance.h</text>
</a>
</g>
</g>
<!-- Node6&#45;&gt;Node9 -->
<g id="edge9" class="edge">
<title>Node6&#45;&gt;Node9</title>
<path fill="none" stroke="midnightblue" d="M346.67,-168.32C359.35,-159.98 378.73,-147.21 393.71,-137.35"/>
<polygon fill="midnightblue" stroke="midnightblue" points="395.93,-140.08 402.36,-131.65 392.08,-134.23 395.93,-140.08"/>
</g>
<!-- Node12 -->
<g id="node12" class="node">
<title>Node12</title>
<g id="a_node12"><a xlink:href="bwFunctorInterface_8h.html" target="_top" xlink:title=" ">
<polygon fill="none" stroke="black" points="472,-112.5 472,-131.5 581,-131.5 581,-112.5 472,-112.5"/>
<text text-anchor="middle" x="526.5" y="-119.5" font-family="Helvetica,sans-Serif" font-size="10.00">bwFunctorInterface.h</text>
</a>
</g>
</g>
<!-- Node6&#45;&gt;Node12 -->
<g id="edge12" class="edge">
<title>Node6&#45;&gt;Node12</title>
<path fill="none" stroke="midnightblue" d="M364.08,-168.44C397.11,-159.2 449.89,-144.44 486.27,-134.26"/>
<polygon fill="midnightblue" stroke="midnightblue" points="487.37,-137.58 496.06,-131.52 485.49,-130.84 487.37,-137.58"/>
</g>
<!-- Node13 -->
<g id="node13" class="node">
<title>Node13</title>
<g id="a_node13"><a xlink:href="bwRectangle_8h.html" target="_top" xlink:title=" ">
<polygon fill="none" stroke="black" points="599.5,-112.5 599.5,-131.5 681.5,-131.5 681.5,-112.5 599.5,-112.5"/>
<text text-anchor="middle" x="640.5" y="-119.5" font-family="Helvetica,sans-Serif" font-size="10.00">bwRectangle.h</text>
</a>
</g>
</g>
<!-- Node6&#45;&gt;Node13 -->
<g id="edge13" class="edge">
<title>Node6&#45;&gt;Node13</title>
<path fill="none" stroke="midnightblue" d="M367.74,-169.71C370.7,-169.12 373.65,-168.54 376.5,-168 467.71,-150.75 493.22,-148.48 589.17,-132.04"/>
<polygon fill="midnightblue" stroke="midnightblue" points="590.05,-135.44 599.31,-130.3 588.86,-128.54 590.05,-135.44"/>
</g>
<!-- Node14 -->
<g id="node14" class="node">
<title>Node14</title>
<g id="a_node14"><a xlink:href="bwStyleProperties_8h.html" target="_top" xlink:title=" ">
<polygon fill="none" stroke="black" points="147.5,-112.5 147.5,-131.5 251.5,-131.5 251.5,-112.5 147.5,-112.5"/>
<text text-anchor="middle" x="199.5" y="-119.5" font-family="Helvetica,sans-Serif" font-size="10.00">bwStyleProperties.h</text>
</a>
</g>
</g>
<!-- Node6&#45;&gt;Node14 -->
<g id="edge14" class="edge">
<title>Node6&#45;&gt;Node14</title>
<path fill="none" stroke="midnightblue" d="M312.27,-168.44C290.12,-159.52 255.18,-145.44 230.06,-135.32"/>
<polygon fill="midnightblue" stroke="midnightblue" points="231.22,-132.01 220.63,-131.52 228.6,-138.5 231.22,-132.01"/>
</g>
<!-- Node15 -->
<g id="node15" class="node">
<title>Node15</title>
<g id="a_node15"><a xlink:href="EventHandler_8h.html" target="_top" xlink:title=" ">
<polygon fill="none" stroke="black" points="700,-112.5 700,-131.5 845,-131.5 845,-112.5 700,-112.5"/>
<text text-anchor="middle" x="772.5" y="-119.5" font-family="Helvetica,sans-Serif" font-size="10.00">screen_graph/EventHandler.h</text>
</a>
</g>
</g>
<!-- Node6&#45;&gt;Node15 -->
<g id="edge19" class="edge">
<title>Node6&#45;&gt;Node15</title>
<path fill="none" stroke="midnightblue" d="M367.71,-169.54C370.68,-168.98 373.64,-168.46 376.5,-168 391.74,-165.55 578.11,-144.65 689.65,-132.21"/>
<polygon fill="midnightblue" stroke="midnightblue" points="690.32,-135.66 699.88,-131.08 689.55,-128.71 690.32,-135.66"/>
</g>
<!-- Node10 -->
<g id="node10" class="node">
<title>Node10</title>
<g id="a_node10"><a xlink:href="bwPoint_8h.html" target="_top" xlink:title=" ">
<polygon fill="none" stroke="black" points="347.5,-56.5 347.5,-75.5 407.5,-75.5 407.5,-56.5 347.5,-56.5"/>
<text text-anchor="middle" x="377.5" y="-63.5" font-family="Helvetica,sans-Serif" font-size="10.00">bwPoint.h</text>
</a>
</g>
</g>
<!-- Node9&#45;&gt;Node10 -->
<g id="edge10" class="edge">
<title>Node9&#45;&gt;Node10</title>
<path fill="none" stroke="midnightblue" d="M409.23,-112.08C403.86,-104.46 395.98,-93.26 389.42,-83.94"/>
<polygon fill="midnightblue" stroke="midnightblue" points="392.28,-81.91 383.66,-75.75 386.55,-85.94 392.28,-81.91"/>
</g>
<!-- Node11 -->
<g id="node11" class="node">
<title>Node11</title>
<g id="a_node11"><a xlink:title=" ">
<polygon fill="none" stroke="#bfbfbf" points="282.5,-0.5 282.5,-19.5 326.5,-19.5 326.5,-0.5 282.5,-0.5"/>
<text text-anchor="middle" x="304.5" y="-7.5" font-family="Helvetica,sans-Serif" font-size="10.00">vector</text>
</a>
</g>
</g>
<!-- Node10&#45;&gt;Node11 -->
<g id="edge11" class="edge">
<title>Node10&#45;&gt;Node11</title>
<path fill="none" stroke="midnightblue" d="M365.77,-56.32C354.66,-48.11 337.76,-35.6 324.52,-25.81"/>
<polygon fill="midnightblue" stroke="midnightblue" points="326.56,-22.97 316.44,-19.83 322.4,-28.59 326.56,-22.97"/>
</g>
<!-- Node14&#45;&gt;Node2 -->
<g id="edge17" class="edge">
<title>Node14&#45;&gt;Node2</title>
<path fill="none" stroke="midnightblue" d="M180.8,-112.44C161.56,-103.64 131.35,-89.81 109.3,-79.72"/>
<polygon fill="midnightblue" stroke="midnightblue" points="110.66,-76.5 100.11,-75.52 107.75,-82.86 110.66,-76.5"/>
</g>
<!-- Node14&#45;&gt;Node4 -->
<g id="edge15" class="edge">
<title>Node14&#45;&gt;Node4</title>
<path fill="none" stroke="midnightblue" d="M191.41,-112.08C184.34,-104.3 173.91,-92.8 165.35,-83.37"/>
<polygon fill="midnightblue" stroke="midnightblue" points="167.75,-80.8 158.44,-75.75 162.57,-85.51 167.75,-80.8"/>
</g>
<!-- Node14&#45;&gt;Node7 -->
<g id="edge16" class="edge">
<title>Node14&#45;&gt;Node7</title>
<path fill="none" stroke="midnightblue" d="M210.26,-112.32C220.27,-104.26 235.39,-92.08 247.43,-82.37"/>
<polygon fill="midnightblue" stroke="midnightblue" points="249.95,-84.83 255.54,-75.83 245.56,-79.38 249.95,-84.83"/>
</g>
<!-- Node14&#45;&gt;Node11 -->
<g id="edge18" class="edge">
<title>Node14&#45;&gt;Node11</title>
<path fill="none" stroke="midnightblue" d="M202.28,-112.11C206.83,-98.68 216.95,-72.99 232.5,-56 244.66,-42.71 261.62,-31.85 276.03,-24.13"/>
<polygon fill="midnightblue" stroke="midnightblue" points="277.74,-27.19 285.05,-19.52 274.55,-20.96 277.74,-27.19"/>
</g>
<!-- Node16 -->
<g id="node16" class="node">
<title>Node16</title>
<g id="a_node16"><a xlink:title=" ">
<polygon fill="none" stroke="#bfbfbf" points="655.5,-56.5 655.5,-75.5 693.5,-75.5 693.5,-56.5 655.5,-56.5"/>
<text text-anchor="middle" x="674.5" y="-63.5" font-family="Helvetica,sans-Serif" font-size="10.00">array</text>
</a>
</g>
</g>
<!-- Node15&#45;&gt;Node16 -->
<g id="edge20" class="edge">
<title>Node15&#45;&gt;Node16</title>
<path fill="none" stroke="midnightblue" d="M756.75,-112.32C741.18,-103.74 717.12,-90.49 699.04,-80.52"/>
<polygon fill="midnightblue" stroke="midnightblue" points="700.65,-77.42 690.21,-75.65 697.28,-83.55 700.65,-77.42"/>
</g>
<!-- Node17 -->
<g id="node17" class="node">
<title>Node17</title>
<g id="a_node17"><a xlink:title=" ">
<polygon fill="none" stroke="#bfbfbf" points="712,-56.5 712,-75.5 771,-75.5 771,-56.5 712,-56.5"/>
<text text-anchor="middle" x="741.5" y="-63.5" font-family="Helvetica,sans-Serif" font-size="10.00">functional</text>
</a>
</g>
</g>
<!-- Node15&#45;&gt;Node17 -->
<g id="edge21" class="edge">
<title>Node15&#45;&gt;Node17</title>
<path fill="none" stroke="midnightblue" d="M767.38,-112.08C763.09,-104.61 756.84,-93.72 751.56,-84.52"/>
<polygon fill="midnightblue" stroke="midnightblue" points="754.54,-82.68 746.52,-75.75 748.47,-86.17 754.54,-82.68"/>
</g>
<!-- Node18 -->
<g id="node18" class="node">
<title>Node18</title>
<g id="a_node18"><a xlink:title=" ">
<polygon fill="none" stroke="#bfbfbf" points="789,-56.5 789,-75.5 818,-75.5 818,-56.5 789,-56.5"/>
<text text-anchor="middle" x="803.5" y="-63.5" font-family="Helvetica,sans-Serif" font-size="10.00">list</text>
</a>
</g>
</g>
<!-- Node15&#45;&gt;Node18 -->
<g id="edge22" class="edge">
<title>Node15&#45;&gt;Node18</title>
<path fill="none" stroke="midnightblue" d="M777.62,-112.08C781.91,-104.61 788.16,-93.72 793.44,-84.52"/>
<polygon fill="midnightblue" stroke="midnightblue" points="796.53,-86.17 798.48,-75.75 790.46,-82.68 796.53,-86.17"/>
</g>
<!-- Node19 -->
<g id="node19" class="node">
<title>Node19</title>
<g id="a_node19"><a xlink:title=" ">
<polygon fill="none" stroke="#bfbfbf" points="836,-56.5 836,-75.5 919,-75.5 919,-56.5 836,-56.5"/>
<text text-anchor="middle" x="877.5" y="-63.5" font-family="Helvetica,sans-Serif" font-size="10.00">unordered_map</text>
</a>
</g>
</g>
<!-- Node15&#45;&gt;Node19 -->
<g id="edge23" class="edge">
<title>Node15&#45;&gt;Node19</title>
<path fill="none" stroke="midnightblue" d="M789.37,-112.32C806.21,-103.66 832.31,-90.24 851.74,-80.25"/>
<polygon fill="midnightblue" stroke="midnightblue" points="853.38,-83.34 860.67,-75.65 850.18,-77.12 853.38,-83.34"/>
</g>
<!-- Node21 -->
<g id="node21" class="node">
<title>Node21</title>
<g id="a_node21"><a xlink:href="bwColor_8h.html" target="_top" xlink:title=" ">
<polygon fill="none" stroke="black" points="863.5,-112.5 863.5,-131.5 923.5,-131.5 923.5,-112.5 863.5,-112.5"/>
<text text-anchor="middle" x="893.5" y="-119.5" font-family="Helvetica,sans-Serif" font-size="10.00">bwColor.h</text>
</a>
</g>
</g>
<!-- Node20&#45;&gt;Node21 -->
<g id="edge25" class="edge">
<title>Node20&#45;&gt;Node21</title>
<path fill="none" stroke="midnightblue" d="M733.61,-168.44C766.13,-159.2 818.08,-144.44 853.89,-134.26"/>
<polygon fill="midnightblue" stroke="midnightblue" points="854.87,-137.62 863.53,-131.52 852.96,-130.88 854.87,-137.62"/>
</g>
</g>
</svg>
