<?xml version="1.0" encoding="UTF-8" standalone="no"?>
<!DOCTYPE svg PUBLIC "-//W3C//DTD SVG 1.1//EN"
 "http://www.w3.org/Graphics/SVG/1.1/DTD/svg11.dtd">
<!-- Generated by graphviz version 2.50.0 (20211204.2007)
 -->
<!-- Title: bwidgets/widgets/bwPushButton.cc Pages: 1 -->
<svg width="935pt" height="364pt"
 viewBox="0.00 0.00 934.50 364.00" xmlns="http://www.w3.org/2000/svg" xmlns:xlink="http://www.w3.org/1999/xlink">
<g id="graph0" class="graph" transform="scale(1 1) rotate(0) translate(4 360)">
<title>bwidgets/widgets/bwPushButton.cc</title>
<!-- Node1 -->
<g id="node1" class="node">
<title>Node1</title>
<g id="a_node1"><a xlink:title=" ">
<polygon fill="#bfbfbf" stroke="black" points="0,-336.5 0,-355.5 173,-355.5 173,-336.5 0,-336.5"/>
<text text-anchor="middle" x="86.5" y="-343.5" font-family="Helvetica,sans-Serif" font-size="10.00">bwidgets/widgets/bwPushButton.cc</text>
</a>
</g>
</g>
<!-- Node2 -->
<g id="node2" class="node">
<title>Node2</title>
<g id="a_node2"><a xlink:href="bwPushButton_8h.html" target="_top" xlink:title=" ">
<polygon fill="none" stroke="black" points="42,-280.5 42,-299.5 131,-299.5 131,-280.5 42,-280.5"/>
<text text-anchor="middle" x="86.5" y="-287.5" font-family="Helvetica,sans-Serif" font-size="10.00">bwPushButton.h</text>
</a>
</g>
</g>
<!-- Node1&#45;&gt;Node2 -->
<g id="edge1" class="edge">
<title>Node1&#45;&gt;Node2</title>
<path fill="none" stroke="midnightblue" d="M86.5,-336.08C86.5,-329.01 86.5,-318.86 86.5,-309.99"/>
<polygon fill="midnightblue" stroke="midnightblue" points="90,-309.75 86.5,-299.75 83,-309.75 90,-309.75"/>
</g>
<!-- Node3 -->
<g id="node3" class="node">
<title>Node3</title>
<g id="a_node3"><a xlink:title=" ">
<polygon fill="none" stroke="#bfbfbf" points="64,-56.5 64,-75.5 105,-75.5 105,-56.5 64,-56.5"/>
<text text-anchor="middle" x="84.5" y="-63.5" font-family="Helvetica,sans-Serif" font-size="10.00">string</text>
</a>
</g>
</g>
<!-- Node2&#45;&gt;Node3 -->
<g id="edge2" class="edge">
<title>Node2&#45;&gt;Node3</title>
<path fill="none" stroke="midnightblue" d="M86.42,-280.3C86.13,-247.63 85.08,-131.87 84.67,-85.96"/>
<polygon fill="midnightblue" stroke="midnightblue" points="88.17,-85.85 84.58,-75.88 81.17,-85.91 88.17,-85.85"/>
</g>
<!-- Node4 -->
<g id="node4" class="node">
<title>Node4</title>
<g id="a_node4"><a xlink:href="bwAbstractButton_8h.html" target="_top" xlink:title=" ">
<polygon fill="none" stroke="black" points="180,-224.5 180,-243.5 283,-243.5 283,-224.5 180,-224.5"/>
<text text-anchor="middle" x="231.5" y="-231.5" font-family="Helvetica,sans-Serif" font-size="10.00">bwAbstractButton.h</text>
</a>
</g>
</g>
<!-- Node2&#45;&gt;Node4 -->
<g id="edge3" class="edge">
<title>Node2&#45;&gt;Node4</title>
<path fill="none" stroke="midnightblue" d="M109.48,-280.44C133.66,-271.44 171.92,-257.19 199.15,-247.05"/>
<polygon fill="midnightblue" stroke="midnightblue" points="200.48,-250.29 208.63,-243.52 198.04,-243.73 200.48,-250.29"/>
</g>
<!-- Node4&#45;&gt;Node3 -->
<g id="edge5" class="edge">
<title>Node4&#45;&gt;Node3</title>
<path fill="none" stroke="midnightblue" d="M212.43,-224.38C196.62,-216.55 174.26,-203.82 158.5,-188 127.47,-156.87 103.74,-110.32 92.21,-84.99"/>
<polygon fill="midnightblue" stroke="midnightblue" points="95.28,-83.27 88.03,-75.54 88.87,-86.11 95.28,-83.27"/>
</g>
<!-- Node5 -->
<g id="node5" class="node">
<title>Node5</title>
<g id="a_node5"><a xlink:title=" ">
<polygon fill="none" stroke="#bfbfbf" points="127.5,-56.5 127.5,-75.5 179.5,-75.5 179.5,-56.5 127.5,-56.5"/>
<text text-anchor="middle" x="153.5" y="-63.5" font-family="Helvetica,sans-Serif" font-size="10.00">memory</text>
</a>
</g>
</g>
<!-- Node4&#45;&gt;Node5 -->
<g id="edge4" class="edge">
<title>Node4&#45;&gt;Node5</title>
<path fill="none" stroke="midnightblue" d="M219.48,-224.39C198.83,-208.76 157.3,-173.48 141.5,-132 135.7,-116.77 140.03,-98.43 145.03,-85.12"/>
<polygon fill="midnightblue" stroke="midnightblue" points="148.35,-86.26 149.01,-75.68 141.9,-83.54 148.35,-86.26"/>
</g>
<!-- Node6 -->
<g id="node6" class="node">
<title>Node6</title>
<g id="a_node6"><a xlink:href="bwUtil_8h.html" target="_top" xlink:title=" ">
<polygon fill="none" stroke="black" points="389,-168.5 389,-187.5 442,-187.5 442,-168.5 389,-168.5"/>
<text text-anchor="middle" x="415.5" y="-175.5" font-family="Helvetica,sans-Serif" font-size="10.00">bwUtil.h</text>
</a>
</g>
</g>
<!-- Node4&#45;&gt;Node6 -->
<g id="edge6" class="edge">
<title>Node4&#45;&gt;Node6</title>
<path fill="none" stroke="midnightblue" d="M260.66,-224.44C292.75,-215.02 344.39,-199.87 379.12,-189.68"/>
<polygon fill="midnightblue" stroke="midnightblue" points="380.26,-192.99 388.87,-186.82 378.29,-186.27 380.26,-192.99"/>
</g>
<!-- Node7 -->
<g id="node7" class="node">
<title>Node7</title>
<g id="a_node7"><a xlink:href="bwWidget_8h.html" target="_top" xlink:title=" ">
<polygon fill="none" stroke="black" points="302.5,-168.5 302.5,-187.5 370.5,-187.5 370.5,-168.5 302.5,-168.5"/>
<text text-anchor="middle" x="336.5" y="-175.5" font-family="Helvetica,sans-Serif" font-size="10.00">bwWidget.h</text>
</a>
</g>
</g>
<!-- Node4&#45;&gt;Node7 -->
<g id="edge7" class="edge">
<title>Node4&#45;&gt;Node7</title>
<path fill="none" stroke="midnightblue" d="M248.37,-224.32C265.21,-215.66 291.31,-202.24 310.74,-192.25"/>
<polygon fill="midnightblue" stroke="midnightblue" points="312.38,-195.34 319.67,-187.65 309.18,-189.12 312.38,-195.34"/>
</g>
<!-- Node21 -->
<g id="node21" class="node">
<title>Node21</title>
<g id="a_node21"><a xlink:href="bwWidgetBaseStyle_8h.html" target="_top" xlink:title=" ">
<polygon fill="none" stroke="black" points="650,-168.5 650,-187.5 763,-187.5 763,-168.5 650,-168.5"/>
<text text-anchor="middle" x="706.5" y="-175.5" font-family="Helvetica,sans-Serif" font-size="10.00">bwWidgetBaseStyle.h</text>
</a>
</g>
</g>
<!-- Node4&#45;&gt;Node21 -->
<g id="edge25" class="edge">
<title>Node4&#45;&gt;Node21</title>
<path fill="none" stroke="midnightblue" d="M283.24,-227.12C369.77,-217.28 543.78,-197.5 639.53,-186.61"/>
<polygon fill="midnightblue" stroke="midnightblue" points="640.14,-190.07 649.68,-185.46 639.35,-183.11 640.14,-190.07"/>
</g>
<!-- Node8 -->
<g id="node8" class="node">
<title>Node8</title>
<g id="a_node8"><a xlink:title=" ">
<polygon fill="none" stroke="#bfbfbf" points="244.5,-56.5 244.5,-75.5 294.5,-75.5 294.5,-56.5 244.5,-56.5"/>
<text text-anchor="middle" x="269.5" y="-63.5" font-family="Helvetica,sans-Serif" font-size="10.00">optional</text>
</a>
</g>
</g>
<!-- Node7&#45;&gt;Node8 -->
<g id="edge8" class="edge">
<title>Node7&#45;&gt;Node8</title>
<path fill="none" stroke="midnightblue" d="M328.97,-168.42C321.47,-159.65 309.9,-145.42 301.5,-132 292.02,-116.86 283.21,-98.51 277.24,-85.17"/>
<polygon fill="midnightblue" stroke="midnightblue" points="280.32,-83.47 273.11,-75.71 273.91,-86.28 280.32,-83.47"/>
</g>
<!-- Node9 -->
<g id="node9" class="node">
<title>Node9</title>
<g id="a_node9"><a xlink:title=" ">
<polygon fill="none" stroke="#bfbfbf" points="311,-112.5 311,-131.5 362,-131.5 362,-112.5 311,-112.5"/>
<text text-anchor="middle" x="336.5" y="-119.5" font-family="Helvetica,sans-Serif" font-size="10.00">typeinfo</text>
</a>
</g>
</g>
<!-- Node7&#45;&gt;Node9 -->
<g id="edge9" class="edge">
<title>Node7&#45;&gt;Node9</title>
<path fill="none" stroke="midnightblue" d="M336.5,-168.08C336.5,-161.01 336.5,-150.86 336.5,-141.99"/>
<polygon fill="midnightblue" stroke="midnightblue" points="340,-141.75 336.5,-131.75 333,-141.75 340,-141.75"/>
</g>
<!-- Node10 -->
<g id="node10" class="node">
<title>Node10</title>
<g id="a_node10"><a xlink:href="bwDistance_8h.html" target="_top" xlink:title=" ">
<polygon fill="none" stroke="black" points="380,-112.5 380,-131.5 457,-131.5 457,-112.5 380,-112.5"/>
<text text-anchor="middle" x="418.5" y="-119.5" font-family="Helvetica,sans-Serif" font-size="10.00">bwDistance.h</text>
</a>
</g>
</g>
<!-- Node7&#45;&gt;Node10 -->
<g id="edge10" class="edge">
<title>Node7&#45;&gt;Node10</title>
<path fill="none" stroke="midnightblue" d="M349.67,-168.32C362.35,-159.98 381.73,-147.21 396.71,-137.35"/>
<polygon fill="midnightblue" stroke="midnightblue" points="398.93,-140.08 405.36,-131.65 395.08,-134.23 398.93,-140.08"/>
</g>
<!-- Node13 -->
<g id="node13" class="node">
<title>Node13</title>
<g id="a_node13"><a xlink:href="bwFunctorInterface_8h.html" target="_top" xlink:title=" ">
<polygon fill="none" stroke="black" points="475,-112.5 475,-131.5 584,-131.5 584,-112.5 475,-112.5"/>
<text text-anchor="middle" x="529.5" y="-119.5" font-family="Helvetica,sans-Serif" font-size="10.00">bwFunctorInterface.h</text>
</a>
</g>
</g>
<!-- Node7&#45;&gt;Node13 -->
<g id="edge13" class="edge">
<title>Node7&#45;&gt;Node13</title>
<path fill="none" stroke="midnightblue" d="M367.08,-168.44C400.11,-159.2 452.89,-144.44 489.27,-134.26"/>
<polygon fill="midnightblue" stroke="midnightblue" points="490.37,-137.58 499.06,-131.52 488.49,-130.84 490.37,-137.58"/>
</g>
<!-- Node14 -->
<g id="node14" class="node">
<title>Node14</title>
<g id="a_node14"><a xlink:href="bwRectangle_8h.html" target="_top" xlink:title=" ">
<polygon fill="none" stroke="black" points="602.5,-112.5 602.5,-131.5 684.5,-131.5 684.5,-112.5 602.5,-112.5"/>
<text text-anchor="middle" x="643.5" y="-119.5" font-family="Helvetica,sans-Serif" font-size="10.00">bwRectangle.h</text>
</a>
</g>
</g>
<!-- Node7&#45;&gt;Node14 -->
<g id="edge14" class="edge">
<title>Node7&#45;&gt;Node14</title>
<path fill="none" stroke="midnightblue" d="M370.74,-169.71C373.7,-169.12 376.65,-168.54 379.5,-168 470.71,-150.75 496.22,-148.48 592.17,-132.04"/>
<polygon fill="midnightblue" stroke="midnightblue" points="593.05,-135.44 602.31,-130.3 591.86,-128.54 593.05,-135.44"/>
</g>
<!-- Node15 -->
<g id="node15" class="node">
<title>Node15</title>
<g id="a_node15"><a xlink:href="bwStyleProperties_8h.html" target="_top" xlink:title=" ">
<polygon fill="none" stroke="black" points="150.5,-112.5 150.5,-131.5 254.5,-131.5 254.5,-112.5 150.5,-112.5"/>
<text text-anchor="middle" x="202.5" y="-119.5" font-family="Helvetica,sans-Serif" font-size="10.00">bwStyleProperties.h</text>
</a>
</g>
</g>
<!-- Node7&#45;&gt;Node15 -->
<g id="edge15" class="edge">
<title>Node7&#45;&gt;Node15</title>
<path fill="none" stroke="midnightblue" d="M315.27,-168.44C293.12,-159.52 258.18,-145.44 233.06,-135.32"/>
<polygon fill="midnightblue" stroke="midnightblue" points="234.22,-132.01 223.63,-131.52 231.6,-138.5 234.22,-132.01"/>
</g>
<!-- Node16 -->
<g id="node16" class="node">
<title>Node16</title>
<g id="a_node16"><a xlink:href="EventHandler_8h.html" target="_top" xlink:title=" ">
<polygon fill="none" stroke="black" points="703,-112.5 703,-131.5 848,-131.5 848,-112.5 703,-112.5"/>
<text text-anchor="middle" x="775.5" y="-119.5" font-family="Helvetica,sans-Serif" font-size="10.00">screen_graph/EventHandler.h</text>
</a>
</g>
</g>
<!-- Node7&#45;&gt;Node16 -->
<g id="edge20" class="edge">
<title>Node7&#45;&gt;Node16</title>
<path fill="none" stroke="midnightblue" d="M370.71,-169.54C373.68,-168.98 376.64,-168.46 379.5,-168 394.74,-165.55 581.11,-144.65 692.65,-132.21"/>
<polygon fill="midnightblue" stroke="midnightblue" points="693.32,-135.66 702.88,-131.08 692.55,-128.71 693.32,-135.66"/>
</g>
<!-- Node11 -->
<g id="node11" class="node">
<title>Node11</title>
<g id="a_node11"><a xlink:href="bwPoint_8h.html" target="_top" xlink:title=" ">
<polygon fill="none" stroke="black" points="350.5,-56.5 350.5,-75.5 410.5,-75.5 410.5,-56.5 350.5,-56.5"/>
<text text-anchor="middle" x="380.5" y="-63.5" font-family="Helvetica,sans-Serif" font-size="10.00">bwPoint.h</text>
</a>
</g>
</g>
<!-- Node10&#45;&gt;Node11 -->
<g id="edge11" class="edge">
<title>Node10&#45;&gt;Node11</title>
<path fill="none" stroke="midnightblue" d="M412.23,-112.08C406.86,-104.46 398.98,-93.26 392.42,-83.94"/>
<polygon fill="midnightblue" stroke="midnightblue" points="395.28,-81.91 386.66,-75.75 389.55,-85.94 395.28,-81.91"/>
</g>
<!-- Node12 -->
<g id="node12" class="node">
<title>Node12</title>
<g id="a_node12"><a xlink:title=" ">
<polygon fill="none" stroke="#bfbfbf" points="285.5,-0.5 285.5,-19.5 329.5,-19.5 329.5,-0.5 285.5,-0.5"/>
<text text-anchor="middle" x="307.5" y="-7.5" font-family="Helvetica,sans-Serif" font-size="10.00">vector</text>
</a>
</g>
</g>
<!-- Node11&#45;&gt;Node12 -->
<g id="edge12" class="edge">
<title>Node11&#45;&gt;Node12</title>
<path fill="none" stroke="midnightblue" d="M368.77,-56.32C357.66,-48.11 340.76,-35.6 327.52,-25.81"/>
<polygon fill="midnightblue" stroke="midnightblue" points="329.56,-22.97 319.44,-19.83 325.4,-28.59 329.56,-22.97"/>
</g>
<!-- Node15&#45;&gt;Node3 -->
<g id="edge18" class="edge">
<title>Node15&#45;&gt;Node3</title>
<path fill="none" stroke="midnightblue" d="M183.8,-112.44C164.56,-103.64 134.35,-89.81 112.3,-79.72"/>
<polygon fill="midnightblue" stroke="midnightblue" points="113.66,-76.5 103.11,-75.52 110.75,-82.86 113.66,-76.5"/>
</g>
<!-- Node15&#45;&gt;Node5 -->
<g id="edge16" class="edge">
<title>Node15&#45;&gt;Node5</title>
<path fill="none" stroke="midnightblue" d="M194.41,-112.08C187.34,-104.3 176.91,-92.8 168.35,-83.37"/>
<polygon fill="midnightblue" stroke="midnightblue" points="170.75,-80.8 161.44,-75.75 165.57,-85.51 170.75,-80.8"/>
</g>
<!-- Node15&#45;&gt;Node8 -->
<g id="edge17" class="edge">
<title>Node15&#45;&gt;Node8</title>
<path fill="none" stroke="midnightblue" d="M213.26,-112.32C223.27,-104.26 238.39,-92.08 250.43,-82.37"/>
<polygon fill="midnightblue" stroke="midnightblue" points="252.95,-84.83 258.54,-75.83 248.56,-79.38 252.95,-84.83"/>
</g>
<!-- Node15&#45;&gt;Node12 -->
<g id="edge19" class="edge">
<title>Node15&#45;&gt;Node12</title>
<path fill="none" stroke="midnightblue" d="M205.28,-112.11C209.83,-98.68 219.95,-72.99 235.5,-56 247.66,-42.71 264.62,-31.85 279.03,-24.13"/>
<polygon fill="midnightblue" stroke="midnightblue" points="280.74,-27.19 288.05,-19.52 277.55,-20.96 280.74,-27.19"/>
</g>
<!-- Node17 -->
<g id="node17" class="node">
<title>Node17</title>
<g id="a_node17"><a xlink:title=" ">
<polygon fill="none" stroke="#bfbfbf" points="658.5,-56.5 658.5,-75.5 696.5,-75.5 696.5,-56.5 658.5,-56.5"/>
<text text-anchor="middle" x="677.5" y="-63.5" font-family="Helvetica,sans-Serif" font-size="10.00">array</text>
</a>
</g>
</g>
<!-- Node16&#45;&gt;Node17 -->
<g id="edge21" class="edge">
<title>Node16&#45;&gt;Node17</title>
<path fill="none" stroke="midnightblue" d="M759.75,-112.32C744.18,-103.74 720.12,-90.49 702.04,-80.52"/>
<polygon fill="midnightblue" stroke="midnightblue" points="703.65,-77.42 693.21,-75.65 700.28,-83.55 703.65,-77.42"/>
</g>
<!-- Node18 -->
<g id="node18" class="node">
<title>Node18</title>
<g id="a_node18"><a xlink:title=" ">
<polygon fill="none" stroke="#bfbfbf" points="715,-56.5 715,-75.5 774,-75.5 774,-56.5 715,-56.5"/>
<text text-anchor="middle" x="744.5" y="-63.5" font-family="Helvetica,sans-Serif" font-size="10.00">functional</text>
</a>
</g>
</g>
<!-- Node16&#45;&gt;Node18 -->
<g id="edge22" class="edge">
<title>Node16&#45;&gt;Node18</title>
<path fill="none" stroke="midnightblue" d="M770.38,-112.08C766.09,-104.61 759.84,-93.72 754.56,-84.52"/>
<polygon fill="midnightblue" stroke="midnightblue" points="757.54,-82.68 749.52,-75.75 751.47,-86.17 757.54,-82.68"/>
</g>
<!-- Node19 -->
<g id="node19" class="node">
<title>Node19</title>
<g id="a_node19"><a xlink:title=" ">
<polygon fill="none" stroke="#bfbfbf" points="792,-56.5 792,-75.5 821,-75.5 821,-56.5 792,-56.5"/>
<text text-anchor="middle" x="806.5" y="-63.5" font-family="Helvetica,sans-Serif" font-size="10.00">list</text>
</a>
</g>
</g>
<!-- Node16&#45;&gt;Node19 -->
<g id="edge23" class="edge">
<title>Node16&#45;&gt;Node19</title>
<path fill="none" stroke="midnightblue" d="M780.62,-112.08C784.91,-104.61 791.16,-93.72 796.44,-84.52"/>
<polygon fill="midnightblue" stroke="midnightblue" points="799.53,-86.17 801.48,-75.75 793.46,-82.68 799.53,-86.17"/>
</g>
<!-- Node20 -->
<g id="node20" class="node">
<title>Node20</title>
<g id="a_node20"><a xlink:title=" ">
<polygon fill="none" stroke="#bfbfbf" points="839,-56.5 839,-75.5 922,-75.5 922,-56.5 839,-56.5"/>
<text text-anchor="middle" x="880.5" y="-63.5" font-family="Helvetica,sans-Serif" font-size="10.00">unordered_map</text>
</a>
</g>
</g>
<!-- Node16&#45;&gt;Node20 -->
<g id="edge24" class="edge">
<title>Node16&#45;&gt;Node20</title>
<path fill="none" stroke="midnightblue" d="M792.37,-112.32C809.21,-103.66 835.31,-90.24 854.74,-80.25"/>
<polygon fill="midnightblue" stroke="midnightblue" points="856.38,-83.34 863.67,-75.65 853.18,-77.12 856.38,-83.34"/>
</g>
<!-- Node22 -->
<g id="node22" class="node">
<title>Node22</title>
<g id="a_node22"><a xlink:href="bwColor_8h.html" target="_top" xlink:title=" ">
<polygon fill="none" stroke="black" points="866.5,-112.5 866.5,-131.5 926.5,-131.5 926.5,-112.5 866.5,-112.5"/>
<text text-anchor="middle" x="896.5" y="-119.5" font-family="Helvetica,sans-Serif" font-size="10.00">bwColor.h</text>
</a>
</g>
</g>
<!-- Node21&#45;&gt;Node22 -->
<g id="edge26" class="edge">
<title>Node21&#45;&gt;Node22</title>
<path fill="none" stroke="midnightblue" d="M736.61,-168.44C769.13,-159.2 821.08,-144.44 856.89,-134.26"/>
<polygon fill="midnightblue" stroke="midnightblue" points="857.87,-137.62 866.53,-131.52 855.96,-130.88 857.87,-137.62"/>
</g>
</g>
</svg>
