<?xml version="1.0" encoding="UTF-8" standalone="no"?>
<!DOCTYPE svg PUBLIC "-//W3C//DTD SVG 1.1//EN"
 "http://www.w3.org/Graphics/SVG/1.1/DTD/svg11.dtd">
<!-- Generated by graphviz version 2.50.0 (20211204.2007)
 -->
<!-- Title: bwidgets/widgets/bwRadioButton.h Pages: 1 -->
<svg width="915pt" height="319pt"
 viewBox="0.00 0.00 915.00 319.00" xmlns="http://www.w3.org/2000/svg" xmlns:xlink="http://www.w3.org/1999/xlink">
<g id="graph0" class="graph" transform="scale(1 1) rotate(0) translate(4 315)">
<title>bwidgets/widgets/bwRadioButton.h</title>
<!-- Node1 -->
<g id="node1" class="node">
<title>Node1</title>
<g id="a_node1"><a xlink:title=" ">
<polygon fill="#bfbfbf" stroke="black" points="0,-280.5 0,-310.5 134,-310.5 134,-280.5 0,-280.5"/>
<text text-anchor="start" x="8" y="-298.5" font-family="Helvetica,sans-Serif" font-size="10.00">bwidgets/widgets/bwRadio</text>
<text text-anchor="middle" x="67" y="-287.5" font-family="Helvetica,sans-Serif" font-size="10.00">Button.h</text>
</a>
</g>
</g>
<!-- Node2 -->
<g id="node2" class="node">
<title>Node2</title>
<g id="a_node2"><a xlink:title=" ">
<polygon fill="none" stroke="#bfbfbf" points="44.5,-56.5 44.5,-75.5 85.5,-75.5 85.5,-56.5 44.5,-56.5"/>
<text text-anchor="middle" x="65" y="-63.5" font-family="Helvetica,sans-Serif" font-size="10.00">string</text>
</a>
</g>
</g>
<!-- Node1&#45;&gt;Node2 -->
<g id="edge1" class="edge">
<title>Node1&#45;&gt;Node2</title>
<path fill="none" stroke="midnightblue" d="M66.87,-280.27C66.53,-240.89 65.56,-130.49 65.17,-85.97"/>
<polygon fill="midnightblue" stroke="midnightblue" points="68.67,-85.9 65.08,-75.93 61.67,-85.96 68.67,-85.9"/>
</g>
<!-- Node3 -->
<g id="node3" class="node">
<title>Node3</title>
<g id="a_node3"><a xlink:href="bwAbstractButton_8h.html" target="_top" xlink:title=" ">
<polygon fill="none" stroke="black" points="160.5,-224.5 160.5,-243.5 263.5,-243.5 263.5,-224.5 160.5,-224.5"/>
<text text-anchor="middle" x="212" y="-231.5" font-family="Helvetica,sans-Serif" font-size="10.00">bwAbstractButton.h</text>
</a>
</g>
</g>
<!-- Node1&#45;&gt;Node3 -->
<g id="edge2" class="edge">
<title>Node1&#45;&gt;Node3</title>
<path fill="none" stroke="midnightblue" d="M101.36,-280.4C125.69,-270.42 158.03,-257.15 181.46,-247.53"/>
<polygon fill="midnightblue" stroke="midnightblue" points="182.98,-250.69 190.9,-243.66 180.32,-244.22 182.98,-250.69"/>
</g>
<!-- Node3&#45;&gt;Node2 -->
<g id="edge4" class="edge">
<title>Node3&#45;&gt;Node2</title>
<path fill="none" stroke="midnightblue" d="M192.93,-224.38C177.12,-216.55 154.76,-203.82 139,-188 107.97,-156.87 84.24,-110.32 72.71,-84.99"/>
<polygon fill="midnightblue" stroke="midnightblue" points="75.78,-83.27 68.53,-75.54 69.37,-86.11 75.78,-83.27"/>
</g>
<!-- Node4 -->
<g id="node4" class="node">
<title>Node4</title>
<g id="a_node4"><a xlink:title=" ">
<polygon fill="none" stroke="#bfbfbf" points="108,-56.5 108,-75.5 160,-75.5 160,-56.5 108,-56.5"/>
<text text-anchor="middle" x="134" y="-63.5" font-family="Helvetica,sans-Serif" font-size="10.00">memory</text>
</a>
</g>
</g>
<!-- Node3&#45;&gt;Node4 -->
<g id="edge3" class="edge">
<title>Node3&#45;&gt;Node4</title>
<path fill="none" stroke="midnightblue" d="M199.98,-224.39C179.33,-208.76 137.8,-173.48 122,-132 116.2,-116.77 120.53,-98.43 125.53,-85.12"/>
<polygon fill="midnightblue" stroke="midnightblue" points="128.85,-86.26 129.51,-75.68 122.4,-83.54 128.85,-86.26"/>
</g>
<!-- Node5 -->
<g id="node5" class="node">
<title>Node5</title>
<g id="a_node5"><a xlink:href="bwUtil_8h.html" target="_top" xlink:title=" ">
<polygon fill="none" stroke="black" points="369.5,-168.5 369.5,-187.5 422.5,-187.5 422.5,-168.5 369.5,-168.5"/>
<text text-anchor="middle" x="396" y="-175.5" font-family="Helvetica,sans-Serif" font-size="10.00">bwUtil.h</text>
</a>
</g>
</g>
<!-- Node3&#45;&gt;Node5 -->
<g id="edge5" class="edge">
<title>Node3&#45;&gt;Node5</title>
<path fill="none" stroke="midnightblue" d="M241.16,-224.44C273.25,-215.02 324.89,-199.87 359.62,-189.68"/>
<polygon fill="midnightblue" stroke="midnightblue" points="360.76,-192.99 369.37,-186.82 358.79,-186.27 360.76,-192.99"/>
</g>
<!-- Node6 -->
<g id="node6" class="node">
<title>Node6</title>
<g id="a_node6"><a xlink:href="bwWidget_8h.html" target="_top" xlink:title=" ">
<polygon fill="none" stroke="black" points="283,-168.5 283,-187.5 351,-187.5 351,-168.5 283,-168.5"/>
<text text-anchor="middle" x="317" y="-175.5" font-family="Helvetica,sans-Serif" font-size="10.00">bwWidget.h</text>
</a>
</g>
</g>
<!-- Node3&#45;&gt;Node6 -->
<g id="edge6" class="edge">
<title>Node3&#45;&gt;Node6</title>
<path fill="none" stroke="midnightblue" d="M228.87,-224.32C245.71,-215.66 271.81,-202.24 291.24,-192.25"/>
<polygon fill="midnightblue" stroke="midnightblue" points="292.88,-195.34 300.17,-187.65 289.68,-189.12 292.88,-195.34"/>
</g>
<!-- Node20 -->
<g id="node20" class="node">
<title>Node20</title>
<g id="a_node20"><a xlink:href="bwWidgetBaseStyle_8h.html" target="_top" xlink:title=" ">
<polygon fill="none" stroke="black" points="630.5,-168.5 630.5,-187.5 743.5,-187.5 743.5,-168.5 630.5,-168.5"/>
<text text-anchor="middle" x="687" y="-175.5" font-family="Helvetica,sans-Serif" font-size="10.00">bwWidgetBaseStyle.h</text>
</a>
</g>
</g>
<!-- Node3&#45;&gt;Node20 -->
<g id="edge24" class="edge">
<title>Node3&#45;&gt;Node20</title>
<path fill="none" stroke="midnightblue" d="M263.74,-227.12C350.27,-217.28 524.28,-197.5 620.03,-186.61"/>
<polygon fill="midnightblue" stroke="midnightblue" points="620.64,-190.07 630.18,-185.46 619.85,-183.11 620.64,-190.07"/>
</g>
<!-- Node7 -->
<g id="node7" class="node">
<title>Node7</title>
<g id="a_node7"><a xlink:title=" ">
<polygon fill="none" stroke="#bfbfbf" points="225,-56.5 225,-75.5 275,-75.5 275,-56.5 225,-56.5"/>
<text text-anchor="middle" x="250" y="-63.5" font-family="Helvetica,sans-Serif" font-size="10.00">optional</text>
</a>
</g>
</g>
<!-- Node6&#45;&gt;Node7 -->
<g id="edge7" class="edge">
<title>Node6&#45;&gt;Node7</title>
<path fill="none" stroke="midnightblue" d="M309.47,-168.42C301.97,-159.65 290.4,-145.42 282,-132 272.52,-116.86 263.71,-98.51 257.74,-85.17"/>
<polygon fill="midnightblue" stroke="midnightblue" points="260.82,-83.47 253.61,-75.71 254.41,-86.28 260.82,-83.47"/>
</g>
<!-- Node8 -->
<g id="node8" class="node">
<title>Node8</title>
<g id="a_node8"><a xlink:title=" ">
<polygon fill="none" stroke="#bfbfbf" points="291.5,-112.5 291.5,-131.5 342.5,-131.5 342.5,-112.5 291.5,-112.5"/>
<text text-anchor="middle" x="317" y="-119.5" font-family="Helvetica,sans-Serif" font-size="10.00">typeinfo</text>
</a>
</g>
</g>
<!-- Node6&#45;&gt;Node8 -->
<g id="edge8" class="edge">
<title>Node6&#45;&gt;Node8</title>
<path fill="none" stroke="midnightblue" d="M317,-168.08C317,-161.01 317,-150.86 317,-141.99"/>
<polygon fill="midnightblue" stroke="midnightblue" points="320.5,-141.75 317,-131.75 313.5,-141.75 320.5,-141.75"/>
</g>
<!-- Node9 -->
<g id="node9" class="node">
<title>Node9</title>
<g id="a_node9"><a xlink:href="bwDistance_8h.html" target="_top" xlink:title=" ">
<polygon fill="none" stroke="black" points="360.5,-112.5 360.5,-131.5 437.5,-131.5 437.5,-112.5 360.5,-112.5"/>
<text text-anchor="middle" x="399" y="-119.5" font-family="Helvetica,sans-Serif" font-size="10.00">bwDistance.h</text>
</a>
</g>
</g>
<!-- Node6&#45;&gt;Node9 -->
<g id="edge9" class="edge">
<title>Node6&#45;&gt;Node9</title>
<path fill="none" stroke="midnightblue" d="M330.17,-168.32C342.85,-159.98 362.23,-147.21 377.21,-137.35"/>
<polygon fill="midnightblue" stroke="midnightblue" points="379.43,-140.08 385.86,-131.65 375.58,-134.23 379.43,-140.08"/>
</g>
<!-- Node12 -->
<g id="node12" class="node">
<title>Node12</title>
<g id="a_node12"><a xlink:href="bwFunctorInterface_8h.html" target="_top" xlink:title=" ">
<polygon fill="none" stroke="black" points="455.5,-112.5 455.5,-131.5 564.5,-131.5 564.5,-112.5 455.5,-112.5"/>
<text text-anchor="middle" x="510" y="-119.5" font-family="Helvetica,sans-Serif" font-size="10.00">bwFunctorInterface.h</text>
</a>
</g>
</g>
<!-- Node6&#45;&gt;Node12 -->
<g id="edge12" class="edge">
<title>Node6&#45;&gt;Node12</title>
<path fill="none" stroke="midnightblue" d="M347.58,-168.44C380.61,-159.2 433.39,-144.44 469.77,-134.26"/>
<polygon fill="midnightblue" stroke="midnightblue" points="470.87,-137.58 479.56,-131.52 468.99,-130.84 470.87,-137.58"/>
</g>
<!-- Node13 -->
<g id="node13" class="node">
<title>Node13</title>
<g id="a_node13"><a xlink:href="bwRectangle_8h.html" target="_top" xlink:title=" ">
<polygon fill="none" stroke="black" points="583,-112.5 583,-131.5 665,-131.5 665,-112.5 583,-112.5"/>
<text text-anchor="middle" x="624" y="-119.5" font-family="Helvetica,sans-Serif" font-size="10.00">bwRectangle.h</text>
</a>
</g>
</g>
<!-- Node6&#45;&gt;Node13 -->
<g id="edge13" class="edge">
<title>Node6&#45;&gt;Node13</title>
<path fill="none" stroke="midnightblue" d="M351.24,-169.71C354.2,-169.12 357.15,-168.54 360,-168 451.21,-150.75 476.72,-148.48 572.67,-132.04"/>
<polygon fill="midnightblue" stroke="midnightblue" points="573.55,-135.44 582.81,-130.3 572.36,-128.54 573.55,-135.44"/>
</g>
<!-- Node14 -->
<g id="node14" class="node">
<title>Node14</title>
<g id="a_node14"><a xlink:href="bwStyleProperties_8h.html" target="_top" xlink:title=" ">
<polygon fill="none" stroke="black" points="131,-112.5 131,-131.5 235,-131.5 235,-112.5 131,-112.5"/>
<text text-anchor="middle" x="183" y="-119.5" font-family="Helvetica,sans-Serif" font-size="10.00">bwStyleProperties.h</text>
</a>
</g>
</g>
<!-- Node6&#45;&gt;Node14 -->
<g id="edge14" class="edge">
<title>Node6&#45;&gt;Node14</title>
<path fill="none" stroke="midnightblue" d="M295.77,-168.44C273.62,-159.52 238.68,-145.44 213.56,-135.32"/>
<polygon fill="midnightblue" stroke="midnightblue" points="214.72,-132.01 204.13,-131.52 212.1,-138.5 214.72,-132.01"/>
</g>
<!-- Node15 -->
<g id="node15" class="node">
<title>Node15</title>
<g id="a_node15"><a xlink:href="EventHandler_8h.html" target="_top" xlink:title=" ">
<polygon fill="none" stroke="black" points="683.5,-112.5 683.5,-131.5 828.5,-131.5 828.5,-112.5 683.5,-112.5"/>
<text text-anchor="middle" x="756" y="-119.5" font-family="Helvetica,sans-Serif" font-size="10.00">screen_graph/EventHandler.h</text>
</a>
</g>
</g>
<!-- Node6&#45;&gt;Node15 -->
<g id="edge19" class="edge">
<title>Node6&#45;&gt;Node15</title>
<path fill="none" stroke="midnightblue" d="M351.21,-169.54C354.18,-168.98 357.14,-168.46 360,-168 375.24,-165.55 561.61,-144.65 673.15,-132.21"/>
<polygon fill="midnightblue" stroke="midnightblue" points="673.82,-135.66 683.38,-131.08 673.05,-128.71 673.82,-135.66"/>
</g>
<!-- Node10 -->
<g id="node10" class="node">
<title>Node10</title>
<g id="a_node10"><a xlink:href="bwPoint_8h.html" target="_top" xlink:title=" ">
<polygon fill="none" stroke="black" points="331,-56.5 331,-75.5 391,-75.5 391,-56.5 331,-56.5"/>
<text text-anchor="middle" x="361" y="-63.5" font-family="Helvetica,sans-Serif" font-size="10.00">bwPoint.h</text>
</a>
</g>
</g>
<!-- Node9&#45;&gt;Node10 -->
<g id="edge10" class="edge">
<title>Node9&#45;&gt;Node10</title>
<path fill="none" stroke="midnightblue" d="M392.73,-112.08C387.36,-104.46 379.48,-93.26 372.92,-83.94"/>
<polygon fill="midnightblue" stroke="midnightblue" points="375.78,-81.91 367.16,-75.75 370.05,-85.94 375.78,-81.91"/>
</g>
<!-- Node11 -->
<g id="node11" class="node">
<title>Node11</title>
<g id="a_node11"><a xlink:title=" ">
<polygon fill="none" stroke="#bfbfbf" points="266,-0.5 266,-19.5 310,-19.5 310,-0.5 266,-0.5"/>
<text text-anchor="middle" x="288" y="-7.5" font-family="Helvetica,sans-Serif" font-size="10.00">vector</text>
</a>
</g>
</g>
<!-- Node10&#45;&gt;Node11 -->
<g id="edge11" class="edge">
<title>Node10&#45;&gt;Node11</title>
<path fill="none" stroke="midnightblue" d="M349.27,-56.32C338.16,-48.11 321.26,-35.6 308.02,-25.81"/>
<polygon fill="midnightblue" stroke="midnightblue" points="310.06,-22.97 299.94,-19.83 305.9,-28.59 310.06,-22.97"/>
</g>
<!-- Node14&#45;&gt;Node2 -->
<g id="edge17" class="edge">
<title>Node14&#45;&gt;Node2</title>
<path fill="none" stroke="midnightblue" d="M164.3,-112.44C145.06,-103.64 114.85,-89.81 92.8,-79.72"/>
<polygon fill="midnightblue" stroke="midnightblue" points="94.16,-76.5 83.61,-75.52 91.25,-82.86 94.16,-76.5"/>
</g>
<!-- Node14&#45;&gt;Node4 -->
<g id="edge15" class="edge">
<title>Node14&#45;&gt;Node4</title>
<path fill="none" stroke="midnightblue" d="M174.91,-112.08C167.84,-104.3 157.41,-92.8 148.85,-83.37"/>
<polygon fill="midnightblue" stroke="midnightblue" points="151.25,-80.8 141.94,-75.75 146.07,-85.51 151.25,-80.8"/>
</g>
<!-- Node14&#45;&gt;Node7 -->
<g id="edge16" class="edge">
<title>Node14&#45;&gt;Node7</title>
<path fill="none" stroke="midnightblue" d="M193.76,-112.32C203.77,-104.26 218.89,-92.08 230.93,-82.37"/>
<polygon fill="midnightblue" stroke="midnightblue" points="233.45,-84.83 239.04,-75.83 229.06,-79.38 233.45,-84.83"/>
</g>
<!-- Node14&#45;&gt;Node11 -->
<g id="edge18" class="edge">
<title>Node14&#45;&gt;Node11</title>
<path fill="none" stroke="midnightblue" d="M185.78,-112.11C190.33,-98.68 200.45,-72.99 216,-56 228.16,-42.71 245.12,-31.85 259.53,-24.13"/>
<polygon fill="midnightblue" stroke="midnightblue" points="261.24,-27.19 268.55,-19.52 258.05,-20.96 261.24,-27.19"/>
</g>
<!-- Node16 -->
<g id="node16" class="node">
<title>Node16</title>
<g id="a_node16"><a xlink:title=" ">
<polygon fill="none" stroke="#bfbfbf" points="639,-56.5 639,-75.5 677,-75.5 677,-56.5 639,-56.5"/>
<text text-anchor="middle" x="658" y="-63.5" font-family="Helvetica,sans-Serif" font-size="10.00">array</text>
</a>
</g>
</g>
<!-- Node15&#45;&gt;Node16 -->
<g id="edge20" class="edge">
<title>Node15&#45;&gt;Node16</title>
<path fill="none" stroke="midnightblue" d="M740.25,-112.32C724.68,-103.74 700.62,-90.49 682.54,-80.52"/>
<polygon fill="midnightblue" stroke="midnightblue" points="684.15,-77.42 673.71,-75.65 680.78,-83.55 684.15,-77.42"/>
</g>
<!-- Node17 -->
<g id="node17" class="node">
<title>Node17</title>
<g id="a_node17"><a xlink:title=" ">
<polygon fill="none" stroke="#bfbfbf" points="695.5,-56.5 695.5,-75.5 754.5,-75.5 754.5,-56.5 695.5,-56.5"/>
<text text-anchor="middle" x="725" y="-63.5" font-family="Helvetica,sans-Serif" font-size="10.00">functional</text>
</a>
</g>
</g>
<!-- Node15&#45;&gt;Node17 -->
<g id="edge21" class="edge">
<title>Node15&#45;&gt;Node17</title>
<path fill="none" stroke="midnightblue" d="M750.88,-112.08C746.59,-104.61 740.34,-93.72 735.06,-84.52"/>
<polygon fill="midnightblue" stroke="midnightblue" points="738.04,-82.68 730.02,-75.75 731.97,-86.17 738.04,-82.68"/>
</g>
<!-- Node18 -->
<g id="node18" class="node">
<title>Node18</title>
<g id="a_node18"><a xlink:title=" ">
<polygon fill="none" stroke="#bfbfbf" points="772.5,-56.5 772.5,-75.5 801.5,-75.5 801.5,-56.5 772.5,-56.5"/>
<text text-anchor="middle" x="787" y="-63.5" font-family="Helvetica,sans-Serif" font-size="10.00">list</text>
</a>
</g>
</g>
<!-- Node15&#45;&gt;Node18 -->
<g id="edge22" class="edge">
<title>Node15&#45;&gt;Node18</title>
<path fill="none" stroke="midnightblue" d="M761.12,-112.08C765.41,-104.61 771.66,-93.72 776.94,-84.52"/>
<polygon fill="midnightblue" stroke="midnightblue" points="780.03,-86.17 781.98,-75.75 773.96,-82.68 780.03,-86.17"/>
</g>
<!-- Node19 -->
<g id="node19" class="node">
<title>Node19</title>
<g id="a_node19"><a xlink:title=" ">
<polygon fill="none" stroke="#bfbfbf" points="819.5,-56.5 819.5,-75.5 902.5,-75.5 902.5,-56.5 819.5,-56.5"/>
<text text-anchor="middle" x="861" y="-63.5" font-family="Helvetica,sans-Serif" font-size="10.00">unordered_map</text>
</a>
</g>
</g>
<!-- Node15&#45;&gt;Node19 -->
<g id="edge23" class="edge">
<title>Node15&#45;&gt;Node19</title>
<path fill="none" stroke="midnightblue" d="M772.87,-112.32C789.71,-103.66 815.81,-90.24 835.24,-80.25"/>
<polygon fill="midnightblue" stroke="midnightblue" points="836.88,-83.34 844.17,-75.65 833.68,-77.12 836.88,-83.34"/>
</g>
<!-- Node21 -->
<g id="node21" class="node">
<title>Node21</title>
<g id="a_node21"><a xlink:href="bwColor_8h.html" target="_top" xlink:title=" ">
<polygon fill="none" stroke="black" points="847,-112.5 847,-131.5 907,-131.5 907,-112.5 847,-112.5"/>
<text text-anchor="middle" x="877" y="-119.5" font-family="Helvetica,sans-Serif" font-size="10.00">bwColor.h</text>
</a>
</g>
</g>
<!-- Node20&#45;&gt;Node21 -->
<g id="edge25" class="edge">
<title>Node20&#45;&gt;Node21</title>
<path fill="none" stroke="midnightblue" d="M717.11,-168.44C749.63,-159.2 801.58,-144.44 837.39,-134.26"/>
<polygon fill="midnightblue" stroke="midnightblue" points="838.37,-137.62 847.03,-131.52 836.46,-130.88 838.37,-137.62"/>
</g>
</g>
</svg>
