<?xml version="1.0" encoding="UTF-8" standalone="no"?>
<!DOCTYPE svg PUBLIC "-//W3C//DTD SVG 1.1//EN"
 "http://www.w3.org/Graphics/SVG/1.1/DTD/svg11.dtd">
<!-- Generated by graphviz version 2.50.0 (20211204.2007)
 -->
<!-- Title: bwidgets/widgets/bwRadioButton.cc Pages: 1 -->
<svg width="1068pt" height="375pt"
 viewBox="0.00 0.00 1067.50 375.00" xmlns="http://www.w3.org/2000/svg" xmlns:xlink="http://www.w3.org/1999/xlink">
<g id="graph0" class="graph" transform="scale(1 1) rotate(0) translate(4 371)">
<title>bwidgets/widgets/bwRadioButton.cc</title>
<!-- Node1 -->
<g id="node1" class="node">
<title>Node1</title>
<g id="a_node1"><a xlink:title=" ">
<polygon fill="#bfbfbf" stroke="black" points="525,-336.5 525,-366.5 659,-366.5 659,-336.5 525,-336.5"/>
<text text-anchor="start" x="533" y="-354.5" font-family="Helvetica,sans-Serif" font-size="10.00">bwidgets/widgets/bwRadio</text>
<text text-anchor="middle" x="592" y="-343.5" font-family="Helvetica,sans-Serif" font-size="10.00">Button.cc</text>
</a>
</g>
</g>
<!-- Node2 -->
<g id="node2" class="node">
<title>Node2</title>
<g id="a_node2"><a xlink:href="bwRadioButton_8h.html" target="_top" xlink:title=" ">
<polygon fill="none" stroke="black" points="724,-280.5 724,-299.5 816,-299.5 816,-280.5 724,-280.5"/>
<text text-anchor="middle" x="770" y="-287.5" font-family="Helvetica,sans-Serif" font-size="10.00">bwRadioButton.h</text>
</a>
</g>
</g>
<!-- Node1&#45;&gt;Node2 -->
<g id="edge1" class="edge">
<title>Node1&#45;&gt;Node2</title>
<path fill="none" stroke="midnightblue" d="M634.18,-336.4C664.81,-326.16 705.77,-312.47 734.67,-302.81"/>
<polygon fill="midnightblue" stroke="midnightblue" points="735.98,-306.06 744.36,-299.57 733.77,-299.42 735.98,-306.06"/>
</g>
<!-- Node23 -->
<g id="node23" class="node">
<title>Node23</title>
<g id="a_node23"><a xlink:href="bwEvent_8h.html" target="_top" xlink:title=" ">
<polygon fill="none" stroke="black" points="65.5,-168.5 65.5,-187.5 128.5,-187.5 128.5,-168.5 65.5,-168.5"/>
<text text-anchor="middle" x="97" y="-175.5" font-family="Helvetica,sans-Serif" font-size="10.00">bwEvent.h</text>
</a>
</g>
</g>
<!-- Node1&#45;&gt;Node23 -->
<g id="edge27" class="edge">
<title>Node1&#45;&gt;Node23</title>
<path fill="none" stroke="midnightblue" d="M551.49,-336.47C456.33,-303.5 219.9,-221.58 131.28,-190.88"/>
<polygon fill="midnightblue" stroke="midnightblue" points="132.3,-187.53 121.71,-187.56 130.01,-194.14 132.3,-187.53"/>
</g>
<!-- Node3 -->
<g id="node3" class="node">
<title>Node3</title>
<g id="a_node3"><a xlink:title=" ">
<polygon fill="none" stroke="#bfbfbf" points="763.5,-56.5 763.5,-75.5 804.5,-75.5 804.5,-56.5 763.5,-56.5"/>
<text text-anchor="middle" x="784" y="-63.5" font-family="Helvetica,sans-Serif" font-size="10.00">string</text>
</a>
</g>
</g>
<!-- Node2&#45;&gt;Node3 -->
<g id="edge2" class="edge">
<title>Node2&#45;&gt;Node3</title>
<path fill="none" stroke="midnightblue" d="M770.55,-280.3C772.61,-247.63 779.91,-131.87 782.8,-85.96"/>
<polygon fill="midnightblue" stroke="midnightblue" points="786.3,-86.08 783.44,-75.88 779.32,-85.64 786.3,-86.08"/>
</g>
<!-- Node4 -->
<g id="node4" class="node">
<title>Node4</title>
<g id="a_node4"><a xlink:href="bwAbstractButton_8h.html" target="_top" xlink:title=" ">
<polygon fill="none" stroke="black" points="845.5,-224.5 845.5,-243.5 948.5,-243.5 948.5,-224.5 845.5,-224.5"/>
<text text-anchor="middle" x="897" y="-231.5" font-family="Helvetica,sans-Serif" font-size="10.00">bwAbstractButton.h</text>
</a>
</g>
</g>
<!-- Node2&#45;&gt;Node4 -->
<g id="edge3" class="edge">
<title>Node2&#45;&gt;Node4</title>
<path fill="none" stroke="midnightblue" d="M790.12,-280.44C811.02,-271.56 843.93,-257.56 867.72,-247.45"/>
<polygon fill="midnightblue" stroke="midnightblue" points="869.14,-250.65 876.97,-243.52 866.4,-244.21 869.14,-250.65"/>
</g>
<!-- Node4&#45;&gt;Node3 -->
<g id="edge5" class="edge">
<title>Node4&#45;&gt;Node3</title>
<path fill="none" stroke="midnightblue" d="M903.37,-224.23C909.26,-215.53 917.61,-201.57 921,-188 929.69,-153.22 920.11,-136.56 894,-112 871.88,-91.19 838.82,-79.43 814.72,-73.2"/>
<polygon fill="midnightblue" stroke="midnightblue" points="815.22,-69.72 804.68,-70.78 813.58,-76.52 815.22,-69.72"/>
</g>
<!-- Node5 -->
<g id="node5" class="node">
<title>Node5</title>
<g id="a_node5"><a xlink:title=" ">
<polygon fill="none" stroke="#bfbfbf" points="881,-56.5 881,-75.5 933,-75.5 933,-56.5 881,-56.5"/>
<text text-anchor="middle" x="907" y="-63.5" font-family="Helvetica,sans-Serif" font-size="10.00">memory</text>
</a>
</g>
</g>
<!-- Node4&#45;&gt;Node5 -->
<g id="edge4" class="edge">
<title>Node4&#45;&gt;Node5</title>
<path fill="none" stroke="midnightblue" d="M915.08,-224.39C928.56,-216.87 945.97,-204.57 954,-188 968.73,-157.6 967.26,-143.06 954,-112 948.85,-99.95 938.72,-89.58 929.17,-81.84"/>
<polygon fill="midnightblue" stroke="midnightblue" points="931.17,-78.96 921.08,-75.74 926.96,-84.55 931.17,-78.96"/>
</g>
<!-- Node6 -->
<g id="node6" class="node">
<title>Node6</title>
<g id="a_node6"><a xlink:href="bwUtil_8h.html" target="_top" xlink:title=" ">
<polygon fill="none" stroke="black" points="1006.5,-168.5 1006.5,-187.5 1059.5,-187.5 1059.5,-168.5 1006.5,-168.5"/>
<text text-anchor="middle" x="1033" y="-175.5" font-family="Helvetica,sans-Serif" font-size="10.00">bwUtil.h</text>
</a>
</g>
</g>
<!-- Node4&#45;&gt;Node6 -->
<g id="edge6" class="edge">
<title>Node4&#45;&gt;Node6</title>
<path fill="none" stroke="midnightblue" d="M918.55,-224.44C941.03,-215.52 976.49,-201.44 1001.98,-191.32"/>
<polygon fill="midnightblue" stroke="midnightblue" points="1003.55,-194.46 1011.55,-187.52 1000.97,-187.95 1003.55,-194.46"/>
</g>
<!-- Node7 -->
<g id="node7" class="node">
<title>Node7</title>
<g id="a_node7"><a xlink:href="bwWidget_8h.html" target="_top" xlink:title=" ">
<polygon fill="none" stroke="black" points="429,-168.5 429,-187.5 497,-187.5 497,-168.5 429,-168.5"/>
<text text-anchor="middle" x="463" y="-175.5" font-family="Helvetica,sans-Serif" font-size="10.00">bwWidget.h</text>
</a>
</g>
</g>
<!-- Node4&#45;&gt;Node7 -->
<g id="edge7" class="edge">
<title>Node4&#45;&gt;Node7</title>
<path fill="none" stroke="midnightblue" d="M845.08,-226.54C759.06,-215.84 588.45,-194.61 507.55,-184.54"/>
<polygon fill="midnightblue" stroke="midnightblue" points="507.57,-181.02 497.21,-183.26 506.71,-187.97 507.57,-181.02"/>
</g>
<!-- Node21 -->
<g id="node21" class="node">
<title>Node21</title>
<g id="a_node21"><a xlink:href="bwWidgetBaseStyle_8h.html" target="_top" xlink:title=" ">
<polygon fill="none" stroke="black" points="798.5,-168.5 798.5,-187.5 911.5,-187.5 911.5,-168.5 798.5,-168.5"/>
<text text-anchor="middle" x="855" y="-175.5" font-family="Helvetica,sans-Serif" font-size="10.00">bwWidgetBaseStyle.h</text>
</a>
</g>
</g>
<!-- Node4&#45;&gt;Node21 -->
<g id="edge25" class="edge">
<title>Node4&#45;&gt;Node21</title>
<path fill="none" stroke="midnightblue" d="M890.06,-224.08C884.07,-216.38 875.25,-205.03 867.95,-195.65"/>
<polygon fill="midnightblue" stroke="midnightblue" points="870.71,-193.5 861.81,-187.75 865.18,-197.79 870.71,-193.5"/>
</g>
<!-- Node8 -->
<g id="node8" class="node">
<title>Node8</title>
<g id="a_node8"><a xlink:title=" ">
<polygon fill="none" stroke="#bfbfbf" points="360,-56.5 360,-75.5 410,-75.5 410,-56.5 360,-56.5"/>
<text text-anchor="middle" x="385" y="-63.5" font-family="Helvetica,sans-Serif" font-size="10.00">optional</text>
</a>
</g>
</g>
<!-- Node7&#45;&gt;Node8 -->
<g id="edge8" class="edge">
<title>Node7&#45;&gt;Node8</title>
<path fill="none" stroke="midnightblue" d="M428.94,-174.08C401.47,-169.73 364.48,-158.91 346,-132 334.68,-115.52 350.52,-95.72 365.28,-82.34"/>
<polygon fill="midnightblue" stroke="midnightblue" points="367.83,-84.76 373.18,-75.62 363.3,-79.43 367.83,-84.76"/>
</g>
<!-- Node9 -->
<g id="node9" class="node">
<title>Node9</title>
<g id="a_node9"><a xlink:title=" ">
<polygon fill="none" stroke="#bfbfbf" points="577.5,-112.5 577.5,-131.5 628.5,-131.5 628.5,-112.5 577.5,-112.5"/>
<text text-anchor="middle" x="603" y="-119.5" font-family="Helvetica,sans-Serif" font-size="10.00">typeinfo</text>
</a>
</g>
</g>
<!-- Node7&#45;&gt;Node9 -->
<g id="edge9" class="edge">
<title>Node7&#45;&gt;Node9</title>
<path fill="none" stroke="midnightblue" d="M485.18,-168.44C508.43,-159.48 545.15,-145.31 571.42,-135.18"/>
<polygon fill="midnightblue" stroke="midnightblue" points="572.85,-138.38 580.92,-131.52 570.33,-131.85 572.85,-138.38"/>
</g>
<!-- Node10 -->
<g id="node10" class="node">
<title>Node10</title>
<g id="a_node10"><a xlink:href="bwDistance_8h.html" target="_top" xlink:title=" ">
<polygon fill="none" stroke="black" points="58.5,-112.5 58.5,-131.5 135.5,-131.5 135.5,-112.5 58.5,-112.5"/>
<text text-anchor="middle" x="97" y="-119.5" font-family="Helvetica,sans-Serif" font-size="10.00">bwDistance.h</text>
</a>
</g>
</g>
<!-- Node7&#45;&gt;Node10 -->
<g id="edge10" class="edge">
<title>Node7&#45;&gt;Node10</title>
<path fill="none" stroke="midnightblue" d="M428.92,-172.75C372.26,-165.56 254.84,-150.16 145.88,-132.25"/>
<polygon fill="midnightblue" stroke="midnightblue" points="146.14,-128.75 135.7,-130.57 145,-135.65 146.14,-128.75"/>
</g>
<!-- Node13 -->
<g id="node13" class="node">
<title>Node13</title>
<g id="a_node13"><a xlink:href="bwFunctorInterface_8h.html" target="_top" xlink:title=" ">
<polygon fill="none" stroke="black" points="646.5,-112.5 646.5,-131.5 755.5,-131.5 755.5,-112.5 646.5,-112.5"/>
<text text-anchor="middle" x="701" y="-119.5" font-family="Helvetica,sans-Serif" font-size="10.00">bwFunctorInterface.h</text>
</a>
</g>
</g>
<!-- Node7&#45;&gt;Node13 -->
<g id="edge13" class="edge">
<title>Node7&#45;&gt;Node13</title>
<path fill="none" stroke="midnightblue" d="M497.1,-169.26C538.17,-159.94 607.4,-144.24 653.64,-133.74"/>
<polygon fill="midnightblue" stroke="midnightblue" points="654.45,-137.15 663.43,-131.52 652.9,-130.32 654.45,-137.15"/>
</g>
<!-- Node14 -->
<g id="node14" class="node">
<title>Node14</title>
<g id="a_node14"><a xlink:href="bwRectangle_8h.html" target="_top" xlink:title=" ">
<polygon fill="none" stroke="black" points="477,-112.5 477,-131.5 559,-131.5 559,-112.5 477,-112.5"/>
<text text-anchor="middle" x="518" y="-119.5" font-family="Helvetica,sans-Serif" font-size="10.00">bwRectangle.h</text>
</a>
</g>
</g>
<!-- Node7&#45;&gt;Node14 -->
<g id="edge14" class="edge">
<title>Node7&#45;&gt;Node14</title>
<path fill="none" stroke="midnightblue" d="M472.08,-168.08C480.17,-160.14 492.2,-148.34 501.91,-138.8"/>
<polygon fill="midnightblue" stroke="midnightblue" points="504.4,-141.25 509.09,-131.75 499.5,-136.26 504.4,-141.25"/>
</g>
<!-- Node15 -->
<g id="node15" class="node">
<title>Node15</title>
<g id="a_node15"><a xlink:href="bwStyleProperties_8h.html" target="_top" xlink:title=" ">
<polygon fill="none" stroke="black" points="355,-112.5 355,-131.5 459,-131.5 459,-112.5 355,-112.5"/>
<text text-anchor="middle" x="407" y="-119.5" font-family="Helvetica,sans-Serif" font-size="10.00">bwStyleProperties.h</text>
</a>
</g>
</g>
<!-- Node7&#45;&gt;Node15 -->
<g id="edge15" class="edge">
<title>Node7&#45;&gt;Node15</title>
<path fill="none" stroke="midnightblue" d="M454,-168.32C445.81,-160.42 433.49,-148.55 423.53,-138.94"/>
<polygon fill="midnightblue" stroke="midnightblue" points="425.79,-136.26 416.16,-131.83 420.93,-141.29 425.79,-136.26"/>
</g>
<!-- Node16 -->
<g id="node16" class="node">
<title>Node16</title>
<g id="a_node16"><a xlink:href="EventHandler_8h.html" target="_top" xlink:title=" ">
<polygon fill="none" stroke="black" points="153.5,-112.5 153.5,-131.5 298.5,-131.5 298.5,-112.5 153.5,-112.5"/>
<text text-anchor="middle" x="226" y="-119.5" font-family="Helvetica,sans-Serif" font-size="10.00">screen_graph/EventHandler.h</text>
</a>
</g>
</g>
<!-- Node7&#45;&gt;Node16 -->
<g id="edge20" class="edge">
<title>Node7&#45;&gt;Node16</title>
<path fill="none" stroke="midnightblue" d="M428.79,-169.21C387.91,-159.89 319.29,-144.26 273.34,-133.79"/>
<polygon fill="midnightblue" stroke="midnightblue" points="273.85,-130.31 263.33,-131.5 272.3,-137.14 273.85,-130.31"/>
</g>
<!-- Node11 -->
<g id="node11" class="node">
<title>Node11</title>
<g id="a_node11"><a xlink:href="bwPoint_8h.html" target="_top" xlink:title=" ">
<polygon fill="none" stroke="black" points="0,-56.5 0,-75.5 60,-75.5 60,-56.5 0,-56.5"/>
<text text-anchor="middle" x="30" y="-63.5" font-family="Helvetica,sans-Serif" font-size="10.00">bwPoint.h</text>
</a>
</g>
</g>
<!-- Node10&#45;&gt;Node11 -->
<g id="edge11" class="edge">
<title>Node10&#45;&gt;Node11</title>
<path fill="none" stroke="midnightblue" d="M86.24,-112.32C76.23,-104.26 61.11,-92.08 49.07,-82.37"/>
<polygon fill="midnightblue" stroke="midnightblue" points="50.94,-79.38 40.96,-75.83 46.55,-84.83 50.94,-79.38"/>
</g>
<!-- Node12 -->
<g id="node12" class="node">
<title>Node12</title>
<g id="a_node12"><a xlink:title=" ">
<polygon fill="none" stroke="#bfbfbf" points="212,-0.5 212,-19.5 256,-19.5 256,-0.5 212,-0.5"/>
<text text-anchor="middle" x="234" y="-7.5" font-family="Helvetica,sans-Serif" font-size="10.00">vector</text>
</a>
</g>
</g>
<!-- Node11&#45;&gt;Node12 -->
<g id="edge12" class="edge">
<title>Node11&#45;&gt;Node12</title>
<path fill="none" stroke="midnightblue" d="M60.1,-57.03C98.15,-46.96 163.36,-29.7 202.2,-19.42"/>
<polygon fill="midnightblue" stroke="midnightblue" points="203.17,-22.78 211.94,-16.84 201.38,-16.01 203.17,-22.78"/>
</g>
<!-- Node15&#45;&gt;Node3 -->
<g id="edge18" class="edge">
<title>Node15&#45;&gt;Node3</title>
<path fill="none" stroke="midnightblue" d="M459.24,-113.27C462.2,-112.84 465.14,-112.41 468,-112 572.59,-96.84 696.72,-79.29 753.23,-71.33"/>
<polygon fill="midnightblue" stroke="midnightblue" points="753.88,-74.77 763.29,-69.91 752.9,-67.84 753.88,-74.77"/>
</g>
<!-- Node15&#45;&gt;Node5 -->
<g id="edge16" class="edge">
<title>Node15&#45;&gt;Node5</title>
<path fill="none" stroke="midnightblue" d="M459.22,-113.14C462.19,-112.74 465.13,-112.36 468,-112 545.88,-102.27 780.3,-79.29 870.8,-70.5"/>
<polygon fill="midnightblue" stroke="midnightblue" points="871.24,-73.98 880.86,-69.53 870.57,-67.01 871.24,-73.98"/>
</g>
<!-- Node15&#45;&gt;Node8 -->
<g id="edge17" class="edge">
<title>Node15&#45;&gt;Node8</title>
<path fill="none" stroke="midnightblue" d="M403.37,-112.08C400.39,-104.77 396.07,-94.18 392.38,-85.1"/>
<polygon fill="midnightblue" stroke="midnightblue" points="395.58,-83.69 388.57,-75.75 389.1,-86.33 395.58,-83.69"/>
</g>
<!-- Node15&#45;&gt;Node12 -->
<g id="edge19" class="edge">
<title>Node15&#45;&gt;Node12</title>
<path fill="none" stroke="midnightblue" d="M412.41,-112.41C420.14,-98.92 432.05,-72.6 419,-56 400.34,-32.26 314.11,-19.49 266.24,-14.12"/>
<polygon fill="midnightblue" stroke="midnightblue" points="266.4,-10.61 256.08,-13.02 265.65,-17.57 266.4,-10.61"/>
</g>
<!-- Node17 -->
<g id="node17" class="node">
<title>Node17</title>
<g id="a_node17"><a xlink:title=" ">
<polygon fill="none" stroke="#bfbfbf" points="304,-56.5 304,-75.5 342,-75.5 342,-56.5 304,-56.5"/>
<text text-anchor="middle" x="323" y="-63.5" font-family="Helvetica,sans-Serif" font-size="10.00">array</text>
</a>
</g>
</g>
<!-- Node16&#45;&gt;Node17 -->
<g id="edge21" class="edge">
<title>Node16&#45;&gt;Node17</title>
<path fill="none" stroke="midnightblue" d="M241.58,-112.32C257,-103.74 280.81,-90.49 298.71,-80.52"/>
<polygon fill="midnightblue" stroke="midnightblue" points="300.42,-83.58 307.45,-75.65 297.01,-77.46 300.42,-83.58"/>
</g>
<!-- Node18 -->
<g id="node18" class="node">
<title>Node18</title>
<g id="a_node18"><a xlink:title=" ">
<polygon fill="none" stroke="#bfbfbf" points="78.5,-56.5 78.5,-75.5 137.5,-75.5 137.5,-56.5 78.5,-56.5"/>
<text text-anchor="middle" x="108" y="-63.5" font-family="Helvetica,sans-Serif" font-size="10.00">functional</text>
</a>
</g>
</g>
<!-- Node16&#45;&gt;Node18 -->
<g id="edge22" class="edge">
<title>Node16&#45;&gt;Node18</title>
<path fill="none" stroke="midnightblue" d="M207.3,-112.44C188.06,-103.64 157.85,-89.81 135.8,-79.72"/>
<polygon fill="midnightblue" stroke="midnightblue" points="137.16,-76.5 126.61,-75.52 134.25,-82.86 137.16,-76.5"/>
</g>
<!-- Node19 -->
<g id="node19" class="node">
<title>Node19</title>
<g id="a_node19"><a xlink:title=" ">
<polygon fill="none" stroke="#bfbfbf" points="155.5,-56.5 155.5,-75.5 184.5,-75.5 184.5,-56.5 155.5,-56.5"/>
<text text-anchor="middle" x="170" y="-63.5" font-family="Helvetica,sans-Serif" font-size="10.00">list</text>
</a>
</g>
</g>
<!-- Node16&#45;&gt;Node19 -->
<g id="edge23" class="edge">
<title>Node16&#45;&gt;Node19</title>
<path fill="none" stroke="midnightblue" d="M217,-112.32C208.81,-104.42 196.49,-92.55 186.53,-82.94"/>
<polygon fill="midnightblue" stroke="midnightblue" points="188.79,-80.26 179.16,-75.83 183.93,-85.29 188.79,-80.26"/>
</g>
<!-- Node20 -->
<g id="node20" class="node">
<title>Node20</title>
<g id="a_node20"><a xlink:title=" ">
<polygon fill="none" stroke="#bfbfbf" points="202.5,-56.5 202.5,-75.5 285.5,-75.5 285.5,-56.5 202.5,-56.5"/>
<text text-anchor="middle" x="244" y="-63.5" font-family="Helvetica,sans-Serif" font-size="10.00">unordered_map</text>
</a>
</g>
</g>
<!-- Node16&#45;&gt;Node20 -->
<g id="edge24" class="edge">
<title>Node16&#45;&gt;Node20</title>
<path fill="none" stroke="midnightblue" d="M228.97,-112.08C231.38,-104.85 234.86,-94.41 237.87,-85.4"/>
<polygon fill="midnightblue" stroke="midnightblue" points="241.24,-86.34 241.08,-75.75 234.6,-84.13 241.24,-86.34"/>
</g>
<!-- Node22 -->
<g id="node22" class="node">
<title>Node22</title>
<g id="a_node22"><a xlink:href="bwColor_8h.html" target="_top" xlink:title=" ">
<polygon fill="none" stroke="black" points="825,-112.5 825,-131.5 885,-131.5 885,-112.5 825,-112.5"/>
<text text-anchor="middle" x="855" y="-119.5" font-family="Helvetica,sans-Serif" font-size="10.00">bwColor.h</text>
</a>
</g>
</g>
<!-- Node21&#45;&gt;Node22 -->
<g id="edge26" class="edge">
<title>Node21&#45;&gt;Node22</title>
<path fill="none" stroke="midnightblue" d="M855,-168.08C855,-161.01 855,-150.86 855,-141.99"/>
<polygon fill="midnightblue" stroke="midnightblue" points="858.5,-141.75 855,-131.75 851.5,-141.75 858.5,-141.75"/>
</g>
<!-- Node23&#45;&gt;Node10 -->
<g id="edge28" class="edge">
<title>Node23&#45;&gt;Node10</title>
<path fill="none" stroke="midnightblue" d="M97,-168.08C97,-161.01 97,-150.86 97,-141.99"/>
<polygon fill="midnightblue" stroke="midnightblue" points="100.5,-141.75 97,-131.75 93.5,-141.75 100.5,-141.75"/>
</g>
<!-- Node23&#45;&gt;Node11 -->
<g id="edge29" class="edge">
<title>Node23&#45;&gt;Node11</title>
<path fill="none" stroke="midnightblue" d="M84.6,-168.4C73.71,-160.23 58.21,-146.99 49,-132 40.25,-117.76 35.36,-99.28 32.74,-85.67"/>
<polygon fill="midnightblue" stroke="midnightblue" points="36.15,-84.86 31.04,-75.58 29.25,-86.03 36.15,-84.86"/>
</g>
</g>
</svg>
