<?xml version="1.0" encoding="UTF-8" standalone="no"?>
<!DOCTYPE svg PUBLIC "-//W3C//DTD SVG 1.1//EN"
 "http://www.w3.org/Graphics/SVG/1.1/DTD/svg11.dtd">
<!-- Generated by graphviz version 2.50.0 (20211204.2007)
 -->
<!-- Title: bwidgets/generics/bwRectangle.h Pages: 1 -->
<svg width="3126pt" height="352pt"
 viewBox="0.00 0.00 3126.00 352.00" xmlns="http://www.w3.org/2000/svg" xmlns:xlink="http://www.w3.org/1999/xlink">
<g id="graph0" class="graph" transform="scale(1 1) rotate(0) translate(4 348)">
<title>bwidgets/generics/bwRectangle.h</title>
<!-- Node1 -->
<g id="node1" class="node">
<title>Node1</title>
<g id="a_node1"><a xlink:title=" ">
<polygon fill="#bfbfbf" stroke="black" points="630.5,-324.5 630.5,-343.5 794.5,-343.5 794.5,-324.5 630.5,-324.5"/>
<text text-anchor="middle" x="712.5" y="-331.5" font-family="Helvetica,sans-Serif" font-size="10.00">bwidgets/generics/bwRectangle.h</text>
</a>
</g>
</g>
<!-- Node2 -->
<g id="node2" class="node">
<title>Node2</title>
<g id="a_node2"><a xlink:href="bwLayoutInterface_8h.html" target="_top" xlink:title=" ">
<polygon fill="none" stroke="black" points="361,-268.5 361,-287.5 508,-287.5 508,-268.5 361,-268.5"/>
<text text-anchor="middle" x="434.5" y="-275.5" font-family="Helvetica,sans-Serif" font-size="10.00">bwidgets/bwLayoutInterface.h</text>
</a>
</g>
</g>
<!-- Node1&#45;&gt;Node2 -->
<g id="edge1" class="edge">
<title>Node1&#45;&gt;Node2</title>
<path fill="none" stroke="midnightblue" d="M658.31,-322.47C605.77,-312.27 527.06,-296.98 478.34,-287.52"/>
<polygon fill="midnightblue" stroke="midnightblue" points="657.97,-325.97 668.45,-324.44 659.3,-319.1 657.97,-325.97"/>
</g>
<!-- Node12 -->
<g id="node12" class="node">
<title>Node12</title>
<g id="a_node12"><a xlink:href="bwPaintEngine_8h.html" target="_top" xlink:title=" ">
<polygon fill="none" stroke="black" points="646.5,-140 646.5,-159 778.5,-159 778.5,-140 646.5,-140"/>
<text text-anchor="middle" x="712.5" y="-147" font-family="Helvetica,sans-Serif" font-size="10.00">bwidgets/bwPaintEngine.h</text>
</a>
</g>
</g>
<!-- Node1&#45;&gt;Node12 -->
<g id="edge12" class="edge">
<title>Node1&#45;&gt;Node12</title>
<path fill="none" stroke="midnightblue" d="M712.5,-313.72C712.5,-274.56 712.5,-187.09 712.5,-159.21"/>
<polygon fill="midnightblue" stroke="midnightblue" points="709,-314.2 712.5,-324.2 716,-314.2 709,-314.2"/>
</g>
<!-- Node14 -->
<g id="node14" class="node">
<title>Node14</title>
<g id="a_node14"><a xlink:href="bwGradient_8h.html" target="_top" xlink:title=" ">
<polygon fill="none" stroke="black" points="2279.5,-207 2279.5,-226 2435.5,-226 2435.5,-207 2279.5,-207"/>
<text text-anchor="middle" x="2357.5" y="-214" font-family="Helvetica,sans-Serif" font-size="10.00">bwidgets/generics/bwGradient.h</text>
</a>
</g>
</g>
<!-- Node1&#45;&gt;Node14 -->
<g id="edge15" class="edge">
<title>Node1&#45;&gt;Node14</title>
<path fill="none" stroke="midnightblue" d="M804.82,-326.52C1098.33,-305.91 2006.76,-242.13 2279.37,-222.99"/>
<polygon fill="midnightblue" stroke="midnightblue" points="804.37,-323.04 794.64,-327.23 804.86,-330.02 804.37,-323.04"/>
</g>
<!-- Node28 -->
<g id="node28" class="node">
<title>Node28</title>
<g id="a_node28"><a xlink:href="Drawer_8h.html" target="_top" xlink:title=" ">
<polygon fill="none" stroke="black" points="511,-134.5 511,-164.5 628,-164.5 628,-134.5 511,-134.5"/>
<text text-anchor="start" x="519" y="-152.5" font-family="Helvetica,sans-Serif" font-size="10.00">bwidgets/screen_graph</text>
<text text-anchor="middle" x="569.5" y="-141.5" font-family="Helvetica,sans-Serif" font-size="10.00">/Drawer.h</text>
</a>
</g>
</g>
<!-- Node1&#45;&gt;Node28 -->
<g id="edge32" class="edge">
<title>Node1&#45;&gt;Node28</title>
<path fill="none" stroke="midnightblue" d="M699.34,-316.21C671.42,-280.57 606.65,-197.91 580.62,-164.69"/>
<polygon fill="midnightblue" stroke="midnightblue" points="696.68,-318.48 705.6,-324.2 702.19,-314.17 696.68,-318.48"/>
</g>
<!-- Node29 -->
<g id="node29" class="node">
<title>Node29</title>
<g id="a_node29"><a xlink:href="bwWidget_8h.html" target="_top" xlink:title=" ">
<polygon fill="none" stroke="black" points="962,-268.5 962,-287.5 1109,-287.5 1109,-268.5 962,-268.5"/>
<text text-anchor="middle" x="1035.5" y="-275.5" font-family="Helvetica,sans-Serif" font-size="10.00">bwidgets/widgets/bwWidget.h</text>
</a>
</g>
</g>
<!-- Node1&#45;&gt;Node29 -->
<g id="edge35" class="edge">
<title>Node1&#45;&gt;Node29</title>
<path fill="none" stroke="midnightblue" d="M773.57,-322.79C834.6,-312.59 927.37,-297.08 984.56,-287.52"/>
<polygon fill="midnightblue" stroke="midnightblue" points="772.97,-319.34 763.68,-324.44 774.12,-326.25 772.97,-319.34"/>
</g>
<!-- Node3 -->
<g id="node3" class="node">
<title>Node3</title>
<g id="a_node3"><a xlink:href="Node_8h.html" target="_top" xlink:title=" ">
<polygon fill="none" stroke="black" points="376,-134.5 376,-164.5 493,-164.5 493,-134.5 376,-134.5"/>
<text text-anchor="start" x="384" y="-152.5" font-family="Helvetica,sans-Serif" font-size="10.00">bwidgets/screen_graph</text>
<text text-anchor="middle" x="434.5" y="-141.5" font-family="Helvetica,sans-Serif" font-size="10.00">/Node.h</text>
</a>
</g>
</g>
<!-- Node2&#45;&gt;Node3 -->
<g id="edge2" class="edge">
<title>Node2&#45;&gt;Node3</title>
<path fill="none" stroke="midnightblue" d="M434.5,-258.11C434.5,-232.63 434.5,-187.81 434.5,-164.89"/>
<polygon fill="midnightblue" stroke="midnightblue" points="431,-258.31 434.5,-268.31 438,-258.31 431,-258.31"/>
</g>
<!-- Node4 -->
<g id="node4" class="node">
<title>Node4</title>
<g id="a_node4"><a xlink:href="bwEventDispatcher_8cc.html" target="_top" xlink:title=" ">
<polygon fill="none" stroke="black" points="270,-73 270,-92 427,-92 427,-73 270,-73"/>
<text text-anchor="middle" x="348.5" y="-80" font-family="Helvetica,sans-Serif" font-size="10.00">bwidgets/bwEventDispatcher.cc</text>
</a>
</g>
</g>
<!-- Node3&#45;&gt;Node4 -->
<g id="edge3" class="edge">
<title>Node3&#45;&gt;Node4</title>
<path fill="none" stroke="midnightblue" d="M407.83,-128.34C391.78,-116.21 372.17,-101.39 360,-92.19"/>
<polygon fill="midnightblue" stroke="midnightblue" points="405.75,-131.16 415.84,-134.4 409.97,-125.57 405.75,-131.16"/>
</g>
<!-- Node5 -->
<g id="node5" class="node">
<title>Node5</title>
<g id="a_node5"><a xlink:href="Builder_8h.html" target="_top" xlink:title=" ">
<polygon fill="none" stroke="black" points="0,-67.5 0,-97.5 117,-97.5 117,-67.5 0,-67.5"/>
<text text-anchor="start" x="8" y="-85.5" font-family="Helvetica,sans-Serif" font-size="10.00">bwidgets/screen_graph</text>
<text text-anchor="middle" x="58.5" y="-74.5" font-family="Helvetica,sans-Serif" font-size="10.00">/Builder.h</text>
</a>
</g>
</g>
<!-- Node3&#45;&gt;Node5 -->
<g id="edge4" class="edge">
<title>Node3&#45;&gt;Node5</title>
<path fill="none" stroke="midnightblue" d="M365.96,-134.79C364.46,-134.52 362.97,-134.26 361.5,-134 256.99,-115.66 229.84,-117.23 125.5,-98 122.81,-97.5 120.06,-96.98 117.28,-96.44"/>
<polygon fill="midnightblue" stroke="midnightblue" points="365.5,-138.27 375.97,-136.64 366.77,-131.38 365.5,-138.27"/>
</g>
<!-- Node7 -->
<g id="node7" class="node">
<title>Node7</title>
<g id="a_node7"><a xlink:href="bwScrollView_8cc.html" target="_top" xlink:title=" ">
<polygon fill="none" stroke="black" points="716,-0.5 716,-30.5 849,-30.5 849,-0.5 716,-0.5"/>
<text text-anchor="start" x="724" y="-18.5" font-family="Helvetica,sans-Serif" font-size="10.00">bwidgets/widgets/bwScroll</text>
<text text-anchor="middle" x="782.5" y="-7.5" font-family="Helvetica,sans-Serif" font-size="10.00">View.cc</text>
</a>
</g>
</g>
<!-- Node3&#45;&gt;Node7 -->
<g id="edge11" class="edge">
<title>Node3&#45;&gt;Node7</title>
<path fill="none" stroke="midnightblue" d="M494.77,-131.28C519.42,-122.98 547.69,-111.8 571.5,-98 590.06,-87.24 589.57,-77.1 608.5,-67 641.94,-49.16 682.46,-36.93 715.97,-28.98"/>
<polygon fill="midnightblue" stroke="midnightblue" points="493.58,-127.99 485.17,-134.43 495.76,-134.64 493.58,-127.99"/>
</g>
<!-- Node8 -->
<g id="node8" class="node">
<title>Node8</title>
<g id="a_node8"><a xlink:href="Drawer_8cc.html" target="_top" xlink:title=" ">
<polygon fill="none" stroke="black" points="657,-67.5 657,-97.5 774,-97.5 774,-67.5 657,-67.5"/>
<text text-anchor="start" x="665" y="-85.5" font-family="Helvetica,sans-Serif" font-size="10.00">bwidgets/screen_graph</text>
<text text-anchor="middle" x="715.5" y="-74.5" font-family="Helvetica,sans-Serif" font-size="10.00">/Drawer.cc</text>
</a>
</g>
</g>
<!-- Node3&#45;&gt;Node8 -->
<g id="edge7" class="edge">
<title>Node3&#45;&gt;Node8</title>
<path fill="none" stroke="midnightblue" d="M502.86,-132.69C549.87,-121.81 611.68,-107.52 656.53,-97.14"/>
<polygon fill="midnightblue" stroke="midnightblue" points="502.02,-129.29 493.06,-134.95 503.6,-136.11 502.02,-129.29"/>
</g>
<!-- Node9 -->
<g id="node9" class="node">
<title>Node9</title>
<g id="a_node9"><a xlink:href="EventHandler_8cc.html" target="_top" xlink:title=" ">
<polygon fill="none" stroke="black" points="445,-67.5 445,-97.5 562,-97.5 562,-67.5 445,-67.5"/>
<text text-anchor="start" x="453" y="-85.5" font-family="Helvetica,sans-Serif" font-size="10.00">bwidgets/screen_graph</text>
<text text-anchor="middle" x="503.5" y="-74.5" font-family="Helvetica,sans-Serif" font-size="10.00">/EventHandler.cc</text>
</a>
</g>
</g>
<!-- Node3&#45;&gt;Node9 -->
<g id="edge8" class="edge">
<title>Node3&#45;&gt;Node9</title>
<path fill="none" stroke="midnightblue" d="M456.99,-127.31C467.34,-117.56 479.34,-106.26 488.56,-97.58"/>
<polygon fill="midnightblue" stroke="midnightblue" points="454.35,-124.99 449.47,-134.4 459.15,-130.09 454.35,-124.99"/>
</g>
<!-- Node10 -->
<g id="node10" class="node">
<title>Node10</title>
<g id="a_node10"><a xlink:href="Iterators_8h.html" target="_top" xlink:title=" ">
<polygon fill="none" stroke="black" points="135,-67.5 135,-97.5 252,-97.5 252,-67.5 135,-67.5"/>
<text text-anchor="start" x="143" y="-85.5" font-family="Helvetica,sans-Serif" font-size="10.00">bwidgets/screen_graph</text>
<text text-anchor="middle" x="193.5" y="-74.5" font-family="Helvetica,sans-Serif" font-size="10.00">/Iterators.h</text>
</a>
</g>
</g>
<!-- Node3&#45;&gt;Node10 -->
<g id="edge9" class="edge">
<title>Node3&#45;&gt;Node10</title>
<path fill="none" stroke="midnightblue" d="M372.77,-131.85C333.47,-121.25 283.14,-107.68 245.82,-97.61"/>
<polygon fill="midnightblue" stroke="midnightblue" points="371.94,-135.25 382.5,-134.48 373.76,-128.49 371.94,-135.25"/>
</g>
<!-- Node6 -->
<g id="node6" class="node">
<title>Node6</title>
<g id="a_node6"><a xlink:href="Builder_8cc.html" target="_top" xlink:title=" ">
<polygon fill="none" stroke="black" points="0,-0.5 0,-30.5 117,-30.5 117,-0.5 0,-0.5"/>
<text text-anchor="start" x="8" y="-18.5" font-family="Helvetica,sans-Serif" font-size="10.00">bwidgets/screen_graph</text>
<text text-anchor="middle" x="58.5" y="-7.5" font-family="Helvetica,sans-Serif" font-size="10.00">/Builder.cc</text>
</a>
</g>
</g>
<!-- Node5&#45;&gt;Node6 -->
<g id="edge5" class="edge">
<title>Node5&#45;&gt;Node6</title>
<path fill="none" stroke="midnightblue" d="M58.5,-57.11C58.5,-48.15 58.5,-38.32 58.5,-30.58"/>
<polygon fill="midnightblue" stroke="midnightblue" points="55,-57.4 58.5,-67.4 62,-57.4 55,-57.4"/>
</g>
<!-- Node5&#45;&gt;Node7 -->
<g id="edge6" class="edge">
<title>Node5&#45;&gt;Node7</title>
<path fill="none" stroke="midnightblue" d="M127.38,-66.84C347.76,-35.31 598.75,-23 715.96,-18.61"/>
<polygon fill="midnightblue" stroke="midnightblue" points="126.64,-63.42 117.24,-68.31 127.64,-70.34 126.64,-63.42"/>
</g>
<!-- Node11 -->
<g id="node11" class="node">
<title>Node11</title>
<g id="a_node11"><a xlink:href="Iterators_8cc.html" target="_top" xlink:title=" ">
<polygon fill="none" stroke="black" points="135,-0.5 135,-30.5 252,-30.5 252,-0.5 135,-0.5"/>
<text text-anchor="start" x="143" y="-18.5" font-family="Helvetica,sans-Serif" font-size="10.00">bwidgets/screen_graph</text>
<text text-anchor="middle" x="193.5" y="-7.5" font-family="Helvetica,sans-Serif" font-size="10.00">/Iterators.cc</text>
</a>
</g>
</g>
<!-- Node10&#45;&gt;Node11 -->
<g id="edge10" class="edge">
<title>Node10&#45;&gt;Node11</title>
<path fill="none" stroke="midnightblue" d="M193.5,-57.11C193.5,-48.15 193.5,-38.32 193.5,-30.58"/>
<polygon fill="midnightblue" stroke="midnightblue" points="190,-57.4 193.5,-67.4 197,-57.4 190,-57.4"/>
</g>
<!-- Node12&#45;&gt;Node8 -->
<g id="edge14" class="edge">
<title>Node12&#45;&gt;Node8</title>
<path fill="none" stroke="midnightblue" d="M713.37,-129.74C713.84,-119.49 714.42,-107 714.85,-97.59"/>
<polygon fill="midnightblue" stroke="midnightblue" points="709.87,-129.58 712.9,-139.73 716.86,-129.91 709.87,-129.58"/>
</g>
<!-- Node13 -->
<g id="node13" class="node">
<title>Node13</title>
<g id="a_node13"><a xlink:href="bwPainter_8cc.html" target="_top" xlink:title=" ">
<polygon fill="none" stroke="black" points="792,-73 792,-92 907,-92 907,-73 792,-73"/>
<text text-anchor="middle" x="849.5" y="-80" font-family="Helvetica,sans-Serif" font-size="10.00">bwidgets/bwPainter.cc</text>
</a>
</g>
</g>
<!-- Node12&#45;&gt;Node13 -->
<g id="edge13" class="edge">
<title>Node12&#45;&gt;Node13</title>
<path fill="none" stroke="midnightblue" d="M740.02,-135.44C767.15,-122.57 807.86,-103.26 831.23,-92.17"/>
<polygon fill="midnightblue" stroke="midnightblue" points="738.23,-132.42 730.69,-139.87 741.23,-138.74 738.23,-132.42"/>
</g>
<!-- Node15 -->
<g id="node15" class="node">
<title>Node15</title>
<g id="a_node15"><a xlink:href="bwPainter_8h.html" target="_top" xlink:title=" ">
<polygon fill="none" stroke="black" points="2302.5,-140 2302.5,-159 2412.5,-159 2412.5,-140 2302.5,-140"/>
<text text-anchor="middle" x="2357.5" y="-147" font-family="Helvetica,sans-Serif" font-size="10.00">bwidgets/bwPainter.h</text>
</a>
</g>
</g>
<!-- Node14&#45;&gt;Node15 -->
<g id="edge16" class="edge">
<title>Node14&#45;&gt;Node15</title>
<path fill="none" stroke="midnightblue" d="M2357.5,-196.54C2357.5,-184.17 2357.5,-168.62 2357.5,-159.13"/>
<polygon fill="midnightblue" stroke="midnightblue" points="2354,-196.73 2357.5,-206.73 2361,-196.73 2354,-196.73"/>
</g>
<!-- Node27 -->
<g id="node27" class="node">
<title>Node27</title>
<g id="a_node27"><a xlink:href="bwGradient_8cc.html" target="_top" xlink:title=" ">
<polygon fill="none" stroke="black" points="2957,-140 2957,-159 3118,-159 3118,-140 2957,-140"/>
<text text-anchor="middle" x="3037.5" y="-147" font-family="Helvetica,sans-Serif" font-size="10.00">bwidgets/generics/bwGradient.cc</text>
</a>
</g>
</g>
<!-- Node14&#45;&gt;Node27 -->
<g id="edge31" class="edge">
<title>Node14&#45;&gt;Node27</title>
<path fill="none" stroke="midnightblue" d="M2445.86,-209.68C2560.57,-201.71 2766.87,-185.96 2942.5,-165 2956.58,-163.32 2971.79,-161.16 2985.81,-159.02"/>
<polygon fill="midnightblue" stroke="midnightblue" points="2445.47,-206.2 2435.73,-210.38 2445.95,-213.18 2445.47,-206.2"/>
</g>
<!-- Node15&#45;&gt;Node7 -->
<g id="edge29" class="edge">
<title>Node15&#45;&gt;Node7</title>
<path fill="none" stroke="midnightblue" d="M2350.68,-130.48C2342.21,-110.93 2325.72,-80.67 2300.5,-67 2268.16,-49.46 1137.78,-24.11 849.09,-17.91"/>
<polygon fill="midnightblue" stroke="midnightblue" points="2347.47,-131.88 2354.48,-139.83 2353.96,-129.24 2347.47,-131.88"/>
</g>
<!-- Node15&#45;&gt;Node8 -->
<g id="edge18" class="edge">
<title>Node15&#45;&gt;Node8</title>
<path fill="none" stroke="midnightblue" d="M2315.69,-137.77C2308.34,-136.25 2300.73,-134.9 2293.5,-134 1627.3,-51.43 1450.22,-176.34 783.5,-98 780.5,-97.65 777.44,-97.23 774.36,-96.75"/>
<polygon fill="midnightblue" stroke="midnightblue" points="2314.97,-141.2 2325.49,-139.94 2316.48,-134.36 2314.97,-141.2"/>
</g>
<!-- Node15&#45;&gt;Node13 -->
<g id="edge17" class="edge">
<title>Node15&#45;&gt;Node13</title>
<path fill="none" stroke="midnightblue" d="M2315.69,-137.79C2308.34,-136.27 2300.73,-134.91 2293.5,-134 1703.25,-59.92 1548.41,-146.38 955.5,-98 938.47,-96.61 919.99,-94.35 903.3,-92.02"/>
<polygon fill="midnightblue" stroke="midnightblue" points="2314.97,-141.22 2325.49,-139.96 2316.48,-134.38 2314.97,-141.22"/>
</g>
<!-- Node16 -->
<g id="node16" class="node">
<title>Node16</title>
<g id="a_node16"><a xlink:href="bwStyleCSS_8cc.html" target="_top" xlink:title=" ">
<polygon fill="none" stroke="black" points="2523,-0.5 2523,-30.5 2648,-30.5 2648,-0.5 2523,-0.5"/>
<text text-anchor="start" x="2531" y="-18.5" font-family="Helvetica,sans-Serif" font-size="10.00">bwidgets/styling/bwStyle</text>
<text text-anchor="middle" x="2585.5" y="-7.5" font-family="Helvetica,sans-Serif" font-size="10.00">CSS.cc</text>
</a>
</g>
</g>
<!-- Node15&#45;&gt;Node16 -->
<g id="edge19" class="edge">
<title>Node15&#45;&gt;Node16</title>
<path fill="none" stroke="midnightblue" d="M2422.86,-140.27C2476.41,-132.2 2546.5,-118.17 2566.5,-98 2584.3,-80.05 2586.68,-48.85 2586.38,-30.7"/>
<polygon fill="midnightblue" stroke="midnightblue" points="2422.12,-136.84 2412.73,-141.76 2423.13,-143.77 2422.12,-136.84"/>
</g>
<!-- Node17 -->
<g id="node17" class="node">
<title>Node17</title>
<g id="a_node17"><a xlink:href="bwWidgetBaseStyle_8cc.html" target="_top" xlink:title=" ">
<polygon fill="none" stroke="black" points="2423.5,-67.5 2423.5,-97.5 2557.5,-97.5 2557.5,-67.5 2423.5,-67.5"/>
<text text-anchor="start" x="2431.5" y="-85.5" font-family="Helvetica,sans-Serif" font-size="10.00">bwidgets/styling/bwWidget</text>
<text text-anchor="middle" x="2490.5" y="-74.5" font-family="Helvetica,sans-Serif" font-size="10.00">BaseStyle.cc</text>
</a>
</g>
</g>
<!-- Node15&#45;&gt;Node17 -->
<g id="edge20" class="edge">
<title>Node15&#45;&gt;Node17</title>
<path fill="none" stroke="midnightblue" d="M2384.15,-135.47C2406.64,-124.49 2438.75,-108.79 2461.8,-97.53"/>
<polygon fill="midnightblue" stroke="midnightblue" points="2382.61,-132.33 2375.16,-139.87 2385.68,-138.62 2382.61,-132.33"/>
</g>
<!-- Node18 -->
<g id="node18" class="node">
<title>Node18</title>
<g id="a_node18"><a xlink:href="bwStyleClassic_8cc.html" target="_top" xlink:title=" ">
<polygon fill="none" stroke="black" points="1562.5,-0.5 1562.5,-30.5 1678.5,-30.5 1678.5,-0.5 1562.5,-0.5"/>
<text text-anchor="start" x="1570.5" y="-18.5" font-family="Helvetica,sans-Serif" font-size="10.00">bwidgets/styling/styles</text>
<text text-anchor="middle" x="1620.5" y="-7.5" font-family="Helvetica,sans-Serif" font-size="10.00">/bwStyleClassic.cc</text>
</a>
</g>
</g>
<!-- Node15&#45;&gt;Node18 -->
<g id="edge21" class="edge">
<title>Node15&#45;&gt;Node18</title>
<path fill="none" stroke="midnightblue" d="M2357.7,-129.75C2356.8,-110.72 2352.15,-82 2333.5,-67 2282.98,-26.35 1839.72,-18.42 1678.67,-16.87"/>
<polygon fill="midnightblue" stroke="midnightblue" points="2354.21,-129.96 2357.88,-139.89 2361.2,-129.84 2354.21,-129.96"/>
</g>
<!-- Node19 -->
<g id="node19" class="node">
<title>Node19</title>
<g id="a_node19"><a xlink:href="bwStyleFlatGrey_8cc.html" target="_top" xlink:title=" ">
<polygon fill="none" stroke="black" points="2123.5,-0.5 2123.5,-30.5 2239.5,-30.5 2239.5,-0.5 2123.5,-0.5"/>
<text text-anchor="start" x="2131.5" y="-18.5" font-family="Helvetica,sans-Serif" font-size="10.00">bwidgets/styling/styles</text>
<text text-anchor="middle" x="2181.5" y="-7.5" font-family="Helvetica,sans-Serif" font-size="10.00">/bwStyleFlatGrey.cc</text>
</a>
</g>
</g>
<!-- Node15&#45;&gt;Node19 -->
<g id="edge22" class="edge">
<title>Node15&#45;&gt;Node19</title>
<path fill="none" stroke="midnightblue" d="M2367.63,-130.81C2376.39,-112.92 2385.61,-85.35 2371.5,-67 2355.43,-46.1 2289.55,-32.03 2239.84,-24.16"/>
<polygon fill="midnightblue" stroke="midnightblue" points="2364.43,-129.39 2362.84,-139.86 2370.61,-132.67 2364.43,-129.39"/>
</g>
<!-- Node20 -->
<g id="node20" class="node">
<title>Node20</title>
<g id="a_node20"><a xlink:href="bwAbstractButton_8cc.html" target="_top" xlink:title=" ">
<polygon fill="none" stroke="black" points="2614,-67.5 2614,-97.5 2759,-97.5 2759,-67.5 2614,-67.5"/>
<text text-anchor="start" x="2622" y="-85.5" font-family="Helvetica,sans-Serif" font-size="10.00">bwidgets/widgets/bwAbstract</text>
<text text-anchor="middle" x="2686.5" y="-74.5" font-family="Helvetica,sans-Serif" font-size="10.00">Button.cc</text>
</a>
</g>
</g>
<!-- Node15&#45;&gt;Node20 -->
<g id="edge23" class="edge">
<title>Node15&#45;&gt;Node20</title>
<path fill="none" stroke="midnightblue" d="M2410.85,-137.96C2466.45,-126.98 2553.88,-109.7 2615.34,-97.56"/>
<polygon fill="midnightblue" stroke="midnightblue" points="2409.98,-134.56 2400.85,-139.94 2411.34,-141.43 2409.98,-134.56"/>
</g>
<!-- Node21 -->
<g id="node21" class="node">
<title>Node21</title>
<g id="a_node21"><a xlink:href="bwCheckbox_8cc.html" target="_top" xlink:title=" ">
<polygon fill="none" stroke="black" points="1800.5,-73 1800.5,-92 1966.5,-92 1966.5,-73 1800.5,-73"/>
<text text-anchor="middle" x="1883.5" y="-80" font-family="Helvetica,sans-Serif" font-size="10.00">bwidgets/widgets/bwCheckbox.cc</text>
</a>
</g>
</g>
<!-- Node15&#45;&gt;Node21 -->
<g id="edge24" class="edge">
<title>Node15&#45;&gt;Node21</title>
<path fill="none" stroke="midnightblue" d="M2313.02,-137.76C2306.49,-136.38 2299.84,-135.07 2293.5,-134 2153.7,-110.3 2117.03,-116.93 1976.5,-98 1963.22,-96.21 1948.91,-94.08 1935.58,-92.01"/>
<polygon fill="midnightblue" stroke="midnightblue" points="2312.58,-141.25 2323.09,-139.98 2314.08,-134.41 2312.58,-141.25"/>
</g>
<!-- Node22 -->
<g id="node22" class="node">
<title>Node22</title>
<g id="a_node22"><a xlink:href="bwLabel_8cc.html" target="_top" xlink:title=" ">
<polygon fill="none" stroke="black" points="1985,-73 1985,-92 2130,-92 2130,-73 1985,-73"/>
<text text-anchor="middle" x="2057.5" y="-80" font-family="Helvetica,sans-Serif" font-size="10.00">bwidgets/widgets/bwLabel.cc</text>
</a>
</g>
</g>
<!-- Node15&#45;&gt;Node22 -->
<g id="edge25" class="edge">
<title>Node15&#45;&gt;Node22</title>
<path fill="none" stroke="midnightblue" d="M2310.24,-137.73C2304.6,-136.46 2298.92,-135.19 2293.5,-134 2224.96,-118.9 2145.08,-101.94 2098.04,-92.02"/>
<polygon fill="midnightblue" stroke="midnightblue" points="2309.77,-141.21 2320.29,-139.99 2311.3,-134.38 2309.77,-141.21"/>
</g>
<!-- Node23 -->
<g id="node23" class="node">
<title>Node23</title>
<g id="a_node23"><a xlink:href="bwNumberSlider_8cc.html" target="_top" xlink:title=" ">
<polygon fill="none" stroke="black" points="2148,-67.5 2148,-97.5 2291,-97.5 2291,-67.5 2148,-67.5"/>
<text text-anchor="start" x="2156" y="-85.5" font-family="Helvetica,sans-Serif" font-size="10.00">bwidgets/widgets/bwNumber</text>
<text text-anchor="middle" x="2219.5" y="-74.5" font-family="Helvetica,sans-Serif" font-size="10.00">Slider.cc</text>
</a>
</g>
</g>
<!-- Node15&#45;&gt;Node23 -->
<g id="edge26" class="edge">
<title>Node15&#45;&gt;Node23</title>
<path fill="none" stroke="midnightblue" d="M2329.84,-135.47C2306.51,-124.49 2273.19,-108.79 2249.28,-97.53"/>
<polygon fill="midnightblue" stroke="midnightblue" points="2328.64,-138.77 2339.17,-139.87 2331.62,-132.44 2328.64,-138.77"/>
</g>
<!-- Node24 -->
<g id="node24" class="node">
<title>Node24</title>
<g id="a_node24"><a xlink:href="bwPanel_8cc.html" target="_top" xlink:title=" ">
<polygon fill="none" stroke="black" points="1636.5,-73 1636.5,-92 1782.5,-92 1782.5,-73 1636.5,-73"/>
<text text-anchor="middle" x="1709.5" y="-80" font-family="Helvetica,sans-Serif" font-size="10.00">bwidgets/widgets/bwPanel.cc</text>
</a>
</g>
</g>
<!-- Node15&#45;&gt;Node24 -->
<g id="edge27" class="edge">
<title>Node15&#45;&gt;Node24</title>
<path fill="none" stroke="midnightblue" d="M2314.22,-137.76C2307.32,-136.32 2300.24,-135 2293.5,-134 2072.23,-101.19 2013.49,-125.51 1791.5,-98 1778.87,-96.44 1765.24,-94.23 1752.78,-92.02"/>
<polygon fill="midnightblue" stroke="midnightblue" points="2313.61,-141.21 2324.13,-139.94 2315.11,-134.38 2313.61,-141.21"/>
</g>
<!-- Node25 -->
<g id="node25" class="node">
<title>Node25</title>
<g id="a_node25"><a xlink:href="bwScrollBar_8cc.html" target="_top" xlink:title=" ">
<polygon fill="none" stroke="black" points="1485,-67.5 1485,-97.5 1618,-97.5 1618,-67.5 1485,-67.5"/>
<text text-anchor="start" x="1493" y="-85.5" font-family="Helvetica,sans-Serif" font-size="10.00">bwidgets/widgets/bwScroll</text>
<text text-anchor="middle" x="1551.5" y="-74.5" font-family="Helvetica,sans-Serif" font-size="10.00">Bar.cc</text>
</a>
</g>
</g>
<!-- Node15&#45;&gt;Node25 -->
<g id="edge28" class="edge">
<title>Node15&#45;&gt;Node25</title>
<path fill="none" stroke="midnightblue" d="M2314.7,-137.76C2307.65,-136.29 2300.4,-134.96 2293.5,-134 1999.9,-93.1 1921.76,-133.86 1627.5,-98 1624.43,-97.63 1621.3,-97.2 1618.15,-96.74"/>
<polygon fill="midnightblue" stroke="midnightblue" points="2314.29,-141.25 2324.81,-139.98 2315.79,-134.41 2314.29,-141.25"/>
</g>
<!-- Node26 -->
<g id="node26" class="node">
<title>Node26</title>
<g id="a_node26"><a xlink:href="bwTextBox_8cc.html" target="_top" xlink:title=" ">
<polygon fill="none" stroke="black" points="2777.5,-73 2777.5,-92 2935.5,-92 2935.5,-73 2777.5,-73"/>
<text text-anchor="middle" x="2856.5" y="-80" font-family="Helvetica,sans-Serif" font-size="10.00">bwidgets/widgets/bwTextBox.cc</text>
</a>
</g>
</g>
<!-- Node15&#45;&gt;Node26 -->
<g id="edge30" class="edge">
<title>Node15&#45;&gt;Node26</title>
<path fill="none" stroke="midnightblue" d="M2422.84,-141.31C2504.02,-132.18 2646.69,-115.51 2768.5,-98 2780.91,-96.22 2794.28,-94.11 2806.76,-92.06"/>
<polygon fill="midnightblue" stroke="midnightblue" points="2422.32,-137.85 2412.77,-142.44 2423.1,-144.8 2422.32,-137.85"/>
</g>
<!-- Node28&#45;&gt;Node7 -->
<g id="edge34" class="edge">
<title>Node28&#45;&gt;Node7</title>
<path fill="none" stroke="midnightblue" d="M586.6,-126.01C601.32,-107.96 624.01,-83.07 648.5,-67 673.13,-50.84 703.67,-38.82 729.37,-30.57"/>
<polygon fill="midnightblue" stroke="midnightblue" points="583.53,-124.25 580.04,-134.25 589.01,-128.61 583.53,-124.25"/>
</g>
<!-- Node28&#45;&gt;Node8 -->
<g id="edge33" class="edge">
<title>Node28&#45;&gt;Node8</title>
<path fill="none" stroke="midnightblue" d="M610.45,-130.27C633.7,-119.92 662.37,-107.15 683.88,-97.58"/>
<polygon fill="midnightblue" stroke="midnightblue" points="608.89,-127.13 601.18,-134.4 611.74,-133.53 608.89,-127.13"/>
</g>
<!-- Node29&#45;&gt;Node3 -->
<g id="edge37" class="edge">
<title>Node29&#45;&gt;Node3</title>
<path fill="none" stroke="midnightblue" d="M984.81,-266.4C890.07,-246.58 679.67,-202.5 502.5,-165 499.43,-164.35 496.28,-163.68 493.1,-163.01"/>
<polygon fill="midnightblue" stroke="midnightblue" points="984.2,-269.85 994.7,-268.47 985.63,-263 984.2,-269.85"/>
</g>
<!-- Node29&#45;&gt;Node5 -->
<g id="edge36" class="edge">
<title>Node29&#45;&gt;Node5</title>
<path fill="none" stroke="midnightblue" d="M951.58,-268.78C878,-261.04 768.29,-248.23 673.5,-232 536.28,-208.5 502.84,-197.65 367.5,-165 276.08,-142.95 170.26,-114.37 109.18,-97.57"/>
<polygon fill="midnightblue" stroke="midnightblue" points="951.41,-272.28 961.72,-269.84 952.13,-265.32 951.41,-272.28"/>
</g>
<!-- Node30 -->
<g id="node30" class="node">
<title>Node30</title>
<g id="a_node30"><a xlink:href="bwAbstractButton_8h.html" target="_top" xlink:title=" ">
<polygon fill="none" stroke="black" points="1448,-201.5 1448,-231.5 1593,-231.5 1593,-201.5 1448,-201.5"/>
<text text-anchor="start" x="1456" y="-219.5" font-family="Helvetica,sans-Serif" font-size="10.00">bwidgets/widgets/bwAbstract</text>
<text text-anchor="middle" x="1520.5" y="-208.5" font-family="Helvetica,sans-Serif" font-size="10.00">Button.h</text>
</a>
</g>
</g>
<!-- Node29&#45;&gt;Node30 -->
<g id="edge38" class="edge">
<title>Node29&#45;&gt;Node30</title>
<path fill="none" stroke="midnightblue" d="M1115.13,-267.23C1207.56,-255.89 1358.69,-237.35 1447.97,-226.4"/>
<polygon fill="midnightblue" stroke="midnightblue" points="1114.49,-263.78 1104.99,-268.48 1115.34,-270.73 1114.49,-263.78"/>
</g>
<!-- Node38 -->
<g id="node38" class="node">
<title>Node38</title>
<g id="a_node38"><a xlink:href="bwContainerWidget_8h.html" target="_top" xlink:title=" ">
<polygon fill="none" stroke="black" points="876.5,-201.5 876.5,-231.5 1026.5,-231.5 1026.5,-201.5 876.5,-201.5"/>
<text text-anchor="start" x="884.5" y="-219.5" font-family="Helvetica,sans-Serif" font-size="10.00">bwidgets/widgets/bwContainer</text>
<text text-anchor="middle" x="951.5" y="-208.5" font-family="Helvetica,sans-Serif" font-size="10.00">Widget.h</text>
</a>
</g>
</g>
<!-- Node29&#45;&gt;Node38 -->
<g id="edge57" class="edge">
<title>Node29&#45;&gt;Node38</title>
<path fill="none" stroke="midnightblue" d="M1014.98,-262.47C1001.68,-253.05 984.45,-240.84 971.3,-231.52"/>
<polygon fill="midnightblue" stroke="midnightblue" points="1013.28,-265.55 1023.46,-268.48 1017.33,-259.84 1013.28,-265.55"/>
</g>
<!-- Node42 -->
<g id="node42" class="node">
<title>Node42</title>
<g id="a_node42"><a xlink:href="bwLabel_8h.html" target="_top" xlink:title=" ">
<polygon fill="none" stroke="black" points="1982.5,-140 1982.5,-159 2122.5,-159 2122.5,-140 1982.5,-140"/>
<text text-anchor="middle" x="2052.5" y="-147" font-family="Helvetica,sans-Serif" font-size="10.00">bwidgets/widgets/bwLabel.h</text>
</a>
</g>
</g>
<!-- Node29&#45;&gt;Node42 -->
<g id="edge66" class="edge">
<title>Node29&#45;&gt;Node42</title>
<path fill="none" stroke="midnightblue" d="M1119.26,-272.96C1230.13,-267.02 1431.57,-254.16 1602.5,-232 1768.67,-210.46 1808.65,-195.01 1973.5,-165 1984.06,-163.08 1995.42,-161 2006.14,-159.03"/>
<polygon fill="midnightblue" stroke="midnightblue" points="1118.94,-269.47 1109.14,-273.5 1119.31,-276.46 1118.94,-269.47"/>
</g>
<!-- Node43 -->
<g id="node43" class="node">
<title>Node43</title>
<g id="a_node43"><a xlink:href="bwTextBox_8h.html" target="_top" xlink:title=" ">
<polygon fill="none" stroke="black" points="1901.5,-207 1901.5,-226 2053.5,-226 2053.5,-207 1901.5,-207"/>
<text text-anchor="middle" x="1977.5" y="-214" font-family="Helvetica,sans-Serif" font-size="10.00">bwidgets/widgets/bwTextBox.h</text>
</a>
</g>
</g>
<!-- Node29&#45;&gt;Node43 -->
<g id="edge69" class="edge">
<title>Node29&#45;&gt;Node43</title>
<path fill="none" stroke="midnightblue" d="M1119.04,-274.46C1268.58,-269.46 1591.78,-256.63 1863.5,-232 1880.89,-230.42 1899.71,-228.23 1916.95,-226.03"/>
<polygon fill="midnightblue" stroke="midnightblue" points="1118.89,-270.96 1109.01,-274.79 1119.12,-277.95 1118.89,-270.96"/>
</g>
<!-- Node45 -->
<g id="node45" class="node">
<title>Node45</title>
<g id="a_node45"><a xlink:href="bwWidget_8cc.html" target="_top" xlink:title=" ">
<polygon fill="none" stroke="black" points="1044.5,-207 1044.5,-226 1196.5,-226 1196.5,-207 1044.5,-207"/>
<text text-anchor="middle" x="1120.5" y="-214" font-family="Helvetica,sans-Serif" font-size="10.00">bwidgets/widgets/bwWidget.cc</text>
</a>
</g>
</g>
<!-- Node29&#45;&gt;Node45 -->
<g id="edge75" class="edge">
<title>Node29&#45;&gt;Node45</title>
<path fill="none" stroke="midnightblue" d="M1056.05,-262.61C1072.4,-251.17 1094.72,-235.55 1108.34,-226.01"/>
<polygon fill="midnightblue" stroke="midnightblue" points="1053.86,-259.87 1047.68,-268.48 1057.88,-265.61 1053.86,-259.87"/>
</g>
<!-- Node30&#45;&gt;Node16 -->
<g id="edge39" class="edge">
<title>Node30&#45;&gt;Node16</title>
<path fill="none" stroke="midnightblue" d="M1603.52,-212.22C1806.12,-204.03 2321.86,-182.16 2493.5,-165 2695.14,-144.84 2812.16,-251.46 2944.5,-98 2953.5,-87.57 2953.54,-77.4 2944.5,-67 2906.88,-23.71 2740.87,-16.46 2648.35,-15.88"/>
<polygon fill="midnightblue" stroke="midnightblue" points="1603.09,-208.73 1593.23,-212.63 1603.37,-215.72 1603.09,-208.73"/>
</g>
<!-- Node30&#45;&gt;Node20 -->
<g id="edge40" class="edge">
<title>Node30&#45;&gt;Node20</title>
<path fill="none" stroke="midnightblue" d="M1603.25,-212.01C1810.77,-203.09 2342.35,-179.17 2421.5,-165 2505.6,-149.94 2600.47,-116.58 2650.75,-97.54"/>
<polygon fill="midnightblue" stroke="midnightblue" points="1602.87,-208.52 1593.03,-212.45 1603.17,-215.51 1602.87,-208.52"/>
</g>
<!-- Node31 -->
<g id="node31" class="node">
<title>Node31</title>
<g id="a_node31"><a xlink:href="bwCheckbox_8h.html" target="_top" xlink:title=" ">
<polygon fill="none" stroke="black" points="1803,-140 1803,-159 1964,-159 1964,-140 1803,-140"/>
<text text-anchor="middle" x="1883.5" y="-147" font-family="Helvetica,sans-Serif" font-size="10.00">bwidgets/widgets/bwCheckbox.h</text>
</a>
</g>
</g>
<!-- Node30&#45;&gt;Node31 -->
<g id="edge41" class="edge">
<title>Node30&#45;&gt;Node31</title>
<path fill="none" stroke="midnightblue" d="M1603.03,-200.72C1674.97,-187.84 1776.78,-169.61 1835.89,-159.02"/>
<polygon fill="midnightblue" stroke="midnightblue" points="1602.31,-197.29 1593.09,-202.5 1603.55,-204.19 1602.31,-197.29"/>
</g>
<!-- Node33 -->
<g id="node33" class="node">
<title>Node33</title>
<g id="a_node33"><a xlink:href="bwPushButton_8h.html" target="_top" xlink:title=" ">
<polygon fill="none" stroke="black" points="1116,-140 1116,-159 1283,-159 1283,-140 1116,-140"/>
<text text-anchor="middle" x="1199.5" y="-147" font-family="Helvetica,sans-Serif" font-size="10.00">bwidgets/widgets/bwPushButton.h</text>
</a>
</g>
</g>
<!-- Node30&#45;&gt;Node33 -->
<g id="edge47" class="edge">
<title>Node30&#45;&gt;Node33</title>
<path fill="none" stroke="midnightblue" d="M1441.31,-199.47C1378.17,-186.68 1292.22,-169.27 1241.62,-159.03"/>
<polygon fill="midnightblue" stroke="midnightblue" points="1440.75,-202.92 1451.24,-201.48 1442.14,-196.06 1440.75,-202.92"/>
</g>
<!-- Node35 -->
<g id="node35" class="node">
<title>Node35</title>
<g id="a_node35"><a xlink:href="bwRadioButton_8h.html" target="_top" xlink:title=" ">
<polygon fill="none" stroke="black" points="1301.5,-134.5 1301.5,-164.5 1435.5,-164.5 1435.5,-134.5 1301.5,-134.5"/>
<text text-anchor="start" x="1309.5" y="-152.5" font-family="Helvetica,sans-Serif" font-size="10.00">bwidgets/widgets/bwRadio</text>
<text text-anchor="middle" x="1368.5" y="-141.5" font-family="Helvetica,sans-Serif" font-size="10.00">Button.h</text>
</a>
</g>
</g>
<!-- Node30&#45;&gt;Node35 -->
<g id="edge50" class="edge">
<title>Node30&#45;&gt;Node35</title>
<path fill="none" stroke="midnightblue" d="M1478.19,-197.41C1453.92,-187.03 1423.91,-174.2 1401.42,-164.58"/>
<polygon fill="midnightblue" stroke="midnightblue" points="1476.95,-200.68 1487.52,-201.4 1479.7,-194.25 1476.95,-200.68"/>
</g>
<!-- Node37 -->
<g id="node37" class="node">
<title>Node37</title>
<g id="a_node37"><a xlink:href="bwScrollBar_8h.html" target="_top" xlink:title=" ">
<polygon fill="none" stroke="black" points="1454,-134.5 1454,-164.5 1587,-164.5 1587,-134.5 1454,-134.5"/>
<text text-anchor="start" x="1462" y="-152.5" font-family="Helvetica,sans-Serif" font-size="10.00">bwidgets/widgets/bwScroll</text>
<text text-anchor="middle" x="1520.5" y="-141.5" font-family="Helvetica,sans-Serif" font-size="10.00">Bar.h</text>
</a>
</g>
</g>
<!-- Node30&#45;&gt;Node37 -->
<g id="edge53" class="edge">
<title>Node30&#45;&gt;Node37</title>
<path fill="none" stroke="midnightblue" d="M1520.5,-191.11C1520.5,-182.15 1520.5,-172.32 1520.5,-164.58"/>
<polygon fill="midnightblue" stroke="midnightblue" points="1517,-191.4 1520.5,-201.4 1524,-191.4 1517,-191.4"/>
</g>
<!-- Node31&#45;&gt;Node21 -->
<g id="edge46" class="edge">
<title>Node31&#45;&gt;Node21</title>
<path fill="none" stroke="midnightblue" d="M1883.5,-129.54C1883.5,-117.17 1883.5,-101.62 1883.5,-92.13"/>
<polygon fill="midnightblue" stroke="midnightblue" points="1880,-129.73 1883.5,-139.73 1887,-129.73 1880,-129.73"/>
</g>
<!-- Node32 -->
<g id="node32" class="node">
<title>Node32</title>
<g id="a_node32"><a xlink:href="builtin__widgets_8h.html" target="_top" xlink:title=" ">
<polygon fill="none" stroke="black" points="1346,-67.5 1346,-97.5 1467,-97.5 1467,-67.5 1346,-67.5"/>
<text text-anchor="start" x="1354" y="-85.5" font-family="Helvetica,sans-Serif" font-size="10.00">bwidgets/widgets/builtin</text>
<text text-anchor="middle" x="1406.5" y="-74.5" font-family="Helvetica,sans-Serif" font-size="10.00">_widgets.h</text>
</a>
</g>
</g>
<!-- Node31&#45;&gt;Node32 -->
<g id="edge42" class="edge">
<title>Node31&#45;&gt;Node32</title>
<path fill="none" stroke="midnightblue" d="M1819.87,-138.46C1809.4,-136.9 1798.65,-135.36 1788.5,-134 1650.15,-115.47 1614.31,-120.18 1476.5,-98 1473.44,-97.51 1470.3,-96.97 1467.15,-96.41"/>
<polygon fill="midnightblue" stroke="midnightblue" points="1819.38,-141.93 1829.79,-139.95 1820.42,-135 1819.38,-141.93"/>
</g>
<!-- Node32&#45;&gt;Node16 -->
<g id="edge43" class="edge">
<title>Node32&#45;&gt;Node16</title>
<path fill="none" stroke="midnightblue" d="M1477.24,-67.47C1576.89,-60.48 2303.09,-28.77 2522.76,-19.22"/>
<polygon fill="midnightblue" stroke="midnightblue" points="1476.78,-64 1467.11,-68.33 1477.37,-70.97 1476.78,-64"/>
</g>
<!-- Node32&#45;&gt;Node18 -->
<g id="edge44" class="edge">
<title>Node32&#45;&gt;Node18</title>
<path fill="none" stroke="midnightblue" d="M1462.65,-64.44C1497.34,-53.91 1541.32,-40.55 1574.04,-30.61"/>
<polygon fill="midnightblue" stroke="midnightblue" points="1461.22,-61.22 1452.67,-67.48 1463.26,-67.92 1461.22,-61.22"/>
</g>
<!-- Node32&#45;&gt;Node19 -->
<g id="edge45" class="edge">
<title>Node32&#45;&gt;Node19</title>
<path fill="none" stroke="midnightblue" d="M1477.31,-67.03C1722.85,-33.57 2003.81,-21.82 2123.19,-18.06"/>
<polygon fill="midnightblue" stroke="midnightblue" points="1476.55,-63.6 1467.12,-68.43 1477.5,-70.53 1476.55,-63.6"/>
</g>
<!-- Node33&#45;&gt;Node32 -->
<g id="edge48" class="edge">
<title>Node33&#45;&gt;Node32</title>
<path fill="none" stroke="midnightblue" d="M1236.84,-136.77C1271.94,-125.75 1324.52,-109.24 1361.83,-97.53"/>
<polygon fill="midnightblue" stroke="midnightblue" points="1235.48,-133.53 1226.99,-139.87 1237.58,-140.21 1235.48,-133.53"/>
</g>
<!-- Node34 -->
<g id="node34" class="node">
<title>Node34</title>
<g id="a_node34"><a xlink:href="bwPushButton_8cc.html" target="_top" xlink:title=" ">
<polygon fill="none" stroke="black" points="964,-73 964,-92 1137,-92 1137,-73 964,-73"/>
<text text-anchor="middle" x="1050.5" y="-80" font-family="Helvetica,sans-Serif" font-size="10.00">bwidgets/widgets/bwPushButton.cc</text>
</a>
</g>
</g>
<!-- Node33&#45;&gt;Node34 -->
<g id="edge49" class="edge">
<title>Node33&#45;&gt;Node34</title>
<path fill="none" stroke="midnightblue" d="M1170.34,-135.78C1140.84,-122.91 1096.01,-103.35 1070.37,-92.17"/>
<polygon fill="midnightblue" stroke="midnightblue" points="1169.15,-139.08 1179.71,-139.87 1171.95,-132.66 1169.15,-139.08"/>
</g>
<!-- Node35&#45;&gt;Node32 -->
<g id="edge51" class="edge">
<title>Node35&#45;&gt;Node32</title>
<path fill="none" stroke="midnightblue" d="M1381.9,-125.58C1387.36,-116.24 1393.49,-105.75 1398.27,-97.58"/>
<polygon fill="midnightblue" stroke="midnightblue" points="1378.77,-124 1376.75,-134.4 1384.81,-127.53 1378.77,-124"/>
</g>
<!-- Node36 -->
<g id="node36" class="node">
<title>Node36</title>
<g id="a_node36"><a xlink:href="bwRadioButton_8cc.html" target="_top" xlink:title=" ">
<polygon fill="none" stroke="black" points="1155.5,-67.5 1155.5,-97.5 1289.5,-97.5 1289.5,-67.5 1155.5,-67.5"/>
<text text-anchor="start" x="1163.5" y="-85.5" font-family="Helvetica,sans-Serif" font-size="10.00">bwidgets/widgets/bwRadio</text>
<text text-anchor="middle" x="1222.5" y="-74.5" font-family="Helvetica,sans-Serif" font-size="10.00">Button.cc</text>
</a>
</g>
</g>
<!-- Node35&#45;&gt;Node36 -->
<g id="edge52" class="edge">
<title>Node35&#45;&gt;Node36</title>
<path fill="none" stroke="midnightblue" d="M1327.55,-130.27C1304.3,-119.92 1275.63,-107.15 1254.12,-97.58"/>
<polygon fill="midnightblue" stroke="midnightblue" points="1326.26,-133.53 1336.82,-134.4 1329.11,-127.13 1326.26,-133.53"/>
</g>
<!-- Node37&#45;&gt;Node7 -->
<g id="edge56" class="edge">
<title>Node37&#45;&gt;Node7</title>
<path fill="none" stroke="midnightblue" d="M1449.77,-132.07C1407.13,-121.57 1357.33,-108.08 1337.5,-98 1317.76,-87.96 1319.02,-75.31 1298.5,-67 1218.61,-34.67 969.5,-22.45 849.05,-18.34"/>
<polygon fill="midnightblue" stroke="midnightblue" points="1449.05,-135.5 1459.59,-134.47 1450.71,-128.7 1449.05,-135.5"/>
</g>
<!-- Node37&#45;&gt;Node25 -->
<g id="edge55" class="edge">
<title>Node37&#45;&gt;Node25</title>
<path fill="none" stroke="midnightblue" d="M1531.57,-125.28C1535.99,-116.02 1540.93,-105.66 1544.79,-97.58"/>
<polygon fill="midnightblue" stroke="midnightblue" points="1528.37,-123.86 1527.23,-134.4 1534.69,-126.88 1528.37,-123.86"/>
</g>
<!-- Node37&#45;&gt;Node32 -->
<g id="edge54" class="edge">
<title>Node37&#45;&gt;Node32</title>
<path fill="none" stroke="midnightblue" d="M1486.82,-129.3C1468.98,-119.12 1447.46,-106.85 1431.19,-97.58"/>
<polygon fill="midnightblue" stroke="midnightblue" points="1485.34,-132.48 1495.76,-134.4 1488.81,-126.4 1485.34,-132.48"/>
</g>
<!-- Node38&#45;&gt;Node3 -->
<g id="edge58" class="edge">
<title>Node38&#45;&gt;Node3</title>
<path fill="none" stroke="midnightblue" d="M866.26,-202.66C861.95,-202.08 857.68,-201.52 853.5,-201 697.9,-181.52 657.41,-189.39 502.5,-165 499.4,-164.51 496.23,-163.97 493.03,-163.4"/>
<polygon fill="midnightblue" stroke="midnightblue" points="865.99,-206.15 876.37,-204.03 866.94,-199.21 865.99,-206.15"/>
</g>
<!-- Node39 -->
<g id="node39" class="node">
<title>Node39</title>
<g id="a_node39"><a xlink:href="bwContainerWidget_8cc.html" target="_top" xlink:title=" ">
<polygon fill="none" stroke="black" points="796.5,-134.5 796.5,-164.5 946.5,-164.5 946.5,-134.5 796.5,-134.5"/>
<text text-anchor="start" x="804.5" y="-152.5" font-family="Helvetica,sans-Serif" font-size="10.00">bwidgets/widgets/bwContainer</text>
<text text-anchor="middle" x="871.5" y="-141.5" font-family="Helvetica,sans-Serif" font-size="10.00">Widget.cc</text>
</a>
</g>
</g>
<!-- Node38&#45;&gt;Node39 -->
<g id="edge59" class="edge">
<title>Node38&#45;&gt;Node39</title>
<path fill="none" stroke="midnightblue" d="M926.13,-194.88C913.97,-185.01 899.72,-173.43 888.82,-164.58"/>
<polygon fill="midnightblue" stroke="midnightblue" points="924.17,-197.81 934.14,-201.4 928.59,-192.37 924.17,-197.81"/>
</g>
<!-- Node40 -->
<g id="node40" class="node">
<title>Node40</title>
<g id="a_node40"><a xlink:href="bwPanel_8h.html" target="_top" xlink:title=" ">
<polygon fill="none" stroke="black" points="1605,-140 1605,-159 1746,-159 1746,-140 1605,-140"/>
<text text-anchor="middle" x="1675.5" y="-147" font-family="Helvetica,sans-Serif" font-size="10.00">bwidgets/widgets/bwPanel.h</text>
</a>
</g>
</g>
<!-- Node38&#45;&gt;Node40 -->
<g id="edge60" class="edge">
<title>Node38&#45;&gt;Node40</title>
<path fill="none" stroke="midnightblue" d="M1036.62,-200.96C1285.37,-172.33 1351.8,-195.2 1596.5,-165 1608.82,-163.48 1622.12,-161.26 1634.23,-159.02"/>
<polygon fill="midnightblue" stroke="midnightblue" points="1036.07,-197.5 1026.55,-202.14 1036.89,-204.45 1036.07,-197.5"/>
</g>
<!-- Node41 -->
<g id="node41" class="node">
<title>Node41</title>
<g id="a_node41"><a xlink:href="bwScrollView_8h.html" target="_top" xlink:title=" ">
<polygon fill="none" stroke="black" points="965,-134.5 965,-164.5 1098,-164.5 1098,-134.5 965,-134.5"/>
<text text-anchor="start" x="973" y="-152.5" font-family="Helvetica,sans-Serif" font-size="10.00">bwidgets/widgets/bwScroll</text>
<text text-anchor="middle" x="1031.5" y="-141.5" font-family="Helvetica,sans-Serif" font-size="10.00">View.h</text>
</a>
</g>
</g>
<!-- Node38&#45;&gt;Node41 -->
<g id="edge63" class="edge">
<title>Node38&#45;&gt;Node41</title>
<path fill="none" stroke="midnightblue" d="M976.87,-194.88C989.03,-185.01 1003.28,-173.43 1014.18,-164.58"/>
<polygon fill="midnightblue" stroke="midnightblue" points="974.41,-192.37 968.86,-201.4 978.83,-197.81 974.41,-192.37"/>
</g>
<!-- Node40&#45;&gt;Node24 -->
<g id="edge62" class="edge">
<title>Node40&#45;&gt;Node24</title>
<path fill="none" stroke="midnightblue" d="M1684.83,-130.66C1691.39,-118.13 1699.87,-101.91 1704.99,-92.13"/>
<polygon fill="midnightblue" stroke="midnightblue" points="1681.62,-129.25 1680.09,-139.73 1687.82,-132.5 1681.62,-129.25"/>
</g>
<!-- Node40&#45;&gt;Node32 -->
<g id="edge61" class="edge">
<title>Node40&#45;&gt;Node32</title>
<path fill="none" stroke="midnightblue" d="M1630.17,-137.55C1584.64,-126.55 1514.31,-109.55 1464.68,-97.56"/>
<polygon fill="midnightblue" stroke="midnightblue" points="1629.51,-140.99 1640.06,-139.94 1631.16,-134.18 1629.51,-140.99"/>
</g>
<!-- Node41&#45;&gt;Node7 -->
<g id="edge65" class="edge">
<title>Node41&#45;&gt;Node7</title>
<path fill="none" stroke="midnightblue" d="M1000.48,-128.74C986.54,-119.65 970,-108.55 955.5,-98 937.6,-84.97 935.76,-77.93 916.5,-67 889.47,-51.67 856.89,-39.27 830.62,-30.59"/>
<polygon fill="midnightblue" stroke="midnightblue" points="998.92,-131.9 1009.21,-134.4 1002.72,-126.03 998.92,-131.9"/>
</g>
<!-- Node41&#45;&gt;Node32 -->
<g id="edge64" class="edge">
<title>Node41&#45;&gt;Node32</title>
<path fill="none" stroke="midnightblue" d="M1108.16,-133.9C1196.73,-118.04 1287.46,-102.93 1345.73,-93.38"/>
<polygon fill="midnightblue" stroke="midnightblue" points="1107.44,-130.48 1098.21,-135.69 1108.67,-137.37 1107.44,-130.48"/>
</g>
<!-- Node42&#45;&gt;Node22 -->
<g id="edge68" class="edge">
<title>Node42&#45;&gt;Node22</title>
<path fill="none" stroke="midnightblue" d="M2053.96,-129.54C2054.91,-117.17 2056.11,-101.62 2056.84,-92.13"/>
<polygon fill="midnightblue" stroke="midnightblue" points="2050.45,-129.49 2053.17,-139.73 2057.43,-130.03 2050.45,-129.49"/>
</g>
<!-- Node42&#45;&gt;Node32 -->
<g id="edge67" class="edge">
<title>Node42&#45;&gt;Node32</title>
<path fill="none" stroke="midnightblue" d="M2000.76,-138.17C1991.7,-136.6 1982.34,-135.13 1973.5,-134 1753.81,-105.97 1695.85,-128.53 1476.5,-98 1473.43,-97.57 1470.29,-97.09 1467.12,-96.57"/>
<polygon fill="midnightblue" stroke="midnightblue" points="2000.35,-141.65 2010.81,-139.97 2001.59,-134.76 2000.35,-141.65"/>
</g>
<!-- Node43&#45;&gt;Node26 -->
<g id="edge74" class="edge">
<title>Node43&#45;&gt;Node26</title>
<path fill="none" stroke="midnightblue" d="M2063.95,-210.36C2205.71,-201.58 2481.44,-182.89 2577.5,-165 2674.24,-146.99 2785.48,-109.13 2833,-92.11"/>
<polygon fill="midnightblue" stroke="midnightblue" points="2063.33,-206.89 2053.56,-211 2063.76,-213.88 2063.33,-206.89"/>
</g>
<!-- Node43&#45;&gt;Node32 -->
<g id="edge70" class="edge">
<title>Node43&#45;&gt;Node32</title>
<path fill="none" stroke="midnightblue" d="M1915.73,-204.92C1879.14,-197.1 1832.63,-184.39 1794.5,-165 1774.76,-154.96 1775.89,-142.62 1755.5,-134 1640.34,-85.32 1599.8,-118.7 1476.5,-98 1473.44,-97.49 1470.31,-96.93 1467.15,-96.36"/>
<polygon fill="midnightblue" stroke="midnightblue" points="1915.27,-208.4 1925.77,-207 1916.69,-201.54 1915.27,-208.4"/>
</g>
<!-- Node44 -->
<g id="node44" class="node">
<title>Node44</title>
<g id="a_node44"><a xlink:href="bwNumberSlider_8h.html" target="_top" xlink:title=" ">
<polygon fill="none" stroke="black" points="2141,-134.5 2141,-164.5 2284,-164.5 2284,-134.5 2141,-134.5"/>
<text text-anchor="start" x="2149" y="-152.5" font-family="Helvetica,sans-Serif" font-size="10.00">bwidgets/widgets/bwNumber</text>
<text text-anchor="middle" x="2212.5" y="-141.5" font-family="Helvetica,sans-Serif" font-size="10.00">Slider.h</text>
</a>
</g>
</g>
<!-- Node43&#45;&gt;Node44 -->
<g id="edge71" class="edge">
<title>Node43&#45;&gt;Node44</title>
<path fill="none" stroke="midnightblue" d="M2018.36,-204.2C2058.2,-193.18 2118.88,-176.39 2161.78,-164.53"/>
<polygon fill="midnightblue" stroke="midnightblue" points="2017.41,-200.83 2008.71,-206.87 2019.28,-207.58 2017.41,-200.83"/>
</g>
<!-- Node44&#45;&gt;Node23 -->
<g id="edge73" class="edge">
<title>Node44&#45;&gt;Node23</title>
<path fill="none" stroke="midnightblue" d="M2215.1,-124.4C2216.07,-115.37 2217.14,-105.41 2217.98,-97.58"/>
<polygon fill="midnightblue" stroke="midnightblue" points="2211.61,-124.08 2214.02,-134.4 2218.57,-124.83 2211.61,-124.08"/>
</g>
<!-- Node44&#45;&gt;Node32 -->
<g id="edge72" class="edge">
<title>Node44&#45;&gt;Node32</title>
<path fill="none" stroke="midnightblue" d="M2130.6,-134.01C1840.17,-101.04 1762.36,-135.25 1476.5,-98 1473.42,-97.6 1470.28,-97.14 1467.11,-96.63"/>
<polygon fill="midnightblue" stroke="midnightblue" points="2130.24,-137.49 2140.58,-135.15 2131.05,-130.53 2130.24,-137.49"/>
</g>
</g>
</svg>
