<?xml version="1.0" encoding="UTF-8" standalone="no"?>
<!DOCTYPE svg PUBLIC "-//W3C//DTD SVG 1.1//EN"
 "http://www.w3.org/Graphics/SVG/1.1/DTD/svg11.dtd">
<!-- Generated by graphviz version 2.50.0 (20211204.2007)
 -->
<!-- Title: bwidgets/widgets/bwScrollView.cc Pages: 1 -->
<svg width="1305pt" height="431pt"
 viewBox="0.00 0.00 1305.08 431.00" xmlns="http://www.w3.org/2000/svg" xmlns:xlink="http://www.w3.org/1999/xlink">
<g id="graph0" class="graph" transform="scale(1 1) rotate(0) translate(4 427)">
<title>bwidgets/widgets/bwScrollView.cc</title>
<!-- Node1 -->
<g id="node1" class="node">
<title>Node1</title>
<g id="a_node1"><a xlink:title=" ">
<polygon fill="#bfbfbf" stroke="black" points="318,-392.5 318,-422.5 451,-422.5 451,-392.5 318,-392.5"/>
<text text-anchor="start" x="326" y="-410.5" font-family="Helvetica,sans-Serif" font-size="10.00">bwidgets/widgets/bwScroll</text>
<text text-anchor="middle" x="384.5" y="-399.5" font-family="Helvetica,sans-Serif" font-size="10.00">View.cc</text>
</a>
</g>
</g>
<!-- Node2 -->
<g id="node2" class="node">
<title>Node2</title>
<g id="a_node2"><a xlink:title=" ">
<polygon fill="none" stroke="#bfbfbf" points="241.5,-280.5 241.5,-299.5 285.5,-299.5 285.5,-280.5 241.5,-280.5"/>
<text text-anchor="middle" x="263.5" y="-287.5" font-family="Helvetica,sans-Serif" font-size="10.00">cmath</text>
</a>
</g>
</g>
<!-- Node1&#45;&gt;Node2 -->
<g id="edge1" class="edge">
<title>Node1&#45;&gt;Node2</title>
<path fill="none" stroke="midnightblue" d="M335.86,-392.41C316.47,-384.56 295.49,-372.86 281.5,-356 270.65,-342.92 266.31,-323.77 264.6,-309.64"/>
<polygon fill="midnightblue" stroke="midnightblue" points="268.08,-309.25 263.71,-299.6 261.1,-309.87 268.08,-309.25"/>
</g>
<!-- Node3 -->
<g id="node3" class="node">
<title>Node3</title>
<g id="a_node3"><a xlink:title=" ">
<polygon fill="none" stroke="#bfbfbf" points="136,-336.5 136,-355.5 185,-355.5 185,-336.5 136,-336.5"/>
<text text-anchor="middle" x="160.5" y="-343.5" font-family="Helvetica,sans-Serif" font-size="10.00">cassert</text>
</a>
</g>
</g>
<!-- Node1&#45;&gt;Node3 -->
<g id="edge2" class="edge">
<title>Node1&#45;&gt;Node3</title>
<path fill="none" stroke="midnightblue" d="M331.7,-392.47C289.37,-381.23 231.22,-365.78 194.76,-356.1"/>
<polygon fill="midnightblue" stroke="midnightblue" points="195.64,-352.71 185.08,-353.53 193.85,-359.48 195.64,-352.71"/>
</g>
<!-- Node4 -->
<g id="node4" class="node">
<title>Node4</title>
<g id="a_node4"><a xlink:href="bwEvent_8h.html" target="_top" xlink:title=" ">
<polygon fill="none" stroke="black" points="0,-168.5 0,-187.5 63,-187.5 63,-168.5 0,-168.5"/>
<text text-anchor="middle" x="31.5" y="-175.5" font-family="Helvetica,sans-Serif" font-size="10.00">bwEvent.h</text>
</a>
</g>
</g>
<!-- Node1&#45;&gt;Node4 -->
<g id="edge3" class="edge">
<title>Node1&#45;&gt;Node4</title>
<path fill="none" stroke="midnightblue" d="M317.84,-399.79C251.87,-392.05 156.54,-377.56 126.5,-356 71.29,-316.38 45.09,-234.54 35.72,-197.69"/>
<polygon fill="midnightblue" stroke="midnightblue" points="39.08,-196.71 33.34,-187.8 32.28,-198.34 39.08,-196.71"/>
</g>
<!-- Node8 -->
<g id="node8" class="node">
<title>Node8</title>
<g id="a_node8"><a xlink:href="bwPainter_8h.html" target="_top" xlink:title=" ">
<polygon fill="none" stroke="black" points="952.5,-224.5 952.5,-243.5 1020.5,-243.5 1020.5,-224.5 952.5,-224.5"/>
<text text-anchor="middle" x="986.5" y="-231.5" font-family="Helvetica,sans-Serif" font-size="10.00">bwPainter.h</text>
</a>
</g>
</g>
<!-- Node1&#45;&gt;Node8 -->
<g id="edge8" class="edge">
<title>Node1&#45;&gt;Node8</title>
<path fill="none" stroke="midnightblue" d="M451.11,-405.68C530.18,-402.95 665.11,-392.7 774.5,-356 851.17,-330.28 931.34,-275.67 967.18,-249.53"/>
<polygon fill="midnightblue" stroke="midnightblue" points="969.34,-252.29 975.31,-243.54 965.19,-246.65 969.34,-252.29"/>
</g>
<!-- Node15 -->
<g id="node15" class="node">
<title>Node15</title>
<g id="a_node15"><a xlink:href="bwRange_8h.html" target="_top" xlink:title=" ">
<polygon fill="none" stroke="black" points="290.5,-336.5 290.5,-355.5 356.5,-355.5 356.5,-336.5 290.5,-336.5"/>
<text text-anchor="middle" x="323.5" y="-343.5" font-family="Helvetica,sans-Serif" font-size="10.00">bwRange.h</text>
</a>
</g>
</g>
<!-- Node1&#45;&gt;Node15 -->
<g id="edge16" class="edge">
<title>Node1&#45;&gt;Node15</title>
<path fill="none" stroke="midnightblue" d="M370.04,-392.4C360.91,-383.49 349.08,-371.95 339.64,-362.74"/>
<polygon fill="midnightblue" stroke="midnightblue" points="341.98,-360.13 332.38,-355.66 337.09,-365.15 341.98,-360.13"/>
</g>
<!-- Node16 -->
<g id="node16" class="node">
<title>Node16</title>
<g id="a_node16"><a xlink:href="bwStyle_8h.html" target="_top" xlink:title=" ">
<polygon fill="none" stroke="black" points="433.5,-112.5 433.5,-131.5 493.5,-131.5 493.5,-112.5 433.5,-112.5"/>
<text text-anchor="middle" x="463.5" y="-119.5" font-family="Helvetica,sans-Serif" font-size="10.00">bwStyle.h</text>
</a>
</g>
</g>
<!-- Node1&#45;&gt;Node16 -->
<g id="edge17" class="edge">
<title>Node1&#45;&gt;Node16</title>
<path fill="none" stroke="midnightblue" d="M334.39,-392.4C312.15,-384.35 286.71,-372.51 267.5,-356 221.47,-316.45 199.27,-274.79 232.5,-224 244.05,-206.35 369.18,-158.01 430.3,-135.21"/>
<polygon fill="midnightblue" stroke="midnightblue" points="431.72,-138.41 439.88,-131.65 429.28,-131.85 431.72,-138.41"/>
</g>
<!-- Node18 -->
<g id="node18" class="node">
<title>Node18</title>
<g id="a_node18"><a xlink:href="Builder_8h.html" target="_top" xlink:title=" ">
<polygon fill="none" stroke="black" points="514.5,-336.5 514.5,-355.5 630.5,-355.5 630.5,-336.5 514.5,-336.5"/>
<text text-anchor="middle" x="572.5" y="-343.5" font-family="Helvetica,sans-Serif" font-size="10.00">screen_graph/Builder.h</text>
</a>
</g>
</g>
<!-- Node1&#45;&gt;Node18 -->
<g id="edge20" class="edge">
<title>Node1&#45;&gt;Node18</title>
<path fill="none" stroke="midnightblue" d="M429.05,-392.4C461.54,-382.12 505.04,-368.35 535.59,-358.68"/>
<polygon fill="midnightblue" stroke="midnightblue" points="536.94,-361.93 545.42,-355.57 534.83,-355.25 536.94,-361.93"/>
</g>
<!-- Node20 -->
<g id="node20" class="node">
<title>Node20</title>
<g id="a_node20"><a xlink:href="Node_8h.html" target="_top" xlink:title=" ">
<polygon fill="none" stroke="black" points="420.5,-280.5 420.5,-299.5 468.5,-299.5 468.5,-280.5 420.5,-280.5"/>
<text text-anchor="middle" x="444.5" y="-287.5" font-family="Helvetica,sans-Serif" font-size="10.00">Node.h</text>
</a>
</g>
</g>
<!-- Node1&#45;&gt;Node20 -->
<g id="edge56" class="edge">
<title>Node1&#45;&gt;Node20</title>
<path fill="none" stroke="midnightblue" d="M386.31,-392.25C388.65,-377.46 393.64,-354.01 403.5,-336 409.5,-325.04 418.7,-314.61 426.87,-306.55"/>
<polygon fill="midnightblue" stroke="midnightblue" points="429.36,-309.02 434.24,-299.62 424.56,-303.92 429.36,-309.02"/>
</g>
<!-- Node36 -->
<g id="node36" class="node">
<title>Node36</title>
<g id="a_node36"><a xlink:href="Drawer_8h.html" target="_top" xlink:title=" ">
<polygon fill="none" stroke="black" points="649,-336.5 649,-355.5 766,-355.5 766,-336.5 649,-336.5"/>
<text text-anchor="middle" x="707.5" y="-343.5" font-family="Helvetica,sans-Serif" font-size="10.00">screen_graph/Drawer.h</text>
</a>
</g>
</g>
<!-- Node1&#45;&gt;Node36 -->
<g id="edge53" class="edge">
<title>Node1&#45;&gt;Node36</title>
<path fill="none" stroke="midnightblue" d="M451.03,-394.24C509.97,-383.39 595.08,-367.71 650.83,-357.44"/>
<polygon fill="midnightblue" stroke="midnightblue" points="651.69,-360.84 660.89,-355.59 650.42,-353.96 651.69,-360.84"/>
</g>
<!-- Node38 -->
<g id="node38" class="node">
<title>Node38</title>
<g id="a_node38"><a xlink:href="bwScrollBar_8h.html" target="_top" xlink:title=" ">
<polygon fill="none" stroke="black" points="928,-336.5 928,-355.5 1005,-355.5 1005,-336.5 928,-336.5"/>
<text text-anchor="middle" x="966.5" y="-343.5" font-family="Helvetica,sans-Serif" font-size="10.00">bwScrollBar.h</text>
</a>
</g>
</g>
<!-- Node1&#45;&gt;Node38 -->
<g id="edge57" class="edge">
<title>Node1&#45;&gt;Node38</title>
<path fill="none" stroke="midnightblue" d="M451.26,-399.67C569.62,-387.57 813.53,-362.64 917.65,-351.99"/>
<polygon fill="midnightblue" stroke="midnightblue" points="918.28,-355.45 927.88,-350.95 917.57,-348.48 918.28,-355.45"/>
</g>
<!-- Node41 -->
<g id="node41" class="node">
<title>Node41</title>
<g id="a_node41"><a xlink:href="bwScrollView_8h.html" target="_top" xlink:title=" ">
<polygon fill="none" stroke="black" points="413,-336.5 413,-355.5 496,-355.5 496,-336.5 413,-336.5"/>
<text text-anchor="middle" x="454.5" y="-343.5" font-family="Helvetica,sans-Serif" font-size="10.00">bwScrollView.h</text>
</a>
</g>
</g>
<!-- Node1&#45;&gt;Node41 -->
<g id="edge64" class="edge">
<title>Node1&#45;&gt;Node41</title>
<path fill="none" stroke="midnightblue" d="M401.09,-392.4C411.79,-383.31 425.69,-371.49 436.63,-362.19"/>
<polygon fill="midnightblue" stroke="midnightblue" points="438.96,-364.8 444.31,-355.66 434.43,-359.47 438.96,-364.8"/>
</g>
<!-- Node5 -->
<g id="node5" class="node">
<title>Node5</title>
<g id="a_node5"><a xlink:href="bwDistance_8h.html" target="_top" xlink:title=" ">
<polygon fill="none" stroke="black" points="98,-112.5 98,-131.5 175,-131.5 175,-112.5 98,-112.5"/>
<text text-anchor="middle" x="136.5" y="-119.5" font-family="Helvetica,sans-Serif" font-size="10.00">bwDistance.h</text>
</a>
</g>
</g>
<!-- Node4&#45;&gt;Node5 -->
<g id="edge4" class="edge">
<title>Node4&#45;&gt;Node5</title>
<path fill="none" stroke="midnightblue" d="M48.37,-168.32C65.21,-159.66 91.31,-146.24 110.74,-136.25"/>
<polygon fill="midnightblue" stroke="midnightblue" points="112.38,-139.34 119.67,-131.65 109.18,-133.12 112.38,-139.34"/>
</g>
<!-- Node6 -->
<g id="node6" class="node">
<title>Node6</title>
<g id="a_node6"><a xlink:href="bwPoint_8h.html" target="_top" xlink:title=" ">
<polygon fill="none" stroke="black" points="73.5,-56.5 73.5,-75.5 133.5,-75.5 133.5,-56.5 73.5,-56.5"/>
<text text-anchor="middle" x="103.5" y="-63.5" font-family="Helvetica,sans-Serif" font-size="10.00">bwPoint.h</text>
</a>
</g>
</g>
<!-- Node4&#45;&gt;Node6 -->
<g id="edge7" class="edge">
<title>Node4&#45;&gt;Node6</title>
<path fill="none" stroke="midnightblue" d="M33.32,-168.42C36.37,-155.4 43.4,-130.24 55.5,-112 63.02,-100.66 73.93,-90.13 83.45,-82.11"/>
<polygon fill="midnightblue" stroke="midnightblue" points="85.75,-84.76 91.34,-75.76 81.36,-79.31 85.75,-84.76"/>
</g>
<!-- Node5&#45;&gt;Node6 -->
<g id="edge5" class="edge">
<title>Node5&#45;&gt;Node6</title>
<path fill="none" stroke="midnightblue" d="M131.05,-112.08C126.49,-104.61 119.83,-93.72 114.21,-84.52"/>
<polygon fill="midnightblue" stroke="midnightblue" points="117.05,-82.46 108.85,-75.75 111.08,-86.11 117.05,-82.46"/>
</g>
<!-- Node7 -->
<g id="node7" class="node">
<title>Node7</title>
<g id="a_node7"><a xlink:title=" ">
<polygon fill="none" stroke="#bfbfbf" points="776.5,-0.5 776.5,-19.5 820.5,-19.5 820.5,-0.5 776.5,-0.5"/>
<text text-anchor="middle" x="798.5" y="-7.5" font-family="Helvetica,sans-Serif" font-size="10.00">vector</text>
</a>
</g>
</g>
<!-- Node6&#45;&gt;Node7 -->
<g id="edge6" class="edge">
<title>Node6&#45;&gt;Node7</title>
<path fill="none" stroke="midnightblue" d="M133.86,-61.3C148.8,-59.56 167.08,-57.52 183.5,-56 406.26,-35.33 675.15,-18.42 766.42,-12.9"/>
<polygon fill="midnightblue" stroke="midnightblue" points="766.64,-16.4 776.41,-12.3 766.22,-9.41 766.64,-16.4"/>
</g>
<!-- Node8&#45;&gt;Node7 -->
<g id="edge11" class="edge">
<title>Node8&#45;&gt;Node7</title>
<path fill="none" stroke="midnightblue" d="M1020.57,-226.09C1041.48,-219.91 1066.64,-208.51 1079.5,-188 1092.96,-166.54 1067.62,-124.07 1058.5,-112 1003.22,-38.87 887.53,-18.67 831,-13.1"/>
<polygon fill="midnightblue" stroke="midnightblue" points="831.1,-9.6 820.83,-12.2 830.48,-16.57 831.1,-9.6"/>
</g>
<!-- Node9 -->
<g id="node9" class="node">
<title>Node9</title>
<g id="a_node9"><a xlink:title=" ">
<polygon fill="none" stroke="#bfbfbf" points="1160.5,-56.5 1160.5,-75.5 1212.5,-75.5 1212.5,-56.5 1160.5,-56.5"/>
<text text-anchor="middle" x="1186.5" y="-63.5" font-family="Helvetica,sans-Serif" font-size="10.00">memory</text>
</a>
</g>
</g>
<!-- Node8&#45;&gt;Node9 -->
<g id="edge9" class="edge">
<title>Node8&#45;&gt;Node9</title>
<path fill="none" stroke="midnightblue" d="M1020.55,-226.23C1059.03,-217.99 1118.52,-203.27 1135.5,-188 1165.9,-160.65 1178.74,-112.22 1183.7,-85.68"/>
<polygon fill="midnightblue" stroke="midnightblue" points="1187.16,-86.21 1185.37,-75.77 1180.26,-85.05 1187.16,-86.21"/>
</g>
<!-- Node10 -->
<g id="node10" class="node">
<title>Node10</title>
<g id="a_node10"><a xlink:title=" ">
<polygon fill="none" stroke="#bfbfbf" points="932,-56.5 932,-75.5 973,-75.5 973,-56.5 932,-56.5"/>
<text text-anchor="middle" x="952.5" y="-63.5" font-family="Helvetica,sans-Serif" font-size="10.00">string</text>
</a>
</g>
</g>
<!-- Node8&#45;&gt;Node10 -->
<g id="edge10" class="edge">
<title>Node8&#45;&gt;Node10</title>
<path fill="none" stroke="midnightblue" d="M1015.62,-224.44C1033.14,-217.62 1054.02,-206.14 1064.5,-188 1068.95,-180.3 1066.48,-176.67 1064.5,-168 1058.35,-141.06 1056.67,-131.9 1037.5,-112 1022.25,-96.17 1000.22,-84.72 982.4,-77.33"/>
<polygon fill="midnightblue" stroke="midnightblue" points="983.59,-74.04 973.01,-73.65 981.03,-80.56 983.59,-74.04"/>
</g>
<!-- Node11 -->
<g id="node11" class="node">
<title>Node11</title>
<g id="a_node11"><a xlink:href="bwGradient_8h.html" target="_top" xlink:title=" ">
<polygon fill="none" stroke="black" points="849.5,-168.5 849.5,-187.5 923.5,-187.5 923.5,-168.5 849.5,-168.5"/>
<text text-anchor="middle" x="886.5" y="-175.5" font-family="Helvetica,sans-Serif" font-size="10.00">bwGradient.h</text>
</a>
</g>
</g>
<!-- Node8&#45;&gt;Node11 -->
<g id="edge12" class="edge">
<title>Node8&#45;&gt;Node11</title>
<path fill="none" stroke="midnightblue" d="M970.43,-224.32C954.54,-215.74 929.99,-202.49 911.54,-192.52"/>
<polygon fill="midnightblue" stroke="midnightblue" points="912.99,-189.33 902.53,-187.65 909.66,-195.49 912.99,-189.33"/>
</g>
<!-- Node14 -->
<g id="node14" class="node">
<title>Node14</title>
<g id="a_node14"><a xlink:href="bwIconInterface_8h.html" target="_top" xlink:title=" ">
<polygon fill="none" stroke="black" points="736,-168.5 736,-187.5 831,-187.5 831,-168.5 736,-168.5"/>
<text text-anchor="middle" x="783.5" y="-175.5" font-family="Helvetica,sans-Serif" font-size="10.00">bwIconInterface.h</text>
</a>
</g>
</g>
<!-- Node8&#45;&gt;Node14 -->
<g id="edge15" class="edge">
<title>Node8&#45;&gt;Node14</title>
<path fill="none" stroke="midnightblue" d="M954.33,-224.44C919.44,-215.16 863.61,-200.31 825.33,-190.13"/>
<polygon fill="midnightblue" stroke="midnightblue" points="826.08,-186.7 815.52,-187.52 824.28,-193.47 826.08,-186.7"/>
</g>
<!-- Node12 -->
<g id="node12" class="node">
<title>Node12</title>
<g id="a_node12"><a xlink:href="bwColor_8h.html" target="_top" xlink:title=" ">
<polygon fill="none" stroke="black" points="968.5,-112.5 968.5,-131.5 1028.5,-131.5 1028.5,-112.5 968.5,-112.5"/>
<text text-anchor="middle" x="998.5" y="-119.5" font-family="Helvetica,sans-Serif" font-size="10.00">bwColor.h</text>
</a>
</g>
</g>
<!-- Node11&#45;&gt;Node12 -->
<g id="edge13" class="edge">
<title>Node11&#45;&gt;Node12</title>
<path fill="none" stroke="midnightblue" d="M904.49,-168.32C922.54,-159.62 950.55,-146.12 971.3,-136.11"/>
<polygon fill="midnightblue" stroke="midnightblue" points="973.06,-139.15 980.55,-131.65 970.02,-132.84 973.06,-139.15"/>
</g>
<!-- Node13 -->
<g id="node13" class="node">
<title>Node13</title>
<g id="a_node13"><a xlink:href="bwRectangle_8h.html" target="_top" xlink:title=" ">
<polygon fill="none" stroke="black" points="868.5,-112.5 868.5,-131.5 950.5,-131.5 950.5,-112.5 868.5,-112.5"/>
<text text-anchor="middle" x="909.5" y="-119.5" font-family="Helvetica,sans-Serif" font-size="10.00">bwRectangle.h</text>
</a>
</g>
</g>
<!-- Node11&#45;&gt;Node13 -->
<g id="edge14" class="edge">
<title>Node11&#45;&gt;Node13</title>
<path fill="none" stroke="midnightblue" d="M890.3,-168.08C893.41,-160.77 897.92,-150.18 901.79,-141.1"/>
<polygon fill="midnightblue" stroke="midnightblue" points="905.07,-142.32 905.77,-131.75 898.63,-139.58 905.07,-142.32"/>
</g>
<!-- Node16&#45;&gt;Node10 -->
<g id="edge19" class="edge">
<title>Node16&#45;&gt;Node10</title>
<path fill="none" stroke="midnightblue" d="M493.85,-117.4C508.02,-115.73 525.12,-113.74 540.5,-112 683.02,-95.89 853.39,-77.58 921.83,-70.27"/>
<polygon fill="midnightblue" stroke="midnightblue" points="922.34,-73.73 931.92,-69.19 921.6,-66.77 922.34,-73.73"/>
</g>
<!-- Node17 -->
<g id="node17" class="node">
<title>Node17</title>
<g id="a_node17"><a xlink:title=" ">
<polygon fill="none" stroke="#bfbfbf" points="437.5,-56.5 437.5,-75.5 475.5,-75.5 475.5,-56.5 437.5,-56.5"/>
<text text-anchor="middle" x="456.5" y="-63.5" font-family="Helvetica,sans-Serif" font-size="10.00">array</text>
</a>
</g>
</g>
<!-- Node16&#45;&gt;Node17 -->
<g id="edge18" class="edge">
<title>Node16&#45;&gt;Node17</title>
<path fill="none" stroke="midnightblue" d="M462.34,-112.08C461.42,-104.93 460.08,-94.64 458.92,-85.69"/>
<polygon fill="midnightblue" stroke="midnightblue" points="462.39,-85.22 457.63,-75.75 455.45,-86.12 462.39,-85.22"/>
</g>
<!-- Node19 -->
<g id="node19" class="node">
<title>Node19</title>
<g id="a_node19"><a xlink:title=" ">
<polygon fill="none" stroke="#bfbfbf" points="541.5,-280.5 541.5,-299.5 603.5,-299.5 603.5,-280.5 541.5,-280.5"/>
<text text-anchor="middle" x="572.5" y="-287.5" font-family="Helvetica,sans-Serif" font-size="10.00">type_traits</text>
</a>
</g>
</g>
<!-- Node18&#45;&gt;Node19 -->
<g id="edge21" class="edge">
<title>Node18&#45;&gt;Node19</title>
<path fill="none" stroke="midnightblue" d="M572.5,-336.08C572.5,-329.01 572.5,-318.86 572.5,-309.99"/>
<polygon fill="midnightblue" stroke="midnightblue" points="576,-309.75 572.5,-299.75 569,-309.75 576,-309.75"/>
</g>
<!-- Node18&#45;&gt;Node20 -->
<g id="edge22" class="edge">
<title>Node18&#45;&gt;Node20</title>
<path fill="none" stroke="midnightblue" d="M552.22,-336.44C531.15,-327.56 497.98,-313.56 474.01,-303.45"/>
<polygon fill="midnightblue" stroke="midnightblue" points="475.26,-300.18 464.69,-299.52 472.54,-306.63 475.26,-300.18"/>
</g>
<!-- Node23 -->
<g id="node23" class="node">
<title>Node23</title>
<g id="a_node23"><a xlink:href="bwWidget_8h.html" target="_top" xlink:title=" ">
<polygon fill="none" stroke="black" points="552.5,-168.5 552.5,-187.5 620.5,-187.5 620.5,-168.5 552.5,-168.5"/>
<text text-anchor="middle" x="586.5" y="-175.5" font-family="Helvetica,sans-Serif" font-size="10.00">bwWidget.h</text>
</a>
</g>
</g>
<!-- Node18&#45;&gt;Node23 -->
<g id="edge52" class="edge">
<title>Node18&#45;&gt;Node23</title>
<path fill="none" stroke="midnightblue" d="M582.91,-336.35C601.16,-320.38 638.14,-284.24 650.5,-244 653.11,-235.5 654.6,-231.89 650.5,-224 643.35,-210.23 629.83,-199.78 617.05,-192.44"/>
<polygon fill="midnightblue" stroke="midnightblue" points="618.46,-189.23 607.98,-187.64 615.18,-195.41 618.46,-189.23"/>
</g>
<!-- Node33 -->
<g id="node33" class="node">
<title>Node33</title>
<g id="a_node33"><a xlink:href="ScreenGraph_8h.html" target="_top" xlink:title=" ">
<polygon fill="none" stroke="black" points="303.5,-280.5 303.5,-299.5 385.5,-299.5 385.5,-280.5 303.5,-280.5"/>
<text text-anchor="middle" x="344.5" y="-287.5" font-family="Helvetica,sans-Serif" font-size="10.00">ScreenGraph.h</text>
</a>
</g>
</g>
<!-- Node18&#45;&gt;Node33 -->
<g id="edge46" class="edge">
<title>Node18&#45;&gt;Node33</title>
<path fill="none" stroke="midnightblue" d="M536.37,-336.44C496.85,-327.08 433.4,-312.06 390.39,-301.87"/>
<polygon fill="midnightblue" stroke="midnightblue" points="391,-298.42 380.46,-299.52 389.38,-305.23 391,-298.42"/>
</g>
<!-- Node21 -->
<g id="node21" class="node">
<title>Node21</title>
<g id="a_node21"><a xlink:title=" ">
<polygon fill="none" stroke="#bfbfbf" points="193,-56.5 193,-75.5 222,-75.5 222,-56.5 193,-56.5"/>
<text text-anchor="middle" x="207.5" y="-63.5" font-family="Helvetica,sans-Serif" font-size="10.00">list</text>
</a>
</g>
</g>
<!-- Node20&#45;&gt;Node21 -->
<g id="edge23" class="edge">
<title>Node20&#45;&gt;Node21</title>
<path fill="none" stroke="midnightblue" d="M429.55,-280.36C384.33,-253.95 250.38,-173.55 222.5,-132 213.32,-118.33 209.71,-99.79 208.32,-86.01"/>
<polygon fill="midnightblue" stroke="midnightblue" points="211.79,-85.49 207.59,-75.77 204.81,-85.99 211.79,-85.49"/>
</g>
<!-- Node22 -->
<g id="node22" class="node">
<title>Node22</title>
<g id="a_node22"><a xlink:href="bwContainerWidget_8h.html" target="_top" xlink:title=" ">
<polygon fill="none" stroke="black" points="531.5,-224.5 531.5,-243.5 641.5,-243.5 641.5,-224.5 531.5,-224.5"/>
<text text-anchor="middle" x="586.5" y="-231.5" font-family="Helvetica,sans-Serif" font-size="10.00">bwContainerWidget.h</text>
</a>
</g>
</g>
<!-- Node20&#45;&gt;Node22 -->
<g id="edge24" class="edge">
<title>Node20&#45;&gt;Node22</title>
<path fill="none" stroke="midnightblue" d="M467,-280.44C490.58,-271.48 527.82,-257.31 554.46,-247.18"/>
<polygon fill="midnightblue" stroke="midnightblue" points="556,-250.34 564.1,-243.52 553.51,-243.8 556,-250.34"/>
</g>
<!-- Node20&#45;&gt;Node23 -->
<g id="edge45" class="edge">
<title>Node20&#45;&gt;Node23</title>
<path fill="none" stroke="midnightblue" d="M430.67,-280.38C412.09,-267.74 383.09,-243.54 398.5,-224 416.06,-201.74 492.35,-189.26 542.19,-183.35"/>
<polygon fill="midnightblue" stroke="midnightblue" points="542.85,-186.79 552.39,-182.18 542.06,-179.84 542.85,-186.79"/>
</g>
<!-- Node32 -->
<g id="node32" class="node">
<title>Node32</title>
<g id="a_node32"><a xlink:href="bwLayoutInterface_8h.html" target="_top" xlink:title=" ">
<polygon fill="none" stroke="black" points="408,-224.5 408,-243.5 513,-243.5 513,-224.5 408,-224.5"/>
<text text-anchor="middle" x="460.5" y="-231.5" font-family="Helvetica,sans-Serif" font-size="10.00">bwLayoutInterface.h</text>
</a>
</g>
</g>
<!-- Node20&#45;&gt;Node32 -->
<g id="edge43" class="edge">
<title>Node20&#45;&gt;Node32</title>
<path fill="none" stroke="midnightblue" d="M447.14,-280.08C449.29,-272.85 452.38,-262.41 455.05,-253.4"/>
<polygon fill="midnightblue" stroke="midnightblue" points="458.42,-254.33 457.91,-243.75 451.71,-252.34 458.42,-254.33"/>
</g>
<!-- Node22&#45;&gt;Node23 -->
<g id="edge25" class="edge">
<title>Node22&#45;&gt;Node23</title>
<path fill="none" stroke="midnightblue" d="M586.5,-224.08C586.5,-217.01 586.5,-206.86 586.5,-197.99"/>
<polygon fill="midnightblue" stroke="midnightblue" points="590,-197.75 586.5,-187.75 583,-197.75 590,-197.75"/>
</g>
<!-- Node31 -->
<g id="node31" class="node">
<title>Node31</title>
<g id="a_node31"><a xlink:href="bwWidgetBaseStyle_8h.html" target="_top" xlink:title=" ">
<polygon fill="none" stroke="black" points="942,-168.5 942,-187.5 1055,-187.5 1055,-168.5 942,-168.5"/>
<text text-anchor="middle" x="998.5" y="-175.5" font-family="Helvetica,sans-Serif" font-size="10.00">bwWidgetBaseStyle.h</text>
</a>
</g>
</g>
<!-- Node22&#45;&gt;Node31 -->
<g id="edge41" class="edge">
<title>Node22&#45;&gt;Node31</title>
<path fill="none" stroke="midnightblue" d="M641.64,-225.94C707.87,-217.43 822.61,-202.61 931.77,-188.09"/>
<polygon fill="midnightblue" stroke="midnightblue" points="932.53,-191.52 941.98,-186.73 931.6,-184.58 932.53,-191.52"/>
</g>
<!-- Node23&#45;&gt;Node5 -->
<g id="edge28" class="edge">
<title>Node23&#45;&gt;Node5</title>
<path fill="none" stroke="midnightblue" d="M552.31,-172.9C473.11,-163.39 276.89,-139.85 185.18,-128.84"/>
<polygon fill="midnightblue" stroke="midnightblue" points="185.4,-125.34 175.06,-127.63 184.57,-132.29 185.4,-125.34"/>
</g>
<!-- Node23&#45;&gt;Node13 -->
<g id="edge30" class="edge">
<title>Node23&#45;&gt;Node13</title>
<path fill="none" stroke="midnightblue" d="M620.58,-171.55C670.45,-163.53 766.52,-147.96 858.3,-132.19"/>
<polygon fill="midnightblue" stroke="midnightblue" points="859.05,-135.61 868.31,-130.46 857.86,-128.71 859.05,-135.61"/>
</g>
<!-- Node24 -->
<g id="node24" class="node">
<title>Node24</title>
<g id="a_node24"><a xlink:title=" ">
<polygon fill="none" stroke="#bfbfbf" points="496.5,-56.5 496.5,-75.5 546.5,-75.5 546.5,-56.5 496.5,-56.5"/>
<text text-anchor="middle" x="521.5" y="-63.5" font-family="Helvetica,sans-Serif" font-size="10.00">optional</text>
</a>
</g>
</g>
<!-- Node23&#45;&gt;Node24 -->
<g id="edge26" class="edge">
<title>Node23&#45;&gt;Node24</title>
<path fill="none" stroke="midnightblue" d="M574.63,-168.29C564.2,-160.04 549.35,-146.75 540.5,-132 531.9,-117.67 526.99,-99.2 524.33,-85.62"/>
<polygon fill="midnightblue" stroke="midnightblue" points="527.74,-84.81 522.59,-75.55 520.84,-86 527.74,-84.81"/>
</g>
<!-- Node25 -->
<g id="node25" class="node">
<title>Node25</title>
<g id="a_node25"><a xlink:title=" ">
<polygon fill="none" stroke="#bfbfbf" points="550,-112.5 550,-131.5 601,-131.5 601,-112.5 550,-112.5"/>
<text text-anchor="middle" x="575.5" y="-119.5" font-family="Helvetica,sans-Serif" font-size="10.00">typeinfo</text>
</a>
</g>
</g>
<!-- Node23&#45;&gt;Node25 -->
<g id="edge27" class="edge">
<title>Node23&#45;&gt;Node25</title>
<path fill="none" stroke="midnightblue" d="M584.68,-168.08C583.23,-160.93 581.13,-150.64 579.31,-141.69"/>
<polygon fill="midnightblue" stroke="midnightblue" points="582.71,-140.85 577.28,-131.75 575.85,-142.25 582.71,-140.85"/>
</g>
<!-- Node26 -->
<g id="node26" class="node">
<title>Node26</title>
<g id="a_node26"><a xlink:href="bwFunctorInterface_8h.html" target="_top" xlink:title=" ">
<polygon fill="none" stroke="black" points="619,-112.5 619,-131.5 728,-131.5 728,-112.5 619,-112.5"/>
<text text-anchor="middle" x="673.5" y="-119.5" font-family="Helvetica,sans-Serif" font-size="10.00">bwFunctorInterface.h</text>
</a>
</g>
</g>
<!-- Node23&#45;&gt;Node26 -->
<g id="edge29" class="edge">
<title>Node23&#45;&gt;Node26</title>
<path fill="none" stroke="midnightblue" d="M600.48,-168.32C614.05,-159.9 634.88,-146.97 650.82,-137.07"/>
<polygon fill="midnightblue" stroke="midnightblue" points="652.91,-139.9 659.56,-131.65 649.21,-133.95 652.91,-139.9"/>
</g>
<!-- Node27 -->
<g id="node27" class="node">
<title>Node27</title>
<g id="a_node27"><a xlink:href="bwStyleProperties_8h.html" target="_top" xlink:title=" ">
<polygon fill="none" stroke="black" points="746.5,-112.5 746.5,-131.5 850.5,-131.5 850.5,-112.5 746.5,-112.5"/>
<text text-anchor="middle" x="798.5" y="-119.5" font-family="Helvetica,sans-Serif" font-size="10.00">bwStyleProperties.h</text>
</a>
</g>
</g>
<!-- Node23&#45;&gt;Node27 -->
<g id="edge31" class="edge">
<title>Node23&#45;&gt;Node27</title>
<path fill="none" stroke="midnightblue" d="M620.09,-168.44C656.69,-159.12 715.34,-144.18 755.33,-134"/>
<polygon fill="midnightblue" stroke="midnightblue" points="756.24,-137.38 765.07,-131.52 754.51,-130.59 756.24,-137.38"/>
</g>
<!-- Node28 -->
<g id="node28" class="node">
<title>Node28</title>
<g id="a_node28"><a xlink:href="EventHandler_8h.html" target="_top" xlink:title=" ">
<polygon fill="none" stroke="black" points="232,-112.5 232,-131.5 377,-131.5 377,-112.5 232,-112.5"/>
<text text-anchor="middle" x="304.5" y="-119.5" font-family="Helvetica,sans-Serif" font-size="10.00">screen_graph/EventHandler.h</text>
</a>
</g>
</g>
<!-- Node23&#45;&gt;Node28 -->
<g id="edge36" class="edge">
<title>Node23&#45;&gt;Node28</title>
<path fill="none" stroke="midnightblue" d="M552.48,-170.49C504.53,-161.3 416.53,-144.45 359.29,-133.49"/>
<polygon fill="midnightblue" stroke="midnightblue" points="359.81,-130.03 349.33,-131.58 358.49,-136.9 359.81,-130.03"/>
</g>
<!-- Node27&#45;&gt;Node7 -->
<g id="edge35" class="edge">
<title>Node27&#45;&gt;Node7</title>
<path fill="none" stroke="midnightblue" d="M798.5,-112.37C798.5,-94.62 798.5,-53.67 798.5,-29.6"/>
<polygon fill="midnightblue" stroke="midnightblue" points="802,-29.59 798.5,-19.59 795,-29.59 802,-29.59"/>
</g>
<!-- Node27&#45;&gt;Node9 -->
<g id="edge32" class="edge">
<title>Node27&#45;&gt;Node9</title>
<path fill="none" stroke="midnightblue" d="M850.74,-113.26C853.7,-112.83 856.64,-112.41 859.5,-112 964.93,-96.97 1089.62,-80.05 1150.04,-71.9"/>
<polygon fill="midnightblue" stroke="midnightblue" points="1150.77,-75.33 1160.21,-70.53 1149.83,-68.4 1150.77,-75.33"/>
</g>
<!-- Node27&#45;&gt;Node10 -->
<g id="edge34" class="edge">
<title>Node27&#45;&gt;Node10</title>
<path fill="none" stroke="midnightblue" d="M822.9,-112.44C849.76,-103.03 892.97,-87.87 922.03,-77.68"/>
<polygon fill="midnightblue" stroke="midnightblue" points="923.39,-80.92 931.67,-74.3 921.07,-74.31 923.39,-80.92"/>
</g>
<!-- Node27&#45;&gt;Node24 -->
<g id="edge33" class="edge">
<title>Node27&#45;&gt;Node24</title>
<path fill="none" stroke="midnightblue" d="M754.61,-112.44C699.78,-101.75 607.05,-83.68 556.65,-73.85"/>
<polygon fill="midnightblue" stroke="midnightblue" points="557.06,-70.37 546.57,-71.89 555.72,-77.24 557.06,-70.37"/>
</g>
<!-- Node28&#45;&gt;Node17 -->
<g id="edge37" class="edge">
<title>Node28&#45;&gt;Node17</title>
<path fill="none" stroke="midnightblue" d="M328.58,-112.44C355.54,-102.87 399.19,-87.36 427.87,-77.17"/>
<polygon fill="midnightblue" stroke="midnightblue" points="429.09,-80.45 437.34,-73.81 426.75,-73.86 429.09,-80.45"/>
</g>
<!-- Node28&#45;&gt;Node21 -->
<g id="edge39" class="edge">
<title>Node28&#45;&gt;Node21</title>
<path fill="none" stroke="midnightblue" d="M288.92,-112.32C273.23,-103.59 248.84,-90.01 230.84,-79.99"/>
<polygon fill="midnightblue" stroke="midnightblue" points="232.53,-76.93 222.09,-75.12 229.13,-83.05 232.53,-76.93"/>
</g>
<!-- Node29 -->
<g id="node29" class="node">
<title>Node29</title>
<g id="a_node29"><a xlink:title=" ">
<polygon fill="none" stroke="#bfbfbf" points="253,-56.5 253,-75.5 312,-75.5 312,-56.5 253,-56.5"/>
<text text-anchor="middle" x="282.5" y="-63.5" font-family="Helvetica,sans-Serif" font-size="10.00">functional</text>
</a>
</g>
</g>
<!-- Node28&#45;&gt;Node29 -->
<g id="edge38" class="edge">
<title>Node28&#45;&gt;Node29</title>
<path fill="none" stroke="midnightblue" d="M300.87,-112.08C297.89,-104.77 293.57,-94.18 289.88,-85.1"/>
<polygon fill="midnightblue" stroke="midnightblue" points="293.08,-83.69 286.07,-75.75 286.6,-86.33 293.08,-83.69"/>
</g>
<!-- Node30 -->
<g id="node30" class="node">
<title>Node30</title>
<g id="a_node30"><a xlink:title=" ">
<polygon fill="none" stroke="#bfbfbf" points="330,-56.5 330,-75.5 413,-75.5 413,-56.5 330,-56.5"/>
<text text-anchor="middle" x="371.5" y="-63.5" font-family="Helvetica,sans-Serif" font-size="10.00">unordered_map</text>
</a>
</g>
</g>
<!-- Node28&#45;&gt;Node30 -->
<g id="edge40" class="edge">
<title>Node28&#45;&gt;Node30</title>
<path fill="none" stroke="midnightblue" d="M315.26,-112.32C325.27,-104.26 340.39,-92.08 352.43,-82.37"/>
<polygon fill="midnightblue" stroke="midnightblue" points="354.95,-84.83 360.54,-75.83 350.56,-79.38 354.95,-84.83"/>
</g>
<!-- Node31&#45;&gt;Node12 -->
<g id="edge42" class="edge">
<title>Node31&#45;&gt;Node12</title>
<path fill="none" stroke="midnightblue" d="M998.5,-168.08C998.5,-161.01 998.5,-150.86 998.5,-141.99"/>
<polygon fill="midnightblue" stroke="midnightblue" points="1002,-141.75 998.5,-131.75 995,-141.75 1002,-141.75"/>
</g>
<!-- Node32&#45;&gt;Node13 -->
<g id="edge44" class="edge">
<title>Node32&#45;&gt;Node13</title>
<path fill="none" stroke="midnightblue" d="M494.28,-224.46C528.48,-215.7 582.83,-201.5 629.5,-188 658.13,-179.72 664.66,-175.49 693.5,-168 723.98,-160.08 804.39,-143.78 858.04,-133.12"/>
<polygon fill="midnightblue" stroke="midnightblue" points="858.93,-136.51 868.05,-131.13 857.56,-129.65 858.93,-136.51"/>
</g>
<!-- Node34 -->
<g id="node34" class="node">
<title>Node34</title>
<g id="a_node34"><a xlink:href="bwContext_8h.html" target="_top" xlink:title=" ">
<polygon fill="none" stroke="black" points="241.5,-224.5 241.5,-243.5 313.5,-243.5 313.5,-224.5 241.5,-224.5"/>
<text text-anchor="middle" x="277.5" y="-231.5" font-family="Helvetica,sans-Serif" font-size="10.00">bwContext.h</text>
</a>
</g>
</g>
<!-- Node33&#45;&gt;Node34 -->
<g id="edge47" class="edge">
<title>Node33&#45;&gt;Node34</title>
<path fill="none" stroke="midnightblue" d="M333.74,-280.32C323.73,-272.26 308.61,-260.08 296.57,-250.37"/>
<polygon fill="midnightblue" stroke="midnightblue" points="298.44,-247.38 288.46,-243.83 294.05,-252.83 298.44,-247.38"/>
</g>
<!-- Node35 -->
<g id="node35" class="node">
<title>Node35</title>
<g id="a_node35"><a xlink:href="bwEventDispatcher_8h.html" target="_top" xlink:title=" ">
<polygon fill="none" stroke="black" points="71.5,-224.5 71.5,-243.5 181.5,-243.5 181.5,-224.5 71.5,-224.5"/>
<text text-anchor="middle" x="126.5" y="-231.5" font-family="Helvetica,sans-Serif" font-size="10.00">bwEventDispatcher.h</text>
</a>
</g>
</g>
<!-- Node33&#45;&gt;Node35 -->
<g id="edge48" class="edge">
<title>Node33&#45;&gt;Node35</title>
<path fill="none" stroke="midnightblue" d="M309.96,-280.44C272.25,-271.1 211.76,-256.12 170.64,-245.93"/>
<polygon fill="midnightblue" stroke="midnightblue" points="171.43,-242.52 160.88,-243.52 169.75,-249.32 171.43,-242.52"/>
</g>
<!-- Node35&#45;&gt;Node4 -->
<g id="edge50" class="edge">
<title>Node35&#45;&gt;Node4</title>
<path fill="none" stroke="midnightblue" d="M111.24,-224.32C96.28,-215.82 73.25,-202.73 55.77,-192.8"/>
<polygon fill="midnightblue" stroke="midnightblue" points="57.15,-189.55 46.73,-187.65 53.69,-195.64 57.15,-189.55"/>
</g>
<!-- Node35&#45;&gt;Node6 -->
<g id="edge51" class="edge">
<title>Node35&#45;&gt;Node6</title>
<path fill="none" stroke="midnightblue" d="M122.04,-224.39C113.47,-207.32 95,-167.76 88.5,-132 85.62,-116.15 90.29,-98.34 95.17,-85.38"/>
<polygon fill="midnightblue" stroke="midnightblue" points="98.55,-86.36 99.14,-75.78 92.08,-83.68 98.55,-86.36"/>
</g>
<!-- Node35&#45;&gt;Node24 -->
<g id="edge49" class="edge">
<title>Node35&#45;&gt;Node24</title>
<path fill="none" stroke="midnightblue" d="M148.83,-224.44C207.44,-201.96 362.72,-142.25 385.5,-132 403.26,-124.01 406.99,-120.54 424.5,-112 447.48,-100.78 473.81,-88.61 493.23,-79.76"/>
<polygon fill="midnightblue" stroke="midnightblue" points="494.78,-82.9 502.44,-75.58 491.88,-76.53 494.78,-82.9"/>
</g>
<!-- Node36&#45;&gt;Node13 -->
<g id="edge55" class="edge">
<title>Node36&#45;&gt;Node13</title>
<path fill="none" stroke="midnightblue" d="M705.35,-336.29C698.94,-308.03 682.97,-217.8 726.5,-168 735.28,-157.95 807.18,-142.44 858.19,-132.5"/>
<polygon fill="midnightblue" stroke="midnightblue" points="858.93,-135.93 868.08,-130.59 857.6,-129.05 858.93,-135.93"/>
</g>
<!-- Node37 -->
<g id="node37" class="node">
<title>Node37</title>
<g id="a_node37"><a xlink:title=" ">
<polygon fill="none" stroke="#bfbfbf" points="736,-280.5 736,-299.5 777,-299.5 777,-280.5 736,-280.5"/>
<text text-anchor="middle" x="756.5" y="-287.5" font-family="Helvetica,sans-Serif" font-size="10.00">stack</text>
</a>
</g>
</g>
<!-- Node36&#45;&gt;Node37 -->
<g id="edge54" class="edge">
<title>Node36&#45;&gt;Node37</title>
<path fill="none" stroke="midnightblue" d="M715.59,-336.08C722.66,-328.3 733.09,-316.8 741.65,-307.37"/>
<polygon fill="midnightblue" stroke="midnightblue" points="744.43,-309.51 748.56,-299.75 739.25,-304.8 744.43,-309.51"/>
</g>
<!-- Node39 -->
<g id="node39" class="node">
<title>Node39</title>
<g id="a_node39"><a xlink:href="bwAbstractButton_8h.html" target="_top" xlink:title=" ">
<polygon fill="none" stroke="black" points="1043,-224.5 1043,-243.5 1146,-243.5 1146,-224.5 1043,-224.5"/>
<text text-anchor="middle" x="1094.5" y="-231.5" font-family="Helvetica,sans-Serif" font-size="10.00">bwAbstractButton.h</text>
</a>
</g>
</g>
<!-- Node38&#45;&gt;Node39 -->
<g id="edge58" class="edge">
<title>Node38&#45;&gt;Node39</title>
<path fill="none" stroke="midnightblue" d="M976.54,-336.37C998.23,-317.73 1049.66,-273.53 1076.89,-250.13"/>
<polygon fill="midnightblue" stroke="midnightblue" points="1079.2,-252.76 1084.5,-243.59 1074.64,-247.45 1079.2,-252.76"/>
</g>
<!-- Node39&#45;&gt;Node9 -->
<g id="edge59" class="edge">
<title>Node39&#45;&gt;Node9</title>
<path fill="none" stroke="midnightblue" d="M1146.24,-228.18C1197.57,-222.2 1271.02,-209.99 1288.5,-188 1320.23,-148.07 1252.32,-102.43 1212.58,-80.35"/>
<polygon fill="midnightblue" stroke="midnightblue" points="1214.1,-77.19 1203.64,-75.51 1210.77,-83.35 1214.1,-77.19"/>
</g>
<!-- Node39&#45;&gt;Node10 -->
<g id="edge60" class="edge">
<title>Node39&#45;&gt;Node10</title>
<path fill="none" stroke="midnightblue" d="M1094.48,-224.37C1093.97,-202.52 1089.58,-144.44 1058.5,-112 1038.26,-90.87 1006.52,-79.2 983.04,-73.07"/>
<polygon fill="midnightblue" stroke="midnightblue" points="983.77,-69.64 973.23,-70.7 982.13,-76.45 983.77,-69.64"/>
</g>
<!-- Node39&#45;&gt;Node23 -->
<g id="edge62" class="edge">
<title>Node39&#45;&gt;Node23</title>
<path fill="none" stroke="midnightblue" d="M1042.72,-225.66C1038.25,-225.08 1033.8,-224.52 1029.5,-224 883.87,-206.53 710.77,-190.24 630.91,-182.97"/>
<polygon fill="midnightblue" stroke="midnightblue" points="631,-179.47 620.73,-182.05 630.37,-186.44 631,-179.47"/>
</g>
<!-- Node39&#45;&gt;Node31 -->
<g id="edge63" class="edge">
<title>Node39&#45;&gt;Node31</title>
<path fill="none" stroke="midnightblue" d="M1079.08,-224.32C1063.96,-215.82 1040.68,-202.73 1023.03,-192.8"/>
<polygon fill="midnightblue" stroke="midnightblue" points="1024.32,-189.51 1013.89,-187.65 1020.89,-195.61 1024.32,-189.51"/>
</g>
<!-- Node40 -->
<g id="node40" class="node">
<title>Node40</title>
<g id="a_node40"><a xlink:href="bwUtil_8h.html" target="_top" xlink:title=" ">
<polygon fill="none" stroke="black" points="1226,-168.5 1226,-187.5 1279,-187.5 1279,-168.5 1226,-168.5"/>
<text text-anchor="middle" x="1252.5" y="-175.5" font-family="Helvetica,sans-Serif" font-size="10.00">bwUtil.h</text>
</a>
</g>
</g>
<!-- Node39&#45;&gt;Node40 -->
<g id="edge61" class="edge">
<title>Node39&#45;&gt;Node40</title>
<path fill="none" stroke="midnightblue" d="M1119.54,-224.44C1146.12,-215.36 1188.31,-200.94 1218.02,-190.78"/>
<polygon fill="midnightblue" stroke="midnightblue" points="1219.25,-194.06 1227.58,-187.52 1216.99,-187.44 1219.25,-194.06"/>
</g>
<!-- Node41&#45;&gt;Node2 -->
<g id="edge65" class="edge">
<title>Node41&#45;&gt;Node2</title>
<path fill="none" stroke="midnightblue" d="M423.81,-336.45C393.53,-328 345.69,-314.59 295.28,-300.21"/>
<polygon fill="midnightblue" stroke="midnightblue" points="296.09,-296.8 285.51,-297.41 294.16,-303.53 296.09,-296.8"/>
</g>
<!-- Node41&#45;&gt;Node22 -->
<g id="edge66" class="edge">
<title>Node41&#45;&gt;Node22</title>
<path fill="none" stroke="midnightblue" d="M464.86,-336.37C487.22,-317.73 540.26,-273.53 568.34,-250.13"/>
<polygon fill="midnightblue" stroke="midnightblue" points="570.75,-252.68 576.19,-243.59 566.27,-247.3 570.75,-252.68"/>
</g>
</g>
</svg>
