<?xml version="1.0" encoding="UTF-8" standalone="no"?>
<!DOCTYPE svg PUBLIC "-//W3C//DTD SVG 1.1//EN"
 "http://www.w3.org/Graphics/SVG/1.1/DTD/svg11.dtd">
<!-- Generated by graphviz version 2.50.0 (20211204.2007)
 -->
<!-- Title: bwidgets/styling/styles/bwStyleFlatLight.h Pages: 1 -->
<svg width="268pt" height="106pt"
 viewBox="0.00 0.00 267.50 106.00" xmlns="http://www.w3.org/2000/svg" xmlns:xlink="http://www.w3.org/1999/xlink">
<g id="graph0" class="graph" transform="scale(1 1) rotate(0) translate(4 102)">
<title>bwidgets/styling/styles/bwStyleFlatLight.h</title>
<!-- Node1 -->
<g id="node1" class="node">
<title>Node1</title>
<g id="a_node1"><a xlink:title=" ">
<polygon fill="#bfbfbf" stroke="black" points="73.5,-67.5 73.5,-97.5 189.5,-97.5 189.5,-67.5 73.5,-67.5"/>
<text text-anchor="start" x="81.5" y="-85.5" font-family="Helvetica,sans-Serif" font-size="10.00">bwidgets/styling/styles</text>
<text text-anchor="middle" x="131.5" y="-74.5" font-family="Helvetica,sans-Serif" font-size="10.00">/bwStyleFlatLight.h</text>
</a>
</g>
</g>
<!-- Node2 -->
<g id="node2" class="node">
<title>Node2</title>
<g id="a_node2"><a xlink:href="bwStyleManager_8cc.html" target="_top" xlink:title=" ">
<polygon fill="none" stroke="black" points="0,-0.5 0,-30.5 125,-30.5 125,-0.5 0,-0.5"/>
<text text-anchor="start" x="8" y="-18.5" font-family="Helvetica,sans-Serif" font-size="10.00">bwidgets/styling/bwStyle</text>
<text text-anchor="middle" x="62.5" y="-7.5" font-family="Helvetica,sans-Serif" font-size="10.00">Manager.cc</text>
</a>
</g>
</g>
<!-- Node1&#45;&gt;Node2 -->
<g id="edge1" class="edge">
<title>Node1&#45;&gt;Node2</title>
<path fill="none" stroke="midnightblue" d="M109.01,-60.31C98.66,-50.56 86.66,-39.26 77.44,-30.58"/>
<polygon fill="midnightblue" stroke="midnightblue" points="106.85,-63.09 116.53,-67.4 111.65,-57.99 106.85,-63.09"/>
</g>
<!-- Node3 -->
<g id="node3" class="node">
<title>Node3</title>
<g id="a_node3"><a xlink:href="bwStyleFlatLight_8cc.html" target="_top" xlink:title=" ">
<polygon fill="none" stroke="black" points="143.5,-0.5 143.5,-30.5 259.5,-30.5 259.5,-0.5 143.5,-0.5"/>
<text text-anchor="start" x="151.5" y="-18.5" font-family="Helvetica,sans-Serif" font-size="10.00">bwidgets/styling/styles</text>
<text text-anchor="middle" x="201.5" y="-7.5" font-family="Helvetica,sans-Serif" font-size="10.00">/bwStyleFlatLight.cc</text>
</a>
</g>
</g>
<!-- Node1&#45;&gt;Node3 -->
<g id="edge2" class="edge">
<title>Node1&#45;&gt;Node3</title>
<path fill="none" stroke="midnightblue" d="M154.32,-60.31C164.82,-50.56 176.99,-39.26 186.34,-30.58"/>
<polygon fill="midnightblue" stroke="midnightblue" points="151.64,-58.03 146.69,-67.4 156.4,-63.16 151.64,-58.03"/>
</g>
</g>
</svg>
