<?xml version="1.0" encoding="UTF-8" standalone="no"?>
<!DOCTYPE svg PUBLIC "-//W3C//DTD SVG 1.1//EN"
 "http://www.w3.org/Graphics/SVG/1.1/DTD/svg11.dtd">
<!-- Generated by graphviz version 2.50.0 (20211204.2007)
 -->
<!-- Title: bwidgets/styling/bwStyleManager.h Pages: 1 -->
<svg width="175pt" height="151pt"
 viewBox="0.00 0.00 174.50 151.00" xmlns="http://www.w3.org/2000/svg" xmlns:xlink="http://www.w3.org/1999/xlink">
<g id="graph0" class="graph" transform="scale(1 1) rotate(0) translate(4 147)">
<title>bwidgets/styling/bwStyleManager.h</title>
<!-- Node1 -->
<g id="node1" class="node">
<title>Node1</title>
<g id="a_node1"><a xlink:title=" ">
<polygon fill="#bfbfbf" stroke="black" points="0,-112.5 0,-142.5 125,-142.5 125,-112.5 0,-112.5"/>
<text text-anchor="start" x="8" y="-130.5" font-family="Helvetica,sans-Serif" font-size="10.00">bwidgets/styling/bwStyle</text>
<text text-anchor="middle" x="62.5" y="-119.5" font-family="Helvetica,sans-Serif" font-size="10.00">Manager.h</text>
</a>
</g>
</g>
<!-- Node2 -->
<g id="node2" class="node">
<title>Node2</title>
<g id="a_node2"><a xlink:title=" ">
<polygon fill="none" stroke="#bfbfbf" points="24.5,-0.5 24.5,-19.5 62.5,-19.5 62.5,-0.5 24.5,-0.5"/>
<text text-anchor="middle" x="43.5" y="-7.5" font-family="Helvetica,sans-Serif" font-size="10.00">array</text>
</a>
</g>
</g>
<!-- Node1&#45;&gt;Node2 -->
<g id="edge1" class="edge">
<title>Node1&#45;&gt;Node2</title>
<path fill="none" stroke="midnightblue" d="M49.14,-112.32C41.16,-102.84 31.77,-89.64 27.5,-76 22.57,-60.25 28.04,-41.96 33.88,-28.81"/>
<polygon fill="midnightblue" stroke="midnightblue" points="37.18,-30.02 38.46,-19.51 30.9,-26.94 37.18,-30.02"/>
</g>
<!-- Node3 -->
<g id="node3" class="node">
<title>Node3</title>
<g id="a_node3"><a xlink:title=" ">
<polygon fill="none" stroke="#bfbfbf" points="36.5,-56.5 36.5,-75.5 88.5,-75.5 88.5,-56.5 36.5,-56.5"/>
<text text-anchor="middle" x="62.5" y="-63.5" font-family="Helvetica,sans-Serif" font-size="10.00">memory</text>
</a>
</g>
</g>
<!-- Node1&#45;&gt;Node3 -->
<g id="edge2" class="edge">
<title>Node1&#45;&gt;Node3</title>
<path fill="none" stroke="midnightblue" d="M62.5,-112.4C62.5,-104.47 62.5,-94.46 62.5,-85.86"/>
<polygon fill="midnightblue" stroke="midnightblue" points="66,-85.66 62.5,-75.66 59,-85.66 66,-85.66"/>
</g>
<!-- Node4 -->
<g id="node4" class="node">
<title>Node4</title>
<g id="a_node4"><a xlink:href="bwStyle_8h.html" target="_top" xlink:title=" ">
<polygon fill="none" stroke="black" points="106.5,-56.5 106.5,-75.5 166.5,-75.5 166.5,-56.5 106.5,-56.5"/>
<text text-anchor="middle" x="136.5" y="-63.5" font-family="Helvetica,sans-Serif" font-size="10.00">bwStyle.h</text>
</a>
</g>
</g>
<!-- Node1&#45;&gt;Node4 -->
<g id="edge3" class="edge">
<title>Node1&#45;&gt;Node4</title>
<path fill="none" stroke="midnightblue" d="M80.04,-112.4C91.34,-103.31 106.04,-91.49 117.61,-82.19"/>
<polygon fill="midnightblue" stroke="midnightblue" points="120.13,-84.65 125.73,-75.66 115.75,-79.2 120.13,-84.65"/>
</g>
<!-- Node4&#45;&gt;Node2 -->
<g id="edge4" class="edge">
<title>Node4&#45;&gt;Node2</title>
<path fill="none" stroke="midnightblue" d="M121.56,-56.32C106.91,-47.82 84.37,-34.73 67.26,-24.8"/>
<polygon fill="midnightblue" stroke="midnightblue" points="68.81,-21.65 58.4,-19.65 65.3,-27.7 68.81,-21.65"/>
</g>
<!-- Node5 -->
<g id="node5" class="node">
<title>Node5</title>
<g id="a_node5"><a xlink:title=" ">
<polygon fill="none" stroke="#bfbfbf" points="116,-0.5 116,-19.5 157,-19.5 157,-0.5 116,-0.5"/>
<text text-anchor="middle" x="136.5" y="-7.5" font-family="Helvetica,sans-Serif" font-size="10.00">string</text>
</a>
</g>
</g>
<!-- Node4&#45;&gt;Node5 -->
<g id="edge5" class="edge">
<title>Node4&#45;&gt;Node5</title>
<path fill="none" stroke="midnightblue" d="M136.5,-56.08C136.5,-49.01 136.5,-38.86 136.5,-29.99"/>
<polygon fill="midnightblue" stroke="midnightblue" points="140,-29.75 136.5,-19.75 133,-29.75 140,-29.75"/>
</g>
</g>
</svg>
