<?xml version="1.0" encoding="UTF-8" standalone="no"?>
<!DOCTYPE svg PUBLIC "-//W3C//DTD SVG 1.1//EN"
 "http://www.w3.org/Graphics/SVG/1.1/DTD/svg11.dtd">
<!-- Generated by graphviz version 2.50.0 (20211204.2007)
 -->
<!-- Title: bwidgets/styling/bwStyleCSS.h Pages: 1 -->
<svg width="474pt" height="173pt"
 viewBox="0.00 0.00 473.50 173.00" xmlns="http://www.w3.org/2000/svg" xmlns:xlink="http://www.w3.org/1999/xlink">
<g id="graph0" class="graph" transform="scale(1 1) rotate(0) translate(4 169)">
<title>bwidgets/styling/bwStyleCSS.h</title>
<!-- Node1 -->
<g id="node1" class="node">
<title>Node1</title>
<g id="a_node1"><a xlink:title=" ">
<polygon fill="#bfbfbf" stroke="black" points="139,-134.5 139,-164.5 264,-164.5 264,-134.5 139,-134.5"/>
<text text-anchor="start" x="147" y="-152.5" font-family="Helvetica,sans-Serif" font-size="10.00">bwidgets/styling/bwStyle</text>
<text text-anchor="middle" x="201.5" y="-141.5" font-family="Helvetica,sans-Serif" font-size="10.00">CSS.h</text>
</a>
</g>
</g>
<!-- Node2 -->
<g id="node2" class="node">
<title>Node2</title>
<g id="a_node2"><a xlink:href="bwStyleCSS_8cc.html" target="_top" xlink:title=" ">
<polygon fill="none" stroke="black" points="0,-67.5 0,-97.5 125,-97.5 125,-67.5 0,-67.5"/>
<text text-anchor="start" x="8" y="-85.5" font-family="Helvetica,sans-Serif" font-size="10.00">bwidgets/styling/bwStyle</text>
<text text-anchor="middle" x="62.5" y="-74.5" font-family="Helvetica,sans-Serif" font-size="10.00">CSS.cc</text>
</a>
</g>
</g>
<!-- Node1&#45;&gt;Node2 -->
<g id="edge1" class="edge">
<title>Node1&#45;&gt;Node2</title>
<path fill="none" stroke="midnightblue" d="M162.22,-130.13C140.13,-119.8 112.99,-107.11 92.6,-97.58"/>
<polygon fill="midnightblue" stroke="midnightblue" points="160.8,-133.33 171.34,-134.4 163.76,-126.99 160.8,-133.33"/>
</g>
<!-- Node3 -->
<g id="node3" class="node">
<title>Node3</title>
<g id="a_node3"><a xlink:href="bwStyleFlatDark_8h.html" target="_top" xlink:title=" ">
<polygon fill="none" stroke="black" points="143.5,-67.5 143.5,-97.5 259.5,-97.5 259.5,-67.5 143.5,-67.5"/>
<text text-anchor="start" x="151.5" y="-85.5" font-family="Helvetica,sans-Serif" font-size="10.00">bwidgets/styling/styles</text>
<text text-anchor="middle" x="201.5" y="-74.5" font-family="Helvetica,sans-Serif" font-size="10.00">/bwStyleFlatDark.h</text>
</a>
</g>
</g>
<!-- Node1&#45;&gt;Node3 -->
<g id="edge2" class="edge">
<title>Node1&#45;&gt;Node3</title>
<path fill="none" stroke="midnightblue" d="M201.5,-124.11C201.5,-115.15 201.5,-105.32 201.5,-97.58"/>
<polygon fill="midnightblue" stroke="midnightblue" points="198,-124.4 201.5,-134.4 205,-124.4 198,-124.4"/>
</g>
<!-- Node6 -->
<g id="node6" class="node">
<title>Node6</title>
<g id="a_node6"><a xlink:href="bwStyleFlatLight_8h.html" target="_top" xlink:title=" ">
<polygon fill="none" stroke="black" points="277.5,-67.5 277.5,-97.5 393.5,-97.5 393.5,-67.5 277.5,-67.5"/>
<text text-anchor="start" x="285.5" y="-85.5" font-family="Helvetica,sans-Serif" font-size="10.00">bwidgets/styling/styles</text>
<text text-anchor="middle" x="335.5" y="-74.5" font-family="Helvetica,sans-Serif" font-size="10.00">/bwStyleFlatLight.h</text>
</a>
</g>
</g>
<!-- Node1&#45;&gt;Node6 -->
<g id="edge5" class="edge">
<title>Node1&#45;&gt;Node6</title>
<path fill="none" stroke="midnightblue" d="M239.65,-129.99C260.89,-119.69 286.91,-107.07 306.48,-97.58"/>
<polygon fill="midnightblue" stroke="midnightblue" points="238.05,-126.88 230.58,-134.4 241.1,-133.18 238.05,-126.88"/>
</g>
<!-- Node4 -->
<g id="node4" class="node">
<title>Node4</title>
<g id="a_node4"><a xlink:href="bwStyleManager_8cc.html" target="_top" xlink:title=" ">
<polygon fill="none" stroke="black" points="206,-0.5 206,-30.5 331,-30.5 331,-0.5 206,-0.5"/>
<text text-anchor="start" x="214" y="-18.5" font-family="Helvetica,sans-Serif" font-size="10.00">bwidgets/styling/bwStyle</text>
<text text-anchor="middle" x="268.5" y="-7.5" font-family="Helvetica,sans-Serif" font-size="10.00">Manager.cc</text>
</a>
</g>
</g>
<!-- Node3&#45;&gt;Node4 -->
<g id="edge3" class="edge">
<title>Node3&#45;&gt;Node4</title>
<path fill="none" stroke="midnightblue" d="M223.34,-60.31C233.39,-50.56 245.04,-39.26 253.99,-30.58"/>
<polygon fill="midnightblue" stroke="midnightblue" points="220.78,-57.92 216.04,-67.4 225.65,-62.94 220.78,-57.92"/>
</g>
<!-- Node5 -->
<g id="node5" class="node">
<title>Node5</title>
<g id="a_node5"><a xlink:href="bwStyleFlatDark_8cc.html" target="_top" xlink:title=" ">
<polygon fill="none" stroke="black" points="71.5,-0.5 71.5,-30.5 187.5,-30.5 187.5,-0.5 71.5,-0.5"/>
<text text-anchor="start" x="79.5" y="-18.5" font-family="Helvetica,sans-Serif" font-size="10.00">bwidgets/styling/styles</text>
<text text-anchor="middle" x="129.5" y="-7.5" font-family="Helvetica,sans-Serif" font-size="10.00">/bwStyleFlatDark.cc</text>
</a>
</g>
</g>
<!-- Node3&#45;&gt;Node5 -->
<g id="edge4" class="edge">
<title>Node3&#45;&gt;Node5</title>
<path fill="none" stroke="midnightblue" d="M178.35,-60.6C167.48,-50.78 154.8,-39.34 145.09,-30.58"/>
<polygon fill="midnightblue" stroke="midnightblue" points="176.11,-63.29 185.88,-67.4 180.8,-58.1 176.11,-63.29"/>
</g>
<!-- Node6&#45;&gt;Node4 -->
<g id="edge6" class="edge">
<title>Node6&#45;&gt;Node4</title>
<path fill="none" stroke="midnightblue" d="M313.66,-60.31C303.61,-50.56 291.96,-39.26 283.01,-30.58"/>
<polygon fill="midnightblue" stroke="midnightblue" points="311.35,-62.94 320.96,-67.4 316.22,-57.92 311.35,-62.94"/>
</g>
<!-- Node7 -->
<g id="node7" class="node">
<title>Node7</title>
<g id="a_node7"><a xlink:href="bwStyleFlatLight_8cc.html" target="_top" xlink:title=" ">
<polygon fill="none" stroke="black" points="349.5,-0.5 349.5,-30.5 465.5,-30.5 465.5,-0.5 349.5,-0.5"/>
<text text-anchor="start" x="357.5" y="-18.5" font-family="Helvetica,sans-Serif" font-size="10.00">bwidgets/styling/styles</text>
<text text-anchor="middle" x="407.5" y="-7.5" font-family="Helvetica,sans-Serif" font-size="10.00">/bwStyleFlatLight.cc</text>
</a>
</g>
</g>
<!-- Node6&#45;&gt;Node7 -->
<g id="edge7" class="edge">
<title>Node6&#45;&gt;Node7</title>
<path fill="none" stroke="midnightblue" d="M358.65,-60.6C369.52,-50.78 382.2,-39.34 391.91,-30.58"/>
<polygon fill="midnightblue" stroke="midnightblue" points="356.2,-58.1 351.12,-67.4 360.89,-63.29 356.2,-58.1"/>
</g>
</g>
</svg>
