<?xml version="1.0" encoding="UTF-8" standalone="no"?>
<!DOCTYPE svg PUBLIC "-//W3C//DTD SVG 1.1//EN"
 "http://www.w3.org/Graphics/SVG/1.1/DTD/svg11.dtd">
<!-- Generated by graphviz version 2.50.0 (20211204.2007)
 -->
<!-- Title: bwidgets/styling/bwStyleProperties.cc Pages: 1 -->
<svg width="393pt" height="151pt"
 viewBox="0.00 0.00 392.50 151.00" xmlns="http://www.w3.org/2000/svg" xmlns:xlink="http://www.w3.org/1999/xlink">
<g id="graph0" class="graph" transform="scale(1 1) rotate(0) translate(4 147)">
<title>bwidgets/styling/bwStyleProperties.cc</title>
<!-- Node1 -->
<g id="node1" class="node">
<title>Node1</title>
<g id="a_node1"><a xlink:title=" ">
<polygon fill="#bfbfbf" stroke="black" points="69,-112.5 69,-142.5 194,-142.5 194,-112.5 69,-112.5"/>
<text text-anchor="start" x="77" y="-130.5" font-family="Helvetica,sans-Serif" font-size="10.00">bwidgets/styling/bwStyle</text>
<text text-anchor="middle" x="131.5" y="-119.5" font-family="Helvetica,sans-Serif" font-size="10.00">Properties.cc</text>
</a>
</g>
</g>
<!-- Node2 -->
<g id="node2" class="node">
<title>Node2</title>
<g id="a_node2"><a xlink:title=" ">
<polygon fill="none" stroke="#bfbfbf" points="0,-56.5 0,-75.5 49,-75.5 49,-56.5 0,-56.5"/>
<text text-anchor="middle" x="24.5" y="-63.5" font-family="Helvetica,sans-Serif" font-size="10.00">cassert</text>
</a>
</g>
</g>
<!-- Node1&#45;&gt;Node2 -->
<g id="edge1" class="edge">
<title>Node1&#45;&gt;Node2</title>
<path fill="none" stroke="midnightblue" d="M106.14,-112.4C88.83,-102.77 66.02,-90.09 48.92,-80.58"/>
<polygon fill="midnightblue" stroke="midnightblue" points="50.51,-77.46 40.07,-75.66 47.11,-83.58 50.51,-77.46"/>
</g>
<!-- Node3 -->
<g id="node3" class="node">
<title>Node3</title>
<g id="a_node3"><a xlink:title=" ">
<polygon fill="none" stroke="#bfbfbf" points="67.5,-56.5 67.5,-75.5 121.5,-75.5 121.5,-56.5 67.5,-56.5"/>
<text text-anchor="middle" x="94.5" y="-63.5" font-family="Helvetica,sans-Serif" font-size="10.00">iostream</text>
</a>
</g>
</g>
<!-- Node1&#45;&gt;Node3 -->
<g id="edge2" class="edge">
<title>Node1&#45;&gt;Node3</title>
<path fill="none" stroke="midnightblue" d="M122.73,-112.4C117.52,-104.02 110.87,-93.33 105.33,-84.42"/>
<polygon fill="midnightblue" stroke="midnightblue" points="108.14,-82.3 99.88,-75.66 102.19,-86 108.14,-82.3"/>
</g>
<!-- Node4 -->
<g id="node4" class="node">
<title>Node4</title>
<g id="a_node4"><a xlink:href="bwColor_8h.html" target="_top" xlink:title=" ">
<polygon fill="none" stroke="black" points="139.5,-56.5 139.5,-75.5 199.5,-75.5 199.5,-56.5 139.5,-56.5"/>
<text text-anchor="middle" x="169.5" y="-63.5" font-family="Helvetica,sans-Serif" font-size="10.00">bwColor.h</text>
</a>
</g>
</g>
<!-- Node1&#45;&gt;Node4 -->
<g id="edge3" class="edge">
<title>Node1&#45;&gt;Node4</title>
<path fill="none" stroke="midnightblue" d="M140.51,-112.4C145.91,-103.93 152.83,-93.1 158.55,-84.14"/>
<polygon fill="midnightblue" stroke="midnightblue" points="161.54,-85.97 163.97,-75.66 155.64,-82.2 161.54,-85.97"/>
</g>
<!-- Node5 -->
<g id="node5" class="node">
<title>Node5</title>
<g id="a_node5"><a xlink:href="bwStyleProperties_8h.html" target="_top" xlink:title=" ">
<polygon fill="none" stroke="black" points="217.5,-56.5 217.5,-75.5 321.5,-75.5 321.5,-56.5 217.5,-56.5"/>
<text text-anchor="middle" x="269.5" y="-63.5" font-family="Helvetica,sans-Serif" font-size="10.00">bwStyleProperties.h</text>
</a>
</g>
</g>
<!-- Node1&#45;&gt;Node5 -->
<g id="edge4" class="edge">
<title>Node1&#45;&gt;Node5</title>
<path fill="none" stroke="midnightblue" d="M164.2,-112.4C187.25,-102.46 217.86,-89.26 240.13,-79.66"/>
<polygon fill="midnightblue" stroke="midnightblue" points="241.62,-82.83 249.42,-75.66 238.85,-76.4 241.62,-82.83"/>
</g>
<!-- Node6 -->
<g id="node6" class="node">
<title>Node6</title>
<g id="a_node6"><a xlink:title=" ">
<polygon fill="none" stroke="#bfbfbf" points="142.5,-0.5 142.5,-19.5 194.5,-19.5 194.5,-0.5 142.5,-0.5"/>
<text text-anchor="middle" x="168.5" y="-7.5" font-family="Helvetica,sans-Serif" font-size="10.00">memory</text>
</a>
</g>
</g>
<!-- Node5&#45;&gt;Node6 -->
<g id="edge5" class="edge">
<title>Node5&#45;&gt;Node6</title>
<path fill="none" stroke="midnightblue" d="M253.27,-56.32C237.15,-47.7 212.2,-34.36 193.54,-24.39"/>
<polygon fill="midnightblue" stroke="midnightblue" points="195.16,-21.28 184.69,-19.65 191.86,-27.46 195.16,-21.28"/>
</g>
<!-- Node7 -->
<g id="node7" class="node">
<title>Node7</title>
<g id="a_node7"><a xlink:title=" ">
<polygon fill="none" stroke="#bfbfbf" points="212.5,-0.5 212.5,-19.5 262.5,-19.5 262.5,-0.5 212.5,-0.5"/>
<text text-anchor="middle" x="237.5" y="-7.5" font-family="Helvetica,sans-Serif" font-size="10.00">optional</text>
</a>
</g>
</g>
<!-- Node5&#45;&gt;Node7 -->
<g id="edge6" class="edge">
<title>Node5&#45;&gt;Node7</title>
<path fill="none" stroke="midnightblue" d="M264.22,-56.08C259.79,-48.61 253.34,-37.72 247.88,-28.52"/>
<polygon fill="midnightblue" stroke="midnightblue" points="250.79,-26.57 242.69,-19.75 244.77,-30.14 250.79,-26.57"/>
</g>
<!-- Node8 -->
<g id="node8" class="node">
<title>Node8</title>
<g id="a_node8"><a xlink:title=" ">
<polygon fill="none" stroke="#bfbfbf" points="281,-0.5 281,-19.5 322,-19.5 322,-0.5 281,-0.5"/>
<text text-anchor="middle" x="301.5" y="-7.5" font-family="Helvetica,sans-Serif" font-size="10.00">string</text>
</a>
</g>
</g>
<!-- Node5&#45;&gt;Node8 -->
<g id="edge7" class="edge">
<title>Node5&#45;&gt;Node8</title>
<path fill="none" stroke="midnightblue" d="M274.78,-56.08C279.21,-48.61 285.66,-37.72 291.12,-28.52"/>
<polygon fill="midnightblue" stroke="midnightblue" points="294.23,-30.14 296.31,-19.75 288.21,-26.57 294.23,-30.14"/>
</g>
<!-- Node9 -->
<g id="node9" class="node">
<title>Node9</title>
<g id="a_node9"><a xlink:title=" ">
<polygon fill="none" stroke="#bfbfbf" points="340.5,-0.5 340.5,-19.5 384.5,-19.5 384.5,-0.5 340.5,-0.5"/>
<text text-anchor="middle" x="362.5" y="-7.5" font-family="Helvetica,sans-Serif" font-size="10.00">vector</text>
</a>
</g>
</g>
<!-- Node5&#45;&gt;Node9 -->
<g id="edge8" class="edge">
<title>Node5&#45;&gt;Node9</title>
<path fill="none" stroke="midnightblue" d="M284.44,-56.32C299.09,-47.82 321.63,-34.73 338.74,-24.8"/>
<polygon fill="midnightblue" stroke="midnightblue" points="340.7,-27.7 347.6,-19.65 337.19,-21.65 340.7,-27.7"/>
</g>
</g>
</svg>
