<?xml version="1.0" encoding="UTF-8" standalone="no"?>
<!DOCTYPE svg PUBLIC "-//W3C//DTD SVG 1.1//EN"
 "http://www.w3.org/Graphics/SVG/1.1/DTD/svg11.dtd">
<!-- Generated by graphviz version 2.50.0 (20211204.2007)
 -->
<!-- Title: bwidgets/styling/styles/bwStyleClassic.cc Pages: 1 -->
<svg width="1331pt" height="431pt"
 viewBox="0.00 0.00 1330.57 431.00" xmlns="http://www.w3.org/2000/svg" xmlns:xlink="http://www.w3.org/1999/xlink">
<g id="graph0" class="graph" transform="scale(1 1) rotate(0) translate(4 427)">
<title>bwidgets/styling/styles/bwStyleClassic.cc</title>
<!-- Node1 -->
<g id="node1" class="node">
<title>Node1</title>
<g id="a_node1"><a xlink:title=" ">
<polygon fill="#bfbfbf" stroke="black" points="632.5,-392.5 632.5,-422.5 748.5,-422.5 748.5,-392.5 632.5,-392.5"/>
<text text-anchor="start" x="640.5" y="-410.5" font-family="Helvetica,sans-Serif" font-size="10.00">bwidgets/styling/styles</text>
<text text-anchor="middle" x="690.5" y="-399.5" font-family="Helvetica,sans-Serif" font-size="10.00">/bwStyleClassic.cc</text>
</a>
</g>
</g>
<!-- Node2 -->
<g id="node2" class="node">
<title>Node2</title>
<g id="a_node2"><a xlink:title=" ">
<polygon fill="none" stroke="#bfbfbf" points="523,-336.5 523,-355.5 572,-355.5 572,-336.5 523,-336.5"/>
<text text-anchor="middle" x="547.5" y="-343.5" font-family="Helvetica,sans-Serif" font-size="10.00">cassert</text>
</a>
</g>
</g>
<!-- Node1&#45;&gt;Node2 -->
<g id="edge1" class="edge">
<title>Node1&#45;&gt;Node2</title>
<path fill="none" stroke="midnightblue" d="M656.61,-392.4C632.62,-382.42 600.73,-369.15 577.62,-359.53"/>
<polygon fill="midnightblue" stroke="midnightblue" points="578.89,-356.27 568.31,-355.66 576.2,-362.73 578.89,-356.27"/>
</g>
<!-- Node3 -->
<g id="node3" class="node">
<title>Node3</title>
<g id="a_node3"><a xlink:href="builtin__widgets_8h.html" target="_top" xlink:title=" ">
<polygon fill="none" stroke="black" points="701,-336.5 701,-355.5 790,-355.5 790,-336.5 701,-336.5"/>
<text text-anchor="middle" x="745.5" y="-343.5" font-family="Helvetica,sans-Serif" font-size="10.00">builtin_widgets.h</text>
</a>
</g>
</g>
<!-- Node1&#45;&gt;Node3 -->
<g id="edge2" class="edge">
<title>Node1&#45;&gt;Node3</title>
<path fill="none" stroke="midnightblue" d="M703.53,-392.4C711.69,-383.58 722.22,-372.18 730.69,-363.02"/>
<polygon fill="midnightblue" stroke="midnightblue" points="733.28,-365.38 737.5,-355.66 728.14,-360.63 733.28,-365.38"/>
</g>
<!-- Node35 -->
<g id="node35" class="node">
<title>Node35</title>
<g id="a_node35"><a xlink:href="bwPainter_8h.html" target="_top" xlink:title=" ">
<polygon fill="none" stroke="black" points="1169.5,-224.5 1169.5,-243.5 1237.5,-243.5 1237.5,-224.5 1169.5,-224.5"/>
<text text-anchor="middle" x="1203.5" y="-231.5" font-family="Helvetica,sans-Serif" font-size="10.00">bwPainter.h</text>
</a>
</g>
</g>
<!-- Node1&#45;&gt;Node35 -->
<g id="edge52" class="edge">
<title>Node1&#45;&gt;Node35</title>
<path fill="none" stroke="midnightblue" d="M748.96,-402.92C869.9,-394.21 1141.18,-367.44 1199.5,-300 1210.24,-287.58 1210.08,-268.34 1207.94,-254.01"/>
<polygon fill="midnightblue" stroke="midnightblue" points="1211.3,-252.95 1205.96,-243.8 1204.42,-254.28 1211.3,-252.95"/>
</g>
<!-- Node38 -->
<g id="node38" class="node">
<title>Node38</title>
<g id="a_node38"><a xlink:href="bwStyleClassic_8h.html" target="_top" xlink:title=" ">
<polygon fill="none" stroke="black" points="590,-336.5 590,-355.5 683,-355.5 683,-336.5 590,-336.5"/>
<text text-anchor="middle" x="636.5" y="-343.5" font-family="Helvetica,sans-Serif" font-size="10.00">bwStyleClassic.h</text>
</a>
</g>
</g>
<!-- Node1&#45;&gt;Node38 -->
<g id="edge60" class="edge">
<title>Node1&#45;&gt;Node38</title>
<path fill="none" stroke="midnightblue" d="M677.7,-392.4C669.78,-383.66 659.56,-372.41 651.29,-363.3"/>
<polygon fill="midnightblue" stroke="midnightblue" points="653.67,-360.71 644.36,-355.66 648.49,-365.42 653.67,-360.71"/>
</g>
<!-- Node4 -->
<g id="node4" class="node">
<title>Node4</title>
<g id="a_node4"><a xlink:href="bwCheckbox_8h.html" target="_top" xlink:title=" ">
<polygon fill="none" stroke="black" points="1000.5,-280.5 1000.5,-299.5 1082.5,-299.5 1082.5,-280.5 1000.5,-280.5"/>
<text text-anchor="middle" x="1041.5" y="-287.5" font-family="Helvetica,sans-Serif" font-size="10.00">bwCheckbox.h</text>
</a>
</g>
</g>
<!-- Node3&#45;&gt;Node4 -->
<g id="edge3" class="edge">
<title>Node3&#45;&gt;Node4</title>
<path fill="none" stroke="midnightblue" d="M790.13,-336.86C843.81,-327.07 933.7,-310.67 990.18,-300.36"/>
<polygon fill="midnightblue" stroke="midnightblue" points="991.12,-303.75 1000.33,-298.51 989.86,-296.86 991.12,-303.75"/>
</g>
<!-- Node25 -->
<g id="node25" class="node">
<title>Node25</title>
<g id="a_node25"><a xlink:href="bwLabel_8h.html" target="_top" xlink:title=" ">
<polygon fill="none" stroke="black" points="459,-224.5 459,-243.5 520,-243.5 520,-224.5 459,-224.5"/>
<text text-anchor="middle" x="489.5" y="-231.5" font-family="Helvetica,sans-Serif" font-size="10.00">bwLabel.h</text>
</a>
</g>
</g>
<!-- Node3&#45;&gt;Node25 -->
<g id="edge28" class="edge">
<title>Node3&#45;&gt;Node25</title>
<path fill="none" stroke="midnightblue" d="M700.72,-337.48C697.6,-336.97 694.5,-336.48 691.5,-336 638.23,-327.57 486.69,-340.86 451.5,-300 438.28,-284.65 454.99,-264.06 470.24,-250.2"/>
<polygon fill="midnightblue" stroke="midnightblue" points="472.6,-252.8 477.92,-243.63 468.05,-247.48 472.6,-252.8"/>
</g>
<!-- Node26 -->
<g id="node26" class="node">
<title>Node26</title>
<g id="a_node26"><a xlink:href="bwNumberSlider_8h.html" target="_top" xlink:title=" ">
<polygon fill="none" stroke="black" points="460.5,-280.5 460.5,-299.5 556.5,-299.5 556.5,-280.5 460.5,-280.5"/>
<text text-anchor="middle" x="508.5" y="-287.5" font-family="Helvetica,sans-Serif" font-size="10.00">bwNumberSlider.h</text>
</a>
</g>
</g>
<!-- Node3&#45;&gt;Node26 -->
<g id="edge32" class="edge">
<title>Node3&#45;&gt;Node26</title>
<path fill="none" stroke="midnightblue" d="M707.95,-336.44C666.69,-327.04 600.36,-311.93 555.63,-301.74"/>
<polygon fill="midnightblue" stroke="midnightblue" points="556.41,-298.33 545.88,-299.52 554.85,-305.15 556.41,-298.33"/>
</g>
<!-- Node27 -->
<g id="node27" class="node">
<title>Node27</title>
<g id="a_node27"><a xlink:href="bwTextBox_8h.html" target="_top" xlink:title=" ">
<polygon fill="none" stroke="black" points="538.5,-224.5 538.5,-243.5 612.5,-243.5 612.5,-224.5 538.5,-224.5"/>
<text text-anchor="middle" x="575.5" y="-231.5" font-family="Helvetica,sans-Serif" font-size="10.00">bwTextBox.h</text>
</a>
</g>
</g>
<!-- Node3&#45;&gt;Node27 -->
<g id="edge51" class="edge">
<title>Node3&#45;&gt;Node27</title>
<path fill="none" stroke="midnightblue" d="M706.35,-336.46C669.83,-327.81 618.75,-313.79 603.5,-300 590.14,-287.91 582.9,-268.35 579.15,-253.84"/>
<polygon fill="midnightblue" stroke="midnightblue" points="582.53,-252.92 576.92,-243.93 575.7,-254.46 582.53,-252.92"/>
</g>
<!-- Node28 -->
<g id="node28" class="node">
<title>Node28</title>
<g id="a_node28"><a xlink:href="bwPanel_8h.html" target="_top" xlink:title=" ">
<polygon fill="none" stroke="black" points="714.5,-280.5 714.5,-299.5 776.5,-299.5 776.5,-280.5 714.5,-280.5"/>
<text text-anchor="middle" x="745.5" y="-287.5" font-family="Helvetica,sans-Serif" font-size="10.00">bwPanel.h</text>
</a>
</g>
</g>
<!-- Node3&#45;&gt;Node28 -->
<g id="edge36" class="edge">
<title>Node3&#45;&gt;Node28</title>
<path fill="none" stroke="midnightblue" d="M745.5,-336.08C745.5,-329.01 745.5,-318.86 745.5,-309.99"/>
<polygon fill="midnightblue" stroke="midnightblue" points="749,-309.75 745.5,-299.75 742,-309.75 749,-309.75"/>
</g>
<!-- Node30 -->
<g id="node30" class="node">
<title>Node30</title>
<g id="a_node30"><a xlink:href="bwPushButton_8h.html" target="_top" xlink:title=" ">
<polygon fill="none" stroke="black" points="1101,-280.5 1101,-299.5 1190,-299.5 1190,-280.5 1101,-280.5"/>
<text text-anchor="middle" x="1145.5" y="-287.5" font-family="Helvetica,sans-Serif" font-size="10.00">bwPushButton.h</text>
</a>
</g>
</g>
<!-- Node3&#45;&gt;Node30 -->
<g id="edge40" class="edge">
<title>Node3&#45;&gt;Node30</title>
<path fill="none" stroke="midnightblue" d="M790.09,-339.72C854.18,-332.01 976.33,-316.91 1090.75,-300.07"/>
<polygon fill="midnightblue" stroke="midnightblue" points="1091.35,-303.51 1100.73,-298.59 1090.33,-296.59 1091.35,-303.51"/>
</g>
<!-- Node31 -->
<g id="node31" class="node">
<title>Node31</title>
<g id="a_node31"><a xlink:href="bwRadioButton_8h.html" target="_top" xlink:title=" ">
<polygon fill="none" stroke="black" points="794.5,-280.5 794.5,-299.5 886.5,-299.5 886.5,-280.5 794.5,-280.5"/>
<text text-anchor="middle" x="840.5" y="-287.5" font-family="Helvetica,sans-Serif" font-size="10.00">bwRadioButton.h</text>
</a>
</g>
</g>
<!-- Node3&#45;&gt;Node31 -->
<g id="edge43" class="edge">
<title>Node3&#45;&gt;Node31</title>
<path fill="none" stroke="midnightblue" d="M760.76,-336.32C775.72,-327.82 798.75,-314.73 816.23,-304.8"/>
<polygon fill="midnightblue" stroke="midnightblue" points="818.31,-307.64 825.27,-299.65 814.85,-301.55 818.31,-307.64"/>
</g>
<!-- Node32 -->
<g id="node32" class="node">
<title>Node32</title>
<g id="a_node32"><a xlink:href="bwScrollBar_8h.html" target="_top" xlink:title=" ">
<polygon fill="none" stroke="black" points="905,-280.5 905,-299.5 982,-299.5 982,-280.5 905,-280.5"/>
<text text-anchor="middle" x="943.5" y="-287.5" font-family="Helvetica,sans-Serif" font-size="10.00">bwScrollBar.h</text>
</a>
</g>
</g>
<!-- Node3&#45;&gt;Node32 -->
<g id="edge46" class="edge">
<title>Node3&#45;&gt;Node32</title>
<path fill="none" stroke="midnightblue" d="M776.87,-336.44C810.76,-327.2 864.9,-312.44 902.22,-302.26"/>
<polygon fill="midnightblue" stroke="midnightblue" points="903.55,-305.52 912.27,-299.52 901.7,-298.77 903.55,-305.52"/>
</g>
<!-- Node33 -->
<g id="node33" class="node">
<title>Node33</title>
<g id="a_node33"><a xlink:href="bwScrollView_8h.html" target="_top" xlink:title=" ">
<polygon fill="none" stroke="black" points="613,-280.5 613,-299.5 696,-299.5 696,-280.5 613,-280.5"/>
<text text-anchor="middle" x="654.5" y="-287.5" font-family="Helvetica,sans-Serif" font-size="10.00">bwScrollView.h</text>
</a>
</g>
</g>
<!-- Node3&#45;&gt;Node33 -->
<g id="edge48" class="edge">
<title>Node3&#45;&gt;Node33</title>
<path fill="none" stroke="midnightblue" d="M730.88,-336.32C716.55,-327.82 694.49,-314.73 677.75,-304.8"/>
<polygon fill="midnightblue" stroke="midnightblue" points="679.47,-301.75 669.08,-299.65 675.9,-307.77 679.47,-301.75"/>
</g>
<!-- Node5 -->
<g id="node5" class="node">
<title>Node5</title>
<g id="a_node5"><a xlink:href="bwAbstractButton_8h.html" target="_top" xlink:title=" ">
<polygon fill="none" stroke="black" points="941,-224.5 941,-243.5 1044,-243.5 1044,-224.5 941,-224.5"/>
<text text-anchor="middle" x="992.5" y="-231.5" font-family="Helvetica,sans-Serif" font-size="10.00">bwAbstractButton.h</text>
</a>
</g>
</g>
<!-- Node4&#45;&gt;Node5 -->
<g id="edge4" class="edge">
<title>Node4&#45;&gt;Node5</title>
<path fill="none" stroke="midnightblue" d="M1033.41,-280.08C1026.34,-272.3 1015.91,-260.8 1007.35,-251.37"/>
<polygon fill="midnightblue" stroke="midnightblue" points="1009.75,-248.8 1000.44,-243.75 1004.57,-253.51 1009.75,-248.8"/>
</g>
<!-- Node6 -->
<g id="node6" class="node">
<title>Node6</title>
<g id="a_node6"><a xlink:title=" ">
<polygon fill="none" stroke="#bfbfbf" points="1122.5,-56.5 1122.5,-75.5 1174.5,-75.5 1174.5,-56.5 1122.5,-56.5"/>
<text text-anchor="middle" x="1148.5" y="-63.5" font-family="Helvetica,sans-Serif" font-size="10.00">memory</text>
</a>
</g>
</g>
<!-- Node5&#45;&gt;Node6 -->
<g id="edge5" class="edge">
<title>Node5&#45;&gt;Node6</title>
<path fill="none" stroke="midnightblue" d="M1000.89,-224.08C1026.08,-197.27 1101.33,-117.19 1133.57,-82.89"/>
<polygon fill="midnightblue" stroke="midnightblue" points="1136.15,-85.25 1140.45,-75.57 1131.05,-80.46 1136.15,-85.25"/>
</g>
<!-- Node7 -->
<g id="node7" class="node">
<title>Node7</title>
<g id="a_node7"><a xlink:title=" ">
<polygon fill="none" stroke="#bfbfbf" points="904,-56.5 904,-75.5 945,-75.5 945,-56.5 904,-56.5"/>
<text text-anchor="middle" x="924.5" y="-63.5" font-family="Helvetica,sans-Serif" font-size="10.00">string</text>
</a>
</g>
</g>
<!-- Node5&#45;&gt;Node7 -->
<g id="edge6" class="edge">
<title>Node5&#45;&gt;Node7</title>
<path fill="none" stroke="midnightblue" d="M999.73,-224.11C1009.04,-211.55 1023.14,-187.89 1015.5,-168 1001.38,-131.24 967.01,-99.49 944.78,-81.84"/>
<polygon fill="midnightblue" stroke="midnightblue" points="946.71,-78.9 936.65,-75.58 942.44,-84.45 946.71,-78.9"/>
</g>
<!-- Node8 -->
<g id="node8" class="node">
<title>Node8</title>
<g id="a_node8"><a xlink:href="bwUtil_8h.html" target="_top" xlink:title=" ">
<polygon fill="none" stroke="black" points="953,-168.5 953,-187.5 1006,-187.5 1006,-168.5 953,-168.5"/>
<text text-anchor="middle" x="979.5" y="-175.5" font-family="Helvetica,sans-Serif" font-size="10.00">bwUtil.h</text>
</a>
</g>
</g>
<!-- Node5&#45;&gt;Node8 -->
<g id="edge7" class="edge">
<title>Node5&#45;&gt;Node8</title>
<path fill="none" stroke="midnightblue" d="M990.35,-224.08C988.63,-216.93 986.15,-206.64 984,-197.69"/>
<polygon fill="midnightblue" stroke="midnightblue" points="987.35,-196.65 981.61,-187.75 980.54,-198.29 987.35,-196.65"/>
</g>
<!-- Node9 -->
<g id="node9" class="node">
<title>Node9</title>
<g id="a_node9"><a xlink:href="bwWidget_8h.html" target="_top" xlink:title=" ">
<polygon fill="none" stroke="black" points="524.5,-168.5 524.5,-187.5 592.5,-187.5 592.5,-168.5 524.5,-168.5"/>
<text text-anchor="middle" x="558.5" y="-175.5" font-family="Helvetica,sans-Serif" font-size="10.00">bwWidget.h</text>
</a>
</g>
</g>
<!-- Node5&#45;&gt;Node9 -->
<g id="edge8" class="edge">
<title>Node5&#45;&gt;Node9</title>
<path fill="none" stroke="midnightblue" d="M940.58,-226.54C854.56,-215.84 683.95,-194.61 603.05,-184.54"/>
<polygon fill="midnightblue" stroke="midnightblue" points="603.07,-181.02 592.71,-183.26 602.21,-187.97 603.07,-181.02"/>
</g>
<!-- Node23 -->
<g id="node23" class="node">
<title>Node23</title>
<g id="a_node23"><a xlink:href="bwWidgetBaseStyle_8h.html" target="_top" xlink:title=" ">
<polygon fill="none" stroke="black" points="691,-168.5 691,-187.5 804,-187.5 804,-168.5 691,-168.5"/>
<text text-anchor="middle" x="747.5" y="-175.5" font-family="Helvetica,sans-Serif" font-size="10.00">bwWidgetBaseStyle.h</text>
</a>
</g>
</g>
<!-- Node5&#45;&gt;Node23 -->
<g id="edge26" class="edge">
<title>Node5&#45;&gt;Node23</title>
<path fill="none" stroke="midnightblue" d="M953.68,-224.44C910.94,-215.02 842.17,-199.87 795.93,-189.68"/>
<polygon fill="midnightblue" stroke="midnightblue" points="796.66,-186.25 786.14,-187.52 795.15,-193.09 796.66,-186.25"/>
</g>
<!-- Node10 -->
<g id="node10" class="node">
<title>Node10</title>
<g id="a_node10"><a xlink:title=" ">
<polygon fill="none" stroke="#bfbfbf" points="422.5,-56.5 422.5,-75.5 472.5,-75.5 472.5,-56.5 422.5,-56.5"/>
<text text-anchor="middle" x="447.5" y="-63.5" font-family="Helvetica,sans-Serif" font-size="10.00">optional</text>
</a>
</g>
</g>
<!-- Node9&#45;&gt;Node10 -->
<g id="edge9" class="edge">
<title>Node9&#45;&gt;Node10</title>
<path fill="none" stroke="midnightblue" d="M524.21,-173.84C475.07,-168.53 388.42,-155.95 369.5,-132 352.52,-110.5 384.91,-91.15 412.98,-79.26"/>
<polygon fill="midnightblue" stroke="midnightblue" points="414.29,-82.5 422.26,-75.52 411.67,-76.01 414.29,-82.5"/>
</g>
<!-- Node11 -->
<g id="node11" class="node">
<title>Node11</title>
<g id="a_node11"><a xlink:title=" ">
<polygon fill="none" stroke="#bfbfbf" points="629,-112.5 629,-131.5 680,-131.5 680,-112.5 629,-112.5"/>
<text text-anchor="middle" x="654.5" y="-119.5" font-family="Helvetica,sans-Serif" font-size="10.00">typeinfo</text>
</a>
</g>
</g>
<!-- Node9&#45;&gt;Node11 -->
<g id="edge10" class="edge">
<title>Node9&#45;&gt;Node11</title>
<path fill="none" stroke="midnightblue" d="M573.92,-168.32C589.04,-159.82 612.32,-146.73 629.97,-136.8"/>
<polygon fill="midnightblue" stroke="midnightblue" points="632.11,-139.61 639.11,-131.65 628.68,-133.51 632.11,-139.61"/>
</g>
<!-- Node12 -->
<g id="node12" class="node">
<title>Node12</title>
<g id="a_node12"><a xlink:href="bwDistance_8h.html" target="_top" xlink:title=" ">
<polygon fill="none" stroke="black" points="0,-112.5 0,-131.5 77,-131.5 77,-112.5 0,-112.5"/>
<text text-anchor="middle" x="38.5" y="-119.5" font-family="Helvetica,sans-Serif" font-size="10.00">bwDistance.h</text>
</a>
</g>
</g>
<!-- Node9&#45;&gt;Node12 -->
<g id="edge11" class="edge">
<title>Node9&#45;&gt;Node12</title>
<path fill="none" stroke="midnightblue" d="M524.26,-174.65C446.67,-169.11 251.6,-154.04 89.5,-132 88.75,-131.9 87.99,-131.79 87.23,-131.68"/>
<polygon fill="midnightblue" stroke="midnightblue" points="87.57,-128.2 77.16,-130.15 86.52,-135.12 87.57,-128.2"/>
</g>
<!-- Node15 -->
<g id="node15" class="node">
<title>Node15</title>
<g id="a_node15"><a xlink:href="bwFunctorInterface_8h.html" target="_top" xlink:title=" ">
<polygon fill="none" stroke="black" points="379,-112.5 379,-131.5 488,-131.5 488,-112.5 379,-112.5"/>
<text text-anchor="middle" x="433.5" y="-119.5" font-family="Helvetica,sans-Serif" font-size="10.00">bwFunctorInterface.h</text>
</a>
</g>
</g>
<!-- Node9&#45;&gt;Node15 -->
<g id="edge14" class="edge">
<title>Node9&#45;&gt;Node15</title>
<path fill="none" stroke="midnightblue" d="M538.69,-168.44C518.21,-159.6 486.02,-145.69 462.64,-135.59"/>
<polygon fill="midnightblue" stroke="midnightblue" points="463.78,-132.27 453.21,-131.52 461.01,-138.7 463.78,-132.27"/>
</g>
<!-- Node16 -->
<g id="node16" class="node">
<title>Node16</title>
<g id="a_node16"><a xlink:href="bwRectangle_8h.html" target="_top" xlink:title=" ">
<polygon fill="none" stroke="black" points="736.5,-112.5 736.5,-131.5 818.5,-131.5 818.5,-112.5 736.5,-112.5"/>
<text text-anchor="middle" x="777.5" y="-119.5" font-family="Helvetica,sans-Serif" font-size="10.00">bwRectangle.h</text>
</a>
</g>
</g>
<!-- Node9&#45;&gt;Node16 -->
<g id="edge15" class="edge">
<title>Node9&#45;&gt;Node16</title>
<path fill="none" stroke="midnightblue" d="M592.72,-168.56C630.51,-159.25 691.47,-144.21 732.96,-133.98"/>
<polygon fill="midnightblue" stroke="midnightblue" points="733.93,-137.35 742.8,-131.56 732.25,-130.55 733.93,-137.35"/>
</g>
<!-- Node17 -->
<g id="node17" class="node">
<title>Node17</title>
<g id="a_node17"><a xlink:href="bwStyleProperties_8h.html" target="_top" xlink:title=" ">
<polygon fill="none" stroke="black" points="506.5,-112.5 506.5,-131.5 610.5,-131.5 610.5,-112.5 506.5,-112.5"/>
<text text-anchor="middle" x="558.5" y="-119.5" font-family="Helvetica,sans-Serif" font-size="10.00">bwStyleProperties.h</text>
</a>
</g>
</g>
<!-- Node9&#45;&gt;Node17 -->
<g id="edge16" class="edge">
<title>Node9&#45;&gt;Node17</title>
<path fill="none" stroke="midnightblue" d="M558.5,-168.08C558.5,-161.01 558.5,-150.86 558.5,-141.99"/>
<polygon fill="midnightblue" stroke="midnightblue" points="562,-141.75 558.5,-131.75 555,-141.75 562,-141.75"/>
</g>
<!-- Node18 -->
<g id="node18" class="node">
<title>Node18</title>
<g id="a_node18"><a xlink:href="EventHandler_8h.html" target="_top" xlink:title=" ">
<polygon fill="none" stroke="black" points="99,-112.5 99,-131.5 244,-131.5 244,-112.5 99,-112.5"/>
<text text-anchor="middle" x="171.5" y="-119.5" font-family="Helvetica,sans-Serif" font-size="10.00">screen_graph/EventHandler.h</text>
</a>
</g>
</g>
<!-- Node9&#45;&gt;Node18 -->
<g id="edge21" class="edge">
<title>Node9&#45;&gt;Node18</title>
<path fill="none" stroke="midnightblue" d="M524.5,-172.26C461.66,-163.49 326.18,-144.58 242.53,-132.91"/>
<polygon fill="midnightblue" stroke="midnightblue" points="242.99,-129.44 232.6,-131.53 242.02,-136.37 242.99,-129.44"/>
</g>
<!-- Node13 -->
<g id="node13" class="node">
<title>Node13</title>
<g id="a_node13"><a xlink:href="bwPoint_8h.html" target="_top" xlink:title=" ">
<polygon fill="none" stroke="black" points="4.5,-56.5 4.5,-75.5 64.5,-75.5 64.5,-56.5 4.5,-56.5"/>
<text text-anchor="middle" x="34.5" y="-63.5" font-family="Helvetica,sans-Serif" font-size="10.00">bwPoint.h</text>
</a>
</g>
</g>
<!-- Node12&#45;&gt;Node13 -->
<g id="edge12" class="edge">
<title>Node12&#45;&gt;Node13</title>
<path fill="none" stroke="midnightblue" d="M37.84,-112.08C37.32,-105.01 36.56,-94.86 35.91,-85.99"/>
<polygon fill="midnightblue" stroke="midnightblue" points="39.38,-85.47 35.15,-75.75 32.4,-85.98 39.38,-85.47"/>
</g>
<!-- Node14 -->
<g id="node14" class="node">
<title>Node14</title>
<g id="a_node14"><a xlink:title=" ">
<polygon fill="none" stroke="#bfbfbf" points="536.5,-0.5 536.5,-19.5 580.5,-19.5 580.5,-0.5 536.5,-0.5"/>
<text text-anchor="middle" x="558.5" y="-7.5" font-family="Helvetica,sans-Serif" font-size="10.00">vector</text>
</a>
</g>
</g>
<!-- Node13&#45;&gt;Node14 -->
<g id="edge13" class="edge">
<title>Node13&#45;&gt;Node14</title>
<path fill="none" stroke="midnightblue" d="M64.65,-57.62C67.63,-57.02 70.62,-56.46 73.5,-56 242.54,-28.78 447.58,-16.47 525.93,-12.51"/>
<polygon fill="midnightblue" stroke="midnightblue" points="526.31,-15.99 536.13,-12.01 525.97,-9 526.31,-15.99"/>
</g>
<!-- Node17&#45;&gt;Node6 -->
<g id="edge17" class="edge">
<title>Node17&#45;&gt;Node6</title>
<path fill="none" stroke="midnightblue" d="M610.72,-113.08C613.69,-112.7 616.63,-112.33 619.5,-112 804.29,-90.53 1026.52,-74.94 1112.29,-69.31"/>
<polygon fill="midnightblue" stroke="midnightblue" points="1112.55,-72.8 1122.3,-68.65 1112.09,-65.81 1112.55,-72.8"/>
</g>
<!-- Node17&#45;&gt;Node7 -->
<g id="edge19" class="edge">
<title>Node17&#45;&gt;Node7</title>
<path fill="none" stroke="midnightblue" d="M610.55,-113.32C687.97,-101.9 831.07,-80.79 893.74,-71.54"/>
<polygon fill="midnightblue" stroke="midnightblue" points="894.4,-74.98 903.78,-70.06 893.38,-68.05 894.4,-74.98"/>
</g>
<!-- Node17&#45;&gt;Node10 -->
<g id="edge18" class="edge">
<title>Node17&#45;&gt;Node10</title>
<path fill="none" stroke="midnightblue" d="M540.67,-112.32C522.78,-103.62 495.02,-90.12 474.45,-80.11"/>
<polygon fill="midnightblue" stroke="midnightblue" points="475.81,-76.88 465.29,-75.65 472.75,-83.18 475.81,-76.88"/>
</g>
<!-- Node17&#45;&gt;Node14 -->
<g id="edge20" class="edge">
<title>Node17&#45;&gt;Node14</title>
<path fill="none" stroke="midnightblue" d="M558.5,-112.37C558.5,-94.62 558.5,-53.67 558.5,-29.6"/>
<polygon fill="midnightblue" stroke="midnightblue" points="562,-29.59 558.5,-19.59 555,-29.59 562,-29.59"/>
</g>
<!-- Node19 -->
<g id="node19" class="node">
<title>Node19</title>
<g id="a_node19"><a xlink:title=" ">
<polygon fill="none" stroke="#bfbfbf" points="308.5,-56.5 308.5,-75.5 346.5,-75.5 346.5,-56.5 308.5,-56.5"/>
<text text-anchor="middle" x="327.5" y="-63.5" font-family="Helvetica,sans-Serif" font-size="10.00">array</text>
</a>
</g>
</g>
<!-- Node18&#45;&gt;Node19 -->
<g id="edge22" class="edge">
<title>Node18&#45;&gt;Node19</title>
<path fill="none" stroke="midnightblue" d="M196.22,-112.44C224.04,-102.81 269.18,-87.19 298.61,-77"/>
<polygon fill="midnightblue" stroke="midnightblue" points="300,-80.22 308.31,-73.64 297.71,-73.61 300,-80.22"/>
</g>
<!-- Node20 -->
<g id="node20" class="node">
<title>Node20</title>
<g id="a_node20"><a xlink:title=" ">
<polygon fill="none" stroke="#bfbfbf" points="231,-56.5 231,-75.5 290,-75.5 290,-56.5 231,-56.5"/>
<text text-anchor="middle" x="260.5" y="-63.5" font-family="Helvetica,sans-Serif" font-size="10.00">functional</text>
</a>
</g>
</g>
<!-- Node18&#45;&gt;Node20 -->
<g id="edge23" class="edge">
<title>Node18&#45;&gt;Node20</title>
<path fill="none" stroke="midnightblue" d="M185.8,-112.32C199.68,-103.9 220.99,-90.97 237.3,-81.07"/>
<polygon fill="midnightblue" stroke="midnightblue" points="239.5,-83.83 246.24,-75.65 235.87,-77.85 239.5,-83.83"/>
</g>
<!-- Node21 -->
<g id="node21" class="node">
<title>Node21</title>
<g id="a_node21"><a xlink:title=" ">
<polygon fill="none" stroke="#bfbfbf" points="83,-56.5 83,-75.5 112,-75.5 112,-56.5 83,-56.5"/>
<text text-anchor="middle" x="97.5" y="-63.5" font-family="Helvetica,sans-Serif" font-size="10.00">list</text>
</a>
</g>
</g>
<!-- Node18&#45;&gt;Node21 -->
<g id="edge24" class="edge">
<title>Node18&#45;&gt;Node21</title>
<path fill="none" stroke="midnightblue" d="M159.61,-112.32C148.35,-104.11 131.21,-91.6 117.79,-81.81"/>
<polygon fill="midnightblue" stroke="midnightblue" points="119.75,-78.9 109.61,-75.83 115.62,-84.56 119.75,-78.9"/>
</g>
<!-- Node22 -->
<g id="node22" class="node">
<title>Node22</title>
<g id="a_node22"><a xlink:title=" ">
<polygon fill="none" stroke="#bfbfbf" points="130,-56.5 130,-75.5 213,-75.5 213,-56.5 130,-56.5"/>
<text text-anchor="middle" x="171.5" y="-63.5" font-family="Helvetica,sans-Serif" font-size="10.00">unordered_map</text>
</a>
</g>
</g>
<!-- Node18&#45;&gt;Node22 -->
<g id="edge25" class="edge">
<title>Node18&#45;&gt;Node22</title>
<path fill="none" stroke="midnightblue" d="M171.5,-112.08C171.5,-105.01 171.5,-94.86 171.5,-85.99"/>
<polygon fill="midnightblue" stroke="midnightblue" points="175,-85.75 171.5,-75.75 168,-85.75 175,-85.75"/>
</g>
<!-- Node24 -->
<g id="node24" class="node">
<title>Node24</title>
<g id="a_node24"><a xlink:href="bwColor_8h.html" target="_top" xlink:title=" ">
<polygon fill="none" stroke="black" points="836.5,-112.5 836.5,-131.5 896.5,-131.5 896.5,-112.5 836.5,-112.5"/>
<text text-anchor="middle" x="866.5" y="-119.5" font-family="Helvetica,sans-Serif" font-size="10.00">bwColor.h</text>
</a>
</g>
</g>
<!-- Node23&#45;&gt;Node24 -->
<g id="edge27" class="edge">
<title>Node23&#45;&gt;Node24</title>
<path fill="none" stroke="midnightblue" d="M766.36,-168.44C785.77,-159.64 816.23,-145.81 838.46,-135.72"/>
<polygon fill="midnightblue" stroke="midnightblue" points="840.07,-138.84 847.73,-131.52 837.18,-132.46 840.07,-138.84"/>
</g>
<!-- Node25&#45;&gt;Node7 -->
<g id="edge29" class="edge">
<title>Node25&#45;&gt;Node7</title>
<path fill="none" stroke="midnightblue" d="M514.03,-224.44C537.05,-216.1 572.24,-202.58 601.5,-188 630.77,-173.41 697.18,-124.24 727.5,-112 783.82,-89.27 854.06,-76.7 893.64,-70.95"/>
<polygon fill="midnightblue" stroke="midnightblue" points="894.3,-74.39 903.72,-69.53 893.33,-67.46 894.3,-74.39"/>
</g>
<!-- Node25&#45;&gt;Node9 -->
<g id="edge31" class="edge">
<title>Node25&#45;&gt;Node9</title>
<path fill="none" stroke="midnightblue" d="M500.59,-224.32C510.99,-216.18 526.76,-203.84 539.22,-194.09"/>
<polygon fill="midnightblue" stroke="midnightblue" points="541.49,-196.75 547.21,-187.83 537.18,-191.24 541.49,-196.75"/>
</g>
<!-- Node25&#45;&gt;Node24 -->
<g id="edge30" class="edge">
<title>Node25&#45;&gt;Node24</title>
<path fill="none" stroke="midnightblue" d="M520.17,-225.11C550.6,-216.96 598.36,-203.31 638.5,-188 658.19,-180.49 661.61,-174.97 681.5,-168 695.11,-163.23 776.1,-144.06 826.31,-132.33"/>
<polygon fill="midnightblue" stroke="midnightblue" points="827.27,-135.7 836.21,-130.02 825.68,-128.89 827.27,-135.7"/>
</g>
<!-- Node26&#45;&gt;Node27 -->
<g id="edge33" class="edge">
<title>Node26&#45;&gt;Node27</title>
<path fill="none" stroke="midnightblue" d="M519.26,-280.32C529.27,-272.26 544.39,-260.08 556.43,-250.37"/>
<polygon fill="midnightblue" stroke="midnightblue" points="558.95,-252.83 564.54,-243.83 554.56,-247.38 558.95,-252.83"/>
</g>
<!-- Node27&#45;&gt;Node9 -->
<g id="edge34" class="edge">
<title>Node27&#45;&gt;Node9</title>
<path fill="none" stroke="midnightblue" d="M572.69,-224.08C570.42,-216.85 567.13,-206.41 564.29,-197.4"/>
<polygon fill="midnightblue" stroke="midnightblue" points="567.6,-196.24 561.25,-187.75 560.92,-198.34 567.6,-196.24"/>
</g>
<!-- Node27&#45;&gt;Node23 -->
<g id="edge35" class="edge">
<title>Node27&#45;&gt;Node23</title>
<path fill="none" stroke="midnightblue" d="M602.75,-224.44C631.94,-215.28 678.42,-200.69 710.81,-190.52"/>
<polygon fill="midnightblue" stroke="midnightblue" points="711.88,-193.85 720.37,-187.52 709.78,-187.17 711.88,-193.85"/>
</g>
<!-- Node29 -->
<g id="node29" class="node">
<title>Node29</title>
<g id="a_node29"><a xlink:href="bwContainerWidget_8h.html" target="_top" xlink:title=" ">
<polygon fill="none" stroke="black" points="692.5,-224.5 692.5,-243.5 802.5,-243.5 802.5,-224.5 692.5,-224.5"/>
<text text-anchor="middle" x="747.5" y="-231.5" font-family="Helvetica,sans-Serif" font-size="10.00">bwContainerWidget.h</text>
</a>
</g>
</g>
<!-- Node28&#45;&gt;Node29 -->
<g id="edge37" class="edge">
<title>Node28&#45;&gt;Node29</title>
<path fill="none" stroke="midnightblue" d="M745.83,-280.08C746.09,-273.01 746.47,-262.86 746.8,-253.99"/>
<polygon fill="midnightblue" stroke="midnightblue" points="750.3,-253.87 747.18,-243.75 743.31,-253.61 750.3,-253.87"/>
</g>
<!-- Node29&#45;&gt;Node9 -->
<g id="edge38" class="edge">
<title>Node29&#45;&gt;Node9</title>
<path fill="none" stroke="midnightblue" d="M717.55,-224.44C685.34,-215.24 633.97,-200.56 598.36,-190.39"/>
<polygon fill="midnightblue" stroke="midnightblue" points="598.88,-186.9 588.31,-187.52 596.96,-193.63 598.88,-186.9"/>
</g>
<!-- Node29&#45;&gt;Node23 -->
<g id="edge39" class="edge">
<title>Node29&#45;&gt;Node23</title>
<path fill="none" stroke="midnightblue" d="M747.5,-224.08C747.5,-217.01 747.5,-206.86 747.5,-197.99"/>
<polygon fill="midnightblue" stroke="midnightblue" points="751,-197.75 747.5,-187.75 744,-197.75 751,-197.75"/>
</g>
<!-- Node30&#45;&gt;Node5 -->
<g id="edge42" class="edge">
<title>Node30&#45;&gt;Node5</title>
<path fill="none" stroke="midnightblue" d="M1121.26,-280.44C1095.63,-271.4 1055.01,-257.06 1026.26,-246.92"/>
<polygon fill="midnightblue" stroke="midnightblue" points="1027.22,-243.54 1016.63,-243.52 1024.89,-250.15 1027.22,-243.54"/>
</g>
<!-- Node30&#45;&gt;Node7 -->
<g id="edge41" class="edge">
<title>Node30&#45;&gt;Node7</title>
<path fill="none" stroke="midnightblue" d="M1140.03,-280.36C1122.44,-253.05 1064.69,-167.12 1000.5,-112 985.76,-99.34 966.99,-88.19 951.8,-80.16"/>
<polygon fill="midnightblue" stroke="midnightblue" points="953.36,-77.02 942.86,-75.57 950.16,-83.25 953.36,-77.02"/>
</g>
<!-- Node31&#45;&gt;Node5 -->
<g id="edge45" class="edge">
<title>Node31&#45;&gt;Node5</title>
<path fill="none" stroke="midnightblue" d="M864.58,-280.44C890.04,-271.4 930.39,-257.06 958.96,-246.92"/>
<polygon fill="midnightblue" stroke="midnightblue" points="960.28,-250.16 968.53,-243.52 957.93,-243.57 960.28,-250.16"/>
</g>
<!-- Node31&#45;&gt;Node7 -->
<g id="edge44" class="edge">
<title>Node31&#45;&gt;Node7</title>
<path fill="none" stroke="midnightblue" d="M847.77,-280.49C861.51,-263.92 891.18,-225.61 905.5,-188 918.63,-153.5 922.69,-110.15 923.94,-85.82"/>
<polygon fill="midnightblue" stroke="midnightblue" points="927.45,-85.66 924.36,-75.52 920.46,-85.37 927.45,-85.66"/>
</g>
<!-- Node32&#45;&gt;Node5 -->
<g id="edge47" class="edge">
<title>Node32&#45;&gt;Node5</title>
<path fill="none" stroke="midnightblue" d="M951.59,-280.08C958.66,-272.3 969.09,-260.8 977.65,-251.37"/>
<polygon fill="midnightblue" stroke="midnightblue" points="980.43,-253.51 984.56,-243.75 975.25,-248.8 980.43,-253.51"/>
</g>
<!-- Node33&#45;&gt;Node29 -->
<g id="edge50" class="edge">
<title>Node33&#45;&gt;Node29</title>
<path fill="none" stroke="midnightblue" d="M669.44,-280.32C684.09,-271.82 706.63,-258.73 723.74,-248.8"/>
<polygon fill="midnightblue" stroke="midnightblue" points="725.7,-251.7 732.6,-243.65 722.19,-245.65 725.7,-251.7"/>
</g>
<!-- Node34 -->
<g id="node34" class="node">
<title>Node34</title>
<g id="a_node34"><a xlink:title=" ">
<polygon fill="none" stroke="#bfbfbf" points="630.5,-224.5 630.5,-243.5 674.5,-243.5 674.5,-224.5 630.5,-224.5"/>
<text text-anchor="middle" x="652.5" y="-231.5" font-family="Helvetica,sans-Serif" font-size="10.00">cmath</text>
</a>
</g>
</g>
<!-- Node33&#45;&gt;Node34 -->
<g id="edge49" class="edge">
<title>Node33&#45;&gt;Node34</title>
<path fill="none" stroke="midnightblue" d="M654.17,-280.08C653.91,-273.01 653.53,-262.86 653.2,-253.99"/>
<polygon fill="midnightblue" stroke="midnightblue" points="656.69,-253.61 652.82,-243.75 649.7,-253.87 656.69,-253.61"/>
</g>
<!-- Node35&#45;&gt;Node6 -->
<g id="edge53" class="edge">
<title>Node35&#45;&gt;Node6</title>
<path fill="none" stroke="midnightblue" d="M1200.54,-224.08C1191.85,-197.83 1166.24,-120.55 1154.5,-85.12"/>
<polygon fill="midnightblue" stroke="midnightblue" points="1157.81,-83.96 1151.34,-75.57 1151.16,-86.16 1157.81,-83.96"/>
</g>
<!-- Node35&#45;&gt;Node7 -->
<g id="edge54" class="edge">
<title>Node35&#45;&gt;Node7</title>
<path fill="none" stroke="midnightblue" d="M1197.77,-224.48C1182.47,-202.37 1138.24,-142.77 1086.5,-112 1044.96,-87.29 989.38,-75.72 955.31,-70.63"/>
<polygon fill="midnightblue" stroke="midnightblue" points="955.43,-67.11 945.04,-69.19 954.46,-74.05 955.43,-67.11"/>
</g>
<!-- Node35&#45;&gt;Node14 -->
<g id="edge55" class="edge">
<title>Node35&#45;&gt;Node14</title>
<path fill="none" stroke="midnightblue" d="M1237.55,-228.32C1277.58,-221.1 1336.54,-204.12 1319.5,-168 1286.08,-97.19 1256.21,-85.07 1183.5,-56 1074.15,-12.27 702.69,-10.32 590.71,-10.76"/>
<polygon fill="midnightblue" stroke="midnightblue" points="590.69,-7.26 580.7,-10.81 590.72,-14.26 590.69,-7.26"/>
</g>
<!-- Node36 -->
<g id="node36" class="node">
<title>Node36</title>
<g id="a_node36"><a xlink:href="bwGradient_8h.html" target="_top" xlink:title=" ">
<polygon fill="none" stroke="black" points="822.5,-168.5 822.5,-187.5 896.5,-187.5 896.5,-168.5 822.5,-168.5"/>
<text text-anchor="middle" x="859.5" y="-175.5" font-family="Helvetica,sans-Serif" font-size="10.00">bwGradient.h</text>
</a>
</g>
</g>
<!-- Node35&#45;&gt;Node36 -->
<g id="edge56" class="edge">
<title>Node35&#45;&gt;Node36</title>
<path fill="none" stroke="midnightblue" d="M1169.26,-227.62C1107.38,-217.91 976.87,-197.42 906.62,-186.4"/>
<polygon fill="midnightblue" stroke="midnightblue" points="907.13,-182.93 896.71,-184.84 906.05,-189.85 907.13,-182.93"/>
</g>
<!-- Node37 -->
<g id="node37" class="node">
<title>Node37</title>
<g id="a_node37"><a xlink:href="bwIconInterface_8h.html" target="_top" xlink:title=" ">
<polygon fill="none" stroke="black" points="1215,-168.5 1215,-187.5 1310,-187.5 1310,-168.5 1215,-168.5"/>
<text text-anchor="middle" x="1262.5" y="-175.5" font-family="Helvetica,sans-Serif" font-size="10.00">bwIconInterface.h</text>
</a>
</g>
</g>
<!-- Node35&#45;&gt;Node37 -->
<g id="edge59" class="edge">
<title>Node35&#45;&gt;Node37</title>
<path fill="none" stroke="midnightblue" d="M1212.98,-224.32C1221.7,-216.34 1234.84,-204.31 1245.4,-194.65"/>
<polygon fill="midnightblue" stroke="midnightblue" points="1247.83,-197.17 1252.85,-187.83 1243.11,-192 1247.83,-197.17"/>
</g>
<!-- Node36&#45;&gt;Node16 -->
<g id="edge58" class="edge">
<title>Node36&#45;&gt;Node16</title>
<path fill="none" stroke="midnightblue" d="M846.33,-168.32C833.65,-159.98 814.27,-147.21 799.29,-137.35"/>
<polygon fill="midnightblue" stroke="midnightblue" points="800.92,-134.23 790.64,-131.65 797.07,-140.08 800.92,-134.23"/>
</g>
<!-- Node36&#45;&gt;Node24 -->
<g id="edge57" class="edge">
<title>Node36&#45;&gt;Node24</title>
<path fill="none" stroke="midnightblue" d="M860.66,-168.08C861.58,-160.93 862.92,-150.64 864.08,-141.69"/>
<polygon fill="midnightblue" stroke="midnightblue" points="867.55,-142.12 865.37,-131.75 860.61,-141.22 867.55,-142.12"/>
</g>
<!-- Node39 -->
<g id="node39" class="node">
<title>Node39</title>
<g id="a_node39"><a xlink:href="bwStyle_8h.html" target="_top" xlink:title=" ">
<polygon fill="none" stroke="black" points="262.5,-112.5 262.5,-131.5 322.5,-131.5 322.5,-112.5 262.5,-112.5"/>
<text text-anchor="middle" x="292.5" y="-119.5" font-family="Helvetica,sans-Serif" font-size="10.00">bwStyle.h</text>
</a>
</g>
</g>
<!-- Node38&#45;&gt;Node39 -->
<g id="edge61" class="edge">
<title>Node38&#45;&gt;Node39</title>
<path fill="none" stroke="midnightblue" d="M589.87,-337.58C540.91,-329.19 467.75,-314.76 443.5,-300 375.69,-258.73 323.01,-176.51 302.18,-140.54"/>
<polygon fill="midnightblue" stroke="midnightblue" points="305.15,-138.67 297.17,-131.69 299.06,-142.12 305.15,-138.67"/>
</g>
<!-- Node39&#45;&gt;Node7 -->
<g id="edge63" class="edge">
<title>Node39&#45;&gt;Node7</title>
<path fill="none" stroke="midnightblue" d="M322.83,-117.2C336.99,-115.5 354.1,-113.52 369.5,-112 569.03,-92.26 809.55,-74.97 893.67,-69.11"/>
<polygon fill="midnightblue" stroke="midnightblue" points="894.08,-72.59 903.81,-68.41 893.6,-65.61 894.08,-72.59"/>
</g>
<!-- Node39&#45;&gt;Node19 -->
<g id="edge62" class="edge">
<title>Node39&#45;&gt;Node19</title>
<path fill="none" stroke="midnightblue" d="M298.28,-112.08C303.17,-104.53 310.33,-93.49 316.33,-84.23"/>
<polygon fill="midnightblue" stroke="midnightblue" points="319.33,-86.05 321.83,-75.75 313.45,-82.24 319.33,-86.05"/>
</g>
</g>
</svg>
