<?xml version="1.0" encoding="UTF-8" standalone="no"?>
<!DOCTYPE svg PUBLIC "-//W3C//DTD SVG 1.1//EN"
 "http://www.w3.org/Graphics/SVG/1.1/DTD/svg11.dtd">
<!-- Generated by graphviz version 2.50.0 (20211204.2007)
 -->
<!-- Title: bwidgets/styling/bwStyleCSS.cc Pages: 1 -->
<svg width="1255pt" height="431pt"
 viewBox="0.00 0.00 1254.64 431.00" xmlns="http://www.w3.org/2000/svg" xmlns:xlink="http://www.w3.org/1999/xlink">
<g id="graph0" class="graph" transform="scale(1 1) rotate(0) translate(4 427)">
<title>bwidgets/styling/bwStyleCSS.cc</title>
<!-- Node1 -->
<g id="node1" class="node">
<title>Node1</title>
<g id="a_node1"><a xlink:title=" ">
<polygon fill="#bfbfbf" stroke="black" points="481.5,-392.5 481.5,-422.5 606.5,-422.5 606.5,-392.5 481.5,-392.5"/>
<text text-anchor="start" x="489.5" y="-410.5" font-family="Helvetica,sans-Serif" font-size="10.00">bwidgets/styling/bwStyle</text>
<text text-anchor="middle" x="544" y="-399.5" font-family="Helvetica,sans-Serif" font-size="10.00">CSS.cc</text>
</a>
</g>
</g>
<!-- Node2 -->
<g id="node2" class="node">
<title>Node2</title>
<g id="a_node2"><a xlink:href="bwAbstractButton_8h.html" target="_top" xlink:title=" ">
<polygon fill="none" stroke="black" points="352.5,-224.5 352.5,-243.5 455.5,-243.5 455.5,-224.5 352.5,-224.5"/>
<text text-anchor="middle" x="404" y="-231.5" font-family="Helvetica,sans-Serif" font-size="10.00">bwAbstractButton.h</text>
</a>
</g>
</g>
<!-- Node1&#45;&gt;Node2 -->
<g id="edge1" class="edge">
<title>Node1&#45;&gt;Node2</title>
<path fill="none" stroke="midnightblue" d="M562.67,-392.26C592.53,-367.78 644.78,-316.81 615,-280 596.48,-257.11 521.13,-245.36 465.73,-239.71"/>
<polygon fill="midnightblue" stroke="midnightblue" points="465.93,-236.21 455.64,-238.72 465.25,-243.18 465.93,-236.21"/>
</g>
<!-- Node22 -->
<g id="node22" class="node">
<title>Node22</title>
<g id="a_node22"><a xlink:href="bwPainter_8h.html" target="_top" xlink:title=" ">
<polygon fill="none" stroke="black" points="1024,-224.5 1024,-243.5 1092,-243.5 1092,-224.5 1024,-224.5"/>
<text text-anchor="middle" x="1058" y="-231.5" font-family="Helvetica,sans-Serif" font-size="10.00">bwPainter.h</text>
</a>
</g>
</g>
<!-- Node1&#45;&gt;Node22 -->
<g id="edge25" class="edge">
<title>Node1&#45;&gt;Node22</title>
<path fill="none" stroke="midnightblue" d="M588.4,-392.43C651.55,-372.34 770.87,-334.08 872,-300 925.33,-282.03 986.94,-260.31 1024.16,-247.08"/>
<polygon fill="midnightblue" stroke="midnightblue" points="1025.73,-250.23 1033.98,-243.59 1023.39,-243.64 1025.73,-250.23"/>
</g>
<!-- Node25 -->
<g id="node25" class="node">
<title>Node25</title>
<g id="a_node25"><a xlink:href="bwStyleCSS_8h.html" target="_top" xlink:title=" ">
<polygon fill="none" stroke="black" points="150.5,-336.5 150.5,-355.5 231.5,-355.5 231.5,-336.5 150.5,-336.5"/>
<text text-anchor="middle" x="191" y="-343.5" font-family="Helvetica,sans-Serif" font-size="10.00">bwStyleCSS.h</text>
</a>
</g>
</g>
<!-- Node1&#45;&gt;Node25 -->
<g id="edge33" class="edge">
<title>Node1&#45;&gt;Node25</title>
<path fill="none" stroke="midnightblue" d="M481.3,-395.93C412.98,-384.42 305.02,-366.22 241.8,-355.56"/>
<polygon fill="midnightblue" stroke="midnightblue" points="242.11,-352.07 231.67,-353.85 240.95,-358.97 242.11,-352.07"/>
</g>
<!-- Node27 -->
<g id="node27" class="node">
<title>Node27</title>
<g id="a_node27"><a xlink:href="builtin__widgets_8h.html" target="_top" xlink:title=" ">
<polygon fill="none" stroke="black" points="461.5,-336.5 461.5,-355.5 550.5,-355.5 550.5,-336.5 461.5,-336.5"/>
<text text-anchor="middle" x="506" y="-343.5" font-family="Helvetica,sans-Serif" font-size="10.00">builtin_widgets.h</text>
</a>
</g>
</g>
<!-- Node1&#45;&gt;Node27 -->
<g id="edge37" class="edge">
<title>Node1&#45;&gt;Node27</title>
<path fill="none" stroke="midnightblue" d="M534.99,-392.4C529.59,-383.93 522.67,-373.1 516.95,-364.14"/>
<polygon fill="midnightblue" stroke="midnightblue" points="519.86,-362.2 511.53,-355.66 513.96,-365.97 519.86,-362.2"/>
</g>
<!-- Node3 -->
<g id="node3" class="node">
<title>Node3</title>
<g id="a_node3"><a xlink:title=" ">
<polygon fill="none" stroke="#bfbfbf" points="1046,-56.5 1046,-75.5 1098,-75.5 1098,-56.5 1046,-56.5"/>
<text text-anchor="middle" x="1072" y="-63.5" font-family="Helvetica,sans-Serif" font-size="10.00">memory</text>
</a>
</g>
</g>
<!-- Node2&#45;&gt;Node3 -->
<g id="edge2" class="edge">
<title>Node2&#45;&gt;Node3</title>
<path fill="none" stroke="midnightblue" d="M455.51,-229.85C608.11,-220.47 1047.5,-193.05 1053,-188 1081.25,-162.09 1079.14,-112.68 1075.41,-85.71"/>
<polygon fill="midnightblue" stroke="midnightblue" points="1078.84,-84.98 1073.8,-75.66 1071.93,-86.08 1078.84,-84.98"/>
</g>
<!-- Node4 -->
<g id="node4" class="node">
<title>Node4</title>
<g id="a_node4"><a xlink:title=" ">
<polygon fill="none" stroke="#bfbfbf" points="143.5,-56.5 143.5,-75.5 184.5,-75.5 184.5,-56.5 143.5,-56.5"/>
<text text-anchor="middle" x="164" y="-63.5" font-family="Helvetica,sans-Serif" font-size="10.00">string</text>
</a>
</g>
</g>
<!-- Node2&#45;&gt;Node4 -->
<g id="edge3" class="edge">
<title>Node2&#45;&gt;Node4</title>
<path fill="none" stroke="midnightblue" d="M352.15,-231.97C312.29,-228.63 257.97,-218.25 221,-188 216.68,-184.47 186.72,-118.04 172.05,-85.14"/>
<polygon fill="midnightblue" stroke="midnightblue" points="175.14,-83.48 167.88,-75.76 168.75,-86.32 175.14,-83.48"/>
</g>
<!-- Node5 -->
<g id="node5" class="node">
<title>Node5</title>
<g id="a_node5"><a xlink:href="bwUtil_8h.html" target="_top" xlink:title=" ">
<polygon fill="none" stroke="black" points="230.5,-168.5 230.5,-187.5 283.5,-187.5 283.5,-168.5 230.5,-168.5"/>
<text text-anchor="middle" x="257" y="-175.5" font-family="Helvetica,sans-Serif" font-size="10.00">bwUtil.h</text>
</a>
</g>
</g>
<!-- Node2&#45;&gt;Node5 -->
<g id="edge4" class="edge">
<title>Node2&#45;&gt;Node5</title>
<path fill="none" stroke="midnightblue" d="M380.71,-224.44C356.19,-215.44 317.4,-201.19 289.8,-191.05"/>
<polygon fill="midnightblue" stroke="midnightblue" points="290.78,-187.68 280.18,-187.52 288.36,-194.25 290.78,-187.68"/>
</g>
<!-- Node6 -->
<g id="node6" class="node">
<title>Node6</title>
<g id="a_node6"><a xlink:href="bwWidget_8h.html" target="_top" xlink:title=" ">
<polygon fill="none" stroke="black" points="550,-168.5 550,-187.5 618,-187.5 618,-168.5 550,-168.5"/>
<text text-anchor="middle" x="584" y="-175.5" font-family="Helvetica,sans-Serif" font-size="10.00">bwWidget.h</text>
</a>
</g>
</g>
<!-- Node2&#45;&gt;Node6 -->
<g id="edge5" class="edge">
<title>Node2&#45;&gt;Node6</title>
<path fill="none" stroke="midnightblue" d="M432.52,-224.44C463.07,-215.28 511.71,-200.69 545.6,-190.52"/>
<polygon fill="midnightblue" stroke="midnightblue" points="547.04,-193.74 555.61,-187.52 545.03,-187.04 547.04,-193.74"/>
</g>
<!-- Node20 -->
<g id="node20" class="node">
<title>Node20</title>
<g id="a_node20"><a xlink:href="bwWidgetBaseStyle_8h.html" target="_top" xlink:title=" ">
<polygon fill="none" stroke="black" points="674.5,-168.5 674.5,-187.5 787.5,-187.5 787.5,-168.5 674.5,-168.5"/>
<text text-anchor="middle" x="731" y="-175.5" font-family="Helvetica,sans-Serif" font-size="10.00">bwWidgetBaseStyle.h</text>
</a>
</g>
</g>
<!-- Node2&#45;&gt;Node20 -->
<g id="edge23" class="edge">
<title>Node2&#45;&gt;Node20</title>
<path fill="none" stroke="midnightblue" d="M455.81,-224.44C513.82,-214.87 607.74,-199.36 669.44,-189.17"/>
<polygon fill="midnightblue" stroke="midnightblue" points="670.13,-192.6 679.43,-187.52 668.99,-185.69 670.13,-192.6"/>
</g>
<!-- Node7 -->
<g id="node7" class="node">
<title>Node7</title>
<g id="a_node7"><a xlink:title=" ">
<polygon fill="none" stroke="#bfbfbf" points="639,-56.5 639,-75.5 689,-75.5 689,-56.5 639,-56.5"/>
<text text-anchor="middle" x="664" y="-63.5" font-family="Helvetica,sans-Serif" font-size="10.00">optional</text>
</a>
</g>
</g>
<!-- Node6&#45;&gt;Node7 -->
<g id="edge6" class="edge">
<title>Node6&#45;&gt;Node7</title>
<path fill="none" stroke="midnightblue" d="M590.6,-168.43C597.51,-159.42 608.64,-144.8 618,-132 629.69,-116.02 642.7,-97.57 651.89,-84.42"/>
<polygon fill="midnightblue" stroke="midnightblue" points="654.99,-86.1 657.84,-75.89 649.25,-82.09 654.99,-86.1"/>
</g>
<!-- Node8 -->
<g id="node8" class="node">
<title>Node8</title>
<g id="a_node8"><a xlink:title=" ">
<polygon fill="none" stroke="#bfbfbf" points="558.5,-112.5 558.5,-131.5 609.5,-131.5 609.5,-112.5 558.5,-112.5"/>
<text text-anchor="middle" x="584" y="-119.5" font-family="Helvetica,sans-Serif" font-size="10.00">typeinfo</text>
</a>
</g>
</g>
<!-- Node6&#45;&gt;Node8 -->
<g id="edge7" class="edge">
<title>Node6&#45;&gt;Node8</title>
<path fill="none" stroke="midnightblue" d="M584,-168.08C584,-161.01 584,-150.86 584,-141.99"/>
<polygon fill="midnightblue" stroke="midnightblue" points="587.5,-141.75 584,-131.75 580.5,-141.75 587.5,-141.75"/>
</g>
<!-- Node9 -->
<g id="node9" class="node">
<title>Node9</title>
<g id="a_node9"><a xlink:href="bwDistance_8h.html" target="_top" xlink:title=" ">
<polygon fill="none" stroke="black" points="788.5,-112.5 788.5,-131.5 865.5,-131.5 865.5,-112.5 788.5,-112.5"/>
<text text-anchor="middle" x="827" y="-119.5" font-family="Helvetica,sans-Serif" font-size="10.00">bwDistance.h</text>
</a>
</g>
</g>
<!-- Node6&#45;&gt;Node9 -->
<g id="edge8" class="edge">
<title>Node6&#45;&gt;Node9</title>
<path fill="none" stroke="midnightblue" d="M618.04,-169.43C659.78,-160.16 730.82,-144.37 778.32,-133.82"/>
<polygon fill="midnightblue" stroke="midnightblue" points="779.37,-137.17 788.37,-131.58 777.85,-130.34 779.37,-137.17"/>
</g>
<!-- Node12 -->
<g id="node12" class="node">
<title>Node12</title>
<g id="a_node12"><a xlink:href="bwFunctorInterface_8h.html" target="_top" xlink:title=" ">
<polygon fill="none" stroke="black" points="431.5,-112.5 431.5,-131.5 540.5,-131.5 540.5,-112.5 431.5,-112.5"/>
<text text-anchor="middle" x="486" y="-119.5" font-family="Helvetica,sans-Serif" font-size="10.00">bwFunctorInterface.h</text>
</a>
</g>
</g>
<!-- Node6&#45;&gt;Node12 -->
<g id="edge11" class="edge">
<title>Node6&#45;&gt;Node12</title>
<path fill="none" stroke="midnightblue" d="M568.25,-168.32C552.68,-159.74 528.62,-146.49 510.54,-136.52"/>
<polygon fill="midnightblue" stroke="midnightblue" points="512.15,-133.42 501.71,-131.65 508.78,-139.55 512.15,-133.42"/>
</g>
<!-- Node13 -->
<g id="node13" class="node">
<title>Node13</title>
<g id="a_node13"><a xlink:href="bwRectangle_8h.html" target="_top" xlink:title=" ">
<polygon fill="none" stroke="black" points="884,-112.5 884,-131.5 966,-131.5 966,-112.5 884,-112.5"/>
<text text-anchor="middle" x="925" y="-119.5" font-family="Helvetica,sans-Serif" font-size="10.00">bwRectangle.h</text>
</a>
</g>
</g>
<!-- Node6&#45;&gt;Node13 -->
<g id="edge12" class="edge">
<title>Node6&#45;&gt;Node13</title>
<path fill="none" stroke="midnightblue" d="M618.06,-170.45C622.74,-169.6 627.48,-168.76 632,-168 736.09,-150.51 764.99,-149.5 873.75,-132"/>
<polygon fill="midnightblue" stroke="midnightblue" points="874.51,-135.42 883.82,-130.37 873.39,-128.51 874.51,-135.42"/>
</g>
<!-- Node14 -->
<g id="node14" class="node">
<title>Node14</title>
<g id="a_node14"><a xlink:href="bwStyleProperties_8h.html" target="_top" xlink:title=" ">
<polygon fill="none" stroke="black" points="666,-112.5 666,-131.5 770,-131.5 770,-112.5 666,-112.5"/>
<text text-anchor="middle" x="718" y="-119.5" font-family="Helvetica,sans-Serif" font-size="10.00">bwStyleProperties.h</text>
</a>
</g>
</g>
<!-- Node6&#45;&gt;Node14 -->
<g id="edge13" class="edge">
<title>Node6&#45;&gt;Node14</title>
<path fill="none" stroke="midnightblue" d="M605.23,-168.44C627.38,-159.52 662.32,-145.44 687.44,-135.32"/>
<polygon fill="midnightblue" stroke="midnightblue" points="688.9,-138.5 696.87,-131.52 686.28,-132.01 688.9,-138.5"/>
</g>
<!-- Node15 -->
<g id="node15" class="node">
<title>Node15</title>
<g id="a_node15"><a xlink:href="EventHandler_8h.html" target="_top" xlink:title=" ">
<polygon fill="none" stroke="black" points="268.5,-112.5 268.5,-131.5 413.5,-131.5 413.5,-112.5 268.5,-112.5"/>
<text text-anchor="middle" x="341" y="-119.5" font-family="Helvetica,sans-Serif" font-size="10.00">screen_graph/EventHandler.h</text>
</a>
</g>
</g>
<!-- Node6&#45;&gt;Node15 -->
<g id="edge18" class="edge">
<title>Node6&#45;&gt;Node15</title>
<path fill="none" stroke="midnightblue" d="M549.96,-169.43C508.22,-160.16 437.18,-144.37 389.68,-133.82"/>
<polygon fill="midnightblue" stroke="midnightblue" points="390.15,-130.34 379.63,-131.58 388.63,-137.17 390.15,-130.34"/>
</g>
<!-- Node10 -->
<g id="node10" class="node">
<title>Node10</title>
<g id="a_node10"><a xlink:href="bwPoint_8h.html" target="_top" xlink:title=" ">
<polygon fill="none" stroke="black" points="797,-56.5 797,-75.5 857,-75.5 857,-56.5 797,-56.5"/>
<text text-anchor="middle" x="827" y="-63.5" font-family="Helvetica,sans-Serif" font-size="10.00">bwPoint.h</text>
</a>
</g>
</g>
<!-- Node9&#45;&gt;Node10 -->
<g id="edge9" class="edge">
<title>Node9&#45;&gt;Node10</title>
<path fill="none" stroke="midnightblue" d="M827,-112.08C827,-105.01 827,-94.86 827,-85.99"/>
<polygon fill="midnightblue" stroke="midnightblue" points="830.5,-85.75 827,-75.75 823.5,-85.75 830.5,-85.75"/>
</g>
<!-- Node11 -->
<g id="node11" class="node">
<title>Node11</title>
<g id="a_node11"><a xlink:title=" ">
<polygon fill="none" stroke="#bfbfbf" points="805,-0.5 805,-19.5 849,-19.5 849,-0.5 805,-0.5"/>
<text text-anchor="middle" x="827" y="-7.5" font-family="Helvetica,sans-Serif" font-size="10.00">vector</text>
</a>
</g>
</g>
<!-- Node10&#45;&gt;Node11 -->
<g id="edge10" class="edge">
<title>Node10&#45;&gt;Node11</title>
<path fill="none" stroke="midnightblue" d="M827,-56.08C827,-49.01 827,-38.86 827,-29.99"/>
<polygon fill="midnightblue" stroke="midnightblue" points="830.5,-29.75 827,-19.75 823.5,-29.75 830.5,-29.75"/>
</g>
<!-- Node14&#45;&gt;Node3 -->
<g id="edge14" class="edge">
<title>Node14&#45;&gt;Node3</title>
<path fill="none" stroke="midnightblue" d="M770.23,-113.03C842.78,-101.97 972.2,-82.22 1035.34,-72.59"/>
<polygon fill="midnightblue" stroke="midnightblue" points="1036.25,-75.99 1045.6,-71.03 1035.19,-69.07 1036.25,-75.99"/>
</g>
<!-- Node14&#45;&gt;Node4 -->
<g id="edge16" class="edge">
<title>Node14&#45;&gt;Node4</title>
<path fill="none" stroke="midnightblue" d="M665.66,-116.17C559.88,-106.38 323.84,-84.43 243,-76 227.09,-74.34 209.4,-72.34 194.8,-70.65"/>
<polygon fill="midnightblue" stroke="midnightblue" points="195.12,-67.16 184.78,-69.48 194.31,-74.11 195.12,-67.16"/>
</g>
<!-- Node14&#45;&gt;Node7 -->
<g id="edge15" class="edge">
<title>Node14&#45;&gt;Node7</title>
<path fill="none" stroke="midnightblue" d="M709.08,-112.08C701.22,-104.22 689.57,-92.57 680.08,-83.08"/>
<polygon fill="midnightblue" stroke="midnightblue" points="682.3,-80.35 672.75,-75.75 677.35,-85.3 682.3,-80.35"/>
</g>
<!-- Node14&#45;&gt;Node11 -->
<g id="edge17" class="edge">
<title>Node14&#45;&gt;Node11</title>
<path fill="none" stroke="midnightblue" d="M726.55,-112.37C744.86,-93.89 788.06,-50.29 811.4,-26.74"/>
<polygon fill="midnightblue" stroke="midnightblue" points="813.93,-29.16 818.49,-19.59 808.96,-24.23 813.93,-29.16"/>
</g>
<!-- Node16 -->
<g id="node16" class="node">
<title>Node16</title>
<g id="a_node16"><a xlink:title=" ">
<polygon fill="none" stroke="#bfbfbf" points="49,-56.5 49,-75.5 87,-75.5 87,-56.5 49,-56.5"/>
<text text-anchor="middle" x="68" y="-63.5" font-family="Helvetica,sans-Serif" font-size="10.00">array</text>
</a>
</g>
</g>
<!-- Node15&#45;&gt;Node16 -->
<g id="edge19" class="edge">
<title>Node15&#45;&gt;Node16</title>
<path fill="none" stroke="midnightblue" d="M297.74,-112.44C241.69,-101.36 145.46,-82.32 97.28,-72.79"/>
<polygon fill="midnightblue" stroke="midnightblue" points="97.7,-69.31 87.21,-70.8 96.34,-76.17 97.7,-69.31"/>
</g>
<!-- Node17 -->
<g id="node17" class="node">
<title>Node17</title>
<g id="a_node17"><a xlink:title=" ">
<polygon fill="none" stroke="#bfbfbf" points="400.5,-56.5 400.5,-75.5 459.5,-75.5 459.5,-56.5 400.5,-56.5"/>
<text text-anchor="middle" x="430" y="-63.5" font-family="Helvetica,sans-Serif" font-size="10.00">functional</text>
</a>
</g>
</g>
<!-- Node15&#45;&gt;Node17 -->
<g id="edge20" class="edge">
<title>Node15&#45;&gt;Node17</title>
<path fill="none" stroke="midnightblue" d="M355.3,-112.32C369.18,-103.9 390.49,-90.97 406.8,-81.07"/>
<polygon fill="midnightblue" stroke="midnightblue" points="409,-83.83 415.74,-75.65 405.37,-77.85 409,-83.83"/>
</g>
<!-- Node18 -->
<g id="node18" class="node">
<title>Node18</title>
<g id="a_node18"><a xlink:title=" ">
<polygon fill="none" stroke="#bfbfbf" points="252.5,-56.5 252.5,-75.5 281.5,-75.5 281.5,-56.5 252.5,-56.5"/>
<text text-anchor="middle" x="267" y="-63.5" font-family="Helvetica,sans-Serif" font-size="10.00">list</text>
</a>
</g>
</g>
<!-- Node15&#45;&gt;Node18 -->
<g id="edge21" class="edge">
<title>Node15&#45;&gt;Node18</title>
<path fill="none" stroke="midnightblue" d="M329.11,-112.32C317.85,-104.11 300.71,-91.6 287.29,-81.81"/>
<polygon fill="midnightblue" stroke="midnightblue" points="289.25,-78.9 279.11,-75.83 285.12,-84.56 289.25,-78.9"/>
</g>
<!-- Node19 -->
<g id="node19" class="node">
<title>Node19</title>
<g id="a_node19"><a xlink:title=" ">
<polygon fill="none" stroke="#bfbfbf" points="299.5,-56.5 299.5,-75.5 382.5,-75.5 382.5,-56.5 299.5,-56.5"/>
<text text-anchor="middle" x="341" y="-63.5" font-family="Helvetica,sans-Serif" font-size="10.00">unordered_map</text>
</a>
</g>
</g>
<!-- Node15&#45;&gt;Node19 -->
<g id="edge22" class="edge">
<title>Node15&#45;&gt;Node19</title>
<path fill="none" stroke="midnightblue" d="M341,-112.08C341,-105.01 341,-94.86 341,-85.99"/>
<polygon fill="midnightblue" stroke="midnightblue" points="344.5,-85.75 341,-75.75 337.5,-85.75 344.5,-85.75"/>
</g>
<!-- Node21 -->
<g id="node21" class="node">
<title>Node21</title>
<g id="a_node21"><a xlink:href="bwColor_8h.html" target="_top" xlink:title=" ">
<polygon fill="none" stroke="black" points="984,-112.5 984,-131.5 1044,-131.5 1044,-112.5 984,-112.5"/>
<text text-anchor="middle" x="1014" y="-119.5" font-family="Helvetica,sans-Serif" font-size="10.00">bwColor.h</text>
</a>
</g>
</g>
<!-- Node20&#45;&gt;Node21 -->
<g id="edge24" class="edge">
<title>Node20&#45;&gt;Node21</title>
<path fill="none" stroke="midnightblue" d="M781.13,-168.43C828.32,-160.2 901.23,-147.11 973.59,-132.22"/>
<polygon fill="midnightblue" stroke="midnightblue" points="974.71,-135.56 983.8,-130.11 973.29,-128.71 974.71,-135.56"/>
</g>
<!-- Node22&#45;&gt;Node3 -->
<g id="edge26" class="edge">
<title>Node22&#45;&gt;Node3</title>
<path fill="none" stroke="midnightblue" d="M1065.41,-224.41C1072.28,-215.84 1082.01,-201.98 1086,-188 1095.28,-155.52 1091.07,-145.39 1086,-112 1084.63,-103 1081.81,-93.33 1079.05,-85.26"/>
<polygon fill="midnightblue" stroke="midnightblue" points="1082.31,-83.98 1075.6,-75.78 1075.73,-86.37 1082.31,-83.98"/>
</g>
<!-- Node22&#45;&gt;Node4 -->
<g id="edge27" class="edge">
<title>Node22&#45;&gt;Node4</title>
<path fill="none" stroke="midnightblue" d="M1023.91,-231.13C890.07,-223.43 400.94,-191.68 259,-132 229.55,-119.62 199.84,-97.36 181.68,-82.38"/>
<polygon fill="midnightblue" stroke="midnightblue" points="183.64,-79.46 173.74,-75.69 179.13,-84.81 183.64,-79.46"/>
</g>
<!-- Node22&#45;&gt;Node11 -->
<g id="edge28" class="edge">
<title>Node22&#45;&gt;Node11</title>
<path fill="none" stroke="midnightblue" d="M1092.41,-233.88C1152.94,-233.96 1269.58,-226.72 1242,-168 1174.16,-23.57 944.4,-10.08 859.17,-10.19"/>
<polygon fill="midnightblue" stroke="midnightblue" points="859.02,-6.69 849.05,-10.27 859.08,-13.69 859.02,-6.69"/>
</g>
<!-- Node23 -->
<g id="node23" class="node">
<title>Node23</title>
<g id="a_node23"><a xlink:href="bwGradient_8h.html" target="_top" xlink:title=" ">
<polygon fill="none" stroke="black" points="970,-168.5 970,-187.5 1044,-187.5 1044,-168.5 970,-168.5"/>
<text text-anchor="middle" x="1007" y="-175.5" font-family="Helvetica,sans-Serif" font-size="10.00">bwGradient.h</text>
</a>
</g>
</g>
<!-- Node22&#45;&gt;Node23 -->
<g id="edge29" class="edge">
<title>Node22&#45;&gt;Node23</title>
<path fill="none" stroke="midnightblue" d="M1049.58,-224.08C1042.15,-216.22 1031.15,-204.57 1022.19,-195.08"/>
<polygon fill="midnightblue" stroke="midnightblue" points="1024.68,-192.62 1015.26,-187.75 1019.59,-197.42 1024.68,-192.62"/>
</g>
<!-- Node24 -->
<g id="node24" class="node">
<title>Node24</title>
<g id="a_node24"><a xlink:href="bwIconInterface_8h.html" target="_top" xlink:title=" ">
<polygon fill="none" stroke="black" points="1138.5,-168.5 1138.5,-187.5 1233.5,-187.5 1233.5,-168.5 1138.5,-168.5"/>
<text text-anchor="middle" x="1186" y="-175.5" font-family="Helvetica,sans-Serif" font-size="10.00">bwIconInterface.h</text>
</a>
</g>
</g>
<!-- Node22&#45;&gt;Node24 -->
<g id="edge32" class="edge">
<title>Node22&#45;&gt;Node24</title>
<path fill="none" stroke="midnightblue" d="M1078.28,-224.44C1099.35,-215.56 1132.52,-201.56 1156.49,-191.45"/>
<polygon fill="midnightblue" stroke="midnightblue" points="1157.96,-194.63 1165.81,-187.52 1155.24,-188.18 1157.96,-194.63"/>
</g>
<!-- Node23&#45;&gt;Node13 -->
<g id="edge31" class="edge">
<title>Node23&#45;&gt;Node13</title>
<path fill="none" stroke="midnightblue" d="M993.83,-168.32C981.15,-159.98 961.77,-147.21 946.79,-137.35"/>
<polygon fill="midnightblue" stroke="midnightblue" points="948.42,-134.23 938.14,-131.65 944.57,-140.08 948.42,-134.23"/>
</g>
<!-- Node23&#45;&gt;Node21 -->
<g id="edge30" class="edge">
<title>Node23&#45;&gt;Node21</title>
<path fill="none" stroke="midnightblue" d="M1008.16,-168.08C1009.08,-160.93 1010.42,-150.64 1011.58,-141.69"/>
<polygon fill="midnightblue" stroke="midnightblue" points="1015.05,-142.12 1012.87,-131.75 1008.11,-141.22 1015.05,-142.12"/>
</g>
<!-- Node26 -->
<g id="node26" class="node">
<title>Node26</title>
<g id="a_node26"><a xlink:href="bwStyle_8h.html" target="_top" xlink:title=" ">
<polygon fill="none" stroke="black" points="0,-112.5 0,-131.5 60,-131.5 60,-112.5 0,-112.5"/>
<text text-anchor="middle" x="30" y="-119.5" font-family="Helvetica,sans-Serif" font-size="10.00">bwStyle.h</text>
</a>
</g>
</g>
<!-- Node25&#45;&gt;Node26 -->
<g id="edge34" class="edge">
<title>Node25&#45;&gt;Node26</title>
<path fill="none" stroke="midnightblue" d="M150.43,-343.66C117.79,-340.25 73.47,-329.93 49,-300 11.22,-253.8 19.63,-176.59 26.04,-141.44"/>
<polygon fill="midnightblue" stroke="midnightblue" points="29.48,-142.08 27.99,-131.59 22.61,-140.72 29.48,-142.08"/>
</g>
<!-- Node26&#45;&gt;Node4 -->
<g id="edge36" class="edge">
<title>Node26&#45;&gt;Node4</title>
<path fill="none" stroke="midnightblue" d="M51.23,-112.44C73.51,-103.46 108.73,-89.27 133.88,-79.14"/>
<polygon fill="midnightblue" stroke="midnightblue" points="135.34,-82.32 143.31,-75.34 132.72,-75.83 135.34,-82.32"/>
</g>
<!-- Node26&#45;&gt;Node16 -->
<g id="edge35" class="edge">
<title>Node26&#45;&gt;Node16</title>
<path fill="none" stroke="midnightblue" d="M36.27,-112.08C41.64,-104.46 49.52,-93.26 56.08,-83.94"/>
<polygon fill="midnightblue" stroke="midnightblue" points="58.95,-85.94 61.84,-75.75 53.22,-81.91 58.95,-85.94"/>
</g>
<!-- Node28 -->
<g id="node28" class="node">
<title>Node28</title>
<g id="a_node28"><a xlink:href="bwCheckbox_8h.html" target="_top" xlink:title=" ">
<polygon fill="none" stroke="black" points="314,-280.5 314,-299.5 396,-299.5 396,-280.5 314,-280.5"/>
<text text-anchor="middle" x="355" y="-287.5" font-family="Helvetica,sans-Serif" font-size="10.00">bwCheckbox.h</text>
</a>
</g>
</g>
<!-- Node27&#45;&gt;Node28 -->
<g id="edge38" class="edge">
<title>Node27&#45;&gt;Node28</title>
<path fill="none" stroke="midnightblue" d="M482.07,-336.44C456.78,-327.4 416.7,-313.06 388.32,-302.92"/>
<polygon fill="midnightblue" stroke="midnightblue" points="389.41,-299.59 378.81,-299.52 387.05,-306.18 389.41,-299.59"/>
</g>
<!-- Node29 -->
<g id="node29" class="node">
<title>Node29</title>
<g id="a_node29"><a xlink:href="bwLabel_8h.html" target="_top" xlink:title=" ">
<polygon fill="none" stroke="black" points="189.5,-224.5 189.5,-243.5 250.5,-243.5 250.5,-224.5 189.5,-224.5"/>
<text text-anchor="middle" x="220" y="-231.5" font-family="Helvetica,sans-Serif" font-size="10.00">bwLabel.h</text>
</a>
</g>
</g>
<!-- Node27&#45;&gt;Node29 -->
<g id="edge40" class="edge">
<title>Node27&#45;&gt;Node29</title>
<path fill="none" stroke="midnightblue" d="M461.39,-345.33C384.18,-344.86 230.65,-338.9 197,-300 185.07,-286.2 195.49,-265.8 205.88,-251.55"/>
<polygon fill="midnightblue" stroke="midnightblue" points="208.72,-253.6 212.15,-243.58 203.21,-249.28 208.72,-253.6"/>
</g>
<!-- Node30 -->
<g id="node30" class="node">
<title>Node30</title>
<g id="a_node30"><a xlink:href="bwNumberSlider_8h.html" target="_top" xlink:title=" ">
<polygon fill="none" stroke="black" points="510,-280.5 510,-299.5 606,-299.5 606,-280.5 510,-280.5"/>
<text text-anchor="middle" x="558" y="-287.5" font-family="Helvetica,sans-Serif" font-size="10.00">bwNumberSlider.h</text>
</a>
</g>
</g>
<!-- Node27&#45;&gt;Node30 -->
<g id="edge44" class="edge">
<title>Node27&#45;&gt;Node30</title>
<path fill="none" stroke="midnightblue" d="M514.59,-336.08C522.16,-328.22 533.38,-316.57 542.51,-307.08"/>
<polygon fill="midnightblue" stroke="midnightblue" points="545.16,-309.38 549.57,-299.75 540.12,-304.53 545.16,-309.38"/>
</g>
<!-- Node31 -->
<g id="node31" class="node">
<title>Node31</title>
<g id="a_node31"><a xlink:href="bwTextBox_8h.html" target="_top" xlink:title=" ">
<polygon fill="none" stroke="black" points="566,-224.5 566,-243.5 640,-243.5 640,-224.5 566,-224.5"/>
<text text-anchor="middle" x="603" y="-231.5" font-family="Helvetica,sans-Serif" font-size="10.00">bwTextBox.h</text>
</a>
</g>
</g>
<!-- Node27&#45;&gt;Node31 -->
<g id="edge63" class="edge">
<title>Node27&#45;&gt;Node31</title>
<path fill="none" stroke="midnightblue" d="M550.68,-338.56C574.03,-332.68 600.66,-321.44 615,-300 624.35,-286.03 619.07,-266.77 612.85,-252.85"/>
<polygon fill="midnightblue" stroke="midnightblue" points="615.93,-251.19 608.34,-243.8 609.67,-254.31 615.93,-251.19"/>
</g>
<!-- Node32 -->
<g id="node32" class="node">
<title>Node32</title>
<g id="a_node32"><a xlink:href="bwPanel_8h.html" target="_top" xlink:title=" ">
<polygon fill="none" stroke="black" points="700,-280.5 700,-299.5 762,-299.5 762,-280.5 700,-280.5"/>
<text text-anchor="middle" x="731" y="-287.5" font-family="Helvetica,sans-Serif" font-size="10.00">bwPanel.h</text>
</a>
</g>
</g>
<!-- Node27&#45;&gt;Node32 -->
<g id="edge48" class="edge">
<title>Node27&#45;&gt;Node32</title>
<path fill="none" stroke="midnightblue" d="M541.65,-336.44C582.03,-326.75 647.72,-310.99 690.13,-300.81"/>
<polygon fill="midnightblue" stroke="midnightblue" points="690.96,-304.21 699.86,-298.47 689.32,-297.4 690.96,-304.21"/>
</g>
<!-- Node34 -->
<g id="node34" class="node">
<title>Node34</title>
<g id="a_node34"><a xlink:href="bwPushButton_8h.html" target="_top" xlink:title=" ">
<polygon fill="none" stroke="black" points="206.5,-280.5 206.5,-299.5 295.5,-299.5 295.5,-280.5 206.5,-280.5"/>
<text text-anchor="middle" x="251" y="-287.5" font-family="Helvetica,sans-Serif" font-size="10.00">bwPushButton.h</text>
</a>
</g>
</g>
<!-- Node27&#45;&gt;Node34 -->
<g id="edge52" class="edge">
<title>Node27&#45;&gt;Node34</title>
<path fill="none" stroke="midnightblue" d="M465.59,-336.44C421.02,-327 349.23,-311.8 301.11,-301.61"/>
<polygon fill="midnightblue" stroke="midnightblue" points="301.72,-298.16 291.22,-299.52 300.27,-305.01 301.72,-298.16"/>
</g>
<!-- Node35 -->
<g id="node35" class="node">
<title>Node35</title>
<g id="a_node35"><a xlink:href="bwRadioButton_8h.html" target="_top" xlink:title=" ">
<polygon fill="none" stroke="black" points="58,-280.5 58,-299.5 150,-299.5 150,-280.5 58,-280.5"/>
<text text-anchor="middle" x="104" y="-287.5" font-family="Helvetica,sans-Serif" font-size="10.00">bwRadioButton.h</text>
</a>
</g>
</g>
<!-- Node27&#45;&gt;Node35 -->
<g id="edge55" class="edge">
<title>Node27&#45;&gt;Node35</title>
<path fill="none" stroke="midnightblue" d="M461.42,-339.4C396.11,-331.12 270.6,-315.01 164,-300 162.74,-299.82 161.46,-299.64 160.18,-299.46"/>
<polygon fill="midnightblue" stroke="midnightblue" points="160.57,-295.98 150.18,-298.01 159.57,-302.91 160.57,-295.98"/>
</g>
<!-- Node36 -->
<g id="node36" class="node">
<title>Node36</title>
<g id="a_node36"><a xlink:href="bwScrollBar_8h.html" target="_top" xlink:title=" ">
<polygon fill="none" stroke="black" points="414.5,-280.5 414.5,-299.5 491.5,-299.5 491.5,-280.5 414.5,-280.5"/>
<text text-anchor="middle" x="453" y="-287.5" font-family="Helvetica,sans-Serif" font-size="10.00">bwScrollBar.h</text>
</a>
</g>
</g>
<!-- Node27&#45;&gt;Node36 -->
<g id="edge58" class="edge">
<title>Node27&#45;&gt;Node36</title>
<path fill="none" stroke="midnightblue" d="M497.25,-336.08C489.53,-328.22 478.1,-316.57 468.78,-307.08"/>
<polygon fill="midnightblue" stroke="midnightblue" points="471.09,-304.44 461.59,-299.75 466.1,-309.34 471.09,-304.44"/>
</g>
<!-- Node37 -->
<g id="node37" class="node">
<title>Node37</title>
<g id="a_node37"><a xlink:href="bwScrollView_8h.html" target="_top" xlink:title=" ">
<polygon fill="none" stroke="black" points="780.5,-280.5 780.5,-299.5 863.5,-299.5 863.5,-280.5 780.5,-280.5"/>
<text text-anchor="middle" x="822" y="-287.5" font-family="Helvetica,sans-Serif" font-size="10.00">bwScrollView.h</text>
</a>
</g>
</g>
<!-- Node27&#45;&gt;Node37 -->
<g id="edge60" class="edge">
<title>Node27&#45;&gt;Node37</title>
<path fill="none" stroke="midnightblue" d="M550.56,-337.52C601.22,-329 686.7,-314.57 770.33,-300.11"/>
<polygon fill="midnightblue" stroke="midnightblue" points="771,-303.54 780.26,-298.39 769.8,-296.65 771,-303.54"/>
</g>
<!-- Node28&#45;&gt;Node2 -->
<g id="edge39" class="edge">
<title>Node28&#45;&gt;Node2</title>
<path fill="none" stroke="midnightblue" d="M363.09,-280.08C370.16,-272.3 380.59,-260.8 389.15,-251.37"/>
<polygon fill="midnightblue" stroke="midnightblue" points="391.93,-253.51 396.06,-243.75 386.75,-248.8 391.93,-253.51"/>
</g>
<!-- Node29&#45;&gt;Node4 -->
<g id="edge41" class="edge">
<title>Node29&#45;&gt;Node4</title>
<path fill="none" stroke="midnightblue" d="M212.16,-224.38C204.78,-215.79 194,-201.91 188,-188 173.22,-153.7 167.44,-109.99 165.26,-85.6"/>
<polygon fill="midnightblue" stroke="midnightblue" points="168.74,-85.27 164.47,-75.58 161.76,-85.82 168.74,-85.27"/>
</g>
<!-- Node29&#45;&gt;Node6 -->
<g id="edge43" class="edge">
<title>Node29&#45;&gt;Node6</title>
<path fill="none" stroke="midnightblue" d="M250.72,-228.44C315.22,-218.87 464.94,-196.66 539.77,-185.56"/>
<polygon fill="midnightblue" stroke="midnightblue" points="540.44,-189 549.81,-184.07 539.41,-182.08 540.44,-189"/>
</g>
<!-- Node29&#45;&gt;Node21 -->
<g id="edge42" class="edge">
<title>Node29&#45;&gt;Node21</title>
<path fill="none" stroke="midnightblue" d="M250.61,-230.28C339.1,-222.32 591.23,-198.96 627,-188 645.25,-182.41 646.77,-173.64 665,-168 794.4,-127.97 836.36,-154.33 973.77,-132"/>
<polygon fill="midnightblue" stroke="midnightblue" points="974.55,-135.42 983.83,-130.31 973.39,-128.52 974.55,-135.42"/>
</g>
<!-- Node30&#45;&gt;Node31 -->
<g id="edge45" class="edge">
<title>Node30&#45;&gt;Node31</title>
<path fill="none" stroke="midnightblue" d="M565.43,-280.08C571.85,-272.38 581.31,-261.03 589.12,-251.65"/>
<polygon fill="midnightblue" stroke="midnightblue" points="591.99,-253.67 595.71,-243.75 586.62,-249.19 591.99,-253.67"/>
</g>
<!-- Node31&#45;&gt;Node6 -->
<g id="edge46" class="edge">
<title>Node31&#45;&gt;Node6</title>
<path fill="none" stroke="midnightblue" d="M599.86,-224.08C597.32,-216.85 593.64,-206.41 590.47,-197.4"/>
<polygon fill="midnightblue" stroke="midnightblue" points="593.7,-196.02 587.08,-187.75 587.1,-198.35 593.7,-196.02"/>
</g>
<!-- Node31&#45;&gt;Node20 -->
<g id="edge47" class="edge">
<title>Node31&#45;&gt;Node20</title>
<path fill="none" stroke="midnightblue" d="M623.28,-224.44C644.35,-215.56 677.52,-201.56 701.49,-191.45"/>
<polygon fill="midnightblue" stroke="midnightblue" points="702.96,-194.63 710.81,-187.52 700.24,-188.18 702.96,-194.63"/>
</g>
<!-- Node33 -->
<g id="node33" class="node">
<title>Node33</title>
<g id="a_node33"><a xlink:href="bwContainerWidget_8h.html" target="_top" xlink:title=" ">
<polygon fill="none" stroke="black" points="676,-224.5 676,-243.5 786,-243.5 786,-224.5 676,-224.5"/>
<text text-anchor="middle" x="731" y="-231.5" font-family="Helvetica,sans-Serif" font-size="10.00">bwContainerWidget.h</text>
</a>
</g>
</g>
<!-- Node32&#45;&gt;Node33 -->
<g id="edge49" class="edge">
<title>Node32&#45;&gt;Node33</title>
<path fill="none" stroke="midnightblue" d="M731,-280.08C731,-273.01 731,-262.86 731,-253.99"/>
<polygon fill="midnightblue" stroke="midnightblue" points="734.5,-253.75 731,-243.75 727.5,-253.75 734.5,-253.75"/>
</g>
<!-- Node33&#45;&gt;Node6 -->
<g id="edge50" class="edge">
<title>Node33&#45;&gt;Node6</title>
<path fill="none" stroke="midnightblue" d="M707.71,-224.44C683.19,-215.44 644.4,-201.19 616.8,-191.05"/>
<polygon fill="midnightblue" stroke="midnightblue" points="617.78,-187.68 607.18,-187.52 615.36,-194.25 617.78,-187.68"/>
</g>
<!-- Node33&#45;&gt;Node20 -->
<g id="edge51" class="edge">
<title>Node33&#45;&gt;Node20</title>
<path fill="none" stroke="midnightblue" d="M731,-224.08C731,-217.01 731,-206.86 731,-197.99"/>
<polygon fill="midnightblue" stroke="midnightblue" points="734.5,-197.75 731,-187.75 727.5,-197.75 734.5,-197.75"/>
</g>
<!-- Node34&#45;&gt;Node2 -->
<g id="edge54" class="edge">
<title>Node34&#45;&gt;Node2</title>
<path fill="none" stroke="midnightblue" d="M275.24,-280.44C300.87,-271.4 341.49,-257.06 370.24,-246.92"/>
<polygon fill="midnightblue" stroke="midnightblue" points="371.61,-250.15 379.87,-243.52 369.28,-243.54 371.61,-250.15"/>
</g>
<!-- Node34&#45;&gt;Node4 -->
<g id="edge53" class="edge">
<title>Node34&#45;&gt;Node4</title>
<path fill="none" stroke="midnightblue" d="M227.61,-280.41C211.51,-273.22 191.1,-261.33 180,-244 148.16,-194.27 154.98,-119.98 160.46,-85.64"/>
<polygon fill="midnightblue" stroke="midnightblue" points="163.93,-86.07 162.2,-75.62 157.04,-84.87 163.93,-86.07"/>
</g>
<!-- Node35&#45;&gt;Node2 -->
<g id="edge57" class="edge">
<title>Node35&#45;&gt;Node2</title>
<path fill="none" stroke="midnightblue" d="M150.22,-280.68C203.09,-271.16 289.7,-255.57 346.79,-245.3"/>
<polygon fill="midnightblue" stroke="midnightblue" points="347.52,-248.72 356.74,-243.51 346.28,-241.83 347.52,-248.72"/>
</g>
<!-- Node35&#45;&gt;Node4 -->
<g id="edge56" class="edge">
<title>Node35&#45;&gt;Node4</title>
<path fill="none" stroke="midnightblue" d="M102.11,-280.31C96.74,-253.56 83.56,-170.68 112,-112 118.02,-99.58 129.21,-89.2 139.67,-81.55"/>
<polygon fill="midnightblue" stroke="midnightblue" points="141.86,-84.3 148.16,-75.78 137.92,-78.51 141.86,-84.3"/>
</g>
<!-- Node36&#45;&gt;Node2 -->
<g id="edge59" class="edge">
<title>Node36&#45;&gt;Node2</title>
<path fill="none" stroke="midnightblue" d="M444.91,-280.08C437.84,-272.3 427.41,-260.8 418.85,-251.37"/>
<polygon fill="midnightblue" stroke="midnightblue" points="421.25,-248.8 411.94,-243.75 416.07,-253.51 421.25,-248.8"/>
</g>
<!-- Node37&#45;&gt;Node33 -->
<g id="edge62" class="edge">
<title>Node37&#45;&gt;Node33</title>
<path fill="none" stroke="midnightblue" d="M807.38,-280.32C793.05,-271.82 770.99,-258.73 754.25,-248.8"/>
<polygon fill="midnightblue" stroke="midnightblue" points="755.97,-245.75 745.58,-243.65 752.4,-251.77 755.97,-245.75"/>
</g>
<!-- Node38 -->
<g id="node38" class="node">
<title>Node38</title>
<g id="a_node38"><a xlink:title=" ">
<polygon fill="none" stroke="#bfbfbf" points="804,-224.5 804,-243.5 848,-243.5 848,-224.5 804,-224.5"/>
<text text-anchor="middle" x="826" y="-231.5" font-family="Helvetica,sans-Serif" font-size="10.00">cmath</text>
</a>
</g>
</g>
<!-- Node37&#45;&gt;Node38 -->
<g id="edge61" class="edge">
<title>Node37&#45;&gt;Node38</title>
<path fill="none" stroke="midnightblue" d="M822.66,-280.08C823.18,-273.01 823.94,-262.86 824.59,-253.99"/>
<polygon fill="midnightblue" stroke="midnightblue" points="828.1,-253.98 825.35,-243.75 821.12,-253.47 828.1,-253.98"/>
</g>
</g>
</svg>
