<?xml version="1.0" encoding="UTF-8" standalone="no"?>
<!DOCTYPE svg PUBLIC "-//W3C//DTD SVG 1.1//EN"
 "http://www.w3.org/Graphics/SVG/1.1/DTD/svg11.dtd">
<!-- Generated by graphviz version 2.50.0 (20211204.2007)
 -->
<!-- Title: bwidgets/styling/bwStyle.h Pages: 1 -->
<svg width="2351pt" height="229pt"
 viewBox="0.00 0.00 2350.50 229.00" xmlns="http://www.w3.org/2000/svg" xmlns:xlink="http://www.w3.org/1999/xlink">
<g id="graph0" class="graph" transform="scale(1 1) rotate(0) translate(4 225)">
<title>bwidgets/styling/bwStyle.h</title>
<!-- Node1 -->
<g id="node1" class="node">
<title>Node1</title>
<g id="a_node1"><a xlink:title=" ">
<polygon fill="#bfbfbf" stroke="black" points="967.5,-201.5 967.5,-220.5 1101.5,-220.5 1101.5,-201.5 967.5,-201.5"/>
<text text-anchor="middle" x="1034.5" y="-208.5" font-family="Helvetica,sans-Serif" font-size="10.00">bwidgets/styling/bwStyle.h</text>
</a>
</g>
</g>
<!-- Node2 -->
<g id="node2" class="node">
<title>Node2</title>
<g id="a_node2"><a xlink:href="bwPainter_8cc.html" target="_top" xlink:title=" ">
<polygon fill="none" stroke="black" points="0,-140 0,-159 115,-159 115,-140 0,-140"/>
<text text-anchor="middle" x="57.5" y="-147" font-family="Helvetica,sans-Serif" font-size="10.00">bwidgets/bwPainter.cc</text>
</a>
</g>
</g>
<!-- Node1&#45;&gt;Node2 -->
<g id="edge1" class="edge">
<title>Node1&#45;&gt;Node2</title>
<path fill="none" stroke="midnightblue" d="M957.22,-210.52C799.67,-210.62 430.29,-205.99 123.5,-165 112.92,-163.59 101.52,-161.35 91.22,-159.04"/>
<polygon fill="midnightblue" stroke="midnightblue" points="957.29,-214.02 967.29,-210.5 957.29,-207.02 957.29,-214.02"/>
</g>
<!-- Node3 -->
<g id="node3" class="node">
<title>Node3</title>
<g id="a_node3"><a xlink:href="Drawer_8cc.html" target="_top" xlink:title=" ">
<polygon fill="none" stroke="black" points="133,-134.5 133,-164.5 250,-164.5 250,-134.5 133,-134.5"/>
<text text-anchor="start" x="141" y="-152.5" font-family="Helvetica,sans-Serif" font-size="10.00">bwidgets/screen_graph</text>
<text text-anchor="middle" x="191.5" y="-141.5" font-family="Helvetica,sans-Serif" font-size="10.00">/Drawer.cc</text>
</a>
</g>
</g>
<!-- Node1&#45;&gt;Node3 -->
<g id="edge2" class="edge">
<title>Node1&#45;&gt;Node3</title>
<path fill="none" stroke="midnightblue" d="M957.28,-209.48C817.32,-207.66 512.71,-199.66 258.5,-165 255.79,-164.63 253.02,-164.21 250.23,-163.75"/>
<polygon fill="midnightblue" stroke="midnightblue" points="957.43,-212.98 967.47,-209.61 957.51,-205.98 957.43,-212.98"/>
</g>
<!-- Node4 -->
<g id="node4" class="node">
<title>Node4</title>
<g id="a_node4"><a xlink:href="bwStyle_8cc.html" target="_top" xlink:title=" ">
<polygon fill="none" stroke="black" points="268,-140 268,-159 407,-159 407,-140 268,-140"/>
<text text-anchor="middle" x="337.5" y="-147" font-family="Helvetica,sans-Serif" font-size="10.00">bwidgets/styling/bwStyle.cc</text>
</a>
</g>
</g>
<!-- Node1&#45;&gt;Node4 -->
<g id="edge3" class="edge">
<title>Node1&#45;&gt;Node4</title>
<path fill="none" stroke="midnightblue" d="M957.06,-207.14C839.59,-202.17 609.48,-190 415.5,-165 403.48,-163.45 390.51,-161.25 378.65,-159.04"/>
<polygon fill="midnightblue" stroke="midnightblue" points="957.25,-210.65 967.39,-207.57 957.54,-203.66 957.25,-210.65"/>
</g>
<!-- Node5 -->
<g id="node5" class="node">
<title>Node5</title>
<g id="a_node5"><a xlink:href="bwStyleCSS_8h.html" target="_top" xlink:title=" ">
<polygon fill="none" stroke="black" points="425,-134.5 425,-164.5 550,-164.5 550,-134.5 425,-134.5"/>
<text text-anchor="start" x="433" y="-152.5" font-family="Helvetica,sans-Serif" font-size="10.00">bwidgets/styling/bwStyle</text>
<text text-anchor="middle" x="487.5" y="-141.5" font-family="Helvetica,sans-Serif" font-size="10.00">CSS.h</text>
</a>
</g>
</g>
<!-- Node1&#45;&gt;Node5 -->
<g id="edge4" class="edge">
<title>Node1&#45;&gt;Node5</title>
<path fill="none" stroke="midnightblue" d="M957.13,-204.75C863.77,-197.93 702.18,-184.51 564.5,-165 559.79,-164.33 554.92,-163.58 550.04,-162.77"/>
<polygon fill="midnightblue" stroke="midnightblue" points="957.11,-208.26 967.34,-205.49 957.62,-201.28 957.11,-208.26"/>
</g>
<!-- Node12 -->
<g id="node12" class="node">
<title>Node12</title>
<g id="a_node12"><a xlink:href="bwStyleManager_8h.html" target="_top" xlink:title=" ">
<polygon fill="none" stroke="black" points="513,-67.5 513,-97.5 638,-97.5 638,-67.5 513,-67.5"/>
<text text-anchor="start" x="521" y="-85.5" font-family="Helvetica,sans-Serif" font-size="10.00">bwidgets/styling/bwStyle</text>
<text text-anchor="middle" x="575.5" y="-74.5" font-family="Helvetica,sans-Serif" font-size="10.00">Manager.h</text>
</a>
</g>
</g>
<!-- Node1&#45;&gt;Node12 -->
<g id="edge12" class="edge">
<title>Node1&#45;&gt;Node12</title>
<path fill="none" stroke="midnightblue" d="M957.31,-206.75C839.16,-201.09 624.28,-187.78 597.5,-165 577.85,-148.29 574.82,-116.03 574.85,-97.51"/>
<polygon fill="midnightblue" stroke="midnightblue" points="957.23,-210.25 967.38,-207.23 957.56,-203.26 957.23,-210.25"/>
</g>
<!-- Node13 -->
<g id="node13" class="node">
<title>Node13</title>
<g id="a_node13"><a xlink:href="bwStyleClassic_8h.html" target="_top" xlink:title=" ">
<polygon fill="none" stroke="black" points="740.5,-134.5 740.5,-164.5 856.5,-164.5 856.5,-134.5 740.5,-134.5"/>
<text text-anchor="start" x="748.5" y="-152.5" font-family="Helvetica,sans-Serif" font-size="10.00">bwidgets/styling/styles</text>
<text text-anchor="middle" x="798.5" y="-141.5" font-family="Helvetica,sans-Serif" font-size="10.00">/bwStyleClassic.h</text>
</a>
</g>
</g>
<!-- Node1&#45;&gt;Node13 -->
<g id="edge14" class="edge">
<title>Node1&#45;&gt;Node13</title>
<path fill="none" stroke="midnightblue" d="M990.8,-198.98C952.26,-189.27 895.88,-175.05 854.12,-164.52"/>
<polygon fill="midnightblue" stroke="midnightblue" points="990.13,-202.42 1000.69,-201.48 991.85,-195.64 990.13,-202.42"/>
</g>
<!-- Node15 -->
<g id="node15" class="node">
<title>Node15</title>
<g id="a_node15"><a xlink:href="bwStyleFlatGrey_8h.html" target="_top" xlink:title=" ">
<polygon fill="none" stroke="black" points="606.5,-134.5 606.5,-164.5 722.5,-164.5 722.5,-134.5 606.5,-134.5"/>
<text text-anchor="start" x="614.5" y="-152.5" font-family="Helvetica,sans-Serif" font-size="10.00">bwidgets/styling/styles</text>
<text text-anchor="middle" x="664.5" y="-141.5" font-family="Helvetica,sans-Serif" font-size="10.00">/bwStyleFlatGrey.h</text>
</a>
</g>
</g>
<!-- Node1&#45;&gt;Node15 -->
<g id="edge17" class="edge">
<title>Node1&#45;&gt;Node15</title>
<path fill="none" stroke="midnightblue" d="M958.69,-200.15C897.26,-191.83 808.57,-179.05 731.5,-165 728.57,-164.47 725.58,-163.9 722.56,-163.31"/>
<polygon fill="midnightblue" stroke="midnightblue" points="958.31,-203.63 968.69,-201.5 959.24,-196.69 958.31,-203.63"/>
</g>
<!-- Node17 -->
<g id="node17" class="node">
<title>Node17</title>
<g id="a_node17"><a xlink:href="bwAbstractButton_8cc.html" target="_top" xlink:title=" ">
<polygon fill="none" stroke="black" points="875,-134.5 875,-164.5 1020,-164.5 1020,-134.5 875,-134.5"/>
<text text-anchor="start" x="883" y="-152.5" font-family="Helvetica,sans-Serif" font-size="10.00">bwidgets/widgets/bwAbstract</text>
<text text-anchor="middle" x="947.5" y="-141.5" font-family="Helvetica,sans-Serif" font-size="10.00">Button.cc</text>
</a>
</g>
</g>
<!-- Node1&#45;&gt;Node17 -->
<g id="edge20" class="edge">
<title>Node1&#45;&gt;Node17</title>
<path fill="none" stroke="midnightblue" d="M1013.65,-195.74C999.82,-186.28 981.76,-173.93 968,-164.52"/>
<polygon fill="midnightblue" stroke="midnightblue" points="1011.8,-198.72 1022.04,-201.48 1015.76,-192.94 1011.8,-198.72"/>
</g>
<!-- Node18 -->
<g id="node18" class="node">
<title>Node18</title>
<g id="a_node18"><a xlink:href="bwCheckbox_8cc.html" target="_top" xlink:title=" ">
<polygon fill="none" stroke="black" points="1038.5,-140 1038.5,-159 1204.5,-159 1204.5,-140 1038.5,-140"/>
<text text-anchor="middle" x="1121.5" y="-147" font-family="Helvetica,sans-Serif" font-size="10.00">bwidgets/widgets/bwCheckbox.cc</text>
</a>
</g>
</g>
<!-- Node1&#45;&gt;Node18 -->
<g id="edge21" class="edge">
<title>Node1&#45;&gt;Node18</title>
<path fill="none" stroke="midnightblue" d="M1055.54,-195.61C1072.27,-184.17 1095.11,-168.55 1109.06,-159.01"/>
<polygon fill="midnightblue" stroke="midnightblue" points="1053.24,-192.94 1046.96,-201.48 1057.2,-198.72 1053.24,-192.94"/>
</g>
<!-- Node19 -->
<g id="node19" class="node">
<title>Node19</title>
<g id="a_node19"><a xlink:href="bwLabel_8cc.html" target="_top" xlink:title=" ">
<polygon fill="none" stroke="black" points="1223,-140 1223,-159 1368,-159 1368,-140 1223,-140"/>
<text text-anchor="middle" x="1295.5" y="-147" font-family="Helvetica,sans-Serif" font-size="10.00">bwidgets/widgets/bwLabel.cc</text>
</a>
</g>
</g>
<!-- Node1&#45;&gt;Node19 -->
<g id="edge22" class="edge">
<title>Node1&#45;&gt;Node19</title>
<path fill="none" stroke="midnightblue" d="M1081.94,-199.19C1132.58,-187.64 1211.79,-169.58 1258.17,-159.01"/>
<polygon fill="midnightblue" stroke="midnightblue" points="1080.87,-195.84 1071.89,-201.48 1082.42,-202.66 1080.87,-195.84"/>
</g>
<!-- Node20 -->
<g id="node20" class="node">
<title>Node20</title>
<g id="a_node20"><a xlink:href="bwNumberSlider_8cc.html" target="_top" xlink:title=" ">
<polygon fill="none" stroke="black" points="1386,-134.5 1386,-164.5 1529,-164.5 1529,-134.5 1386,-134.5"/>
<text text-anchor="start" x="1394" y="-152.5" font-family="Helvetica,sans-Serif" font-size="10.00">bwidgets/widgets/bwNumber</text>
<text text-anchor="middle" x="1457.5" y="-141.5" font-family="Helvetica,sans-Serif" font-size="10.00">Slider.cc</text>
</a>
</g>
</g>
<!-- Node1&#45;&gt;Node20 -->
<g id="edge23" class="edge">
<title>Node1&#45;&gt;Node20</title>
<path fill="none" stroke="midnightblue" d="M1111.69,-200.97C1181.3,-192.56 1286.44,-179.22 1377.5,-165 1380.29,-164.56 1383.13,-164.11 1386,-163.64"/>
<polygon fill="midnightblue" stroke="midnightblue" points="1111.19,-197.5 1101.68,-202.17 1112.02,-204.45 1111.19,-197.5"/>
</g>
<!-- Node21 -->
<g id="node21" class="node">
<title>Node21</title>
<g id="a_node21"><a xlink:href="bwPanel_8cc.html" target="_top" xlink:title=" ">
<polygon fill="none" stroke="black" points="1547.5,-140 1547.5,-159 1693.5,-159 1693.5,-140 1547.5,-140"/>
<text text-anchor="middle" x="1620.5" y="-147" font-family="Helvetica,sans-Serif" font-size="10.00">bwidgets/widgets/bwPanel.cc</text>
</a>
</g>
</g>
<!-- Node1&#45;&gt;Node21 -->
<g id="edge24" class="edge">
<title>Node1&#45;&gt;Node21</title>
<path fill="none" stroke="midnightblue" d="M1111.78,-205.17C1210.89,-198.51 1387.95,-184.99 1538.5,-165 1550.82,-163.36 1564.12,-161.19 1576.35,-159.02"/>
<polygon fill="midnightblue" stroke="midnightblue" points="1111.3,-201.7 1101.55,-205.85 1111.76,-208.68 1111.3,-201.7"/>
</g>
<!-- Node22 -->
<g id="node22" class="node">
<title>Node22</title>
<g id="a_node22"><a xlink:href="bwScrollBar_8cc.html" target="_top" xlink:title=" ">
<polygon fill="none" stroke="black" points="1712,-134.5 1712,-164.5 1845,-164.5 1845,-134.5 1712,-134.5"/>
<text text-anchor="start" x="1720" y="-152.5" font-family="Helvetica,sans-Serif" font-size="10.00">bwidgets/widgets/bwScroll</text>
<text text-anchor="middle" x="1778.5" y="-141.5" font-family="Helvetica,sans-Serif" font-size="10.00">Bar.cc</text>
</a>
</g>
</g>
<!-- Node1&#45;&gt;Node22 -->
<g id="edge25" class="edge">
<title>Node1&#45;&gt;Node22</title>
<path fill="none" stroke="midnightblue" d="M1111.82,-207.84C1236.55,-203.66 1489.73,-192.36 1702.5,-165 1705.56,-164.61 1708.69,-164.17 1711.85,-163.69"/>
<polygon fill="midnightblue" stroke="midnightblue" points="1111.48,-204.34 1101.61,-208.17 1111.71,-211.34 1111.48,-204.34"/>
</g>
<!-- Node23 -->
<g id="node23" class="node">
<title>Node23</title>
<g id="a_node23"><a xlink:href="bwScrollView_8cc.html" target="_top" xlink:title=" ">
<polygon fill="none" stroke="black" points="1863,-134.5 1863,-164.5 1996,-164.5 1996,-134.5 1863,-134.5"/>
<text text-anchor="start" x="1871" y="-152.5" font-family="Helvetica,sans-Serif" font-size="10.00">bwidgets/widgets/bwScroll</text>
<text text-anchor="middle" x="1929.5" y="-141.5" font-family="Helvetica,sans-Serif" font-size="10.00">View.cc</text>
</a>
</g>
</g>
<!-- Node1&#45;&gt;Node23 -->
<g id="edge26" class="edge">
<title>Node1&#45;&gt;Node23</title>
<path fill="none" stroke="midnightblue" d="M1111.93,-209.26C1257.77,-207.08 1582.97,-198.54 1854.5,-165 1857.26,-164.66 1860.08,-164.28 1862.92,-163.86"/>
<polygon fill="midnightblue" stroke="midnightblue" points="1111.69,-205.76 1101.74,-209.4 1111.79,-212.76 1111.69,-205.76"/>
</g>
<!-- Node24 -->
<g id="node24" class="node">
<title>Node24</title>
<g id="a_node24"><a xlink:href="bwTextBox_8cc.html" target="_top" xlink:title=" ">
<polygon fill="none" stroke="black" points="2014.5,-140 2014.5,-159 2172.5,-159 2172.5,-140 2014.5,-140"/>
<text text-anchor="middle" x="2093.5" y="-147" font-family="Helvetica,sans-Serif" font-size="10.00">bwidgets/widgets/bwTextBox.cc</text>
</a>
</g>
</g>
<!-- Node1&#45;&gt;Node24 -->
<g id="edge27" class="edge">
<title>Node1&#45;&gt;Node24</title>
<path fill="none" stroke="midnightblue" d="M1111.54,-209.49C1276.12,-207.72 1674.05,-199.87 2005.5,-165 2019.36,-163.54 2034.35,-161.32 2047.96,-159.04"/>
<polygon fill="midnightblue" stroke="midnightblue" points="1111.47,-205.99 1101.51,-209.59 1111.55,-212.99 1111.47,-205.99"/>
</g>
<!-- Node25 -->
<g id="node25" class="node">
<title>Node25</title>
<g id="a_node25"><a xlink:href="bwWidget_8cc.html" target="_top" xlink:title=" ">
<polygon fill="none" stroke="black" points="2190.5,-140 2190.5,-159 2342.5,-159 2342.5,-140 2190.5,-140"/>
<text text-anchor="middle" x="2266.5" y="-147" font-family="Helvetica,sans-Serif" font-size="10.00">bwidgets/widgets/bwWidget.cc</text>
</a>
</g>
</g>
<!-- Node1&#45;&gt;Node25 -->
<g id="edge28" class="edge">
<title>Node1&#45;&gt;Node25</title>
<path fill="none" stroke="midnightblue" d="M1111.8,-210.42C1297.01,-210.67 1780.53,-206.89 2181.5,-165 2195.05,-163.58 2209.71,-161.34 2222.97,-159.04"/>
<polygon fill="midnightblue" stroke="midnightblue" points="1111.63,-206.92 1101.62,-210.4 1111.62,-213.92 1111.63,-206.92"/>
</g>
<!-- Node6 -->
<g id="node6" class="node">
<title>Node6</title>
<g id="a_node6"><a xlink:href="bwStyleCSS_8cc.html" target="_top" xlink:title=" ">
<polygon fill="none" stroke="black" points="101,-67.5 101,-97.5 226,-97.5 226,-67.5 101,-67.5"/>
<text text-anchor="start" x="109" y="-85.5" font-family="Helvetica,sans-Serif" font-size="10.00">bwidgets/styling/bwStyle</text>
<text text-anchor="middle" x="163.5" y="-74.5" font-family="Helvetica,sans-Serif" font-size="10.00">CSS.cc</text>
</a>
</g>
</g>
<!-- Node5&#45;&gt;Node6 -->
<g id="edge5" class="edge">
<title>Node5&#45;&gt;Node6</title>
<path fill="none" stroke="midnightblue" d="M414.53,-133.81C333.86,-117.62 312.36,-113.43 235.5,-98 232.5,-97.4 229.43,-96.78 226.33,-96.16"/>
<polygon fill="midnightblue" stroke="midnightblue" points="414.18,-137.31 424.67,-135.84 415.56,-130.44 414.18,-137.31"/>
</g>
<!-- Node7 -->
<g id="node7" class="node">
<title>Node7</title>
<g id="a_node7"><a xlink:href="bwStyleFlatDark_8h.html" target="_top" xlink:title=" ">
<polygon fill="none" stroke="black" points="378.5,-67.5 378.5,-97.5 494.5,-97.5 494.5,-67.5 378.5,-67.5"/>
<text text-anchor="start" x="386.5" y="-85.5" font-family="Helvetica,sans-Serif" font-size="10.00">bwidgets/styling/styles</text>
<text text-anchor="middle" x="436.5" y="-74.5" font-family="Helvetica,sans-Serif" font-size="10.00">/bwStyleFlatDark.h</text>
</a>
</g>
</g>
<!-- Node5&#45;&gt;Node7 -->
<g id="edge6" class="edge">
<title>Node5&#45;&gt;Node7</title>
<path fill="none" stroke="midnightblue" d="M470.2,-126.45C462.71,-116.9 454.16,-106 447.54,-97.58"/>
<polygon fill="midnightblue" stroke="midnightblue" points="467.51,-128.69 476.43,-134.4 473.01,-124.37 467.51,-128.69"/>
</g>
<!-- Node10 -->
<g id="node10" class="node">
<title>Node10</title>
<g id="a_node10"><a xlink:href="bwStyleFlatLight_8h.html" target="_top" xlink:title=" ">
<polygon fill="none" stroke="black" points="244.5,-67.5 244.5,-97.5 360.5,-97.5 360.5,-67.5 244.5,-67.5"/>
<text text-anchor="start" x="252.5" y="-85.5" font-family="Helvetica,sans-Serif" font-size="10.00">bwidgets/styling/styles</text>
<text text-anchor="middle" x="302.5" y="-74.5" font-family="Helvetica,sans-Serif" font-size="10.00">/bwStyleFlatLight.h</text>
</a>
</g>
</g>
<!-- Node5&#45;&gt;Node10 -->
<g id="edge9" class="edge">
<title>Node5&#45;&gt;Node10</title>
<path fill="none" stroke="midnightblue" d="M437.56,-130.96C407.76,-120.48 370.43,-107.37 342.56,-97.58"/>
<polygon fill="midnightblue" stroke="midnightblue" points="436.76,-134.38 447.36,-134.4 439.08,-127.78 436.76,-134.38"/>
</g>
<!-- Node8 -->
<g id="node8" class="node">
<title>Node8</title>
<g id="a_node8"><a xlink:href="bwStyleManager_8cc.html" target="_top" xlink:title=" ">
<polygon fill="none" stroke="black" points="513,-0.5 513,-30.5 638,-30.5 638,-0.5 513,-0.5"/>
<text text-anchor="start" x="521" y="-18.5" font-family="Helvetica,sans-Serif" font-size="10.00">bwidgets/styling/bwStyle</text>
<text text-anchor="middle" x="575.5" y="-7.5" font-family="Helvetica,sans-Serif" font-size="10.00">Manager.cc</text>
</a>
</g>
</g>
<!-- Node7&#45;&gt;Node8 -->
<g id="edge7" class="edge">
<title>Node7&#45;&gt;Node8</title>
<path fill="none" stroke="midnightblue" d="M475.78,-63.13C497.87,-52.8 525.01,-40.11 545.4,-30.58"/>
<polygon fill="midnightblue" stroke="midnightblue" points="474.24,-59.99 466.66,-67.4 477.2,-66.33 474.24,-59.99"/>
</g>
<!-- Node9 -->
<g id="node9" class="node">
<title>Node9</title>
<g id="a_node9"><a xlink:href="bwStyleFlatDark_8cc.html" target="_top" xlink:title=" ">
<polygon fill="none" stroke="black" points="378.5,-0.5 378.5,-30.5 494.5,-30.5 494.5,-0.5 378.5,-0.5"/>
<text text-anchor="start" x="386.5" y="-18.5" font-family="Helvetica,sans-Serif" font-size="10.00">bwidgets/styling/styles</text>
<text text-anchor="middle" x="436.5" y="-7.5" font-family="Helvetica,sans-Serif" font-size="10.00">/bwStyleFlatDark.cc</text>
</a>
</g>
</g>
<!-- Node7&#45;&gt;Node9 -->
<g id="edge8" class="edge">
<title>Node7&#45;&gt;Node9</title>
<path fill="none" stroke="midnightblue" d="M436.5,-57.11C436.5,-48.15 436.5,-38.32 436.5,-30.58"/>
<polygon fill="midnightblue" stroke="midnightblue" points="433,-57.4 436.5,-67.4 440,-57.4 433,-57.4"/>
</g>
<!-- Node10&#45;&gt;Node8 -->
<g id="edge10" class="edge">
<title>Node10&#45;&gt;Node8</title>
<path fill="none" stroke="midnightblue" d="M370.66,-65.27C415.48,-54.6 473.56,-40.77 516.42,-30.57"/>
<polygon fill="midnightblue" stroke="midnightblue" points="369.65,-61.91 360.73,-67.64 371.27,-68.72 369.65,-61.91"/>
</g>
<!-- Node11 -->
<g id="node11" class="node">
<title>Node11</title>
<g id="a_node11"><a xlink:href="bwStyleFlatLight_8cc.html" target="_top" xlink:title=" ">
<polygon fill="none" stroke="black" points="244.5,-0.5 244.5,-30.5 360.5,-30.5 360.5,-0.5 244.5,-0.5"/>
<text text-anchor="start" x="252.5" y="-18.5" font-family="Helvetica,sans-Serif" font-size="10.00">bwidgets/styling/styles</text>
<text text-anchor="middle" x="302.5" y="-7.5" font-family="Helvetica,sans-Serif" font-size="10.00">/bwStyleFlatLight.cc</text>
</a>
</g>
</g>
<!-- Node10&#45;&gt;Node11 -->
<g id="edge11" class="edge">
<title>Node10&#45;&gt;Node11</title>
<path fill="none" stroke="midnightblue" d="M302.5,-57.11C302.5,-48.15 302.5,-38.32 302.5,-30.58"/>
<polygon fill="midnightblue" stroke="midnightblue" points="299,-57.4 302.5,-67.4 306,-57.4 299,-57.4"/>
</g>
<!-- Node12&#45;&gt;Node8 -->
<g id="edge13" class="edge">
<title>Node12&#45;&gt;Node8</title>
<path fill="none" stroke="midnightblue" d="M575.5,-57.11C575.5,-48.15 575.5,-38.32 575.5,-30.58"/>
<polygon fill="midnightblue" stroke="midnightblue" points="572,-57.4 575.5,-67.4 579,-57.4 572,-57.4"/>
</g>
<!-- Node13&#45;&gt;Node8 -->
<g id="edge15" class="edge">
<title>Node13&#45;&gt;Node8</title>
<path fill="none" stroke="midnightblue" d="M861.58,-131.72C901.9,-120.36 947.68,-106.01 953.5,-98 961.59,-86.85 962.57,-77.37 953.5,-67 933.09,-43.68 740.3,-27.46 638.23,-20.42"/>
<polygon fill="midnightblue" stroke="midnightblue" points="860.44,-128.4 851.75,-134.46 862.32,-135.15 860.44,-128.4"/>
</g>
<!-- Node14 -->
<g id="node14" class="node">
<title>Node14</title>
<g id="a_node14"><a xlink:href="bwStyleClassic_8cc.html" target="_top" xlink:title=" ">
<polygon fill="none" stroke="black" points="828.5,-67.5 828.5,-97.5 944.5,-97.5 944.5,-67.5 828.5,-67.5"/>
<text text-anchor="start" x="836.5" y="-85.5" font-family="Helvetica,sans-Serif" font-size="10.00">bwidgets/styling/styles</text>
<text text-anchor="middle" x="886.5" y="-74.5" font-family="Helvetica,sans-Serif" font-size="10.00">/bwStyleClassic.cc</text>
</a>
</g>
</g>
<!-- Node13&#45;&gt;Node14 -->
<g id="edge16" class="edge">
<title>Node13&#45;&gt;Node14</title>
<path fill="none" stroke="midnightblue" d="M825.64,-128.45C839.18,-118.45 855.23,-106.6 867.44,-97.58"/>
<polygon fill="midnightblue" stroke="midnightblue" points="823.56,-125.64 817.59,-134.4 827.72,-131.27 823.56,-125.64"/>
</g>
<!-- Node15&#45;&gt;Node8 -->
<g id="edge18" class="edge">
<title>Node15&#45;&gt;Node8</title>
<path fill="none" stroke="midnightblue" d="M664.06,-123.97C662.69,-106.78 658.65,-83.93 647.5,-67 637.17,-51.32 620.15,-39.05 605.24,-30.53"/>
<polygon fill="midnightblue" stroke="midnightblue" points="660.58,-124.54 664.62,-134.34 667.57,-124.16 660.58,-124.54"/>
</g>
<!-- Node16 -->
<g id="node16" class="node">
<title>Node16</title>
<g id="a_node16"><a xlink:href="bwStyleFlatGrey_8cc.html" target="_top" xlink:title=" ">
<polygon fill="none" stroke="black" points="694.5,-67.5 694.5,-97.5 810.5,-97.5 810.5,-67.5 694.5,-67.5"/>
<text text-anchor="start" x="702.5" y="-85.5" font-family="Helvetica,sans-Serif" font-size="10.00">bwidgets/styling/styles</text>
<text text-anchor="middle" x="752.5" y="-74.5" font-family="Helvetica,sans-Serif" font-size="10.00">/bwStyleFlatGrey.cc</text>
</a>
</g>
</g>
<!-- Node15&#45;&gt;Node16 -->
<g id="edge19" class="edge">
<title>Node15&#45;&gt;Node16</title>
<path fill="none" stroke="midnightblue" d="M691.64,-128.45C705.18,-118.45 721.23,-106.6 733.44,-97.58"/>
<polygon fill="midnightblue" stroke="midnightblue" points="689.56,-125.64 683.59,-134.4 693.72,-131.27 689.56,-125.64"/>
</g>
</g>
</svg>
