<?xml version="1.0" encoding="UTF-8" standalone="no"?>
<!DOCTYPE svg PUBLIC "-//W3C//DTD SVG 1.1//EN"
 "http://www.w3.org/Graphics/SVG/1.1/DTD/svg11.dtd">
<!-- Generated by graphviz version 2.50.0 (20211204.2007)
 -->
<!-- Title: bwidgets/styling/bwStyleManager.cc Pages: 1 -->
<svg width="461pt" height="263pt"
 viewBox="0.00 0.00 461.00 263.00" xmlns="http://www.w3.org/2000/svg" xmlns:xlink="http://www.w3.org/1999/xlink">
<g id="graph0" class="graph" transform="scale(1 1) rotate(0) translate(4 259)">
<title>bwidgets/styling/bwStyleManager.cc</title>
<!-- Node1 -->
<g id="node1" class="node">
<title>Node1</title>
<g id="a_node1"><a xlink:title=" ">
<polygon fill="#bfbfbf" stroke="black" points="150,-224.5 150,-254.5 275,-254.5 275,-224.5 150,-224.5"/>
<text text-anchor="start" x="158" y="-242.5" font-family="Helvetica,sans-Serif" font-size="10.00">bwidgets/styling/bwStyle</text>
<text text-anchor="middle" x="212.5" y="-231.5" font-family="Helvetica,sans-Serif" font-size="10.00">Manager.cc</text>
</a>
</g>
</g>
<!-- Node2 -->
<g id="node2" class="node">
<title>Node2</title>
<g id="a_node2"><a xlink:title=" ">
<polygon fill="none" stroke="#bfbfbf" points="0,-168.5 0,-187.5 49,-187.5 49,-168.5 0,-168.5"/>
<text text-anchor="middle" x="24.5" y="-175.5" font-family="Helvetica,sans-Serif" font-size="10.00">cassert</text>
</a>
</g>
</g>
<!-- Node1&#45;&gt;Node2 -->
<g id="edge1" class="edge">
<title>Node1&#45;&gt;Node2</title>
<path fill="none" stroke="midnightblue" d="M167.95,-224.4C134.58,-213.84 89.6,-199.6 58.96,-189.91"/>
<polygon fill="midnightblue" stroke="midnightblue" points="59.75,-186.48 49.16,-186.8 57.64,-193.16 59.75,-186.48"/>
</g>
<!-- Node3 -->
<g id="node3" class="node">
<title>Node3</title>
<g id="a_node3"><a xlink:href="bwStyleClassic_8h.html" target="_top" xlink:title=" ">
<polygon fill="none" stroke="black" points="31,-112.5 31,-131.5 124,-131.5 124,-112.5 31,-112.5"/>
<text text-anchor="middle" x="77.5" y="-119.5" font-family="Helvetica,sans-Serif" font-size="10.00">bwStyleClassic.h</text>
</a>
</g>
</g>
<!-- Node1&#45;&gt;Node3 -->
<g id="edge2" class="edge">
<title>Node1&#45;&gt;Node3</title>
<path fill="none" stroke="midnightblue" d="M154.65,-224.47C133.79,-216.8 111.67,-205.22 96.5,-188 85.22,-175.19 80.62,-156.01 78.75,-141.79"/>
<polygon fill="midnightblue" stroke="midnightblue" points="82.22,-141.29 77.77,-131.68 75.26,-141.97 82.22,-141.29"/>
</g>
<!-- Node7 -->
<g id="node7" class="node">
<title>Node7</title>
<g id="a_node7"><a xlink:href="bwStyleFlatDark_8h.html" target="_top" xlink:title=" ">
<polygon fill="none" stroke="black" points="105.5,-168.5 105.5,-187.5 203.5,-187.5 203.5,-168.5 105.5,-168.5"/>
<text text-anchor="middle" x="154.5" y="-175.5" font-family="Helvetica,sans-Serif" font-size="10.00">bwStyleFlatDark.h</text>
</a>
</g>
</g>
<!-- Node1&#45;&gt;Node7 -->
<g id="edge6" class="edge">
<title>Node1&#45;&gt;Node7</title>
<path fill="none" stroke="midnightblue" d="M198.75,-224.4C190.15,-215.58 179.05,-204.18 170.11,-195.02"/>
<polygon fill="midnightblue" stroke="midnightblue" points="172.43,-192.38 162.94,-187.66 167.41,-197.26 172.43,-192.38"/>
</g>
<!-- Node9 -->
<g id="node9" class="node">
<title>Node9</title>
<g id="a_node9"><a xlink:href="bwStyleFlatGrey_8h.html" target="_top" xlink:title=" ">
<polygon fill="none" stroke="black" points="241.5,-112.5 241.5,-131.5 337.5,-131.5 337.5,-112.5 241.5,-112.5"/>
<text text-anchor="middle" x="289.5" y="-119.5" font-family="Helvetica,sans-Serif" font-size="10.00">bwStyleFlatGrey.h</text>
</a>
</g>
</g>
<!-- Node1&#45;&gt;Node9 -->
<g id="edge9" class="edge">
<title>Node1&#45;&gt;Node9</title>
<path fill="none" stroke="midnightblue" d="M275.21,-225.79C295.72,-218.33 316.34,-206.56 328.5,-188 339.45,-171.28 323.69,-151.52 309.04,-138.22"/>
<polygon fill="midnightblue" stroke="midnightblue" points="311.09,-135.36 301.2,-131.55 306.55,-140.69 311.09,-135.36"/>
</g>
<!-- Node10 -->
<g id="node10" class="node">
<title>Node10</title>
<g id="a_node10"><a xlink:href="bwStyleFlatLight_8h.html" target="_top" xlink:title=" ">
<polygon fill="none" stroke="black" points="221.5,-168.5 221.5,-187.5 319.5,-187.5 319.5,-168.5 221.5,-168.5"/>
<text text-anchor="middle" x="270.5" y="-175.5" font-family="Helvetica,sans-Serif" font-size="10.00">bwStyleFlatLight.h</text>
</a>
</g>
</g>
<!-- Node1&#45;&gt;Node10 -->
<g id="edge11" class="edge">
<title>Node1&#45;&gt;Node10</title>
<path fill="none" stroke="midnightblue" d="M226.25,-224.4C234.85,-215.58 245.95,-204.18 254.89,-195.02"/>
<polygon fill="midnightblue" stroke="midnightblue" points="257.59,-197.26 262.06,-187.66 252.57,-192.38 257.59,-197.26"/>
</g>
<!-- Node11 -->
<g id="node11" class="node">
<title>Node11</title>
<g id="a_node11"><a xlink:href="bwStyleManager_8h.html" target="_top" xlink:title=" ">
<polygon fill="none" stroke="black" points="356,-112.5 356,-131.5 453,-131.5 453,-112.5 356,-112.5"/>
<text text-anchor="middle" x="404.5" y="-119.5" font-family="Helvetica,sans-Serif" font-size="10.00">bwStyleManager.h</text>
</a>
</g>
</g>
<!-- Node1&#45;&gt;Node11 -->
<g id="edge13" class="edge">
<title>Node1&#45;&gt;Node11</title>
<path fill="none" stroke="midnightblue" d="M264.54,-224.4C289.69,-216.15 319.54,-204.13 343.5,-188 363.06,-174.83 380.95,-154.31 392.22,-139.86"/>
<polygon fill="midnightblue" stroke="midnightblue" points="395.1,-141.85 398.34,-131.76 389.52,-137.62 395.1,-141.85"/>
</g>
<!-- Node4 -->
<g id="node4" class="node">
<title>Node4</title>
<g id="a_node4"><a xlink:href="bwStyle_8h.html" target="_top" xlink:title=" ">
<polygon fill="none" stroke="black" points="259.5,-56.5 259.5,-75.5 319.5,-75.5 319.5,-56.5 259.5,-56.5"/>
<text text-anchor="middle" x="289.5" y="-63.5" font-family="Helvetica,sans-Serif" font-size="10.00">bwStyle.h</text>
</a>
</g>
</g>
<!-- Node3&#45;&gt;Node4 -->
<g id="edge3" class="edge">
<title>Node3&#45;&gt;Node4</title>
<path fill="none" stroke="midnightblue" d="M111.09,-112.44C148.68,-102.87 209.55,-87.36 249.55,-77.18"/>
<polygon fill="midnightblue" stroke="midnightblue" points="250.67,-80.5 259.49,-74.64 248.94,-73.72 250.67,-80.5"/>
</g>
<!-- Node5 -->
<g id="node5" class="node">
<title>Node5</title>
<g id="a_node5"><a xlink:title=" ">
<polygon fill="none" stroke="#bfbfbf" points="329.5,-0.5 329.5,-19.5 367.5,-19.5 367.5,-0.5 329.5,-0.5"/>
<text text-anchor="middle" x="348.5" y="-7.5" font-family="Helvetica,sans-Serif" font-size="10.00">array</text>
</a>
</g>
</g>
<!-- Node4&#45;&gt;Node5 -->
<g id="edge4" class="edge">
<title>Node4&#45;&gt;Node5</title>
<path fill="none" stroke="midnightblue" d="M298.98,-56.32C307.7,-48.34 320.84,-36.31 331.4,-26.65"/>
<polygon fill="midnightblue" stroke="midnightblue" points="333.83,-29.17 338.85,-19.83 329.11,-24 333.83,-29.17"/>
</g>
<!-- Node6 -->
<g id="node6" class="node">
<title>Node6</title>
<g id="a_node6"><a xlink:title=" ">
<polygon fill="none" stroke="#bfbfbf" points="269,-0.5 269,-19.5 310,-19.5 310,-0.5 269,-0.5"/>
<text text-anchor="middle" x="289.5" y="-7.5" font-family="Helvetica,sans-Serif" font-size="10.00">string</text>
</a>
</g>
</g>
<!-- Node4&#45;&gt;Node6 -->
<g id="edge5" class="edge">
<title>Node4&#45;&gt;Node6</title>
<path fill="none" stroke="midnightblue" d="M289.5,-56.08C289.5,-49.01 289.5,-38.86 289.5,-29.99"/>
<polygon fill="midnightblue" stroke="midnightblue" points="293,-29.75 289.5,-19.75 286,-29.75 293,-29.75"/>
</g>
<!-- Node8 -->
<g id="node8" class="node">
<title>Node8</title>
<g id="a_node8"><a xlink:href="bwStyleCSS_8h.html" target="_top" xlink:title=" ">
<polygon fill="none" stroke="black" points="142,-112.5 142,-131.5 223,-131.5 223,-112.5 142,-112.5"/>
<text text-anchor="middle" x="182.5" y="-119.5" font-family="Helvetica,sans-Serif" font-size="10.00">bwStyleCSS.h</text>
</a>
</g>
</g>
<!-- Node7&#45;&gt;Node8 -->
<g id="edge7" class="edge">
<title>Node7&#45;&gt;Node8</title>
<path fill="none" stroke="midnightblue" d="M159.12,-168.08C162.96,-160.69 168.52,-149.95 173.26,-140.81"/>
<polygon fill="midnightblue" stroke="midnightblue" points="176.47,-142.24 177.96,-131.75 170.25,-139.02 176.47,-142.24"/>
</g>
<!-- Node8&#45;&gt;Node4 -->
<g id="edge8" class="edge">
<title>Node8&#45;&gt;Node4</title>
<path fill="none" stroke="midnightblue" d="M199.69,-112.32C216.85,-103.66 243.45,-90.24 263.25,-80.25"/>
<polygon fill="midnightblue" stroke="midnightblue" points="265,-83.28 272.35,-75.65 261.85,-77.04 265,-83.28"/>
</g>
<!-- Node9&#45;&gt;Node4 -->
<g id="edge10" class="edge">
<title>Node9&#45;&gt;Node4</title>
<path fill="none" stroke="midnightblue" d="M289.5,-112.08C289.5,-105.01 289.5,-94.86 289.5,-85.99"/>
<polygon fill="midnightblue" stroke="midnightblue" points="293,-85.75 289.5,-75.75 286,-85.75 293,-85.75"/>
</g>
<!-- Node10&#45;&gt;Node8 -->
<g id="edge12" class="edge">
<title>Node10&#45;&gt;Node8</title>
<path fill="none" stroke="midnightblue" d="M256.36,-168.32C242.63,-159.9 221.56,-146.97 205.44,-137.07"/>
<polygon fill="midnightblue" stroke="midnightblue" points="206.96,-133.9 196.6,-131.65 203.3,-139.87 206.96,-133.9"/>
</g>
<!-- Node11&#45;&gt;Node4 -->
<g id="edge16" class="edge">
<title>Node11&#45;&gt;Node4</title>
<path fill="none" stroke="midnightblue" d="M386.28,-112.44C367.6,-103.68 338.34,-89.94 316.88,-79.86"/>
<polygon fill="midnightblue" stroke="midnightblue" points="318.18,-76.6 307.64,-75.52 315.2,-82.93 318.18,-76.6"/>
</g>
<!-- Node11&#45;&gt;Node5 -->
<g id="edge14" class="edge">
<title>Node11&#45;&gt;Node5</title>
<path fill="none" stroke="midnightblue" d="M396.26,-112.34C388.43,-103.72 376.81,-89.82 369.5,-76 361.7,-61.26 356.13,-43.1 352.7,-29.73"/>
<polygon fill="midnightblue" stroke="midnightblue" points="356.05,-28.7 350.31,-19.8 349.25,-30.34 356.05,-28.7"/>
</g>
<!-- Node12 -->
<g id="node12" class="node">
<title>Node12</title>
<g id="a_node12"><a xlink:title=" ">
<polygon fill="none" stroke="#bfbfbf" points="378.5,-56.5 378.5,-75.5 430.5,-75.5 430.5,-56.5 378.5,-56.5"/>
<text text-anchor="middle" x="404.5" y="-63.5" font-family="Helvetica,sans-Serif" font-size="10.00">memory</text>
</a>
</g>
</g>
<!-- Node11&#45;&gt;Node12 -->
<g id="edge15" class="edge">
<title>Node11&#45;&gt;Node12</title>
<path fill="none" stroke="midnightblue" d="M404.5,-112.08C404.5,-105.01 404.5,-94.86 404.5,-85.99"/>
<polygon fill="midnightblue" stroke="midnightblue" points="408,-85.75 404.5,-75.75 401,-85.75 408,-85.75"/>
</g>
</g>
</svg>
