<?xml version="1.0" encoding="UTF-8" standalone="no"?>
<!DOCTYPE svg PUBLIC "-//W3C//DTD SVG 1.1//EN"
 "http://www.w3.org/Graphics/SVG/1.1/DTD/svg11.dtd">
<!-- Generated by graphviz version 2.50.0 (20211204.2007)
 -->
<!-- Title: bwidgets/styling/bwStyleProperties.h Pages: 1 -->
<svg width="2478pt" height="374pt"
 viewBox="0.00 0.00 2478.00 374.00" xmlns="http://www.w3.org/2000/svg" xmlns:xlink="http://www.w3.org/1999/xlink">
<g id="graph0" class="graph" transform="scale(1 1) rotate(0) translate(4 370)">
<title>bwidgets/styling/bwStyleProperties.h</title>
<!-- Node1 -->
<g id="node1" class="node">
<title>Node1</title>
<g id="a_node1"><a xlink:title=" ">
<polygon fill="#bfbfbf" stroke="black" points="1290,-335.5 1290,-365.5 1415,-365.5 1415,-335.5 1290,-335.5"/>
<text text-anchor="start" x="1298" y="-353.5" font-family="Helvetica,sans-Serif" font-size="10.00">bwidgets/styling/bwStyle</text>
<text text-anchor="middle" x="1352.5" y="-342.5" font-family="Helvetica,sans-Serif" font-size="10.00">Properties.h</text>
</a>
</g>
</g>
<!-- Node2 -->
<g id="node2" class="node">
<title>Node2</title>
<g id="a_node2"><a xlink:href="bwStyleProperties_8cc.html" target="_top" xlink:title=" ">
<polygon fill="none" stroke="black" points="1142,-268.5 1142,-298.5 1267,-298.5 1267,-268.5 1142,-268.5"/>
<text text-anchor="start" x="1150" y="-286.5" font-family="Helvetica,sans-Serif" font-size="10.00">bwidgets/styling/bwStyle</text>
<text text-anchor="middle" x="1204.5" y="-275.5" font-family="Helvetica,sans-Serif" font-size="10.00">Properties.cc</text>
</a>
</g>
</g>
<!-- Node1&#45;&gt;Node2 -->
<g id="edge1" class="edge">
<title>Node1&#45;&gt;Node2</title>
<path fill="none" stroke="midnightblue" d="M1310.99,-331.27C1287.42,-320.92 1258.36,-308.15 1236.55,-298.58"/>
<polygon fill="midnightblue" stroke="midnightblue" points="1309.82,-334.58 1320.39,-335.4 1312.64,-328.17 1309.82,-334.58"/>
</g>
<!-- Node3 -->
<g id="node3" class="node">
<title>Node3</title>
<g id="a_node3"><a xlink:href="bwWidgetBaseStyle_8cc.html" target="_top" xlink:title=" ">
<polygon fill="none" stroke="black" points="1285.5,-268.5 1285.5,-298.5 1419.5,-298.5 1419.5,-268.5 1285.5,-268.5"/>
<text text-anchor="start" x="1293.5" y="-286.5" font-family="Helvetica,sans-Serif" font-size="10.00">bwidgets/styling/bwWidget</text>
<text text-anchor="middle" x="1352.5" y="-275.5" font-family="Helvetica,sans-Serif" font-size="10.00">BaseStyle.cc</text>
</a>
</g>
</g>
<!-- Node1&#45;&gt;Node3 -->
<g id="edge2" class="edge">
<title>Node1&#45;&gt;Node3</title>
<path fill="none" stroke="midnightblue" d="M1352.5,-325.11C1352.5,-316.15 1352.5,-306.32 1352.5,-298.58"/>
<polygon fill="midnightblue" stroke="midnightblue" points="1349,-325.4 1352.5,-335.4 1356,-325.4 1349,-325.4"/>
</g>
<!-- Node4 -->
<g id="node4" class="node">
<title>Node4</title>
<g id="a_node4"><a xlink:href="bwWidget_8h.html" target="_top" xlink:title=" ">
<polygon fill="none" stroke="black" points="1438,-274 1438,-293 1585,-293 1585,-274 1438,-274"/>
<text text-anchor="middle" x="1511.5" y="-281" font-family="Helvetica,sans-Serif" font-size="10.00">bwidgets/widgets/bwWidget.h</text>
</a>
</g>
</g>
<!-- Node1&#45;&gt;Node4 -->
<g id="edge3" class="edge">
<title>Node1&#45;&gt;Node4</title>
<path fill="none" stroke="midnightblue" d="M1396.63,-331.46C1427.35,-318.9 1466.92,-302.72 1490.69,-293.01"/>
<polygon fill="midnightblue" stroke="midnightblue" points="1394.93,-328.37 1387,-335.4 1397.58,-334.85 1394.93,-328.37"/>
</g>
<!-- Node5 -->
<g id="node5" class="node">
<title>Node5</title>
<g id="a_node5"><a xlink:href="Builder_8h.html" target="_top" xlink:title=" ">
<polygon fill="none" stroke="black" points="0,-67.5 0,-97.5 117,-97.5 117,-67.5 0,-67.5"/>
<text text-anchor="start" x="8" y="-85.5" font-family="Helvetica,sans-Serif" font-size="10.00">bwidgets/screen_graph</text>
<text text-anchor="middle" x="58.5" y="-74.5" font-family="Helvetica,sans-Serif" font-size="10.00">/Builder.h</text>
</a>
</g>
</g>
<!-- Node4&#45;&gt;Node5 -->
<g id="edge4" class="edge">
<title>Node4&#45;&gt;Node5</title>
<path fill="none" stroke="midnightblue" d="M1459.07,-272.28C1448.96,-270.61 1438.43,-269.08 1428.5,-268 1062.75,-228.26 964.98,-288.88 601.5,-232 408.87,-201.86 186.71,-128.51 98.02,-97.6"/>
<polygon fill="midnightblue" stroke="midnightblue" points="1458.55,-275.74 1469,-273.99 1459.74,-268.85 1458.55,-275.74"/>
</g>
<!-- Node8 -->
<g id="node8" class="node">
<title>Node8</title>
<g id="a_node8"><a xlink:href="Node_8h.html" target="_top" xlink:title=" ">
<polygon fill="none" stroke="black" points="428,-134.5 428,-164.5 545,-164.5 545,-134.5 428,-134.5"/>
<text text-anchor="start" x="436" y="-152.5" font-family="Helvetica,sans-Serif" font-size="10.00">bwidgets/screen_graph</text>
<text text-anchor="middle" x="486.5" y="-141.5" font-family="Helvetica,sans-Serif" font-size="10.00">/Node.h</text>
</a>
</g>
</g>
<!-- Node4&#45;&gt;Node8 -->
<g id="edge7" class="edge">
<title>Node4&#45;&gt;Node8</title>
<path fill="none" stroke="midnightblue" d="M1458.42,-272.22C1448.5,-270.59 1438.21,-269.08 1428.5,-268 1106.55,-232.06 1017.56,-298.47 700.5,-232 631.24,-217.48 554.83,-183.75 514.7,-164.54"/>
<polygon fill="midnightblue" stroke="midnightblue" points="1458.12,-275.72 1468.57,-273.96 1459.3,-268.82 1458.12,-275.72"/>
</g>
<!-- Node14 -->
<g id="node14" class="node">
<title>Node14</title>
<g id="a_node14"><a xlink:href="bwAbstractButton_8h.html" target="_top" xlink:title=" ">
<polygon fill="none" stroke="black" points="1439,-201.5 1439,-231.5 1584,-231.5 1584,-201.5 1439,-201.5"/>
<text text-anchor="start" x="1447" y="-219.5" font-family="Helvetica,sans-Serif" font-size="10.00">bwidgets/widgets/bwAbstract</text>
<text text-anchor="middle" x="1511.5" y="-208.5" font-family="Helvetica,sans-Serif" font-size="10.00">Button.h</text>
</a>
</g>
</g>
<!-- Node4&#45;&gt;Node14 -->
<g id="edge15" class="edge">
<title>Node4&#45;&gt;Node14</title>
<path fill="none" stroke="midnightblue" d="M1511.5,-263.41C1511.5,-253.22 1511.5,-240.9 1511.5,-231.59"/>
<polygon fill="midnightblue" stroke="midnightblue" points="1508,-263.73 1511.5,-273.73 1515,-263.73 1508,-263.73"/>
</g>
<!-- Node28 -->
<g id="node28" class="node">
<title>Node28</title>
<g id="a_node28"><a xlink:href="bwContainerWidget_8h.html" target="_top" xlink:title=" ">
<polygon fill="none" stroke="black" points="709.5,-201.5 709.5,-231.5 859.5,-231.5 859.5,-201.5 709.5,-201.5"/>
<text text-anchor="start" x="717.5" y="-219.5" font-family="Helvetica,sans-Serif" font-size="10.00">bwidgets/widgets/bwContainer</text>
<text text-anchor="middle" x="784.5" y="-208.5" font-family="Helvetica,sans-Serif" font-size="10.00">Widget.h</text>
</a>
</g>
</g>
<!-- Node4&#45;&gt;Node28 -->
<g id="edge34" class="edge">
<title>Node4&#45;&gt;Node28</title>
<path fill="none" stroke="midnightblue" d="M1457.09,-272.24C1447.59,-270.66 1437.77,-269.17 1428.5,-268 1223.49,-242.11 979.99,-227.33 859.6,-221.08"/>
<polygon fill="midnightblue" stroke="midnightblue" points="1456.8,-275.74 1467.25,-273.97 1457.98,-268.84 1456.8,-275.74"/>
</g>
<!-- Node33 -->
<g id="node33" class="node">
<title>Node33</title>
<g id="a_node33"><a xlink:href="bwLabel_8h.html" target="_top" xlink:title=" ">
<polygon fill="none" stroke="black" points="2043.5,-207 2043.5,-226 2183.5,-226 2183.5,-207 2043.5,-207"/>
<text text-anchor="middle" x="2113.5" y="-214" font-family="Helvetica,sans-Serif" font-size="10.00">bwidgets/widgets/bwLabel.h</text>
</a>
</g>
</g>
<!-- Node4&#45;&gt;Node33 -->
<g id="edge43" class="edge">
<title>Node4&#45;&gt;Node33</title>
<path fill="none" stroke="midnightblue" d="M1595.58,-273.95C1691.25,-264.15 1852.19,-247.44 1990.5,-232 2007.6,-230.09 2026.02,-227.96 2043.27,-225.93"/>
<polygon fill="midnightblue" stroke="midnightblue" points="1594.97,-270.5 1585.38,-275 1595.69,-277.46 1594.97,-270.5"/>
</g>
<!-- Node35 -->
<g id="node35" class="node">
<title>Node35</title>
<g id="a_node35"><a xlink:href="bwTextBox_8h.html" target="_top" xlink:title=" ">
<polygon fill="none" stroke="black" points="1829.5,-207 1829.5,-226 1981.5,-226 1981.5,-207 1829.5,-207"/>
<text text-anchor="middle" x="1905.5" y="-214" font-family="Helvetica,sans-Serif" font-size="10.00">bwidgets/widgets/bwTextBox.h</text>
</a>
</g>
</g>
<!-- Node4&#45;&gt;Node35 -->
<g id="edge46" class="edge">
<title>Node4&#45;&gt;Node35</title>
<path fill="none" stroke="midnightblue" d="M1573.49,-272.27C1650.82,-259.52 1781.6,-237.94 1853.78,-226.03"/>
<polygon fill="midnightblue" stroke="midnightblue" points="1572.71,-268.85 1563.41,-273.94 1573.85,-275.76 1572.71,-268.85"/>
</g>
<!-- Node39 -->
<g id="node39" class="node">
<title>Node39</title>
<g id="a_node39"><a xlink:href="bwWidget_8cc.html" target="_top" xlink:title=" ">
<polygon fill="none" stroke="black" points="2201.5,-207 2201.5,-226 2353.5,-226 2353.5,-207 2201.5,-207"/>
<text text-anchor="middle" x="2277.5" y="-214" font-family="Helvetica,sans-Serif" font-size="10.00">bwidgets/widgets/bwWidget.cc</text>
</a>
</g>
</g>
<!-- Node4&#45;&gt;Node39 -->
<g id="edge52" class="edge">
<title>Node4&#45;&gt;Node39</title>
<path fill="none" stroke="midnightblue" d="M1595.48,-278.84C1724.29,-272.65 1978.24,-258.16 2192.5,-232 2205.43,-230.42 2219.39,-228.24 2232.18,-226.05"/>
<polygon fill="midnightblue" stroke="midnightblue" points="1595.11,-275.36 1585.29,-279.33 1595.44,-282.35 1595.11,-275.36"/>
</g>
<!-- Node6 -->
<g id="node6" class="node">
<title>Node6</title>
<g id="a_node6"><a xlink:href="Builder_8cc.html" target="_top" xlink:title=" ">
<polygon fill="none" stroke="black" points="0,-0.5 0,-30.5 117,-30.5 117,-0.5 0,-0.5"/>
<text text-anchor="start" x="8" y="-18.5" font-family="Helvetica,sans-Serif" font-size="10.00">bwidgets/screen_graph</text>
<text text-anchor="middle" x="58.5" y="-7.5" font-family="Helvetica,sans-Serif" font-size="10.00">/Builder.cc</text>
</a>
</g>
</g>
<!-- Node5&#45;&gt;Node6 -->
<g id="edge5" class="edge">
<title>Node5&#45;&gt;Node6</title>
<path fill="none" stroke="midnightblue" d="M58.5,-57.11C58.5,-48.15 58.5,-38.32 58.5,-30.58"/>
<polygon fill="midnightblue" stroke="midnightblue" points="55,-57.4 58.5,-67.4 62,-57.4 55,-57.4"/>
</g>
<!-- Node7 -->
<g id="node7" class="node">
<title>Node7</title>
<g id="a_node7"><a xlink:href="bwScrollView_8cc.html" target="_top" xlink:title=" ">
<polygon fill="none" stroke="black" points="678,-0.5 678,-30.5 811,-30.5 811,-0.5 678,-0.5"/>
<text text-anchor="start" x="686" y="-18.5" font-family="Helvetica,sans-Serif" font-size="10.00">bwidgets/widgets/bwScroll</text>
<text text-anchor="middle" x="744.5" y="-7.5" font-family="Helvetica,sans-Serif" font-size="10.00">View.cc</text>
</a>
</g>
</g>
<!-- Node5&#45;&gt;Node7 -->
<g id="edge6" class="edge">
<title>Node5&#45;&gt;Node7</title>
<path fill="none" stroke="midnightblue" d="M127.31,-66.85C323.52,-38.25 376.02,-46.97 570.5,-31 606,-28.09 645.57,-24.79 677.99,-22.08"/>
<polygon fill="midnightblue" stroke="midnightblue" points="126.63,-63.41 117.25,-68.33 127.65,-70.33 126.63,-63.41"/>
</g>
<!-- Node8&#45;&gt;Node5 -->
<g id="edge9" class="edge">
<title>Node8&#45;&gt;Node5</title>
<path fill="none" stroke="midnightblue" d="M417.86,-140.44C345.06,-131.52 226.81,-116.02 125.5,-98 122.81,-97.52 120.05,-97.01 117.28,-96.48"/>
<polygon fill="midnightblue" stroke="midnightblue" points="417.48,-143.92 427.83,-141.65 418.32,-136.97 417.48,-143.92"/>
</g>
<!-- Node8&#45;&gt;Node7 -->
<g id="edge14" class="edge">
<title>Node8&#45;&gt;Node7</title>
<path fill="none" stroke="midnightblue" d="M555.14,-133.41C618.23,-119.43 702.47,-100.43 705.5,-98 726.92,-80.83 737.28,-49.05 741.69,-30.66"/>
<polygon fill="midnightblue" stroke="midnightblue" points="554.22,-130.03 545.21,-135.61 555.73,-136.87 554.22,-130.03"/>
</g>
<!-- Node9 -->
<g id="node9" class="node">
<title>Node9</title>
<g id="a_node9"><a xlink:href="bwEventDispatcher_8cc.html" target="_top" xlink:title=" ">
<polygon fill="none" stroke="black" points="270,-73 270,-92 427,-92 427,-73 270,-73"/>
<text text-anchor="middle" x="348.5" y="-80" font-family="Helvetica,sans-Serif" font-size="10.00">bwidgets/bwEventDispatcher.cc</text>
</a>
</g>
</g>
<!-- Node8&#45;&gt;Node9 -->
<g id="edge8" class="edge">
<title>Node8&#45;&gt;Node9</title>
<path fill="none" stroke="midnightblue" d="M447.5,-130.13C420.94,-117.62 387.01,-101.64 366.56,-92.01"/>
<polygon fill="midnightblue" stroke="midnightblue" points="446.02,-133.3 456.56,-134.4 449,-126.97 446.02,-133.3"/>
</g>
<!-- Node10 -->
<g id="node10" class="node">
<title>Node10</title>
<g id="a_node10"><a xlink:href="Drawer_8cc.html" target="_top" xlink:title=" ">
<polygon fill="none" stroke="black" points="580,-67.5 580,-97.5 697,-97.5 697,-67.5 580,-67.5"/>
<text text-anchor="start" x="588" y="-85.5" font-family="Helvetica,sans-Serif" font-size="10.00">bwidgets/screen_graph</text>
<text text-anchor="middle" x="638.5" y="-74.5" font-family="Helvetica,sans-Serif" font-size="10.00">/Drawer.cc</text>
</a>
</g>
</g>
<!-- Node8&#45;&gt;Node10 -->
<g id="edge10" class="edge">
<title>Node8&#45;&gt;Node10</title>
<path fill="none" stroke="midnightblue" d="M528.81,-130.41C553.08,-120.03 583.09,-107.2 605.58,-97.58"/>
<polygon fill="midnightblue" stroke="midnightblue" points="527.3,-127.25 519.48,-134.4 530.05,-133.68 527.3,-127.25"/>
</g>
<!-- Node11 -->
<g id="node11" class="node">
<title>Node11</title>
<g id="a_node11"><a xlink:href="EventHandler_8cc.html" target="_top" xlink:title=" ">
<polygon fill="none" stroke="black" points="135,-67.5 135,-97.5 252,-97.5 252,-67.5 135,-67.5"/>
<text text-anchor="start" x="143" y="-85.5" font-family="Helvetica,sans-Serif" font-size="10.00">bwidgets/screen_graph</text>
<text text-anchor="middle" x="193.5" y="-74.5" font-family="Helvetica,sans-Serif" font-size="10.00">/EventHandler.cc</text>
</a>
</g>
</g>
<!-- Node8&#45;&gt;Node11 -->
<g id="edge11" class="edge">
<title>Node8&#45;&gt;Node11</title>
<path fill="none" stroke="midnightblue" d="M418.09,-133.32C367.78,-122.16 300.11,-107.15 252.24,-96.53"/>
<polygon fill="midnightblue" stroke="midnightblue" points="417.39,-136.75 427.91,-135.5 418.91,-129.92 417.39,-136.75"/>
</g>
<!-- Node12 -->
<g id="node12" class="node">
<title>Node12</title>
<g id="a_node12"><a xlink:href="Iterators_8h.html" target="_top" xlink:title=" ">
<polygon fill="none" stroke="black" points="445,-67.5 445,-97.5 562,-97.5 562,-67.5 445,-67.5"/>
<text text-anchor="start" x="453" y="-85.5" font-family="Helvetica,sans-Serif" font-size="10.00">bwidgets/screen_graph</text>
<text text-anchor="middle" x="503.5" y="-74.5" font-family="Helvetica,sans-Serif" font-size="10.00">/Iterators.h</text>
</a>
</g>
</g>
<!-- Node8&#45;&gt;Node12 -->
<g id="edge12" class="edge">
<title>Node8&#45;&gt;Node12</title>
<path fill="none" stroke="midnightblue" d="M492.73,-124.7C495.11,-115.59 497.75,-105.49 499.82,-97.58"/>
<polygon fill="midnightblue" stroke="midnightblue" points="489.33,-123.84 490.19,-134.4 496.11,-125.61 489.33,-123.84"/>
</g>
<!-- Node13 -->
<g id="node13" class="node">
<title>Node13</title>
<g id="a_node13"><a xlink:href="Iterators_8cc.html" target="_top" xlink:title=" ">
<polygon fill="none" stroke="black" points="445,-0.5 445,-30.5 562,-30.5 562,-0.5 445,-0.5"/>
<text text-anchor="start" x="453" y="-18.5" font-family="Helvetica,sans-Serif" font-size="10.00">bwidgets/screen_graph</text>
<text text-anchor="middle" x="503.5" y="-7.5" font-family="Helvetica,sans-Serif" font-size="10.00">/Iterators.cc</text>
</a>
</g>
</g>
<!-- Node12&#45;&gt;Node13 -->
<g id="edge13" class="edge">
<title>Node12&#45;&gt;Node13</title>
<path fill="none" stroke="midnightblue" d="M503.5,-57.11C503.5,-48.15 503.5,-38.32 503.5,-30.58"/>
<polygon fill="midnightblue" stroke="midnightblue" points="500,-57.4 503.5,-67.4 507,-57.4 500,-57.4"/>
</g>
<!-- Node15 -->
<g id="node15" class="node">
<title>Node15</title>
<g id="a_node15"><a xlink:href="bwStyleCSS_8cc.html" target="_top" xlink:title=" ">
<polygon fill="none" stroke="black" points="1746,-0.5 1746,-30.5 1871,-30.5 1871,-0.5 1746,-0.5"/>
<text text-anchor="start" x="1754" y="-18.5" font-family="Helvetica,sans-Serif" font-size="10.00">bwidgets/styling/bwStyle</text>
<text text-anchor="middle" x="1808.5" y="-7.5" font-family="Helvetica,sans-Serif" font-size="10.00">CSS.cc</text>
</a>
</g>
</g>
<!-- Node14&#45;&gt;Node15 -->
<g id="edge16" class="edge">
<title>Node14&#45;&gt;Node15</title>
<path fill="none" stroke="midnightblue" d="M1594.55,-215.09C1687.14,-212.74 1828.62,-202.83 1864.5,-165 1894.53,-133.34 1889.23,-106.41 1870.5,-67 1863.11,-51.45 1848.33,-39.12 1835.06,-30.53"/>
<polygon fill="midnightblue" stroke="midnightblue" points="1594.27,-211.6 1584.35,-215.33 1594.43,-218.6 1594.27,-211.6"/>
</g>
<!-- Node16 -->
<g id="node16" class="node">
<title>Node16</title>
<g id="a_node16"><a xlink:href="bwAbstractButton_8cc.html" target="_top" xlink:title=" ">
<polygon fill="none" stroke="black" points="1525,-134.5 1525,-164.5 1670,-164.5 1670,-134.5 1525,-134.5"/>
<text text-anchor="start" x="1533" y="-152.5" font-family="Helvetica,sans-Serif" font-size="10.00">bwidgets/widgets/bwAbstract</text>
<text text-anchor="middle" x="1597.5" y="-141.5" font-family="Helvetica,sans-Serif" font-size="10.00">Button.cc</text>
</a>
</g>
</g>
<!-- Node14&#45;&gt;Node16 -->
<g id="edge17" class="edge">
<title>Node14&#45;&gt;Node16</title>
<path fill="none" stroke="midnightblue" d="M1538.4,-195.17C1551.55,-185.23 1567.05,-173.51 1578.88,-164.58"/>
<polygon fill="midnightblue" stroke="midnightblue" points="1536.03,-192.57 1530.16,-201.4 1540.25,-198.16 1536.03,-192.57"/>
</g>
<!-- Node17 -->
<g id="node17" class="node">
<title>Node17</title>
<g id="a_node17"><a xlink:href="bwCheckbox_8h.html" target="_top" xlink:title=" ">
<polygon fill="none" stroke="black" points="1346,-140 1346,-159 1507,-159 1507,-140 1346,-140"/>
<text text-anchor="middle" x="1426.5" y="-147" font-family="Helvetica,sans-Serif" font-size="10.00">bwidgets/widgets/bwCheckbox.h</text>
</a>
</g>
</g>
<!-- Node14&#45;&gt;Node17 -->
<g id="edge18" class="edge">
<title>Node14&#45;&gt;Node17</title>
<path fill="none" stroke="midnightblue" d="M1484.7,-195.01C1468.92,-182.94 1449.78,-168.3 1437.87,-159.19"/>
<polygon fill="midnightblue" stroke="midnightblue" points="1482.99,-198.1 1493.06,-201.4 1487.24,-192.54 1482.99,-198.1"/>
</g>
<!-- Node22 -->
<g id="node22" class="node">
<title>Node22</title>
<g id="a_node22"><a xlink:href="bwPushButton_8h.html" target="_top" xlink:title=" ">
<polygon fill="none" stroke="black" points="1688,-140 1688,-159 1855,-159 1855,-140 1688,-140"/>
<text text-anchor="middle" x="1771.5" y="-147" font-family="Helvetica,sans-Serif" font-size="10.00">bwidgets/widgets/bwPushButton.h</text>
</a>
</g>
</g>
<!-- Node14&#45;&gt;Node22 -->
<g id="edge24" class="edge">
<title>Node14&#45;&gt;Node22</title>
<path fill="none" stroke="midnightblue" d="M1577.54,-198.99C1628.49,-186.25 1696.91,-169.15 1737.39,-159.03"/>
<polygon fill="midnightblue" stroke="midnightblue" points="1576.45,-195.66 1567.6,-201.48 1578.15,-202.45 1576.45,-195.66"/>
</g>
<!-- Node24 -->
<g id="node24" class="node">
<title>Node24</title>
<g id="a_node24"><a xlink:href="bwRadioButton_8h.html" target="_top" xlink:title=" ">
<polygon fill="none" stroke="black" points="1193.5,-134.5 1193.5,-164.5 1327.5,-164.5 1327.5,-134.5 1193.5,-134.5"/>
<text text-anchor="start" x="1201.5" y="-152.5" font-family="Helvetica,sans-Serif" font-size="10.00">bwidgets/widgets/bwRadio</text>
<text text-anchor="middle" x="1260.5" y="-141.5" font-family="Helvetica,sans-Serif" font-size="10.00">Button.h</text>
</a>
</g>
</g>
<!-- Node14&#45;&gt;Node24 -->
<g id="edge27" class="edge">
<title>Node14&#45;&gt;Node24</title>
<path fill="none" stroke="midnightblue" d="M1447.46,-198.92C1406.5,-188.31 1353.94,-174.7 1314.99,-164.61"/>
<polygon fill="midnightblue" stroke="midnightblue" points="1446.79,-202.36 1457.35,-201.48 1448.54,-195.58 1446.79,-202.36"/>
</g>
<!-- Node26 -->
<g id="node26" class="node">
<title>Node26</title>
<g id="a_node26"><a xlink:href="bwScrollBar_8h.html" target="_top" xlink:title=" ">
<polygon fill="none" stroke="black" points="1042,-134.5 1042,-164.5 1175,-164.5 1175,-134.5 1042,-134.5"/>
<text text-anchor="start" x="1050" y="-152.5" font-family="Helvetica,sans-Serif" font-size="10.00">bwidgets/widgets/bwScroll</text>
<text text-anchor="middle" x="1108.5" y="-141.5" font-family="Helvetica,sans-Serif" font-size="10.00">Bar.h</text>
</a>
</g>
</g>
<!-- Node14&#45;&gt;Node26 -->
<g id="edge30" class="edge">
<title>Node14&#45;&gt;Node26</title>
<path fill="none" stroke="midnightblue" d="M1429.01,-203.58C1362.82,-193.82 1267.55,-179.33 1184.5,-165 1181.46,-164.47 1178.34,-163.93 1175.2,-163.36"/>
<polygon fill="midnightblue" stroke="midnightblue" points="1428.57,-207.06 1438.97,-205.05 1429.59,-200.13 1428.57,-207.06"/>
</g>
<!-- Node18 -->
<g id="node18" class="node">
<title>Node18</title>
<g id="a_node18"><a xlink:href="builtin__widgets_8h.html" target="_top" xlink:title=" ">
<polygon fill="none" stroke="black" points="1364,-67.5 1364,-97.5 1485,-97.5 1485,-67.5 1364,-67.5"/>
<text text-anchor="start" x="1372" y="-85.5" font-family="Helvetica,sans-Serif" font-size="10.00">bwidgets/widgets/builtin</text>
<text text-anchor="middle" x="1424.5" y="-74.5" font-family="Helvetica,sans-Serif" font-size="10.00">_widgets.h</text>
</a>
</g>
</g>
<!-- Node17&#45;&gt;Node18 -->
<g id="edge19" class="edge">
<title>Node17&#45;&gt;Node18</title>
<path fill="none" stroke="midnightblue" d="M1425.91,-129.41C1425.6,-119.22 1425.22,-106.9 1424.93,-97.59"/>
<polygon fill="midnightblue" stroke="midnightblue" points="1422.42,-129.85 1426.23,-139.73 1429.42,-129.63 1422.42,-129.85"/>
</g>
<!-- Node21 -->
<g id="node21" class="node">
<title>Node21</title>
<g id="a_node21"><a xlink:href="bwCheckbox_8cc.html" target="_top" xlink:title=" ">
<polygon fill="none" stroke="black" points="1503.5,-73 1503.5,-92 1669.5,-92 1669.5,-73 1503.5,-73"/>
<text text-anchor="middle" x="1586.5" y="-80" font-family="Helvetica,sans-Serif" font-size="10.00">bwidgets/widgets/bwCheckbox.cc</text>
</a>
</g>
</g>
<!-- Node17&#45;&gt;Node21 -->
<g id="edge23" class="edge">
<title>Node17&#45;&gt;Node21</title>
<path fill="none" stroke="midnightblue" d="M1457.01,-136.1C1488.78,-123.2 1537.69,-103.33 1565.42,-92.06"/>
<polygon fill="midnightblue" stroke="midnightblue" points="1455.69,-132.86 1447.75,-139.87 1458.33,-139.35 1455.69,-132.86"/>
</g>
<!-- Node18&#45;&gt;Node15 -->
<g id="edge20" class="edge">
<title>Node18&#45;&gt;Node15</title>
<path fill="none" stroke="midnightblue" d="M1495.05,-66.95C1588.24,-49.95 1684.49,-34.96 1745.8,-25.74"/>
<polygon fill="midnightblue" stroke="midnightblue" points="1494.38,-63.51 1485.17,-68.76 1495.64,-70.4 1494.38,-63.51"/>
</g>
<!-- Node19 -->
<g id="node19" class="node">
<title>Node19</title>
<g id="a_node19"><a xlink:href="bwStyleClassic_8cc.html" target="_top" xlink:title=" ">
<polygon fill="none" stroke="black" points="1433.5,-0.5 1433.5,-30.5 1549.5,-30.5 1549.5,-0.5 1433.5,-0.5"/>
<text text-anchor="start" x="1441.5" y="-18.5" font-family="Helvetica,sans-Serif" font-size="10.00">bwidgets/styling/styles</text>
<text text-anchor="middle" x="1491.5" y="-7.5" font-family="Helvetica,sans-Serif" font-size="10.00">/bwStyleClassic.cc</text>
</a>
</g>
</g>
<!-- Node18&#45;&gt;Node19 -->
<g id="edge21" class="edge">
<title>Node18&#45;&gt;Node19</title>
<path fill="none" stroke="midnightblue" d="M1446.34,-60.31C1456.39,-50.56 1468.04,-39.26 1476.99,-30.58"/>
<polygon fill="midnightblue" stroke="midnightblue" points="1443.78,-57.92 1439.04,-67.4 1448.65,-62.94 1443.78,-57.92"/>
</g>
<!-- Node20 -->
<g id="node20" class="node">
<title>Node20</title>
<g id="a_node20"><a xlink:href="bwStyleFlatGrey_8cc.html" target="_top" xlink:title=" ">
<polygon fill="none" stroke="black" points="1299.5,-0.5 1299.5,-30.5 1415.5,-30.5 1415.5,-0.5 1299.5,-0.5"/>
<text text-anchor="start" x="1307.5" y="-18.5" font-family="Helvetica,sans-Serif" font-size="10.00">bwidgets/styling/styles</text>
<text text-anchor="middle" x="1357.5" y="-7.5" font-family="Helvetica,sans-Serif" font-size="10.00">/bwStyleFlatGrey.cc</text>
</a>
</g>
</g>
<!-- Node18&#45;&gt;Node20 -->
<g id="edge22" class="edge">
<title>Node18&#45;&gt;Node20</title>
<path fill="none" stroke="midnightblue" d="M1402.66,-60.31C1392.61,-50.56 1380.96,-39.26 1372.01,-30.58"/>
<polygon fill="midnightblue" stroke="midnightblue" points="1400.35,-62.94 1409.96,-67.4 1405.22,-57.92 1400.35,-62.94"/>
</g>
<!-- Node22&#45;&gt;Node18 -->
<g id="edge25" class="edge">
<title>Node22&#45;&gt;Node18</title>
<path fill="none" stroke="midnightblue" d="M1712.28,-138.13C1656.14,-128.19 1569.48,-112.6 1494.5,-98 1491.45,-97.41 1488.34,-96.79 1485.19,-96.16"/>
<polygon fill="midnightblue" stroke="midnightblue" points="1711.94,-141.62 1722.4,-139.91 1713.16,-134.73 1711.94,-141.62"/>
</g>
<!-- Node23 -->
<g id="node23" class="node">
<title>Node23</title>
<g id="a_node23"><a xlink:href="bwPushButton_8cc.html" target="_top" xlink:title=" ">
<polygon fill="none" stroke="black" points="1688,-73 1688,-92 1861,-92 1861,-73 1688,-73"/>
<text text-anchor="middle" x="1774.5" y="-80" font-family="Helvetica,sans-Serif" font-size="10.00">bwidgets/widgets/bwPushButton.cc</text>
</a>
</g>
</g>
<!-- Node22&#45;&gt;Node23 -->
<g id="edge26" class="edge">
<title>Node22&#45;&gt;Node23</title>
<path fill="none" stroke="midnightblue" d="M1772.38,-129.54C1772.95,-117.17 1773.66,-101.62 1774.1,-92.13"/>
<polygon fill="midnightblue" stroke="midnightblue" points="1768.87,-129.58 1771.9,-139.73 1775.86,-129.91 1768.87,-129.58"/>
</g>
<!-- Node24&#45;&gt;Node18 -->
<g id="edge28" class="edge">
<title>Node24&#45;&gt;Node18</title>
<path fill="none" stroke="midnightblue" d="M1305.46,-130.68C1331.76,-120.26 1364.5,-107.28 1388.98,-97.58"/>
<polygon fill="midnightblue" stroke="midnightblue" points="1304.09,-127.46 1296.09,-134.4 1306.67,-133.97 1304.09,-127.46"/>
</g>
<!-- Node25 -->
<g id="node25" class="node">
<title>Node25</title>
<g id="a_node25"><a xlink:href="bwRadioButton_8cc.html" target="_top" xlink:title=" ">
<polygon fill="none" stroke="black" points="1193.5,-67.5 1193.5,-97.5 1327.5,-97.5 1327.5,-67.5 1193.5,-67.5"/>
<text text-anchor="start" x="1201.5" y="-85.5" font-family="Helvetica,sans-Serif" font-size="10.00">bwidgets/widgets/bwRadio</text>
<text text-anchor="middle" x="1260.5" y="-74.5" font-family="Helvetica,sans-Serif" font-size="10.00">Button.cc</text>
</a>
</g>
</g>
<!-- Node24&#45;&gt;Node25 -->
<g id="edge29" class="edge">
<title>Node24&#45;&gt;Node25</title>
<path fill="none" stroke="midnightblue" d="M1260.5,-124.11C1260.5,-115.15 1260.5,-105.32 1260.5,-97.58"/>
<polygon fill="midnightblue" stroke="midnightblue" points="1257,-124.4 1260.5,-134.4 1264,-124.4 1257,-124.4"/>
</g>
<!-- Node26&#45;&gt;Node7 -->
<g id="edge33" class="edge">
<title>Node26&#45;&gt;Node7</title>
<path fill="none" stroke="midnightblue" d="M1075.9,-129.4C1043.86,-111.27 993.11,-84.31 946.5,-67 902.45,-50.64 851.04,-37.87 811.12,-29.27"/>
<polygon fill="midnightblue" stroke="midnightblue" points="1074.4,-132.57 1084.82,-134.49 1077.87,-126.49 1074.4,-132.57"/>
</g>
<!-- Node26&#45;&gt;Node18 -->
<g id="edge31" class="edge">
<title>Node26&#45;&gt;Node18</title>
<path fill="none" stroke="midnightblue" d="M1185.16,-132.73C1240.06,-121.44 1312.98,-106.44 1363.84,-95.98"/>
<polygon fill="midnightblue" stroke="midnightblue" points="1184.22,-129.35 1175.13,-134.79 1185.63,-136.21 1184.22,-129.35"/>
</g>
<!-- Node27 -->
<g id="node27" class="node">
<title>Node27</title>
<g id="a_node27"><a xlink:href="bwScrollBar_8cc.html" target="_top" xlink:title=" ">
<polygon fill="none" stroke="black" points="1042,-67.5 1042,-97.5 1175,-97.5 1175,-67.5 1042,-67.5"/>
<text text-anchor="start" x="1050" y="-85.5" font-family="Helvetica,sans-Serif" font-size="10.00">bwidgets/widgets/bwScroll</text>
<text text-anchor="middle" x="1108.5" y="-74.5" font-family="Helvetica,sans-Serif" font-size="10.00">Bar.cc</text>
</a>
</g>
</g>
<!-- Node26&#45;&gt;Node27 -->
<g id="edge32" class="edge">
<title>Node26&#45;&gt;Node27</title>
<path fill="none" stroke="midnightblue" d="M1108.5,-124.11C1108.5,-115.15 1108.5,-105.32 1108.5,-97.58"/>
<polygon fill="midnightblue" stroke="midnightblue" points="1105,-124.4 1108.5,-134.4 1112,-124.4 1105,-124.4"/>
</g>
<!-- Node28&#45;&gt;Node8 -->
<g id="edge35" class="edge">
<title>Node28&#45;&gt;Node8</title>
<path fill="none" stroke="midnightblue" d="M710.22,-199.3C659.2,-188.17 592.4,-173.6 545.12,-163.29"/>
<polygon fill="midnightblue" stroke="midnightblue" points="709.69,-202.76 720.21,-201.48 711.18,-195.93 709.69,-202.76"/>
</g>
<!-- Node29 -->
<g id="node29" class="node">
<title>Node29</title>
<g id="a_node29"><a xlink:href="bwContainerWidget_8cc.html" target="_top" xlink:title=" ">
<polygon fill="none" stroke="black" points="873.5,-134.5 873.5,-164.5 1023.5,-164.5 1023.5,-134.5 873.5,-134.5"/>
<text text-anchor="start" x="881.5" y="-152.5" font-family="Helvetica,sans-Serif" font-size="10.00">bwidgets/widgets/bwContainer</text>
<text text-anchor="middle" x="948.5" y="-141.5" font-family="Helvetica,sans-Serif" font-size="10.00">Widget.cc</text>
</a>
</g>
</g>
<!-- Node28&#45;&gt;Node29 -->
<g id="edge36" class="edge">
<title>Node28&#45;&gt;Node29</title>
<path fill="none" stroke="midnightblue" d="M829.46,-197.68C855.76,-187.26 888.5,-174.28 912.98,-164.58"/>
<polygon fill="midnightblue" stroke="midnightblue" points="828.09,-194.46 820.09,-201.4 830.67,-200.97 828.09,-194.46"/>
</g>
<!-- Node30 -->
<g id="node30" class="node">
<title>Node30</title>
<g id="a_node30"><a xlink:href="bwPanel_8h.html" target="_top" xlink:title=" ">
<polygon fill="none" stroke="black" points="714,-140 714,-159 855,-159 855,-140 714,-140"/>
<text text-anchor="middle" x="784.5" y="-147" font-family="Helvetica,sans-Serif" font-size="10.00">bwidgets/widgets/bwPanel.h</text>
</a>
</g>
</g>
<!-- Node28&#45;&gt;Node30 -->
<g id="edge37" class="edge">
<title>Node28&#45;&gt;Node30</title>
<path fill="none" stroke="midnightblue" d="M784.5,-191.25C784.5,-180.02 784.5,-167.38 784.5,-159.19"/>
<polygon fill="midnightblue" stroke="midnightblue" points="781,-191.4 784.5,-201.4 788,-191.4 781,-191.4"/>
</g>
<!-- Node32 -->
<g id="node32" class="node">
<title>Node32</title>
<g id="a_node32"><a xlink:href="bwScrollView_8h.html" target="_top" xlink:title=" ">
<polygon fill="none" stroke="black" points="563,-134.5 563,-164.5 696,-164.5 696,-134.5 563,-134.5"/>
<text text-anchor="start" x="571" y="-152.5" font-family="Helvetica,sans-Serif" font-size="10.00">bwidgets/widgets/bwScroll</text>
<text text-anchor="middle" x="629.5" y="-141.5" font-family="Helvetica,sans-Serif" font-size="10.00">View.h</text>
</a>
</g>
</g>
<!-- Node28&#45;&gt;Node32 -->
<g id="edge40" class="edge">
<title>Node28&#45;&gt;Node32</title>
<path fill="none" stroke="midnightblue" d="M741.35,-197.41C716.61,-187.03 686,-174.2 663.07,-164.58"/>
<polygon fill="midnightblue" stroke="midnightblue" points="740.29,-200.76 750.87,-201.4 743,-194.3 740.29,-200.76"/>
</g>
<!-- Node30&#45;&gt;Node18 -->
<g id="edge38" class="edge">
<title>Node30&#45;&gt;Node18</title>
<path fill="none" stroke="midnightblue" d="M837.22,-138.15C846.29,-136.6 855.65,-135.14 864.5,-134 1073.17,-107.2 1127.62,-123.13 1336.5,-98 1345.26,-96.95 1354.49,-95.64 1363.53,-94.25"/>
<polygon fill="midnightblue" stroke="midnightblue" points="836.38,-134.74 827.14,-139.93 837.59,-141.64 836.38,-134.74"/>
</g>
<!-- Node31 -->
<g id="node31" class="node">
<title>Node31</title>
<g id="a_node31"><a xlink:href="bwPanel_8cc.html" target="_top" xlink:title=" ">
<polygon fill="none" stroke="black" points="791.5,-73 791.5,-92 937.5,-92 937.5,-73 791.5,-73"/>
<text text-anchor="middle" x="864.5" y="-80" font-family="Helvetica,sans-Serif" font-size="10.00">bwidgets/widgets/bwPanel.cc</text>
</a>
</g>
</g>
<!-- Node30&#45;&gt;Node31 -->
<g id="edge39" class="edge">
<title>Node30&#45;&gt;Node31</title>
<path fill="none" stroke="midnightblue" d="M803.31,-133.21C819.08,-120.41 841.01,-102.59 853.88,-92.13"/>
<polygon fill="midnightblue" stroke="midnightblue" points="800.84,-130.71 795.29,-139.73 805.26,-136.14 800.84,-130.71"/>
</g>
<!-- Node32&#45;&gt;Node7 -->
<g id="edge42" class="edge">
<title>Node32&#45;&gt;Node7</title>
<path fill="none" stroke="midnightblue" d="M698.46,-130.35C714.4,-122.9 729.57,-112.49 739.5,-98 753.28,-77.89 750.8,-48.01 747.69,-30.57"/>
<polygon fill="midnightblue" stroke="midnightblue" points="696.83,-127.24 689.02,-134.41 699.59,-133.67 696.83,-127.24"/>
</g>
<!-- Node32&#45;&gt;Node18 -->
<g id="edge41" class="edge">
<title>Node32&#45;&gt;Node18</title>
<path fill="none" stroke="midnightblue" d="M706.11,-133.91C985.43,-99.91 1060.14,-128.55 1336.5,-98 1345.27,-97.03 1354.5,-95.77 1363.55,-94.41"/>
<polygon fill="midnightblue" stroke="midnightblue" points="705.58,-130.45 696.08,-135.15 706.44,-137.4 705.58,-130.45"/>
</g>
<!-- Node33&#45;&gt;Node18 -->
<g id="edge44" class="edge">
<title>Node33&#45;&gt;Node18</title>
<path fill="none" stroke="midnightblue" d="M2120.77,-197.41C2126.85,-178.95 2132.26,-150.7 2116.5,-134 2068.98,-83.65 1563.13,-107.05 1494.5,-98 1491.42,-97.59 1488.28,-97.13 1485.11,-96.62"/>
<polygon fill="midnightblue" stroke="midnightblue" points="2117.41,-196.4 2117.26,-206.99 2123.98,-198.8 2117.41,-196.4"/>
</g>
<!-- Node34 -->
<g id="node34" class="node">
<title>Node34</title>
<g id="a_node34"><a xlink:href="bwLabel_8cc.html" target="_top" xlink:title=" ">
<polygon fill="none" stroke="black" points="2325,-140 2325,-159 2470,-159 2470,-140 2325,-140"/>
<text text-anchor="middle" x="2397.5" y="-147" font-family="Helvetica,sans-Serif" font-size="10.00">bwidgets/widgets/bwLabel.cc</text>
</a>
</g>
</g>
<!-- Node33&#45;&gt;Node34 -->
<g id="edge45" class="edge">
<title>Node33&#45;&gt;Node34</title>
<path fill="none" stroke="midnightblue" d="M2160.93,-204.64C2216.89,-191.84 2308.76,-170.81 2360,-159.08"/>
<polygon fill="midnightblue" stroke="midnightblue" points="2159.89,-201.29 2150.92,-206.94 2161.45,-208.12 2159.89,-201.29"/>
</g>
<!-- Node35&#45;&gt;Node18 -->
<g id="edge47" class="edge">
<title>Node35&#45;&gt;Node18</title>
<path fill="none" stroke="midnightblue" d="M1901.63,-196.83C1896.6,-177.65 1885.8,-148.6 1864.5,-134 1796.36,-87.3 1576.18,-110.4 1494.5,-98 1491.43,-97.53 1488.3,-97.02 1485.13,-96.47"/>
<polygon fill="midnightblue" stroke="midnightblue" points="1898.28,-197.86 1903.97,-206.8 1905.09,-196.26 1898.28,-197.86"/>
</g>
<!-- Node36 -->
<g id="node36" class="node">
<title>Node36</title>
<g id="a_node36"><a xlink:href="bwNumberSlider_8h.html" target="_top" xlink:title=" ">
<polygon fill="none" stroke="black" points="2164,-134.5 2164,-164.5 2307,-164.5 2307,-134.5 2164,-134.5"/>
<text text-anchor="start" x="2172" y="-152.5" font-family="Helvetica,sans-Serif" font-size="10.00">bwidgets/widgets/bwNumber</text>
<text text-anchor="middle" x="2235.5" y="-141.5" font-family="Helvetica,sans-Serif" font-size="10.00">Slider.h</text>
</a>
</g>
</g>
<!-- Node35&#45;&gt;Node36 -->
<g id="edge48" class="edge">
<title>Node35&#45;&gt;Node36</title>
<path fill="none" stroke="midnightblue" d="M1959.01,-204.96C2014.78,-193.98 2102.48,-176.7 2164.12,-164.56"/>
<polygon fill="midnightblue" stroke="midnightblue" points="1958.12,-201.57 1948.98,-206.94 1959.47,-208.44 1958.12,-201.57"/>
</g>
<!-- Node38 -->
<g id="node38" class="node">
<title>Node38</title>
<g id="a_node38"><a xlink:href="bwTextBox_8cc.html" target="_top" xlink:title=" ">
<polygon fill="none" stroke="black" points="1949.5,-140 1949.5,-159 2107.5,-159 2107.5,-140 1949.5,-140"/>
<text text-anchor="middle" x="2028.5" y="-147" font-family="Helvetica,sans-Serif" font-size="10.00">bwidgets/widgets/bwTextBox.cc</text>
</a>
</g>
</g>
<!-- Node35&#45;&gt;Node38 -->
<g id="edge51" class="edge">
<title>Node35&#45;&gt;Node38</title>
<path fill="none" stroke="midnightblue" d="M1930.85,-202.1C1955.21,-189.23 1991.3,-170.16 2012.1,-159.17"/>
<polygon fill="midnightblue" stroke="midnightblue" points="1929.04,-199.1 1921.83,-206.87 1932.31,-205.29 1929.04,-199.1"/>
</g>
<!-- Node36&#45;&gt;Node18 -->
<g id="edge49" class="edge">
<title>Node36&#45;&gt;Node18</title>
<path fill="none" stroke="midnightblue" d="M2153.46,-134.46C2152.13,-134.3 2150.81,-134.15 2149.5,-134 1859.74,-101.71 1783.61,-135.67 1494.5,-98 1491.42,-97.6 1488.28,-97.14 1485.11,-96.63"/>
<polygon fill="midnightblue" stroke="midnightblue" points="2153.42,-137.98 2163.79,-135.79 2154.32,-131.04 2153.42,-137.98"/>
</g>
<!-- Node37 -->
<g id="node37" class="node">
<title>Node37</title>
<g id="a_node37"><a xlink:href="bwNumberSlider_8cc.html" target="_top" xlink:title=" ">
<polygon fill="none" stroke="black" points="2164,-67.5 2164,-97.5 2307,-97.5 2307,-67.5 2164,-67.5"/>
<text text-anchor="start" x="2172" y="-85.5" font-family="Helvetica,sans-Serif" font-size="10.00">bwidgets/widgets/bwNumber</text>
<text text-anchor="middle" x="2235.5" y="-74.5" font-family="Helvetica,sans-Serif" font-size="10.00">Slider.cc</text>
</a>
</g>
</g>
<!-- Node36&#45;&gt;Node37 -->
<g id="edge50" class="edge">
<title>Node36&#45;&gt;Node37</title>
<path fill="none" stroke="midnightblue" d="M2235.5,-124.11C2235.5,-115.15 2235.5,-105.32 2235.5,-97.58"/>
<polygon fill="midnightblue" stroke="midnightblue" points="2232,-124.4 2235.5,-134.4 2239,-124.4 2232,-124.4"/>
</g>
</g>
</svg>
