<?xml version="1.0" encoding="UTF-8" standalone="no"?>
<!DOCTYPE svg PUBLIC "-//W3C//DTD SVG 1.1//EN"
 "http://www.w3.org/Graphics/SVG/1.1/DTD/svg11.dtd">
<!-- Generated by graphviz version 2.50.0 (20211204.2007)
 -->
<!-- Title: bwidgets/widgets/bwTextBox.cc Pages: 1 -->
<svg width="940pt" height="308pt"
 viewBox="0.00 0.00 940.19 308.00" xmlns="http://www.w3.org/2000/svg" xmlns:xlink="http://www.w3.org/1999/xlink">
<g id="graph0" class="graph" transform="scale(1 1) rotate(0) translate(4 304)">
<title>bwidgets/widgets/bwTextBox.cc</title>
<!-- Node1 -->
<g id="node1" class="node">
<title>Node1</title>
<g id="a_node1"><a xlink:title=" ">
<polygon fill="#bfbfbf" stroke="black" points="481.19,-280.5 481.19,-299.5 639.19,-299.5 639.19,-280.5 481.19,-280.5"/>
<text text-anchor="middle" x="560.19" y="-287.5" font-family="Helvetica,sans-Serif" font-size="10.00">bwidgets/widgets/bwTextBox.cc</text>
</a>
</g>
</g>
<!-- Node2 -->
<g id="node2" class="node">
<title>Node2</title>
<g id="a_node2"><a xlink:href="bwEvent_8h.html" target="_top" xlink:title=" ">
<polygon fill="none" stroke="black" points="849.69,-168.5 849.69,-187.5 912.69,-187.5 912.69,-168.5 849.69,-168.5"/>
<text text-anchor="middle" x="881.19" y="-175.5" font-family="Helvetica,sans-Serif" font-size="10.00">bwEvent.h</text>
</a>
</g>
</g>
<!-- Node1&#45;&gt;Node2 -->
<g id="edge1" class="edge">
<title>Node1&#45;&gt;Node2</title>
<path fill="none" stroke="midnightblue" d="M585.11,-280.46C641.88,-261.01 780.93,-213.36 846.24,-190.98"/>
<polygon fill="midnightblue" stroke="midnightblue" points="847.74,-194.16 856.06,-187.61 845.47,-187.54 847.74,-194.16"/>
</g>
<!-- Node6 -->
<g id="node6" class="node">
<title>Node6</title>
<g id="a_node6"><a xlink:href="bwPainter_8h.html" target="_top" xlink:title=" ">
<polygon fill="none" stroke="black" points="42.19,-224.5 42.19,-243.5 110.19,-243.5 110.19,-224.5 42.19,-224.5"/>
<text text-anchor="middle" x="76.19" y="-231.5" font-family="Helvetica,sans-Serif" font-size="10.00">bwPainter.h</text>
</a>
</g>
</g>
<!-- Node1&#45;&gt;Node6 -->
<g id="edge6" class="edge">
<title>Node1&#45;&gt;Node6</title>
<path fill="none" stroke="midnightblue" d="M483.76,-280.47C381.33,-269.04 202.84,-249.13 120.34,-239.93"/>
<polygon fill="midnightblue" stroke="midnightblue" points="120.62,-236.44 110.29,-238.8 119.84,-243.39 120.62,-236.44"/>
</g>
<!-- Node13 -->
<g id="node13" class="node">
<title>Node13</title>
<g id="a_node13"><a xlink:href="bwStyle_8h.html" target="_top" xlink:title=" ">
<polygon fill="none" stroke="black" points="601.19,-112.5 601.19,-131.5 661.19,-131.5 661.19,-112.5 601.19,-112.5"/>
<text text-anchor="middle" x="631.19" y="-119.5" font-family="Helvetica,sans-Serif" font-size="10.00">bwStyle.h</text>
</a>
</g>
</g>
<!-- Node1&#45;&gt;Node13 -->
<g id="edge14" class="edge">
<title>Node1&#45;&gt;Node13</title>
<path fill="none" stroke="midnightblue" d="M564.01,-280.08C575.23,-253.83 608.29,-176.55 623.44,-141.12"/>
<polygon fill="midnightblue" stroke="midnightblue" points="626.81,-142.14 627.52,-131.57 620.37,-139.39 626.81,-142.14"/>
</g>
<!-- Node15 -->
<g id="node15" class="node">
<title>Node15</title>
<g id="a_node15"><a xlink:href="bwTextBox_8h.html" target="_top" xlink:title=" ">
<polygon fill="none" stroke="black" points="453.19,-224.5 453.19,-243.5 527.19,-243.5 527.19,-224.5 453.19,-224.5"/>
<text text-anchor="middle" x="490.19" y="-231.5" font-family="Helvetica,sans-Serif" font-size="10.00">bwTextBox.h</text>
</a>
</g>
</g>
<!-- Node1&#45;&gt;Node15 -->
<g id="edge17" class="edge">
<title>Node1&#45;&gt;Node15</title>
<path fill="none" stroke="midnightblue" d="M548.94,-280.32C538.39,-272.18 522.39,-259.84 509.75,-250.09"/>
<polygon fill="midnightblue" stroke="midnightblue" points="511.69,-247.17 501.64,-243.83 507.42,-252.71 511.69,-247.17"/>
</g>
<!-- Node3 -->
<g id="node3" class="node">
<title>Node3</title>
<g id="a_node3"><a xlink:href="bwDistance_8h.html" target="_top" xlink:title=" ">
<polygon fill="none" stroke="black" points="842.69,-112.5 842.69,-131.5 919.69,-131.5 919.69,-112.5 842.69,-112.5"/>
<text text-anchor="middle" x="881.19" y="-119.5" font-family="Helvetica,sans-Serif" font-size="10.00">bwDistance.h</text>
</a>
</g>
</g>
<!-- Node2&#45;&gt;Node3 -->
<g id="edge2" class="edge">
<title>Node2&#45;&gt;Node3</title>
<path fill="none" stroke="midnightblue" d="M881.19,-168.08C881.19,-161.01 881.19,-150.86 881.19,-141.99"/>
<polygon fill="midnightblue" stroke="midnightblue" points="884.69,-141.75 881.19,-131.75 877.69,-141.75 884.69,-141.75"/>
</g>
<!-- Node4 -->
<g id="node4" class="node">
<title>Node4</title>
<g id="a_node4"><a xlink:href="bwPoint_8h.html" target="_top" xlink:title=" ">
<polygon fill="none" stroke="black" points="872.19,-56.5 872.19,-75.5 932.19,-75.5 932.19,-56.5 872.19,-56.5"/>
<text text-anchor="middle" x="902.19" y="-63.5" font-family="Helvetica,sans-Serif" font-size="10.00">bwPoint.h</text>
</a>
</g>
</g>
<!-- Node2&#45;&gt;Node4 -->
<g id="edge5" class="edge">
<title>Node2&#45;&gt;Node4</title>
<path fill="none" stroke="midnightblue" d="M895.56,-168.33C907.07,-160.47 922.38,-147.72 929.19,-132 936.21,-115.78 926.68,-97.14 917.06,-84"/>
<polygon fill="midnightblue" stroke="midnightblue" points="919.56,-81.51 910.59,-75.87 914.08,-85.87 919.56,-81.51"/>
</g>
<!-- Node3&#45;&gt;Node4 -->
<g id="edge3" class="edge">
<title>Node3&#45;&gt;Node4</title>
<path fill="none" stroke="midnightblue" d="M884.66,-112.08C887.5,-104.77 891.62,-94.18 895.15,-85.1"/>
<polygon fill="midnightblue" stroke="midnightblue" points="898.42,-86.34 898.78,-75.75 891.9,-83.8 898.42,-86.34"/>
</g>
<!-- Node5 -->
<g id="node5" class="node">
<title>Node5</title>
<g id="a_node5"><a xlink:title=" ">
<polygon fill="none" stroke="#bfbfbf" points="249.19,-0.5 249.19,-19.5 293.19,-19.5 293.19,-0.5 249.19,-0.5"/>
<text text-anchor="middle" x="271.19" y="-7.5" font-family="Helvetica,sans-Serif" font-size="10.00">vector</text>
</a>
</g>
</g>
<!-- Node4&#45;&gt;Node5 -->
<g id="edge4" class="edge">
<title>Node4&#45;&gt;Node5</title>
<path fill="none" stroke="midnightblue" d="M872.04,-57.57C869.06,-56.98 866.07,-56.44 863.19,-56 651.2,-23.67 392.79,-14.17 303.41,-11.74"/>
<polygon fill="midnightblue" stroke="midnightblue" points="303.45,-8.24 293.36,-11.48 303.27,-15.24 303.45,-8.24"/>
</g>
<!-- Node6&#45;&gt;Node5 -->
<g id="edge9" class="edge">
<title>Node6&#45;&gt;Node5</title>
<path fill="none" stroke="midnightblue" d="M55.82,-224.49C41.14,-217.16 22.35,-205.05 13.19,-188 -2.81,-158.24 -4.67,-141.84 11.19,-112 54.84,-29.88 179.32,-14.13 238.79,-11.39"/>
<polygon fill="midnightblue" stroke="midnightblue" points="239.24,-14.87 249.1,-11.01 238.98,-7.88 239.24,-14.87"/>
</g>
<!-- Node7 -->
<g id="node7" class="node">
<title>Node7</title>
<g id="a_node7"><a xlink:title=" ">
<polygon fill="none" stroke="#bfbfbf" points="103.19,-56.5 103.19,-75.5 155.19,-75.5 155.19,-56.5 103.19,-56.5"/>
<text text-anchor="middle" x="129.19" y="-63.5" font-family="Helvetica,sans-Serif" font-size="10.00">memory</text>
</a>
</g>
</g>
<!-- Node6&#45;&gt;Node7 -->
<g id="edge7" class="edge">
<title>Node6&#45;&gt;Node7</title>
<path fill="none" stroke="midnightblue" d="M60.4,-224.47C47.99,-216.77 31.58,-204.18 24.19,-188 10.15,-157.28 5.59,-140.2 24.19,-112 39.38,-88.96 69.07,-77.68 93.01,-72.17"/>
<polygon fill="midnightblue" stroke="midnightblue" points="93.77,-75.59 102.86,-70.15 92.36,-68.73 93.77,-75.59"/>
</g>
<!-- Node8 -->
<g id="node8" class="node">
<title>Node8</title>
<g id="a_node8"><a xlink:title=" ">
<polygon fill="none" stroke="#bfbfbf" points="299.69,-56.5 299.69,-75.5 340.69,-75.5 340.69,-56.5 299.69,-56.5"/>
<text text-anchor="middle" x="320.19" y="-63.5" font-family="Helvetica,sans-Serif" font-size="10.00">string</text>
</a>
</g>
</g>
<!-- Node6&#45;&gt;Node8 -->
<g id="edge8" class="edge">
<title>Node6&#45;&gt;Node8</title>
<path fill="none" stroke="midnightblue" d="M70.88,-224.47C58.17,-202.87 29.08,-145.32 57.19,-112 86.62,-77.1 226.63,-69.27 289.5,-67.51"/>
<polygon fill="midnightblue" stroke="midnightblue" points="289.69,-71 299.6,-67.26 289.52,-64.01 289.69,-71"/>
</g>
<!-- Node9 -->
<g id="node9" class="node">
<title>Node9</title>
<g id="a_node9"><a xlink:href="bwGradient_8h.html" target="_top" xlink:title=" ">
<polygon fill="none" stroke="black" points="180.19,-168.5 180.19,-187.5 254.19,-187.5 254.19,-168.5 180.19,-168.5"/>
<text text-anchor="middle" x="217.19" y="-175.5" font-family="Helvetica,sans-Serif" font-size="10.00">bwGradient.h</text>
</a>
</g>
</g>
<!-- Node6&#45;&gt;Node9 -->
<g id="edge10" class="edge">
<title>Node6&#45;&gt;Node9</title>
<path fill="none" stroke="midnightblue" d="M98.53,-224.44C121.94,-215.48 158.92,-201.31 185.38,-191.18"/>
<polygon fill="midnightblue" stroke="midnightblue" points="186.86,-194.36 194.95,-187.52 184.36,-187.82 186.86,-194.36"/>
</g>
<!-- Node12 -->
<g id="node12" class="node">
<title>Node12</title>
<g id="a_node12"><a xlink:href="bwIconInterface_8h.html" target="_top" xlink:title=" ">
<polygon fill="none" stroke="black" points="66.69,-168.5 66.69,-187.5 161.69,-187.5 161.69,-168.5 66.69,-168.5"/>
<text text-anchor="middle" x="114.19" y="-175.5" font-family="Helvetica,sans-Serif" font-size="10.00">bwIconInterface.h</text>
</a>
</g>
</g>
<!-- Node6&#45;&gt;Node12 -->
<g id="edge13" class="edge">
<title>Node6&#45;&gt;Node12</title>
<path fill="none" stroke="midnightblue" d="M82.46,-224.08C87.83,-216.46 95.71,-205.26 102.27,-195.94"/>
<polygon fill="midnightblue" stroke="midnightblue" points="105.14,-197.94 108.03,-187.75 99.41,-193.91 105.14,-197.94"/>
</g>
<!-- Node10 -->
<g id="node10" class="node">
<title>Node10</title>
<g id="a_node10"><a xlink:href="bwColor_8h.html" target="_top" xlink:title=" ">
<polygon fill="none" stroke="black" points="66.19,-112.5 66.19,-131.5 126.19,-131.5 126.19,-112.5 66.19,-112.5"/>
<text text-anchor="middle" x="96.19" y="-119.5" font-family="Helvetica,sans-Serif" font-size="10.00">bwColor.h</text>
</a>
</g>
</g>
<!-- Node9&#45;&gt;Node10 -->
<g id="edge11" class="edge">
<title>Node9&#45;&gt;Node10</title>
<path fill="none" stroke="midnightblue" d="M198.01,-168.44C178.28,-159.64 147.3,-145.81 124.69,-135.72"/>
<polygon fill="midnightblue" stroke="midnightblue" points="125.83,-132.4 115.27,-131.52 122.98,-138.79 125.83,-132.4"/>
</g>
<!-- Node11 -->
<g id="node11" class="node">
<title>Node11</title>
<g id="a_node11"><a xlink:href="bwRectangle_8h.html" target="_top" xlink:title=" ">
<polygon fill="none" stroke="black" points="144.19,-112.5 144.19,-131.5 226.19,-131.5 226.19,-112.5 144.19,-112.5"/>
<text text-anchor="middle" x="185.19" y="-119.5" font-family="Helvetica,sans-Serif" font-size="10.00">bwRectangle.h</text>
</a>
</g>
</g>
<!-- Node9&#45;&gt;Node11 -->
<g id="edge12" class="edge">
<title>Node9&#45;&gt;Node11</title>
<path fill="none" stroke="midnightblue" d="M211.9,-168.08C207.48,-160.61 201.02,-149.72 195.57,-140.52"/>
<polygon fill="midnightblue" stroke="midnightblue" points="198.48,-138.57 190.37,-131.75 192.46,-142.14 198.48,-138.57"/>
</g>
<!-- Node13&#45;&gt;Node8 -->
<g id="edge16" class="edge">
<title>Node13&#45;&gt;Node8</title>
<path fill="none" stroke="midnightblue" d="M601.09,-115.77C541.84,-105.49 410.67,-82.71 350.92,-72.34"/>
<polygon fill="midnightblue" stroke="midnightblue" points="351.41,-68.87 340.96,-70.61 350.21,-75.77 351.41,-68.87"/>
</g>
<!-- Node14 -->
<g id="node14" class="node">
<title>Node14</title>
<g id="a_node14"><a xlink:title=" ">
<polygon fill="none" stroke="#bfbfbf" points="590.19,-56.5 590.19,-75.5 628.19,-75.5 628.19,-56.5 590.19,-56.5"/>
<text text-anchor="middle" x="609.19" y="-63.5" font-family="Helvetica,sans-Serif" font-size="10.00">array</text>
</a>
</g>
</g>
<!-- Node13&#45;&gt;Node14 -->
<g id="edge15" class="edge">
<title>Node13&#45;&gt;Node14</title>
<path fill="none" stroke="midnightblue" d="M627.55,-112.08C624.58,-104.77 620.26,-94.18 616.56,-85.1"/>
<polygon fill="midnightblue" stroke="midnightblue" points="619.77,-83.69 612.75,-75.75 613.28,-86.33 619.77,-83.69"/>
</g>
<!-- Node16 -->
<g id="node16" class="node">
<title>Node16</title>
<g id="a_node16"><a xlink:href="bwWidget_8h.html" target="_top" xlink:title=" ">
<polygon fill="none" stroke="black" points="456.19,-168.5 456.19,-187.5 524.19,-187.5 524.19,-168.5 456.19,-168.5"/>
<text text-anchor="middle" x="490.19" y="-175.5" font-family="Helvetica,sans-Serif" font-size="10.00">bwWidget.h</text>
</a>
</g>
</g>
<!-- Node15&#45;&gt;Node16 -->
<g id="edge18" class="edge">
<title>Node15&#45;&gt;Node16</title>
<path fill="none" stroke="midnightblue" d="M490.19,-224.08C490.19,-217.01 490.19,-206.86 490.19,-197.99"/>
<polygon fill="midnightblue" stroke="midnightblue" points="493.69,-197.75 490.19,-187.75 486.69,-197.75 493.69,-197.75"/>
</g>
<!-- Node25 -->
<g id="node25" class="node">
<title>Node25</title>
<g id="a_node25"><a xlink:href="bwWidgetBaseStyle_8h.html" target="_top" xlink:title=" ">
<polygon fill="none" stroke="black" points="298.69,-168.5 298.69,-187.5 411.69,-187.5 411.69,-168.5 298.69,-168.5"/>
<text text-anchor="middle" x="355.19" y="-175.5" font-family="Helvetica,sans-Serif" font-size="10.00">bwWidgetBaseStyle.h</text>
</a>
</g>
</g>
<!-- Node15&#45;&gt;Node25 -->
<g id="edge34" class="edge">
<title>Node15&#45;&gt;Node25</title>
<path fill="none" stroke="midnightblue" d="M468.8,-224.44C446.48,-215.52 411.28,-201.44 385.98,-191.32"/>
<polygon fill="midnightblue" stroke="midnightblue" points="387.06,-187.98 376.48,-187.52 384.46,-194.48 387.06,-187.98"/>
</g>
<!-- Node16&#45;&gt;Node3 -->
<g id="edge21" class="edge">
<title>Node16&#45;&gt;Node3</title>
<path fill="none" stroke="midnightblue" d="M524.46,-173.2C584.75,-166.36 713.89,-151.06 832.51,-132.2"/>
<polygon fill="midnightblue" stroke="midnightblue" points="833.17,-135.64 842.49,-130.6 832.06,-128.72 833.17,-135.64"/>
</g>
<!-- Node16&#45;&gt;Node11 -->
<g id="edge23" class="edge">
<title>Node16&#45;&gt;Node11</title>
<path fill="none" stroke="midnightblue" d="M455.95,-171C408.86,-162.73 321.19,-147.31 236.44,-132.22"/>
<polygon fill="midnightblue" stroke="midnightblue" points="236.85,-128.74 226.39,-130.43 235.62,-135.63 236.85,-128.74"/>
</g>
<!-- Node17 -->
<g id="node17" class="node">
<title>Node17</title>
<g id="a_node17"><a xlink:title=" ">
<polygon fill="none" stroke="#bfbfbf" points="439.19,-56.5 439.19,-75.5 489.19,-75.5 489.19,-56.5 439.19,-56.5"/>
<text text-anchor="middle" x="464.19" y="-63.5" font-family="Helvetica,sans-Serif" font-size="10.00">optional</text>
</a>
</g>
</g>
<!-- Node16&#45;&gt;Node17 -->
<g id="edge19" class="edge">
<title>Node16&#45;&gt;Node17</title>
<path fill="none" stroke="midnightblue" d="M510.14,-168.48C533.9,-157.04 568.67,-135.44 554.19,-112 542.17,-92.55 518.91,-81.23 499.05,-74.8"/>
<polygon fill="midnightblue" stroke="midnightblue" points="499.93,-71.41 489.35,-71.95 497.96,-78.13 499.93,-71.41"/>
</g>
<!-- Node18 -->
<g id="node18" class="node">
<title>Node18</title>
<g id="a_node18"><a xlink:title=" ">
<polygon fill="none" stroke="#bfbfbf" points="366.69,-112.5 366.69,-131.5 417.69,-131.5 417.69,-112.5 366.69,-112.5"/>
<text text-anchor="middle" x="392.19" y="-119.5" font-family="Helvetica,sans-Serif" font-size="10.00">typeinfo</text>
</a>
</g>
</g>
<!-- Node16&#45;&gt;Node18 -->
<g id="edge20" class="edge">
<title>Node16&#45;&gt;Node18</title>
<path fill="none" stroke="midnightblue" d="M474.44,-168.32C458.87,-159.74 434.81,-146.49 416.73,-136.52"/>
<polygon fill="midnightblue" stroke="midnightblue" points="418.34,-133.42 407.89,-131.65 414.96,-139.55 418.34,-133.42"/>
</g>
<!-- Node19 -->
<g id="node19" class="node">
<title>Node19</title>
<g id="a_node19"><a xlink:href="bwFunctorInterface_8h.html" target="_top" xlink:title=" ">
<polygon fill="none" stroke="black" points="435.69,-112.5 435.69,-131.5 544.69,-131.5 544.69,-112.5 435.69,-112.5"/>
<text text-anchor="middle" x="490.19" y="-119.5" font-family="Helvetica,sans-Serif" font-size="10.00">bwFunctorInterface.h</text>
</a>
</g>
</g>
<!-- Node16&#45;&gt;Node19 -->
<g id="edge22" class="edge">
<title>Node16&#45;&gt;Node19</title>
<path fill="none" stroke="midnightblue" d="M490.19,-168.08C490.19,-161.01 490.19,-150.86 490.19,-141.99"/>
<polygon fill="midnightblue" stroke="midnightblue" points="493.69,-141.75 490.19,-131.75 486.69,-141.75 493.69,-141.75"/>
</g>
<!-- Node20 -->
<g id="node20" class="node">
<title>Node20</title>
<g id="a_node20"><a xlink:href="bwStyleProperties_8h.html" target="_top" xlink:title=" ">
<polygon fill="none" stroke="black" points="244.19,-112.5 244.19,-131.5 348.19,-131.5 348.19,-112.5 244.19,-112.5"/>
<text text-anchor="middle" x="296.19" y="-119.5" font-family="Helvetica,sans-Serif" font-size="10.00">bwStyleProperties.h</text>
</a>
</g>
</g>
<!-- Node16&#45;&gt;Node20 -->
<g id="edge24" class="edge">
<title>Node16&#45;&gt;Node20</title>
<path fill="none" stroke="midnightblue" d="M459.45,-168.44C426.24,-159.2 373.2,-144.44 336.63,-134.26"/>
<polygon fill="midnightblue" stroke="midnightblue" points="337.36,-130.83 326.78,-131.52 335.48,-137.57 337.36,-130.83"/>
</g>
<!-- Node21 -->
<g id="node21" class="node">
<title>Node21</title>
<g id="a_node21"><a xlink:href="EventHandler_8h.html" target="_top" xlink:title=" ">
<polygon fill="none" stroke="black" points="679.69,-112.5 679.69,-131.5 824.69,-131.5 824.69,-112.5 679.69,-112.5"/>
<text text-anchor="middle" x="752.19" y="-119.5" font-family="Helvetica,sans-Serif" font-size="10.00">screen_graph/EventHandler.h</text>
</a>
</g>
</g>
<!-- Node16&#45;&gt;Node21 -->
<g id="edge29" class="edge">
<title>Node16&#45;&gt;Node21</title>
<path fill="none" stroke="midnightblue" d="M524.44,-169.94C569.3,-160.69 648.37,-144.4 700.52,-133.65"/>
<polygon fill="midnightblue" stroke="midnightblue" points="701.49,-137.02 710.58,-131.58 700.08,-130.17 701.49,-137.02"/>
</g>
<!-- Node20&#45;&gt;Node5 -->
<g id="edge28" class="edge">
<title>Node20&#45;&gt;Node5</title>
<path fill="none" stroke="midnightblue" d="M294.23,-112.37C290.19,-94.62 280.88,-53.67 275.41,-29.6"/>
<polygon fill="midnightblue" stroke="midnightblue" points="278.77,-28.57 273.14,-19.59 271.94,-30.12 278.77,-28.57"/>
</g>
<!-- Node20&#45;&gt;Node7 -->
<g id="edge25" class="edge">
<title>Node20&#45;&gt;Node7</title>
<path fill="none" stroke="midnightblue" d="M269.73,-112.44C241.43,-103.29 196.38,-88.73 164.94,-78.56"/>
<polygon fill="midnightblue" stroke="midnightblue" points="165.84,-75.17 155.25,-75.43 163.69,-81.83 165.84,-75.17"/>
</g>
<!-- Node20&#45;&gt;Node8 -->
<g id="edge27" class="edge">
<title>Node20&#45;&gt;Node8</title>
<path fill="none" stroke="midnightblue" d="M300.15,-112.08C303.4,-104.77 308.11,-94.18 312.14,-85.1"/>
<polygon fill="midnightblue" stroke="midnightblue" points="315.44,-86.31 316.3,-75.75 309.04,-83.47 315.44,-86.31"/>
</g>
<!-- Node20&#45;&gt;Node17 -->
<g id="edge26" class="edge">
<title>Node20&#45;&gt;Node17</title>
<path fill="none" stroke="midnightblue" d="M322.81,-112.44C351.61,-103.19 397.66,-88.39 429.33,-78.21"/>
<polygon fill="midnightblue" stroke="midnightblue" points="430.61,-81.47 439.06,-75.08 428.47,-74.8 430.61,-81.47"/>
</g>
<!-- Node21&#45;&gt;Node14 -->
<g id="edge30" class="edge">
<title>Node21&#45;&gt;Node14</title>
<path fill="none" stroke="midnightblue" d="M729.53,-112.44C704.81,-103.11 665.17,-88.14 638.19,-77.95"/>
<polygon fill="midnightblue" stroke="midnightblue" points="639.12,-74.56 628.53,-74.3 636.65,-81.11 639.12,-74.56"/>
</g>
<!-- Node22 -->
<g id="node22" class="node">
<title>Node22</title>
<g id="a_node22"><a xlink:title=" ">
<polygon fill="none" stroke="#bfbfbf" points="747.69,-56.5 747.69,-75.5 806.69,-75.5 806.69,-56.5 747.69,-56.5"/>
<text text-anchor="middle" x="777.19" y="-63.5" font-family="Helvetica,sans-Serif" font-size="10.00">functional</text>
</a>
</g>
</g>
<!-- Node21&#45;&gt;Node22 -->
<g id="edge31" class="edge">
<title>Node21&#45;&gt;Node22</title>
<path fill="none" stroke="midnightblue" d="M756.32,-112.08C759.7,-104.77 764.6,-94.18 768.81,-85.1"/>
<polygon fill="midnightblue" stroke="midnightblue" points="772.11,-86.3 773.14,-75.75 765.76,-83.36 772.11,-86.3"/>
</g>
<!-- Node23 -->
<g id="node23" class="node">
<title>Node23</title>
<g id="a_node23"><a xlink:title=" ">
<polygon fill="none" stroke="#bfbfbf" points="824.69,-56.5 824.69,-75.5 853.69,-75.5 853.69,-56.5 824.69,-56.5"/>
<text text-anchor="middle" x="839.19" y="-63.5" font-family="Helvetica,sans-Serif" font-size="10.00">list</text>
</a>
</g>
</g>
<!-- Node21&#45;&gt;Node23 -->
<g id="edge32" class="edge">
<title>Node21&#45;&gt;Node23</title>
<path fill="none" stroke="midnightblue" d="M766.17,-112.32C779.74,-103.9 800.57,-90.97 816.51,-81.07"/>
<polygon fill="midnightblue" stroke="midnightblue" points="818.59,-83.9 825.24,-75.65 814.9,-77.95 818.59,-83.9"/>
</g>
<!-- Node24 -->
<g id="node24" class="node">
<title>Node24</title>
<g id="a_node24"><a xlink:title=" ">
<polygon fill="none" stroke="#bfbfbf" points="646.69,-56.5 646.69,-75.5 729.69,-75.5 729.69,-56.5 646.69,-56.5"/>
<text text-anchor="middle" x="688.19" y="-63.5" font-family="Helvetica,sans-Serif" font-size="10.00">unordered_map</text>
</a>
</g>
</g>
<!-- Node21&#45;&gt;Node24 -->
<g id="edge33" class="edge">
<title>Node21&#45;&gt;Node24</title>
<path fill="none" stroke="midnightblue" d="M741.91,-112.32C732.35,-104.26 717.91,-92.08 706.4,-82.37"/>
<polygon fill="midnightblue" stroke="midnightblue" points="708.56,-79.61 698.66,-75.83 704.04,-84.96 708.56,-79.61"/>
</g>
<!-- Node25&#45;&gt;Node10 -->
<g id="edge35" class="edge">
<title>Node25&#45;&gt;Node10</title>
<path fill="none" stroke="midnightblue" d="M311.71,-168.44C269.36,-160.03 202.92,-146.63 136.24,-132.19"/>
<polygon fill="midnightblue" stroke="midnightblue" points="136.92,-128.76 126.4,-130.05 135.43,-135.6 136.92,-128.76"/>
</g>
</g>
</svg>
