<?xml version="1.0" encoding="UTF-8" standalone="no"?>
<!DOCTYPE svg PUBLIC "-//W3C//DTD SVG 1.1//EN"
 "http://www.w3.org/Graphics/SVG/1.1/DTD/svg11.dtd">
<!-- Generated by graphviz version 2.50.0 (20211204.2007)
 -->
<!-- Title: bwidgets/widgets/bwTextBox.h Pages: 1 -->
<svg width="558pt" height="229pt"
 viewBox="0.00 0.00 557.50 229.00" xmlns="http://www.w3.org/2000/svg" xmlns:xlink="http://www.w3.org/1999/xlink">
<g id="graph0" class="graph" transform="scale(1 1) rotate(0) translate(4 225)">
<title>bwidgets/widgets/bwTextBox.h</title>
<!-- Node1 -->
<g id="node1" class="node">
<title>Node1</title>
<g id="a_node1"><a xlink:title=" ">
<polygon fill="#bfbfbf" stroke="black" points="225.5,-201.5 225.5,-220.5 377.5,-220.5 377.5,-201.5 225.5,-201.5"/>
<text text-anchor="middle" x="301.5" y="-208.5" font-family="Helvetica,sans-Serif" font-size="10.00">bwidgets/widgets/bwTextBox.h</text>
</a>
</g>
</g>
<!-- Node2 -->
<g id="node2" class="node">
<title>Node2</title>
<g id="a_node2"><a xlink:href="builtin__widgets_8h.html" target="_top" xlink:title=" ">
<polygon fill="none" stroke="black" points="141,-67.5 141,-97.5 262,-97.5 262,-67.5 141,-67.5"/>
<text text-anchor="start" x="149" y="-85.5" font-family="Helvetica,sans-Serif" font-size="10.00">bwidgets/widgets/builtin</text>
<text text-anchor="middle" x="201.5" y="-74.5" font-family="Helvetica,sans-Serif" font-size="10.00">_widgets.h</text>
</a>
</g>
</g>
<!-- Node1&#45;&gt;Node2 -->
<g id="edge1" class="edge">
<title>Node1&#45;&gt;Node2</title>
<path fill="none" stroke="midnightblue" d="M265.56,-197.39C249.89,-190.18 232.59,-179.61 221.5,-165 206.34,-145.04 202.53,-115.11 201.65,-97.62"/>
<polygon fill="midnightblue" stroke="midnightblue" points="264.47,-200.73 275.04,-201.45 267.22,-194.29 264.47,-200.73"/>
</g>
<!-- Node6 -->
<g id="node6" class="node">
<title>Node6</title>
<g id="a_node6"><a xlink:href="bwNumberSlider_8h.html" target="_top" xlink:title=" ">
<polygon fill="none" stroke="black" points="230,-134.5 230,-164.5 373,-164.5 373,-134.5 230,-134.5"/>
<text text-anchor="start" x="238" y="-152.5" font-family="Helvetica,sans-Serif" font-size="10.00">bwidgets/widgets/bwNumber</text>
<text text-anchor="middle" x="301.5" y="-141.5" font-family="Helvetica,sans-Serif" font-size="10.00">Slider.h</text>
</a>
</g>
</g>
<!-- Node1&#45;&gt;Node6 -->
<g id="edge5" class="edge">
<title>Node1&#45;&gt;Node6</title>
<path fill="none" stroke="midnightblue" d="M301.5,-191.23C301.5,-182.59 301.5,-172.5 301.5,-164.52"/>
<polygon fill="midnightblue" stroke="midnightblue" points="298,-191.48 301.5,-201.48 305,-191.48 298,-191.48"/>
</g>
<!-- Node8 -->
<g id="node8" class="node">
<title>Node8</title>
<g id="a_node8"><a xlink:href="bwTextBox_8cc.html" target="_top" xlink:title=" ">
<polygon fill="none" stroke="black" points="391.5,-140 391.5,-159 549.5,-159 549.5,-140 391.5,-140"/>
<text text-anchor="middle" x="470.5" y="-147" font-family="Helvetica,sans-Serif" font-size="10.00">bwidgets/widgets/bwTextBox.cc</text>
</a>
</g>
</g>
<!-- Node1&#45;&gt;Node8 -->
<g id="edge8" class="edge">
<title>Node1&#45;&gt;Node8</title>
<path fill="none" stroke="midnightblue" d="M335.35,-198.08C368.2,-186.52 417.24,-169.25 446.33,-159.01"/>
<polygon fill="midnightblue" stroke="midnightblue" points="333.98,-194.85 325.71,-201.48 336.31,-201.46 333.98,-194.85"/>
</g>
<!-- Node3 -->
<g id="node3" class="node">
<title>Node3</title>
<g id="a_node3"><a xlink:href="bwStyleCSS_8cc.html" target="_top" xlink:title=" ">
<polygon fill="none" stroke="black" points="0,-0.5 0,-30.5 125,-30.5 125,-0.5 0,-0.5"/>
<text text-anchor="start" x="8" y="-18.5" font-family="Helvetica,sans-Serif" font-size="10.00">bwidgets/styling/bwStyle</text>
<text text-anchor="middle" x="62.5" y="-7.5" font-family="Helvetica,sans-Serif" font-size="10.00">CSS.cc</text>
</a>
</g>
</g>
<!-- Node2&#45;&gt;Node3 -->
<g id="edge2" class="edge">
<title>Node2&#45;&gt;Node3</title>
<path fill="none" stroke="midnightblue" d="M162.22,-63.13C140.13,-52.8 112.99,-40.11 92.6,-30.58"/>
<polygon fill="midnightblue" stroke="midnightblue" points="160.8,-66.33 171.34,-67.4 163.76,-59.99 160.8,-66.33"/>
</g>
<!-- Node4 -->
<g id="node4" class="node">
<title>Node4</title>
<g id="a_node4"><a xlink:href="bwStyleClassic_8cc.html" target="_top" xlink:title=" ">
<polygon fill="none" stroke="black" points="143.5,-0.5 143.5,-30.5 259.5,-30.5 259.5,-0.5 143.5,-0.5"/>
<text text-anchor="start" x="151.5" y="-18.5" font-family="Helvetica,sans-Serif" font-size="10.00">bwidgets/styling/styles</text>
<text text-anchor="middle" x="201.5" y="-7.5" font-family="Helvetica,sans-Serif" font-size="10.00">/bwStyleClassic.cc</text>
</a>
</g>
</g>
<!-- Node2&#45;&gt;Node4 -->
<g id="edge3" class="edge">
<title>Node2&#45;&gt;Node4</title>
<path fill="none" stroke="midnightblue" d="M201.5,-57.11C201.5,-48.15 201.5,-38.32 201.5,-30.58"/>
<polygon fill="midnightblue" stroke="midnightblue" points="198,-57.4 201.5,-67.4 205,-57.4 198,-57.4"/>
</g>
<!-- Node5 -->
<g id="node5" class="node">
<title>Node5</title>
<g id="a_node5"><a xlink:href="bwStyleFlatGrey_8cc.html" target="_top" xlink:title=" ">
<polygon fill="none" stroke="black" points="277.5,-0.5 277.5,-30.5 393.5,-30.5 393.5,-0.5 277.5,-0.5"/>
<text text-anchor="start" x="285.5" y="-18.5" font-family="Helvetica,sans-Serif" font-size="10.00">bwidgets/styling/styles</text>
<text text-anchor="middle" x="335.5" y="-7.5" font-family="Helvetica,sans-Serif" font-size="10.00">/bwStyleFlatGrey.cc</text>
</a>
</g>
</g>
<!-- Node2&#45;&gt;Node5 -->
<g id="edge4" class="edge">
<title>Node2&#45;&gt;Node5</title>
<path fill="none" stroke="midnightblue" d="M239.65,-62.99C260.89,-52.69 286.91,-40.07 306.48,-30.58"/>
<polygon fill="midnightblue" stroke="midnightblue" points="238.05,-59.88 230.58,-67.4 241.1,-66.18 238.05,-59.88"/>
</g>
<!-- Node6&#45;&gt;Node2 -->
<g id="edge6" class="edge">
<title>Node6&#45;&gt;Node2</title>
<path fill="none" stroke="midnightblue" d="M271.09,-128.73C255.62,-118.68 237.17,-106.68 223.16,-97.58"/>
<polygon fill="midnightblue" stroke="midnightblue" points="269.51,-131.88 279.8,-134.4 273.32,-126.01 269.51,-131.88"/>
</g>
<!-- Node7 -->
<g id="node7" class="node">
<title>Node7</title>
<g id="a_node7"><a xlink:href="bwNumberSlider_8cc.html" target="_top" xlink:title=" ">
<polygon fill="none" stroke="black" points="280,-67.5 280,-97.5 423,-97.5 423,-67.5 280,-67.5"/>
<text text-anchor="start" x="288" y="-85.5" font-family="Helvetica,sans-Serif" font-size="10.00">bwidgets/widgets/bwNumber</text>
<text text-anchor="middle" x="351.5" y="-74.5" font-family="Helvetica,sans-Serif" font-size="10.00">Slider.cc</text>
</a>
</g>
</g>
<!-- Node6&#45;&gt;Node7 -->
<g id="edge7" class="edge">
<title>Node6&#45;&gt;Node7</title>
<path fill="none" stroke="midnightblue" d="M318.46,-126.45C325.81,-116.9 334.19,-106 340.67,-97.58"/>
<polygon fill="midnightblue" stroke="midnightblue" points="315.67,-124.34 312.35,-134.4 321.22,-128.6 315.67,-124.34"/>
</g>
</g>
</svg>
