<?xml version="1.0" encoding="UTF-8" standalone="no"?>
<!DOCTYPE svg PUBLIC "-//W3C//DTD SVG 1.1//EN"
 "http://www.w3.org/Graphics/SVG/1.1/DTD/svg11.dtd">
<!-- Generated by graphviz version 2.50.0 (20211204.2007)
 -->
<!-- Title: bwidgets/utils/bwUtil.h Pages: 1 -->
<svg width="974pt" height="296pt"
 viewBox="0.00 0.00 973.93 296.00" xmlns="http://www.w3.org/2000/svg" xmlns:xlink="http://www.w3.org/1999/xlink">
<g id="graph0" class="graph" transform="scale(1 1) rotate(0) translate(4 292)">
<title>bwidgets/utils/bwUtil.h</title>
<!-- Node1 -->
<g id="node1" class="node">
<title>Node1</title>
<g id="a_node1"><a xlink:title=" ">
<polygon fill="#bfbfbf" stroke="black" points="308.43,-268.5 308.43,-287.5 424.43,-287.5 424.43,-268.5 308.43,-268.5"/>
<text text-anchor="middle" x="366.43" y="-275.5" font-family="Helvetica,sans-Serif" font-size="10.00">bwidgets/utils/bwUtil.h</text>
</a>
</g>
</g>
<!-- Node2 -->
<g id="node2" class="node">
<title>Node2</title>
<g id="a_node2"><a xlink:href="bwPainter_8cc.html" target="_top" xlink:title=" ">
<polygon fill="none" stroke="black" points="234.93,-207 234.93,-226 349.93,-226 349.93,-207 234.93,-207"/>
<text text-anchor="middle" x="292.43" y="-214" font-family="Helvetica,sans-Serif" font-size="10.00">bwidgets/bwPainter.cc</text>
</a>
</g>
</g>
<!-- Node1&#45;&gt;Node2 -->
<g id="edge1" class="edge">
<title>Node1&#45;&gt;Node2</title>
<path fill="none" stroke="midnightblue" d="M347.74,-261.97C333.59,-250.59 314.66,-235.37 303.01,-226.01"/>
<polygon fill="midnightblue" stroke="midnightblue" points="345.84,-264.94 355.83,-268.48 350.23,-259.48 345.84,-264.94"/>
</g>
<!-- Node3 -->
<g id="node3" class="node">
<title>Node3</title>
<g id="a_node3"><a xlink:href="bwAbstractButton_8h.html" target="_top" xlink:title=" ">
<polygon fill="none" stroke="black" points="367.93,-201.5 367.93,-231.5 512.93,-231.5 512.93,-201.5 367.93,-201.5"/>
<text text-anchor="start" x="375.93" y="-219.5" font-family="Helvetica,sans-Serif" font-size="10.00">bwidgets/widgets/bwAbstract</text>
<text text-anchor="middle" x="440.43" y="-208.5" font-family="Helvetica,sans-Serif" font-size="10.00">Button.h</text>
</a>
</g>
</g>
<!-- Node1&#45;&gt;Node3 -->
<g id="edge2" class="edge">
<title>Node1&#45;&gt;Node3</title>
<path fill="none" stroke="midnightblue" d="M384.84,-262.2C396.51,-252.81 411.51,-240.75 422.99,-231.52"/>
<polygon fill="midnightblue" stroke="midnightblue" points="382.63,-259.48 377.03,-268.48 387.02,-264.94 382.63,-259.48"/>
</g>
<!-- Node4 -->
<g id="node4" class="node">
<title>Node4</title>
<g id="a_node4"><a xlink:href="bwStyleCSS_8cc.html" target="_top" xlink:title=" ">
<polygon fill="none" stroke="black" points="86.93,-0.5 86.93,-30.5 211.93,-30.5 211.93,-0.5 86.93,-0.5"/>
<text text-anchor="start" x="94.93" y="-18.5" font-family="Helvetica,sans-Serif" font-size="10.00">bwidgets/styling/bwStyle</text>
<text text-anchor="middle" x="149.43" y="-7.5" font-family="Helvetica,sans-Serif" font-size="10.00">CSS.cc</text>
</a>
</g>
</g>
<!-- Node3&#45;&gt;Node4 -->
<g id="edge3" class="edge">
<title>Node3&#45;&gt;Node4</title>
<path fill="none" stroke="midnightblue" d="M357.64,-201.01C192.13,-178.78 72.77,-243.4 5.43,-98 -0.36,-85.5 -2.54,-78.24 5.43,-67 23.9,-40.96 56.88,-28.24 86.63,-22.08"/>
<polygon fill="midnightblue" stroke="midnightblue" points="357.18,-204.48 367.58,-202.45 358.18,-197.55 357.18,-204.48"/>
</g>
<!-- Node5 -->
<g id="node5" class="node">
<title>Node5</title>
<g id="a_node5"><a xlink:href="bwAbstractButton_8cc.html" target="_top" xlink:title=" ">
<polygon fill="none" stroke="black" points="761.93,-134.5 761.93,-164.5 906.93,-164.5 906.93,-134.5 761.93,-134.5"/>
<text text-anchor="start" x="769.93" y="-152.5" font-family="Helvetica,sans-Serif" font-size="10.00">bwidgets/widgets/bwAbstract</text>
<text text-anchor="middle" x="834.43" y="-141.5" font-family="Helvetica,sans-Serif" font-size="10.00">Button.cc</text>
</a>
</g>
</g>
<!-- Node3&#45;&gt;Node5 -->
<g id="edge4" class="edge">
<title>Node3&#45;&gt;Node5</title>
<path fill="none" stroke="midnightblue" d="M523.13,-202.55C586.27,-192.57 675.4,-178.28 753.43,-165 756.11,-164.54 758.83,-164.08 761.58,-163.6"/>
<polygon fill="midnightblue" stroke="midnightblue" points="522.55,-199.1 513.22,-204.12 523.65,-206.02 522.55,-199.1"/>
</g>
<!-- Node6 -->
<g id="node6" class="node">
<title>Node6</title>
<g id="a_node6"><a xlink:href="bwCheckbox_8h.html" target="_top" xlink:title=" ">
<polygon fill="none" stroke="black" points="93.93,-140 93.93,-159 254.93,-159 254.93,-140 93.93,-140"/>
<text text-anchor="middle" x="174.43" y="-147" font-family="Helvetica,sans-Serif" font-size="10.00">bwidgets/widgets/bwCheckbox.h</text>
</a>
</g>
</g>
<!-- Node3&#45;&gt;Node6 -->
<g id="edge5" class="edge">
<title>Node3&#45;&gt;Node6</title>
<path fill="none" stroke="midnightblue" d="M373.19,-199.07C321.03,-186.32 250.83,-169.17 209.33,-159.03"/>
<polygon fill="midnightblue" stroke="midnightblue" points="372.5,-202.5 383.04,-201.48 374.16,-195.7 372.5,-202.5"/>
</g>
<!-- Node11 -->
<g id="node11" class="node">
<title>Node11</title>
<g id="a_node11"><a xlink:href="bwPushButton_8h.html" target="_top" xlink:title=" ">
<polygon fill="none" stroke="black" points="272.93,-140 272.93,-159 439.93,-159 439.93,-140 272.93,-140"/>
<text text-anchor="middle" x="356.43" y="-147" font-family="Helvetica,sans-Serif" font-size="10.00">bwidgets/widgets/bwPushButton.h</text>
</a>
</g>
</g>
<!-- Node3&#45;&gt;Node11 -->
<g id="edge11" class="edge">
<title>Node3&#45;&gt;Node11</title>
<path fill="none" stroke="midnightblue" d="M413.95,-195.01C398.36,-182.94 379.44,-168.3 367.67,-159.19"/>
<polygon fill="midnightblue" stroke="midnightblue" points="412.15,-198.04 422.21,-201.4 416.44,-192.51 412.15,-198.04"/>
</g>
<!-- Node13 -->
<g id="node13" class="node">
<title>Node13</title>
<g id="a_node13"><a xlink:href="bwRadioButton_8h.html" target="_top" xlink:title=" ">
<polygon fill="none" stroke="black" points="458.43,-134.5 458.43,-164.5 592.43,-164.5 592.43,-134.5 458.43,-134.5"/>
<text text-anchor="start" x="466.43" y="-152.5" font-family="Helvetica,sans-Serif" font-size="10.00">bwidgets/widgets/bwRadio</text>
<text text-anchor="middle" x="525.43" y="-141.5" font-family="Helvetica,sans-Serif" font-size="10.00">Button.h</text>
</a>
</g>
</g>
<!-- Node3&#45;&gt;Node13 -->
<g id="edge14" class="edge">
<title>Node3&#45;&gt;Node13</title>
<path fill="none" stroke="midnightblue" d="M467.02,-195.17C480.02,-185.23 495.34,-173.51 507.02,-164.58"/>
<polygon fill="midnightblue" stroke="midnightblue" points="464.69,-192.54 458.88,-201.4 468.95,-198.1 464.69,-192.54"/>
</g>
<!-- Node15 -->
<g id="node15" class="node">
<title>Node15</title>
<g id="a_node15"><a xlink:href="bwScrollBar_8h.html" target="_top" xlink:title=" ">
<polygon fill="none" stroke="black" points="610.93,-134.5 610.93,-164.5 743.93,-164.5 743.93,-134.5 610.93,-134.5"/>
<text text-anchor="start" x="618.93" y="-152.5" font-family="Helvetica,sans-Serif" font-size="10.00">bwidgets/widgets/bwScroll</text>
<text text-anchor="middle" x="677.43" y="-141.5" font-family="Helvetica,sans-Serif" font-size="10.00">Bar.h</text>
</a>
</g>
</g>
<!-- Node3&#45;&gt;Node15 -->
<g id="edge17" class="edge">
<title>Node3&#45;&gt;Node15</title>
<path fill="none" stroke="midnightblue" d="M501.63,-198.71C540.2,-188.14 589.43,-174.63 625.98,-164.61"/>
<polygon fill="midnightblue" stroke="midnightblue" points="500.28,-195.46 491.57,-201.48 502.14,-202.21 500.28,-195.46"/>
</g>
<!-- Node7 -->
<g id="node7" class="node">
<title>Node7</title>
<g id="a_node7"><a xlink:href="builtin__widgets_8h.html" target="_top" xlink:title=" ">
<polygon fill="none" stroke="black" points="389.93,-67.5 389.93,-97.5 510.93,-97.5 510.93,-67.5 389.93,-67.5"/>
<text text-anchor="start" x="397.93" y="-85.5" font-family="Helvetica,sans-Serif" font-size="10.00">bwidgets/widgets/builtin</text>
<text text-anchor="middle" x="450.43" y="-74.5" font-family="Helvetica,sans-Serif" font-size="10.00">_widgets.h</text>
</a>
</g>
</g>
<!-- Node6&#45;&gt;Node7 -->
<g id="edge6" class="edge">
<title>Node6&#45;&gt;Node7</title>
<path fill="none" stroke="midnightblue" d="M220.65,-137.62C267.35,-126.62 339.71,-109.58 390.73,-97.56"/>
<polygon fill="midnightblue" stroke="midnightblue" points="219.73,-134.24 210.8,-139.94 221.33,-141.05 219.73,-134.24"/>
</g>
<!-- Node10 -->
<g id="node10" class="node">
<title>Node10</title>
<g id="a_node10"><a xlink:href="bwCheckbox_8cc.html" target="_top" xlink:title=" ">
<polygon fill="none" stroke="black" points="14.43,-73 14.43,-92 180.43,-92 180.43,-73 14.43,-73"/>
<text text-anchor="middle" x="97.43" y="-80" font-family="Helvetica,sans-Serif" font-size="10.00">bwidgets/widgets/bwCheckbox.cc</text>
</a>
</g>
</g>
<!-- Node6&#45;&gt;Node10 -->
<g id="edge10" class="edge">
<title>Node6&#45;&gt;Node10</title>
<path fill="none" stroke="midnightblue" d="M156.32,-133.21C141.15,-120.41 120.04,-102.59 107.65,-92.13"/>
<polygon fill="midnightblue" stroke="midnightblue" points="154.15,-135.96 164.05,-139.73 158.66,-130.61 154.15,-135.96"/>
</g>
<!-- Node7&#45;&gt;Node4 -->
<g id="edge7" class="edge">
<title>Node7&#45;&gt;Node4</title>
<path fill="none" stroke="midnightblue" d="M379.94,-66.28C329.04,-55.29 260.92,-40.58 211.96,-30"/>
<polygon fill="midnightblue" stroke="midnightblue" points="379.37,-69.73 389.88,-68.42 380.85,-62.89 379.37,-69.73"/>
</g>
<!-- Node8 -->
<g id="node8" class="node">
<title>Node8</title>
<g id="a_node8"><a xlink:href="bwStyleClassic_8cc.html" target="_top" xlink:title=" ">
<polygon fill="none" stroke="black" points="459.43,-0.5 459.43,-30.5 575.43,-30.5 575.43,-0.5 459.43,-0.5"/>
<text text-anchor="start" x="467.43" y="-18.5" font-family="Helvetica,sans-Serif" font-size="10.00">bwidgets/styling/styles</text>
<text text-anchor="middle" x="517.43" y="-7.5" font-family="Helvetica,sans-Serif" font-size="10.00">/bwStyleClassic.cc</text>
</a>
</g>
</g>
<!-- Node7&#45;&gt;Node8 -->
<g id="edge8" class="edge">
<title>Node7&#45;&gt;Node8</title>
<path fill="none" stroke="midnightblue" d="M472.27,-60.31C482.32,-50.56 493.97,-39.26 502.92,-30.58"/>
<polygon fill="midnightblue" stroke="midnightblue" points="469.71,-57.92 464.97,-67.4 474.58,-62.94 469.71,-57.92"/>
</g>
<!-- Node9 -->
<g id="node9" class="node">
<title>Node9</title>
<g id="a_node9"><a xlink:href="bwStyleFlatGrey_8cc.html" target="_top" xlink:title=" ">
<polygon fill="none" stroke="black" points="325.43,-0.5 325.43,-30.5 441.43,-30.5 441.43,-0.5 325.43,-0.5"/>
<text text-anchor="start" x="333.43" y="-18.5" font-family="Helvetica,sans-Serif" font-size="10.00">bwidgets/styling/styles</text>
<text text-anchor="middle" x="383.43" y="-7.5" font-family="Helvetica,sans-Serif" font-size="10.00">/bwStyleFlatGrey.cc</text>
</a>
</g>
</g>
<!-- Node7&#45;&gt;Node9 -->
<g id="edge9" class="edge">
<title>Node7&#45;&gt;Node9</title>
<path fill="none" stroke="midnightblue" d="M428.59,-60.31C418.54,-50.56 406.89,-39.26 397.94,-30.58"/>
<polygon fill="midnightblue" stroke="midnightblue" points="426.28,-62.94 435.89,-67.4 431.15,-57.92 426.28,-62.94"/>
</g>
<!-- Node11&#45;&gt;Node7 -->
<g id="edge12" class="edge">
<title>Node11&#45;&gt;Node7</title>
<path fill="none" stroke="midnightblue" d="M377.62,-133.85C393.31,-123 414.56,-108.3 430.06,-97.59"/>
<polygon fill="midnightblue" stroke="midnightblue" points="375.34,-131.17 369.11,-139.73 379.32,-136.93 375.34,-131.17"/>
</g>
<!-- Node12 -->
<g id="node12" class="node">
<title>Node12</title>
<g id="a_node12"><a xlink:href="bwPushButton_8cc.html" target="_top" xlink:title=" ">
<polygon fill="none" stroke="black" points="198.93,-73 198.93,-92 371.93,-92 371.93,-73 198.93,-73"/>
<text text-anchor="middle" x="285.43" y="-80" font-family="Helvetica,sans-Serif" font-size="10.00">bwidgets/widgets/bwPushButton.cc</text>
</a>
</g>
</g>
<!-- Node11&#45;&gt;Node12 -->
<g id="edge13" class="edge">
<title>Node11&#45;&gt;Node12</title>
<path fill="none" stroke="midnightblue" d="M339.34,-132.86C325.39,-120.08 306.18,-102.49 294.86,-92.13"/>
<polygon fill="midnightblue" stroke="midnightblue" points="337.12,-135.56 346.86,-139.73 341.84,-130.4 337.12,-135.56"/>
</g>
<!-- Node13&#45;&gt;Node7 -->
<g id="edge15" class="edge">
<title>Node13&#45;&gt;Node7</title>
<path fill="none" stroke="midnightblue" d="M501.31,-127.6C489.99,-117.78 476.79,-106.34 466.67,-97.58"/>
<polygon fill="midnightblue" stroke="midnightblue" points="499.31,-130.49 509.16,-134.4 503.89,-125.2 499.31,-130.49"/>
</g>
<!-- Node14 -->
<g id="node14" class="node">
<title>Node14</title>
<g id="a_node14"><a xlink:href="bwRadioButton_8cc.html" target="_top" xlink:title=" ">
<polygon fill="none" stroke="black" points="529.43,-67.5 529.43,-97.5 663.43,-97.5 663.43,-67.5 529.43,-67.5"/>
<text text-anchor="start" x="537.43" y="-85.5" font-family="Helvetica,sans-Serif" font-size="10.00">bwidgets/widgets/bwRadio</text>
<text text-anchor="middle" x="596.43" y="-74.5" font-family="Helvetica,sans-Serif" font-size="10.00">Button.cc</text>
</a>
</g>
</g>
<!-- Node13&#45;&gt;Node14 -->
<g id="edge16" class="edge">
<title>Node13&#45;&gt;Node14</title>
<path fill="none" stroke="midnightblue" d="M548.26,-127.6C558.98,-117.78 571.48,-106.34 581.06,-97.58"/>
<polygon fill="midnightblue" stroke="midnightblue" points="545.85,-125.06 540.84,-134.4 550.58,-130.22 545.85,-125.06"/>
</g>
<!-- Node15&#45;&gt;Node7 -->
<g id="edge18" class="edge">
<title>Node15&#45;&gt;Node7</title>
<path fill="none" stroke="midnightblue" d="M618.81,-131.71C581.87,-121.14 534.72,-107.63 499.71,-97.61"/>
<polygon fill="midnightblue" stroke="midnightblue" points="617.88,-135.09 628.46,-134.48 619.81,-128.36 617.88,-135.09"/>
</g>
<!-- Node16 -->
<g id="node16" class="node">
<title>Node16</title>
<g id="a_node16"><a xlink:href="bwScrollBar_8cc.html" target="_top" xlink:title=" ">
<polygon fill="none" stroke="black" points="832.93,-67.5 832.93,-97.5 965.93,-97.5 965.93,-67.5 832.93,-67.5"/>
<text text-anchor="start" x="840.93" y="-85.5" font-family="Helvetica,sans-Serif" font-size="10.00">bwidgets/widgets/bwScroll</text>
<text text-anchor="middle" x="899.43" y="-74.5" font-family="Helvetica,sans-Serif" font-size="10.00">Bar.cc</text>
</a>
</g>
</g>
<!-- Node15&#45;&gt;Node16 -->
<g id="edge19" class="edge">
<title>Node15&#45;&gt;Node16</title>
<path fill="none" stroke="midnightblue" d="M735.22,-131.58C771.28,-121.02 817.15,-107.59 851.24,-97.61"/>
<polygon fill="midnightblue" stroke="midnightblue" points="733.94,-128.31 725.33,-134.48 735.91,-135.02 733.94,-128.31"/>
</g>
<!-- Node17 -->
<g id="node17" class="node">
<title>Node17</title>
<g id="a_node17"><a xlink:href="bwScrollView_8cc.html" target="_top" xlink:title=" ">
<polygon fill="none" stroke="black" points="681.93,-67.5 681.93,-97.5 814.93,-97.5 814.93,-67.5 681.93,-67.5"/>
<text text-anchor="start" x="689.93" y="-85.5" font-family="Helvetica,sans-Serif" font-size="10.00">bwidgets/widgets/bwScroll</text>
<text text-anchor="middle" x="748.43" y="-74.5" font-family="Helvetica,sans-Serif" font-size="10.00">View.cc</text>
</a>
</g>
</g>
<!-- Node15&#45;&gt;Node17 -->
<g id="edge20" class="edge">
<title>Node15&#45;&gt;Node17</title>
<path fill="none" stroke="midnightblue" d="M700.26,-127.6C710.98,-117.78 723.48,-106.34 733.06,-97.58"/>
<polygon fill="midnightblue" stroke="midnightblue" points="697.85,-125.06 692.84,-134.4 702.58,-130.22 697.85,-125.06"/>
</g>
</g>
</svg>
