<?xml version="1.0" encoding="UTF-8" standalone="no"?>
<!DOCTYPE svg PUBLIC "-//W3C//DTD SVG 1.1//EN"
 "http://www.w3.org/Graphics/SVG/1.1/DTD/svg11.dtd">
<!-- Generated by graphviz version 2.50.0 (20211204.2007)
 -->
<!-- Title: bwidgets/styling/bwWidgetBaseStyle.h Pages: 1 -->
<svg width="2212pt" height="307pt"
 viewBox="0.00 0.00 2212.35 307.00" xmlns="http://www.w3.org/2000/svg" xmlns:xlink="http://www.w3.org/1999/xlink">
<g id="graph0" class="graph" transform="scale(1 1) rotate(0) translate(4 303)">
<title>bwidgets/styling/bwWidgetBaseStyle.h</title>
<!-- Node1 -->
<g id="node1" class="node">
<title>Node1</title>
<g id="a_node1"><a xlink:title=" ">
<polygon fill="#bfbfbf" stroke="black" points="462.85,-268.5 462.85,-298.5 596.85,-298.5 596.85,-268.5 462.85,-268.5"/>
<text text-anchor="start" x="470.85" y="-286.5" font-family="Helvetica,sans-Serif" font-size="10.00">bwidgets/styling/bwWidget</text>
<text text-anchor="middle" x="529.85" y="-275.5" font-family="Helvetica,sans-Serif" font-size="10.00">BaseStyle.h</text>
</a>
</g>
</g>
<!-- Node2 -->
<g id="node2" class="node">
<title>Node2</title>
<g id="a_node2"><a xlink:href="bwPainter_8cc.html" target="_top" xlink:title=" ">
<polygon fill="none" stroke="black" points="171.35,-207 171.35,-226 286.35,-226 286.35,-207 171.35,-207"/>
<text text-anchor="middle" x="228.85" y="-214" font-family="Helvetica,sans-Serif" font-size="10.00">bwidgets/bwPainter.cc</text>
</a>
</g>
</g>
<!-- Node1&#45;&gt;Node2 -->
<g id="edge1" class="edge">
<title>Node1&#45;&gt;Node2</title>
<path fill="none" stroke="midnightblue" d="M454.92,-266.34C409,-256.43 349.02,-243.49 295.85,-232 286.89,-230.06 277.26,-227.98 268.17,-226.01"/>
<polygon fill="midnightblue" stroke="midnightblue" points="454.27,-269.78 464.79,-268.47 455.75,-262.94 454.27,-269.78"/>
</g>
<!-- Node3 -->
<g id="node3" class="node">
<title>Node3</title>
<g id="a_node3"><a xlink:href="bwWidgetBaseStyle_8cc.html" target="_top" xlink:title=" ">
<polygon fill="none" stroke="black" points="304.85,-201.5 304.85,-231.5 438.85,-231.5 438.85,-201.5 304.85,-201.5"/>
<text text-anchor="start" x="312.85" y="-219.5" font-family="Helvetica,sans-Serif" font-size="10.00">bwidgets/styling/bwWidget</text>
<text text-anchor="middle" x="371.85" y="-208.5" font-family="Helvetica,sans-Serif" font-size="10.00">BaseStyle.cc</text>
</a>
</g>
</g>
<!-- Node1&#45;&gt;Node3 -->
<g id="edge2" class="edge">
<title>Node1&#45;&gt;Node3</title>
<path fill="none" stroke="midnightblue" d="M486.2,-264.54C460.92,-254.14 429.55,-241.24 406.07,-231.58"/>
<polygon fill="midnightblue" stroke="midnightblue" points="484.99,-267.83 495.57,-268.4 487.65,-261.35 484.99,-267.83"/>
</g>
<!-- Node4 -->
<g id="node4" class="node">
<title>Node4</title>
<g id="a_node4"><a xlink:href="bwAbstractButton_8h.html" target="_top" xlink:title=" ">
<polygon fill="none" stroke="black" points="457.35,-201.5 457.35,-231.5 602.35,-231.5 602.35,-201.5 457.35,-201.5"/>
<text text-anchor="start" x="465.35" y="-219.5" font-family="Helvetica,sans-Serif" font-size="10.00">bwidgets/widgets/bwAbstract</text>
<text text-anchor="middle" x="529.85" y="-208.5" font-family="Helvetica,sans-Serif" font-size="10.00">Button.h</text>
</a>
</g>
</g>
<!-- Node1&#45;&gt;Node4 -->
<g id="edge3" class="edge">
<title>Node1&#45;&gt;Node4</title>
<path fill="none" stroke="midnightblue" d="M529.85,-258.11C529.85,-249.15 529.85,-239.32 529.85,-231.58"/>
<polygon fill="midnightblue" stroke="midnightblue" points="526.35,-258.4 529.85,-268.4 533.35,-258.4 526.35,-258.4"/>
</g>
<!-- Node19 -->
<g id="node19" class="node">
<title>Node19</title>
<g id="a_node19"><a xlink:href="bwContainerWidget_8h.html" target="_top" xlink:title=" ">
<polygon fill="none" stroke="black" points="1060.85,-201.5 1060.85,-231.5 1210.85,-231.5 1210.85,-201.5 1060.85,-201.5"/>
<text text-anchor="start" x="1068.85" y="-219.5" font-family="Helvetica,sans-Serif" font-size="10.00">bwidgets/widgets/bwContainer</text>
<text text-anchor="middle" x="1135.85" y="-208.5" font-family="Helvetica,sans-Serif" font-size="10.00">Widget.h</text>
</a>
</g>
</g>
<!-- Node1&#45;&gt;Node19 -->
<g id="edge22" class="edge">
<title>Node1&#45;&gt;Node19</title>
<path fill="none" stroke="midnightblue" d="M606.98,-274.23C724.01,-261.67 945.03,-237.97 1060.81,-225.55"/>
<polygon fill="midnightblue" stroke="midnightblue" points="606.59,-270.75 597.02,-275.3 607.33,-277.71 606.59,-270.75"/>
</g>
<!-- Node32 -->
<g id="node32" class="node">
<title>Node32</title>
<g id="a_node32"><a xlink:href="bwTextBox_8h.html" target="_top" xlink:title=" ">
<polygon fill="none" stroke="black" points="1301.85,-207 1301.85,-226 1453.85,-226 1453.85,-207 1301.85,-207"/>
<text text-anchor="middle" x="1377.85" y="-214" font-family="Helvetica,sans-Serif" font-size="10.00">bwidgets/widgets/bwTextBox.h</text>
</a>
</g>
</g>
<!-- Node1&#45;&gt;Node32 -->
<g id="edge40" class="edge">
<title>Node1&#45;&gt;Node32</title>
<path fill="none" stroke="midnightblue" d="M607.04,-277.32C734.63,-268.65 997.53,-250.34 1219.85,-232 1246.48,-229.8 1275.61,-227.19 1301.53,-224.79"/>
<polygon fill="midnightblue" stroke="midnightblue" points="606.72,-273.83 596.98,-278 607.19,-280.82 606.72,-273.83"/>
</g>
<!-- Node5 -->
<g id="node5" class="node">
<title>Node5</title>
<g id="a_node5"><a xlink:href="bwStyleCSS_8cc.html" target="_top" xlink:title=" ">
<polygon fill="none" stroke="black" points="332.35,-0.5 332.35,-30.5 457.35,-30.5 457.35,-0.5 332.35,-0.5"/>
<text text-anchor="start" x="340.35" y="-18.5" font-family="Helvetica,sans-Serif" font-size="10.00">bwidgets/styling/bwStyle</text>
<text text-anchor="middle" x="394.85" y="-7.5" font-family="Helvetica,sans-Serif" font-size="10.00">CSS.cc</text>
</a>
</g>
</g>
<!-- Node4&#45;&gt;Node5 -->
<g id="edge4" class="edge">
<title>Node4&#45;&gt;Node5</title>
<path fill="none" stroke="midnightblue" d="M446.77,-201.27C367.63,-195.26 52.42,-198.27 21.85,-165 -7.62,-132.93 -6.81,-99.8 21.85,-67 41.92,-44.03 231.21,-27.7 332.14,-20.54"/>
<polygon fill="midnightblue" stroke="midnightblue" points="446.73,-204.78 457.03,-202.27 447.41,-197.81 446.73,-204.78"/>
</g>
<!-- Node6 -->
<g id="node6" class="node">
<title>Node6</title>
<g id="a_node6"><a xlink:href="bwAbstractButton_8cc.html" target="_top" xlink:title=" ">
<polygon fill="none" stroke="black" points="216.35,-134.5 216.35,-164.5 361.35,-164.5 361.35,-134.5 216.35,-134.5"/>
<text text-anchor="start" x="224.35" y="-152.5" font-family="Helvetica,sans-Serif" font-size="10.00">bwidgets/widgets/bwAbstract</text>
<text text-anchor="middle" x="288.85" y="-141.5" font-family="Helvetica,sans-Serif" font-size="10.00">Button.cc</text>
</a>
</g>
</g>
<!-- Node4&#45;&gt;Node6 -->
<g id="edge5" class="edge">
<title>Node4&#45;&gt;Node6</title>
<path fill="none" stroke="midnightblue" d="M468.12,-198.85C428.82,-188.25 378.49,-174.68 341.17,-164.61"/>
<polygon fill="midnightblue" stroke="midnightblue" points="467.29,-202.25 477.85,-201.48 469.11,-195.49 467.29,-202.25"/>
</g>
<!-- Node7 -->
<g id="node7" class="node">
<title>Node7</title>
<g id="a_node7"><a xlink:href="bwCheckbox_8h.html" target="_top" xlink:title=" ">
<polygon fill="none" stroke="black" points="532.35,-140 532.35,-159 693.35,-159 693.35,-140 532.35,-140"/>
<text text-anchor="middle" x="612.85" y="-147" font-family="Helvetica,sans-Serif" font-size="10.00">bwidgets/widgets/bwCheckbox.h</text>
</a>
</g>
</g>
<!-- Node4&#45;&gt;Node7 -->
<g id="edge6" class="edge">
<title>Node4&#45;&gt;Node7</title>
<path fill="none" stroke="midnightblue" d="M556.02,-195.01C571.43,-182.94 590.12,-168.3 601.75,-159.19"/>
<polygon fill="midnightblue" stroke="midnightblue" points="553.58,-192.47 547.86,-201.4 557.89,-197.99 553.58,-192.47"/>
</g>
<!-- Node12 -->
<g id="node12" class="node">
<title>Node12</title>
<g id="a_node12"><a xlink:href="bwPushButton_8h.html" target="_top" xlink:title=" ">
<polygon fill="none" stroke="black" points="31.35,-140 31.35,-159 198.35,-159 198.35,-140 31.35,-140"/>
<text text-anchor="middle" x="114.85" y="-147" font-family="Helvetica,sans-Serif" font-size="10.00">bwidgets/widgets/bwPushButton.h</text>
</a>
</g>
</g>
<!-- Node4&#45;&gt;Node12 -->
<g id="edge12" class="edge">
<title>Node4&#45;&gt;Node12</title>
<path fill="none" stroke="midnightblue" d="M447.02,-200.89C339.31,-183.43 310.76,-180.95 206.85,-165 194.38,-163.09 180.97,-160.99 168.35,-159.01"/>
<polygon fill="midnightblue" stroke="midnightblue" points="446.56,-204.36 456.99,-202.51 447.68,-197.45 446.56,-204.36"/>
</g>
<!-- Node14 -->
<g id="node14" class="node">
<title>Node14</title>
<g id="a_node14"><a xlink:href="bwRadioButton_8h.html" target="_top" xlink:title=" ">
<polygon fill="none" stroke="black" points="379.85,-134.5 379.85,-164.5 513.85,-164.5 513.85,-134.5 379.85,-134.5"/>
<text text-anchor="start" x="387.85" y="-152.5" font-family="Helvetica,sans-Serif" font-size="10.00">bwidgets/widgets/bwRadio</text>
<text text-anchor="middle" x="446.85" y="-141.5" font-family="Helvetica,sans-Serif" font-size="10.00">Button.h</text>
</a>
</g>
</g>
<!-- Node4&#45;&gt;Node14 -->
<g id="edge15" class="edge">
<title>Node4&#45;&gt;Node14</title>
<path fill="none" stroke="midnightblue" d="M503.89,-195.17C491.2,-185.23 476.24,-173.51 464.82,-164.58"/>
<polygon fill="midnightblue" stroke="midnightblue" points="501.81,-197.99 511.84,-201.4 506.13,-192.47 501.81,-197.99"/>
</g>
<!-- Node16 -->
<g id="node16" class="node">
<title>Node16</title>
<g id="a_node16"><a xlink:href="bwScrollBar_8h.html" target="_top" xlink:title=" ">
<polygon fill="none" stroke="black" points="711.35,-134.5 711.35,-164.5 844.35,-164.5 844.35,-134.5 711.35,-134.5"/>
<text text-anchor="start" x="719.35" y="-152.5" font-family="Helvetica,sans-Serif" font-size="10.00">bwidgets/widgets/bwScroll</text>
<text text-anchor="middle" x="777.85" y="-141.5" font-family="Helvetica,sans-Serif" font-size="10.00">Bar.h</text>
</a>
</g>
</g>
<!-- Node4&#45;&gt;Node16 -->
<g id="edge18" class="edge">
<title>Node4&#45;&gt;Node16</title>
<path fill="none" stroke="midnightblue" d="M593.12,-198.92C633.59,-188.31 685.52,-174.7 724.01,-164.61"/>
<polygon fill="midnightblue" stroke="midnightblue" points="592.14,-195.55 583.36,-201.48 593.92,-202.33 592.14,-195.55"/>
</g>
<!-- Node8 -->
<g id="node8" class="node">
<title>Node8</title>
<g id="a_node8"><a xlink:href="builtin__widgets_8h.html" target="_top" xlink:title=" ">
<polygon fill="none" stroke="black" points="863.35,-67.5 863.35,-97.5 984.35,-97.5 984.35,-67.5 863.35,-67.5"/>
<text text-anchor="start" x="871.35" y="-85.5" font-family="Helvetica,sans-Serif" font-size="10.00">bwidgets/widgets/builtin</text>
<text text-anchor="middle" x="923.85" y="-74.5" font-family="Helvetica,sans-Serif" font-size="10.00">_widgets.h</text>
</a>
</g>
</g>
<!-- Node7&#45;&gt;Node8 -->
<g id="edge7" class="edge">
<title>Node7&#45;&gt;Node8</title>
<path fill="none" stroke="midnightblue" d="M663.64,-137.88C718.27,-126.47 805.11,-108.32 863.27,-96.16"/>
<polygon fill="midnightblue" stroke="midnightblue" points="662.9,-134.46 653.83,-139.94 664.33,-141.32 662.9,-134.46"/>
</g>
<!-- Node11 -->
<g id="node11" class="node">
<title>Node11</title>
<g id="a_node11"><a xlink:href="bwCheckbox_8cc.html" target="_top" xlink:title=" ">
<polygon fill="none" stroke="black" points="527.85,-73 527.85,-92 693.85,-92 693.85,-73 527.85,-73"/>
<text text-anchor="middle" x="610.85" y="-80" font-family="Helvetica,sans-Serif" font-size="10.00">bwidgets/widgets/bwCheckbox.cc</text>
</a>
</g>
</g>
<!-- Node7&#45;&gt;Node11 -->
<g id="edge11" class="edge">
<title>Node7&#45;&gt;Node11</title>
<path fill="none" stroke="midnightblue" d="M612.27,-129.54C611.89,-117.17 611.41,-101.62 611.12,-92.13"/>
<polygon fill="midnightblue" stroke="midnightblue" points="608.77,-129.85 612.58,-139.73 615.77,-129.63 608.77,-129.85"/>
</g>
<!-- Node8&#45;&gt;Node5 -->
<g id="edge8" class="edge">
<title>Node8&#45;&gt;Node5</title>
<path fill="none" stroke="midnightblue" d="M853.06,-66.98C705.45,-44 544.06,-28.83 457.46,-21.5"/>
<polygon fill="midnightblue" stroke="midnightblue" points="852.79,-70.48 863.21,-68.57 853.87,-63.56 852.79,-70.48"/>
</g>
<!-- Node9 -->
<g id="node9" class="node">
<title>Node9</title>
<g id="a_node9"><a xlink:href="bwStyleClassic_8cc.html" target="_top" xlink:title=" ">
<polygon fill="none" stroke="black" points="932.85,-0.5 932.85,-30.5 1048.85,-30.5 1048.85,-0.5 932.85,-0.5"/>
<text text-anchor="start" x="940.85" y="-18.5" font-family="Helvetica,sans-Serif" font-size="10.00">bwidgets/styling/styles</text>
<text text-anchor="middle" x="990.85" y="-7.5" font-family="Helvetica,sans-Serif" font-size="10.00">/bwStyleClassic.cc</text>
</a>
</g>
</g>
<!-- Node8&#45;&gt;Node9 -->
<g id="edge9" class="edge">
<title>Node8&#45;&gt;Node9</title>
<path fill="none" stroke="midnightblue" d="M945.69,-60.31C955.74,-50.56 967.39,-39.26 976.34,-30.58"/>
<polygon fill="midnightblue" stroke="midnightblue" points="943.13,-57.92 938.39,-67.4 948,-62.94 943.13,-57.92"/>
</g>
<!-- Node10 -->
<g id="node10" class="node">
<title>Node10</title>
<g id="a_node10"><a xlink:href="bwStyleFlatGrey_8cc.html" target="_top" xlink:title=" ">
<polygon fill="none" stroke="black" points="798.85,-0.5 798.85,-30.5 914.85,-30.5 914.85,-0.5 798.85,-0.5"/>
<text text-anchor="start" x="806.85" y="-18.5" font-family="Helvetica,sans-Serif" font-size="10.00">bwidgets/styling/styles</text>
<text text-anchor="middle" x="856.85" y="-7.5" font-family="Helvetica,sans-Serif" font-size="10.00">/bwStyleFlatGrey.cc</text>
</a>
</g>
</g>
<!-- Node8&#45;&gt;Node10 -->
<g id="edge10" class="edge">
<title>Node8&#45;&gt;Node10</title>
<path fill="none" stroke="midnightblue" d="M902.01,-60.31C891.96,-50.56 880.31,-39.26 871.36,-30.58"/>
<polygon fill="midnightblue" stroke="midnightblue" points="899.7,-62.94 909.31,-67.4 904.57,-57.92 899.7,-62.94"/>
</g>
<!-- Node12&#45;&gt;Node8 -->
<g id="edge13" class="edge">
<title>Node12&#45;&gt;Node8</title>
<path fill="none" stroke="midnightblue" d="M173.07,-138.42C184.25,-136.74 195.89,-135.17 206.85,-134 493.24,-103.54 568.28,-135.31 853.85,-98 856.93,-97.6 860.07,-97.14 863.24,-96.63"/>
<polygon fill="midnightblue" stroke="midnightblue" points="172.3,-134.99 162.95,-139.98 173.37,-141.91 172.3,-134.99"/>
</g>
<!-- Node13 -->
<g id="node13" class="node">
<title>Node13</title>
<g id="a_node13"><a xlink:href="bwPushButton_8cc.html" target="_top" xlink:title=" ">
<polygon fill="none" stroke="black" points="31.35,-73 31.35,-92 204.35,-92 204.35,-73 31.35,-73"/>
<text text-anchor="middle" x="117.85" y="-80" font-family="Helvetica,sans-Serif" font-size="10.00">bwidgets/widgets/bwPushButton.cc</text>
</a>
</g>
</g>
<!-- Node12&#45;&gt;Node13 -->
<g id="edge14" class="edge">
<title>Node12&#45;&gt;Node13</title>
<path fill="none" stroke="midnightblue" d="M115.73,-129.54C116.3,-117.17 117.01,-101.62 117.45,-92.13"/>
<polygon fill="midnightblue" stroke="midnightblue" points="112.22,-129.58 115.25,-139.73 119.21,-129.91 112.22,-129.58"/>
</g>
<!-- Node14&#45;&gt;Node8 -->
<g id="edge16" class="edge">
<title>Node14&#45;&gt;Node8</title>
<path fill="none" stroke="midnightblue" d="M524.23,-133.88C670.98,-112.5 710.96,-120.52 853.85,-98 856.92,-97.52 860.05,-96.99 863.21,-96.43"/>
<polygon fill="midnightblue" stroke="midnightblue" points="523.32,-130.47 513.94,-135.4 524.34,-137.4 523.32,-130.47"/>
</g>
<!-- Node15 -->
<g id="node15" class="node">
<title>Node15</title>
<g id="a_node15"><a xlink:href="bwRadioButton_8cc.html" target="_top" xlink:title=" ">
<polygon fill="none" stroke="black" points="375.85,-67.5 375.85,-97.5 509.85,-97.5 509.85,-67.5 375.85,-67.5"/>
<text text-anchor="start" x="383.85" y="-85.5" font-family="Helvetica,sans-Serif" font-size="10.00">bwidgets/widgets/bwRadio</text>
<text text-anchor="middle" x="442.85" y="-74.5" font-family="Helvetica,sans-Serif" font-size="10.00">Button.cc</text>
</a>
</g>
</g>
<!-- Node14&#45;&gt;Node15 -->
<g id="edge17" class="edge">
<title>Node14&#45;&gt;Node15</title>
<path fill="none" stroke="midnightblue" d="M445.37,-124.4C444.81,-115.37 444.2,-105.41 443.72,-97.58"/>
<polygon fill="midnightblue" stroke="midnightblue" points="441.87,-124.63 445.98,-134.4 448.86,-124.2 441.87,-124.63"/>
</g>
<!-- Node16&#45;&gt;Node8 -->
<g id="edge19" class="edge">
<title>Node16&#45;&gt;Node8</title>
<path fill="none" stroke="midnightblue" d="M818.8,-130.27C842.05,-119.92 870.72,-107.15 892.23,-97.58"/>
<polygon fill="midnightblue" stroke="midnightblue" points="817.24,-127.13 809.53,-134.4 820.09,-133.53 817.24,-127.13"/>
</g>
<!-- Node17 -->
<g id="node17" class="node">
<title>Node17</title>
<g id="a_node17"><a xlink:href="bwScrollBar_8cc.html" target="_top" xlink:title=" ">
<polygon fill="none" stroke="black" points="712.35,-67.5 712.35,-97.5 845.35,-97.5 845.35,-67.5 712.35,-67.5"/>
<text text-anchor="start" x="720.35" y="-85.5" font-family="Helvetica,sans-Serif" font-size="10.00">bwidgets/widgets/bwScroll</text>
<text text-anchor="middle" x="778.85" y="-74.5" font-family="Helvetica,sans-Serif" font-size="10.00">Bar.cc</text>
</a>
</g>
</g>
<!-- Node16&#45;&gt;Node17 -->
<g id="edge20" class="edge">
<title>Node16&#45;&gt;Node17</title>
<path fill="none" stroke="midnightblue" d="M778.23,-124.11C778.36,-115.15 778.51,-105.32 778.63,-97.58"/>
<polygon fill="midnightblue" stroke="midnightblue" points="774.72,-124.34 778.07,-134.4 781.72,-124.45 774.72,-124.34"/>
</g>
<!-- Node18 -->
<g id="node18" class="node">
<title>Node18</title>
<g id="a_node18"><a xlink:href="bwScrollView_8cc.html" target="_top" xlink:title=" ">
<polygon fill="none" stroke="black" points="1202.35,-0.5 1202.35,-30.5 1335.35,-30.5 1335.35,-0.5 1202.35,-0.5"/>
<text text-anchor="start" x="1210.35" y="-18.5" font-family="Helvetica,sans-Serif" font-size="10.00">bwidgets/widgets/bwScroll</text>
<text text-anchor="middle" x="1268.85" y="-7.5" font-family="Helvetica,sans-Serif" font-size="10.00">View.cc</text>
</a>
</g>
</g>
<!-- Node16&#45;&gt;Node18 -->
<g id="edge21" class="edge">
<title>Node16&#45;&gt;Node18</title>
<path fill="none" stroke="midnightblue" d="M852.19,-132.25C893.96,-122.83 946.98,-110.41 993.85,-98 1075.68,-76.33 1170.1,-47.5 1224.3,-30.58"/>
<polygon fill="midnightblue" stroke="midnightblue" points="851.35,-128.85 842.36,-134.45 852.89,-135.68 851.35,-128.85"/>
</g>
<!-- Node20 -->
<g id="node20" class="node">
<title>Node20</title>
<g id="a_node20"><a xlink:href="Node_8h.html" target="_top" xlink:title=" ">
<polygon fill="none" stroke="black" points="1602.35,-134.5 1602.35,-164.5 1719.35,-164.5 1719.35,-134.5 1602.35,-134.5"/>
<text text-anchor="start" x="1610.35" y="-152.5" font-family="Helvetica,sans-Serif" font-size="10.00">bwidgets/screen_graph</text>
<text text-anchor="middle" x="1660.85" y="-141.5" font-family="Helvetica,sans-Serif" font-size="10.00">/Node.h</text>
</a>
</g>
</g>
<!-- Node19&#45;&gt;Node20 -->
<g id="edge23" class="edge">
<title>Node19&#45;&gt;Node20</title>
<path fill="none" stroke="midnightblue" d="M1221.2,-204.93C1328.3,-191.67 1509.18,-169.28 1602.01,-157.78"/>
<polygon fill="midnightblue" stroke="midnightblue" points="1220.56,-201.48 1211.07,-206.19 1221.42,-208.43 1220.56,-201.48"/>
</g>
<!-- Node28 -->
<g id="node28" class="node">
<title>Node28</title>
<g id="a_node28"><a xlink:href="bwContainerWidget_8cc.html" target="_top" xlink:title=" ">
<polygon fill="none" stroke="black" points="862.85,-134.5 862.85,-164.5 1012.85,-164.5 1012.85,-134.5 862.85,-134.5"/>
<text text-anchor="start" x="870.85" y="-152.5" font-family="Helvetica,sans-Serif" font-size="10.00">bwidgets/widgets/bwContainer</text>
<text text-anchor="middle" x="937.85" y="-141.5" font-family="Helvetica,sans-Serif" font-size="10.00">Widget.cc</text>
</a>
</g>
</g>
<!-- Node19&#45;&gt;Node28 -->
<g id="edge33" class="edge">
<title>Node19&#45;&gt;Node28</title>
<path fill="none" stroke="midnightblue" d="M1083.24,-198.23C1051.21,-187.71 1010.81,-174.45 980.73,-164.58"/>
<polygon fill="midnightblue" stroke="midnightblue" points="1082.29,-201.6 1092.89,-201.4 1084.48,-194.95 1082.29,-201.6"/>
</g>
<!-- Node29 -->
<g id="node29" class="node">
<title>Node29</title>
<g id="a_node29"><a xlink:href="bwPanel_8h.html" target="_top" xlink:title=" ">
<polygon fill="none" stroke="black" points="1220.35,-140 1220.35,-159 1361.35,-159 1361.35,-140 1220.35,-140"/>
<text text-anchor="middle" x="1290.85" y="-147" font-family="Helvetica,sans-Serif" font-size="10.00">bwidgets/widgets/bwPanel.h</text>
</a>
</g>
</g>
<!-- Node19&#45;&gt;Node29 -->
<g id="edge34" class="edge">
<title>Node19&#45;&gt;Node29</title>
<path fill="none" stroke="midnightblue" d="M1178.87,-197.46C1208.82,-184.9 1247.39,-168.72 1270.56,-159.01"/>
<polygon fill="midnightblue" stroke="midnightblue" points="1177.35,-194.3 1169.48,-201.4 1180.06,-200.76 1177.35,-194.3"/>
</g>
<!-- Node31 -->
<g id="node31" class="node">
<title>Node31</title>
<g id="a_node31"><a xlink:href="bwScrollView_8h.html" target="_top" xlink:title=" ">
<polygon fill="none" stroke="black" points="1069.35,-134.5 1069.35,-164.5 1202.35,-164.5 1202.35,-134.5 1069.35,-134.5"/>
<text text-anchor="start" x="1077.35" y="-152.5" font-family="Helvetica,sans-Serif" font-size="10.00">bwidgets/widgets/bwScroll</text>
<text text-anchor="middle" x="1135.85" y="-141.5" font-family="Helvetica,sans-Serif" font-size="10.00">View.h</text>
</a>
</g>
</g>
<!-- Node19&#45;&gt;Node31 -->
<g id="edge37" class="edge">
<title>Node19&#45;&gt;Node31</title>
<path fill="none" stroke="midnightblue" d="M1135.85,-191.11C1135.85,-182.15 1135.85,-172.32 1135.85,-164.58"/>
<polygon fill="midnightblue" stroke="midnightblue" points="1132.35,-191.4 1135.85,-201.4 1139.35,-191.4 1132.35,-191.4"/>
</g>
<!-- Node20&#45;&gt;Node18 -->
<g id="edge32" class="edge">
<title>Node20&#45;&gt;Node18</title>
<path fill="none" stroke="midnightblue" d="M1592.31,-133.16C1562.57,-125 1527.97,-113.42 1498.85,-98 1479.28,-87.64 1479.64,-76.93 1459.85,-67 1420.76,-47.39 1373.23,-34.78 1335.36,-27.07"/>
<polygon fill="midnightblue" stroke="midnightblue" points="1591.62,-136.6 1602.19,-135.8 1593.43,-129.84 1591.62,-136.6"/>
</g>
<!-- Node21 -->
<g id="node21" class="node">
<title>Node21</title>
<g id="a_node21"><a xlink:href="bwEventDispatcher_8cc.html" target="_top" xlink:title=" ">
<polygon fill="none" stroke="black" points="1777.35,-73 1777.35,-92 1934.35,-92 1934.35,-73 1777.35,-73"/>
<text text-anchor="middle" x="1855.85" y="-80" font-family="Helvetica,sans-Serif" font-size="10.00">bwidgets/bwEventDispatcher.cc</text>
</a>
</g>
</g>
<!-- Node20&#45;&gt;Node21 -->
<g id="edge24" class="edge">
<title>Node20&#45;&gt;Node21</title>
<path fill="none" stroke="midnightblue" d="M1713.03,-131.11C1750.96,-118.46 1800.67,-101.89 1830.33,-92.01"/>
<polygon fill="midnightblue" stroke="midnightblue" points="1711.54,-127.91 1703.16,-134.4 1713.76,-134.55 1711.54,-127.91"/>
</g>
<!-- Node22 -->
<g id="node22" class="node">
<title>Node22</title>
<g id="a_node22"><a xlink:href="Builder_8h.html" target="_top" xlink:title=" ">
<polygon fill="none" stroke="black" points="1507.35,-67.5 1507.35,-97.5 1624.35,-97.5 1624.35,-67.5 1507.35,-67.5"/>
<text text-anchor="start" x="1515.35" y="-85.5" font-family="Helvetica,sans-Serif" font-size="10.00">bwidgets/screen_graph</text>
<text text-anchor="middle" x="1565.85" y="-74.5" font-family="Helvetica,sans-Serif" font-size="10.00">/Builder.h</text>
</a>
</g>
</g>
<!-- Node20&#45;&gt;Node22 -->
<g id="edge25" class="edge">
<title>Node20&#45;&gt;Node22</title>
<path fill="none" stroke="midnightblue" d="M1631.96,-128.73C1617.26,-118.68 1599.74,-106.68 1586.42,-97.58"/>
<polygon fill="midnightblue" stroke="midnightblue" points="1630.01,-131.64 1640.24,-134.4 1633.96,-125.86 1630.01,-131.64"/>
</g>
<!-- Node24 -->
<g id="node24" class="node">
<title>Node24</title>
<g id="a_node24"><a xlink:href="Drawer_8cc.html" target="_top" xlink:title=" ">
<polygon fill="none" stroke="black" points="1952.35,-67.5 1952.35,-97.5 2069.35,-97.5 2069.35,-67.5 1952.35,-67.5"/>
<text text-anchor="start" x="1960.35" y="-85.5" font-family="Helvetica,sans-Serif" font-size="10.00">bwidgets/screen_graph</text>
<text text-anchor="middle" x="2010.85" y="-74.5" font-family="Helvetica,sans-Serif" font-size="10.00">/Drawer.cc</text>
</a>
</g>
</g>
<!-- Node20&#45;&gt;Node24 -->
<g id="edge28" class="edge">
<title>Node20&#45;&gt;Node24</title>
<path fill="none" stroke="midnightblue" d="M1729.29,-133.97C1825.69,-115.9 1851.77,-115.66 1943.85,-98 1946.54,-97.48 1949.28,-96.94 1952.06,-96.39"/>
<polygon fill="midnightblue" stroke="midnightblue" points="1728.6,-130.54 1719.42,-135.84 1729.9,-137.42 1728.6,-130.54"/>
</g>
<!-- Node25 -->
<g id="node25" class="node">
<title>Node25</title>
<g id="a_node25"><a xlink:href="EventHandler_8cc.html" target="_top" xlink:title=" ">
<polygon fill="none" stroke="black" points="2087.35,-67.5 2087.35,-97.5 2204.35,-97.5 2204.35,-67.5 2087.35,-67.5"/>
<text text-anchor="start" x="2095.35" y="-85.5" font-family="Helvetica,sans-Serif" font-size="10.00">bwidgets/screen_graph</text>
<text text-anchor="middle" x="2145.85" y="-74.5" font-family="Helvetica,sans-Serif" font-size="10.00">/EventHandler.cc</text>
</a>
</g>
</g>
<!-- Node20&#45;&gt;Node25 -->
<g id="edge29" class="edge">
<title>Node20&#45;&gt;Node25</title>
<path fill="none" stroke="midnightblue" d="M1729.31,-134.05C1885.05,-110.17 1927.58,-122.07 2078.85,-98 2081.55,-97.57 2084.31,-97.1 2087.09,-96.6"/>
<polygon fill="midnightblue" stroke="midnightblue" points="1728.72,-130.6 1719.38,-135.6 1729.8,-137.52 1728.72,-130.6"/>
</g>
<!-- Node26 -->
<g id="node26" class="node">
<title>Node26</title>
<g id="a_node26"><a xlink:href="Iterators_8h.html" target="_top" xlink:title=" ">
<polygon fill="none" stroke="black" points="1642.35,-67.5 1642.35,-97.5 1759.35,-97.5 1759.35,-67.5 1642.35,-67.5"/>
<text text-anchor="start" x="1650.35" y="-85.5" font-family="Helvetica,sans-Serif" font-size="10.00">bwidgets/screen_graph</text>
<text text-anchor="middle" x="1700.85" y="-74.5" font-family="Helvetica,sans-Serif" font-size="10.00">/Iterators.h</text>
</a>
</g>
</g>
<!-- Node20&#45;&gt;Node26 -->
<g id="edge30" class="edge">
<title>Node20&#45;&gt;Node26</title>
<path fill="none" stroke="midnightblue" d="M1674.78,-125.87C1680.57,-116.46 1687.11,-105.83 1692.19,-97.58"/>
<polygon fill="midnightblue" stroke="midnightblue" points="1671.79,-124.05 1669.53,-134.4 1677.75,-127.71 1671.79,-124.05"/>
</g>
<!-- Node22&#45;&gt;Node18 -->
<g id="edge27" class="edge">
<title>Node22&#45;&gt;Node18</title>
<path fill="none" stroke="midnightblue" d="M1497.2,-66.48C1447.75,-55.65 1381.48,-41.15 1333.07,-30.55"/>
<polygon fill="midnightblue" stroke="midnightblue" points="1496.66,-69.94 1507.17,-68.66 1498.15,-63.1 1496.66,-69.94"/>
</g>
<!-- Node23 -->
<g id="node23" class="node">
<title>Node23</title>
<g id="a_node23"><a xlink:href="Builder_8cc.html" target="_top" xlink:title=" ">
<polygon fill="none" stroke="black" points="1507.35,-0.5 1507.35,-30.5 1624.35,-30.5 1624.35,-0.5 1507.35,-0.5"/>
<text text-anchor="start" x="1515.35" y="-18.5" font-family="Helvetica,sans-Serif" font-size="10.00">bwidgets/screen_graph</text>
<text text-anchor="middle" x="1565.85" y="-7.5" font-family="Helvetica,sans-Serif" font-size="10.00">/Builder.cc</text>
</a>
</g>
</g>
<!-- Node22&#45;&gt;Node23 -->
<g id="edge26" class="edge">
<title>Node22&#45;&gt;Node23</title>
<path fill="none" stroke="midnightblue" d="M1565.85,-57.11C1565.85,-48.15 1565.85,-38.32 1565.85,-30.58"/>
<polygon fill="midnightblue" stroke="midnightblue" points="1562.35,-57.4 1565.85,-67.4 1569.35,-57.4 1562.35,-57.4"/>
</g>
<!-- Node27 -->
<g id="node27" class="node">
<title>Node27</title>
<g id="a_node27"><a xlink:href="Iterators_8cc.html" target="_top" xlink:title=" ">
<polygon fill="none" stroke="black" points="1642.35,-0.5 1642.35,-30.5 1759.35,-30.5 1759.35,-0.5 1642.35,-0.5"/>
<text text-anchor="start" x="1650.35" y="-18.5" font-family="Helvetica,sans-Serif" font-size="10.00">bwidgets/screen_graph</text>
<text text-anchor="middle" x="1700.85" y="-7.5" font-family="Helvetica,sans-Serif" font-size="10.00">/Iterators.cc</text>
</a>
</g>
</g>
<!-- Node26&#45;&gt;Node27 -->
<g id="edge31" class="edge">
<title>Node26&#45;&gt;Node27</title>
<path fill="none" stroke="midnightblue" d="M1700.85,-57.11C1700.85,-48.15 1700.85,-38.32 1700.85,-30.58"/>
<polygon fill="midnightblue" stroke="midnightblue" points="1697.35,-57.4 1700.85,-67.4 1704.35,-57.4 1697.35,-57.4"/>
</g>
<!-- Node29&#45;&gt;Node8 -->
<g id="edge35" class="edge">
<title>Node29&#45;&gt;Node8</title>
<path fill="none" stroke="midnightblue" d="M1234.56,-138.11C1226.93,-136.72 1219.2,-135.32 1211.85,-134 1133.41,-119.92 1042.86,-104.12 984.56,-94"/>
<polygon fill="midnightblue" stroke="midnightblue" points="1234.03,-141.57 1244.49,-139.93 1235.29,-134.69 1234.03,-141.57"/>
</g>
<!-- Node30 -->
<g id="node30" class="node">
<title>Node30</title>
<g id="a_node30"><a xlink:href="bwPanel_8cc.html" target="_top" xlink:title=" ">
<polygon fill="none" stroke="black" points="1142.85,-73 1142.85,-92 1288.85,-92 1288.85,-73 1142.85,-73"/>
<text text-anchor="middle" x="1215.85" y="-80" font-family="Helvetica,sans-Serif" font-size="10.00">bwidgets/widgets/bwPanel.cc</text>
</a>
</g>
</g>
<!-- Node29&#45;&gt;Node30 -->
<g id="edge36" class="edge">
<title>Node29&#45;&gt;Node30</title>
<path fill="none" stroke="midnightblue" d="M1272.8,-132.86C1258.06,-120.08 1237.76,-102.49 1225.8,-92.13"/>
<polygon fill="midnightblue" stroke="midnightblue" points="1270.89,-135.83 1280.74,-139.73 1275.47,-130.54 1270.89,-135.83"/>
</g>
<!-- Node31&#45;&gt;Node8 -->
<g id="edge38" class="edge">
<title>Node31&#45;&gt;Node8</title>
<path fill="none" stroke="midnightblue" d="M1080.22,-131.44C1045.86,-120.91 1002.29,-107.55 969.87,-97.61"/>
<polygon fill="midnightblue" stroke="midnightblue" points="1079.52,-134.89 1090.11,-134.48 1081.58,-128.2 1079.52,-134.89"/>
</g>
<!-- Node31&#45;&gt;Node18 -->
<g id="edge39" class="edge">
<title>Node31&#45;&gt;Node18</title>
<path fill="none" stroke="midnightblue" d="M1128.24,-124.39C1124.28,-106.93 1122.36,-83.57 1133.85,-67 1149.47,-44.48 1176.42,-31.99 1202.16,-25.07"/>
<polygon fill="midnightblue" stroke="midnightblue" points="1124.94,-125.61 1130.86,-134.4 1131.71,-123.83 1124.94,-125.61"/>
</g>
<!-- Node32&#45;&gt;Node8 -->
<g id="edge41" class="edge">
<title>Node32&#45;&gt;Node8</title>
<path fill="none" stroke="midnightblue" d="M1291.76,-206.76C1212.44,-197.82 1101.14,-182.74 1060.85,-165 1040.59,-156.08 1040.45,-146.02 1021.85,-134 1000.47,-120.18 974.85,-107.09 955.17,-97.7"/>
<polygon fill="midnightblue" stroke="midnightblue" points="1291.42,-210.25 1301.75,-207.88 1292.2,-203.29 1291.42,-210.25"/>
</g>
<!-- Node33 -->
<g id="node33" class="node">
<title>Node33</title>
<g id="a_node33"><a xlink:href="bwNumberSlider_8h.html" target="_top" xlink:title=" ">
<polygon fill="none" stroke="black" points="1379.35,-134.5 1379.35,-164.5 1522.35,-164.5 1522.35,-134.5 1379.35,-134.5"/>
<text text-anchor="start" x="1387.35" y="-152.5" font-family="Helvetica,sans-Serif" font-size="10.00">bwidgets/widgets/bwNumber</text>
<text text-anchor="middle" x="1450.85" y="-141.5" font-family="Helvetica,sans-Serif" font-size="10.00">Slider.h</text>
</a>
</g>
</g>
<!-- Node32&#45;&gt;Node33 -->
<g id="edge42" class="edge">
<title>Node32&#45;&gt;Node33</title>
<path fill="none" stroke="midnightblue" d="M1395.34,-199.93C1407.41,-189.18 1423.33,-175 1435.03,-164.59"/>
<polygon fill="midnightblue" stroke="midnightblue" points="1392.84,-197.47 1387.7,-206.73 1397.49,-202.7 1392.84,-197.47"/>
</g>
<!-- Node35 -->
<g id="node35" class="node">
<title>Node35</title>
<g id="a_node35"><a xlink:href="bwTextBox_8cc.html" target="_top" xlink:title=" ">
<polygon fill="none" stroke="black" points="1737.85,-140 1737.85,-159 1895.85,-159 1895.85,-140 1737.85,-140"/>
<text text-anchor="middle" x="1816.85" y="-147" font-family="Helvetica,sans-Serif" font-size="10.00">bwidgets/widgets/bwTextBox.cc</text>
</a>
</g>
</g>
<!-- Node32&#45;&gt;Node35 -->
<g id="edge45" class="edge">
<title>Node32&#45;&gt;Node35</title>
<path fill="none" stroke="midnightblue" d="M1449.9,-205.57C1520.9,-195.69 1632.44,-179.88 1728.85,-165 1740.94,-163.13 1753.95,-161.04 1766.16,-159.03"/>
<polygon fill="midnightblue" stroke="midnightblue" points="1449.15,-202.14 1439.73,-206.99 1450.11,-209.08 1449.15,-202.14"/>
</g>
<!-- Node33&#45;&gt;Node8 -->
<g id="edge43" class="edge">
<title>Node33&#45;&gt;Node8</title>
<path fill="none" stroke="midnightblue" d="M1368.65,-133.73C1225.54,-112.99 1068.46,-97.03 984.39,-89.04"/>
<polygon fill="midnightblue" stroke="midnightblue" points="1368.53,-137.25 1378.93,-135.23 1369.54,-130.32 1368.53,-137.25"/>
</g>
<!-- Node34 -->
<g id="node34" class="node">
<title>Node34</title>
<g id="a_node34"><a xlink:href="bwNumberSlider_8cc.html" target="_top" xlink:title=" ">
<polygon fill="none" stroke="black" points="1307.35,-67.5 1307.35,-97.5 1450.35,-97.5 1450.35,-67.5 1307.35,-67.5"/>
<text text-anchor="start" x="1315.35" y="-85.5" font-family="Helvetica,sans-Serif" font-size="10.00">bwidgets/widgets/bwNumber</text>
<text text-anchor="middle" x="1378.85" y="-74.5" font-family="Helvetica,sans-Serif" font-size="10.00">Slider.cc</text>
</a>
</g>
</g>
<!-- Node33&#45;&gt;Node34 -->
<g id="edge44" class="edge">
<title>Node33&#45;&gt;Node34</title>
<path fill="none" stroke="midnightblue" d="M1427.7,-127.6C1416.83,-117.78 1404.15,-106.34 1394.44,-97.58"/>
<polygon fill="midnightblue" stroke="midnightblue" points="1425.46,-130.29 1435.23,-134.4 1430.15,-125.1 1425.46,-130.29"/>
</g>
</g>
</svg>
