<?xml version="1.0" encoding="UTF-8" standalone="no"?>
<!DOCTYPE svg PUBLIC "-//W3C//DTD SVG 1.1//EN"
 "http://www.w3.org/Graphics/SVG/1.1/DTD/svg11.dtd">
<!-- Generated by graphviz version 2.50.0 (20211204.2007)
 -->
<!-- Title: bwidgets/widgets/bwWidget.cc Pages: 1 -->
<svg width="836pt" height="252pt"
 viewBox="0.00 0.00 836.00 252.00" xmlns="http://www.w3.org/2000/svg" xmlns:xlink="http://www.w3.org/1999/xlink">
<g id="graph0" class="graph" transform="scale(1 1) rotate(0) translate(4 248)">
<title>bwidgets/widgets/bwWidget.cc</title>
<!-- Node1 -->
<g id="node1" class="node">
<title>Node1</title>
<g id="a_node1"><a xlink:title=" ">
<polygon fill="#bfbfbf" stroke="black" points="328.5,-224.5 328.5,-243.5 480.5,-243.5 480.5,-224.5 328.5,-224.5"/>
<text text-anchor="middle" x="404.5" y="-231.5" font-family="Helvetica,sans-Serif" font-size="10.00">bwidgets/widgets/bwWidget.cc</text>
</a>
</g>
</g>
<!-- Node2 -->
<g id="node2" class="node">
<title>Node2</title>
<g id="a_node2"><a xlink:href="bwStyle_8h.html" target="_top" xlink:title=" ">
<polygon fill="none" stroke="black" points="553.5,-112.5 553.5,-131.5 613.5,-131.5 613.5,-112.5 553.5,-112.5"/>
<text text-anchor="middle" x="583.5" y="-119.5" font-family="Helvetica,sans-Serif" font-size="10.00">bwStyle.h</text>
</a>
</g>
</g>
<!-- Node1&#45;&gt;Node2 -->
<g id="edge1" class="edge">
<title>Node1&#45;&gt;Node2</title>
<path fill="none" stroke="midnightblue" d="M418.55,-224.37C449.39,-205.41 523.29,-160 560.81,-136.94"/>
<polygon fill="midnightblue" stroke="midnightblue" points="562.83,-139.81 569.52,-131.59 559.17,-133.85 562.83,-139.81"/>
</g>
<!-- Node5 -->
<g id="node5" class="node">
<title>Node5</title>
<g id="a_node5"><a xlink:href="bwWidget_8h.html" target="_top" xlink:title=" ">
<polygon fill="none" stroke="black" points="339.5,-168.5 339.5,-187.5 407.5,-187.5 407.5,-168.5 339.5,-168.5"/>
<text text-anchor="middle" x="373.5" y="-175.5" font-family="Helvetica,sans-Serif" font-size="10.00">bwWidget.h</text>
</a>
</g>
</g>
<!-- Node1&#45;&gt;Node5 -->
<g id="edge4" class="edge">
<title>Node1&#45;&gt;Node5</title>
<path fill="none" stroke="midnightblue" d="M399.38,-224.08C395.09,-216.61 388.84,-205.72 383.56,-196.52"/>
<polygon fill="midnightblue" stroke="midnightblue" points="386.54,-194.68 378.52,-187.75 380.47,-198.17 386.54,-194.68"/>
</g>
<!-- Node3 -->
<g id="node3" class="node">
<title>Node3</title>
<g id="a_node3"><a xlink:title=" ">
<polygon fill="none" stroke="#bfbfbf" points="564.5,-56.5 564.5,-75.5 602.5,-75.5 602.5,-56.5 564.5,-56.5"/>
<text text-anchor="middle" x="583.5" y="-63.5" font-family="Helvetica,sans-Serif" font-size="10.00">array</text>
</a>
</g>
</g>
<!-- Node2&#45;&gt;Node3 -->
<g id="edge2" class="edge">
<title>Node2&#45;&gt;Node3</title>
<path fill="none" stroke="midnightblue" d="M583.5,-112.08C583.5,-105.01 583.5,-94.86 583.5,-85.99"/>
<polygon fill="midnightblue" stroke="midnightblue" points="587,-85.75 583.5,-75.75 580,-85.75 587,-85.75"/>
</g>
<!-- Node4 -->
<g id="node4" class="node">
<title>Node4</title>
<g id="a_node4"><a xlink:title=" ">
<polygon fill="none" stroke="#bfbfbf" points="498,-56.5 498,-75.5 539,-75.5 539,-56.5 498,-56.5"/>
<text text-anchor="middle" x="518.5" y="-63.5" font-family="Helvetica,sans-Serif" font-size="10.00">string</text>
</a>
</g>
</g>
<!-- Node2&#45;&gt;Node4 -->
<g id="edge3" class="edge">
<title>Node2&#45;&gt;Node4</title>
<path fill="none" stroke="midnightblue" d="M573.06,-112.32C563.35,-104.26 548.68,-92.08 537,-82.37"/>
<polygon fill="midnightblue" stroke="midnightblue" points="539.06,-79.53 529.13,-75.83 534.59,-84.92 539.06,-79.53"/>
</g>
<!-- Node6 -->
<g id="node6" class="node">
<title>Node6</title>
<g id="a_node6"><a xlink:title=" ">
<polygon fill="none" stroke="#bfbfbf" points="314.5,-56.5 314.5,-75.5 364.5,-75.5 364.5,-56.5 314.5,-56.5"/>
<text text-anchor="middle" x="339.5" y="-63.5" font-family="Helvetica,sans-Serif" font-size="10.00">optional</text>
</a>
</g>
</g>
<!-- Node5&#45;&gt;Node6 -->
<g id="edge5" class="edge">
<title>Node5&#45;&gt;Node6</title>
<path fill="none" stroke="midnightblue" d="M368.67,-168.29C363.93,-159.41 356.8,-145.11 352.5,-132 347.51,-116.78 344.1,-98.89 342.03,-85.73"/>
<polygon fill="midnightblue" stroke="midnightblue" points="345.46,-84.97 340.55,-75.58 338.53,-85.98 345.46,-84.97"/>
</g>
<!-- Node7 -->
<g id="node7" class="node">
<title>Node7</title>
<g id="a_node7"><a xlink:title=" ">
<polygon fill="none" stroke="#bfbfbf" points="484,-112.5 484,-131.5 535,-131.5 535,-112.5 484,-112.5"/>
<text text-anchor="middle" x="509.5" y="-119.5" font-family="Helvetica,sans-Serif" font-size="10.00">typeinfo</text>
</a>
</g>
</g>
<!-- Node5&#45;&gt;Node7 -->
<g id="edge6" class="edge">
<title>Node5&#45;&gt;Node7</title>
<path fill="none" stroke="midnightblue" d="M395.05,-168.44C417.53,-159.52 452.99,-145.44 478.48,-135.32"/>
<polygon fill="midnightblue" stroke="midnightblue" points="480.05,-138.46 488.05,-131.52 477.47,-131.95 480.05,-138.46"/>
</g>
<!-- Node8 -->
<g id="node8" class="node">
<title>Node8</title>
<g id="a_node8"><a xlink:href="bwDistance_8h.html" target="_top" xlink:title=" ">
<polygon fill="none" stroke="black" points="228,-112.5 228,-131.5 305,-131.5 305,-112.5 228,-112.5"/>
<text text-anchor="middle" x="266.5" y="-119.5" font-family="Helvetica,sans-Serif" font-size="10.00">bwDistance.h</text>
</a>
</g>
</g>
<!-- Node5&#45;&gt;Node8 -->
<g id="edge7" class="edge">
<title>Node5&#45;&gt;Node8</title>
<path fill="none" stroke="midnightblue" d="M356.31,-168.32C339.15,-159.66 312.55,-146.24 292.75,-136.25"/>
<polygon fill="midnightblue" stroke="midnightblue" points="294.15,-133.04 283.65,-131.65 291,-139.28 294.15,-133.04"/>
</g>
<!-- Node11 -->
<g id="node11" class="node">
<title>Node11</title>
<g id="a_node11"><a xlink:href="bwFunctorInterface_8h.html" target="_top" xlink:title=" ">
<polygon fill="none" stroke="black" points="0,-112.5 0,-131.5 109,-131.5 109,-112.5 0,-112.5"/>
<text text-anchor="middle" x="54.5" y="-119.5" font-family="Helvetica,sans-Serif" font-size="10.00">bwFunctorInterface.h</text>
</a>
</g>
</g>
<!-- Node5&#45;&gt;Node11 -->
<g id="edge10" class="edge">
<title>Node5&#45;&gt;Node11</title>
<path fill="none" stroke="midnightblue" d="M339.36,-171.22C285.78,-162.15 181.2,-144.45 114.75,-133.2"/>
<polygon fill="midnightblue" stroke="midnightblue" points="115.28,-129.74 104.83,-131.52 114.11,-136.64 115.28,-129.74"/>
</g>
<!-- Node12 -->
<g id="node12" class="node">
<title>Node12</title>
<g id="a_node12"><a xlink:href="bwRectangle_8h.html" target="_top" xlink:title=" ">
<polygon fill="none" stroke="black" points="127.5,-112.5 127.5,-131.5 209.5,-131.5 209.5,-112.5 127.5,-112.5"/>
<text text-anchor="middle" x="168.5" y="-119.5" font-family="Helvetica,sans-Serif" font-size="10.00">bwRectangle.h</text>
</a>
</g>
</g>
<!-- Node5&#45;&gt;Node12 -->
<g id="edge11" class="edge">
<title>Node5&#45;&gt;Node12</title>
<path fill="none" stroke="midnightblue" d="M341.02,-168.44C305.78,-159.16 249.4,-144.31 210.74,-134.13"/>
<polygon fill="midnightblue" stroke="midnightblue" points="211.39,-130.68 200.83,-131.52 209.61,-137.45 211.39,-130.68"/>
</g>
<!-- Node13 -->
<g id="node13" class="node">
<title>Node13</title>
<g id="a_node13"><a xlink:href="bwStyleProperties_8h.html" target="_top" xlink:title=" ">
<polygon fill="none" stroke="black" points="361.5,-112.5 361.5,-131.5 465.5,-131.5 465.5,-112.5 361.5,-112.5"/>
<text text-anchor="middle" x="413.5" y="-119.5" font-family="Helvetica,sans-Serif" font-size="10.00">bwStyleProperties.h</text>
</a>
</g>
</g>
<!-- Node5&#45;&gt;Node13 -->
<g id="edge12" class="edge">
<title>Node5&#45;&gt;Node13</title>
<path fill="none" stroke="midnightblue" d="M380.11,-168.08C385.76,-160.46 394.04,-149.26 400.95,-139.94"/>
<polygon fill="midnightblue" stroke="midnightblue" points="403.88,-141.87 407.02,-131.75 398.25,-137.7 403.88,-141.87"/>
</g>
<!-- Node15 -->
<g id="node15" class="node">
<title>Node15</title>
<g id="a_node15"><a xlink:href="EventHandler_8h.html" target="_top" xlink:title=" ">
<polygon fill="none" stroke="black" points="632,-112.5 632,-131.5 777,-131.5 777,-112.5 632,-112.5"/>
<text text-anchor="middle" x="704.5" y="-119.5" font-family="Helvetica,sans-Serif" font-size="10.00">screen_graph/EventHandler.h</text>
</a>
</g>
</g>
<!-- Node5&#45;&gt;Node15 -->
<g id="edge17" class="edge">
<title>Node5&#45;&gt;Node15</title>
<path fill="none" stroke="midnightblue" d="M407.68,-171.42C462.94,-162.41 572.71,-144.5 642.16,-133.17"/>
<polygon fill="midnightblue" stroke="midnightblue" points="642.8,-136.61 652.11,-131.55 641.67,-129.7 642.8,-136.61"/>
</g>
<!-- Node9 -->
<g id="node9" class="node">
<title>Node9</title>
<g id="a_node9"><a xlink:href="bwPoint_8h.html" target="_top" xlink:title=" ">
<polygon fill="none" stroke="black" points="236.5,-56.5 236.5,-75.5 296.5,-75.5 296.5,-56.5 236.5,-56.5"/>
<text text-anchor="middle" x="266.5" y="-63.5" font-family="Helvetica,sans-Serif" font-size="10.00">bwPoint.h</text>
</a>
</g>
</g>
<!-- Node8&#45;&gt;Node9 -->
<g id="edge8" class="edge">
<title>Node8&#45;&gt;Node9</title>
<path fill="none" stroke="midnightblue" d="M266.5,-112.08C266.5,-105.01 266.5,-94.86 266.5,-85.99"/>
<polygon fill="midnightblue" stroke="midnightblue" points="270,-85.75 266.5,-75.75 263,-85.75 270,-85.75"/>
</g>
<!-- Node10 -->
<g id="node10" class="node">
<title>Node10</title>
<g id="a_node10"><a xlink:title=" ">
<polygon fill="none" stroke="#bfbfbf" points="342.5,-0.5 342.5,-19.5 386.5,-19.5 386.5,-0.5 342.5,-0.5"/>
<text text-anchor="middle" x="364.5" y="-7.5" font-family="Helvetica,sans-Serif" font-size="10.00">vector</text>
</a>
</g>
</g>
<!-- Node9&#45;&gt;Node10 -->
<g id="edge9" class="edge">
<title>Node9&#45;&gt;Node10</title>
<path fill="none" stroke="midnightblue" d="M282.25,-56.32C297.82,-47.74 321.88,-34.49 339.96,-24.52"/>
<polygon fill="midnightblue" stroke="midnightblue" points="341.72,-27.55 348.79,-19.65 338.35,-21.42 341.72,-27.55"/>
</g>
<!-- Node13&#45;&gt;Node4 -->
<g id="edge15" class="edge">
<title>Node13&#45;&gt;Node4</title>
<path fill="none" stroke="midnightblue" d="M430.37,-112.32C447.21,-103.66 473.31,-90.24 492.74,-80.25"/>
<polygon fill="midnightblue" stroke="midnightblue" points="494.38,-83.34 501.67,-75.65 491.18,-77.12 494.38,-83.34"/>
</g>
<!-- Node13&#45;&gt;Node6 -->
<g id="edge14" class="edge">
<title>Node13&#45;&gt;Node6</title>
<path fill="none" stroke="midnightblue" d="M401.61,-112.32C390.35,-104.11 373.21,-91.6 359.79,-81.81"/>
<polygon fill="midnightblue" stroke="midnightblue" points="361.75,-78.9 351.61,-75.83 357.62,-84.56 361.75,-78.9"/>
</g>
<!-- Node13&#45;&gt;Node10 -->
<g id="edge16" class="edge">
<title>Node13&#45;&gt;Node10</title>
<path fill="none" stroke="midnightblue" d="M422.83,-112.33C435.34,-99.62 454.74,-75.34 443.5,-56 433.36,-38.55 413.63,-27.3 396.43,-20.42"/>
<polygon fill="midnightblue" stroke="midnightblue" points="397.28,-17 386.68,-16.85 394.87,-23.57 397.28,-17"/>
</g>
<!-- Node14 -->
<g id="node14" class="node">
<title>Node14</title>
<g id="a_node14"><a xlink:title=" ">
<polygon fill="none" stroke="#bfbfbf" points="382.5,-56.5 382.5,-75.5 434.5,-75.5 434.5,-56.5 382.5,-56.5"/>
<text text-anchor="middle" x="408.5" y="-63.5" font-family="Helvetica,sans-Serif" font-size="10.00">memory</text>
</a>
</g>
</g>
<!-- Node13&#45;&gt;Node14 -->
<g id="edge13" class="edge">
<title>Node13&#45;&gt;Node14</title>
<path fill="none" stroke="midnightblue" d="M412.67,-112.08C412.02,-105.01 411.08,-94.86 410.26,-85.99"/>
<polygon fill="midnightblue" stroke="midnightblue" points="413.72,-85.39 409.31,-75.75 406.75,-86.03 413.72,-85.39"/>
</g>
<!-- Node15&#45;&gt;Node3 -->
<g id="edge18" class="edge">
<title>Node15&#45;&gt;Node3</title>
<path fill="none" stroke="midnightblue" d="M685.33,-112.44C665.59,-103.64 634.61,-89.81 612.01,-79.72"/>
<polygon fill="midnightblue" stroke="midnightblue" points="613.14,-76.4 602.58,-75.52 610.29,-82.79 613.14,-76.4"/>
</g>
<!-- Node16 -->
<g id="node16" class="node">
<title>Node16</title>
<g id="a_node16"><a xlink:title=" ">
<polygon fill="none" stroke="#bfbfbf" points="769,-56.5 769,-75.5 828,-75.5 828,-56.5 769,-56.5"/>
<text text-anchor="middle" x="798.5" y="-63.5" font-family="Helvetica,sans-Serif" font-size="10.00">functional</text>
</a>
</g>
</g>
<!-- Node15&#45;&gt;Node16 -->
<g id="edge19" class="edge">
<title>Node15&#45;&gt;Node16</title>
<path fill="none" stroke="midnightblue" d="M719.6,-112.32C734.4,-103.82 757.19,-90.73 774.48,-80.8"/>
<polygon fill="midnightblue" stroke="midnightblue" points="776.51,-83.67 783.43,-75.65 773.02,-77.6 776.51,-83.67"/>
</g>
<!-- Node17 -->
<g id="node17" class="node">
<title>Node17</title>
<g id="a_node17"><a xlink:title=" ">
<polygon fill="none" stroke="#bfbfbf" points="621,-56.5 621,-75.5 650,-75.5 650,-56.5 621,-56.5"/>
<text text-anchor="middle" x="635.5" y="-63.5" font-family="Helvetica,sans-Serif" font-size="10.00">list</text>
</a>
</g>
</g>
<!-- Node15&#45;&gt;Node17 -->
<g id="edge20" class="edge">
<title>Node15&#45;&gt;Node17</title>
<path fill="none" stroke="midnightblue" d="M693.41,-112.32C683.01,-104.18 667.24,-91.84 654.78,-82.09"/>
<polygon fill="midnightblue" stroke="midnightblue" points="656.82,-79.24 646.79,-75.83 652.51,-84.75 656.82,-79.24"/>
</g>
<!-- Node18 -->
<g id="node18" class="node">
<title>Node18</title>
<g id="a_node18"><a xlink:title=" ">
<polygon fill="none" stroke="#bfbfbf" points="668,-56.5 668,-75.5 751,-75.5 751,-56.5 668,-56.5"/>
<text text-anchor="middle" x="709.5" y="-63.5" font-family="Helvetica,sans-Serif" font-size="10.00">unordered_map</text>
</a>
</g>
</g>
<!-- Node15&#45;&gt;Node18 -->
<g id="edge21" class="edge">
<title>Node15&#45;&gt;Node18</title>
<path fill="none" stroke="midnightblue" d="M705.33,-112.08C705.98,-105.01 706.92,-94.86 707.74,-85.99"/>
<polygon fill="midnightblue" stroke="midnightblue" points="711.25,-86.03 708.69,-75.75 704.28,-85.39 711.25,-86.03"/>
</g>
</g>
</svg>
