<?xml version="1.0" encoding="UTF-8" standalone="no"?>
<!DOCTYPE svg PUBLIC "-//W3C//DTD SVG 1.1//EN"
 "http://www.w3.org/Graphics/SVG/1.1/DTD/svg11.dtd">
<!-- Generated by graphviz version 2.50.0 (20211204.2007)
 -->
<!-- Title: bwidgets/widgets/bwWidget.h Pages: 1 -->
<svg width="745pt" height="196pt"
 viewBox="0.00 0.00 745.13 196.00" xmlns="http://www.w3.org/2000/svg" xmlns:xlink="http://www.w3.org/1999/xlink">
<g id="graph0" class="graph" transform="scale(1 1) rotate(0) translate(4 192)">
<title>bwidgets/widgets/bwWidget.h</title>
<!-- Node1 -->
<g id="node1" class="node">
<title>Node1</title>
<g id="a_node1"><a xlink:title=" ">
<polygon fill="#bfbfbf" stroke="black" points="187.63,-168.5 187.63,-187.5 334.63,-187.5 334.63,-168.5 187.63,-168.5"/>
<text text-anchor="middle" x="261.13" y="-175.5" font-family="Helvetica,sans-Serif" font-size="10.00">bwidgets/widgets/bwWidget.h</text>
</a>
</g>
</g>
<!-- Node2 -->
<g id="node2" class="node">
<title>Node2</title>
<g id="a_node2"><a xlink:title=" ">
<polygon fill="none" stroke="#bfbfbf" points="10.13,-56.5 10.13,-75.5 60.13,-75.5 60.13,-56.5 10.13,-56.5"/>
<text text-anchor="middle" x="35.13" y="-63.5" font-family="Helvetica,sans-Serif" font-size="10.00">optional</text>
</a>
</g>
</g>
<!-- Node1&#45;&gt;Node2 -->
<g id="edge1" class="edge">
<title>Node1&#45;&gt;Node2</title>
<path fill="none" stroke="midnightblue" d="M187.38,-174.27C120.19,-170.05 28.05,-159.3 5.13,-132 -7.03,-117.52 5.86,-97.29 18.32,-83.26"/>
<polygon fill="midnightblue" stroke="midnightblue" points="21.05,-85.47 25.41,-75.81 15.98,-80.64 21.05,-85.47"/>
</g>
<!-- Node3 -->
<g id="node3" class="node">
<title>Node3</title>
<g id="a_node3"><a xlink:title=" ">
<polygon fill="none" stroke="#bfbfbf" points="14.63,-112.5 14.63,-131.5 65.63,-131.5 65.63,-112.5 14.63,-112.5"/>
<text text-anchor="middle" x="40.13" y="-119.5" font-family="Helvetica,sans-Serif" font-size="10.00">typeinfo</text>
</a>
</g>
</g>
<!-- Node1&#45;&gt;Node3 -->
<g id="edge2" class="edge">
<title>Node1&#45;&gt;Node3</title>
<path fill="none" stroke="midnightblue" d="M225.09,-168.44C189.56,-159.97 133.49,-146.5 75.44,-132.05"/>
<polygon fill="midnightblue" stroke="midnightblue" points="76.28,-128.65 65.73,-129.63 74.59,-135.45 76.28,-128.65"/>
</g>
<!-- Node4 -->
<g id="node4" class="node">
<title>Node4</title>
<g id="a_node4"><a xlink:href="bwDistance_8h.html" target="_top" xlink:title=" ">
<polygon fill="none" stroke="black" points="434.63,-112.5 434.63,-131.5 511.63,-131.5 511.63,-112.5 434.63,-112.5"/>
<text text-anchor="middle" x="473.13" y="-119.5" font-family="Helvetica,sans-Serif" font-size="10.00">bwDistance.h</text>
</a>
</g>
</g>
<!-- Node1&#45;&gt;Node4 -->
<g id="edge3" class="edge">
<title>Node1&#45;&gt;Node4</title>
<path fill="none" stroke="midnightblue" d="M294.72,-168.44C331.31,-159.12 389.97,-144.18 429.95,-134"/>
<polygon fill="midnightblue" stroke="midnightblue" points="430.87,-137.38 439.69,-131.52 429.14,-130.59 430.87,-137.38"/>
</g>
<!-- Node7 -->
<g id="node7" class="node">
<title>Node7</title>
<g id="a_node7"><a xlink:href="bwFunctorInterface_8h.html" target="_top" xlink:title=" ">
<polygon fill="none" stroke="black" points="206.63,-112.5 206.63,-131.5 315.63,-131.5 315.63,-112.5 206.63,-112.5"/>
<text text-anchor="middle" x="261.13" y="-119.5" font-family="Helvetica,sans-Serif" font-size="10.00">bwFunctorInterface.h</text>
</a>
</g>
</g>
<!-- Node1&#45;&gt;Node7 -->
<g id="edge6" class="edge">
<title>Node1&#45;&gt;Node7</title>
<path fill="none" stroke="midnightblue" d="M261.13,-168.08C261.13,-161.01 261.13,-150.86 261.13,-141.99"/>
<polygon fill="midnightblue" stroke="midnightblue" points="264.63,-141.75 261.13,-131.75 257.63,-141.75 264.63,-141.75"/>
</g>
<!-- Node8 -->
<g id="node8" class="node">
<title>Node8</title>
<g id="a_node8"><a xlink:href="bwRectangle_8h.html" target="_top" xlink:title=" ">
<polygon fill="none" stroke="black" points="334.13,-112.5 334.13,-131.5 416.13,-131.5 416.13,-112.5 334.13,-112.5"/>
<text text-anchor="middle" x="375.13" y="-119.5" font-family="Helvetica,sans-Serif" font-size="10.00">bwRectangle.h</text>
</a>
</g>
</g>
<!-- Node1&#45;&gt;Node8 -->
<g id="edge7" class="edge">
<title>Node1&#45;&gt;Node8</title>
<path fill="none" stroke="midnightblue" d="M279.19,-168.44C297.7,-159.68 326.71,-145.94 347.98,-135.86"/>
<polygon fill="midnightblue" stroke="midnightblue" points="349.61,-138.96 357.15,-131.52 346.61,-132.63 349.61,-138.96"/>
</g>
<!-- Node9 -->
<g id="node9" class="node">
<title>Node9</title>
<g id="a_node9"><a xlink:href="bwStyleProperties_8h.html" target="_top" xlink:title=" ">
<polygon fill="none" stroke="black" points="84.13,-112.5 84.13,-131.5 188.13,-131.5 188.13,-112.5 84.13,-112.5"/>
<text text-anchor="middle" x="136.13" y="-119.5" font-family="Helvetica,sans-Serif" font-size="10.00">bwStyleProperties.h</text>
</a>
</g>
</g>
<!-- Node1&#45;&gt;Node9 -->
<g id="edge8" class="edge">
<title>Node1&#45;&gt;Node9</title>
<path fill="none" stroke="midnightblue" d="M241.32,-168.44C220.84,-159.6 188.64,-145.69 165.26,-135.59"/>
<polygon fill="midnightblue" stroke="midnightblue" points="166.41,-132.27 155.84,-131.52 163.63,-138.7 166.41,-132.27"/>
</g>
<!-- Node12 -->
<g id="node12" class="node">
<title>Node12</title>
<g id="a_node12"><a xlink:href="EventHandler_8h.html" target="_top" xlink:title=" ">
<polygon fill="none" stroke="black" points="529.63,-112.5 529.63,-131.5 674.63,-131.5 674.63,-112.5 529.63,-112.5"/>
<text text-anchor="middle" x="602.13" y="-119.5" font-family="Helvetica,sans-Serif" font-size="10.00">screen_graph/EventHandler.h</text>
</a>
</g>
</g>
<!-- Node1&#45;&gt;Node12 -->
<g id="edge13" class="edge">
<title>Node1&#45;&gt;Node12</title>
<path fill="none" stroke="midnightblue" d="M315.16,-168.44C375.77,-158.85 473.99,-143.29 538.32,-133.1"/>
<polygon fill="midnightblue" stroke="midnightblue" points="539.02,-136.54 548.35,-131.52 537.92,-129.62 539.02,-136.54"/>
</g>
<!-- Node5 -->
<g id="node5" class="node">
<title>Node5</title>
<g id="a_node5"><a xlink:href="bwPoint_8h.html" target="_top" xlink:title=" ">
<polygon fill="none" stroke="black" points="336.13,-56.5 336.13,-75.5 396.13,-75.5 396.13,-56.5 336.13,-56.5"/>
<text text-anchor="middle" x="366.13" y="-63.5" font-family="Helvetica,sans-Serif" font-size="10.00">bwPoint.h</text>
</a>
</g>
</g>
<!-- Node4&#45;&gt;Node5 -->
<g id="edge4" class="edge">
<title>Node4&#45;&gt;Node5</title>
<path fill="none" stroke="midnightblue" d="M455.94,-112.32C438.78,-103.66 412.18,-90.24 392.38,-80.25"/>
<polygon fill="midnightblue" stroke="midnightblue" points="393.78,-77.04 383.28,-75.65 390.63,-83.28 393.78,-77.04"/>
</g>
<!-- Node6 -->
<g id="node6" class="node">
<title>Node6</title>
<g id="a_node6"><a xlink:title=" ">
<polygon fill="none" stroke="#bfbfbf" points="240.13,-0.5 240.13,-19.5 284.13,-19.5 284.13,-0.5 240.13,-0.5"/>
<text text-anchor="middle" x="262.13" y="-7.5" font-family="Helvetica,sans-Serif" font-size="10.00">vector</text>
</a>
</g>
</g>
<!-- Node5&#45;&gt;Node6 -->
<g id="edge5" class="edge">
<title>Node5&#45;&gt;Node6</title>
<path fill="none" stroke="midnightblue" d="M349.42,-56.32C332.82,-47.7 307.13,-34.36 287.91,-24.39"/>
<polygon fill="midnightblue" stroke="midnightblue" points="289.28,-21.16 278.8,-19.65 286.06,-27.37 289.28,-21.16"/>
</g>
<!-- Node9&#45;&gt;Node2 -->
<g id="edge10" class="edge">
<title>Node9&#45;&gt;Node2</title>
<path fill="none" stroke="midnightblue" d="M119.9,-112.32C103.78,-103.7 78.83,-90.36 60.16,-80.39"/>
<polygon fill="midnightblue" stroke="midnightblue" points="61.78,-77.28 51.31,-75.65 58.48,-83.46 61.78,-77.28"/>
</g>
<!-- Node9&#45;&gt;Node6 -->
<g id="edge12" class="edge">
<title>Node9&#45;&gt;Node6</title>
<path fill="none" stroke="midnightblue" d="M131.69,-112.5C125.39,-99.13 115.91,-72.99 128.13,-56 151.17,-23.96 198.14,-14.41 229.89,-11.75"/>
<polygon fill="midnightblue" stroke="midnightblue" points="230.26,-15.23 240.01,-11.08 229.8,-8.25 230.26,-15.23"/>
</g>
<!-- Node10 -->
<g id="node10" class="node">
<title>Node10</title>
<g id="a_node10"><a xlink:title=" ">
<polygon fill="none" stroke="#bfbfbf" points="137.13,-56.5 137.13,-75.5 189.13,-75.5 189.13,-56.5 137.13,-56.5"/>
<text text-anchor="middle" x="163.13" y="-63.5" font-family="Helvetica,sans-Serif" font-size="10.00">memory</text>
</a>
</g>
</g>
<!-- Node9&#45;&gt;Node10 -->
<g id="edge9" class="edge">
<title>Node9&#45;&gt;Node10</title>
<path fill="none" stroke="midnightblue" d="M140.59,-112.08C144.28,-104.69 149.65,-93.95 154.22,-84.81"/>
<polygon fill="midnightblue" stroke="midnightblue" points="157.41,-86.26 158.75,-75.75 151.15,-83.13 157.41,-86.26"/>
</g>
<!-- Node11 -->
<g id="node11" class="node">
<title>Node11</title>
<g id="a_node11"><a xlink:title=" ">
<polygon fill="none" stroke="#bfbfbf" points="207.63,-56.5 207.63,-75.5 248.63,-75.5 248.63,-56.5 207.63,-56.5"/>
<text text-anchor="middle" x="228.13" y="-63.5" font-family="Helvetica,sans-Serif" font-size="10.00">string</text>
</a>
</g>
</g>
<!-- Node9&#45;&gt;Node11 -->
<g id="edge11" class="edge">
<title>Node9&#45;&gt;Node11</title>
<path fill="none" stroke="midnightblue" d="M150.91,-112.32C165.39,-103.82 187.7,-90.73 204.62,-80.8"/>
<polygon fill="midnightblue" stroke="midnightblue" points="206.53,-83.74 213.38,-75.65 202.99,-77.7 206.53,-83.74"/>
</g>
<!-- Node13 -->
<g id="node13" class="node">
<title>Node13</title>
<g id="a_node13"><a xlink:title=" ">
<polygon fill="none" stroke="#bfbfbf" points="699.13,-56.5 699.13,-75.5 737.13,-75.5 737.13,-56.5 699.13,-56.5"/>
<text text-anchor="middle" x="718.13" y="-63.5" font-family="Helvetica,sans-Serif" font-size="10.00">array</text>
</a>
</g>
</g>
<!-- Node12&#45;&gt;Node13 -->
<g id="edge14" class="edge">
<title>Node12&#45;&gt;Node13</title>
<path fill="none" stroke="midnightblue" d="M620.51,-112.44C639.34,-103.68 668.86,-89.94 690.51,-79.86"/>
<polygon fill="midnightblue" stroke="midnightblue" points="692.24,-82.91 699.83,-75.52 689.29,-76.56 692.24,-82.91"/>
</g>
<!-- Node14 -->
<g id="node14" class="node">
<title>Node14</title>
<g id="a_node14"><a xlink:title=" ">
<polygon fill="none" stroke="#bfbfbf" points="473.63,-56.5 473.63,-75.5 532.63,-75.5 532.63,-56.5 473.63,-56.5"/>
<text text-anchor="middle" x="503.13" y="-63.5" font-family="Helvetica,sans-Serif" font-size="10.00">functional</text>
</a>
</g>
</g>
<!-- Node12&#45;&gt;Node14 -->
<g id="edge15" class="edge">
<title>Node12&#45;&gt;Node14</title>
<path fill="none" stroke="midnightblue" d="M586.22,-112.32C570.49,-103.74 546.18,-90.49 527.92,-80.52"/>
<polygon fill="midnightblue" stroke="midnightblue" points="529.45,-77.37 518.99,-75.65 526.1,-83.52 529.45,-77.37"/>
</g>
<!-- Node15 -->
<g id="node15" class="node">
<title>Node15</title>
<g id="a_node15"><a xlink:title=" ">
<polygon fill="none" stroke="#bfbfbf" points="550.63,-56.5 550.63,-75.5 579.63,-75.5 579.63,-56.5 550.63,-56.5"/>
<text text-anchor="middle" x="565.13" y="-63.5" font-family="Helvetica,sans-Serif" font-size="10.00">list</text>
</a>
</g>
</g>
<!-- Node12&#45;&gt;Node15 -->
<g id="edge16" class="edge">
<title>Node12&#45;&gt;Node15</title>
<path fill="none" stroke="midnightblue" d="M596.02,-112.08C590.85,-104.53 583.28,-93.49 576.93,-84.23"/>
<polygon fill="midnightblue" stroke="midnightblue" points="579.66,-82.02 571.12,-75.75 573.89,-85.98 579.66,-82.02"/>
</g>
<!-- Node16 -->
<g id="node16" class="node">
<title>Node16</title>
<g id="a_node16"><a xlink:title=" ">
<polygon fill="none" stroke="#bfbfbf" points="597.63,-56.5 597.63,-75.5 680.63,-75.5 680.63,-56.5 597.63,-56.5"/>
<text text-anchor="middle" x="639.13" y="-63.5" font-family="Helvetica,sans-Serif" font-size="10.00">unordered_map</text>
</a>
</g>
</g>
<!-- Node12&#45;&gt;Node16 -->
<g id="edge17" class="edge">
<title>Node12&#45;&gt;Node16</title>
<path fill="none" stroke="midnightblue" d="M608.24,-112.08C613.41,-104.53 620.97,-93.49 627.32,-84.23"/>
<polygon fill="midnightblue" stroke="midnightblue" points="630.37,-85.98 633.13,-75.75 624.59,-82.02 630.37,-85.98"/>
</g>
</g>
</svg>
