<?xml version="1.0" encoding="UTF-8" standalone="no"?>
<!DOCTYPE svg PUBLIC "-//W3C//DTD SVG 1.1//EN"
 "http://www.w3.org/Graphics/SVG/1.1/DTD/svg11.dtd">
<!-- Generated by graphviz version 2.50.0 (20211204.2007)
 -->
<!-- Title: bwidgets/styling/bwWidgetBaseStyle.cc Pages: 1 -->
<svg width="514pt" height="207pt"
 viewBox="0.00 0.00 514.00 207.00" xmlns="http://www.w3.org/2000/svg" xmlns:xlink="http://www.w3.org/1999/xlink">
<g id="graph0" class="graph" transform="scale(1 1) rotate(0) translate(4 203)">
<title>bwidgets/styling/bwWidgetBaseStyle.cc</title>
<!-- Node1 -->
<g id="node1" class="node">
<title>Node1</title>
<g id="a_node1"><a xlink:title=" ">
<polygon fill="#bfbfbf" stroke="black" points="122,-168.5 122,-198.5 256,-198.5 256,-168.5 122,-168.5"/>
<text text-anchor="start" x="130" y="-186.5" font-family="Helvetica,sans-Serif" font-size="10.00">bwidgets/styling/bwWidget</text>
<text text-anchor="middle" x="189" y="-175.5" font-family="Helvetica,sans-Serif" font-size="10.00">BaseStyle.cc</text>
</a>
</g>
</g>
<!-- Node2 -->
<g id="node2" class="node">
<title>Node2</title>
<g id="a_node2"><a xlink:title=" ">
<polygon fill="none" stroke="#bfbfbf" points="17.5,-112.5 17.5,-131.5 66.5,-131.5 66.5,-112.5 17.5,-112.5"/>
<text text-anchor="middle" x="42" y="-119.5" font-family="Helvetica,sans-Serif" font-size="10.00">cassert</text>
</a>
</g>
</g>
<!-- Node1&#45;&gt;Node2 -->
<g id="edge1" class="edge">
<title>Node1&#45;&gt;Node2</title>
<path fill="none" stroke="midnightblue" d="M154.16,-168.4C129.5,-158.42 96.71,-145.15 72.97,-135.53"/>
<polygon fill="midnightblue" stroke="midnightblue" points="73.97,-132.17 63.39,-131.66 71.35,-138.65 73.97,-132.17"/>
</g>
<!-- Node3 -->
<g id="node3" class="node">
<title>Node3</title>
<g id="a_node3"><a xlink:href="bwPainter_8h.html" target="_top" xlink:title=" ">
<polygon fill="none" stroke="black" points="207,-112.5 207,-131.5 275,-131.5 275,-112.5 207,-112.5"/>
<text text-anchor="middle" x="241" y="-119.5" font-family="Helvetica,sans-Serif" font-size="10.00">bwPainter.h</text>
</a>
</g>
</g>
<!-- Node1&#45;&gt;Node3 -->
<g id="edge2" class="edge">
<title>Node1&#45;&gt;Node3</title>
<path fill="none" stroke="midnightblue" d="M201.32,-168.4C208.96,-159.66 218.79,-148.41 226.76,-139.3"/>
<polygon fill="midnightblue" stroke="midnightblue" points="229.49,-141.49 233.43,-131.66 224.22,-136.88 229.49,-141.49"/>
</g>
<!-- Node11 -->
<g id="node11" class="node">
<title>Node11</title>
<g id="a_node11"><a xlink:href="bwStyleProperties_8h.html" target="_top" xlink:title=" ">
<polygon fill="none" stroke="black" points="85,-112.5 85,-131.5 189,-131.5 189,-112.5 85,-112.5"/>
<text text-anchor="middle" x="137" y="-119.5" font-family="Helvetica,sans-Serif" font-size="10.00">bwStyleProperties.h</text>
</a>
</g>
</g>
<!-- Node1&#45;&gt;Node11 -->
<g id="edge10" class="edge">
<title>Node1&#45;&gt;Node11</title>
<path fill="none" stroke="midnightblue" d="M176.68,-168.4C169.04,-159.66 159.21,-148.41 151.24,-139.3"/>
<polygon fill="midnightblue" stroke="midnightblue" points="153.78,-136.88 144.57,-131.66 148.51,-141.49 153.78,-136.88"/>
</g>
<!-- Node13 -->
<g id="node13" class="node">
<title>Node13</title>
<g id="a_node13"><a xlink:href="bwWidgetBaseStyle_8h.html" target="_top" xlink:title=" ">
<polygon fill="none" stroke="black" points="366.5,-112.5 366.5,-131.5 479.5,-131.5 479.5,-112.5 366.5,-112.5"/>
<text text-anchor="middle" x="423" y="-119.5" font-family="Helvetica,sans-Serif" font-size="10.00">bwWidgetBaseStyle.h</text>
</a>
</g>
</g>
<!-- Node1&#45;&gt;Node13 -->
<g id="edge15" class="edge">
<title>Node1&#45;&gt;Node13</title>
<path fill="none" stroke="midnightblue" d="M244.16,-168.47C285.59,-157.94 341.53,-143.72 379.75,-134"/>
<polygon fill="midnightblue" stroke="midnightblue" points="380.72,-137.36 389.55,-131.51 378.99,-130.58 380.72,-137.36"/>
</g>
<!-- Node4 -->
<g id="node4" class="node">
<title>Node4</title>
<g id="a_node4"><a xlink:title=" ">
<polygon fill="none" stroke="#bfbfbf" points="68,-56.5 68,-75.5 120,-75.5 120,-56.5 68,-56.5"/>
<text text-anchor="middle" x="94" y="-63.5" font-family="Helvetica,sans-Serif" font-size="10.00">memory</text>
</a>
</g>
</g>
<!-- Node3&#45;&gt;Node4 -->
<g id="edge3" class="edge">
<title>Node3&#45;&gt;Node4</title>
<path fill="none" stroke="midnightblue" d="M217.71,-112.44C193.19,-103.44 154.4,-89.19 126.8,-79.05"/>
<polygon fill="midnightblue" stroke="midnightblue" points="127.78,-75.68 117.18,-75.52 125.36,-82.25 127.78,-75.68"/>
</g>
<!-- Node5 -->
<g id="node5" class="node">
<title>Node5</title>
<g id="a_node5"><a xlink:title=" ">
<polygon fill="none" stroke="#bfbfbf" points="138.5,-56.5 138.5,-75.5 179.5,-75.5 179.5,-56.5 138.5,-56.5"/>
<text text-anchor="middle" x="159" y="-63.5" font-family="Helvetica,sans-Serif" font-size="10.00">string</text>
</a>
</g>
</g>
<!-- Node3&#45;&gt;Node5 -->
<g id="edge4" class="edge">
<title>Node3&#45;&gt;Node5</title>
<path fill="none" stroke="midnightblue" d="M227.83,-112.32C215.15,-103.98 195.77,-91.21 180.79,-81.35"/>
<polygon fill="midnightblue" stroke="midnightblue" points="182.42,-78.23 172.14,-75.65 178.57,-84.08 182.42,-78.23"/>
</g>
<!-- Node6 -->
<g id="node6" class="node">
<title>Node6</title>
<g id="a_node6"><a xlink:title=" ">
<polygon fill="none" stroke="#bfbfbf" points="198,-56.5 198,-75.5 242,-75.5 242,-56.5 198,-56.5"/>
<text text-anchor="middle" x="220" y="-63.5" font-family="Helvetica,sans-Serif" font-size="10.00">vector</text>
</a>
</g>
</g>
<!-- Node3&#45;&gt;Node6 -->
<g id="edge5" class="edge">
<title>Node3&#45;&gt;Node6</title>
<path fill="none" stroke="midnightblue" d="M237.53,-112.08C234.69,-104.77 230.57,-94.18 227.04,-85.1"/>
<polygon fill="midnightblue" stroke="midnightblue" points="230.29,-83.8 223.4,-75.75 223.77,-86.34 230.29,-83.8"/>
</g>
<!-- Node7 -->
<g id="node7" class="node">
<title>Node7</title>
<g id="a_node7"><a xlink:href="bwGradient_8h.html" target="_top" xlink:title=" ">
<polygon fill="none" stroke="black" points="374,-56.5 374,-75.5 448,-75.5 448,-56.5 374,-56.5"/>
<text text-anchor="middle" x="411" y="-63.5" font-family="Helvetica,sans-Serif" font-size="10.00">bwGradient.h</text>
</a>
</g>
</g>
<!-- Node3&#45;&gt;Node7 -->
<g id="edge6" class="edge">
<title>Node3&#45;&gt;Node7</title>
<path fill="none" stroke="midnightblue" d="M267.94,-112.44C296.66,-103.32 342.33,-88.81 374.32,-78.65"/>
<polygon fill="midnightblue" stroke="midnightblue" points="375.72,-81.88 384.19,-75.52 373.6,-75.21 375.72,-81.88"/>
</g>
<!-- Node10 -->
<g id="node10" class="node">
<title>Node10</title>
<g id="a_node10"><a xlink:href="bwIconInterface_8h.html" target="_top" xlink:title=" ">
<polygon fill="none" stroke="black" points="260.5,-56.5 260.5,-75.5 355.5,-75.5 355.5,-56.5 260.5,-56.5"/>
<text text-anchor="middle" x="308" y="-63.5" font-family="Helvetica,sans-Serif" font-size="10.00">bwIconInterface.h</text>
</a>
</g>
</g>
<!-- Node3&#45;&gt;Node10 -->
<g id="edge9" class="edge">
<title>Node3&#45;&gt;Node10</title>
<path fill="none" stroke="midnightblue" d="M251.76,-112.32C261.77,-104.26 276.89,-92.08 288.93,-82.37"/>
<polygon fill="midnightblue" stroke="midnightblue" points="291.45,-84.83 297.04,-75.83 287.06,-79.38 291.45,-84.83"/>
</g>
<!-- Node8 -->
<g id="node8" class="node">
<title>Node8</title>
<g id="a_node8"><a xlink:href="bwColor_8h.html" target="_top" xlink:title=" ">
<polygon fill="none" stroke="black" points="446,-0.5 446,-19.5 506,-19.5 506,-0.5 446,-0.5"/>
<text text-anchor="middle" x="476" y="-7.5" font-family="Helvetica,sans-Serif" font-size="10.00">bwColor.h</text>
</a>
</g>
</g>
<!-- Node7&#45;&gt;Node8 -->
<g id="edge7" class="edge">
<title>Node7&#45;&gt;Node8</title>
<path fill="none" stroke="midnightblue" d="M421.44,-56.32C431.15,-48.26 445.82,-36.08 457.5,-26.37"/>
<polygon fill="midnightblue" stroke="midnightblue" points="459.91,-28.92 465.37,-19.83 455.44,-23.53 459.91,-28.92"/>
</g>
<!-- Node9 -->
<g id="node9" class="node">
<title>Node9</title>
<g id="a_node9"><a xlink:href="bwRectangle_8h.html" target="_top" xlink:title=" ">
<polygon fill="none" stroke="black" points="346,-0.5 346,-19.5 428,-19.5 428,-0.5 346,-0.5"/>
<text text-anchor="middle" x="387" y="-7.5" font-family="Helvetica,sans-Serif" font-size="10.00">bwRectangle.h</text>
</a>
</g>
</g>
<!-- Node7&#45;&gt;Node9 -->
<g id="edge8" class="edge">
<title>Node7&#45;&gt;Node9</title>
<path fill="none" stroke="midnightblue" d="M407.04,-56.08C403.79,-48.77 399.08,-38.18 395.05,-29.1"/>
<polygon fill="midnightblue" stroke="midnightblue" points="398.15,-27.47 390.89,-19.75 391.75,-30.31 398.15,-27.47"/>
</g>
<!-- Node11&#45;&gt;Node4 -->
<g id="edge11" class="edge">
<title>Node11&#45;&gt;Node4</title>
<path fill="none" stroke="midnightblue" d="M129.9,-112.08C123.76,-104.38 114.73,-93.03 107.26,-83.65"/>
<polygon fill="midnightblue" stroke="midnightblue" points="109.94,-81.39 100.97,-75.75 104.46,-85.75 109.94,-81.39"/>
</g>
<!-- Node11&#45;&gt;Node5 -->
<g id="edge13" class="edge">
<title>Node11&#45;&gt;Node5</title>
<path fill="none" stroke="midnightblue" d="M140.63,-112.08C143.61,-104.77 147.93,-94.18 151.62,-85.1"/>
<polygon fill="midnightblue" stroke="midnightblue" points="154.9,-86.33 155.43,-75.75 148.42,-83.69 154.9,-86.33"/>
</g>
<!-- Node11&#45;&gt;Node6 -->
<g id="edge14" class="edge">
<title>Node11&#45;&gt;Node6</title>
<path fill="none" stroke="midnightblue" d="M150.34,-112.32C163.16,-103.98 182.78,-91.21 197.94,-81.35"/>
<polygon fill="midnightblue" stroke="midnightblue" points="200.22,-84.04 206.7,-75.65 196.41,-78.17 200.22,-84.04"/>
</g>
<!-- Node12 -->
<g id="node12" class="node">
<title>Node12</title>
<g id="a_node12"><a xlink:title=" ">
<polygon fill="none" stroke="#bfbfbf" points="0,-56.5 0,-75.5 50,-75.5 50,-56.5 0,-56.5"/>
<text text-anchor="middle" x="25" y="-63.5" font-family="Helvetica,sans-Serif" font-size="10.00">optional</text>
</a>
</g>
</g>
<!-- Node11&#45;&gt;Node12 -->
<g id="edge12" class="edge">
<title>Node11&#45;&gt;Node12</title>
<path fill="none" stroke="midnightblue" d="M119.01,-112.32C100.96,-103.62 72.95,-90.12 52.2,-80.11"/>
<polygon fill="midnightblue" stroke="midnightblue" points="53.48,-76.84 42.95,-75.65 50.44,-83.15 53.48,-76.84"/>
</g>
<!-- Node13&#45;&gt;Node8 -->
<g id="edge16" class="edge">
<title>Node13&#45;&gt;Node8</title>
<path fill="none" stroke="midnightblue" d="M431.08,-112.34C438.73,-103.72 450.05,-89.82 457,-76 464.42,-61.23 469.43,-43.07 472.43,-29.71"/>
<polygon fill="midnightblue" stroke="midnightblue" points="475.88,-30.29 474.48,-19.79 469.02,-28.87 475.88,-30.29"/>
</g>
</g>
</svg>
