<?xml version="1.0" encoding="UTF-8" standalone="no"?>
<!DOCTYPE svg PUBLIC "-//W3C//DTD SVG 1.1//EN"
 "http://www.w3.org/Graphics/SVG/1.1/DTD/svg11.dtd">
<!-- Generated by graphviz version 2.50.0 (20211204.2007)
 -->
<!-- Title: bWidgets::bwStyle Pages: 1 -->
<svg width="498pt" height="140pt"
 viewBox="0.00 0.00 497.50 140.00" xmlns="http://www.w3.org/2000/svg" xmlns:xlink="http://www.w3.org/1999/xlink">
<g id="graph0" class="graph" transform="scale(1 1) rotate(0) translate(4 136)">
<title>bWidgets::bwStyle</title>
<!-- Node1 -->
<g id="node1" class="node">
<title>Node1</title>
<g id="a_node1"><a xlink:title=" ">
<polygon fill="#bfbfbf" stroke="black" points="240,-112.5 240,-131.5 339,-131.5 339,-112.5 240,-112.5"/>
<text text-anchor="middle" x="289.5" y="-119.5" font-family="Helvetica,sans-Serif" font-size="10.00">bWidgets::bwStyle</text>
</a>
</g>
</g>
<!-- Node2 -->
<g id="node2" class="node">
<title>Node2</title>
<g id="a_node2"><a xlink:href="classbWidgets_1_1bwStyleCSS.html" target="_top" xlink:title="Style&#45;class for CSS driven Styles.">
<polygon fill="none" stroke="black" points="85.5,-56.5 85.5,-75.5 205.5,-75.5 205.5,-56.5 85.5,-56.5"/>
<text text-anchor="middle" x="145.5" y="-63.5" font-family="Helvetica,sans-Serif" font-size="10.00">bWidgets::bwStyleCSS</text>
</a>
</g>
</g>
<!-- Node1&#45;&gt;Node2 -->
<g id="edge1" class="edge">
<title>Node1&#45;&gt;Node2</title>
<path fill="none" stroke="midnightblue" d="M257.25,-108.91C230.18,-98.75 192.18,-84.51 168.21,-75.52"/>
<polygon fill="midnightblue" stroke="midnightblue" points="256.09,-112.21 266.68,-112.44 258.55,-105.66 256.09,-112.21"/>
</g>
<!-- Node5 -->
<g id="node5" class="node">
<title>Node5</title>
<g id="a_node5"><a xlink:href="classbWidgets_1_1bwStyleClassic.html" target="_top" xlink:title=" ">
<polygon fill="none" stroke="black" points="223.5,-56.5 223.5,-75.5 355.5,-75.5 355.5,-56.5 223.5,-56.5"/>
<text text-anchor="middle" x="289.5" y="-63.5" font-family="Helvetica,sans-Serif" font-size="10.00">bWidgets::bwStyleClassic</text>
</a>
</g>
</g>
<!-- Node1&#45;&gt;Node5 -->
<g id="edge4" class="edge">
<title>Node1&#45;&gt;Node5</title>
<path fill="none" stroke="midnightblue" d="M289.5,-101.8C289.5,-92.91 289.5,-82.78 289.5,-75.75"/>
<polygon fill="midnightblue" stroke="midnightblue" points="286,-102.08 289.5,-112.08 293,-102.08 286,-102.08"/>
</g>
<!-- Node6 -->
<g id="node6" class="node">
<title>Node6</title>
<g id="a_node6"><a xlink:href="classbWidgets_1_1bwStyleFlat.html" target="_top" xlink:title=" ">
<polygon fill="none" stroke="black" points="373.5,-56.5 373.5,-75.5 489.5,-75.5 489.5,-56.5 373.5,-56.5"/>
<text text-anchor="middle" x="431.5" y="-63.5" font-family="Helvetica,sans-Serif" font-size="10.00">bWidgets::bwStyleFlat</text>
</a>
</g>
</g>
<!-- Node1&#45;&gt;Node6 -->
<g id="edge5" class="edge">
<title>Node1&#45;&gt;Node6</title>
<path fill="none" stroke="midnightblue" d="M321.66,-108.77C348.33,-98.63 385.57,-84.47 409.1,-75.52"/>
<polygon fill="midnightblue" stroke="midnightblue" points="320.1,-105.62 312,-112.44 322.59,-112.16 320.1,-105.62"/>
</g>
<!-- Node3 -->
<g id="node3" class="node">
<title>Node3</title>
<g id="a_node3"><a xlink:href="classbWidgets_1_1bwStyleFlatDark.html" target="_top" xlink:title=" ">
<polygon fill="none" stroke="black" points="0,-0.5 0,-19.5 137,-19.5 137,-0.5 0,-0.5"/>
<text text-anchor="middle" x="68.5" y="-7.5" font-family="Helvetica,sans-Serif" font-size="10.00">bWidgets::bwStyleFlatDark</text>
</a>
</g>
</g>
<!-- Node2&#45;&gt;Node3 -->
<g id="edge2" class="edge">
<title>Node2&#45;&gt;Node3</title>
<path fill="none" stroke="midnightblue" d="M124.6,-50.34C110.59,-40.52 92.62,-27.91 80.84,-19.65"/>
<polygon fill="midnightblue" stroke="midnightblue" points="122.93,-53.45 133.13,-56.32 126.95,-47.72 122.93,-53.45"/>
</g>
<!-- Node4 -->
<g id="node4" class="node">
<title>Node4</title>
<g id="a_node4"><a xlink:href="classbWidgets_1_1bwStyleFlatLight.html" target="_top" xlink:title=" ">
<polygon fill="none" stroke="black" points="155,-0.5 155,-19.5 292,-19.5 292,-0.5 155,-0.5"/>
<text text-anchor="middle" x="223.5" y="-7.5" font-family="Helvetica,sans-Serif" font-size="10.00">bWidgets::bwStyleFlatLight</text>
</a>
</g>
</g>
<!-- Node2&#45;&gt;Node4 -->
<g id="edge3" class="edge">
<title>Node2&#45;&gt;Node4</title>
<path fill="none" stroke="midnightblue" d="M166.27,-50.62C180.52,-40.76 198.96,-27.99 211,-19.65"/>
<polygon fill="midnightblue" stroke="midnightblue" points="164.26,-47.75 158.03,-56.32 168.25,-53.51 164.26,-47.75"/>
</g>
</g>
</svg>
