<?xml version="1.0" encoding="UTF-8" standalone="no"?>
<!DOCTYPE svg PUBLIC "-//W3C//DTD SVG 1.1//EN"
 "http://www.w3.org/Graphics/SVG/1.1/DTD/svg11.dtd">
<!-- Generated by graphviz version 2.50.0 (20211204.2007)
 -->
<!-- Title: bWidgets::bwRadioButtonHandler Pages: 1 -->
<svg width="172pt" height="162pt"
 viewBox="0.00 0.00 172.00 162.00" xmlns="http://www.w3.org/2000/svg" xmlns:xlink="http://www.w3.org/1999/xlink">
<g id="graph0" class="graph" transform="scale(1 1) rotate(0) translate(4 158)">
<title>bWidgets::bwRadioButtonHandler</title>
<!-- Node1 -->
<g id="node1" class="node">
<title>Node1</title>
<g id="a_node1"><a xlink:title=" ">
<polygon fill="#bfbfbf" stroke="black" points="0,-0.5 0,-19.5 164,-19.5 164,-0.5 0,-0.5"/>
<text text-anchor="middle" x="82" y="-7.5" font-family="Helvetica,sans-Serif" font-size="10.00">bWidgets::bwRadioButtonHandler</text>
</a>
</g>
</g>
<!-- Node2 -->
<g id="node2" class="node">
<title>Node2</title>
<g id="a_node2"><a xlink:href="classbWidgets_1_1bwAbstractButtonHandler.html" target="_top" xlink:title=" ">
<polygon fill="none" stroke="black" points="11,-56.5 11,-86.5 153,-86.5 153,-56.5 11,-56.5"/>
<text text-anchor="start" x="19" y="-74.5" font-family="Helvetica,sans-Serif" font-size="10.00">bWidgets::bwAbstractButton</text>
<text text-anchor="middle" x="82" y="-63.5" font-family="Helvetica,sans-Serif" font-size="10.00">Handler</text>
</a>
</g>
</g>
<!-- Node2&#45;&gt;Node1 -->
<g id="edge1" class="edge">
<title>Node2&#45;&gt;Node1</title>
<path fill="none" stroke="midnightblue" d="M82,-46.29C82,-36.86 82,-26.65 82,-19.66"/>
<polygon fill="midnightblue" stroke="midnightblue" points="78.5,-46.4 82,-56.4 85.5,-46.4 78.5,-46.4"/>
</g>
<!-- Node3 -->
<g id="node3" class="node">
<title>Node3</title>
<g id="a_node3"><a xlink:href="classbWidgets_1_1bwScreenGraph_1_1EventHandler.html" target="_top" xlink:title="API for registering and calling event&#45;listeners.">
<polygon fill="none" stroke="black" points="15,-123.5 15,-153.5 149,-153.5 149,-123.5 15,-123.5"/>
<text text-anchor="start" x="23" y="-141.5" font-family="Helvetica,sans-Serif" font-size="10.00">bWidgets::bwScreenGraph</text>
<text text-anchor="middle" x="82" y="-130.5" font-family="Helvetica,sans-Serif" font-size="10.00">::EventHandler</text>
</a>
</g>
</g>
<!-- Node3&#45;&gt;Node2 -->
<g id="edge2" class="edge">
<title>Node3&#45;&gt;Node2</title>
<path fill="none" stroke="midnightblue" d="M82,-113.11C82,-104.15 82,-94.32 82,-86.58"/>
<polygon fill="midnightblue" stroke="midnightblue" points="78.5,-113.4 82,-123.4 85.5,-113.4 78.5,-113.4"/>
</g>
</g>
</svg>
