<?xml version="1.0" encoding="UTF-8" standalone="no"?>
<!DOCTYPE svg PUBLIC "-//W3C//DTD SVG 1.1//EN"
 "http://www.w3.org/Graphics/SVG/1.1/DTD/svg11.dtd">
<!-- Generated by graphviz version 2.50.0 (20211204.2007)
 -->
<!-- Title: bWidgets::bwLabel Pages: 1 -->
<svg width="290pt" height="163pt"
 viewBox="0.00 0.00 290.00 163.00" xmlns="http://www.w3.org/2000/svg" xmlns:xlink="http://www.w3.org/1999/xlink">
<g id="graph0" class="graph" transform="scale(1 1) rotate(0) translate(4 159)">
<title>bWidgets::bwLabel</title>
<!-- Node1 -->
<g id="node1" class="node">
<title>Node1</title>
<g id="a_node1"><a xlink:title=" ">
<polygon fill="#bfbfbf" stroke="black" points="85.5,-0.5 85.5,-19.5 185.5,-19.5 185.5,-0.5 85.5,-0.5"/>
<text text-anchor="middle" x="135.5" y="-7.5" font-family="Helvetica,sans-Serif" font-size="10.00">bWidgets::bwLabel</text>
</a>
</g>
</g>
<!-- Node2 -->
<g id="node2" class="node">
<title>Node2</title>
<g id="a_node2"><a xlink:href="classbWidgets_1_1bwWidget.html" target="_top" xlink:title="Abstract base class that all widgets derive from.">
<polygon fill="none" stroke="black" points="82,-57.5 82,-76.5 189,-76.5 189,-57.5 82,-57.5"/>
<text text-anchor="middle" x="135.5" y="-64.5" font-family="Helvetica,sans-Serif" font-size="10.00">bWidgets::bwWidget</text>
</a>
</g>
</g>
<!-- Node2&#45;&gt;Node1 -->
<g id="edge1" class="edge">
<title>Node2&#45;&gt;Node1</title>
<path fill="none" stroke="midnightblue" d="M135.5,-47.12C135.5,-37.82 135.5,-27.06 135.5,-19.71"/>
<polygon fill="midnightblue" stroke="midnightblue" points="132,-47.41 135.5,-57.41 139,-47.41 132,-47.41"/>
</g>
<!-- Node3 -->
<g id="node3" class="node">
<title>Node3</title>
<g id="a_node3"><a xlink:href="classbWidgets_1_1bwRectangle.html" target="_top" xlink:title=" ">
<polygon fill="none" stroke="black" points="0,-124.5 0,-154.5 121,-154.5 121,-124.5 0,-124.5"/>
<text text-anchor="start" x="8" y="-142.5" font-family="Helvetica,sans-Serif" font-size="10.00">bWidgets::bwRectangle</text>
<text text-anchor="middle" x="60.5" y="-131.5" font-family="Helvetica,sans-Serif" font-size="10.00">&lt; int &gt;</text>
</a>
</g>
</g>
<!-- Node3&#45;&gt;Node2 -->
<g id="edge2" class="edge">
<title>Node3&#45;&gt;Node2</title>
<path fill="none" stroke="#9a32cd" stroke-dasharray="5,2" d="M83.23,-117.14C97.57,-103.65 115.35,-86.94 126.04,-76.89"/>
<polygon fill="#9a32cd" stroke="#9a32cd" points="80.57,-114.83 75.68,-124.23 85.36,-119.93 80.57,-114.83"/>
<text text-anchor="middle" x="127" y="-98" font-family="Helvetica,sans-Serif" font-size="10.00"> rectangle</text>
</g>
<!-- Node4 -->
<g id="node4" class="node">
<title>Node4</title>
<g id="a_node4"><a xlink:href="classbWidgets_1_1bwStyleProperties.html" target="_top" xlink:title="Manage a list of properties (bwStyleProperty instances).">
<polygon fill="none" stroke="black" points="139,-130 139,-149 282,-149 282,-130 139,-130"/>
<text text-anchor="middle" x="210.5" y="-137" font-family="Helvetica,sans-Serif" font-size="10.00">bWidgets::bwStyleProperties</text>
</a>
</g>
</g>
<!-- Node4&#45;&gt;Node2 -->
<g id="edge3" class="edge">
<title>Node4&#45;&gt;Node2</title>
<path fill="none" stroke="#9a32cd" stroke-dasharray="5,2" d="M193.68,-122.69C178.58,-108.49 156.96,-88.17 144.77,-76.72"/>
<polygon fill="#9a32cd" stroke="#9a32cd" points="191.62,-125.56 201.3,-129.86 196.41,-120.46 191.62,-125.56"/>
<text text-anchor="middle" x="211" y="-98" font-family="Helvetica,sans-Serif" font-size="10.00"> style_properties</text>
</g>
</g>
</svg>
