<?xml version="1.0" encoding="UTF-8" standalone="no"?>
<!DOCTYPE svg PUBLIC "-//W3C//DTD SVG 1.1//EN"
 "http://www.w3.org/Graphics/SVG/1.1/DTD/svg11.dtd">
<!-- Generated by graphviz version 2.50.0 (20211204.2007)
 -->
<!-- Title: bWidgets::bwScreenGraph::PreOrderIterator Pages: 1 -->
<svg width="270pt" height="117pt"
 viewBox="0.00 0.00 269.50 117.00" xmlns="http://www.w3.org/2000/svg" xmlns:xlink="http://www.w3.org/1999/xlink">
<g id="graph0" class="graph" transform="scale(1 1) rotate(0) translate(4 113)">
<title>bWidgets::bwScreenGraph::PreOrderIterator</title>
<!-- Node1 -->
<g id="node1" class="node">
<title>Node1</title>
<g id="a_node1"><a xlink:title="Iterator for pre&#45;order (depth&#45;first) traversal.">
<polygon fill="#bfbfbf" stroke="black" points="70,-0.5 70,-30.5 204,-30.5 204,-0.5 70,-0.5"/>
<text text-anchor="start" x="78" y="-18.5" font-family="Helvetica,sans-Serif" font-size="10.00">bWidgets::bwScreenGraph</text>
<text text-anchor="middle" x="137" y="-7.5" font-family="Helvetica,sans-Serif" font-size="10.00">::PreOrderIterator</text>
</a>
</g>
</g>
<!-- Node2 -->
<g id="node2" class="node">
<title>Node2</title>
<g id="a_node2"><a xlink:href="classbWidgets_1_1bwScreenGraph_1_1Node.html" target="_top" xlink:title="The base data&#45;structure for a screen&#45;graph node.">
<polygon fill="none" stroke="black" points="0,-78.5 0,-108.5 134,-108.5 134,-78.5 0,-78.5"/>
<text text-anchor="start" x="8" y="-96.5" font-family="Helvetica,sans-Serif" font-size="10.00">bWidgets::bwScreenGraph</text>
<text text-anchor="middle" x="67" y="-85.5" font-family="Helvetica,sans-Serif" font-size="10.00">::Node</text>
</a>
</g>
</g>
<!-- Node2&#45;&gt;Node1 -->
<g id="edge1" class="edge">
<title>Node2&#45;&gt;Node1</title>
<path fill="none" stroke="#9a32cd" stroke-dasharray="5,2" d="M87.11,-70.67C98.93,-57.83 113.54,-41.97 123.89,-30.73"/>
<polygon fill="#9a32cd" stroke="#9a32cd" points="84.37,-68.48 80.17,-78.2 89.52,-73.22 84.37,-68.48"/>
<text text-anchor="middle" x="119.5" y="-52" font-family="Helvetica,sans-Serif" font-size="10.00"> node</text>
</g>
<!-- Node3 -->
<g id="node3" class="node">
<title>Node3</title>
<g id="a_node3"><a xlink:title=" ">
<polygon fill="none" stroke="#bfbfbf" points="152.5,-84 152.5,-103 261.5,-103 261.5,-84 152.5,-84"/>
<text text-anchor="middle" x="207" y="-91" font-family="Helvetica,sans-Serif" font-size="10.00">std::list&lt; T &gt;::iterator</text>
</a>
</g>
</g>
<!-- Node3&#45;&gt;Node1 -->
<g id="edge2" class="edge">
<title>Node3&#45;&gt;Node1</title>
<path fill="none" stroke="#9a32cd" stroke-dasharray="5,2" d="M191.93,-76.14C179.41,-62.55 161.79,-43.42 149.91,-30.52"/>
<polygon fill="#9a32cd" stroke="#9a32cd" points="189.62,-78.8 198.97,-83.78 194.77,-74.06 189.62,-78.8"/>
<text text-anchor="middle" x="197.5" y="-52" font-family="Helvetica,sans-Serif" font-size="10.00"> node_iter</text>
</g>
</g>
</svg>
