<?xml version="1.0" encoding="UTF-8" standalone="no"?>
<!DOCTYPE svg PUBLIC "-//W3C//DTD SVG 1.1//EN"
 "http://www.w3.org/Graphics/SVG/1.1/DTD/svg11.dtd">
<!-- Generated by graphviz version 2.50.0 (20211204.2007)
 -->
<!-- Title: bWidgets::bwAbstractButtonHandler Pages: 1 -->
<svg width="520pt" height="104pt"
 viewBox="0.00 0.00 520.00 104.00" xmlns="http://www.w3.org/2000/svg" xmlns:xlink="http://www.w3.org/1999/xlink">
<g id="graph0" class="graph" transform="scale(1 1) rotate(0) translate(4 100)">
<title>bWidgets::bwAbstractButtonHandler</title>
<!-- Node1 -->
<g id="node1" class="node">
<title>Node1</title>
<g id="a_node1"><a xlink:title=" ">
<polygon fill="#bfbfbf" stroke="black" points="170,-33 170,-63 312,-63 312,-33 170,-33"/>
<text text-anchor="start" x="178" y="-51" font-family="Helvetica,sans-Serif" font-size="10.00">bWidgets::bwAbstractButton</text>
<text text-anchor="middle" x="241" y="-40" font-family="Helvetica,sans-Serif" font-size="10.00">Handler</text>
</a>
</g>
</g>
<!-- Node3 -->
<g id="node3" class="node">
<title>Node3</title>
<g id="a_node3"><a xlink:href="classbWidgets_1_1bwCheckboxHandler.html" target="_top" xlink:title=" ">
<polygon fill="none" stroke="black" points="352.5,-76.5 352.5,-95.5 507.5,-95.5 507.5,-76.5 352.5,-76.5"/>
<text text-anchor="middle" x="430" y="-83.5" font-family="Helvetica,sans-Serif" font-size="10.00">bWidgets::bwCheckboxHandler</text>
</a>
</g>
</g>
<!-- Node1&#45;&gt;Node3 -->
<g id="edge2" class="edge">
<title>Node1&#45;&gt;Node3</title>
<path fill="none" stroke="midnightblue" d="M322.11,-64.28C342.54,-68.43 363.84,-72.76 382,-76.45"/>
<polygon fill="midnightblue" stroke="midnightblue" points="322.66,-60.82 312.16,-62.26 321.27,-67.68 322.66,-60.82"/>
</g>
<!-- Node4 -->
<g id="node4" class="node">
<title>Node4</title>
<g id="a_node4"><a xlink:href="classbWidgets_1_1bwRadioButtonHandler.html" target="_top" xlink:title=" ">
<polygon fill="none" stroke="black" points="348,-38.5 348,-57.5 512,-57.5 512,-38.5 348,-38.5"/>
<text text-anchor="middle" x="430" y="-45.5" font-family="Helvetica,sans-Serif" font-size="10.00">bWidgets::bwRadioButtonHandler</text>
</a>
</g>
</g>
<!-- Node1&#45;&gt;Node4 -->
<g id="edge3" class="edge">
<title>Node1&#45;&gt;Node4</title>
<path fill="none" stroke="midnightblue" d="M322.34,-48C330.76,-48 339.32,-48 347.74,-48"/>
<polygon fill="midnightblue" stroke="midnightblue" points="322.16,-44.5 312.16,-48 322.16,-51.5 322.16,-44.5"/>
</g>
<!-- Node5 -->
<g id="node5" class="node">
<title>Node5</title>
<g id="a_node5"><a xlink:href="classbWidgets_1_1bwScrollBarHandler.html" target="_top" xlink:title=" ">
<polygon fill="none" stroke="black" points="355,-0.5 355,-19.5 505,-19.5 505,-0.5 355,-0.5"/>
<text text-anchor="middle" x="430" y="-7.5" font-family="Helvetica,sans-Serif" font-size="10.00">bWidgets::bwScrollBarHandler</text>
</a>
</g>
</g>
<!-- Node1&#45;&gt;Node5 -->
<g id="edge4" class="edge">
<title>Node1&#45;&gt;Node5</title>
<path fill="none" stroke="midnightblue" d="M322.11,-31.72C342.54,-27.57 363.84,-23.24 382,-19.55"/>
<polygon fill="midnightblue" stroke="midnightblue" points="321.27,-28.32 312.16,-33.74 322.66,-35.18 321.27,-28.32"/>
</g>
<!-- Node2 -->
<g id="node2" class="node">
<title>Node2</title>
<g id="a_node2"><a xlink:href="classbWidgets_1_1bwScreenGraph_1_1EventHandler.html" target="_top" xlink:title="API for registering and calling event&#45;listeners.">
<polygon fill="none" stroke="black" points="0,-33 0,-63 134,-63 134,-33 0,-33"/>
<text text-anchor="start" x="8" y="-51" font-family="Helvetica,sans-Serif" font-size="10.00">bWidgets::bwScreenGraph</text>
<text text-anchor="middle" x="67" y="-40" font-family="Helvetica,sans-Serif" font-size="10.00">::EventHandler</text>
</a>
</g>
</g>
<!-- Node2&#45;&gt;Node1 -->
<g id="edge1" class="edge">
<title>Node2&#45;&gt;Node1</title>
<path fill="none" stroke="midnightblue" d="M144.02,-48C152.63,-48 161.36,-48 169.89,-48"/>
<polygon fill="midnightblue" stroke="midnightblue" points="144.01,-44.5 134.01,-48 144.01,-51.5 144.01,-44.5"/>
</g>
</g>
</svg>
