<?xml version="1.0" encoding="UTF-8" standalone="no"?>
<!DOCTYPE svg PUBLIC "-//W3C//DTD SVG 1.1//EN"
 "http://www.w3.org/Graphics/SVG/1.1/DTD/svg11.dtd">
<!-- Generated by graphviz version 2.50.0 (20211204.2007)
 -->
<!-- Title: bWidgets::bwMouseButtonEvent Pages: 1 -->
<svg width="168pt" height="152pt"
 viewBox="0.00 0.00 168.00 152.00" xmlns="http://www.w3.org/2000/svg" xmlns:xlink="http://www.w3.org/1999/xlink">
<g id="graph0" class="graph" transform="scale(1 1) rotate(0) translate(4 148)">
<title>bWidgets::bwMouseButtonEvent</title>
<!-- Node1 -->
<g id="node1" class="node">
<title>Node1</title>
<g id="a_node1"><a xlink:title=" ">
<polygon fill="#bfbfbf" stroke="black" points="0,-0.5 0,-19.5 160,-19.5 160,-0.5 0,-0.5"/>
<text text-anchor="middle" x="80" y="-7.5" font-family="Helvetica,sans-Serif" font-size="10.00">bWidgets::bwMouseButtonEvent</text>
</a>
</g>
</g>
<!-- Node2 -->
<g id="node2" class="node">
<title>Node2</title>
<g id="a_node2"><a xlink:href="classbWidgets_1_1bwEvent.html" target="_top" xlink:title=" ">
<polygon fill="none" stroke="black" points="29,-57.5 29,-76.5 131,-76.5 131,-57.5 29,-57.5"/>
<text text-anchor="middle" x="80" y="-64.5" font-family="Helvetica,sans-Serif" font-size="10.00">bWidgets::bwEvent</text>
</a>
</g>
</g>
<!-- Node2&#45;&gt;Node1 -->
<g id="edge1" class="edge">
<title>Node2&#45;&gt;Node1</title>
<path fill="none" stroke="midnightblue" d="M80,-47.12C80,-37.82 80,-27.06 80,-19.71"/>
<polygon fill="midnightblue" stroke="midnightblue" points="76.5,-47.41 80,-57.41 83.5,-47.41 76.5,-47.41"/>
</g>
<!-- Node3 -->
<g id="node3" class="node">
<title>Node3</title>
<g id="a_node3"><a xlink:href="classbWidgets_1_1bwPoint.html" target="_top" xlink:title=" ">
<polygon fill="none" stroke="black" points="30.5,-124.5 30.5,-143.5 129.5,-143.5 129.5,-124.5 30.5,-124.5"/>
<text text-anchor="middle" x="80" y="-131.5" font-family="Helvetica,sans-Serif" font-size="10.00">bWidgets::bwPoint</text>
</a>
</g>
</g>
<!-- Node3&#45;&gt;Node2 -->
<g id="edge2" class="edge">
<title>Node3&#45;&gt;Node2</title>
<path fill="none" stroke="#9a32cd" stroke-dasharray="5,2" d="M80,-114.04C80,-101.67 80,-86.12 80,-76.63"/>
<polygon fill="#9a32cd" stroke="#9a32cd" points="76.5,-114.23 80,-124.23 83.5,-114.23 76.5,-114.23"/>
<text text-anchor="middle" x="98.5" y="-98" font-family="Helvetica,sans-Serif" font-size="10.00"> location</text>
</g>
</g>
</svg>
