<?xml version="1.0" encoding="UTF-8" standalone="no"?>
<!DOCTYPE svg PUBLIC "-//W3C//DTD SVG 1.1//EN"
 "http://www.w3.org/Graphics/SVG/1.1/DTD/svg11.dtd">
<!-- Generated by graphviz version 2.50.0 (20211204.2007)
 -->
<!-- Title: bWidgets::bwAbstractButton Pages: 1 -->
<svg width="460pt" height="142pt"
 viewBox="0.00 0.00 460.00 142.00" xmlns="http://www.w3.org/2000/svg" xmlns:xlink="http://www.w3.org/1999/xlink">
<g id="graph0" class="graph" transform="scale(1 1) rotate(0) translate(4 138)">
<title>bWidgets::bwAbstractButton</title>
<!-- Node1 -->
<g id="node1" class="node">
<title>Node1</title>
<g id="a_node1"><a xlink:title="Base class for button like widgets.">
<polygon fill="#bfbfbf" stroke="black" points="143,-57.5 143,-76.5 285,-76.5 285,-57.5 143,-57.5"/>
<text text-anchor="middle" x="214" y="-64.5" font-family="Helvetica,sans-Serif" font-size="10.00">bWidgets::bwAbstractButton</text>
</a>
</g>
</g>
<!-- Node3 -->
<g id="node3" class="node">
<title>Node3</title>
<g id="a_node3"><a xlink:href="classbWidgets_1_1bwCheckbox.html" target="_top" xlink:title=" ">
<polygon fill="none" stroke="black" points="326,-114.5 326,-133.5 447,-133.5 447,-114.5 326,-114.5"/>
<text text-anchor="middle" x="386.5" y="-121.5" font-family="Helvetica,sans-Serif" font-size="10.00">bWidgets::bwCheckbox</text>
</a>
</g>
</g>
<!-- Node1&#45;&gt;Node3 -->
<g id="edge2" class="edge">
<title>Node1&#45;&gt;Node3</title>
<path fill="none" stroke="midnightblue" d="M250.14,-80.17C270.69,-87.73 297.2,-97.24 321,-105 330.88,-108.22 341.68,-111.5 351.58,-114.41"/>
<polygon fill="midnightblue" stroke="midnightblue" points="251.15,-76.82 240.56,-76.63 248.73,-83.38 251.15,-76.82"/>
</g>
<!-- Node4 -->
<g id="node4" class="node">
<title>Node4</title>
<g id="a_node4"><a xlink:href="classbWidgets_1_1bwPushButton.html" target="_top" xlink:title=" ">
<polygon fill="none" stroke="black" points="322.5,-76.5 322.5,-95.5 450.5,-95.5 450.5,-76.5 322.5,-76.5"/>
<text text-anchor="middle" x="386.5" y="-83.5" font-family="Helvetica,sans-Serif" font-size="10.00">bWidgets::bwPushButton</text>
</a>
</g>
</g>
<!-- Node1&#45;&gt;Node4 -->
<g id="edge3" class="edge">
<title>Node1&#45;&gt;Node4</title>
<path fill="none" stroke="midnightblue" d="M295.49,-75.97C304.53,-76.98 313.65,-77.99 322.42,-78.97"/>
<polygon fill="midnightblue" stroke="midnightblue" points="295.66,-72.47 285.33,-74.84 294.88,-79.42 295.66,-72.47"/>
</g>
<!-- Node5 -->
<g id="node5" class="node">
<title>Node5</title>
<g id="a_node5"><a xlink:href="classbWidgets_1_1bwRadioButton.html" target="_top" xlink:title="A radio&#45;button like widget retaining a pressed state once pressed.">
<polygon fill="none" stroke="black" points="321,-38.5 321,-57.5 452,-57.5 452,-38.5 321,-38.5"/>
<text text-anchor="middle" x="386.5" y="-45.5" font-family="Helvetica,sans-Serif" font-size="10.00">bWidgets::bwRadioButton</text>
</a>
</g>
</g>
<!-- Node1&#45;&gt;Node5 -->
<g id="edge4" class="edge">
<title>Node1&#45;&gt;Node5</title>
<path fill="none" stroke="midnightblue" d="M295.31,-58.05C303.86,-57.1 312.47,-56.14 320.8,-55.21"/>
<polygon fill="midnightblue" stroke="midnightblue" points="294.88,-54.58 285.33,-59.16 295.66,-61.53 294.88,-54.58"/>
</g>
<!-- Node6 -->
<g id="node6" class="node">
<title>Node6</title>
<g id="a_node6"><a xlink:href="classbWidgets_1_1bwScrollBar.html" target="_top" xlink:title=" ">
<polygon fill="none" stroke="black" points="328.5,-0.5 328.5,-19.5 444.5,-19.5 444.5,-0.5 328.5,-0.5"/>
<text text-anchor="middle" x="386.5" y="-7.5" font-family="Helvetica,sans-Serif" font-size="10.00">bWidgets::bwScrollBar</text>
</a>
</g>
</g>
<!-- Node1&#45;&gt;Node6 -->
<g id="edge5" class="edge">
<title>Node1&#45;&gt;Node6</title>
<path fill="none" stroke="midnightblue" d="M250.14,-53.83C270.69,-46.27 297.2,-36.76 321,-29 330.88,-25.78 341.68,-22.5 351.58,-19.59"/>
<polygon fill="midnightblue" stroke="midnightblue" points="248.73,-50.62 240.56,-57.37 251.15,-57.18 248.73,-50.62"/>
</g>
<!-- Node2 -->
<g id="node2" class="node">
<title>Node2</title>
<g id="a_node2"><a xlink:href="classbWidgets_1_1bwWidget.html" target="_top" xlink:title="Abstract base class that all widgets derive from.">
<polygon fill="none" stroke="black" points="0,-57.5 0,-76.5 107,-76.5 107,-57.5 0,-57.5"/>
<text text-anchor="middle" x="53.5" y="-64.5" font-family="Helvetica,sans-Serif" font-size="10.00">bWidgets::bwWidget</text>
</a>
</g>
</g>
<!-- Node2&#45;&gt;Node1 -->
<g id="edge1" class="edge">
<title>Node2&#45;&gt;Node1</title>
<path fill="none" stroke="midnightblue" d="M117.38,-67C125.78,-67 134.45,-67 142.97,-67"/>
<polygon fill="midnightblue" stroke="midnightblue" points="117.28,-63.5 107.28,-67 117.28,-70.5 117.28,-63.5"/>
</g>
</g>
</svg>
