<?xml version="1.0" encoding="UTF-8" standalone="no"?>
<!DOCTYPE svg PUBLIC "-//W3C//DTD SVG 1.1//EN"
 "http://www.w3.org/Graphics/SVG/1.1/DTD/svg11.dtd">
<!-- Generated by graphviz version 2.50.0 (20211204.2007)
 -->
<!-- Title: bWidgets::bwScreenGraph::ScreenGraph Pages: 1 -->
<svg width="298pt" height="195pt"
 viewBox="0.00 0.00 297.50 195.00" xmlns="http://www.w3.org/2000/svg" xmlns:xlink="http://www.w3.org/1999/xlink">
<g id="graph0" class="graph" transform="scale(1 1) rotate(0) translate(4 191)">
<title>bWidgets::bwScreenGraph::ScreenGraph</title>
<!-- Node1 -->
<g id="node1" class="node">
<title>Node1</title>
<g id="a_node1"><a xlink:title=" ">
<polygon fill="#bfbfbf" stroke="black" points="111,-0.5 111,-30.5 245,-30.5 245,-0.5 111,-0.5"/>
<text text-anchor="start" x="119" y="-18.5" font-family="Helvetica,sans-Serif" font-size="10.00">bWidgets::bwScreenGraph</text>
<text text-anchor="middle" x="178" y="-7.5" font-family="Helvetica,sans-Serif" font-size="10.00">::ScreenGraph</text>
</a>
</g>
</g>
<!-- Node2 -->
<g id="node2" class="node">
<title>Node2</title>
<g id="a_node2"><a xlink:href="structbWidgets_1_1bwContext.html" target="_top" xlink:title="Important state information for the screen&#45;graph.">
<polygon fill="none" stroke="black" points="11.5,-78.5 11.5,-97.5 122.5,-97.5 122.5,-78.5 11.5,-78.5"/>
<text text-anchor="middle" x="67" y="-85.5" font-family="Helvetica,sans-Serif" font-size="10.00">bWidgets::bwContext</text>
</a>
</g>
</g>
<!-- Node2&#45;&gt;Node1 -->
<g id="edge1" class="edge">
<title>Node2&#45;&gt;Node1</title>
<path fill="none" stroke="#9a32cd" stroke-dasharray="5,2" d="M89.09,-72.97C108.45,-60.67 136.45,-42.89 155.84,-30.58"/>
<polygon fill="#9a32cd" stroke="#9a32cd" points="87.18,-70.04 80.61,-78.36 90.93,-75.95 87.18,-70.04"/>
<text text-anchor="middle" x="144" y="-52" font-family="Helvetica,sans-Serif" font-size="10.00"> context</text>
</g>
<!-- Node3 -->
<g id="node3" class="node">
<title>Node3</title>
<g id="a_node3"><a xlink:href="classbWidgets_1_1bwScreenGraph_1_1Node.html" target="_top" xlink:title="The base data&#45;structure for a screen&#45;graph node.">
<polygon fill="none" stroke="black" points="0,-156.5 0,-186.5 134,-186.5 134,-156.5 0,-156.5"/>
<text text-anchor="start" x="8" y="-174.5" font-family="Helvetica,sans-Serif" font-size="10.00">bWidgets::bwScreenGraph</text>
<text text-anchor="middle" x="67" y="-163.5" font-family="Helvetica,sans-Serif" font-size="10.00">::Node</text>
</a>
</g>
</g>
<!-- Node3&#45;&gt;Node2 -->
<g id="edge2" class="edge">
<title>Node3&#45;&gt;Node2</title>
<path fill="none" stroke="#9a32cd" stroke-dasharray="5,2" d="M67,-146.25C67,-129.78 67,-108.99 67,-97.54"/>
<polygon fill="#9a32cd" stroke="#9a32cd" points="63.5,-146.3 67,-156.3 70.5,-146.3 63.5,-146.3"/>
<text text-anchor="middle" x="84.5" y="-130" font-family="Helvetica,sans-Serif" font-size="10.00"> active</text>
<text text-anchor="middle" x="84.5" y="-119" font-family="Helvetica,sans-Serif" font-size="10.00">hovered</text>
</g>
<!-- Node4 -->
<g id="node4" class="node">
<title>Node4</title>
<g id="a_node4"><a xlink:href="classbWidgets_1_1bwEventDispatcher.html" target="_top" xlink:title="Mangages sending events to screen&#45;graph nodes based on current state.">
<polygon fill="none" stroke="black" points="140.5,-78.5 140.5,-97.5 289.5,-97.5 289.5,-78.5 140.5,-78.5"/>
<text text-anchor="middle" x="215" y="-85.5" font-family="Helvetica,sans-Serif" font-size="10.00">bWidgets::bwEventDispatcher</text>
</a>
</g>
</g>
<!-- Node4&#45;&gt;Node1 -->
<g id="edge3" class="edge">
<title>Node4&#45;&gt;Node1</title>
<path fill="none" stroke="#9a32cd" stroke-dasharray="5,2" d="M205.72,-69.32C199.43,-57.34 191.23,-41.72 185.39,-30.58"/>
<polygon fill="#9a32cd" stroke="#9a32cd" points="202.72,-71.13 210.46,-78.36 208.92,-67.87 202.72,-71.13"/>
<text text-anchor="middle" x="238" y="-52" font-family="Helvetica,sans-Serif" font-size="10.00"> event_dispatcher</text>
</g>
</g>
</svg>
