<?xml version="1.0" encoding="UTF-8" standalone="no"?>
<!DOCTYPE svg PUBLIC "-//W3C//DTD SVG 1.1//EN"
 "http://www.w3.org/Graphics/SVG/1.1/DTD/svg11.dtd">
<!-- Generated by graphviz version 2.50.0 (20211204.2007)
 -->
<!-- Title: bWidgets::bwStyleCSS Pages: 1 -->
<svg width="300pt" height="140pt"
 viewBox="0.00 0.00 300.00 140.00" xmlns="http://www.w3.org/2000/svg" xmlns:xlink="http://www.w3.org/1999/xlink">
<g id="graph0" class="graph" transform="scale(1 1) rotate(0) translate(4 136)">
<title>bWidgets::bwStyleCSS</title>
<!-- Node1 -->
<g id="node1" class="node">
<title>Node1</title>
<g id="a_node1"><a xlink:title="Style&#45;class for CSS driven Styles.">
<polygon fill="#bfbfbf" stroke="black" points="85.5,-56.5 85.5,-75.5 205.5,-75.5 205.5,-56.5 85.5,-56.5"/>
<text text-anchor="middle" x="145.5" y="-63.5" font-family="Helvetica,sans-Serif" font-size="10.00">bWidgets::bwStyleCSS</text>
</a>
</g>
</g>
<!-- Node3 -->
<g id="node3" class="node">
<title>Node3</title>
<g id="a_node3"><a xlink:href="classbWidgets_1_1bwStyleFlatDark.html" target="_top" xlink:title=" ">
<polygon fill="none" stroke="black" points="0,-0.5 0,-19.5 137,-19.5 137,-0.5 0,-0.5"/>
<text text-anchor="middle" x="68.5" y="-7.5" font-family="Helvetica,sans-Serif" font-size="10.00">bWidgets::bwStyleFlatDark</text>
</a>
</g>
</g>
<!-- Node1&#45;&gt;Node3 -->
<g id="edge2" class="edge">
<title>Node1&#45;&gt;Node3</title>
<path fill="none" stroke="midnightblue" d="M124.6,-50.34C110.59,-40.52 92.62,-27.91 80.84,-19.65"/>
<polygon fill="midnightblue" stroke="midnightblue" points="122.93,-53.45 133.13,-56.32 126.95,-47.72 122.93,-53.45"/>
</g>
<!-- Node4 -->
<g id="node4" class="node">
<title>Node4</title>
<g id="a_node4"><a xlink:href="classbWidgets_1_1bwStyleFlatLight.html" target="_top" xlink:title=" ">
<polygon fill="none" stroke="black" points="155,-0.5 155,-19.5 292,-19.5 292,-0.5 155,-0.5"/>
<text text-anchor="middle" x="223.5" y="-7.5" font-family="Helvetica,sans-Serif" font-size="10.00">bWidgets::bwStyleFlatLight</text>
</a>
</g>
</g>
<!-- Node1&#45;&gt;Node4 -->
<g id="edge3" class="edge">
<title>Node1&#45;&gt;Node4</title>
<path fill="none" stroke="midnightblue" d="M166.27,-50.62C180.52,-40.76 198.96,-27.99 211,-19.65"/>
<polygon fill="midnightblue" stroke="midnightblue" points="164.26,-47.75 158.03,-56.32 168.25,-53.51 164.26,-47.75"/>
</g>
<!-- Node2 -->
<g id="node2" class="node">
<title>Node2</title>
<g id="a_node2"><a xlink:href="classbWidgets_1_1bwStyle.html" target="_top" xlink:title=" ">
<polygon fill="none" stroke="black" points="96,-112.5 96,-131.5 195,-131.5 195,-112.5 96,-112.5"/>
<text text-anchor="middle" x="145.5" y="-119.5" font-family="Helvetica,sans-Serif" font-size="10.00">bWidgets::bwStyle</text>
</a>
</g>
</g>
<!-- Node2&#45;&gt;Node1 -->
<g id="edge1" class="edge">
<title>Node2&#45;&gt;Node1</title>
<path fill="none" stroke="midnightblue" d="M145.5,-101.8C145.5,-92.91 145.5,-82.78 145.5,-75.75"/>
<polygon fill="midnightblue" stroke="midnightblue" points="142,-102.08 145.5,-112.08 149,-102.08 142,-102.08"/>
</g>
</g>
</svg>
