<?xml version="1.0" encoding="UTF-8" standalone="no"?>
<!DOCTYPE svg PUBLIC "-//W3C//DTD SVG 1.1//EN"
 "http://www.w3.org/Graphics/SVG/1.1/DTD/svg11.dtd">
<!-- Generated by graphviz version 2.50.0 (20211204.2007)
 -->
<!-- Title: bWidgets::bwNumberSlider Pages: 1 -->
<svg width="871pt" height="204pt"
 viewBox="0.00 0.00 871.00 203.50" xmlns="http://www.w3.org/2000/svg" xmlns:xlink="http://www.w3.org/1999/xlink">
<g id="graph0" class="graph" transform="scale(1 1) rotate(0) translate(4 199.5)">
<title>bWidgets::bwNumberSlider</title>
<!-- Node1 -->
<g id="node1" class="node">
<title>Node1</title>
<g id="a_node1"><a xlink:title=" ">
<polygon fill="#bfbfbf" stroke="black" points="727,-38.5 727,-57.5 863,-57.5 863,-38.5 727,-38.5"/>
<text text-anchor="middle" x="795" y="-45.5" font-family="Helvetica,sans-Serif" font-size="10.00">bWidgets::bwNumberSlider</text>
</a>
</g>
</g>
<!-- Node2 -->
<g id="node2" class="node">
<title>Node2</title>
<g id="a_node2"><a xlink:href="classbWidgets_1_1bwTextBox.html" target="_top" xlink:title=" ">
<polygon fill="none" stroke="black" points="507,-76.5 507,-95.5 620,-95.5 620,-76.5 507,-76.5"/>
<text text-anchor="middle" x="563.5" y="-83.5" font-family="Helvetica,sans-Serif" font-size="10.00">bWidgets::bwTextBox</text>
</a>
</g>
</g>
<!-- Node2&#45;&gt;Node1 -->
<g id="edge1" class="edge">
<title>Node2&#45;&gt;Node1</title>
<path fill="none" stroke="midnightblue" d="M630.23,-75.12C663.8,-69.56 704.26,-62.86 736.56,-57.51"/>
<polygon fill="midnightblue" stroke="midnightblue" points="629.35,-71.71 620.06,-76.8 630.49,-78.62 629.35,-71.71"/>
</g>
<!-- Node3 -->
<g id="node3" class="node">
<title>Node3</title>
<g id="a_node3"><a xlink:href="classbWidgets_1_1bwWidget.html" target="_top" xlink:title="Abstract base class that all widgets derive from.">
<polygon fill="none" stroke="black" points="281.5,-117.5 281.5,-136.5 388.5,-136.5 388.5,-117.5 281.5,-117.5"/>
<text text-anchor="middle" x="335" y="-124.5" font-family="Helvetica,sans-Serif" font-size="10.00">bWidgets::bwWidget</text>
</a>
</g>
</g>
<!-- Node3&#45;&gt;Node2 -->
<g id="edge2" class="edge">
<title>Node3&#45;&gt;Node2</title>
<path fill="none" stroke="midnightblue" d="M398.84,-115.67C424.07,-111.12 453.42,-105.82 480,-101 489.74,-99.24 500.13,-97.35 510.13,-95.53"/>
<polygon fill="midnightblue" stroke="midnightblue" points="397.89,-112.29 388.67,-117.51 399.13,-119.18 397.89,-112.29"/>
</g>
<!-- Node4 -->
<g id="node4" class="node">
<title>Node4</title>
<g id="a_node4"><a xlink:href="classbWidgets_1_1bwRectangle.html" target="_top" xlink:title=" ">
<polygon fill="none" stroke="black" points="11,-165 11,-195 132,-195 132,-165 11,-165"/>
<text text-anchor="start" x="19" y="-183" font-family="Helvetica,sans-Serif" font-size="10.00">bWidgets::bwRectangle</text>
<text text-anchor="middle" x="71.5" y="-172" font-family="Helvetica,sans-Serif" font-size="10.00">&lt; int &gt;</text>
</a>
</g>
</g>
<!-- Node4&#45;&gt;Node2 -->
<g id="edge5" class="edge">
<title>Node4&#45;&gt;Node2</title>
<path fill="none" stroke="#9a32cd" stroke-dasharray="5,2" d="M142.35,-178.91C172.72,-177.97 208.67,-176.23 241,-173 317.12,-165.4 337.17,-166.06 411,-146 442.78,-137.37 449.38,-131.12 480,-119 499.8,-111.17 522.22,-102.19 538.69,-95.58"/>
<polygon fill="#9a32cd" stroke="#9a32cd" points="142.17,-175.42 132.28,-179.2 142.37,-182.41 142.17,-175.42"/>
<text text-anchor="middle" x="335" y="-174" font-family="Helvetica,sans-Serif" font-size="10.00"> selection_rectangle</text>
</g>
<!-- Node4&#45;&gt;Node3 -->
<g id="edge3" class="edge">
<title>Node4&#45;&gt;Node3</title>
<path fill="none" stroke="#9a32cd" stroke-dasharray="5,2" d="M142.05,-165.85C148.46,-164.55 154.85,-163.25 161,-162 203.49,-153.38 251.87,-143.6 286.64,-136.57"/>
<polygon fill="#9a32cd" stroke="#9a32cd" points="141.11,-162.47 132,-167.89 142.5,-169.33 141.11,-162.47"/>
<text text-anchor="middle" x="201" y="-165" font-family="Helvetica,sans-Serif" font-size="10.00"> rectangle</text>
</g>
<!-- Node5 -->
<g id="node5" class="node">
<title>Node5</title>
<g id="a_node5"><a xlink:href="classbWidgets_1_1bwStyleProperties.html" target="_top" xlink:title="Manage a list of properties (bwStyleProperty instances).">
<polygon fill="none" stroke="black" points="0,-118.5 0,-137.5 143,-137.5 143,-118.5 0,-118.5"/>
<text text-anchor="middle" x="71.5" y="-125.5" font-family="Helvetica,sans-Serif" font-size="10.00">bWidgets::bwStyleProperties</text>
</a>
</g>
</g>
<!-- Node5&#45;&gt;Node3 -->
<g id="edge4" class="edge">
<title>Node5&#45;&gt;Node3</title>
<path fill="none" stroke="#9a32cd" stroke-dasharray="5,2" d="M153.41,-127.69C195.1,-127.53 244.76,-127.34 281.44,-127.2"/>
<polygon fill="#9a32cd" stroke="#9a32cd" points="153.25,-124.19 143.27,-127.73 153.28,-131.19 153.25,-124.19"/>
<text text-anchor="middle" x="201" y="-130" font-family="Helvetica,sans-Serif" font-size="10.00"> style_properties</text>
</g>
<!-- Node6 -->
<g id="node6" class="node">
<title>Node6</title>
<g id="a_node6"><a xlink:title=" ">
<polygon fill="none" stroke="black" points="305,-76.5 305,-95.5 365,-95.5 365,-76.5 305,-76.5"/>
<text text-anchor="middle" x="335" y="-83.5" font-family="Helvetica,sans-Serif" font-size="10.00">std::string</text>
</a>
</g>
</g>
<!-- Node6&#45;&gt;Node2 -->
<g id="edge6" class="edge">
<title>Node6&#45;&gt;Node2</title>
<path fill="none" stroke="#9a32cd" stroke-dasharray="5,2" d="M375.33,-86C411.58,-86 465.79,-86 506.55,-86"/>
<polygon fill="#9a32cd" stroke="#9a32cd" points="375.15,-82.5 365.15,-86 375.15,-89.5 375.15,-82.5"/>
<text text-anchor="middle" x="454.5" y="-89" font-family="Helvetica,sans-Serif" font-size="10.00"> text</text>
</g>
<!-- Node7 -->
<g id="node7" class="node">
<title>Node7</title>
<g id="a_node7"><a xlink:title=" ">
<polygon fill="none" stroke="black" points="24,-69 24,-99 119,-99 119,-69 24,-69"/>
<text text-anchor="start" x="32" y="-87" font-family="Helvetica,sans-Serif" font-size="10.00">std::basic_string&lt;</text>
<text text-anchor="middle" x="71.5" y="-76" font-family="Helvetica,sans-Serif" font-size="10.00"> Char &gt;</text>
</a>
</g>
</g>
<!-- Node7&#45;&gt;Node6 -->
<g id="edge7" class="edge">
<title>Node7&#45;&gt;Node6</title>
<path fill="none" stroke="midnightblue" d="M129.36,-84.43C183.36,-84.85 262.38,-85.45 304.69,-85.78"/>
<polygon fill="midnightblue" stroke="midnightblue" points="129.28,-80.93 119.25,-84.36 129.22,-87.93 129.28,-80.93"/>
</g>
<!-- Node8 -->
<g id="node8" class="node">
<title>Node8</title>
<g id="a_node8"><a xlink:href="classbWidgets_1_1bwWidgetBaseStyle.html" target="_top" xlink:title="Properties for typical widgets with roundbox corners.">
<polygon fill="none" stroke="black" points="259,-38.5 259,-57.5 411,-57.5 411,-38.5 259,-38.5"/>
<text text-anchor="middle" x="335" y="-45.5" font-family="Helvetica,sans-Serif" font-size="10.00">bWidgets::bwWidgetBaseStyle</text>
</a>
</g>
</g>
<!-- Node8&#45;&gt;Node2 -->
<g id="edge8" class="edge">
<title>Node8&#45;&gt;Node2</title>
<path fill="none" stroke="#9a32cd" stroke-dasharray="5,2" d="M407.45,-59.1C430.62,-62.78 456.41,-66.97 480,-71 490.05,-72.72 500.77,-74.61 511.04,-76.47"/>
<polygon fill="#9a32cd" stroke="#9a32cd" points="407.78,-55.61 397.36,-57.5 406.69,-62.52 407.78,-55.61"/>
<text text-anchor="middle" x="454.5" y="-74" font-family="Helvetica,sans-Serif" font-size="10.00"> base_style</text>
</g>
<!-- Node9 -->
<g id="node9" class="node">
<title>Node9</title>
<g id="a_node9"><a xlink:href="classbWidgets_1_1bwColor.html" target="_top" xlink:title=" ">
<polygon fill="none" stroke="black" points="21.5,-16.5 21.5,-35.5 121.5,-35.5 121.5,-16.5 21.5,-16.5"/>
<text text-anchor="middle" x="71.5" y="-23.5" font-family="Helvetica,sans-Serif" font-size="10.00">bWidgets::bwColor</text>
</a>
</g>
</g>
<!-- Node9&#45;&gt;Node8 -->
<g id="edge9" class="edge">
<title>Node9&#45;&gt;Node8</title>
<path fill="none" stroke="#9a32cd" stroke-dasharray="5,2" d="M131.79,-28.52C164.11,-30.14 204.8,-32.59 241,-36 248.62,-36.72 256.57,-37.57 264.49,-38.5"/>
<polygon fill="#9a32cd" stroke="#9a32cd" points="131.76,-25.01 121.6,-28.02 131.42,-32 131.76,-25.01"/>
<text text-anchor="middle" x="201" y="-72" font-family="Helvetica,sans-Serif" font-size="10.00"> background_color</text>
<text text-anchor="middle" x="201" y="-61" font-family="Helvetica,sans-Serif" font-size="10.00">border_color</text>
<text text-anchor="middle" x="201" y="-50" font-family="Helvetica,sans-Serif" font-size="10.00">decoration_color</text>
<text text-anchor="middle" x="201" y="-39" font-family="Helvetica,sans-Serif" font-size="10.00">text_color</text>
</g>
<!-- Node10 -->
<g id="node10" class="node">
<title>Node10</title>
<g id="a_node10"><a xlink:title=" ">
<polygon fill="none" stroke="black" points="498,-11 498,-41 629,-41 629,-11 498,-11"/>
<text text-anchor="start" x="506" y="-29" font-family="Helvetica,sans-Serif" font-size="10.00">std::unique_ptr&lt; bWidgets</text>
<text text-anchor="middle" x="563.5" y="-18" font-family="Helvetica,sans-Serif" font-size="10.00">::bwFunctorInterface &gt;</text>
</a>
</g>
</g>
<!-- Node10&#45;&gt;Node1 -->
<g id="edge10" class="edge">
<title>Node10&#45;&gt;Node1</title>
<path fill="none" stroke="#9a32cd" stroke-dasharray="5,2" d="M639.24,-33.16C667.43,-35.87 699.29,-38.92 726.75,-41.55"/>
<polygon fill="#9a32cd" stroke="#9a32cd" points="639.33,-29.66 629.04,-32.19 638.66,-36.63 639.33,-29.66"/>
<text text-anchor="middle" x="678" y="-42" font-family="Helvetica,sans-Serif" font-size="10.00"> apply_functor</text>
</g>
<!-- Node11 -->
<g id="node11" class="node">
<title>Node11</title>
<g id="a_node11"><a xlink:href="classbWidgets_1_1bwFunctorInterface.html" target="_top" xlink:title="Abstract function object class.">
<polygon fill="none" stroke="black" points="261,-0.5 261,-19.5 409,-19.5 409,-0.5 261,-0.5"/>
<text text-anchor="middle" x="335" y="-7.5" font-family="Helvetica,sans-Serif" font-size="10.00">bWidgets::bwFunctorInterface</text>
</a>
</g>
</g>
<!-- Node11&#45;&gt;Node10 -->
<g id="edge11" class="edge">
<title>Node11&#45;&gt;Node10</title>
<path fill="none" stroke="#9a32cd" stroke-dasharray="5,2" d="M419.55,-13.21C439.38,-14.21 460.45,-15.46 480,-17 485.75,-17.45 491.71,-17.98 497.68,-18.56"/>
<polygon fill="#9a32cd" stroke="#9a32cd" points="419.47,-9.7 409.31,-12.71 419.13,-16.69 419.47,-9.7"/>
<text text-anchor="middle" x="454.5" y="-20" font-family="Helvetica,sans-Serif" font-size="10.00"> ptr</text>
</g>
</g>
</svg>
