<?xml version="1.0" encoding="UTF-8" standalone="no"?>
<!DOCTYPE svg PUBLIC "-//W3C//DTD SVG 1.1//EN"
 "http://www.w3.org/Graphics/SVG/1.1/DTD/svg11.dtd">
<!-- Generated by graphviz version 2.50.0 (20211204.2007)
 -->
<!-- Title: bWidgets::bwPanel Pages: 1 -->
<svg width="964pt" height="215pt"
 viewBox="0.00 0.00 964.00 214.50" xmlns="http://www.w3.org/2000/svg" xmlns:xlink="http://www.w3.org/1999/xlink">
<g id="graph0" class="graph" transform="scale(1 1) rotate(0) translate(4 210.5)">
<title>bWidgets::bwPanel</title>
<!-- Node1 -->
<g id="node1" class="node">
<title>Node1</title>
<g id="a_node1"><a xlink:title=" ">
<polygon fill="#bfbfbf" stroke="black" points="855,-75.5 855,-94.5 956,-94.5 956,-75.5 855,-75.5"/>
<text text-anchor="middle" x="905.5" y="-82.5" font-family="Helvetica,sans-Serif" font-size="10.00">bWidgets::bwPanel</text>
</a>
</g>
</g>
<!-- Node2 -->
<g id="node2" class="node">
<title>Node2</title>
<g id="a_node2"><a xlink:href="classbWidgets_1_1bwContainerWidget.html" target="_top" xlink:title=" ">
<polygon fill="none" stroke="black" points="669,-75.5 669,-94.5 818,-94.5 818,-75.5 669,-75.5"/>
<text text-anchor="middle" x="743.5" y="-82.5" font-family="Helvetica,sans-Serif" font-size="10.00">bWidgets::bwContainerWidget</text>
</a>
</g>
</g>
<!-- Node2&#45;&gt;Node1 -->
<g id="edge1" class="edge">
<title>Node2&#45;&gt;Node1</title>
<path fill="none" stroke="midnightblue" d="M828.51,-85C837.44,-85 846.31,-85 854.67,-85"/>
<polygon fill="midnightblue" stroke="midnightblue" points="828.41,-81.5 818.41,-85 828.41,-88.5 828.41,-81.5"/>
</g>
<!-- Node3 -->
<g id="node3" class="node">
<title>Node3</title>
<g id="a_node3"><a xlink:href="classbWidgets_1_1bwWidget.html" target="_top" xlink:title="Abstract base class that all widgets derive from.">
<polygon fill="none" stroke="black" points="452.5,-137.5 452.5,-156.5 559.5,-156.5 559.5,-137.5 452.5,-137.5"/>
<text text-anchor="middle" x="506" y="-144.5" font-family="Helvetica,sans-Serif" font-size="10.00">bWidgets::bwWidget</text>
</a>
</g>
</g>
<!-- Node3&#45;&gt;Node2 -->
<g id="edge2" class="edge">
<title>Node3&#45;&gt;Node2</title>
<path fill="none" stroke="midnightblue" d="M553.04,-134.88C597.84,-123.08 665.02,-105.4 706.18,-94.56"/>
<polygon fill="midnightblue" stroke="midnightblue" points="552.06,-131.52 543.28,-137.45 553.84,-138.29 552.06,-131.52"/>
</g>
<!-- Node4 -->
<g id="node4" class="node">
<title>Node4</title>
<g id="a_node4"><a xlink:href="classbWidgets_1_1bwRectangle.html" target="_top" xlink:title=" ">
<polygon fill="none" stroke="black" points="182,-176 182,-206 303,-206 303,-176 182,-176"/>
<text text-anchor="start" x="190" y="-194" font-family="Helvetica,sans-Serif" font-size="10.00">bWidgets::bwRectangle</text>
<text text-anchor="middle" x="242.5" y="-183" font-family="Helvetica,sans-Serif" font-size="10.00">&lt; int &gt;</text>
</a>
</g>
</g>
<!-- Node4&#45;&gt;Node3 -->
<g id="edge3" class="edge">
<title>Node4&#45;&gt;Node3</title>
<path fill="none" stroke="#9a32cd" stroke-dasharray="5,2" d="M313.14,-179.28C356.81,-171.93 412.21,-162.61 452.24,-155.88"/>
<polygon fill="#9a32cd" stroke="#9a32cd" points="312.45,-175.85 303.17,-180.96 313.61,-182.75 312.45,-175.85"/>
<text text-anchor="middle" x="372" y="-178" font-family="Helvetica,sans-Serif" font-size="10.00"> rectangle</text>
</g>
<!-- Node5 -->
<g id="node5" class="node">
<title>Node5</title>
<g id="a_node5"><a xlink:href="classbWidgets_1_1bwStyleProperties.html" target="_top" xlink:title="Manage a list of properties (bwStyleProperty instances).">
<polygon fill="none" stroke="black" points="171,-137.5 171,-156.5 314,-156.5 314,-137.5 171,-137.5"/>
<text text-anchor="middle" x="242.5" y="-144.5" font-family="Helvetica,sans-Serif" font-size="10.00">bWidgets::bwStyleProperties</text>
</a>
</g>
</g>
<!-- Node5&#45;&gt;Node3 -->
<g id="edge4" class="edge">
<title>Node5&#45;&gt;Node3</title>
<path fill="none" stroke="#9a32cd" stroke-dasharray="5,2" d="M324.41,-147C366.1,-147 415.76,-147 452.44,-147"/>
<polygon fill="#9a32cd" stroke="#9a32cd" points="324.27,-143.5 314.27,-147 324.27,-150.5 324.27,-143.5"/>
<text text-anchor="middle" x="372" y="-150" font-family="Helvetica,sans-Serif" font-size="10.00"> style_properties</text>
</g>
<!-- Node6 -->
<g id="node6" class="node">
<title>Node6</title>
<g id="a_node6"><a xlink:href="classbWidgets_1_1bwScreenGraph_1_1ContainerNode.html" target="_top" xlink:title="Node representing a widget with children.">
<polygon fill="none" stroke="black" points="439,-70 439,-100 573,-100 573,-70 439,-70"/>
<text text-anchor="start" x="447" y="-88" font-family="Helvetica,sans-Serif" font-size="10.00">bWidgets::bwScreenGraph</text>
<text text-anchor="middle" x="506" y="-77" font-family="Helvetica,sans-Serif" font-size="10.00">::ContainerNode</text>
</a>
</g>
</g>
<!-- Node6&#45;&gt;Node2 -->
<g id="edge5" class="edge">
<title>Node6&#45;&gt;Node2</title>
<path fill="none" stroke="#9a32cd" stroke-dasharray="5,2" d="M583.55,-85C610.95,-85 641.76,-85 668.91,-85"/>
<polygon fill="#9a32cd" stroke="#9a32cd" points="583.23,-81.5 573.23,-85 583.23,-88.5 583.23,-81.5"/>
<text text-anchor="middle" x="625.5" y="-88" font-family="Helvetica,sans-Serif" font-size="10.00"> node</text>
</g>
<!-- Node7 -->
<g id="node7" class="node">
<title>Node7</title>
<g id="a_node7"><a xlink:href="classbWidgets_1_1bwScreenGraph_1_1LayoutNode.html" target="_top" xlink:title="Node for aligning children to a specific layout.">
<polygon fill="none" stroke="black" points="175.5,-88 175.5,-118 309.5,-118 309.5,-88 175.5,-88"/>
<text text-anchor="start" x="183.5" y="-106" font-family="Helvetica,sans-Serif" font-size="10.00">bWidgets::bwScreenGraph</text>
<text text-anchor="middle" x="242.5" y="-95" font-family="Helvetica,sans-Serif" font-size="10.00">::LayoutNode</text>
</a>
</g>
</g>
<!-- Node7&#45;&gt;Node6 -->
<g id="edge6" class="edge">
<title>Node7&#45;&gt;Node6</title>
<path fill="none" stroke="midnightblue" d="M320.23,-97.72C357.83,-95.13 402.66,-92.04 438.75,-89.56"/>
<polygon fill="midnightblue" stroke="midnightblue" points="319.56,-94.26 309.83,-98.43 320.04,-101.24 319.56,-94.26"/>
</g>
<!-- Node8 -->
<g id="node8" class="node">
<title>Node8</title>
<g id="a_node8"><a xlink:href="classbWidgets_1_1bwScreenGraph_1_1Node.html" target="_top" xlink:title="The base data&#45;structure for a screen&#45;graph node.">
<polygon fill="none" stroke="black" points="0,-63 0,-93 134,-93 134,-63 0,-63"/>
<text text-anchor="start" x="8" y="-81" font-family="Helvetica,sans-Serif" font-size="10.00">bWidgets::bwScreenGraph</text>
<text text-anchor="middle" x="67" y="-70" font-family="Helvetica,sans-Serif" font-size="10.00">::Node</text>
</a>
</g>
</g>
<!-- Node8&#45;&gt;Node7 -->
<g id="edge7" class="edge">
<title>Node8&#45;&gt;Node7</title>
<path fill="none" stroke="midnightblue" d="M144,-88.95C154.43,-90.45 165.07,-91.99 175.31,-93.46"/>
<polygon fill="midnightblue" stroke="midnightblue" points="144.48,-85.48 134.09,-87.52 143.49,-92.41 144.48,-85.48"/>
</g>
<!-- Node9 -->
<g id="node9" class="node">
<title>Node9</title>
<g id="a_node9"><a xlink:href="classbWidgets_1_1bwScreenGraph_1_1WidgetNode.html" target="_top" xlink:title="Node representing a single widget with no children.">
<polygon fill="none" stroke="black" points="175.5,-39 175.5,-69 309.5,-69 309.5,-39 175.5,-39"/>
<text text-anchor="start" x="183.5" y="-57" font-family="Helvetica,sans-Serif" font-size="10.00">bWidgets::bwScreenGraph</text>
<text text-anchor="middle" x="242.5" y="-46" font-family="Helvetica,sans-Serif" font-size="10.00">::WidgetNode</text>
</a>
</g>
</g>
<!-- Node8&#45;&gt;Node9 -->
<g id="edge9" class="edge">
<title>Node8&#45;&gt;Node9</title>
<path fill="none" stroke="midnightblue" d="M144,-67.49C154.43,-66.04 165.07,-64.57 175.31,-63.16"/>
<polygon fill="midnightblue" stroke="midnightblue" points="143.51,-64.02 134.09,-68.86 144.47,-70.95 143.51,-64.02"/>
</g>
<!-- Node9&#45;&gt;Node6 -->
<g id="edge8" class="edge">
<title>Node9&#45;&gt;Node6</title>
<path fill="none" stroke="midnightblue" d="M320.23,-63.1C357.83,-67.55 402.66,-72.87 438.75,-77.15"/>
<polygon fill="midnightblue" stroke="midnightblue" points="320.17,-59.56 309.83,-61.86 319.34,-66.52 320.17,-59.56"/>
</g>
<!-- Node10 -->
<g id="node10" class="node">
<title>Node10</title>
<g id="a_node10"><a xlink:href="classbWidgets_1_1bwWidgetBaseStyle.html" target="_top" xlink:title="Properties for typical widgets with roundbox corners.">
<polygon fill="none" stroke="black" points="430,-19.5 430,-38.5 582,-38.5 582,-19.5 430,-19.5"/>
<text text-anchor="middle" x="506" y="-26.5" font-family="Helvetica,sans-Serif" font-size="10.00">bWidgets::bwWidgetBaseStyle</text>
</a>
</g>
</g>
<!-- Node10&#45;&gt;Node2 -->
<g id="edge10" class="edge">
<title>Node10&#45;&gt;Node2</title>
<path fill="none" stroke="#9a32cd" stroke-dasharray="5,2" d="M556.99,-40.89C600.35,-51.2 662.29,-65.93 702.45,-75.48"/>
<polygon fill="#9a32cd" stroke="#9a32cd" points="557.75,-37.47 547.22,-38.56 556.14,-44.28 557.75,-37.47"/>
<text text-anchor="middle" x="625.5" y="-65" font-family="Helvetica,sans-Serif" font-size="10.00"> base_style</text>
</g>
<!-- Node11 -->
<g id="node11" class="node">
<title>Node11</title>
<g id="a_node11"><a xlink:href="classbWidgets_1_1bwColor.html" target="_top" xlink:title=" ">
<polygon fill="none" stroke="black" points="192.5,-0.5 192.5,-19.5 292.5,-19.5 292.5,-0.5 192.5,-0.5"/>
<text text-anchor="middle" x="242.5" y="-7.5" font-family="Helvetica,sans-Serif" font-size="10.00">bWidgets::bwColor</text>
</a>
</g>
</g>
<!-- Node11&#45;&gt;Node10 -->
<g id="edge11" class="edge">
<title>Node11&#45;&gt;Node10</title>
<path fill="none" stroke="#9a32cd" stroke-dasharray="5,2" d="M302.82,-9.44C335.16,-9.63 375.85,-10.67 412,-14 425.68,-15.26 440.4,-17.31 453.99,-19.49"/>
<polygon fill="#9a32cd" stroke="#9a32cd" points="302.65,-5.94 292.63,-9.41 302.62,-12.94 302.65,-5.94"/>
<text text-anchor="middle" x="372" y="-50" font-family="Helvetica,sans-Serif" font-size="10.00"> background_color</text>
<text text-anchor="middle" x="372" y="-39" font-family="Helvetica,sans-Serif" font-size="10.00">border_color</text>
<text text-anchor="middle" x="372" y="-28" font-family="Helvetica,sans-Serif" font-size="10.00">decoration_color</text>
<text text-anchor="middle" x="372" y="-17" font-family="Helvetica,sans-Serif" font-size="10.00">text_color</text>
</g>
</g>
</svg>
