<?xml version="1.0" encoding="UTF-8" standalone="no"?>
<!DOCTYPE svg PUBLIC "-//W3C//DTD SVG 1.1//EN"
 "http://www.w3.org/Graphics/SVG/1.1/DTD/svg11.dtd">
<!-- Generated by graphviz version 2.50.0 (20211204.2007)
 -->
<!-- Title: bWidgets::bwMouseWheelEvent Pages: 1 -->
<svg width="168pt" height="209pt"
 viewBox="0.00 0.00 168.00 209.00" xmlns="http://www.w3.org/2000/svg" xmlns:xlink="http://www.w3.org/1999/xlink">
<g id="graph0" class="graph" transform="scale(1 1) rotate(0) translate(4 205)">
<title>bWidgets::bwMouseWheelEvent</title>
<!-- Node1 -->
<g id="node1" class="node">
<title>Node1</title>
<g id="a_node1"><a xlink:title=" ">
<polygon fill="#bfbfbf" stroke="black" points="0.5,-0.5 0.5,-19.5 159.5,-19.5 159.5,-0.5 0.5,-0.5"/>
<text text-anchor="middle" x="80" y="-7.5" font-family="Helvetica,sans-Serif" font-size="10.00">bWidgets::bwMouseWheelEvent</text>
</a>
</g>
</g>
<!-- Node2 -->
<g id="node2" class="node">
<title>Node2</title>
<g id="a_node2"><a xlink:href="classbWidgets_1_1bwMouseButtonEvent.html" target="_top" xlink:title=" ">
<polygon fill="none" stroke="black" points="0,-57.5 0,-76.5 160,-76.5 160,-57.5 0,-57.5"/>
<text text-anchor="middle" x="80" y="-64.5" font-family="Helvetica,sans-Serif" font-size="10.00">bWidgets::bwMouseButtonEvent</text>
</a>
</g>
</g>
<!-- Node2&#45;&gt;Node1 -->
<g id="edge1" class="edge">
<title>Node2&#45;&gt;Node1</title>
<path fill="none" stroke="midnightblue" d="M80,-47.12C80,-37.82 80,-27.06 80,-19.71"/>
<polygon fill="midnightblue" stroke="midnightblue" points="76.5,-47.41 80,-57.41 83.5,-47.41 76.5,-47.41"/>
</g>
<!-- Node3 -->
<g id="node3" class="node">
<title>Node3</title>
<g id="a_node3"><a xlink:href="classbWidgets_1_1bwEvent.html" target="_top" xlink:title=" ">
<polygon fill="none" stroke="black" points="29,-114.5 29,-133.5 131,-133.5 131,-114.5 29,-114.5"/>
<text text-anchor="middle" x="80" y="-121.5" font-family="Helvetica,sans-Serif" font-size="10.00">bWidgets::bwEvent</text>
</a>
</g>
</g>
<!-- Node3&#45;&gt;Node2 -->
<g id="edge2" class="edge">
<title>Node3&#45;&gt;Node2</title>
<path fill="none" stroke="midnightblue" d="M80,-104.12C80,-94.82 80,-84.06 80,-76.71"/>
<polygon fill="midnightblue" stroke="midnightblue" points="76.5,-104.41 80,-114.41 83.5,-104.41 76.5,-104.41"/>
</g>
<!-- Node4 -->
<g id="node4" class="node">
<title>Node4</title>
<g id="a_node4"><a xlink:href="classbWidgets_1_1bwPoint.html" target="_top" xlink:title=" ">
<polygon fill="none" stroke="black" points="30.5,-181.5 30.5,-200.5 129.5,-200.5 129.5,-181.5 30.5,-181.5"/>
<text text-anchor="middle" x="80" y="-188.5" font-family="Helvetica,sans-Serif" font-size="10.00">bWidgets::bwPoint</text>
</a>
</g>
</g>
<!-- Node4&#45;&gt;Node3 -->
<g id="edge3" class="edge">
<title>Node4&#45;&gt;Node3</title>
<path fill="none" stroke="#9a32cd" stroke-dasharray="5,2" d="M80,-171.04C80,-158.67 80,-143.12 80,-133.63"/>
<polygon fill="#9a32cd" stroke="#9a32cd" points="76.5,-171.23 80,-181.23 83.5,-171.23 76.5,-171.23"/>
<text text-anchor="middle" x="98.5" y="-155" font-family="Helvetica,sans-Serif" font-size="10.00"> location</text>
</g>
</g>
</svg>
