<?xml version="1.0" encoding="UTF-8" standalone="no"?>
<!DOCTYPE svg PUBLIC "-//W3C//DTD SVG 1.1//EN"
 "http://www.w3.org/Graphics/SVG/1.1/DTD/svg11.dtd">
<!-- Generated by graphviz version 2.50.0 (20211204.2007)
 -->
<!-- Title: bWidgets::bwPainter Pages: 1 -->
<svg width="143pt" height="173pt"
 viewBox="0.00 0.00 142.50 173.00" xmlns="http://www.w3.org/2000/svg" xmlns:xlink="http://www.w3.org/1999/xlink">
<g id="graph0" class="graph" transform="scale(1 1) rotate(0) translate(4 169)">
<title>bWidgets::bwPainter</title>
<!-- Node1 -->
<g id="node1" class="node">
<title>Node1</title>
<g id="a_node1"><a xlink:title=" ">
<polygon fill="#bfbfbf" stroke="black" points="12,-0.5 12,-19.5 119,-19.5 119,-0.5 12,-0.5"/>
<text text-anchor="middle" x="65.5" y="-7.5" font-family="Helvetica,sans-Serif" font-size="10.00">bWidgets::bwPainter</text>
</a>
</g>
</g>
<!-- Node2 -->
<g id="node2" class="node">
<title>Node2</title>
<g id="a_node2"><a xlink:title=" ">
<polygon fill="none" stroke="black" points="0,-67.5 0,-97.5 131,-97.5 131,-67.5 0,-67.5"/>
<text text-anchor="start" x="8" y="-85.5" font-family="Helvetica,sans-Serif" font-size="10.00">std::unique_ptr&lt; bWidgets</text>
<text text-anchor="middle" x="65.5" y="-74.5" font-family="Helvetica,sans-Serif" font-size="10.00">::bwPaintEngine &gt;</text>
</a>
</g>
</g>
<!-- Node2&#45;&gt;Node1 -->
<g id="edge1" class="edge">
<title>Node2&#45;&gt;Node1</title>
<path fill="none" stroke="#9a32cd" stroke-dasharray="5,2" d="M65.5,-57.09C65.5,-44.21 65.5,-29.2 65.5,-19.89"/>
<polygon fill="#9a32cd" stroke="#9a32cd" points="62,-57.23 65.5,-67.23 69,-57.23 62,-57.23"/>
<text text-anchor="middle" x="100" y="-41" font-family="Helvetica,sans-Serif" font-size="10.00"> s_paint_engine</text>
</g>
<!-- Node3 -->
<g id="node3" class="node">
<title>Node3</title>
<g id="a_node3"><a xlink:href="classbWidgets_1_1bwPaintEngine.html" target="_top" xlink:title="Main interface to implement any drawing of geometry or text.">
<polygon fill="none" stroke="black" points="1,-145.5 1,-164.5 130,-164.5 130,-145.5 1,-145.5"/>
<text text-anchor="middle" x="65.5" y="-152.5" font-family="Helvetica,sans-Serif" font-size="10.00">bWidgets::bwPaintEngine</text>
</a>
</g>
</g>
<!-- Node3&#45;&gt;Node2 -->
<g id="edge2" class="edge">
<title>Node3&#45;&gt;Node2</title>
<path fill="none" stroke="#9a32cd" stroke-dasharray="5,2" d="M65.5,-135.24C65.5,-123.41 65.5,-108.38 65.5,-97.58"/>
<polygon fill="#9a32cd" stroke="#9a32cd" points="62,-135.36 65.5,-145.36 69,-135.36 62,-135.36"/>
<text text-anchor="middle" x="73" y="-119" font-family="Helvetica,sans-Serif" font-size="10.00"> ptr</text>
</g>
</g>
</svg>
