<?xml version="1.0" encoding="UTF-8" standalone="no"?>
<!DOCTYPE svg PUBLIC "-//W3C//DTD SVG 1.1//EN"
 "http://www.w3.org/Graphics/SVG/1.1/DTD/svg11.dtd">
<!-- Generated by graphviz version 2.50.0 (20211204.2007)
 -->
<!-- Title: bWidgets::bwNumberSliderHandler Pages: 1 -->
<svg width="154pt" height="162pt"
 viewBox="0.00 0.00 154.00 162.00" xmlns="http://www.w3.org/2000/svg" xmlns:xlink="http://www.w3.org/1999/xlink">
<g id="graph0" class="graph" transform="scale(1 1) rotate(0) translate(4 158)">
<title>bWidgets::bwNumberSliderHandler</title>
<!-- Node1 -->
<g id="node1" class="node">
<title>Node1</title>
<g id="a_node1"><a xlink:title=" ">
<polygon fill="#bfbfbf" stroke="black" points="5,-0.5 5,-30.5 141,-30.5 141,-0.5 5,-0.5"/>
<text text-anchor="start" x="13" y="-18.5" font-family="Helvetica,sans-Serif" font-size="10.00">bWidgets::bwNumberSlider</text>
<text text-anchor="middle" x="73" y="-7.5" font-family="Helvetica,sans-Serif" font-size="10.00">Handler</text>
</a>
</g>
</g>
<!-- Node2 -->
<g id="node2" class="node">
<title>Node2</title>
<g id="a_node2"><a xlink:href="classbWidgets_1_1bwTextBoxHandler.html" target="_top" xlink:title=" ">
<polygon fill="none" stroke="black" points="0,-67.5 0,-86.5 146,-86.5 146,-67.5 0,-67.5"/>
<text text-anchor="middle" x="73" y="-74.5" font-family="Helvetica,sans-Serif" font-size="10.00">bWidgets::bwTextBoxHandler</text>
</a>
</g>
</g>
<!-- Node2&#45;&gt;Node1 -->
<g id="edge1" class="edge">
<title>Node2&#45;&gt;Node1</title>
<path fill="none" stroke="midnightblue" d="M73,-57.23C73,-48.59 73,-38.5 73,-30.52"/>
<polygon fill="midnightblue" stroke="midnightblue" points="69.5,-57.48 73,-67.48 76.5,-57.48 69.5,-57.48"/>
</g>
<!-- Node3 -->
<g id="node3" class="node">
<title>Node3</title>
<g id="a_node3"><a xlink:href="classbWidgets_1_1bwScreenGraph_1_1EventHandler.html" target="_top" xlink:title="API for registering and calling event&#45;listeners.">
<polygon fill="none" stroke="black" points="6,-123.5 6,-153.5 140,-153.5 140,-123.5 6,-123.5"/>
<text text-anchor="start" x="14" y="-141.5" font-family="Helvetica,sans-Serif" font-size="10.00">bWidgets::bwScreenGraph</text>
<text text-anchor="middle" x="73" y="-130.5" font-family="Helvetica,sans-Serif" font-size="10.00">::EventHandler</text>
</a>
</g>
</g>
<!-- Node3&#45;&gt;Node2 -->
<g id="edge2" class="edge">
<title>Node3&#45;&gt;Node2</title>
<path fill="none" stroke="midnightblue" d="M73,-113.29C73,-103.86 73,-93.65 73,-86.66"/>
<polygon fill="midnightblue" stroke="midnightblue" points="69.5,-113.4 73,-123.4 76.5,-113.4 69.5,-113.4"/>
</g>
</g>
</svg>
