<?xml version="1.0" encoding="UTF-8" standalone="no"?>
<!DOCTYPE svg PUBLIC "-//W3C//DTD SVG 1.1//EN"
 "http://www.w3.org/Graphics/SVG/1.1/DTD/svg11.dtd">
<!-- Generated by graphviz version 2.50.0 (20211204.2007)
 -->
<!-- Title: bWidgets::bwScrollBar Pages: 1 -->
<svg width="817pt" height="222pt"
 viewBox="0.00 0.00 817.00 221.50" xmlns="http://www.w3.org/2000/svg" xmlns:xlink="http://www.w3.org/1999/xlink">
<g id="graph0" class="graph" transform="scale(1 1) rotate(0) translate(4 217.5)">
<title>bWidgets::bwScrollBar</title>
<!-- Node1 -->
<g id="node1" class="node">
<title>Node1</title>
<g id="a_node1"><a xlink:title=" ">
<polygon fill="#bfbfbf" stroke="black" points="693,-78.5 693,-97.5 809,-97.5 809,-78.5 693,-78.5"/>
<text text-anchor="middle" x="751" y="-85.5" font-family="Helvetica,sans-Serif" font-size="10.00">bWidgets::bwScrollBar</text>
</a>
</g>
</g>
<!-- Node2 -->
<g id="node2" class="node">
<title>Node2</title>
<g id="a_node2"><a xlink:href="classbWidgets_1_1bwAbstractButton.html" target="_top" xlink:title="Base class for button like widgets.">
<polygon fill="none" stroke="black" points="514,-78.5 514,-97.5 656,-97.5 656,-78.5 514,-78.5"/>
<text text-anchor="middle" x="585" y="-85.5" font-family="Helvetica,sans-Serif" font-size="10.00">bWidgets::bwAbstractButton</text>
</a>
</g>
</g>
<!-- Node2&#45;&gt;Node1 -->
<g id="edge1" class="edge">
<title>Node2&#45;&gt;Node1</title>
<path fill="none" stroke="midnightblue" d="M666.16,-88C675.16,-88 684.19,-88 692.82,-88"/>
<polygon fill="midnightblue" stroke="midnightblue" points="666.03,-84.5 656.03,-88 666.03,-91.5 666.03,-84.5"/>
</g>
<!-- Node3 -->
<g id="node3" class="node">
<title>Node3</title>
<g id="a_node3"><a xlink:href="classbWidgets_1_1bwWidget.html" target="_top" xlink:title="Abstract base class that all widgets derive from.">
<polygon fill="none" stroke="black" points="286.5,-147.5 286.5,-166.5 393.5,-166.5 393.5,-147.5 286.5,-147.5"/>
<text text-anchor="middle" x="340" y="-154.5" font-family="Helvetica,sans-Serif" font-size="10.00">bWidgets::bwWidget</text>
</a>
</g>
</g>
<!-- Node3&#45;&gt;Node2 -->
<g id="edge2" class="edge">
<title>Node3&#45;&gt;Node2</title>
<path fill="none" stroke="midnightblue" d="M388.51,-145.03C397.64,-142.71 407.12,-140.29 416,-138 451.6,-128.82 460.75,-127.42 496,-117 516.36,-110.98 539.12,-103.46 556.39,-97.58"/>
<polygon fill="midnightblue" stroke="midnightblue" points="387.62,-141.64 378.79,-147.49 389.34,-148.43 387.62,-141.64"/>
</g>
<!-- Node4 -->
<g id="node4" class="node">
<title>Node4</title>
<g id="a_node4"><a xlink:href="classbWidgets_1_1bwRectangle.html" target="_top" xlink:title=" ">
<polygon fill="none" stroke="black" points="13.5,-183 13.5,-213 134.5,-213 134.5,-183 13.5,-183"/>
<text text-anchor="start" x="21.5" y="-201" font-family="Helvetica,sans-Serif" font-size="10.00">bWidgets::bwRectangle</text>
<text text-anchor="middle" x="74" y="-190" font-family="Helvetica,sans-Serif" font-size="10.00">&lt; int &gt;</text>
</a>
</g>
</g>
<!-- Node4&#45;&gt;Node3 -->
<g id="edge3" class="edge">
<title>Node4&#45;&gt;Node3</title>
<path fill="none" stroke="#9a32cd" stroke-dasharray="5,2" d="M144.72,-187.17C189.11,-180.28 245.71,-171.49 286.35,-165.18"/>
<polygon fill="#9a32cd" stroke="#9a32cd" points="143.92,-183.75 134.58,-188.75 144.99,-190.67 143.92,-183.75"/>
<text text-anchor="middle" x="206" y="-186" font-family="Helvetica,sans-Serif" font-size="10.00"> rectangle</text>
</g>
<!-- Node5 -->
<g id="node5" class="node">
<title>Node5</title>
<g id="a_node5"><a xlink:href="classbWidgets_1_1bwStyleProperties.html" target="_top" xlink:title="Manage a list of properties (bwStyleProperty instances).">
<polygon fill="none" stroke="black" points="2.5,-144.5 2.5,-163.5 145.5,-163.5 145.5,-144.5 2.5,-144.5"/>
<text text-anchor="middle" x="74" y="-151.5" font-family="Helvetica,sans-Serif" font-size="10.00">bWidgets::bwStyleProperties</text>
</a>
</g>
</g>
<!-- Node5&#45;&gt;Node3 -->
<g id="edge4" class="edge">
<title>Node5&#45;&gt;Node3</title>
<path fill="none" stroke="#9a32cd" stroke-dasharray="5,2" d="M155.79,-154.92C198.28,-155.4 249.15,-155.98 286.49,-156.4"/>
<polygon fill="#9a32cd" stroke="#9a32cd" points="155.79,-151.42 145.75,-154.8 155.71,-158.42 155.79,-151.42"/>
<text text-anchor="middle" x="206" y="-158" font-family="Helvetica,sans-Serif" font-size="10.00"> style_properties</text>
</g>
<!-- Node6 -->
<g id="node6" class="node">
<title>Node6</title>
<g id="a_node6"><a xlink:title=" ">
<polygon fill="none" stroke="black" points="274.5,-98 274.5,-128 405.5,-128 405.5,-98 274.5,-98"/>
<text text-anchor="start" x="282.5" y="-116" font-family="Helvetica,sans-Serif" font-size="10.00">std::unique_ptr&lt; bWidgets</text>
<text text-anchor="middle" x="340" y="-105" font-family="Helvetica,sans-Serif" font-size="10.00">::bwFunctorInterface &gt;</text>
</a>
</g>
</g>
<!-- Node6&#45;&gt;Node2 -->
<g id="edge5" class="edge">
<title>Node6&#45;&gt;Node2</title>
<path fill="none" stroke="#9a32cd" stroke-dasharray="5,2" d="M415.76,-105.31C447,-102.09 483.1,-98.38 513.84,-95.22"/>
<polygon fill="#9a32cd" stroke="#9a32cd" points="415.39,-101.83 405.8,-106.33 416.11,-108.79 415.39,-101.83"/>
<text text-anchor="middle" x="465" y="-105" font-family="Helvetica,sans-Serif" font-size="10.00"> apply_functor</text>
</g>
<!-- Node7 -->
<g id="node7" class="node">
<title>Node7</title>
<g id="a_node7"><a xlink:href="classbWidgets_1_1bwFunctorInterface.html" target="_top" xlink:title="Abstract function object class.">
<polygon fill="none" stroke="black" points="0,-103.5 0,-122.5 148,-122.5 148,-103.5 0,-103.5"/>
<text text-anchor="middle" x="74" y="-110.5" font-family="Helvetica,sans-Serif" font-size="10.00">bWidgets::bwFunctorInterface</text>
</a>
</g>
</g>
<!-- Node7&#45;&gt;Node6 -->
<g id="edge6" class="edge">
<title>Node7&#45;&gt;Node6</title>
<path fill="none" stroke="#9a32cd" stroke-dasharray="5,2" d="M158.56,-113C195.95,-113 239.35,-113 274.22,-113"/>
<polygon fill="#9a32cd" stroke="#9a32cd" points="158.19,-109.5 148.19,-113 158.19,-116.5 158.19,-109.5"/>
<text text-anchor="middle" x="206" y="-116" font-family="Helvetica,sans-Serif" font-size="10.00"> ptr</text>
</g>
<!-- Node8 -->
<g id="node8" class="node">
<title>Node8</title>
<g id="a_node8"><a xlink:title=" ">
<polygon fill="none" stroke="black" points="310,-59.5 310,-78.5 370,-78.5 370,-59.5 310,-59.5"/>
<text text-anchor="middle" x="340" y="-66.5" font-family="Helvetica,sans-Serif" font-size="10.00">std::string</text>
</a>
</g>
</g>
<!-- Node8&#45;&gt;Node2 -->
<g id="edge7" class="edge">
<title>Node8&#45;&gt;Node2</title>
<path fill="none" stroke="#9a32cd" stroke-dasharray="5,2" d="M380.27,-70.24C411.63,-71.42 456.69,-73.53 496,-77 501.83,-77.51 507.86,-78.12 513.92,-78.77"/>
<polygon fill="#9a32cd" stroke="#9a32cd" points="380.3,-66.74 370.18,-69.87 380.05,-73.73 380.3,-66.74"/>
<text text-anchor="middle" x="465" y="-80" font-family="Helvetica,sans-Serif" font-size="10.00"> text</text>
</g>
<!-- Node9 -->
<g id="node9" class="node">
<title>Node9</title>
<g id="a_node9"><a xlink:title=" ">
<polygon fill="none" stroke="black" points="26.5,-54 26.5,-84 121.5,-84 121.5,-54 26.5,-54"/>
<text text-anchor="start" x="34.5" y="-72" font-family="Helvetica,sans-Serif" font-size="10.00">std::basic_string&lt;</text>
<text text-anchor="middle" x="74" y="-61" font-family="Helvetica,sans-Serif" font-size="10.00"> Char &gt;</text>
</a>
</g>
</g>
<!-- Node9&#45;&gt;Node8 -->
<g id="edge8" class="edge">
<title>Node9&#45;&gt;Node8</title>
<path fill="none" stroke="midnightblue" d="M131.81,-69C186.43,-69 266.82,-69 309.64,-69"/>
<polygon fill="midnightblue" stroke="midnightblue" points="131.59,-65.5 121.59,-69 131.59,-72.5 131.59,-65.5"/>
</g>
<!-- Node10 -->
<g id="node10" class="node">
<title>Node10</title>
<g id="a_node10"><a xlink:href="classbWidgets_1_1bwWidgetBaseStyle.html" target="_top" xlink:title="Properties for typical widgets with roundbox corners.">
<polygon fill="none" stroke="black" points="264,-11.5 264,-30.5 416,-30.5 416,-11.5 264,-11.5"/>
<text text-anchor="middle" x="340" y="-18.5" font-family="Helvetica,sans-Serif" font-size="10.00">bWidgets::bwWidgetBaseStyle</text>
</a>
</g>
</g>
<!-- Node10&#45;&gt;Node2 -->
<g id="edge9" class="edge">
<title>Node10&#45;&gt;Node2</title>
<path fill="none" stroke="#9a32cd" stroke-dasharray="5,2" d="M398.25,-32.71C427.67,-39.13 463.97,-47.67 496,-57 517.62,-63.3 541.7,-71.9 559.2,-78.44"/>
<polygon fill="#9a32cd" stroke="#9a32cd" points="398.66,-29.22 388.15,-30.53 397.19,-36.06 398.66,-29.22"/>
<text text-anchor="middle" x="465" y="-60" font-family="Helvetica,sans-Serif" font-size="10.00"> base_style</text>
</g>
<!-- Node11 -->
<g id="node11" class="node">
<title>Node11</title>
<g id="a_node11"><a xlink:href="classbWidgets_1_1bwColor.html" target="_top" xlink:title=" ">
<polygon fill="none" stroke="black" points="24,-0.5 24,-19.5 124,-19.5 124,-0.5 24,-0.5"/>
<text text-anchor="middle" x="74" y="-7.5" font-family="Helvetica,sans-Serif" font-size="10.00">bWidgets::bwColor</text>
</a>
</g>
</g>
<!-- Node11&#45;&gt;Node10 -->
<g id="edge10" class="edge">
<title>Node11&#45;&gt;Node10</title>
<path fill="none" stroke="#9a32cd" stroke-dasharray="5,2" d="M134.5,-12.48C172.74,-14.07 222.76,-16.16 263.75,-17.86"/>
<polygon fill="#9a32cd" stroke="#9a32cd" points="134.17,-8.96 124.04,-12.04 133.88,-15.96 134.17,-8.96"/>
<text text-anchor="middle" x="206" y="-53" font-family="Helvetica,sans-Serif" font-size="10.00"> background_color</text>
<text text-anchor="middle" x="206" y="-42" font-family="Helvetica,sans-Serif" font-size="10.00">border_color</text>
<text text-anchor="middle" x="206" y="-31" font-family="Helvetica,sans-Serif" font-size="10.00">decoration_color</text>
<text text-anchor="middle" x="206" y="-20" font-family="Helvetica,sans-Serif" font-size="10.00">text_color</text>
</g>
</g>
</svg>
