<?xml version="1.0" encoding="UTF-8" standalone="no"?>
<!DOCTYPE svg PUBLIC "-//W3C//DTD SVG 1.1//EN"
 "http://www.w3.org/Graphics/SVG/1.1/DTD/svg11.dtd">
<!-- Generated by graphviz version 2.50.0 (20211204.2007)
 -->
<!-- Title: bWidgets::bwScrollBar Pages: 1 -->
<svg width="801pt" height="181pt"
 viewBox="0.00 0.00 801.00 180.50" xmlns="http://www.w3.org/2000/svg" xmlns:xlink="http://www.w3.org/1999/xlink">
<g id="graph0" class="graph" transform="scale(1 1) rotate(0) translate(4 176.5)">
<title>bWidgets::bwScrollBar</title>
<!-- Node1 -->
<g id="node1" class="node">
<title>Node1</title>
<g id="a_node1"><a xlink:title=" ">
<polygon fill="#bfbfbf" stroke="black" points="677,-59.5 677,-78.5 793,-78.5 793,-59.5 677,-59.5"/>
<text text-anchor="middle" x="735" y="-66.5" font-family="Helvetica,sans-Serif" font-size="10.00">bWidgets::bwScrollBar</text>
</a>
</g>
</g>
<!-- Node2 -->
<g id="node2" class="node">
<title>Node2</title>
<g id="a_node2"><a xlink:href="classbWidgets_1_1bwAbstractButton.html" target="_top" xlink:title="Base class for button like widgets.">
<polygon fill="none" stroke="black" points="498,-59.5 498,-78.5 640,-78.5 640,-59.5 498,-59.5"/>
<text text-anchor="middle" x="569" y="-66.5" font-family="Helvetica,sans-Serif" font-size="10.00">bWidgets::bwAbstractButton</text>
</a>
</g>
</g>
<!-- Node2&#45;&gt;Node1 -->
<g id="edge1" class="edge">
<title>Node2&#45;&gt;Node1</title>
<path fill="none" stroke="midnightblue" d="M650.16,-69C659.16,-69 668.19,-69 676.82,-69"/>
<polygon fill="midnightblue" stroke="midnightblue" points="650.03,-65.5 640.03,-69 650.03,-72.5 650.03,-65.5"/>
</g>
<!-- Node3 -->
<g id="node3" class="node">
<title>Node3</title>
<g id="a_node3"><a xlink:href="classbWidgets_1_1bwWidget.html" target="_top" xlink:title="Abstract base class that all widgets derive from.">
<polygon fill="none" stroke="black" points="281.5,-103.5 281.5,-122.5 388.5,-122.5 388.5,-103.5 281.5,-103.5"/>
<text text-anchor="middle" x="335" y="-110.5" font-family="Helvetica,sans-Serif" font-size="10.00">bWidgets::bwWidget</text>
</a>
</g>
</g>
<!-- Node3&#45;&gt;Node2 -->
<g id="edge2" class="edge">
<title>Node3&#45;&gt;Node2</title>
<path fill="none" stroke="midnightblue" d="M396.2,-101.58C433.95,-94.42 482.06,-85.3 517.76,-78.53"/>
<polygon fill="midnightblue" stroke="midnightblue" points="395.51,-98.15 386.34,-103.45 396.82,-105.03 395.51,-98.15"/>
</g>
<!-- Node4 -->
<g id="node4" class="node">
<title>Node4</title>
<g id="a_node4"><a xlink:href="classbWidgets_1_1bwRectangle.html" target="_top" xlink:title=" ">
<polygon fill="none" stroke="black" points="11,-142 11,-172 132,-172 132,-142 11,-142"/>
<text text-anchor="start" x="19" y="-160" font-family="Helvetica,sans-Serif" font-size="10.00">bWidgets::bwRectangle</text>
<text text-anchor="middle" x="71.5" y="-149" font-family="Helvetica,sans-Serif" font-size="10.00">&lt; int &gt;</text>
</a>
</g>
</g>
<!-- Node4&#45;&gt;Node3 -->
<g id="edge3" class="edge">
<title>Node4&#45;&gt;Node3</title>
<path fill="none" stroke="#9a32cd" stroke-dasharray="5,2" d="M142.14,-145.28C185.81,-137.93 241.21,-128.61 281.24,-121.88"/>
<polygon fill="#9a32cd" stroke="#9a32cd" points="141.45,-141.85 132.17,-146.96 142.61,-148.75 141.45,-141.85"/>
<text text-anchor="middle" x="201" y="-144" font-family="Helvetica,sans-Serif" font-size="10.00"> rectangle</text>
</g>
<!-- Node5 -->
<g id="node5" class="node">
<title>Node5</title>
<g id="a_node5"><a xlink:href="classbWidgets_1_1bwStyleProperties.html" target="_top" xlink:title="Manage a list of properties (bwStyleProperty instances).">
<polygon fill="none" stroke="black" points="0,-103.5 0,-122.5 143,-122.5 143,-103.5 0,-103.5"/>
<text text-anchor="middle" x="71.5" y="-110.5" font-family="Helvetica,sans-Serif" font-size="10.00">bWidgets::bwStyleProperties</text>
</a>
</g>
</g>
<!-- Node5&#45;&gt;Node3 -->
<g id="edge4" class="edge">
<title>Node5&#45;&gt;Node3</title>
<path fill="none" stroke="#9a32cd" stroke-dasharray="5,2" d="M153.41,-113C195.1,-113 244.76,-113 281.44,-113"/>
<polygon fill="#9a32cd" stroke="#9a32cd" points="153.27,-109.5 143.27,-113 153.27,-116.5 153.27,-109.5"/>
<text text-anchor="middle" x="201" y="-116" font-family="Helvetica,sans-Serif" font-size="10.00"> style_properties</text>
</g>
<!-- Node6 -->
<g id="node6" class="node">
<title>Node6</title>
<g id="a_node6"><a xlink:title=" ">
<polygon fill="none" stroke="#bfbfbf" points="305,-59.5 305,-78.5 365,-78.5 365,-59.5 305,-59.5"/>
<text text-anchor="middle" x="335" y="-66.5" font-family="Helvetica,sans-Serif" font-size="10.00">std::string</text>
</a>
</g>
</g>
<!-- Node6&#45;&gt;Node2 -->
<g id="edge5" class="edge">
<title>Node6&#45;&gt;Node2</title>
<path fill="none" stroke="#9a32cd" stroke-dasharray="5,2" d="M375.66,-69C409.03,-69 457.58,-69 497.55,-69"/>
<polygon fill="#9a32cd" stroke="#9a32cd" points="375.38,-65.5 365.38,-69 375.38,-72.5 375.38,-65.5"/>
<text text-anchor="middle" x="454.5" y="-72" font-family="Helvetica,sans-Serif" font-size="10.00"> text</text>
</g>
<!-- Node7 -->
<g id="node7" class="node">
<title>Node7</title>
<g id="a_node7"><a xlink:title=" ">
<polygon fill="none" stroke="#bfbfbf" points="24,-54 24,-84 119,-84 119,-54 24,-54"/>
<text text-anchor="start" x="32" y="-72" font-family="Helvetica,sans-Serif" font-size="10.00">std::basic_string&lt;</text>
<text text-anchor="middle" x="71.5" y="-61" font-family="Helvetica,sans-Serif" font-size="10.00"> Char &gt;</text>
</a>
</g>
</g>
<!-- Node7&#45;&gt;Node6 -->
<g id="edge6" class="edge">
<title>Node7&#45;&gt;Node6</title>
<path fill="none" stroke="midnightblue" d="M129.36,-69C183.36,-69 262.38,-69 304.69,-69"/>
<polygon fill="midnightblue" stroke="midnightblue" points="129.25,-65.5 119.25,-69 129.25,-72.5 129.25,-65.5"/>
</g>
<!-- Node8 -->
<g id="node8" class="node">
<title>Node8</title>
<g id="a_node8"><a xlink:href="classbWidgets_1_1bwWidgetBaseStyle.html" target="_top" xlink:title="Properties for typical widgets with roundbox corners.">
<polygon fill="none" stroke="black" points="259,-11.5 259,-30.5 411,-30.5 411,-11.5 259,-11.5"/>
<text text-anchor="middle" x="335" y="-18.5" font-family="Helvetica,sans-Serif" font-size="10.00">bWidgets::bwWidgetBaseStyle</text>
</a>
</g>
</g>
<!-- Node8&#45;&gt;Node2 -->
<g id="edge7" class="edge">
<title>Node8&#45;&gt;Node2</title>
<path fill="none" stroke="#9a32cd" stroke-dasharray="5,2" d="M391.94,-32.57C431.75,-40.81 484.6,-51.74 521.97,-59.48"/>
<polygon fill="#9a32cd" stroke="#9a32cd" points="392.61,-29.14 382.11,-30.54 391.2,-35.99 392.61,-29.14"/>
<text text-anchor="middle" x="454.5" y="-54" font-family="Helvetica,sans-Serif" font-size="10.00"> base_style</text>
</g>
<!-- Node9 -->
<g id="node9" class="node">
<title>Node9</title>
<g id="a_node9"><a xlink:href="classbWidgets_1_1bwColor.html" target="_top" xlink:title=" ">
<polygon fill="none" stroke="black" points="21.5,-0.5 21.5,-19.5 121.5,-19.5 121.5,-0.5 21.5,-0.5"/>
<text text-anchor="middle" x="71.5" y="-7.5" font-family="Helvetica,sans-Serif" font-size="10.00">bWidgets::bwColor</text>
</a>
</g>
</g>
<!-- Node9&#45;&gt;Node8 -->
<g id="edge8" class="edge">
<title>Node9&#45;&gt;Node8</title>
<path fill="none" stroke="#9a32cd" stroke-dasharray="5,2" d="M131.98,-12.5C169.58,-14.08 218.51,-16.14 258.79,-17.84"/>
<polygon fill="#9a32cd" stroke="#9a32cd" points="131.82,-8.99 121.69,-12.07 131.53,-15.99 131.82,-8.99"/>
<text text-anchor="middle" x="201" y="-53" font-family="Helvetica,sans-Serif" font-size="10.00"> background_color</text>
<text text-anchor="middle" x="201" y="-42" font-family="Helvetica,sans-Serif" font-size="10.00">border_color</text>
<text text-anchor="middle" x="201" y="-31" font-family="Helvetica,sans-Serif" font-size="10.00">decoration_color</text>
<text text-anchor="middle" x="201" y="-20" font-family="Helvetica,sans-Serif" font-size="10.00">text_color</text>
</g>
</g>
</svg>
