<?xml version="1.0" encoding="UTF-8" standalone="no"?>
<!DOCTYPE svg PUBLIC "-//W3C//DTD SVG 1.1//EN"
 "http://www.w3.org/Graphics/SVG/1.1/DTD/svg11.dtd">
<!-- Generated by graphviz version 2.50.0 (20211204.2007)
 -->
<!-- Title: bWidgets::bwTextBox Pages: 1 -->
<svg width="619pt" height="188pt"
 viewBox="0.00 0.00 619.00 187.50" xmlns="http://www.w3.org/2000/svg" xmlns:xlink="http://www.w3.org/1999/xlink">
<g id="graph0" class="graph" transform="scale(1 1) rotate(0) translate(4 183.5)">
<title>bWidgets::bwTextBox</title>
<!-- Node1 -->
<g id="node1" class="node">
<title>Node1</title>
<g id="a_node1"><a xlink:title=" ">
<polygon fill="#bfbfbf" stroke="black" points="498,-83.5 498,-102.5 611,-102.5 611,-83.5 498,-83.5"/>
<text text-anchor="middle" x="554.5" y="-90.5" font-family="Helvetica,sans-Serif" font-size="10.00">bWidgets::bwTextBox</text>
</a>
</g>
</g>
<!-- Node2 -->
<g id="node2" class="node">
<title>Node2</title>
<g id="a_node2"><a xlink:href="classbWidgets_1_1bwWidget.html" target="_top" xlink:title="Abstract base class that all widgets derive from.">
<polygon fill="none" stroke="black" points="281.5,-101.5 281.5,-120.5 388.5,-120.5 388.5,-101.5 281.5,-101.5"/>
<text text-anchor="middle" x="335" y="-108.5" font-family="Helvetica,sans-Serif" font-size="10.00">bWidgets::bwWidget</text>
</a>
</g>
</g>
<!-- Node2&#45;&gt;Node1 -->
<g id="edge1" class="edge">
<title>Node2&#45;&gt;Node1</title>
<path fill="none" stroke="midnightblue" d="M399,-105.79C430.27,-103.2 467.72,-100.1 497.92,-97.6"/>
<polygon fill="midnightblue" stroke="midnightblue" points="398.33,-102.33 388.65,-106.64 398.91,-109.31 398.33,-102.33"/>
</g>
<!-- Node3 -->
<g id="node3" class="node">
<title>Node3</title>
<g id="a_node3"><a xlink:href="classbWidgets_1_1bwRectangle.html" target="_top" xlink:title=" ">
<polygon fill="none" stroke="black" points="11,-149 11,-179 132,-179 132,-149 11,-149"/>
<text text-anchor="start" x="19" y="-167" font-family="Helvetica,sans-Serif" font-size="10.00">bWidgets::bwRectangle</text>
<text text-anchor="middle" x="71.5" y="-156" font-family="Helvetica,sans-Serif" font-size="10.00">&lt; int &gt;</text>
</a>
</g>
</g>
<!-- Node3&#45;&gt;Node1 -->
<g id="edge4" class="edge">
<title>Node3&#45;&gt;Node1</title>
<path fill="none" stroke="#9a32cd" stroke-dasharray="5,2" d="M142.35,-162.91C172.72,-161.97 208.67,-160.23 241,-157 348.32,-146.29 375.57,-141.94 480,-115 494.45,-111.27 510.32,-106.6 523.61,-102.51"/>
<polygon fill="#9a32cd" stroke="#9a32cd" points="142.17,-159.42 132.28,-163.2 142.37,-166.41 142.17,-159.42"/>
<text text-anchor="middle" x="335" y="-157" font-family="Helvetica,sans-Serif" font-size="10.00"> selection_rectangle</text>
</g>
<!-- Node3&#45;&gt;Node2 -->
<g id="edge2" class="edge">
<title>Node3&#45;&gt;Node2</title>
<path fill="none" stroke="#9a32cd" stroke-dasharray="5,2" d="M142.05,-149.85C148.46,-148.55 154.85,-147.25 161,-146 203.49,-137.38 251.87,-127.6 286.64,-120.57"/>
<polygon fill="#9a32cd" stroke="#9a32cd" points="141.11,-146.47 132,-151.89 142.5,-153.33 141.11,-146.47"/>
<text text-anchor="middle" x="201" y="-149" font-family="Helvetica,sans-Serif" font-size="10.00"> rectangle</text>
</g>
<!-- Node4 -->
<g id="node4" class="node">
<title>Node4</title>
<g id="a_node4"><a xlink:href="classbWidgets_1_1bwStyleProperties.html" target="_top" xlink:title="Manage a list of properties (bwStyleProperty instances).">
<polygon fill="none" stroke="black" points="0,-102.5 0,-121.5 143,-121.5 143,-102.5 0,-102.5"/>
<text text-anchor="middle" x="71.5" y="-109.5" font-family="Helvetica,sans-Serif" font-size="10.00">bWidgets::bwStyleProperties</text>
</a>
</g>
</g>
<!-- Node4&#45;&gt;Node2 -->
<g id="edge3" class="edge">
<title>Node4&#45;&gt;Node2</title>
<path fill="none" stroke="#9a32cd" stroke-dasharray="5,2" d="M153.41,-111.69C195.1,-111.53 244.76,-111.34 281.44,-111.2"/>
<polygon fill="#9a32cd" stroke="#9a32cd" points="153.25,-108.19 143.27,-111.73 153.28,-115.19 153.25,-108.19"/>
<text text-anchor="middle" x="201" y="-114" font-family="Helvetica,sans-Serif" font-size="10.00"> style_properties</text>
</g>
<!-- Node5 -->
<g id="node5" class="node">
<title>Node5</title>
<g id="a_node5"><a xlink:title=" ">
<polygon fill="none" stroke="#bfbfbf" points="305,-60.5 305,-79.5 365,-79.5 365,-60.5 305,-60.5"/>
<text text-anchor="middle" x="335" y="-67.5" font-family="Helvetica,sans-Serif" font-size="10.00">std::string</text>
</a>
</g>
</g>
<!-- Node5&#45;&gt;Node1 -->
<g id="edge5" class="edge">
<title>Node5&#45;&gt;Node1</title>
<path fill="none" stroke="#9a32cd" stroke-dasharray="5,2" d="M375.38,-73.56C404.34,-76.25 444.64,-80.12 480,-84 485.75,-84.63 491.75,-85.32 497.73,-86.02"/>
<polygon fill="#9a32cd" stroke="#9a32cd" points="375.54,-70.06 365.26,-72.63 374.89,-77.03 375.54,-70.06"/>
<text text-anchor="middle" x="454.5" y="-87" font-family="Helvetica,sans-Serif" font-size="10.00"> text</text>
</g>
<!-- Node6 -->
<g id="node6" class="node">
<title>Node6</title>
<g id="a_node6"><a xlink:title=" ">
<polygon fill="none" stroke="#bfbfbf" points="24,-53 24,-83 119,-83 119,-53 24,-53"/>
<text text-anchor="start" x="32" y="-71" font-family="Helvetica,sans-Serif" font-size="10.00">std::basic_string&lt;</text>
<text text-anchor="middle" x="71.5" y="-60" font-family="Helvetica,sans-Serif" font-size="10.00"> Char &gt;</text>
</a>
</g>
</g>
<!-- Node6&#45;&gt;Node5 -->
<g id="edge6" class="edge">
<title>Node6&#45;&gt;Node5</title>
<path fill="none" stroke="midnightblue" d="M129.36,-68.43C183.36,-68.85 262.38,-69.45 304.69,-69.78"/>
<polygon fill="midnightblue" stroke="midnightblue" points="129.28,-64.93 119.25,-68.36 129.22,-71.93 129.28,-64.93"/>
</g>
<!-- Node7 -->
<g id="node7" class="node">
<title>Node7</title>
<g id="a_node7"><a xlink:href="classbWidgets_1_1bwWidgetBaseStyle.html" target="_top" xlink:title="Properties for typical widgets with roundbox corners.">
<polygon fill="none" stroke="black" points="259,-12.5 259,-31.5 411,-31.5 411,-12.5 259,-12.5"/>
<text text-anchor="middle" x="335" y="-19.5" font-family="Helvetica,sans-Serif" font-size="10.00">bWidgets::bwWidgetBaseStyle</text>
</a>
</g>
</g>
<!-- Node7&#45;&gt;Node1 -->
<g id="edge7" class="edge">
<title>Node7&#45;&gt;Node1</title>
<path fill="none" stroke="#9a32cd" stroke-dasharray="5,2" d="M381.77,-34.19C410.24,-42.06 447.49,-52.87 480,-64 497.26,-69.91 516.43,-77.51 530.86,-83.44"/>
<polygon fill="#9a32cd" stroke="#9a32cd" points="382.66,-30.8 372.09,-31.53 380.81,-37.56 382.66,-30.8"/>
<text text-anchor="middle" x="454.5" y="-67" font-family="Helvetica,sans-Serif" font-size="10.00"> base_style</text>
</g>
<!-- Node8 -->
<g id="node8" class="node">
<title>Node8</title>
<g id="a_node8"><a xlink:href="classbWidgets_1_1bwColor.html" target="_top" xlink:title=" ">
<polygon fill="none" stroke="black" points="21.5,-0.5 21.5,-19.5 121.5,-19.5 121.5,-0.5 21.5,-0.5"/>
<text text-anchor="middle" x="71.5" y="-7.5" font-family="Helvetica,sans-Serif" font-size="10.00">bWidgets::bwColor</text>
</a>
</g>
</g>
<!-- Node8&#45;&gt;Node7 -->
<g id="edge8" class="edge">
<title>Node8&#45;&gt;Node7</title>
<path fill="none" stroke="#9a32cd" stroke-dasharray="5,2" d="M131.98,-12.73C169.58,-14.45 218.51,-16.7 258.79,-18.55"/>
<polygon fill="#9a32cd" stroke="#9a32cd" points="131.84,-9.22 121.69,-12.26 131.52,-16.21 131.84,-9.22"/>
<text text-anchor="middle" x="201" y="-54" font-family="Helvetica,sans-Serif" font-size="10.00"> background_color</text>
<text text-anchor="middle" x="201" y="-43" font-family="Helvetica,sans-Serif" font-size="10.00">border_color</text>
<text text-anchor="middle" x="201" y="-32" font-family="Helvetica,sans-Serif" font-size="10.00">decoration_color</text>
<text text-anchor="middle" x="201" y="-21" font-family="Helvetica,sans-Serif" font-size="10.00">text_color</text>
</g>
</g>
</svg>
