<?xml version="1.0" encoding="UTF-8" standalone="no"?>
<!DOCTYPE svg PUBLIC "-//W3C//DTD SVG 1.1//EN"
 "http://www.w3.org/Graphics/SVG/1.1/DTD/svg11.dtd">
<!-- Generated by graphviz version 2.50.0 (20211204.2007)
 -->
<!-- Title: bWidgets::bwMouseButtonDragEvent Pages: 1 -->
<svg width="241pt" height="230pt"
 viewBox="0.00 0.00 240.50 230.00" xmlns="http://www.w3.org/2000/svg" xmlns:xlink="http://www.w3.org/1999/xlink">
<g id="graph0" class="graph" transform="scale(1 1) rotate(0) translate(4 226)">
<title>bWidgets::bwMouseButtonDragEvent</title>
<!-- Node1 -->
<g id="node1" class="node">
<title>Node1</title>
<g id="a_node1"><a xlink:title=" ">
<polygon fill="#bfbfbf" stroke="black" points="0,-0.5 0,-30.5 155,-30.5 155,-0.5 0,-0.5"/>
<text text-anchor="start" x="8" y="-18.5" font-family="Helvetica,sans-Serif" font-size="10.00">bWidgets::bwMouseButtonDrag</text>
<text text-anchor="middle" x="77.5" y="-7.5" font-family="Helvetica,sans-Serif" font-size="10.00">Event</text>
</a>
</g>
</g>
<!-- Node2 -->
<g id="node2" class="node">
<title>Node2</title>
<g id="a_node2"><a xlink:href="classbWidgets_1_1bwMouseButtonEvent.html" target="_top" xlink:title=" ">
<polygon fill="none" stroke="black" points="72.5,-68.5 72.5,-87.5 232.5,-87.5 232.5,-68.5 72.5,-68.5"/>
<text text-anchor="middle" x="152.5" y="-75.5" font-family="Helvetica,sans-Serif" font-size="10.00">bWidgets::bwMouseButtonEvent</text>
</a>
</g>
</g>
<!-- Node2&#45;&gt;Node1 -->
<g id="edge1" class="edge">
<title>Node2&#45;&gt;Node1</title>
<path fill="none" stroke="midnightblue" d="M133.78,-61.9C121.86,-52.29 106.54,-39.92 94.89,-30.53"/>
<polygon fill="midnightblue" stroke="midnightblue" points="131.77,-64.78 141.75,-68.33 136.17,-59.33 131.77,-64.78"/>
</g>
<!-- Node3 -->
<g id="node3" class="node">
<title>Node3</title>
<g id="a_node3"><a xlink:href="classbWidgets_1_1bwEvent.html" target="_top" xlink:title=" ">
<polygon fill="none" stroke="black" points="86.5,-135.5 86.5,-154.5 188.5,-154.5 188.5,-135.5 86.5,-135.5"/>
<text text-anchor="middle" x="137.5" y="-142.5" font-family="Helvetica,sans-Serif" font-size="10.00">bWidgets::bwEvent</text>
</a>
</g>
</g>
<!-- Node3&#45;&gt;Node2 -->
<g id="edge2" class="edge">
<title>Node3&#45;&gt;Node2</title>
<path fill="none" stroke="midnightblue" d="M141.79,-125.41C144.66,-112.99 148.3,-97.22 150.51,-87.63"/>
<polygon fill="midnightblue" stroke="midnightblue" points="138.36,-124.7 139.52,-135.23 145.18,-126.28 138.36,-124.7"/>
</g>
<!-- Node4 -->
<g id="node4" class="node">
<title>Node4</title>
<g id="a_node4"><a xlink:href="classbWidgets_1_1bwPoint.html" target="_top" xlink:title=" ">
<polygon fill="none" stroke="black" points="11,-202.5 11,-221.5 110,-221.5 110,-202.5 11,-202.5"/>
<text text-anchor="middle" x="60.5" y="-209.5" font-family="Helvetica,sans-Serif" font-size="10.00">bWidgets::bwPoint</text>
</a>
</g>
</g>
<!-- Node4&#45;&gt;Node1 -->
<g id="edge4" class="edge">
<title>Node4&#45;&gt;Node1</title>
<path fill="none" stroke="#9a32cd" stroke-dasharray="5,2" d="M59.44,-192.08C58.22,-164.6 57.14,-112.09 63.5,-68 65.35,-55.16 69.36,-40.96 72.62,-30.73"/>
<polygon fill="#9a32cd" stroke="#9a32cd" points="55.95,-192.42 59.94,-202.23 62.94,-192.07 55.95,-192.42"/>
<text text-anchor="middle" x="91.5" y="-109" font-family="Helvetica,sans-Serif" font-size="10.00"> drag_distance</text>
</g>
<!-- Node4&#45;&gt;Node3 -->
<g id="edge3" class="edge">
<title>Node4&#45;&gt;Node3</title>
<path fill="none" stroke="#9a32cd" stroke-dasharray="5,2" d="M78.61,-195.71C93.78,-182.91 114.89,-165.09 127.28,-154.63"/>
<polygon fill="#9a32cd" stroke="#9a32cd" points="76.27,-193.11 70.88,-202.23 80.78,-198.46 76.27,-193.11"/>
<text text-anchor="middle" x="122" y="-176" font-family="Helvetica,sans-Serif" font-size="10.00"> location</text>
</g>
</g>
</svg>
