<?xml version="1.0" encoding="UTF-8" standalone="no"?>
<!DOCTYPE svg PUBLIC "-//W3C//DTD SVG 1.1//EN"
 "http://www.w3.org/Graphics/SVG/1.1/DTD/svg11.dtd">
<!-- Generated by graphviz version 2.50.0 (20211204.2007)
 -->
<!-- Title: bwidgets/styling Pages: 1 -->
<svg width="194pt" height="247pt"
 viewBox="0.00 0.00 194.00 247.00" xmlns="http://www.w3.org/2000/svg" xmlns:xlink="http://www.w3.org/1999/xlink">
<g id="graph0" class="graph" transform="scale(1 1) rotate(0) translate(4 243)">
<title>bwidgets/styling</title>
<g id="clust1" class="cluster">
<title>clusterdir_ded1247510d9a1de4ec537edd42ee7cf</title>
<g id="a_clust1"><a xlink:href="dir_ded1247510d9a1de4ec537edd42ee7cf.html" target="_top" xlink:title="bwidgets">
<polygon fill="#daedff" stroke="#404040" stroke-dasharray="5,2" points="8,-8 8,-231 178,-231 178,-8 8,-8"/>
<text text-anchor="middle" x="93" y="-219" font-family="Helvetica,sans-Serif" font-size="10.00">bwidgets</text>
</a>
</g>
</g>
<g id="clust2" class="cluster">
<title>clusterdir_d38fa62a5d8cb4a91368138adfdfdb50</title>
<g id="a_clust2"><a xlink:href="dir_d38fa62a5d8cb4a91368138adfdfdb50.html" target="_top">
<polygon fill="#daedff" stroke="#404040" stroke-width="2" points="16,-80 16,-204 86,-204 86,-80 16,-80"/>
</a>
</g>
</g>
<!-- dir_30e3ca69d9b6d83affca46774b7933e1 -->
<g id="node1" class="node">
<title>dir_30e3ca69d9b6d83affca46774b7933e1</title>
<g id="a_node1"><a xlink:href="dir_30e3ca69d9b6d83affca46774b7933e1.html" target="_top" xlink:title="widgets">
<polygon fill="#4ea9ff" stroke="#404040" points="101,-52 47,-52 47,-16 101,-16 101,-52"/>
<text text-anchor="middle" x="74" y="-31.5" font-family="Helvetica,sans-Serif" font-size="10.00">widgets</text>
</a>
</g>
</g>
<!-- dir_d63c6c094c407be2d51968fb589c5e5a -->
<g id="node2" class="node">
<title>dir_d63c6c094c407be2d51968fb589c5e5a</title>
<g id="a_node2"><a xlink:href="dir_d63c6c094c407be2d51968fb589c5e5a.html" target="_top" xlink:title="generics">
<polygon fill="#4ea9ff" stroke="#404040" points="170,-124 116,-124 116,-88 170,-88 170,-124"/>
<text text-anchor="middle" x="143" y="-103.5" font-family="Helvetica,sans-Serif" font-size="10.00">generics</text>
</a>
</g>
</g>
<!-- dir_d38fa62a5d8cb4a91368138adfdfdb50 -->
<g id="node3" class="node">
<title>dir_d38fa62a5d8cb4a91368138adfdfdb50</title>
<text text-anchor="middle" x="51" y="-175.5" font-family="Helvetica,sans-Serif" font-size="10.00">styling</text>
</g>
<!-- dir_d38fa62a5d8cb4a91368138adfdfdb50&#45;&gt;dir_30e3ca69d9b6d83affca46774b7933e1 -->
<g id="edge1" class="edge">
<title>dir_d38fa62a5d8cb4a91368138adfdfdb50&#45;&gt;dir_30e3ca69d9b6d83affca46774b7933e1</title>
<path fill="none" stroke="black" d="M66.61,-159.77C74.37,-150.03 82.95,-137.18 87,-124 93.28,-103.57 89.13,-79.54 83.9,-61.6"/>
<polygon fill="black" stroke="black" points="87.24,-60.53 80.86,-52.07 80.57,-62.66 87.24,-60.53"/>
<g id="a_edge1&#45;headlabel"><a xlink:href="dir_000006_000008.html" target="_top" xlink:title="4">
<text text-anchor="middle" x="91.03" y="-60.59" font-family="Helvetica,sans-Serif" font-size="10.00">4</text>
</a>
</g>
</g>
<!-- dir_d38fa62a5d8cb4a91368138adfdfdb50&#45;&gt;dir_d63c6c094c407be2d51968fb589c5e5a -->
<g id="edge3" class="edge">
<title>dir_d38fa62a5d8cb4a91368138adfdfdb50&#45;&gt;dir_d63c6c094c407be2d51968fb589c5e5a</title>
<path fill="none" stroke="black" d="M73.74,-159.7C85.44,-150.8 99.86,-139.82 112.51,-130.2"/>
<polygon fill="black" stroke="black" points="114.68,-132.94 120.52,-124.1 110.44,-127.37 114.68,-132.94"/>
<g id="a_edge3&#45;headlabel"><a xlink:href="dir_000006_000003.html" target="_top" xlink:title="2">
<text text-anchor="middle" x="113.54" y="-134.88" font-family="Helvetica,sans-Serif" font-size="10.00">2</text>
</a>
</g>
</g>
<!-- dir_43111f914e34fe962d2a5b52f79dbc41 -->
<g id="node4" class="node">
<title>dir_43111f914e34fe962d2a5b52f79dbc41</title>
<g id="a_node4"><a xlink:href="dir_43111f914e34fe962d2a5b52f79dbc41.html" target="_top" xlink:title="styles">
<polygon fill="#4ea9ff" stroke="#404040" points="78,-124 24,-124 24,-88 78,-88 78,-124"/>
<text text-anchor="middle" x="51" y="-103.5" font-family="Helvetica,sans-Serif" font-size="10.00">styles</text>
</a>
</g>
</g>
<!-- dir_d38fa62a5d8cb4a91368138adfdfdb50&#45;&gt;dir_43111f914e34fe962d2a5b52f79dbc41 -->
<g id="edge2" class="edge">
<title>dir_d38fa62a5d8cb4a91368138adfdfdb50&#45;&gt;dir_43111f914e34fe962d2a5b52f79dbc41</title>
<path fill="none" stroke="black" d="M51,-159.7C51,-151.98 51,-142.71 51,-134.11"/>
<polygon fill="black" stroke="black" points="54.5,-134.1 51,-124.1 47.5,-134.1 54.5,-134.1"/>
<g id="a_edge2&#45;headlabel"><a xlink:href="dir_000006_000005.html" target="_top" xlink:title="4">
<text text-anchor="middle" x="57.34" y="-135.2" font-family="Helvetica,sans-Serif" font-size="10.00">4</text>
</a>
</g>
</g>
<!-- dir_43111f914e34fe962d2a5b52f79dbc41&#45;&gt;dir_30e3ca69d9b6d83affca46774b7933e1 -->
<g id="edge4" class="edge">
<title>dir_43111f914e34fe962d2a5b52f79dbc41&#45;&gt;dir_30e3ca69d9b6d83affca46774b7933e1</title>
<path fill="none" stroke="black" d="M56.69,-87.7C59.25,-79.9 62.33,-70.51 65.18,-61.83"/>
<polygon fill="black" stroke="black" points="68.58,-62.7 68.38,-52.1 61.93,-60.51 68.58,-62.7"/>
<g id="a_edge4&#45;headlabel"><a xlink:href="dir_000005_000008.html" target="_top" xlink:title="2">
<text text-anchor="middle" x="70.16" y="-64.5" font-family="Helvetica,sans-Serif" font-size="10.00">2</text>
</a>
</g>
</g>
</g>
</svg>
