<?xml version="1.0" encoding="UTF-8" standalone="no"?>
<!DOCTYPE svg PUBLIC "-//W3C//DTD SVG 1.1//EN"
 "http://www.w3.org/Graphics/SVG/1.1/DTD/svg11.dtd">
<!-- Generated by graphviz version 2.50.0 (20211204.2007)
 -->
<!-- Title: bwidgets/widgets Pages: 1 -->
<svg width="206pt" height="311pt"
 viewBox="0.00 0.00 206.00 311.00" xmlns="http://www.w3.org/2000/svg" xmlns:xlink="http://www.w3.org/1999/xlink">
<g id="graph0" class="graph" transform="scale(1 1) rotate(0) translate(4 307)">
<title>bwidgets/widgets</title>
<g id="clust1" class="cluster">
<title>clusterdir_ded1247510d9a1de4ec537edd42ee7cf</title>
<g id="a_clust1"><a xlink:href="dir_ded1247510d9a1de4ec537edd42ee7cf.html" target="_top" xlink:title="bwidgets">
<polygon fill="#ddddee" stroke="black" points="8,-8 8,-295 190,-295 190,-8 8,-8"/>
<text text-anchor="middle" x="99" y="-283" font-family="Helvetica,sans-Serif" font-size="10.00">bwidgets</text>
</a>
</g>
</g>
<!-- dir_d38fa62a5d8cb4a91368138adfdfdb50 -->
<g id="node1" class="node">
<title>dir_d38fa62a5d8cb4a91368138adfdfdb50</title>
<g id="a_node1"><a xlink:href="dir_d38fa62a5d8cb4a91368138adfdfdb50.html" target="_top" xlink:title="styling">
<polygon fill="none" stroke="red" points="182,-124 128,-124 128,-88 182,-88 182,-124"/>
<text text-anchor="middle" x="155" y="-103.5" font-family="Helvetica,sans-Serif" font-size="10.00">styling</text>
</a>
</g>
</g>
<!-- dir_d63c6c094c407be2d51968fb589c5e5a -->
<g id="node2" class="node">
<title>dir_d63c6c094c407be2d51968fb589c5e5a</title>
<g id="a_node2"><a xlink:href="dir_d63c6c094c407be2d51968fb589c5e5a.html" target="_top" xlink:title="generics">
<polygon fill="none" stroke="black" points="70,-52 16,-52 16,-16 70,-16 70,-52"/>
<text text-anchor="middle" x="43" y="-31.5" font-family="Helvetica,sans-Serif" font-size="10.00">generics</text>
</a>
</g>
</g>
<!-- dir_d38fa62a5d8cb4a91368138adfdfdb50&#45;&gt;dir_d63c6c094c407be2d51968fb589c5e5a -->
<g id="edge5" class="edge">
<title>dir_d38fa62a5d8cb4a91368138adfdfdb50&#45;&gt;dir_d63c6c094c407be2d51968fb589c5e5a</title>
<path fill="none" stroke="black" d="M127.89,-88.05C113.14,-78.84 94.71,-67.32 78.79,-57.37"/>
<polygon fill="black" stroke="black" points="80.59,-54.36 70.25,-52.03 76.88,-60.3 80.59,-54.36"/>
<g id="a_edge5&#45;headlabel"><a xlink:href="dir_000003_000001.html" target="_top" xlink:title="2">
<text text-anchor="middle" x="85.14" y="-51.36" font-family="Helvetica,sans-Serif" font-size="10.00">2</text>
</a>
</g>
</g>
<!-- dir_dbb76f3fed45496ce80a5c5b0baf1345 -->
<g id="node3" class="node">
<title>dir_dbb76f3fed45496ce80a5c5b0baf1345</title>
<g id="a_node3"><a xlink:href="dir_dbb76f3fed45496ce80a5c5b0baf1345.html" target="_top" xlink:title="utils">
<polygon fill="none" stroke="black" points="110,-124 56,-124 56,-88 110,-88 110,-124"/>
<text text-anchor="middle" x="83" y="-103.5" font-family="Helvetica,sans-Serif" font-size="10.00">utils</text>
</a>
</g>
</g>
<!-- dir_e58b5e509986c4a0764debdbbb7ff62c -->
<g id="node4" class="node">
<title>dir_e58b5e509986c4a0764debdbbb7ff62c</title>
<g id="a_node4"><a xlink:href="dir_e58b5e509986c4a0764debdbbb7ff62c.html" target="_top" xlink:title="screen_graph">
<polygon fill="none" stroke="black" points="120.5,-268 45.5,-268 45.5,-232 120.5,-232 120.5,-268"/>
<text text-anchor="middle" x="83" y="-247.5" font-family="Helvetica,sans-Serif" font-size="10.00">screen_graph</text>
</a>
</g>
</g>
<!-- dir_e58b5e509986c4a0764debdbbb7ff62c&#45;&gt;dir_d38fa62a5d8cb4a91368138adfdfdb50 -->
<g id="edge7" class="edge">
<title>dir_e58b5e509986c4a0764debdbbb7ff62c&#45;&gt;dir_d38fa62a5d8cb4a91368138adfdfdb50</title>
<path fill="none" stroke="black" d="M95.97,-231.92C103.29,-221.81 112.29,-208.56 119,-196 129.75,-175.87 139.3,-151.82 145.85,-133.8"/>
<polygon fill="black" stroke="black" points="149.21,-134.81 149.27,-124.21 142.61,-132.46 149.21,-134.81"/>
<g id="a_edge7&#45;headlabel"><a xlink:href="dir_000002_000003.html" target="_top" xlink:title="1">
<text text-anchor="middle" x="150.68" y="-136.65" font-family="Helvetica,sans-Serif" font-size="10.00">1</text>
</a>
</g>
</g>
<!-- dir_e58b5e509986c4a0764debdbbb7ff62c&#45;&gt;dir_d63c6c094c407be2d51968fb589c5e5a -->
<g id="edge8" class="edge">
<title>dir_e58b5e509986c4a0764debdbbb7ff62c&#45;&gt;dir_d63c6c094c407be2d51968fb589c5e5a</title>
<path fill="none" stroke="black" d="M68.47,-232C60.83,-222.12 52.03,-209.08 47,-196 29.95,-151.69 33.76,-95.33 38.26,-62.4"/>
<polygon fill="black" stroke="black" points="41.77,-62.58 39.78,-52.18 34.84,-61.55 41.77,-62.58"/>
<g id="a_edge8&#45;headlabel"><a xlink:href="dir_000002_000001.html" target="_top" xlink:title="1">
<text text-anchor="middle" x="44.05" y="-64.06" font-family="Helvetica,sans-Serif" font-size="10.00">1</text>
</a>
</g>
</g>
<!-- dir_30e3ca69d9b6d83affca46774b7933e1 -->
<g id="node5" class="node">
<title>dir_30e3ca69d9b6d83affca46774b7933e1</title>
<g id="a_node5"><a xlink:href="dir_30e3ca69d9b6d83affca46774b7933e1.html" target="_top" xlink:title="widgets">
<polygon fill="#eeeeff" stroke="black" points="110,-196 56,-196 56,-160 110,-160 110,-196"/>
<text text-anchor="middle" x="83" y="-175.5" font-family="Helvetica,sans-Serif" font-size="10.00">widgets</text>
</a>
</g>
</g>
<!-- dir_e58b5e509986c4a0764debdbbb7ff62c&#45;&gt;dir_30e3ca69d9b6d83affca46774b7933e1 -->
<g id="edge6" class="edge">
<title>dir_e58b5e509986c4a0764debdbbb7ff62c&#45;&gt;dir_30e3ca69d9b6d83affca46774b7933e1</title>
<path fill="none" stroke="black" d="M77.08,-231.7C76.29,-223.98 76.06,-214.71 76.4,-206.11"/>
<polygon fill="black" stroke="black" points="79.9,-206.32 77.1,-196.1 72.92,-205.84 79.9,-206.32"/>
<g id="a_edge6&#45;headlabel"><a xlink:href="dir_000002_000006.html" target="_top" xlink:title="3">
<text text-anchor="middle" x="82.48" y="-207.61" font-family="Helvetica,sans-Serif" font-size="10.00">3</text>
</a>
</g>
</g>
<!-- dir_30e3ca69d9b6d83affca46774b7933e1&#45;&gt;dir_d38fa62a5d8cb4a91368138adfdfdb50 -->
<g id="edge1" class="edge">
<title>dir_30e3ca69d9b6d83affca46774b7933e1&#45;&gt;dir_d38fa62a5d8cb4a91368138adfdfdb50</title>
<path fill="none" stroke="black" d="M100.8,-159.7C109.6,-151.14 120.38,-140.66 130,-131.3"/>
<polygon fill="black" stroke="black" points="132.68,-133.58 137.41,-124.1 127.8,-128.57 132.68,-133.58"/>
<g id="a_edge1&#45;headlabel"><a xlink:href="dir_000006_000003.html" target="_top" xlink:title="13">
<text text-anchor="middle" x="132.08" y="-135.63" font-family="Helvetica,sans-Serif" font-size="10.00">13</text>
</a>
</g>
</g>
<!-- dir_30e3ca69d9b6d83affca46774b7933e1&#45;&gt;dir_d63c6c094c407be2d51968fb589c5e5a -->
<g id="edge2" class="edge">
<title>dir_30e3ca69d9b6d83affca46774b7933e1&#45;&gt;dir_d63c6c094c407be2d51968fb589c5e5a</title>
<path fill="none" stroke="black" d="M67.63,-159.7C59.93,-149.93 51.35,-137.09 47,-124 40.39,-104.09 39.66,-80.3 40.43,-62.33"/>
<polygon fill="black" stroke="black" points="43.93,-62.43 41.05,-52.23 36.95,-62 43.93,-62.43"/>
<g id="a_edge2&#45;headlabel"><a xlink:href="dir_000006_000001.html" target="_top" xlink:title="5">
<text text-anchor="middle" x="46.55" y="-63.69" font-family="Helvetica,sans-Serif" font-size="10.00">5</text>
</a>
</g>
</g>
<!-- dir_30e3ca69d9b6d83affca46774b7933e1&#45;&gt;dir_dbb76f3fed45496ce80a5c5b0baf1345 -->
<g id="edge3" class="edge">
<title>dir_30e3ca69d9b6d83affca46774b7933e1&#45;&gt;dir_dbb76f3fed45496ce80a5c5b0baf1345</title>
<path fill="none" stroke="black" d="M83,-159.7C83,-151.98 83,-142.71 83,-134.11"/>
<polygon fill="black" stroke="black" points="86.5,-134.1 83,-124.1 79.5,-134.1 86.5,-134.1"/>
<g id="a_edge3&#45;headlabel"><a xlink:href="dir_000006_000005.html" target="_top" xlink:title="1">
<text text-anchor="middle" x="89.34" y="-135.2" font-family="Helvetica,sans-Serif" font-size="10.00">1</text>
</a>
</g>
</g>
<!-- dir_30e3ca69d9b6d83affca46774b7933e1&#45;&gt;dir_e58b5e509986c4a0764debdbbb7ff62c -->
<g id="edge4" class="edge">
<title>dir_30e3ca69d9b6d83affca46774b7933e1&#45;&gt;dir_e58b5e509986c4a0764debdbbb7ff62c</title>
<path fill="none" stroke="black" d="M88.9,-196.1C89.7,-203.79 89.94,-213.05 89.6,-221.67"/>
<polygon fill="black" stroke="black" points="86.11,-221.48 88.92,-231.7 93.09,-221.96 86.11,-221.48"/>
<g id="a_edge4&#45;headlabel"><a xlink:href="dir_000006_000002.html" target="_top" xlink:title="4">
<text text-anchor="middle" x="83.52" y="-215.2" font-family="Helvetica,sans-Serif" font-size="10.00">4</text>
</a>
</g>
</g>
</g>
</svg>
