<?xml version="1.0" encoding="UTF-8" standalone="no"?>
<!DOCTYPE svg PUBLIC "-//W3C//DTD SVG 1.1//EN"
 "http://www.w3.org/Graphics/SVG/1.1/DTD/svg11.dtd">
<!-- Generated by graphviz version 2.50.0 (20211204.2007)
 -->
<!-- Title: bwidgets/styling Pages: 1 -->
<svg width="174pt" height="183pt"
 viewBox="0.00 0.00 174.00 183.00" xmlns="http://www.w3.org/2000/svg" xmlns:xlink="http://www.w3.org/1999/xlink">
<g id="graph0" class="graph" transform="scale(1 1) rotate(0) translate(4 179)">
<title>bwidgets/styling</title>
<g id="clust1" class="cluster">
<title>clusterdir_ded1247510d9a1de4ec537edd42ee7cf</title>
<g id="a_clust1"><a xlink:href="dir_ded1247510d9a1de4ec537edd42ee7cf.html" target="_top" xlink:title="bwidgets">
<polygon fill="#ddddee" stroke="black" points="8,-8 8,-167 158,-167 158,-8 8,-8"/>
<text text-anchor="middle" x="83" y="-155" font-family="Helvetica,sans-Serif" font-size="10.00">bwidgets</text>
</a>
</g>
</g>
<g id="clust2" class="cluster">
<title>clusterdir_d38fa62a5d8cb4a91368138adfdfdb50</title>
<g id="a_clust2"><a xlink:href="dir_d38fa62a5d8cb4a91368138adfdfdb50.html" target="_top">
<polygon fill="#eeeeff" stroke="black" points="80,-16 80,-140 150,-140 150,-16 80,-16"/>
</a>
</g>
</g>
<!-- dir_30e3ca69d9b6d83affca46774b7933e1 -->
<g id="node1" class="node">
<title>dir_30e3ca69d9b6d83affca46774b7933e1</title>
<g id="a_node1"><a xlink:href="dir_30e3ca69d9b6d83affca46774b7933e1.html" target="_top" xlink:title="widgets">
<polygon fill="none" stroke="black" points="70,-132 16,-132 16,-96 70,-96 70,-132"/>
<text text-anchor="middle" x="43" y="-111.5" font-family="Helvetica,sans-Serif" font-size="10.00">widgets</text>
</a>
</g>
</g>
<!-- dir_d63c6c094c407be2d51968fb589c5e5a -->
<g id="node2" class="node">
<title>dir_d63c6c094c407be2d51968fb589c5e5a</title>
<g id="a_node2"><a xlink:href="dir_d63c6c094c407be2d51968fb589c5e5a.html" target="_top" xlink:title="generics">
<polygon fill="none" stroke="black" points="70,-60 16,-60 16,-24 70,-24 70,-60"/>
<text text-anchor="middle" x="43" y="-39.5" font-family="Helvetica,sans-Serif" font-size="10.00">generics</text>
</a>
</g>
</g>
<!-- dir_30e3ca69d9b6d83affca46774b7933e1&#45;&gt;dir_d63c6c094c407be2d51968fb589c5e5a -->
<g id="edge2" class="edge">
<title>dir_30e3ca69d9b6d83affca46774b7933e1&#45;&gt;dir_d63c6c094c407be2d51968fb589c5e5a</title>
<path fill="none" stroke="black" d="M43,-95.7C43,-87.98 43,-78.71 43,-70.11"/>
<polygon fill="black" stroke="black" points="46.5,-70.1 43,-60.1 39.5,-70.1 46.5,-70.1"/>
<g id="a_edge2&#45;headlabel"><a xlink:href="dir_000006_000001.html" target="_top" xlink:title="5">
<text text-anchor="middle" x="49.34" y="-71.2" font-family="Helvetica,sans-Serif" font-size="10.00">5</text>
</a>
</g>
</g>
<!-- dir_d38fa62a5d8cb4a91368138adfdfdb50 -->
<g id="node3" class="node">
<title>dir_d38fa62a5d8cb4a91368138adfdfdb50</title>
<text text-anchor="middle" x="115" y="-111.5" font-family="Helvetica,sans-Serif" font-size="10.00">styling</text>
</g>
<!-- dir_30e3ca69d9b6d83affca46774b7933e1&#45;&gt;dir_d38fa62a5d8cb4a91368138adfdfdb50 -->
<g id="edge1" class="edge">
<title>dir_30e3ca69d9b6d83affca46774b7933e1&#45;&gt;dir_d38fa62a5d8cb4a91368138adfdfdb50</title>
<path fill="none" stroke="black" d="M70.28,-114C72.74,-114 75.19,-114 77.65,-114"/>
<polygon fill="black" stroke="black" points="77.75,-117.5 87.75,-114 77.75,-110.5 77.75,-117.5"/>
<g id="a_edge1&#45;headlabel"><a xlink:href="dir_000006_000003.html" target="_top" xlink:title="13">
<text text-anchor="middle" x="74.15" y="-117.84" font-family="Helvetica,sans-Serif" font-size="10.00">13</text>
</a>
</g>
</g>
<!-- dir_d38fa62a5d8cb4a91368138adfdfdb50&#45;&gt;dir_d63c6c094c407be2d51968fb589c5e5a -->
<g id="edge5" class="edge">
<title>dir_d38fa62a5d8cb4a91368138adfdfdb50&#45;&gt;dir_d63c6c094c407be2d51968fb589c5e5a</title>
<path fill="none" stroke="black" d="M97.2,-95.7C88.4,-87.14 77.62,-76.66 68,-67.3"/>
<polygon fill="black" stroke="black" points="70.2,-64.57 60.59,-60.1 65.32,-69.58 70.2,-64.57"/>
<g id="a_edge5&#45;headlabel"><a xlink:href="dir_000003_000001.html" target="_top" xlink:title="2">
<text text-anchor="middle" x="74.76" y="-62.54" font-family="Helvetica,sans-Serif" font-size="10.00">2</text>
</a>
</g>
</g>
<!-- dir_43111f914e34fe962d2a5b52f79dbc41 -->
<g id="node4" class="node">
<title>dir_43111f914e34fe962d2a5b52f79dbc41</title>
<g id="a_node4"><a xlink:href="dir_43111f914e34fe962d2a5b52f79dbc41.html" target="_top" xlink:title="styles">
<polygon fill="white" stroke="black" points="142,-60 88,-60 88,-24 142,-24 142,-60"/>
<text text-anchor="middle" x="115" y="-39.5" font-family="Helvetica,sans-Serif" font-size="10.00">styles</text>
</a>
</g>
</g>
<!-- dir_d38fa62a5d8cb4a91368138adfdfdb50&#45;&gt;dir_43111f914e34fe962d2a5b52f79dbc41 -->
<g id="edge4" class="edge">
<title>dir_d38fa62a5d8cb4a91368138adfdfdb50&#45;&gt;dir_43111f914e34fe962d2a5b52f79dbc41</title>
<path fill="none" stroke="black" d="M115,-95.7C115,-87.98 115,-78.71 115,-70.11"/>
<polygon fill="black" stroke="black" points="118.5,-70.1 115,-60.1 111.5,-70.1 118.5,-70.1"/>
<g id="a_edge4&#45;headlabel"><a xlink:href="dir_000003_000004.html" target="_top" xlink:title="4">
<text text-anchor="middle" x="121.34" y="-71.2" font-family="Helvetica,sans-Serif" font-size="10.00">4</text>
</a>
</g>
</g>
<!-- dir_43111f914e34fe962d2a5b52f79dbc41&#45;&gt;dir_30e3ca69d9b6d83affca46774b7933e1 -->
<g id="edge3" class="edge">
<title>dir_43111f914e34fe962d2a5b52f79dbc41&#45;&gt;dir_30e3ca69d9b6d83affca46774b7933e1</title>
<path fill="none" stroke="black" d="M97.41,-60.1C88.63,-68.64 77.86,-79.11 68.22,-88.48"/>
<polygon fill="black" stroke="black" points="65.53,-86.22 60.8,-95.7 70.41,-91.24 65.53,-86.22"/>
<g id="a_edge3&#45;headlabel"><a xlink:href="dir_000004_000006.html" target="_top" xlink:title="2">
<text text-anchor="middle" x="66.13" y="-79.17" font-family="Helvetica,sans-Serif" font-size="10.00">2</text>
</a>
</g>
</g>
</g>
</svg>
