<?xml version="1.0" encoding="UTF-8" standalone="no"?>
<!DOCTYPE svg PUBLIC "-//W3C//DTD SVG 1.1//EN"
 "http://www.w3.org/Graphics/SVG/1.1/DTD/svg11.dtd">
<!-- Generated by graphviz version 2.50.0 (20211204.2007)
 -->
<!-- Title: bwidgets/widgets Pages: 1 -->
<svg width="332pt" height="167pt"
 viewBox="0.00 0.00 332.00 167.00" xmlns="http://www.w3.org/2000/svg" xmlns:xlink="http://www.w3.org/1999/xlink">
<g id="graph0" class="graph" transform="scale(1 1) rotate(0) translate(4 163)">
<title>bwidgets/widgets</title>
<g id="clust1" class="cluster">
<title>clusterdir_ded1247510d9a1de4ec537edd42ee7cf</title>
<g id="a_clust1"><a xlink:href="dir_ded1247510d9a1de4ec537edd42ee7cf.html" target="_top" xlink:title="bwidgets">
<polygon fill="#daedff" stroke="#404040" stroke-dasharray="5,2" points="8,-8 8,-151 316,-151 316,-8 8,-8"/>
<text text-anchor="middle" x="162" y="-139" font-family="Helvetica,sans-Serif" font-size="10.00">bwidgets</text>
</a>
</g>
</g>
<!-- dir_d38fa62a5d8cb4a91368138adfdfdb50 -->
<g id="node1" class="node">
<title>dir_d38fa62a5d8cb4a91368138adfdfdb50</title>
<g id="a_node1"><a xlink:href="dir_d38fa62a5d8cb4a91368138adfdfdb50.html" target="_top" xlink:title="styling">
<polygon fill="#4ea9ff" stroke="red" points="70,-52 16,-52 16,-16 70,-16 70,-52"/>
<text text-anchor="middle" x="43" y="-31.5" font-family="Helvetica,sans-Serif" font-size="10.00">styling</text>
</a>
</g>
</g>
<!-- dir_e58b5e509986c4a0764debdbbb7ff62c -->
<g id="node2" class="node">
<title>dir_e58b5e509986c4a0764debdbbb7ff62c</title>
<g id="a_node2"><a xlink:href="dir_e58b5e509986c4a0764debdbbb7ff62c.html" target="_top" xlink:title="screen_graph">
<polygon fill="#4ea9ff" stroke="#404040" points="163.5,-52 88.5,-52 88.5,-16 163.5,-16 163.5,-52"/>
<text text-anchor="middle" x="126" y="-31.5" font-family="Helvetica,sans-Serif" font-size="10.00">screen_graph</text>
</a>
</g>
</g>
<!-- dir_d63c6c094c407be2d51968fb589c5e5a -->
<g id="node3" class="node">
<title>dir_d63c6c094c407be2d51968fb589c5e5a</title>
<g id="a_node3"><a xlink:href="dir_d63c6c094c407be2d51968fb589c5e5a.html" target="_top" xlink:title="generics">
<polygon fill="#4ea9ff" stroke="#404040" points="236,-52 182,-52 182,-16 236,-16 236,-52"/>
<text text-anchor="middle" x="209" y="-31.5" font-family="Helvetica,sans-Serif" font-size="10.00">generics</text>
</a>
</g>
</g>
<!-- dir_dbb76f3fed45496ce80a5c5b0baf1345 -->
<g id="node4" class="node">
<title>dir_dbb76f3fed45496ce80a5c5b0baf1345</title>
<g id="a_node4"><a xlink:href="dir_dbb76f3fed45496ce80a5c5b0baf1345.html" target="_top" xlink:title="utils">
<polygon fill="#4ea9ff" stroke="#404040" points="308,-52 254,-52 254,-16 308,-16 308,-52"/>
<text text-anchor="middle" x="281" y="-31.5" font-family="Helvetica,sans-Serif" font-size="10.00">utils</text>
</a>
</g>
</g>
<!-- dir_30e3ca69d9b6d83affca46774b7933e1 -->
<g id="node5" class="node">
<title>dir_30e3ca69d9b6d83affca46774b7933e1</title>
<g id="a_node5"><a xlink:href="dir_30e3ca69d9b6d83affca46774b7933e1.html" target="_top" xlink:title="widgets">
<polygon fill="#daedff" stroke="#404040" stroke-width="2" points="194,-124 140,-124 140,-88 194,-88 194,-124"/>
<text text-anchor="middle" x="167" y="-103.5" font-family="Helvetica,sans-Serif" font-size="10.00">widgets</text>
</a>
</g>
</g>
<!-- dir_30e3ca69d9b6d83affca46774b7933e1&#45;&gt;dir_d38fa62a5d8cb4a91368138adfdfdb50 -->
<g id="edge1" class="edge">
<title>dir_30e3ca69d9b6d83affca46774b7933e1&#45;&gt;dir_d38fa62a5d8cb4a91368138adfdfdb50</title>
<path fill="none" stroke="black" d="M139.79,-89.64C121.94,-79.56 98.4,-66.28 79.01,-55.33"/>
<polygon fill="black" stroke="black" points="80.58,-52.19 70.15,-50.33 77.14,-58.29 80.58,-52.19"/>
<g id="a_edge1&#45;headlabel"><a xlink:href="dir_000008_000006.html" target="_top" xlink:title="13">
<text text-anchor="middle" x="85.1" y="-48.99" font-family="Helvetica,sans-Serif" font-size="10.00">13</text>
</a>
</g>
</g>
<!-- dir_30e3ca69d9b6d83affca46774b7933e1&#45;&gt;dir_e58b5e509986c4a0764debdbbb7ff62c -->
<g id="edge4" class="edge">
<title>dir_30e3ca69d9b6d83affca46774b7933e1&#45;&gt;dir_e58b5e509986c4a0764debdbbb7ff62c</title>
<path fill="none" stroke="black" d="M156.87,-87.7C152.15,-79.64 146.44,-69.89 141.22,-60.98"/>
<polygon fill="black" stroke="black" points="144.09,-58.96 136.02,-52.1 138.05,-62.5 144.09,-58.96"/>
<g id="a_edge4&#45;headlabel"><a xlink:href="dir_000008_000004.html" target="_top" xlink:title="4">
<text text-anchor="middle" x="148.36" y="-58.13" font-family="Helvetica,sans-Serif" font-size="10.00">4</text>
</a>
</g>
</g>
<!-- dir_30e3ca69d9b6d83affca46774b7933e1&#45;&gt;dir_d63c6c094c407be2d51968fb589c5e5a -->
<g id="edge2" class="edge">
<title>dir_30e3ca69d9b6d83affca46774b7933e1&#45;&gt;dir_d63c6c094c407be2d51968fb589c5e5a</title>
<path fill="none" stroke="black" d="M177.38,-87.7C182.26,-79.56 188.19,-69.69 193.58,-60.7"/>
<polygon fill="black" stroke="black" points="196.59,-62.48 198.74,-52.1 190.59,-58.88 196.59,-62.48"/>
<g id="a_edge2&#45;headlabel"><a xlink:href="dir_000008_000003.html" target="_top" xlink:title="5">
<text text-anchor="middle" x="197.18" y="-64.52" font-family="Helvetica,sans-Serif" font-size="10.00">5</text>
</a>
</g>
</g>
<!-- dir_30e3ca69d9b6d83affca46774b7933e1&#45;&gt;dir_dbb76f3fed45496ce80a5c5b0baf1345 -->
<g id="edge3" class="edge">
<title>dir_30e3ca69d9b6d83affca46774b7933e1&#45;&gt;dir_dbb76f3fed45496ce80a5c5b0baf1345</title>
<path fill="none" stroke="black" d="M194.02,-88.41C209.24,-79.06 228.45,-67.27 244.94,-57.14"/>
<polygon fill="black" stroke="black" points="247.09,-59.93 253.78,-51.71 243.43,-53.96 247.09,-59.93"/>
<g id="a_edge3&#45;headlabel"><a xlink:href="dir_000008_000007.html" target="_top" xlink:title="1">
<text text-anchor="middle" x="245.51" y="-61.73" font-family="Helvetica,sans-Serif" font-size="10.00">1</text>
</a>
</g>
</g>
</g>
</svg>
