<?xml version="1.0" encoding="UTF-8" standalone="no"?>
<!DOCTYPE svg PUBLIC "-//W3C//DTD SVG 1.1//EN"
 "http://www.w3.org/Graphics/SVG/1.1/DTD/svg11.dtd">
<!-- Generated by graphviz version 2.50.0 (20211204.2007)
 -->
<!-- Title: bwidgets/screen_graph Pages: 1 -->
<svg width="238pt" height="167pt"
 viewBox="0.00 0.00 238.00 167.00" xmlns="http://www.w3.org/2000/svg" xmlns:xlink="http://www.w3.org/1999/xlink">
<g id="graph0" class="graph" transform="scale(1 1) rotate(0) translate(4 163)">
<title>bwidgets/screen_graph</title>
<g id="clust1" class="cluster">
<title>clusterdir_ded1247510d9a1de4ec537edd42ee7cf</title>
<g id="a_clust1"><a xlink:href="dir_ded1247510d9a1de4ec537edd42ee7cf.html" target="_top" xlink:title="bwidgets">
<polygon fill="#daedff" stroke="#404040" stroke-dasharray="5,2" points="8,-8 8,-151 222,-151 222,-8 8,-8"/>
<text text-anchor="middle" x="115" y="-139" font-family="Helvetica,sans-Serif" font-size="10.00">bwidgets</text>
</a>
</g>
</g>
<!-- dir_30e3ca69d9b6d83affca46774b7933e1 -->
<g id="node1" class="node">
<title>dir_30e3ca69d9b6d83affca46774b7933e1</title>
<g id="a_node1"><a xlink:href="dir_30e3ca69d9b6d83affca46774b7933e1.html" target="_top" xlink:title="widgets">
<polygon fill="#4ea9ff" stroke="#404040" points="70,-52 16,-52 16,-16 70,-16 70,-52"/>
<text text-anchor="middle" x="43" y="-31.5" font-family="Helvetica,sans-Serif" font-size="10.00">widgets</text>
</a>
</g>
</g>
<!-- dir_d38fa62a5d8cb4a91368138adfdfdb50 -->
<g id="node2" class="node">
<title>dir_d38fa62a5d8cb4a91368138adfdfdb50</title>
<g id="a_node2"><a xlink:href="dir_d38fa62a5d8cb4a91368138adfdfdb50.html" target="_top" xlink:title="styling">
<polygon fill="#4ea9ff" stroke="red" points="142,-52 88,-52 88,-16 142,-16 142,-52"/>
<text text-anchor="middle" x="115" y="-31.5" font-family="Helvetica,sans-Serif" font-size="10.00">styling</text>
</a>
</g>
</g>
<!-- dir_d63c6c094c407be2d51968fb589c5e5a -->
<g id="node3" class="node">
<title>dir_d63c6c094c407be2d51968fb589c5e5a</title>
<g id="a_node3"><a xlink:href="dir_d63c6c094c407be2d51968fb589c5e5a.html" target="_top" xlink:title="generics">
<polygon fill="#4ea9ff" stroke="#404040" points="214,-52 160,-52 160,-16 214,-16 214,-52"/>
<text text-anchor="middle" x="187" y="-31.5" font-family="Helvetica,sans-Serif" font-size="10.00">generics</text>
</a>
</g>
</g>
<!-- dir_e58b5e509986c4a0764debdbbb7ff62c -->
<g id="node4" class="node">
<title>dir_e58b5e509986c4a0764debdbbb7ff62c</title>
<g id="a_node4"><a xlink:href="dir_e58b5e509986c4a0764debdbbb7ff62c.html" target="_top" xlink:title="screen_graph">
<polygon fill="#daedff" stroke="#404040" stroke-width="2" points="152.5,-124 77.5,-124 77.5,-88 152.5,-88 152.5,-124"/>
<text text-anchor="middle" x="115" y="-103.5" font-family="Helvetica,sans-Serif" font-size="10.00">screen_graph</text>
</a>
</g>
</g>
<!-- dir_e58b5e509986c4a0764debdbbb7ff62c&#45;&gt;dir_30e3ca69d9b6d83affca46774b7933e1 -->
<g id="edge1" class="edge">
<title>dir_e58b5e509986c4a0764debdbbb7ff62c&#45;&gt;dir_30e3ca69d9b6d83affca46774b7933e1</title>
<path fill="none" stroke="black" d="M97.2,-87.7C88.4,-79.14 77.62,-68.66 68,-59.3"/>
<polygon fill="black" stroke="black" points="70.2,-56.57 60.59,-52.1 65.32,-61.58 70.2,-56.57"/>
<g id="a_edge1&#45;headlabel"><a xlink:href="dir_000004_000008.html" target="_top" xlink:title="3">
<text text-anchor="middle" x="74.76" y="-54.54" font-family="Helvetica,sans-Serif" font-size="10.00">3</text>
</a>
</g>
</g>
<!-- dir_e58b5e509986c4a0764debdbbb7ff62c&#45;&gt;dir_d38fa62a5d8cb4a91368138adfdfdb50 -->
<g id="edge2" class="edge">
<title>dir_e58b5e509986c4a0764debdbbb7ff62c&#45;&gt;dir_d38fa62a5d8cb4a91368138adfdfdb50</title>
<path fill="none" stroke="black" d="M115,-87.7C115,-79.98 115,-70.71 115,-62.11"/>
<polygon fill="black" stroke="black" points="118.5,-62.1 115,-52.1 111.5,-62.1 118.5,-62.1"/>
<g id="a_edge2&#45;headlabel"><a xlink:href="dir_000004_000006.html" target="_top" xlink:title="1">
<text text-anchor="middle" x="121.34" y="-63.2" font-family="Helvetica,sans-Serif" font-size="10.00">1</text>
</a>
</g>
</g>
<!-- dir_e58b5e509986c4a0764debdbbb7ff62c&#45;&gt;dir_d63c6c094c407be2d51968fb589c5e5a -->
<g id="edge3" class="edge">
<title>dir_e58b5e509986c4a0764debdbbb7ff62c&#45;&gt;dir_d63c6c094c407be2d51968fb589c5e5a</title>
<path fill="none" stroke="black" d="M132.8,-87.7C141.6,-79.14 152.38,-68.66 162,-59.3"/>
<polygon fill="black" stroke="black" points="164.68,-61.58 169.41,-52.1 159.8,-56.57 164.68,-61.58"/>
<g id="a_edge3&#45;headlabel"><a xlink:href="dir_000004_000003.html" target="_top" xlink:title="1">
<text text-anchor="middle" x="164.08" y="-63.63" font-family="Helvetica,sans-Serif" font-size="10.00">1</text>
</a>
</g>
</g>
</g>
</svg>
