<?xml version="1.0" encoding="UTF-8" standalone="no"?>
<!DOCTYPE svg PUBLIC "-//W3C//DTD SVG 1.1//EN"
 "http://www.w3.org/Graphics/SVG/1.1/DTD/svg11.dtd">
<!-- Generated by graphviz version 2.50.0 (20211204.2007)
 -->
<!-- Title: bwidgets Pages: 1 -->
<svg width="176pt" height="364pt"
 viewBox="0.00 0.00 176.00 364.00" xmlns="http://www.w3.org/2000/svg" xmlns:xlink="http://www.w3.org/1999/xlink">
<g id="graph0" class="graph" transform="scale(1 1) rotate(0) translate(4 360)">
<title>bwidgets</title>
<g id="clust1" class="cluster">
<title>clusterdir_ded1247510d9a1de4ec537edd42ee7cf</title>
<g id="a_clust1"><a xlink:href="dir_ded1247510d9a1de4ec537edd42ee7cf.html" target="_top">
<polygon fill="#eeeeff" stroke="black" points="8,-8 8,-348 160,-348 160,-8 8,-8"/>
</a>
</g>
</g>
<!-- dir_ded1247510d9a1de4ec537edd42ee7cf -->
<g id="node1" class="node">
<title>dir_ded1247510d9a1de4ec537edd42ee7cf</title>
<text text-anchor="middle" x="69" y="-319.5" font-family="Helvetica,sans-Serif" font-size="10.00">bwidgets</text>
</g>
<!-- dir_d63c6c094c407be2d51968fb589c5e5a -->
<g id="node2" class="node">
<title>dir_d63c6c094c407be2d51968fb589c5e5a</title>
<g id="a_node2"><a xlink:href="dir_d63c6c094c407be2d51968fb589c5e5a.html" target="_top" xlink:title="generics">
<polygon fill="white" stroke="black" points="75,-52 21,-52 21,-16 75,-16 75,-52"/>
<text text-anchor="middle" x="48" y="-31.5" font-family="Helvetica,sans-Serif" font-size="10.00">generics</text>
</a>
</g>
</g>
<!-- dir_ded1247510d9a1de4ec537edd42ee7cf&#45;&gt;dir_d63c6c094c407be2d51968fb589c5e5a -->
<g id="edge8" class="edge">
<title>dir_ded1247510d9a1de4ec537edd42ee7cf&#45;&gt;dir_d63c6c094c407be2d51968fb589c5e5a</title>
<path fill="none" stroke="black" d="M57.52,-303.61C51.52,-293.62 44.68,-280.58 41,-268 18.51,-191.12 20.3,-167.24 32,-88 33.28,-79.35 35.67,-70.15 38.22,-61.89"/>
<polygon fill="black" stroke="black" points="41.55,-62.96 41.35,-52.37 34.9,-60.78 41.55,-62.96"/>
<g id="a_edge8&#45;headlabel"><a xlink:href="dir_000000_000001.html" target="_top" xlink:title="17">
<text text-anchor="middle" x="43.12" y="-64.77" font-family="Helvetica,sans-Serif" font-size="10.00">17</text>
</a>
</g>
</g>
<!-- dir_e58b5e509986c4a0764debdbbb7ff62c -->
<g id="node3" class="node">
<title>dir_e58b5e509986c4a0764debdbbb7ff62c</title>
<g id="a_node3"><a xlink:href="dir_e58b5e509986c4a0764debdbbb7ff62c.html" target="_top" xlink:title="screen_graph">
<polygon fill="white" stroke="black" points="131.5,-268 56.5,-268 56.5,-232 131.5,-232 131.5,-268"/>
<text text-anchor="middle" x="94" y="-247.5" font-family="Helvetica,sans-Serif" font-size="10.00">screen_graph</text>
</a>
</g>
</g>
<!-- dir_ded1247510d9a1de4ec537edd42ee7cf&#45;&gt;dir_e58b5e509986c4a0764debdbbb7ff62c -->
<g id="edge10" class="edge">
<title>dir_ded1247510d9a1de4ec537edd42ee7cf&#45;&gt;dir_e58b5e509986c4a0764debdbbb7ff62c</title>
<path fill="none" stroke="black" d="M75.18,-303.7C78,-295.81 81.39,-286.3 84.52,-277.55"/>
<polygon fill="black" stroke="black" points="87.82,-278.7 87.89,-268.1 81.23,-276.34 87.82,-278.7"/>
<g id="a_edge10&#45;headlabel"><a xlink:href="dir_000000_000002.html" target="_top" xlink:title="7">
<text text-anchor="middle" x="89.29" y="-280.54" font-family="Helvetica,sans-Serif" font-size="10.00">7</text>
</a>
</g>
</g>
<!-- dir_d38fa62a5d8cb4a91368138adfdfdb50 -->
<g id="node4" class="node">
<title>dir_d38fa62a5d8cb4a91368138adfdfdb50</title>
<g id="a_node4"><a xlink:href="dir_d38fa62a5d8cb4a91368138adfdfdb50.html" target="_top" xlink:title="styling">
<polygon fill="white" stroke="red" points="110,-196 56,-196 56,-160 110,-160 110,-196"/>
<text text-anchor="middle" x="83" y="-175.5" font-family="Helvetica,sans-Serif" font-size="10.00">styling</text>
</a>
</g>
</g>
<!-- dir_ded1247510d9a1de4ec537edd42ee7cf&#45;&gt;dir_d38fa62a5d8cb4a91368138adfdfdb50 -->
<g id="edge7" class="edge">
<title>dir_ded1247510d9a1de4ec537edd42ee7cf&#45;&gt;dir_d38fa62a5d8cb4a91368138adfdfdb50</title>
<path fill="none" stroke="black" d="M59.59,-303.78C50.98,-285.73 40.6,-256.63 48,-232 50.92,-222.28 56.26,-212.7 61.91,-204.41"/>
<polygon fill="black" stroke="black" points="64.76,-206.44 67.82,-196.3 59.1,-202.32 64.76,-206.44"/>
<g id="a_edge7&#45;headlabel"><a xlink:href="dir_000000_000003.html" target="_top" xlink:title="20">
<text text-anchor="middle" x="64.94" y="-208.52" font-family="Helvetica,sans-Serif" font-size="10.00">20</text>
</a>
</g>
</g>
<!-- dir_dbb76f3fed45496ce80a5c5b0baf1345 -->
<g id="node5" class="node">
<title>dir_dbb76f3fed45496ce80a5c5b0baf1345</title>
<g id="a_node5"><a xlink:href="dir_dbb76f3fed45496ce80a5c5b0baf1345.html" target="_top" xlink:title="utils">
<polygon fill="white" stroke="black" points="149,-52 95,-52 95,-16 149,-16 149,-52"/>
<text text-anchor="middle" x="122" y="-31.5" font-family="Helvetica,sans-Serif" font-size="10.00">utils</text>
</a>
</g>
</g>
<!-- dir_ded1247510d9a1de4ec537edd42ee7cf&#45;&gt;dir_dbb76f3fed45496ce80a5c5b0baf1345 -->
<g id="edge9" class="edge">
<title>dir_ded1247510d9a1de4ec537edd42ee7cf&#45;&gt;dir_dbb76f3fed45496ce80a5c5b0baf1345</title>
<path fill="none" stroke="black" d="M97.17,-308.41C113.19,-299.6 131.83,-286.15 141,-268 175.31,-200.15 149.23,-106.83 132.77,-61.65"/>
<polygon fill="black" stroke="black" points="136.03,-60.38 129.23,-52.26 129.48,-62.85 136.03,-60.38"/>
<g id="a_edge9&#45;headlabel"><a xlink:href="dir_000000_000005.html" target="_top" xlink:title="2">
<text text-anchor="middle" x="139.96" y="-60.25" font-family="Helvetica,sans-Serif" font-size="10.00">2</text>
</a>
</g>
</g>
<!-- dir_e58b5e509986c4a0764debdbbb7ff62c&#45;&gt;dir_d63c6c094c407be2d51968fb589c5e5a -->
<g id="edge13" class="edge">
<title>dir_e58b5e509986c4a0764debdbbb7ff62c&#45;&gt;dir_d63c6c094c407be2d51968fb589c5e5a</title>
<path fill="none" stroke="black" d="M72.73,-231.7C62.89,-222.31 52.24,-209.8 47,-196 30.16,-151.62 36.1,-95.28 42.01,-62.37"/>
<polygon fill="black" stroke="black" points="45.52,-62.64 43.98,-52.16 38.65,-61.32 45.52,-62.64"/>
<g id="a_edge13&#45;headlabel"><a xlink:href="dir_000002_000001.html" target="_top" xlink:title="1">
<text text-anchor="middle" x="47.63" y="-64.21" font-family="Helvetica,sans-Serif" font-size="10.00">1</text>
</a>
</g>
</g>
<!-- dir_e58b5e509986c4a0764debdbbb7ff62c&#45;&gt;dir_d38fa62a5d8cb4a91368138adfdfdb50 -->
<g id="edge12" class="edge">
<title>dir_e58b5e509986c4a0764debdbbb7ff62c&#45;&gt;dir_d38fa62a5d8cb4a91368138adfdfdb50</title>
<path fill="none" stroke="black" d="M91.28,-231.7C90.07,-223.98 88.61,-214.71 87.26,-206.11"/>
<polygon fill="black" stroke="black" points="90.7,-205.44 85.69,-196.1 83.78,-206.53 90.7,-205.44"/>
<g id="a_edge12&#45;headlabel"><a xlink:href="dir_000002_000003.html" target="_top" xlink:title="1">
<text text-anchor="middle" x="94.06" y="-206.05" font-family="Helvetica,sans-Serif" font-size="10.00">1</text>
</a>
</g>
</g>
<!-- dir_30e3ca69d9b6d83affca46774b7933e1 -->
<g id="node6" class="node">
<title>dir_30e3ca69d9b6d83affca46774b7933e1</title>
<g id="a_node6"><a xlink:href="dir_30e3ca69d9b6d83affca46774b7933e1.html" target="_top" xlink:title="widgets">
<polygon fill="white" stroke="black" points="132,-124 78,-124 78,-88 132,-88 132,-124"/>
<text text-anchor="middle" x="105" y="-103.5" font-family="Helvetica,sans-Serif" font-size="10.00">widgets</text>
</a>
</g>
</g>
<!-- dir_e58b5e509986c4a0764debdbbb7ff62c&#45;&gt;dir_30e3ca69d9b6d83affca46774b7933e1 -->
<g id="edge11" class="edge">
<title>dir_e58b5e509986c4a0764debdbbb7ff62c&#45;&gt;dir_30e3ca69d9b6d83affca46774b7933e1</title>
<path fill="none" stroke="black" d="M96.7,-231.56C101.1,-221.54 107.2,-208.51 110,-196 114.59,-175.52 110.52,-152.07 106.91,-134.38"/>
<polygon fill="black" stroke="black" points="110.25,-133.27 104.8,-124.19 103.4,-134.69 110.25,-133.27"/>
<g id="a_edge11&#45;headlabel"><a xlink:href="dir_000002_000006.html" target="_top" xlink:title="3">
<text text-anchor="middle" x="113.76" y="-133.71" font-family="Helvetica,sans-Serif" font-size="10.00">3</text>
</a>
</g>
</g>
<!-- dir_d38fa62a5d8cb4a91368138adfdfdb50&#45;&gt;dir_d63c6c094c407be2d51968fb589c5e5a -->
<g id="edge6" class="edge">
<title>dir_d38fa62a5d8cb4a91368138adfdfdb50&#45;&gt;dir_d63c6c094c407be2d51968fb589c5e5a</title>
<path fill="none" stroke="black" d="M78.34,-159.84C75.56,-149.48 72,-136 69,-124 63.83,-103.34 58.32,-79.89 54.23,-62.25"/>
<polygon fill="black" stroke="black" points="57.55,-61.05 51.89,-52.09 50.73,-62.63 57.55,-61.05"/>
<g id="a_edge6&#45;headlabel"><a xlink:href="dir_000003_000001.html" target="_top" xlink:title="2">
<text text-anchor="middle" x="61.12" y="-61.42" font-family="Helvetica,sans-Serif" font-size="10.00">2</text>
</a>
</g>
</g>
<!-- dir_d38fa62a5d8cb4a91368138adfdfdb50&#45;&gt;dir_30e3ca69d9b6d83affca46774b7933e1 -->
<g id="edge5" class="edge">
<title>dir_d38fa62a5d8cb4a91368138adfdfdb50&#45;&gt;dir_30e3ca69d9b6d83affca46774b7933e1</title>
<path fill="none" stroke="black" d="M82.52,-159.7C84.19,-151.81 86.96,-142.3 90.08,-133.55"/>
<polygon fill="black" stroke="black" points="93.39,-134.69 93.73,-124.1 86.86,-132.17 93.39,-134.69"/>
<g id="a_edge5&#45;headlabel"><a xlink:href="dir_000003_000006.html" target="_top" xlink:title="4">
<text text-anchor="middle" x="94.75" y="-136.57" font-family="Helvetica,sans-Serif" font-size="10.00">4</text>
</a>
</g>
</g>
<!-- dir_30e3ca69d9b6d83affca46774b7933e1&#45;&gt;dir_d63c6c094c407be2d51968fb589c5e5a -->
<g id="edge2" class="edge">
<title>dir_30e3ca69d9b6d83affca46774b7933e1&#45;&gt;dir_d63c6c094c407be2d51968fb589c5e5a</title>
<path fill="none" stroke="black" d="M90.91,-87.7C84.08,-79.3 75.74,-69.07 68.24,-59.86"/>
<polygon fill="black" stroke="black" points="70.96,-57.65 61.93,-52.1 65.53,-62.07 70.96,-57.65"/>
<g id="a_edge2&#45;headlabel"><a xlink:href="dir_000006_000001.html" target="_top" xlink:title="5">
<text text-anchor="middle" x="75.43" y="-56.14" font-family="Helvetica,sans-Serif" font-size="10.00">5</text>
</a>
</g>
</g>
<!-- dir_30e3ca69d9b6d83affca46774b7933e1&#45;&gt;dir_e58b5e509986c4a0764debdbbb7ff62c -->
<g id="edge4" class="edge">
<title>dir_30e3ca69d9b6d83affca46774b7933e1&#45;&gt;dir_e58b5e509986c4a0764debdbbb7ff62c</title>
<path fill="none" stroke="black" d="M118.24,-124.19C126.46,-142.2 133.54,-171.27 128,-196 125.96,-205.09 122.19,-214.45 117.76,-222.74"/>
<polygon fill="black" stroke="black" points="114.63,-221.17 112.55,-231.56 120.65,-224.73 114.63,-221.17"/>
<g id="a_edge4&#45;headlabel"><a xlink:href="dir_000006_000002.html" target="_top" xlink:title="4">
<text text-anchor="middle" x="114.01" y="-214.13" font-family="Helvetica,sans-Serif" font-size="10.00">4</text>
</a>
</g>
</g>
<!-- dir_30e3ca69d9b6d83affca46774b7933e1&#45;&gt;dir_d38fa62a5d8cb4a91368138adfdfdb50 -->
<g id="edge1" class="edge">
<title>dir_30e3ca69d9b6d83affca46774b7933e1&#45;&gt;dir_d38fa62a5d8cb4a91368138adfdfdb50</title>
<path fill="none" stroke="black" d="M105.52,-124.1C103.87,-131.96 101.12,-141.46 97.99,-150.23"/>
<polygon fill="black" stroke="black" points="94.68,-149.11 94.35,-159.7 101.21,-151.62 94.68,-149.11"/>
<g id="a_edge1&#45;headlabel"><a xlink:href="dir_000006_000003.html" target="_top" xlink:title="13">
<text text-anchor="middle" x="93.32" y="-142.23" font-family="Helvetica,sans-Serif" font-size="10.00">13</text>
</a>
</g>
</g>
<!-- dir_30e3ca69d9b6d83affca46774b7933e1&#45;&gt;dir_dbb76f3fed45496ce80a5c5b0baf1345 -->
<g id="edge3" class="edge">
<title>dir_30e3ca69d9b6d83affca46774b7933e1&#45;&gt;dir_dbb76f3fed45496ce80a5c5b0baf1345</title>
<path fill="none" stroke="black" d="M109.2,-87.7C111.1,-79.9 113.38,-70.51 115.48,-61.83"/>
<polygon fill="black" stroke="black" points="118.89,-62.65 117.85,-52.1 112.08,-61 118.89,-62.65"/>
<g id="a_edge3&#45;headlabel"><a xlink:href="dir_000006_000005.html" target="_top" xlink:title="1">
<text text-anchor="middle" x="120.8" y="-64.31" font-family="Helvetica,sans-Serif" font-size="10.00">1</text>
</a>
</g>
</g>
</g>
</svg>
