<?xml version="1.0" encoding="UTF-8" standalone="no"?>
<!DOCTYPE svg PUBLIC "-//W3C//DTD SVG 1.1//EN"
 "http://www.w3.org/Graphics/SVG/1.1/DTD/svg11.dtd">
<!-- Generated by graphviz version 2.50.0 (20211204.2007)
 -->
<!-- Title: bwidgets/screen_graph Pages: 1 -->
<svg width="156pt" height="311pt"
 viewBox="0.00 0.00 156.00 311.00" xmlns="http://www.w3.org/2000/svg" xmlns:xlink="http://www.w3.org/1999/xlink">
<g id="graph0" class="graph" transform="scale(1 1) rotate(0) translate(4 307)">
<title>bwidgets/screen_graph</title>
<g id="clust1" class="cluster">
<title>clusterdir_ded1247510d9a1de4ec537edd42ee7cf</title>
<g id="a_clust1"><a xlink:href="dir_ded1247510d9a1de4ec537edd42ee7cf.html" target="_top" xlink:title="bwidgets">
<polygon fill="#ddddee" stroke="black" points="8,-8 8,-295 140,-295 140,-8 8,-8"/>
<text text-anchor="middle" x="74" y="-283" font-family="Helvetica,sans-Serif" font-size="10.00">bwidgets</text>
</a>
</g>
</g>
<!-- dir_30e3ca69d9b6d83affca46774b7933e1 -->
<g id="node1" class="node">
<title>dir_30e3ca69d9b6d83affca46774b7933e1</title>
<g id="a_node1"><a xlink:href="dir_30e3ca69d9b6d83affca46774b7933e1.html" target="_top" xlink:title="widgets">
<polygon fill="none" stroke="black" points="70,-268 16,-268 16,-232 70,-232 70,-268"/>
<text text-anchor="middle" x="43" y="-247.5" font-family="Helvetica,sans-Serif" font-size="10.00">widgets</text>
</a>
</g>
</g>
<!-- dir_d38fa62a5d8cb4a91368138adfdfdb50 -->
<g id="node2" class="node">
<title>dir_d38fa62a5d8cb4a91368138adfdfdb50</title>
<g id="a_node2"><a xlink:href="dir_d38fa62a5d8cb4a91368138adfdfdb50.html" target="_top" xlink:title="styling">
<polygon fill="none" stroke="red" points="90,-124 36,-124 36,-88 90,-88 90,-124"/>
<text text-anchor="middle" x="63" y="-103.5" font-family="Helvetica,sans-Serif" font-size="10.00">styling</text>
</a>
</g>
</g>
<!-- dir_30e3ca69d9b6d83affca46774b7933e1&#45;&gt;dir_d38fa62a5d8cb4a91368138adfdfdb50 -->
<g id="edge1" class="edge">
<title>dir_30e3ca69d9b6d83affca46774b7933e1&#45;&gt;dir_d38fa62a5d8cb4a91368138adfdfdb50</title>
<path fill="none" stroke="black" d="M36.13,-231.81C33.96,-213.8 34.86,-184.73 39,-160 40.44,-151.42 42.75,-142.24 45.53,-133.97"/>
<polygon fill="black" stroke="black" points="48.87,-135.04 49.14,-124.45 42.33,-132.56 48.87,-135.04"/>
<g id="a_edge1&#45;headlabel"><a xlink:href="dir_000006_000003.html" target="_top" xlink:title="13">
<text text-anchor="middle" x="50.26" y="-136.9" font-family="Helvetica,sans-Serif" font-size="10.00">13</text>
</a>
</g>
</g>
<!-- dir_d63c6c094c407be2d51968fb589c5e5a -->
<g id="node3" class="node">
<title>dir_d63c6c094c407be2d51968fb589c5e5a</title>
<g id="a_node3"><a xlink:href="dir_d63c6c094c407be2d51968fb589c5e5a.html" target="_top" xlink:title="generics">
<polygon fill="none" stroke="black" points="90,-52 36,-52 36,-16 90,-16 90,-52"/>
<text text-anchor="middle" x="63" y="-31.5" font-family="Helvetica,sans-Serif" font-size="10.00">generics</text>
</a>
</g>
</g>
<!-- dir_30e3ca69d9b6d83affca46774b7933e1&#45;&gt;dir_d63c6c094c407be2d51968fb589c5e5a -->
<g id="edge2" class="edge">
<title>dir_30e3ca69d9b6d83affca46774b7933e1&#45;&gt;dir_d63c6c094c407be2d51968fb589c5e5a</title>
<path fill="none" stroke="black" d="M36.93,-231.64C27.38,-201.64 11.48,-138.47 27,-88 30.01,-78.22 35.51,-68.62 41.32,-60.33"/>
<polygon fill="black" stroke="black" points="44.19,-62.33 47.39,-52.23 38.59,-58.13 44.19,-62.33"/>
<g id="a_edge2&#45;headlabel"><a xlink:href="dir_000006_000001.html" target="_top" xlink:title="5">
<text text-anchor="middle" x="44.31" y="-64.41" font-family="Helvetica,sans-Serif" font-size="10.00">5</text>
</a>
</g>
</g>
<!-- dir_e58b5e509986c4a0764debdbbb7ff62c -->
<g id="node4" class="node">
<title>dir_e58b5e509986c4a0764debdbbb7ff62c</title>
<g id="a_node4"><a xlink:href="dir_e58b5e509986c4a0764debdbbb7ff62c.html" target="_top" xlink:title="screen_graph">
<polygon fill="#eeeeff" stroke="black" points="131.5,-196 56.5,-196 56.5,-160 131.5,-160 131.5,-196"/>
<text text-anchor="middle" x="94" y="-175.5" font-family="Helvetica,sans-Serif" font-size="10.00">screen_graph</text>
</a>
</g>
</g>
<!-- dir_30e3ca69d9b6d83affca46774b7933e1&#45;&gt;dir_e58b5e509986c4a0764debdbbb7ff62c -->
<g id="edge3" class="edge">
<title>dir_30e3ca69d9b6d83affca46774b7933e1&#45;&gt;dir_e58b5e509986c4a0764debdbbb7ff62c</title>
<path fill="none" stroke="black" d="M49.69,-231.7C54.89,-223.39 62.06,-213.28 69.18,-204.14"/>
<polygon fill="black" stroke="black" points="72.1,-206.09 75.64,-196.1 66.65,-201.7 72.1,-206.09"/>
<g id="a_edge3&#45;headlabel"><a xlink:href="dir_000006_000002.html" target="_top" xlink:title="4">
<text text-anchor="middle" x="72.06" y="-208.17" font-family="Helvetica,sans-Serif" font-size="10.00">4</text>
</a>
</g>
</g>
<!-- dir_d38fa62a5d8cb4a91368138adfdfdb50&#45;&gt;dir_30e3ca69d9b6d83affca46774b7933e1 -->
<g id="edge4" class="edge">
<title>dir_d38fa62a5d8cb4a91368138adfdfdb50&#45;&gt;dir_30e3ca69d9b6d83affca46774b7933e1</title>
<path fill="none" stroke="black" d="M64.89,-124.45C62.77,-134.68 59.02,-147.93 57,-160 53.57,-180.48 52.36,-203.93 50.69,-221.62"/>
<polygon fill="black" stroke="black" points="47.19,-221.49 49.57,-231.81 54.14,-222.26 47.19,-221.49"/>
<g id="a_edge4&#45;headlabel"><a xlink:href="dir_000003_000006.html" target="_top" xlink:title="4">
<text text-anchor="middle" x="44.76" y="-215.11" font-family="Helvetica,sans-Serif" font-size="10.00">4</text>
</a>
</g>
</g>
<!-- dir_d38fa62a5d8cb4a91368138adfdfdb50&#45;&gt;dir_d63c6c094c407be2d51968fb589c5e5a -->
<g id="edge5" class="edge">
<title>dir_d38fa62a5d8cb4a91368138adfdfdb50&#45;&gt;dir_d63c6c094c407be2d51968fb589c5e5a</title>
<path fill="none" stroke="black" d="M63,-87.7C63,-79.98 63,-70.71 63,-62.11"/>
<polygon fill="black" stroke="black" points="66.5,-62.1 63,-52.1 59.5,-62.1 66.5,-62.1"/>
<g id="a_edge5&#45;headlabel"><a xlink:href="dir_000003_000001.html" target="_top" xlink:title="2">
<text text-anchor="middle" x="69.34" y="-63.2" font-family="Helvetica,sans-Serif" font-size="10.00">2</text>
</a>
</g>
</g>
<!-- dir_e58b5e509986c4a0764debdbbb7ff62c&#45;&gt;dir_30e3ca69d9b6d83affca46774b7933e1 -->
<g id="edge6" class="edge">
<title>dir_e58b5e509986c4a0764debdbbb7ff62c&#45;&gt;dir_30e3ca69d9b6d83affca46774b7933e1</title>
<path fill="none" stroke="black" d="M87.43,-196.1C82.27,-204.38 75.11,-214.49 67.99,-223.64"/>
<polygon fill="black" stroke="black" points="65.06,-221.71 61.52,-231.7 70.51,-226.09 65.06,-221.71"/>
<g id="a_edge6&#45;headlabel"><a xlink:href="dir_000002_000006.html" target="_top" xlink:title="3">
<text text-anchor="middle" x="65.09" y="-214.63" font-family="Helvetica,sans-Serif" font-size="10.00">3</text>
</a>
</g>
</g>
<!-- dir_e58b5e509986c4a0764debdbbb7ff62c&#45;&gt;dir_d38fa62a5d8cb4a91368138adfdfdb50 -->
<g id="edge7" class="edge">
<title>dir_e58b5e509986c4a0764debdbbb7ff62c&#45;&gt;dir_d38fa62a5d8cb4a91368138adfdfdb50</title>
<path fill="none" stroke="black" d="M86.34,-159.7C82.81,-151.73 78.54,-142.1 74.63,-133.26"/>
<polygon fill="black" stroke="black" points="77.82,-131.83 70.57,-124.1 71.42,-134.67 77.82,-131.83"/>
<g id="a_edge7&#45;headlabel"><a xlink:href="dir_000002_000003.html" target="_top" xlink:title="1">
<text text-anchor="middle" x="81.88" y="-131.47" font-family="Helvetica,sans-Serif" font-size="10.00">1</text>
</a>
</g>
</g>
<!-- dir_e58b5e509986c4a0764debdbbb7ff62c&#45;&gt;dir_d63c6c094c407be2d51968fb589c5e5a -->
<g id="edge8" class="edge">
<title>dir_e58b5e509986c4a0764debdbbb7ff62c&#45;&gt;dir_d63c6c094c407be2d51968fb589c5e5a</title>
<path fill="none" stroke="black" d="M98.44,-159.84C102.36,-141.6 106.41,-112.11 99,-88 95.99,-78.22 90.49,-68.62 84.68,-60.33"/>
<polygon fill="black" stroke="black" points="87.41,-58.13 78.61,-52.23 81.81,-62.33 87.41,-58.13"/>
<g id="a_edge8&#45;headlabel"><a xlink:href="dir_000002_000001.html" target="_top" xlink:title="1">
<text text-anchor="middle" x="91.83" y="-56.8" font-family="Helvetica,sans-Serif" font-size="10.00">1</text>
</a>
</g>
</g>
</g>
</svg>
