<?xml version="1.0" encoding="UTF-8" standalone="no"?>
<!DOCTYPE svg PUBLIC "-//W3C//DTD SVG 1.1//EN"
 "http://www.w3.org/Graphics/SVG/1.1/DTD/svg11.dtd">
<!-- Generated by graphviz version 2.50.0 (20211204.2007)
 -->
<!-- Title: bwidgets/screen_graph/Drawer.cc Pages: 1 -->
<svg width="1300pt" height="375pt"
 viewBox="0.00 0.00 1300.03 375.00" xmlns="http://www.w3.org/2000/svg" xmlns:xlink="http://www.w3.org/1999/xlink">
<g id="graph0" class="graph" transform="scale(1 1) rotate(0) translate(4 371)">
<title>bwidgets/screen_graph/Drawer.cc</title>
<!-- Node1 -->
<g id="node1" class="node">
<title>Node1</title>
<g id="a_node1"><a xlink:title=" ">
<polygon fill="#bfbfbf" stroke="black" points="369.53,-336.5 369.53,-366.5 486.53,-366.5 486.53,-336.5 369.53,-336.5"/>
<text text-anchor="start" x="377.53" y="-354.5" font-family="Helvetica,sans-Serif" font-size="10.00">bwidgets/screen_graph</text>
<text text-anchor="middle" x="428.03" y="-343.5" font-family="Helvetica,sans-Serif" font-size="10.00">/Drawer.cc</text>
</a>
</g>
</g>
<!-- Node2 -->
<g id="node2" class="node">
<title>Node2</title>
<g id="a_node2"><a xlink:href="bwPaintEngine_8h.html" target="_top" xlink:title=" ">
<polygon fill="none" stroke="black" points="13.03,-168.5 13.03,-187.5 103.03,-187.5 103.03,-168.5 13.03,-168.5"/>
<text text-anchor="middle" x="58.03" y="-175.5" font-family="Helvetica,sans-Serif" font-size="10.00">bwPaintEngine.h</text>
</a>
</g>
</g>
<!-- Node1&#45;&gt;Node2 -->
<g id="edge1" class="edge">
<title>Node1&#45;&gt;Node2</title>
<path fill="none" stroke="midnightblue" d="M397.75,-336.47C327.34,-303.83 153.47,-223.24 85.7,-191.83"/>
<polygon fill="midnightblue" stroke="midnightblue" points="87.04,-188.59 76.5,-187.56 84.1,-194.94 87.04,-188.59"/>
</g>
<!-- Node5 -->
<g id="node5" class="node">
<title>Node5</title>
<g id="a_node5"><a xlink:href="bwPainter_8h.html" target="_top" xlink:title=" ">
<polygon fill="none" stroke="black" points="268.03,-224.5 268.03,-243.5 336.03,-243.5 336.03,-224.5 268.03,-224.5"/>
<text text-anchor="middle" x="302.03" y="-231.5" font-family="Helvetica,sans-Serif" font-size="10.00">bwPainter.h</text>
</a>
</g>
</g>
<!-- Node1&#45;&gt;Node5 -->
<g id="edge4" class="edge">
<title>Node1&#45;&gt;Node5</title>
<path fill="none" stroke="midnightblue" d="M412.58,-336.34C388.84,-314.58 343.58,-273.09 318.98,-250.54"/>
<polygon fill="midnightblue" stroke="midnightblue" points="321.22,-247.85 311.49,-243.67 316.49,-253.01 321.22,-247.85"/>
</g>
<!-- Node11 -->
<g id="node11" class="node">
<title>Node11</title>
<g id="a_node11"><a xlink:href="bwStyle_8h.html" target="_top" xlink:title=" ">
<polygon fill="none" stroke="black" points="5.03,-112.5 5.03,-131.5 65.03,-131.5 65.03,-112.5 5.03,-112.5"/>
<text text-anchor="middle" x="35.03" y="-119.5" font-family="Helvetica,sans-Serif" font-size="10.00">bwStyle.h</text>
</a>
</g>
</g>
<!-- Node1&#45;&gt;Node11 -->
<g id="edge12" class="edge">
<title>Node1&#45;&gt;Node11</title>
<path fill="none" stroke="midnightblue" d="M369.39,-348.05C273.61,-340.49 86.07,-310 4.03,-188 -6.47,-172.39 6.08,-152.67 18.22,-139.07"/>
<polygon fill="midnightblue" stroke="midnightblue" points="20.75,-141.49 25.13,-131.85 15.69,-136.65 20.75,-141.49"/>
</g>
<!-- Node13 -->
<g id="node13" class="node">
<title>Node13</title>
<g id="a_node13"><a xlink:href="Node_8h.html" target="_top" xlink:title=" ">
<polygon fill="none" stroke="black" points="693.03,-280.5 693.03,-299.5 741.03,-299.5 741.03,-280.5 693.03,-280.5"/>
<text text-anchor="middle" x="717.03" y="-287.5" font-family="Helvetica,sans-Serif" font-size="10.00">Node.h</text>
</a>
</g>
</g>
<!-- Node1&#45;&gt;Node13 -->
<g id="edge15" class="edge">
<title>Node1&#45;&gt;Node13</title>
<path fill="none" stroke="midnightblue" d="M486.86,-338.39C545.9,-326.23 634.81,-307.93 683.02,-298"/>
<polygon fill="midnightblue" stroke="midnightblue" points="683.86,-301.4 692.95,-295.96 682.45,-294.55 683.86,-301.4"/>
</g>
<!-- Node28 -->
<g id="node28" class="node">
<title>Node28</title>
<g id="a_node28"><a xlink:href="ScreenGraph_8h.html" target="_top" xlink:title=" ">
<polygon fill="none" stroke="black" points="1106.03,-280.5 1106.03,-299.5 1188.03,-299.5 1188.03,-280.5 1106.03,-280.5"/>
<text text-anchor="middle" x="1147.03" y="-287.5" font-family="Helvetica,sans-Serif" font-size="10.00">ScreenGraph.h</text>
</a>
</g>
</g>
<!-- Node1&#45;&gt;Node28 -->
<g id="edge41" class="edge">
<title>Node1&#45;&gt;Node28</title>
<path fill="none" stroke="midnightblue" d="M486.56,-345.66C623.98,-334.28 965.43,-306.03 1095.55,-295.26"/>
<polygon fill="midnightblue" stroke="midnightblue" points="1095.97,-298.74 1105.65,-294.42 1095.39,-291.76 1095.97,-298.74"/>
</g>
<!-- Node32 -->
<g id="node32" class="node">
<title>Node32</title>
<g id="a_node32"><a xlink:href="Drawer_8h.html" target="_top" xlink:title=" ">
<polygon fill="none" stroke="black" points="423.03,-280.5 423.03,-299.5 479.03,-299.5 479.03,-280.5 423.03,-280.5"/>
<text text-anchor="middle" x="451.03" y="-287.5" font-family="Helvetica,sans-Serif" font-size="10.00">Drawer.h</text>
</a>
</g>
</g>
<!-- Node1&#45;&gt;Node32 -->
<g id="edge49" class="edge">
<title>Node1&#45;&gt;Node32</title>
<path fill="none" stroke="midnightblue" d="M433.48,-336.4C436.65,-328.2 440.68,-317.78 444.07,-308.99"/>
<polygon fill="midnightblue" stroke="midnightblue" points="447.34,-310.25 447.68,-299.66 440.81,-307.72 447.34,-310.25"/>
</g>
<!-- Node3 -->
<g id="node3" class="node">
<title>Node3</title>
<g id="a_node3"><a xlink:title=" ">
<polygon fill="none" stroke="#bfbfbf" points="91.53,-56.5 91.53,-75.5 132.53,-75.5 132.53,-56.5 91.53,-56.5"/>
<text text-anchor="middle" x="112.03" y="-63.5" font-family="Helvetica,sans-Serif" font-size="10.00">string</text>
</a>
</g>
</g>
<!-- Node2&#45;&gt;Node3 -->
<g id="edge2" class="edge">
<title>Node2&#45;&gt;Node3</title>
<path fill="none" stroke="midnightblue" d="M62.27,-168.37C71.1,-150.38 91.63,-108.55 103.38,-84.63"/>
<polygon fill="midnightblue" stroke="midnightblue" points="106.55,-86.11 107.81,-75.59 100.26,-83.03 106.55,-86.11"/>
</g>
<!-- Node4 -->
<g id="node4" class="node">
<title>Node4</title>
<g id="a_node4"><a xlink:href="bwRectangle_8h.html" target="_top" xlink:title=" ">
<polygon fill="none" stroke="black" points="349.03,-112.5 349.03,-131.5 431.03,-131.5 431.03,-112.5 349.03,-112.5"/>
<text text-anchor="middle" x="390.03" y="-119.5" font-family="Helvetica,sans-Serif" font-size="10.00">bwRectangle.h</text>
</a>
</g>
</g>
<!-- Node2&#45;&gt;Node4 -->
<g id="edge3" class="edge">
<title>Node2&#45;&gt;Node4</title>
<path fill="none" stroke="midnightblue" d="M103.15,-169.66C164.66,-159.66 274.53,-141.79 338.98,-131.3"/>
<polygon fill="midnightblue" stroke="midnightblue" points="339.61,-134.75 348.92,-129.69 338.49,-127.84 339.61,-134.75"/>
</g>
<!-- Node5&#45;&gt;Node3 -->
<g id="edge6" class="edge">
<title>Node5&#45;&gt;Node3</title>
<path fill="none" stroke="midnightblue" d="M267.82,-231.85C233.59,-228.86 181.62,-219.07 150.03,-188 122,-160.43 114.58,-112.44 112.66,-85.94"/>
<polygon fill="midnightblue" stroke="midnightblue" points="116.14,-85.53 112.12,-75.72 109.15,-85.9 116.14,-85.53"/>
</g>
<!-- Node6 -->
<g id="node6" class="node">
<title>Node6</title>
<g id="a_node6"><a xlink:title=" ">
<polygon fill="none" stroke="#bfbfbf" points="405.03,-56.5 405.03,-75.5 457.03,-75.5 457.03,-56.5 405.03,-56.5"/>
<text text-anchor="middle" x="431.03" y="-63.5" font-family="Helvetica,sans-Serif" font-size="10.00">memory</text>
</a>
</g>
</g>
<!-- Node5&#45;&gt;Node6 -->
<g id="edge5" class="edge">
<title>Node5&#45;&gt;Node6</title>
<path fill="none" stroke="midnightblue" d="M302.48,-224.27C304.03,-202.7 310.82,-146.12 340.03,-112 354.37,-95.24 376.45,-84.11 395.26,-77.11"/>
<polygon fill="midnightblue" stroke="midnightblue" points="396.45,-80.41 404.75,-73.82 394.15,-73.79 396.45,-80.41"/>
</g>
<!-- Node7 -->
<g id="node7" class="node">
<title>Node7</title>
<g id="a_node7"><a xlink:title=" ">
<polygon fill="none" stroke="#bfbfbf" points="557.03,-0.5 557.03,-19.5 601.03,-19.5 601.03,-0.5 557.03,-0.5"/>
<text text-anchor="middle" x="579.03" y="-7.5" font-family="Helvetica,sans-Serif" font-size="10.00">vector</text>
</a>
</g>
</g>
<!-- Node5&#45;&gt;Node7 -->
<g id="edge7" class="edge">
<title>Node5&#45;&gt;Node7</title>
<path fill="none" stroke="midnightblue" d="M301.22,-224.42C299.68,-203.17 298.49,-147.29 324.03,-112 376.87,-38.97 490.99,-18.72 546.88,-13.12"/>
<polygon fill="midnightblue" stroke="midnightblue" points="547.28,-16.6 556.93,-12.21 546.65,-9.63 547.28,-16.6"/>
</g>
<!-- Node8 -->
<g id="node8" class="node">
<title>Node8</title>
<g id="a_node8"><a xlink:href="bwGradient_8h.html" target="_top" xlink:title=" ">
<polygon fill="none" stroke="black" points="349.03,-168.5 349.03,-187.5 423.03,-187.5 423.03,-168.5 349.03,-168.5"/>
<text text-anchor="middle" x="386.03" y="-175.5" font-family="Helvetica,sans-Serif" font-size="10.00">bwGradient.h</text>
</a>
</g>
</g>
<!-- Node5&#45;&gt;Node8 -->
<g id="edge8" class="edge">
<title>Node5&#45;&gt;Node8</title>
<path fill="none" stroke="midnightblue" d="M315.52,-224.32C328.63,-215.9 348.74,-202.97 364.13,-193.07"/>
<polygon fill="midnightblue" stroke="midnightblue" points="366.05,-196.01 372.57,-187.65 362.26,-190.12 366.05,-196.01"/>
</g>
<!-- Node10 -->
<g id="node10" class="node">
<title>Node10</title>
<g id="a_node10"><a xlink:href="bwIconInterface_8h.html" target="_top" xlink:title=" ">
<polygon fill="none" stroke="black" points="159.53,-168.5 159.53,-187.5 254.53,-187.5 254.53,-168.5 159.53,-168.5"/>
<text text-anchor="middle" x="207.03" y="-175.5" font-family="Helvetica,sans-Serif" font-size="10.00">bwIconInterface.h</text>
</a>
</g>
</g>
<!-- Node5&#45;&gt;Node10 -->
<g id="edge11" class="edge">
<title>Node5&#45;&gt;Node10</title>
<path fill="none" stroke="midnightblue" d="M286.76,-224.32C271.81,-215.82 248.77,-202.73 231.3,-192.8"/>
<polygon fill="midnightblue" stroke="midnightblue" points="232.68,-189.55 222.25,-187.65 229.22,-195.64 232.68,-189.55"/>
</g>
<!-- Node8&#45;&gt;Node4 -->
<g id="edge10" class="edge">
<title>Node8&#45;&gt;Node4</title>
<path fill="none" stroke="midnightblue" d="M386.69,-168.08C387.21,-161.01 387.96,-150.86 388.62,-141.99"/>
<polygon fill="midnightblue" stroke="midnightblue" points="392.13,-141.98 389.38,-131.75 385.15,-141.47 392.13,-141.98"/>
</g>
<!-- Node9 -->
<g id="node9" class="node">
<title>Node9</title>
<g id="a_node9"><a xlink:href="bwColor_8h.html" target="_top" xlink:title=" ">
<polygon fill="none" stroke="black" points="449.03,-112.5 449.03,-131.5 509.03,-131.5 509.03,-112.5 449.03,-112.5"/>
<text text-anchor="middle" x="479.03" y="-119.5" font-family="Helvetica,sans-Serif" font-size="10.00">bwColor.h</text>
</a>
</g>
</g>
<!-- Node8&#45;&gt;Node9 -->
<g id="edge9" class="edge">
<title>Node8&#45;&gt;Node9</title>
<path fill="none" stroke="midnightblue" d="M400.97,-168.32C415.61,-159.82 438.16,-146.73 455.27,-136.8"/>
<polygon fill="midnightblue" stroke="midnightblue" points="457.23,-139.7 464.12,-131.65 453.72,-133.65 457.23,-139.7"/>
</g>
<!-- Node11&#45;&gt;Node3 -->
<g id="edge14" class="edge">
<title>Node11&#45;&gt;Node3</title>
<path fill="none" stroke="midnightblue" d="M47.4,-112.32C59.19,-104.06 77.16,-91.45 91.16,-81.63"/>
<polygon fill="midnightblue" stroke="midnightblue" points="93.51,-84.26 99.69,-75.65 89.49,-78.53 93.51,-84.26"/>
</g>
<!-- Node12 -->
<g id="node12" class="node">
<title>Node12</title>
<g id="a_node12"><a xlink:title=" ">
<polygon fill="none" stroke="#bfbfbf" points="611.03,-56.5 611.03,-75.5 649.03,-75.5 649.03,-56.5 611.03,-56.5"/>
<text text-anchor="middle" x="630.03" y="-63.5" font-family="Helvetica,sans-Serif" font-size="10.00">array</text>
</a>
</g>
</g>
<!-- Node11&#45;&gt;Node12 -->
<g id="edge13" class="edge">
<title>Node11&#45;&gt;Node12</title>
<path fill="none" stroke="midnightblue" d="M65.35,-118.25C167.83,-108.95 500.45,-78.76 600.98,-69.64"/>
<polygon fill="midnightblue" stroke="midnightblue" points="601.38,-73.11 611.03,-68.72 600.75,-66.14 601.38,-73.11"/>
</g>
<!-- Node14 -->
<g id="node14" class="node">
<title>Node14</title>
<g id="a_node14"><a xlink:title=" ">
<polygon fill="none" stroke="#bfbfbf" points="1071.53,-56.5 1071.53,-75.5 1100.53,-75.5 1100.53,-56.5 1071.53,-56.5"/>
<text text-anchor="middle" x="1086.03" y="-63.5" font-family="Helvetica,sans-Serif" font-size="10.00">list</text>
</a>
</g>
</g>
<!-- Node13&#45;&gt;Node14 -->
<g id="edge16" class="edge">
<title>Node13&#45;&gt;Node14</title>
<path fill="none" stroke="midnightblue" d="M738.86,-280.37C790.52,-259.41 923.18,-202.31 1020.03,-132 1039.64,-117.76 1059.04,-97.76 1071.67,-83.71"/>
<polygon fill="midnightblue" stroke="midnightblue" points="1074.62,-85.66 1078.61,-75.84 1069.37,-81.03 1074.62,-85.66"/>
</g>
<!-- Node15 -->
<g id="node15" class="node">
<title>Node15</title>
<g id="a_node15"><a xlink:href="bwContainerWidget_8h.html" target="_top" xlink:title=" ">
<polygon fill="none" stroke="black" points="662.03,-224.5 662.03,-243.5 772.03,-243.5 772.03,-224.5 662.03,-224.5"/>
<text text-anchor="middle" x="717.03" y="-231.5" font-family="Helvetica,sans-Serif" font-size="10.00">bwContainerWidget.h</text>
</a>
</g>
</g>
<!-- Node13&#45;&gt;Node15 -->
<g id="edge17" class="edge">
<title>Node13&#45;&gt;Node15</title>
<path fill="none" stroke="midnightblue" d="M717.03,-280.08C717.03,-273.01 717.03,-262.86 717.03,-253.99"/>
<polygon fill="midnightblue" stroke="midnightblue" points="720.53,-253.75 717.03,-243.75 713.53,-253.75 720.53,-253.75"/>
</g>
<!-- Node16 -->
<g id="node16" class="node">
<title>Node16</title>
<g id="a_node16"><a xlink:href="bwWidget_8h.html" target="_top" xlink:title=" ">
<polygon fill="none" stroke="black" points="757.03,-168.5 757.03,-187.5 825.03,-187.5 825.03,-168.5 757.03,-168.5"/>
<text text-anchor="middle" x="791.03" y="-175.5" font-family="Helvetica,sans-Serif" font-size="10.00">bwWidget.h</text>
</a>
</g>
</g>
<!-- Node13&#45;&gt;Node16 -->
<g id="edge40" class="edge">
<title>Node13&#45;&gt;Node16</title>
<path fill="none" stroke="midnightblue" d="M736.83,-280.4C751.49,-272.95 770.64,-260.74 781.03,-244 789.59,-230.21 791.72,-211.68 791.93,-197.94"/>
<polygon fill="midnightblue" stroke="midnightblue" points="795.43,-197.66 791.75,-187.73 788.43,-197.79 795.43,-197.66"/>
</g>
<!-- Node27 -->
<g id="node27" class="node">
<title>Node27</title>
<g id="a_node27"><a xlink:href="bwLayoutInterface_8h.html" target="_top" xlink:title=" ">
<polygon fill="none" stroke="black" points="538.53,-224.5 538.53,-243.5 643.53,-243.5 643.53,-224.5 538.53,-224.5"/>
<text text-anchor="middle" x="591.03" y="-231.5" font-family="Helvetica,sans-Serif" font-size="10.00">bwLayoutInterface.h</text>
</a>
</g>
</g>
<!-- Node13&#45;&gt;Node27 -->
<g id="edge38" class="edge">
<title>Node13&#45;&gt;Node27</title>
<path fill="none" stroke="midnightblue" d="M697.06,-280.44C676.42,-271.6 643.97,-257.69 620.4,-247.59"/>
<polygon fill="midnightblue" stroke="midnightblue" points="621.47,-244.24 610.9,-243.52 618.71,-250.67 621.47,-244.24"/>
</g>
<!-- Node15&#45;&gt;Node16 -->
<g id="edge18" class="edge">
<title>Node15&#45;&gt;Node16</title>
<path fill="none" stroke="midnightblue" d="M728.92,-224.32C740.18,-216.11 757.31,-203.6 770.74,-193.81"/>
<polygon fill="midnightblue" stroke="midnightblue" points="772.91,-196.56 778.92,-187.83 768.78,-190.9 772.91,-196.56"/>
</g>
<!-- Node26 -->
<g id="node26" class="node">
<title>Node26</title>
<g id="a_node26"><a xlink:href="bwWidgetBaseStyle_8h.html" target="_top" xlink:title=" ">
<polygon fill="none" stroke="black" points="597.53,-168.5 597.53,-187.5 710.53,-187.5 710.53,-168.5 597.53,-168.5"/>
<text text-anchor="middle" x="654.03" y="-175.5" font-family="Helvetica,sans-Serif" font-size="10.00">bwWidgetBaseStyle.h</text>
</a>
</g>
</g>
<!-- Node15&#45;&gt;Node26 -->
<g id="edge36" class="edge">
<title>Node15&#45;&gt;Node26</title>
<path fill="none" stroke="midnightblue" d="M706.91,-224.32C697.5,-216.26 683.28,-204.08 671.96,-194.37"/>
<polygon fill="midnightblue" stroke="midnightblue" points="674.2,-191.68 664.33,-187.83 669.65,-197 674.2,-191.68"/>
</g>
<!-- Node16&#45;&gt;Node4 -->
<g id="edge25" class="edge">
<title>Node16&#45;&gt;Node4</title>
<path fill="none" stroke="midnightblue" d="M756.95,-172.68C678.98,-162.79 491,-138.9 441.22,-132.02"/>
<polygon fill="midnightblue" stroke="midnightblue" points="441.6,-128.54 431.2,-130.58 440.6,-135.47 441.6,-128.54"/>
</g>
<!-- Node17 -->
<g id="node17" class="node">
<title>Node17</title>
<g id="a_node17"><a xlink:title=" ">
<polygon fill="none" stroke="#bfbfbf" points="994.03,-56.5 994.03,-75.5 1044.03,-75.5 1044.03,-56.5 994.03,-56.5"/>
<text text-anchor="middle" x="1019.03" y="-63.5" font-family="Helvetica,sans-Serif" font-size="10.00">optional</text>
</a>
</g>
</g>
<!-- Node16&#45;&gt;Node17 -->
<g id="edge19" class="edge">
<title>Node16&#45;&gt;Node17</title>
<path fill="none" stroke="midnightblue" d="M825.39,-173.84C877.99,-168.33 975.03,-155.26 1000.03,-132 1012.66,-120.25 1017.06,-100.61 1018.5,-85.98"/>
<polygon fill="midnightblue" stroke="midnightblue" points="1022.02,-85.77 1019.13,-75.58 1015.04,-85.35 1022.02,-85.77"/>
</g>
<!-- Node18 -->
<g id="node18" class="node">
<title>Node18</title>
<g id="a_node18"><a xlink:title=" ">
<polygon fill="none" stroke="#bfbfbf" points="649.53,-112.5 649.53,-131.5 700.53,-131.5 700.53,-112.5 649.53,-112.5"/>
<text text-anchor="middle" x="675.03" y="-119.5" font-family="Helvetica,sans-Serif" font-size="10.00">typeinfo</text>
</a>
</g>
</g>
<!-- Node16&#45;&gt;Node18 -->
<g id="edge20" class="edge">
<title>Node16&#45;&gt;Node18</title>
<path fill="none" stroke="midnightblue" d="M772.65,-168.44C753.81,-159.68 724.3,-145.94 702.65,-135.86"/>
<polygon fill="midnightblue" stroke="midnightblue" points="703.87,-132.56 693.32,-131.52 700.91,-138.91 703.87,-132.56"/>
</g>
<!-- Node19 -->
<g id="node19" class="node">
<title>Node19</title>
<g id="a_node19"><a xlink:href="bwDistance_8h.html" target="_top" xlink:title=" ">
<polygon fill="none" stroke="black" points="1123.53,-112.5 1123.53,-131.5 1200.53,-131.5 1200.53,-112.5 1123.53,-112.5"/>
<text text-anchor="middle" x="1162.03" y="-119.5" font-family="Helvetica,sans-Serif" font-size="10.00">bwDistance.h</text>
</a>
</g>
</g>
<!-- Node16&#45;&gt;Node19 -->
<g id="edge21" class="edge">
<title>Node16&#45;&gt;Node19</title>
<path fill="none" stroke="midnightblue" d="M825.27,-172.02C891.4,-162.39 1036.89,-141.21 1113.17,-130.11"/>
<polygon fill="midnightblue" stroke="midnightblue" points="1114.07,-133.52 1123.46,-128.61 1113.06,-126.59 1114.07,-133.52"/>
</g>
<!-- Node21 -->
<g id="node21" class="node">
<title>Node21</title>
<g id="a_node21"><a xlink:href="bwFunctorInterface_8h.html" target="_top" xlink:title=" ">
<polygon fill="none" stroke="black" points="881.53,-112.5 881.53,-131.5 990.53,-131.5 990.53,-112.5 881.53,-112.5"/>
<text text-anchor="middle" x="936.03" y="-119.5" font-family="Helvetica,sans-Serif" font-size="10.00">bwFunctorInterface.h</text>
</a>
</g>
</g>
<!-- Node16&#45;&gt;Node21 -->
<g id="edge24" class="edge">
<title>Node16&#45;&gt;Node21</title>
<path fill="none" stroke="midnightblue" d="M814,-168.44C838.19,-159.44 876.45,-145.19 903.67,-135.05"/>
<polygon fill="midnightblue" stroke="midnightblue" points="905.01,-138.29 913.16,-131.52 902.57,-131.73 905.01,-138.29"/>
</g>
<!-- Node22 -->
<g id="node22" class="node">
<title>Node22</title>
<g id="a_node22"><a xlink:href="bwStyleProperties_8h.html" target="_top" xlink:title=" ">
<polygon fill="none" stroke="black" points="527.03,-112.5 527.03,-131.5 631.03,-131.5 631.03,-112.5 527.03,-112.5"/>
<text text-anchor="middle" x="579.03" y="-119.5" font-family="Helvetica,sans-Serif" font-size="10.00">bwStyleProperties.h</text>
</a>
</g>
</g>
<!-- Node16&#45;&gt;Node22 -->
<g id="edge26" class="edge">
<title>Node16&#45;&gt;Node22</title>
<path fill="none" stroke="midnightblue" d="M757.44,-168.44C720.84,-159.12 662.19,-144.18 622.2,-134"/>
<polygon fill="midnightblue" stroke="midnightblue" points="623.02,-130.59 612.46,-131.52 621.29,-137.38 623.02,-130.59"/>
</g>
<!-- Node23 -->
<g id="node23" class="node">
<title>Node23</title>
<g id="a_node23"><a xlink:href="EventHandler_8h.html" target="_top" xlink:title=" ">
<polygon fill="none" stroke="black" points="718.53,-112.5 718.53,-131.5 863.53,-131.5 863.53,-112.5 718.53,-112.5"/>
<text text-anchor="middle" x="791.03" y="-119.5" font-family="Helvetica,sans-Serif" font-size="10.00">screen_graph/EventHandler.h</text>
</a>
</g>
</g>
<!-- Node16&#45;&gt;Node23 -->
<g id="edge31" class="edge">
<title>Node16&#45;&gt;Node23</title>
<path fill="none" stroke="midnightblue" d="M791.03,-168.08C791.03,-161.01 791.03,-150.86 791.03,-141.99"/>
<polygon fill="midnightblue" stroke="midnightblue" points="794.53,-141.75 791.03,-131.75 787.53,-141.75 794.53,-141.75"/>
</g>
<!-- Node20 -->
<g id="node20" class="node">
<title>Node20</title>
<g id="a_node20"><a xlink:href="bwPoint_8h.html" target="_top" xlink:title=" ">
<polygon fill="none" stroke="black" points="1165.03,-56.5 1165.03,-75.5 1225.03,-75.5 1225.03,-56.5 1165.03,-56.5"/>
<text text-anchor="middle" x="1195.03" y="-63.5" font-family="Helvetica,sans-Serif" font-size="10.00">bwPoint.h</text>
</a>
</g>
</g>
<!-- Node19&#45;&gt;Node20 -->
<g id="edge22" class="edge">
<title>Node19&#45;&gt;Node20</title>
<path fill="none" stroke="midnightblue" d="M1167.48,-112.08C1172.04,-104.61 1178.7,-93.72 1184.32,-84.52"/>
<polygon fill="midnightblue" stroke="midnightblue" points="1187.45,-86.11 1189.68,-75.75 1181.48,-82.46 1187.45,-86.11"/>
</g>
<!-- Node20&#45;&gt;Node7 -->
<g id="edge23" class="edge">
<title>Node20&#45;&gt;Node7</title>
<path fill="none" stroke="midnightblue" d="M1164.75,-61.64C1148.53,-59.88 1128.2,-57.73 1110.03,-56 920.99,-37.98 693.74,-19.93 611.07,-13.48"/>
<polygon fill="midnightblue" stroke="midnightblue" points="611.29,-9.99 601.05,-12.7 610.74,-16.97 611.29,-9.99"/>
</g>
<!-- Node22&#45;&gt;Node3 -->
<g id="edge29" class="edge">
<title>Node22&#45;&gt;Node3</title>
<path fill="none" stroke="midnightblue" d="M526.8,-113.17C523.84,-112.76 520.89,-112.37 518.03,-112 378.16,-93.94 210.6,-76.78 142.77,-70.03"/>
<polygon fill="midnightblue" stroke="midnightblue" points="143.06,-66.54 132.76,-69.03 142.37,-73.5 143.06,-66.54"/>
</g>
<!-- Node22&#45;&gt;Node6 -->
<g id="edge27" class="edge">
<title>Node22&#45;&gt;Node6</title>
<path fill="none" stroke="midnightblue" d="M555.58,-112.44C530.9,-103.44 491.84,-89.19 464.05,-79.05"/>
<polygon fill="midnightblue" stroke="midnightblue" points="464.96,-75.66 454.37,-75.52 462.56,-82.23 464.96,-75.66"/>
</g>
<!-- Node22&#45;&gt;Node7 -->
<g id="edge30" class="edge">
<title>Node22&#45;&gt;Node7</title>
<path fill="none" stroke="midnightblue" d="M579.03,-112.37C579.03,-94.62 579.03,-53.67 579.03,-29.6"/>
<polygon fill="midnightblue" stroke="midnightblue" points="582.53,-29.59 579.03,-19.59 575.53,-29.59 582.53,-29.59"/>
</g>
<!-- Node22&#45;&gt;Node17 -->
<g id="edge28" class="edge">
<title>Node22&#45;&gt;Node17</title>
<path fill="none" stroke="midnightblue" d="M631.11,-113.34C634.47,-112.88 637.79,-112.43 641.03,-112 766.97,-95.37 916.89,-78.34 983.78,-70.89"/>
<polygon fill="midnightblue" stroke="midnightblue" points="984.23,-74.36 993.79,-69.78 983.46,-67.4 984.23,-74.36"/>
</g>
<!-- Node23&#45;&gt;Node12 -->
<g id="edge32" class="edge">
<title>Node23&#45;&gt;Node12</title>
<path fill="none" stroke="midnightblue" d="M765.52,-112.44C736.52,-102.72 689.29,-86.88 658.95,-76.7"/>
<polygon fill="midnightblue" stroke="midnightblue" points="659.95,-73.34 649.36,-73.48 657.72,-79.98 659.95,-73.34"/>
</g>
<!-- Node23&#45;&gt;Node14 -->
<g id="edge34" class="edge">
<title>Node23&#45;&gt;Node14</title>
<path fill="none" stroke="midnightblue" d="M850.4,-112.47C903.71,-104.42 983.98,-91.31 1053.03,-76 1055.76,-75.39 1058.6,-74.71 1061.43,-73.99"/>
<polygon fill="midnightblue" stroke="midnightblue" points="1062.57,-77.31 1071.32,-71.34 1060.75,-70.54 1062.57,-77.31"/>
</g>
<!-- Node24 -->
<g id="node24" class="node">
<title>Node24</title>
<g id="a_node24"><a xlink:title=" ">
<polygon fill="none" stroke="#bfbfbf" points="716.53,-56.5 716.53,-75.5 775.53,-75.5 775.53,-56.5 716.53,-56.5"/>
<text text-anchor="middle" x="746.03" y="-63.5" font-family="Helvetica,sans-Serif" font-size="10.00">functional</text>
</a>
</g>
</g>
<!-- Node23&#45;&gt;Node24 -->
<g id="edge33" class="edge">
<title>Node23&#45;&gt;Node24</title>
<path fill="none" stroke="midnightblue" d="M783.6,-112.08C777.18,-104.38 767.72,-93.03 759.91,-83.65"/>
<polygon fill="midnightblue" stroke="midnightblue" points="762.41,-81.19 753.32,-75.75 757.03,-85.67 762.41,-81.19"/>
</g>
<!-- Node25 -->
<g id="node25" class="node">
<title>Node25</title>
<g id="a_node25"><a xlink:title=" ">
<polygon fill="none" stroke="#bfbfbf" points="793.53,-56.5 793.53,-75.5 876.53,-75.5 876.53,-56.5 793.53,-56.5"/>
<text text-anchor="middle" x="835.03" y="-63.5" font-family="Helvetica,sans-Serif" font-size="10.00">unordered_map</text>
</a>
</g>
</g>
<!-- Node23&#45;&gt;Node25 -->
<g id="edge35" class="edge">
<title>Node23&#45;&gt;Node25</title>
<path fill="none" stroke="midnightblue" d="M798.29,-112.08C804.57,-104.38 813.82,-93.03 821.46,-83.65"/>
<polygon fill="midnightblue" stroke="midnightblue" points="824.29,-85.71 827.9,-75.75 818.87,-81.29 824.29,-85.71"/>
</g>
<!-- Node26&#45;&gt;Node9 -->
<g id="edge37" class="edge">
<title>Node26&#45;&gt;Node9</title>
<path fill="none" stroke="midnightblue" d="M626.3,-168.44C596.6,-159.28 549.31,-144.69 516.36,-134.52"/>
<polygon fill="midnightblue" stroke="midnightblue" points="517.22,-131.12 506.63,-131.52 515.15,-137.81 517.22,-131.12"/>
</g>
<!-- Node27&#45;&gt;Node4 -->
<g id="edge39" class="edge">
<title>Node27&#45;&gt;Node4</title>
<path fill="none" stroke="midnightblue" d="M575.26,-224.37C540.4,-205.29 456.58,-159.42 414.71,-136.51"/>
<polygon fill="midnightblue" stroke="midnightblue" points="416.18,-133.32 405.73,-131.59 412.82,-139.46 416.18,-133.32"/>
</g>
<!-- Node29 -->
<g id="node29" class="node">
<title>Node29</title>
<g id="a_node29"><a xlink:href="bwContext_8h.html" target="_top" xlink:title=" ">
<polygon fill="none" stroke="black" points="1220.03,-224.5 1220.03,-243.5 1292.03,-243.5 1292.03,-224.5 1220.03,-224.5"/>
<text text-anchor="middle" x="1256.03" y="-231.5" font-family="Helvetica,sans-Serif" font-size="10.00">bwContext.h</text>
</a>
</g>
</g>
<!-- Node28&#45;&gt;Node29 -->
<g id="edge42" class="edge">
<title>Node28&#45;&gt;Node29</title>
<path fill="none" stroke="midnightblue" d="M1164.54,-280.32C1182.1,-271.62 1209.36,-258.12 1229.56,-248.11"/>
<polygon fill="midnightblue" stroke="midnightblue" points="1231.15,-251.23 1238.56,-243.65 1228.04,-244.96 1231.15,-251.23"/>
</g>
<!-- Node30 -->
<g id="node30" class="node">
<title>Node30</title>
<g id="a_node30"><a xlink:href="bwEventDispatcher_8h.html" target="_top" xlink:title=" ">
<polygon fill="none" stroke="black" points="1092.03,-224.5 1092.03,-243.5 1202.03,-243.5 1202.03,-224.5 1092.03,-224.5"/>
<text text-anchor="middle" x="1147.03" y="-231.5" font-family="Helvetica,sans-Serif" font-size="10.00">bwEventDispatcher.h</text>
</a>
</g>
</g>
<!-- Node28&#45;&gt;Node30 -->
<g id="edge43" class="edge">
<title>Node28&#45;&gt;Node30</title>
<path fill="none" stroke="midnightblue" d="M1147.03,-280.08C1147.03,-273.01 1147.03,-262.86 1147.03,-253.99"/>
<polygon fill="midnightblue" stroke="midnightblue" points="1150.53,-253.75 1147.03,-243.75 1143.53,-253.75 1150.53,-253.75"/>
</g>
<!-- Node30&#45;&gt;Node17 -->
<g id="edge44" class="edge">
<title>Node30&#45;&gt;Node17</title>
<path fill="none" stroke="midnightblue" d="M1140.15,-224.08C1119.65,-197.49 1058.77,-118.54 1031.95,-83.76"/>
<polygon fill="midnightblue" stroke="midnightblue" points="1034.51,-81.35 1025.63,-75.57 1028.97,-85.62 1034.51,-81.35"/>
</g>
<!-- Node30&#45;&gt;Node20 -->
<g id="edge48" class="edge">
<title>Node30&#45;&gt;Node20</title>
<path fill="none" stroke="midnightblue" d="M1161.68,-224.32C1174.16,-216.27 1191.8,-203.27 1203.03,-188 1218.87,-166.46 1220.05,-158.27 1225.03,-132 1226.68,-123.27 1227.6,-120.51 1225.03,-112 1221.91,-101.7 1215.58,-91.61 1209.53,-83.6"/>
<polygon fill="midnightblue" stroke="midnightblue" points="1212.25,-81.4 1203.24,-75.82 1206.8,-85.8 1212.25,-81.4"/>
</g>
<!-- Node31 -->
<g id="node31" class="node">
<title>Node31</title>
<g id="a_node31"><a xlink:href="bwEvent_8h.html" target="_top" xlink:title=" ">
<polygon fill="none" stroke="black" points="1130.53,-168.5 1130.53,-187.5 1193.53,-187.5 1193.53,-168.5 1130.53,-168.5"/>
<text text-anchor="middle" x="1162.03" y="-175.5" font-family="Helvetica,sans-Serif" font-size="10.00">bwEvent.h</text>
</a>
</g>
</g>
<!-- Node30&#45;&gt;Node31 -->
<g id="edge45" class="edge">
<title>Node30&#45;&gt;Node31</title>
<path fill="none" stroke="midnightblue" d="M1149.51,-224.08C1151.51,-216.85 1154.41,-206.41 1156.92,-197.4"/>
<polygon fill="midnightblue" stroke="midnightblue" points="1160.29,-198.32 1159.6,-187.75 1153.55,-196.45 1160.29,-198.32"/>
</g>
<!-- Node31&#45;&gt;Node19 -->
<g id="edge46" class="edge">
<title>Node31&#45;&gt;Node19</title>
<path fill="none" stroke="midnightblue" d="M1162.03,-168.08C1162.03,-161.01 1162.03,-150.86 1162.03,-141.99"/>
<polygon fill="midnightblue" stroke="midnightblue" points="1165.53,-141.75 1162.03,-131.75 1158.53,-141.75 1165.53,-141.75"/>
</g>
<!-- Node31&#45;&gt;Node20 -->
<g id="edge47" class="edge">
<title>Node31&#45;&gt;Node20</title>
<path fill="none" stroke="midnightblue" d="M1176.4,-168.33C1187.91,-160.47 1203.22,-147.72 1210.03,-132 1216.63,-116.76 1211.13,-98.19 1205.01,-84.81"/>
<polygon fill="midnightblue" stroke="midnightblue" points="1208.05,-83.06 1200.4,-75.73 1201.8,-86.23 1208.05,-83.06"/>
</g>
<!-- Node32&#45;&gt;Node4 -->
<g id="edge51" class="edge">
<title>Node32&#45;&gt;Node4</title>
<path fill="none" stroke="midnightblue" d="M451.36,-280.27C451.79,-259.63 450.84,-206.62 432.03,-168 426.57,-156.79 417.36,-146.45 408.95,-138.51"/>
<polygon fill="midnightblue" stroke="midnightblue" points="411.08,-135.73 401.28,-131.69 406.43,-140.95 411.08,-135.73"/>
</g>
<!-- Node33 -->
<g id="node33" class="node">
<title>Node33</title>
<g id="a_node33"><a xlink:title=" ">
<polygon fill="none" stroke="#bfbfbf" points="479.53,-224.5 479.53,-243.5 520.53,-243.5 520.53,-224.5 479.53,-224.5"/>
<text text-anchor="middle" x="500.03" y="-231.5" font-family="Helvetica,sans-Serif" font-size="10.00">stack</text>
</a>
</g>
</g>
<!-- Node32&#45;&gt;Node33 -->
<g id="edge50" class="edge">
<title>Node32&#45;&gt;Node33</title>
<path fill="none" stroke="midnightblue" d="M459.12,-280.08C466.18,-272.3 476.62,-260.8 485.18,-251.37"/>
<polygon fill="midnightblue" stroke="midnightblue" points="487.96,-253.51 492.09,-243.75 482.78,-248.8 487.96,-253.51"/>
</g>
</g>
</svg>
