<?xml version="1.0" encoding="UTF-8" standalone="no"?>
<!DOCTYPE svg PUBLIC "-//W3C//DTD SVG 1.1//EN"
 "http://www.w3.org/Graphics/SVG/1.1/DTD/svg11.dtd">
<!-- Generated by graphviz version 2.50.0 (20211204.2007)
 -->
<!-- Title: bwidgets/screen_graph/Drawer.h Pages: 1 -->
<svg width="276pt" height="106pt"
 viewBox="0.00 0.00 276.00 106.00" xmlns="http://www.w3.org/2000/svg" xmlns:xlink="http://www.w3.org/1999/xlink">
<g id="graph0" class="graph" transform="scale(1 1) rotate(0) translate(4 102)">
<title>bwidgets/screen_graph/Drawer.h</title>
<!-- Node1 -->
<g id="node1" class="node">
<title>Node1</title>
<g id="a_node1"><a xlink:title=" ">
<polygon fill="#bfbfbf" stroke="black" points="71,-67.5 71,-97.5 188,-97.5 188,-67.5 71,-67.5"/>
<text text-anchor="start" x="79" y="-85.5" font-family="Helvetica,sans-Serif" font-size="10.00">bwidgets/screen_graph</text>
<text text-anchor="middle" x="129.5" y="-74.5" font-family="Helvetica,sans-Serif" font-size="10.00">/Drawer.h</text>
</a>
</g>
</g>
<!-- Node2 -->
<g id="node2" class="node">
<title>Node2</title>
<g id="a_node2"><a xlink:href="Drawer_8cc.html" target="_top" xlink:title=" ">
<polygon fill="none" stroke="black" points="0,-0.5 0,-30.5 117,-30.5 117,-0.5 0,-0.5"/>
<text text-anchor="start" x="8" y="-18.5" font-family="Helvetica,sans-Serif" font-size="10.00">bwidgets/screen_graph</text>
<text text-anchor="middle" x="58.5" y="-7.5" font-family="Helvetica,sans-Serif" font-size="10.00">/Drawer.cc</text>
</a>
</g>
</g>
<!-- Node1&#45;&gt;Node2 -->
<g id="edge1" class="edge">
<title>Node1&#45;&gt;Node2</title>
<path fill="none" stroke="midnightblue" d="M106.67,-60.6C95.95,-50.78 83.45,-39.34 73.88,-30.58"/>
<polygon fill="midnightblue" stroke="midnightblue" points="104.35,-63.22 114.09,-67.4 109.08,-58.06 104.35,-63.22"/>
</g>
<!-- Node3 -->
<g id="node3" class="node">
<title>Node3</title>
<g id="a_node3"><a xlink:href="bwScrollView_8cc.html" target="_top" xlink:title=" ">
<polygon fill="none" stroke="black" points="135,-0.5 135,-30.5 268,-30.5 268,-0.5 135,-0.5"/>
<text text-anchor="start" x="143" y="-18.5" font-family="Helvetica,sans-Serif" font-size="10.00">bwidgets/widgets/bwScroll</text>
<text text-anchor="middle" x="201.5" y="-7.5" font-family="Helvetica,sans-Serif" font-size="10.00">View.cc</text>
</a>
</g>
</g>
<!-- Node1&#45;&gt;Node3 -->
<g id="edge2" class="edge">
<title>Node1&#45;&gt;Node3</title>
<path fill="none" stroke="midnightblue" d="M152.65,-60.6C163.52,-50.78 176.2,-39.34 185.91,-30.58"/>
<polygon fill="midnightblue" stroke="midnightblue" points="150.2,-58.1 145.12,-67.4 154.89,-63.29 150.2,-58.1"/>
</g>
</g>
</svg>
