<?xml version="1.0" encoding="UTF-8" standalone="no"?>
<!DOCTYPE svg PUBLIC "-//W3C//DTD SVG 1.1//EN"
 "http://www.w3.org/Graphics/SVG/1.1/DTD/svg11.dtd">
<!-- Generated by graphviz version 2.50.0 (20211204.2007)
 -->
<!-- Title: bwidgets/screen_graph/EventHandler.h Pages: 1 -->
<svg width="2412pt" height="363pt"
 viewBox="0.00 0.00 2411.80 363.00" xmlns="http://www.w3.org/2000/svg" xmlns:xlink="http://www.w3.org/1999/xlink">
<g id="graph0" class="graph" transform="scale(1 1) rotate(0) translate(4 359)">
<title>bwidgets/screen_graph/EventHandler.h</title>
<!-- Node1 -->
<g id="node1" class="node">
<title>Node1</title>
<g id="a_node1"><a xlink:title=" ">
<polygon fill="#bfbfbf" stroke="black" points="2131.8,-324.5 2131.8,-354.5 2248.8,-354.5 2248.8,-324.5 2131.8,-324.5"/>
<text text-anchor="start" x="2139.8" y="-342.5" font-family="Helvetica,sans-Serif" font-size="10.00">bwidgets/screen_graph</text>
<text text-anchor="middle" x="2190.3" y="-331.5" font-family="Helvetica,sans-Serif" font-size="10.00">/EventHandler.h</text>
</a>
</g>
</g>
<!-- Node2 -->
<g id="node2" class="node">
<title>Node2</title>
<g id="a_node2"><a xlink:href="bwEventDispatcher_8cc.html" target="_top" xlink:title=" ">
<polygon fill="none" stroke="black" points="2111.8,-73 2111.8,-92 2268.8,-92 2268.8,-73 2111.8,-73"/>
<text text-anchor="middle" x="2190.3" y="-80" font-family="Helvetica,sans-Serif" font-size="10.00">bwidgets/bwEventDispatcher.cc</text>
</a>
</g>
</g>
<!-- Node1&#45;&gt;Node2 -->
<g id="edge1" class="edge">
<title>Node1&#45;&gt;Node2</title>
<path fill="none" stroke="midnightblue" d="M2190.3,-314.21C2190.3,-259.21 2190.3,-127.19 2190.3,-92.16"/>
<polygon fill="midnightblue" stroke="midnightblue" points="2186.8,-314.43 2190.3,-324.43 2193.8,-314.43 2186.8,-314.43"/>
</g>
<!-- Node3 -->
<g id="node3" class="node">
<title>Node3</title>
<g id="a_node3"><a xlink:href="EventHandler_8cc.html" target="_top" xlink:title=" ">
<polygon fill="none" stroke="black" points="2286.8,-67.5 2286.8,-97.5 2403.8,-97.5 2403.8,-67.5 2286.8,-67.5"/>
<text text-anchor="start" x="2294.8" y="-85.5" font-family="Helvetica,sans-Serif" font-size="10.00">bwidgets/screen_graph</text>
<text text-anchor="middle" x="2345.3" y="-74.5" font-family="Helvetica,sans-Serif" font-size="10.00">/EventHandler.cc</text>
</a>
</g>
</g>
<!-- Node1&#45;&gt;Node3 -->
<g id="edge2" class="edge">
<title>Node1&#45;&gt;Node3</title>
<path fill="none" stroke="midnightblue" d="M2204.17,-315.67C2235.57,-264.02 2311.29,-139.44 2336.77,-97.53"/>
<polygon fill="midnightblue" stroke="midnightblue" points="2201.05,-314.06 2198.85,-324.43 2207.04,-317.7 2201.05,-314.06"/>
</g>
<!-- Node4 -->
<g id="node4" class="node">
<title>Node4</title>
<g id="a_node4"><a xlink:href="bwWidget_8h.html" target="_top" xlink:title=" ">
<polygon fill="none" stroke="black" points="1693.8,-268.5 1693.8,-287.5 1840.8,-287.5 1840.8,-268.5 1693.8,-268.5"/>
<text text-anchor="middle" x="1767.3" y="-275.5" font-family="Helvetica,sans-Serif" font-size="10.00">bwidgets/widgets/bwWidget.h</text>
</a>
</g>
</g>
<!-- Node1&#45;&gt;Node4 -->
<g id="edge3" class="edge">
<title>Node1&#45;&gt;Node4</title>
<path fill="none" stroke="midnightblue" d="M2121.33,-328.8C2039.88,-317.34 1905.68,-298.47 1828.01,-287.54"/>
<polygon fill="midnightblue" stroke="midnightblue" points="2121.09,-332.3 2131.48,-330.23 2122.06,-325.37 2121.09,-332.3"/>
</g>
<!-- Node5 -->
<g id="node5" class="node">
<title>Node5</title>
<g id="a_node5"><a xlink:href="Builder_8h.html" target="_top" xlink:title=" ">
<polygon fill="none" stroke="black" points="1976.8,-67.5 1976.8,-97.5 2093.8,-97.5 2093.8,-67.5 1976.8,-67.5"/>
<text text-anchor="start" x="1984.8" y="-85.5" font-family="Helvetica,sans-Serif" font-size="10.00">bwidgets/screen_graph</text>
<text text-anchor="middle" x="2035.3" y="-74.5" font-family="Helvetica,sans-Serif" font-size="10.00">/Builder.h</text>
</a>
</g>
</g>
<!-- Node4&#45;&gt;Node5 -->
<g id="edge4" class="edge">
<title>Node4&#45;&gt;Node5</title>
<path fill="none" stroke="midnightblue" d="M1848.97,-266.72C1885.01,-260.06 1927.08,-249.27 1962.3,-232 2004.55,-211.28 2024.13,-207.52 2044.3,-165 2054.67,-143.13 2047.3,-114.37 2041.17,-97.51"/>
<polygon fill="midnightblue" stroke="midnightblue" points="1848.21,-263.3 1838.97,-268.5 1849.43,-270.2 1848.21,-263.3"/>
</g>
<!-- Node8 -->
<g id="node8" class="node">
<title>Node8</title>
<g id="a_node8"><a xlink:href="Node_8h.html" target="_top" xlink:title=" ">
<polygon fill="none" stroke="black" points="1918.8,-134.5 1918.8,-164.5 2035.8,-164.5 2035.8,-134.5 1918.8,-134.5"/>
<text text-anchor="start" x="1926.8" y="-152.5" font-family="Helvetica,sans-Serif" font-size="10.00">bwidgets/screen_graph</text>
<text text-anchor="middle" x="1977.3" y="-141.5" font-family="Helvetica,sans-Serif" font-size="10.00">/Node.h</text>
</a>
</g>
</g>
<!-- Node4&#45;&gt;Node8 -->
<g id="edge7" class="edge">
<title>Node4&#45;&gt;Node8</title>
<path fill="none" stroke="midnightblue" d="M1850.73,-269.02C1880.29,-262.74 1912.16,-251.61 1936.3,-232 1957.81,-214.52 1969.07,-182.85 1974.04,-164.56"/>
<polygon fill="midnightblue" stroke="midnightblue" points="1849.95,-265.61 1840.81,-270.97 1851.3,-272.48 1849.95,-265.61"/>
</g>
<!-- Node12 -->
<g id="node12" class="node">
<title>Node12</title>
<g id="a_node12"><a xlink:href="bwAbstractButton_8h.html" target="_top" xlink:title=" ">
<polygon fill="none" stroke="black" points="333.8,-201.5 333.8,-231.5 478.8,-231.5 478.8,-201.5 333.8,-201.5"/>
<text text-anchor="start" x="341.8" y="-219.5" font-family="Helvetica,sans-Serif" font-size="10.00">bwidgets/widgets/bwAbstract</text>
<text text-anchor="middle" x="406.3" y="-208.5" font-family="Helvetica,sans-Serif" font-size="10.00">Button.h</text>
</a>
</g>
</g>
<!-- Node4&#45;&gt;Node12 -->
<g id="edge15" class="edge">
<title>Node4&#45;&gt;Node12</title>
<path fill="none" stroke="midnightblue" d="M1683.63,-273.34C1436.31,-262.53 711.38,-230.84 478.93,-220.68"/>
<polygon fill="midnightblue" stroke="midnightblue" points="1683.5,-276.84 1693.64,-273.78 1683.8,-269.85 1683.5,-276.84"/>
</g>
<!-- Node26 -->
<g id="node26" class="node">
<title>Node26</title>
<g id="a_node26"><a xlink:href="bwContainerWidget_8h.html" target="_top" xlink:title=" ">
<polygon fill="none" stroke="black" points="1607.3,-201.5 1607.3,-231.5 1757.3,-231.5 1757.3,-201.5 1607.3,-201.5"/>
<text text-anchor="start" x="1615.3" y="-219.5" font-family="Helvetica,sans-Serif" font-size="10.00">bwidgets/widgets/bwContainer</text>
<text text-anchor="middle" x="1682.3" y="-208.5" font-family="Helvetica,sans-Serif" font-size="10.00">Widget.h</text>
</a>
</g>
</g>
<!-- Node4&#45;&gt;Node26 -->
<g id="edge34" class="edge">
<title>Node4&#45;&gt;Node26</title>
<path fill="none" stroke="midnightblue" d="M1746.92,-262.74C1733.41,-253.28 1715.77,-240.93 1702.33,-231.52"/>
<polygon fill="midnightblue" stroke="midnightblue" points="1744.92,-265.61 1755.12,-268.48 1748.93,-259.87 1744.92,-265.61"/>
</g>
<!-- Node31 -->
<g id="node31" class="node">
<title>Node31</title>
<g id="a_node31"><a xlink:href="bwLabel_8h.html" target="_top" xlink:title=" ">
<polygon fill="none" stroke="black" points="902.3,-207 902.3,-226 1042.3,-226 1042.3,-207 902.3,-207"/>
<text text-anchor="middle" x="972.3" y="-214" font-family="Helvetica,sans-Serif" font-size="10.00">bwidgets/widgets/bwLabel.h</text>
</a>
</g>
</g>
<!-- Node4&#45;&gt;Node31 -->
<g id="edge43" class="edge">
<title>Node4&#45;&gt;Node31</title>
<path fill="none" stroke="midnightblue" d="M1683.47,-270.73C1526.05,-258.94 1188.94,-233.71 1042.55,-222.76"/>
<polygon fill="midnightblue" stroke="midnightblue" points="1683.34,-274.23 1693.57,-271.48 1683.86,-267.25 1683.34,-274.23"/>
</g>
<!-- Node33 -->
<g id="node33" class="node">
<title>Node33</title>
<g id="a_node33"><a xlink:href="bwTextBox_8h.html" target="_top" xlink:title=" ">
<polygon fill="none" stroke="black" points="1182.3,-207 1182.3,-226 1334.3,-226 1334.3,-207 1182.3,-207"/>
<text text-anchor="middle" x="1258.3" y="-214" font-family="Helvetica,sans-Serif" font-size="10.00">bwidgets/widgets/bwTextBox.h</text>
</a>
</g>
</g>
<!-- Node4&#45;&gt;Node33 -->
<g id="edge46" class="edge">
<title>Node4&#45;&gt;Node33</title>
<path fill="none" stroke="midnightblue" d="M1684.2,-267.29C1586.08,-255.82 1424.48,-236.93 1331.09,-226.01"/>
<polygon fill="midnightblue" stroke="midnightblue" points="1684.03,-270.79 1694.37,-268.48 1684.84,-263.84 1684.03,-270.79"/>
</g>
<!-- Node37 -->
<g id="node37" class="node">
<title>Node37</title>
<g id="a_node37"><a xlink:href="bwWidget_8cc.html" target="_top" xlink:title=" ">
<polygon fill="none" stroke="black" points="1775.3,-207 1775.3,-226 1927.3,-226 1927.3,-207 1775.3,-207"/>
<text text-anchor="middle" x="1851.3" y="-214" font-family="Helvetica,sans-Serif" font-size="10.00">bwidgets/widgets/bwWidget.cc</text>
</a>
</g>
</g>
<!-- Node4&#45;&gt;Node37 -->
<g id="edge52" class="edge">
<title>Node4&#45;&gt;Node37</title>
<path fill="none" stroke="midnightblue" d="M1787.61,-262.61C1803.76,-251.17 1825.82,-235.55 1839.28,-226.01"/>
<polygon fill="midnightblue" stroke="midnightblue" points="1785.47,-259.84 1779.33,-268.48 1789.51,-265.55 1785.47,-259.84"/>
</g>
<!-- Node6 -->
<g id="node6" class="node">
<title>Node6</title>
<g id="a_node6"><a xlink:href="Builder_8cc.html" target="_top" xlink:title=" ">
<polygon fill="none" stroke="black" points="1976.8,-0.5 1976.8,-30.5 2093.8,-30.5 2093.8,-0.5 1976.8,-0.5"/>
<text text-anchor="start" x="1984.8" y="-18.5" font-family="Helvetica,sans-Serif" font-size="10.00">bwidgets/screen_graph</text>
<text text-anchor="middle" x="2035.3" y="-7.5" font-family="Helvetica,sans-Serif" font-size="10.00">/Builder.cc</text>
</a>
</g>
</g>
<!-- Node5&#45;&gt;Node6 -->
<g id="edge5" class="edge">
<title>Node5&#45;&gt;Node6</title>
<path fill="none" stroke="midnightblue" d="M2035.3,-57.11C2035.3,-48.15 2035.3,-38.32 2035.3,-30.58"/>
<polygon fill="midnightblue" stroke="midnightblue" points="2031.8,-57.4 2035.3,-67.4 2038.8,-57.4 2031.8,-57.4"/>
</g>
<!-- Node7 -->
<g id="node7" class="node">
<title>Node7</title>
<g id="a_node7"><a xlink:href="bwScrollView_8cc.html" target="_top" xlink:title=" ">
<polygon fill="none" stroke="black" points="1592.8,-0.5 1592.8,-30.5 1725.8,-30.5 1725.8,-0.5 1592.8,-0.5"/>
<text text-anchor="start" x="1600.8" y="-18.5" font-family="Helvetica,sans-Serif" font-size="10.00">bwidgets/widgets/bwScroll</text>
<text text-anchor="middle" x="1659.3" y="-7.5" font-family="Helvetica,sans-Serif" font-size="10.00">View.cc</text>
</a>
</g>
</g>
<!-- Node5&#45;&gt;Node7 -->
<g id="edge6" class="edge">
<title>Node5&#45;&gt;Node7</title>
<path fill="none" stroke="midnightblue" d="M1966.7,-66.94C1877.47,-50.27 1786.08,-35.72 1725.85,-26.48"/>
<polygon fill="midnightblue" stroke="midnightblue" points="1966.25,-70.42 1976.73,-68.83 1967.54,-63.54 1966.25,-70.42"/>
</g>
<!-- Node8&#45;&gt;Node2 -->
<g id="edge8" class="edge">
<title>Node8&#45;&gt;Node2</title>
<path fill="none" stroke="midnightblue" d="M2032.97,-131.51C2074.54,-118.83 2129.6,-102.02 2162.35,-92.03"/>
<polygon fill="midnightblue" stroke="midnightblue" points="2031.79,-128.21 2023.25,-134.48 2033.84,-134.9 2031.79,-128.21"/>
</g>
<!-- Node8&#45;&gt;Node3 -->
<g id="edge11" class="edge">
<title>Node8&#45;&gt;Node3</title>
<path fill="none" stroke="midnightblue" d="M2045.95,-137.81C2106.85,-128.12 2198.17,-113.09 2277.3,-98 2280.38,-97.41 2283.54,-96.79 2286.72,-96.16"/>
<polygon fill="midnightblue" stroke="midnightblue" points="2045.39,-134.36 2036.07,-139.38 2046.49,-141.27 2045.39,-134.36"/>
</g>
<!-- Node8&#45;&gt;Node5 -->
<g id="edge9" class="edge">
<title>Node8&#45;&gt;Node5</title>
<path fill="none" stroke="midnightblue" d="M1996.72,-126.74C2005.3,-117.12 2015.14,-106.09 2022.74,-97.58"/>
<polygon fill="midnightblue" stroke="midnightblue" points="1993.93,-124.6 1989.88,-134.4 1999.15,-129.26 1993.93,-124.6"/>
</g>
<!-- Node8&#45;&gt;Node7 -->
<g id="edge14" class="edge">
<title>Node8&#45;&gt;Node7</title>
<path fill="none" stroke="midnightblue" d="M1908.63,-134.07C1812.59,-118.57 1770.78,-154.02 1697.3,-98 1675.45,-81.34 1665.68,-49.07 1661.71,-30.52"/>
<polygon fill="midnightblue" stroke="midnightblue" points="1908.27,-137.55 1918.72,-135.85 1909.48,-130.66 1908.27,-137.55"/>
</g>
<!-- Node9 -->
<g id="node9" class="node">
<title>Node9</title>
<g id="a_node9"><a xlink:href="Drawer_8cc.html" target="_top" xlink:title=" ">
<polygon fill="none" stroke="black" points="1706.8,-67.5 1706.8,-97.5 1823.8,-97.5 1823.8,-67.5 1706.8,-67.5"/>
<text text-anchor="start" x="1714.8" y="-85.5" font-family="Helvetica,sans-Serif" font-size="10.00">bwidgets/screen_graph</text>
<text text-anchor="middle" x="1765.3" y="-74.5" font-family="Helvetica,sans-Serif" font-size="10.00">/Drawer.cc</text>
</a>
</g>
</g>
<!-- Node8&#45;&gt;Node9 -->
<g id="edge10" class="edge">
<title>Node8&#45;&gt;Node9</title>
<path fill="none" stroke="midnightblue" d="M1921.67,-131.44C1887.3,-120.91 1843.73,-107.55 1811.32,-97.61"/>
<polygon fill="midnightblue" stroke="midnightblue" points="1920.97,-134.89 1931.56,-134.48 1923.02,-128.2 1920.97,-134.89"/>
</g>
<!-- Node10 -->
<g id="node10" class="node">
<title>Node10</title>
<g id="a_node10"><a xlink:href="Iterators_8h.html" target="_top" xlink:title=" ">
<polygon fill="none" stroke="black" points="1841.8,-67.5 1841.8,-97.5 1958.8,-97.5 1958.8,-67.5 1841.8,-67.5"/>
<text text-anchor="start" x="1849.8" y="-85.5" font-family="Helvetica,sans-Serif" font-size="10.00">bwidgets/screen_graph</text>
<text text-anchor="middle" x="1900.3" y="-74.5" font-family="Helvetica,sans-Serif" font-size="10.00">/Iterators.h</text>
</a>
</g>
</g>
<!-- Node8&#45;&gt;Node10 -->
<g id="edge12" class="edge">
<title>Node8&#45;&gt;Node10</title>
<path fill="none" stroke="midnightblue" d="M1952.87,-127.88C1941.17,-118.01 1927.46,-106.43 1916.97,-97.58"/>
<polygon fill="midnightblue" stroke="midnightblue" points="1950.69,-130.62 1960.59,-134.4 1955.2,-125.27 1950.69,-130.62"/>
</g>
<!-- Node11 -->
<g id="node11" class="node">
<title>Node11</title>
<g id="a_node11"><a xlink:href="Iterators_8cc.html" target="_top" xlink:title=" ">
<polygon fill="none" stroke="black" points="1841.8,-0.5 1841.8,-30.5 1958.8,-30.5 1958.8,-0.5 1841.8,-0.5"/>
<text text-anchor="start" x="1849.8" y="-18.5" font-family="Helvetica,sans-Serif" font-size="10.00">bwidgets/screen_graph</text>
<text text-anchor="middle" x="1900.3" y="-7.5" font-family="Helvetica,sans-Serif" font-size="10.00">/Iterators.cc</text>
</a>
</g>
</g>
<!-- Node10&#45;&gt;Node11 -->
<g id="edge13" class="edge">
<title>Node10&#45;&gt;Node11</title>
<path fill="none" stroke="midnightblue" d="M1900.3,-57.11C1900.3,-48.15 1900.3,-38.32 1900.3,-30.58"/>
<polygon fill="midnightblue" stroke="midnightblue" points="1896.8,-57.4 1900.3,-67.4 1903.8,-57.4 1896.8,-57.4"/>
</g>
<!-- Node13 -->
<g id="node13" class="node">
<title>Node13</title>
<g id="a_node13"><a xlink:href="bwStyleCSS_8cc.html" target="_top" xlink:title=" ">
<polygon fill="none" stroke="black" points="238.8,-0.5 238.8,-30.5 363.8,-30.5 363.8,-0.5 238.8,-0.5"/>
<text text-anchor="start" x="246.8" y="-18.5" font-family="Helvetica,sans-Serif" font-size="10.00">bwidgets/styling/bwStyle</text>
<text text-anchor="middle" x="301.3" y="-7.5" font-family="Helvetica,sans-Serif" font-size="10.00">CSS.cc</text>
</a>
</g>
</g>
<!-- Node12&#45;&gt;Node13 -->
<g id="edge16" class="edge">
<title>Node12&#45;&gt;Node13</title>
<path fill="none" stroke="midnightblue" d="M323.3,-210.36C216.12,-202.86 40.89,-187.34 21.3,-165 -7.43,-132.26 -6.64,-100.42 21.3,-67 48.46,-34.5 164.89,-22.88 238.79,-18.75"/>
<polygon fill="midnightblue" stroke="midnightblue" points="323.24,-213.86 333.46,-211.06 323.72,-206.88 323.24,-213.86"/>
</g>
<!-- Node14 -->
<g id="node14" class="node">
<title>Node14</title>
<g id="a_node14"><a xlink:href="bwAbstractButton_8cc.html" target="_top" xlink:title=" ">
<polygon fill="none" stroke="black" points="333.8,-134.5 333.8,-164.5 478.8,-164.5 478.8,-134.5 333.8,-134.5"/>
<text text-anchor="start" x="341.8" y="-152.5" font-family="Helvetica,sans-Serif" font-size="10.00">bwidgets/widgets/bwAbstract</text>
<text text-anchor="middle" x="406.3" y="-141.5" font-family="Helvetica,sans-Serif" font-size="10.00">Button.cc</text>
</a>
</g>
</g>
<!-- Node12&#45;&gt;Node14 -->
<g id="edge17" class="edge">
<title>Node12&#45;&gt;Node14</title>
<path fill="none" stroke="midnightblue" d="M406.3,-191.11C406.3,-182.15 406.3,-172.32 406.3,-164.58"/>
<polygon fill="midnightblue" stroke="midnightblue" points="402.8,-191.4 406.3,-201.4 409.8,-191.4 402.8,-191.4"/>
</g>
<!-- Node15 -->
<g id="node15" class="node">
<title>Node15</title>
<g id="a_node15"><a xlink:href="bwCheckbox_8h.html" target="_top" xlink:title=" ">
<polygon fill="none" stroke="black" points="496.8,-140 496.8,-159 657.8,-159 657.8,-140 496.8,-140"/>
<text text-anchor="middle" x="577.3" y="-147" font-family="Helvetica,sans-Serif" font-size="10.00">bwidgets/widgets/bwCheckbox.h</text>
</a>
</g>
</g>
<!-- Node12&#45;&gt;Node15 -->
<g id="edge18" class="edge">
<title>Node12&#45;&gt;Node15</title>
<path fill="none" stroke="midnightblue" d="M452.9,-197.78C486.06,-185.18 529.13,-168.81 554.92,-159.01"/>
<polygon fill="midnightblue" stroke="midnightblue" points="451.5,-194.57 443.4,-201.4 453.99,-201.11 451.5,-194.57"/>
</g>
<!-- Node20 -->
<g id="node20" class="node">
<title>Node20</title>
<g id="a_node20"><a xlink:href="bwPushButton_8h.html" target="_top" xlink:title=" ">
<polygon fill="none" stroke="black" points="675.8,-140 675.8,-159 842.8,-159 842.8,-140 675.8,-140"/>
<text text-anchor="middle" x="759.3" y="-147" font-family="Helvetica,sans-Serif" font-size="10.00">bwidgets/widgets/bwPushButton.h</text>
</a>
</g>
</g>
<!-- Node12&#45;&gt;Node20 -->
<g id="edge24" class="edge">
<title>Node12&#45;&gt;Node20</title>
<path fill="none" stroke="midnightblue" d="M489.1,-200.25C558.92,-187.4 656.28,-169.47 713.07,-159.01"/>
<polygon fill="midnightblue" stroke="midnightblue" points="488.21,-196.86 479.01,-202.11 489.48,-203.74 488.21,-196.86"/>
</g>
<!-- Node22 -->
<g id="node22" class="node">
<title>Node22</title>
<g id="a_node22"><a xlink:href="bwRadioButton_8h.html" target="_top" xlink:title=" ">
<polygon fill="none" stroke="black" points="30.3,-134.5 30.3,-164.5 164.3,-164.5 164.3,-134.5 30.3,-134.5"/>
<text text-anchor="start" x="38.3" y="-152.5" font-family="Helvetica,sans-Serif" font-size="10.00">bwidgets/widgets/bwRadio</text>
<text text-anchor="middle" x="97.3" y="-141.5" font-family="Helvetica,sans-Serif" font-size="10.00">Button.h</text>
</a>
</g>
</g>
<!-- Node12&#45;&gt;Node22 -->
<g id="edge27" class="edge">
<title>Node12&#45;&gt;Node22</title>
<path fill="none" stroke="midnightblue" d="M329.68,-199.38C278.85,-188.69 212.8,-174.8 164.11,-164.55"/>
<polygon fill="midnightblue" stroke="midnightblue" points="329.12,-202.84 339.63,-201.48 330.56,-195.99 329.12,-202.84"/>
</g>
<!-- Node24 -->
<g id="node24" class="node">
<title>Node24</title>
<g id="a_node24"><a xlink:href="bwScrollBar_8h.html" target="_top" xlink:title=" ">
<polygon fill="none" stroke="black" points="182.8,-134.5 182.8,-164.5 315.8,-164.5 315.8,-134.5 182.8,-134.5"/>
<text text-anchor="start" x="190.8" y="-152.5" font-family="Helvetica,sans-Serif" font-size="10.00">bwidgets/widgets/bwScroll</text>
<text text-anchor="middle" x="249.3" y="-141.5" font-family="Helvetica,sans-Serif" font-size="10.00">Bar.h</text>
</a>
</g>
</g>
<!-- Node12&#45;&gt;Node24 -->
<g id="edge30" class="edge">
<title>Node12&#45;&gt;Node24</title>
<path fill="none" stroke="midnightblue" d="M362.93,-197.54C337.8,-187.14 306.63,-174.24 283.3,-164.58"/>
<polygon fill="midnightblue" stroke="midnightblue" points="361.65,-200.8 372.23,-201.4 364.33,-194.34 361.65,-200.8"/>
</g>
<!-- Node16 -->
<g id="node16" class="node">
<title>Node16</title>
<g id="a_node16"><a xlink:href="builtin__widgets_8h.html" target="_top" xlink:title=" ">
<polygon fill="none" stroke="black" points="837.8,-67.5 837.8,-97.5 958.8,-97.5 958.8,-67.5 837.8,-67.5"/>
<text text-anchor="start" x="845.8" y="-85.5" font-family="Helvetica,sans-Serif" font-size="10.00">bwidgets/widgets/builtin</text>
<text text-anchor="middle" x="898.3" y="-74.5" font-family="Helvetica,sans-Serif" font-size="10.00">_widgets.h</text>
</a>
</g>
</g>
<!-- Node15&#45;&gt;Node16 -->
<g id="edge19" class="edge">
<title>Node15&#45;&gt;Node16</title>
<path fill="none" stroke="midnightblue" d="M630.03,-137.98C680.83,-127.83 759.85,-111.98 828.3,-98 831.34,-97.38 834.45,-96.74 837.59,-96.1"/>
<polygon fill="midnightblue" stroke="midnightblue" points="629.07,-134.6 619.95,-140 630.44,-141.47 629.07,-134.6"/>
</g>
<!-- Node19 -->
<g id="node19" class="node">
<title>Node19</title>
<g id="a_node19"><a xlink:href="bwCheckbox_8cc.html" target="_top" xlink:title=" ">
<polygon fill="none" stroke="black" points="462.3,-73 462.3,-92 628.3,-92 628.3,-73 462.3,-73"/>
<text text-anchor="middle" x="545.3" y="-80" font-family="Helvetica,sans-Serif" font-size="10.00">bwidgets/widgets/bwCheckbox.cc</text>
</a>
</g>
</g>
<!-- Node15&#45;&gt;Node19 -->
<g id="edge23" class="edge">
<title>Node15&#45;&gt;Node19</title>
<path fill="none" stroke="midnightblue" d="M568.52,-130.66C562.34,-118.13 554.36,-101.91 549.54,-92.13"/>
<polygon fill="midnightblue" stroke="midnightblue" points="565.42,-132.31 572.98,-139.73 571.7,-129.22 565.42,-132.31"/>
</g>
<!-- Node16&#45;&gt;Node13 -->
<g id="edge20" class="edge">
<title>Node16&#45;&gt;Node13</title>
<path fill="none" stroke="midnightblue" d="M827.58,-67.01C654.01,-41.24 461.18,-26.66 364.03,-20.3"/>
<polygon fill="midnightblue" stroke="midnightblue" points="827.25,-70.5 837.66,-68.52 828.29,-63.57 827.25,-70.5"/>
</g>
<!-- Node17 -->
<g id="node17" class="node">
<title>Node17</title>
<g id="a_node17"><a xlink:href="bwStyleClassic_8cc.html" target="_top" xlink:title=" ">
<polygon fill="none" stroke="black" points="907.3,-0.5 907.3,-30.5 1023.3,-30.5 1023.3,-0.5 907.3,-0.5"/>
<text text-anchor="start" x="915.3" y="-18.5" font-family="Helvetica,sans-Serif" font-size="10.00">bwidgets/styling/styles</text>
<text text-anchor="middle" x="965.3" y="-7.5" font-family="Helvetica,sans-Serif" font-size="10.00">/bwStyleClassic.cc</text>
</a>
</g>
</g>
<!-- Node16&#45;&gt;Node17 -->
<g id="edge21" class="edge">
<title>Node16&#45;&gt;Node17</title>
<path fill="none" stroke="midnightblue" d="M920.14,-60.31C930.19,-50.56 941.84,-39.26 950.79,-30.58"/>
<polygon fill="midnightblue" stroke="midnightblue" points="917.57,-57.92 912.83,-67.4 922.45,-62.94 917.57,-57.92"/>
</g>
<!-- Node18 -->
<g id="node18" class="node">
<title>Node18</title>
<g id="a_node18"><a xlink:href="bwStyleFlatGrey_8cc.html" target="_top" xlink:title=" ">
<polygon fill="none" stroke="black" points="773.3,-0.5 773.3,-30.5 889.3,-30.5 889.3,-0.5 773.3,-0.5"/>
<text text-anchor="start" x="781.3" y="-18.5" font-family="Helvetica,sans-Serif" font-size="10.00">bwidgets/styling/styles</text>
<text text-anchor="middle" x="831.3" y="-7.5" font-family="Helvetica,sans-Serif" font-size="10.00">/bwStyleFlatGrey.cc</text>
</a>
</g>
</g>
<!-- Node16&#45;&gt;Node18 -->
<g id="edge22" class="edge">
<title>Node16&#45;&gt;Node18</title>
<path fill="none" stroke="midnightblue" d="M876.46,-60.31C866.41,-50.56 854.76,-39.26 845.81,-30.58"/>
<polygon fill="midnightblue" stroke="midnightblue" points="874.14,-62.94 883.76,-67.4 879.02,-57.92 874.14,-62.94"/>
</g>
<!-- Node20&#45;&gt;Node16 -->
<g id="edge25" class="edge">
<title>Node20&#45;&gt;Node16</title>
<path fill="none" stroke="midnightblue" d="M786.84,-135.62C810.35,-124.63 844.1,-108.84 868.3,-97.53"/>
<polygon fill="midnightblue" stroke="midnightblue" points="785.33,-132.46 777.75,-139.87 788.3,-138.8 785.33,-132.46"/>
</g>
<!-- Node21 -->
<g id="node21" class="node">
<title>Node21</title>
<g id="a_node21"><a xlink:href="bwPushButton_8cc.html" target="_top" xlink:title=" ">
<polygon fill="none" stroke="black" points="646.8,-73 646.8,-92 819.8,-92 819.8,-73 646.8,-73"/>
<text text-anchor="middle" x="733.3" y="-80" font-family="Helvetica,sans-Serif" font-size="10.00">bwidgets/widgets/bwPushButton.cc</text>
</a>
</g>
</g>
<!-- Node20&#45;&gt;Node21 -->
<g id="edge26" class="edge">
<title>Node20&#45;&gt;Node21</title>
<path fill="none" stroke="midnightblue" d="M752.01,-130.29C747.02,-117.81 740.62,-101.81 736.75,-92.13"/>
<polygon fill="midnightblue" stroke="midnightblue" points="748.83,-131.75 755.79,-139.73 755.33,-129.15 748.83,-131.75"/>
</g>
<!-- Node22&#45;&gt;Node16 -->
<g id="edge28" class="edge">
<title>Node22&#45;&gt;Node16</title>
<path fill="none" stroke="midnightblue" d="M174.32,-134C464.43,-99.42 542.44,-135.25 828.3,-98 831.37,-97.6 834.52,-97.14 837.68,-96.63"/>
<polygon fill="midnightblue" stroke="midnightblue" points="173.86,-130.53 164.36,-135.2 174.7,-137.48 173.86,-130.53"/>
</g>
<!-- Node23 -->
<g id="node23" class="node">
<title>Node23</title>
<g id="a_node23"><a xlink:href="bwRadioButton_8cc.html" target="_top" xlink:title=" ">
<polygon fill="none" stroke="black" points="30.3,-67.5 30.3,-97.5 164.3,-97.5 164.3,-67.5 30.3,-67.5"/>
<text text-anchor="start" x="38.3" y="-85.5" font-family="Helvetica,sans-Serif" font-size="10.00">bwidgets/widgets/bwRadio</text>
<text text-anchor="middle" x="97.3" y="-74.5" font-family="Helvetica,sans-Serif" font-size="10.00">Button.cc</text>
</a>
</g>
</g>
<!-- Node22&#45;&gt;Node23 -->
<g id="edge29" class="edge">
<title>Node22&#45;&gt;Node23</title>
<path fill="none" stroke="midnightblue" d="M97.3,-124.11C97.3,-115.15 97.3,-105.32 97.3,-97.58"/>
<polygon fill="midnightblue" stroke="midnightblue" points="93.8,-124.4 97.3,-134.4 100.8,-124.4 93.8,-124.4"/>
</g>
<!-- Node24&#45;&gt;Node7 -->
<g id="edge33" class="edge">
<title>Node24&#45;&gt;Node7</title>
<path fill="none" stroke="midnightblue" d="M285.13,-129.85C324.98,-110.15 391.84,-80.16 453.3,-67 564.59,-43.17 1355.52,-23.42 1592.42,-17.98"/>
<polygon fill="midnightblue" stroke="midnightblue" points="283.46,-126.77 276.08,-134.37 286.59,-133.03 283.46,-126.77"/>
</g>
<!-- Node24&#45;&gt;Node16 -->
<g id="edge31" class="edge">
<title>Node24&#45;&gt;Node16</title>
<path fill="none" stroke="midnightblue" d="M325.93,-133.89C548.7,-105.33 609.11,-128.39 828.3,-98 831.37,-97.57 834.51,-97.09 837.68,-96.57"/>
<polygon fill="midnightblue" stroke="midnightblue" points="325.35,-130.44 315.88,-135.2 326.25,-137.38 325.35,-130.44"/>
</g>
<!-- Node25 -->
<g id="node25" class="node">
<title>Node25</title>
<g id="a_node25"><a xlink:href="bwScrollBar_8cc.html" target="_top" xlink:title=" ">
<polygon fill="none" stroke="black" points="182.8,-67.5 182.8,-97.5 315.8,-97.5 315.8,-67.5 182.8,-67.5"/>
<text text-anchor="start" x="190.8" y="-85.5" font-family="Helvetica,sans-Serif" font-size="10.00">bwidgets/widgets/bwScroll</text>
<text text-anchor="middle" x="249.3" y="-74.5" font-family="Helvetica,sans-Serif" font-size="10.00">Bar.cc</text>
</a>
</g>
</g>
<!-- Node24&#45;&gt;Node25 -->
<g id="edge32" class="edge">
<title>Node24&#45;&gt;Node25</title>
<path fill="none" stroke="midnightblue" d="M249.3,-124.11C249.3,-115.15 249.3,-105.32 249.3,-97.58"/>
<polygon fill="midnightblue" stroke="midnightblue" points="245.8,-124.4 249.3,-134.4 252.8,-124.4 245.8,-124.4"/>
</g>
<!-- Node26&#45;&gt;Node8 -->
<g id="edge35" class="edge">
<title>Node26&#45;&gt;Node8</title>
<path fill="none" stroke="midnightblue" d="M1755.79,-199.31C1806.13,-188.21 1871.99,-173.7 1918.77,-163.39"/>
<polygon fill="midnightblue" stroke="midnightblue" points="1754.96,-195.91 1745.94,-201.48 1756.46,-202.74 1754.96,-195.91"/>
</g>
<!-- Node27 -->
<g id="node27" class="node">
<title>Node27</title>
<g id="a_node27"><a xlink:href="bwContainerWidget_8cc.html" target="_top" xlink:title=" ">
<polygon fill="none" stroke="black" points="1599.3,-134.5 1599.3,-164.5 1749.3,-164.5 1749.3,-134.5 1599.3,-134.5"/>
<text text-anchor="start" x="1607.3" y="-152.5" font-family="Helvetica,sans-Serif" font-size="10.00">bwidgets/widgets/bwContainer</text>
<text text-anchor="middle" x="1674.3" y="-141.5" font-family="Helvetica,sans-Serif" font-size="10.00">Widget.cc</text>
</a>
</g>
</g>
<!-- Node26&#45;&gt;Node27 -->
<g id="edge36" class="edge">
<title>Node26&#45;&gt;Node27</title>
<path fill="none" stroke="midnightblue" d="M1679.33,-191.4C1678.22,-182.37 1676.99,-172.41 1676.03,-164.58"/>
<polygon fill="midnightblue" stroke="midnightblue" points="1675.86,-191.9 1680.56,-201.4 1682.81,-191.04 1675.86,-191.9"/>
</g>
<!-- Node28 -->
<g id="node28" class="node">
<title>Node28</title>
<g id="a_node28"><a xlink:href="bwPanel_8h.html" target="_top" xlink:title=" ">
<polygon fill="none" stroke="black" points="1439.8,-140 1439.8,-159 1580.8,-159 1580.8,-140 1439.8,-140"/>
<text text-anchor="middle" x="1510.3" y="-147" font-family="Helvetica,sans-Serif" font-size="10.00">bwidgets/widgets/bwPanel.h</text>
</a>
</g>
</g>
<!-- Node26&#45;&gt;Node28 -->
<g id="edge37" class="edge">
<title>Node26&#45;&gt;Node28</title>
<path fill="none" stroke="midnightblue" d="M1635.42,-197.78C1602.07,-185.18 1558.74,-168.81 1532.81,-159.01"/>
<polygon fill="midnightblue" stroke="midnightblue" points="1634.38,-201.13 1644.97,-201.4 1636.86,-194.59 1634.38,-201.13"/>
</g>
<!-- Node30 -->
<g id="node30" class="node">
<title>Node30</title>
<g id="a_node30"><a xlink:href="bwScrollView_8h.html" target="_top" xlink:title=" ">
<polygon fill="none" stroke="black" points="1767.8,-134.5 1767.8,-164.5 1900.8,-164.5 1900.8,-134.5 1767.8,-134.5"/>
<text text-anchor="start" x="1775.8" y="-152.5" font-family="Helvetica,sans-Serif" font-size="10.00">bwidgets/widgets/bwScroll</text>
<text text-anchor="middle" x="1834.3" y="-141.5" font-family="Helvetica,sans-Serif" font-size="10.00">View.h</text>
</a>
</g>
</g>
<!-- Node26&#45;&gt;Node30 -->
<g id="edge40" class="edge">
<title>Node26&#45;&gt;Node30</title>
<path fill="none" stroke="midnightblue" d="M1724.61,-197.41C1748.87,-187.03 1778.89,-174.2 1801.38,-164.58"/>
<polygon fill="midnightblue" stroke="midnightblue" points="1723.1,-194.25 1715.28,-201.4 1725.85,-200.68 1723.1,-194.25"/>
</g>
<!-- Node28&#45;&gt;Node16 -->
<g id="edge38" class="edge">
<title>Node28&#45;&gt;Node16</title>
<path fill="none" stroke="midnightblue" d="M1456.93,-138.18C1448.06,-136.65 1438.93,-135.19 1430.3,-134 1340.69,-121.65 1078.92,-98.81 959.26,-88.63"/>
<polygon fill="midnightblue" stroke="midnightblue" points="1456.35,-141.63 1466.81,-139.93 1457.57,-134.74 1456.35,-141.63"/>
</g>
<!-- Node29 -->
<g id="node29" class="node">
<title>Node29</title>
<g id="a_node29"><a xlink:href="bwPanel_8cc.html" target="_top" xlink:title=" ">
<polygon fill="none" stroke="black" points="1437.3,-73 1437.3,-92 1583.3,-92 1583.3,-73 1437.3,-73"/>
<text text-anchor="middle" x="1510.3" y="-80" font-family="Helvetica,sans-Serif" font-size="10.00">bwidgets/widgets/bwPanel.cc</text>
</a>
</g>
</g>
<!-- Node28&#45;&gt;Node29 -->
<g id="edge39" class="edge">
<title>Node28&#45;&gt;Node29</title>
<path fill="none" stroke="midnightblue" d="M1510.3,-129.54C1510.3,-117.17 1510.3,-101.62 1510.3,-92.13"/>
<polygon fill="midnightblue" stroke="midnightblue" points="1506.8,-129.73 1510.3,-139.73 1513.8,-129.73 1506.8,-129.73"/>
</g>
<!-- Node30&#45;&gt;Node7 -->
<g id="edge42" class="edge">
<title>Node30&#45;&gt;Node7</title>
<path fill="none" stroke="midnightblue" d="M1765.27,-131.97C1721.16,-120.73 1671,-106.43 1664.3,-98 1649.04,-78.8 1652.12,-48.33 1655.72,-30.59"/>
<polygon fill="midnightblue" stroke="midnightblue" points="1764.6,-135.41 1775.15,-134.46 1766.31,-128.62 1764.6,-135.41"/>
</g>
<!-- Node30&#45;&gt;Node16 -->
<g id="edge41" class="edge">
<title>Node30&#45;&gt;Node16</title>
<path fill="none" stroke="midnightblue" d="M1757.5,-134.03C1462.31,-98.56 1384.79,-116.83 1092.3,-98 1047.64,-95.12 997.24,-91.34 959,-88.36"/>
<polygon fill="midnightblue" stroke="midnightblue" points="1757.3,-137.53 1767.65,-135.26 1758.14,-130.58 1757.3,-137.53"/>
</g>
<!-- Node31&#45;&gt;Node16 -->
<g id="edge44" class="edge">
<title>Node31&#45;&gt;Node16</title>
<path fill="none" stroke="midnightblue" d="M936.02,-202.85C918.91,-194.84 900.13,-182.61 890.3,-165 878.51,-143.9 885.91,-114.88 892.2,-97.77"/>
<polygon fill="midnightblue" stroke="midnightblue" points="934.72,-206.1 945.29,-206.87 937.51,-199.68 934.72,-206.1"/>
</g>
<!-- Node32 -->
<g id="node32" class="node">
<title>Node32</title>
<g id="a_node32"><a xlink:href="bwLabel_8cc.html" target="_top" xlink:title=" ">
<polygon fill="none" stroke="black" points="899.8,-140 899.8,-159 1044.8,-159 1044.8,-140 899.8,-140"/>
<text text-anchor="middle" x="972.3" y="-147" font-family="Helvetica,sans-Serif" font-size="10.00">bwidgets/widgets/bwLabel.cc</text>
</a>
</g>
</g>
<!-- Node31&#45;&gt;Node32 -->
<g id="edge45" class="edge">
<title>Node31&#45;&gt;Node32</title>
<path fill="none" stroke="midnightblue" d="M972.3,-196.54C972.3,-184.17 972.3,-168.62 972.3,-159.13"/>
<polygon fill="midnightblue" stroke="midnightblue" points="968.8,-196.73 972.3,-206.73 975.8,-196.73 968.8,-196.73"/>
</g>
<!-- Node33&#45;&gt;Node16 -->
<g id="edge47" class="edge">
<title>Node33&#45;&gt;Node16</title>
<path fill="none" stroke="midnightblue" d="M1204.55,-204.58C1171.04,-196.48 1127.71,-183.59 1092.3,-165 1072.69,-154.71 1072.8,-144.48 1053.3,-134 1023.51,-117.99 987.75,-105.92 958.1,-97.6"/>
<polygon fill="midnightblue" stroke="midnightblue" points="1204.08,-208.07 1214.61,-206.95 1205.68,-201.25 1204.08,-208.07"/>
</g>
<!-- Node34 -->
<g id="node34" class="node">
<title>Node34</title>
<g id="a_node34"><a xlink:href="bwNumberSlider_8h.html" target="_top" xlink:title=" ">
<polygon fill="none" stroke="black" points="1101.8,-134.5 1101.8,-164.5 1244.8,-164.5 1244.8,-134.5 1101.8,-134.5"/>
<text text-anchor="start" x="1109.8" y="-152.5" font-family="Helvetica,sans-Serif" font-size="10.00">bwidgets/widgets/bwNumber</text>
<text text-anchor="middle" x="1173.3" y="-141.5" font-family="Helvetica,sans-Serif" font-size="10.00">Slider.h</text>
</a>
</g>
</g>
<!-- Node33&#45;&gt;Node34 -->
<g id="edge48" class="edge">
<title>Node33&#45;&gt;Node34</title>
<path fill="none" stroke="midnightblue" d="M1238.74,-200.54C1224.59,-189.73 1205.6,-175.2 1191.72,-164.59"/>
<polygon fill="midnightblue" stroke="midnightblue" points="1236.76,-203.44 1246.83,-206.73 1241.02,-197.88 1236.76,-203.44"/>
</g>
<!-- Node36 -->
<g id="node36" class="node">
<title>Node36</title>
<g id="a_node36"><a xlink:href="bwTextBox_8cc.html" target="_top" xlink:title=" ">
<polygon fill="none" stroke="black" points="1263.3,-140 1263.3,-159 1421.3,-159 1421.3,-140 1263.3,-140"/>
<text text-anchor="middle" x="1342.3" y="-147" font-family="Helvetica,sans-Serif" font-size="10.00">bwidgets/widgets/bwTextBox.cc</text>
</a>
</g>
</g>
<!-- Node33&#45;&gt;Node36 -->
<g id="edge51" class="edge">
<title>Node33&#45;&gt;Node36</title>
<path fill="none" stroke="midnightblue" d="M1277.59,-200.57C1294.17,-187.74 1317.5,-169.69 1331.15,-159.13"/>
<polygon fill="midnightblue" stroke="midnightblue" points="1275.39,-197.85 1269.62,-206.73 1279.68,-203.38 1275.39,-197.85"/>
</g>
<!-- Node34&#45;&gt;Node16 -->
<g id="edge49" class="edge">
<title>Node34&#45;&gt;Node16</title>
<path fill="none" stroke="midnightblue" d="M1103.99,-132.12C1058.99,-121.48 1000.95,-107.76 958,-97.61"/>
<polygon fill="midnightblue" stroke="midnightblue" points="1103.43,-135.58 1113.96,-134.48 1105.04,-128.77 1103.43,-135.58"/>
</g>
<!-- Node35 -->
<g id="node35" class="node">
<title>Node35</title>
<g id="a_node35"><a xlink:href="bwNumberSlider_8cc.html" target="_top" xlink:title=" ">
<polygon fill="none" stroke="black" points="1101.8,-67.5 1101.8,-97.5 1244.8,-97.5 1244.8,-67.5 1101.8,-67.5"/>
<text text-anchor="start" x="1109.8" y="-85.5" font-family="Helvetica,sans-Serif" font-size="10.00">bwidgets/widgets/bwNumber</text>
<text text-anchor="middle" x="1173.3" y="-74.5" font-family="Helvetica,sans-Serif" font-size="10.00">Slider.cc</text>
</a>
</g>
</g>
<!-- Node34&#45;&gt;Node35 -->
<g id="edge50" class="edge">
<title>Node34&#45;&gt;Node35</title>
<path fill="none" stroke="midnightblue" d="M1173.3,-124.11C1173.3,-115.15 1173.3,-105.32 1173.3,-97.58"/>
<polygon fill="midnightblue" stroke="midnightblue" points="1169.8,-124.4 1173.3,-134.4 1176.8,-124.4 1169.8,-124.4"/>
</g>
</g>
</svg>
