<?xml version="1.0" encoding="UTF-8" standalone="no"?>
<!DOCTYPE svg PUBLIC "-//W3C//DTD SVG 1.1//EN"
 "http://www.w3.org/Graphics/SVG/1.1/DTD/svg11.dtd">
<!-- Generated by graphviz version 2.50.0 (20211204.2007)
 -->
<!-- Title: bwidgets/screen_graph/EventHandler.cc Pages: 1 -->
<svg width="894pt" height="375pt"
 viewBox="0.00 0.00 894.00 375.00" xmlns="http://www.w3.org/2000/svg" xmlns:xlink="http://www.w3.org/1999/xlink">
<g id="graph0" class="graph" transform="scale(1 1) rotate(0) translate(4 371)">
<title>bwidgets/screen_graph/EventHandler.cc</title>
<!-- Node1 -->
<g id="node1" class="node">
<title>Node1</title>
<g id="a_node1"><a xlink:title=" ">
<polygon fill="#bfbfbf" stroke="black" points="104.5,-336.5 104.5,-366.5 221.5,-366.5 221.5,-336.5 104.5,-336.5"/>
<text text-anchor="start" x="112.5" y="-354.5" font-family="Helvetica,sans-Serif" font-size="10.00">bwidgets/screen_graph</text>
<text text-anchor="middle" x="163" y="-343.5" font-family="Helvetica,sans-Serif" font-size="10.00">/EventHandler.cc</text>
</a>
</g>
</g>
<!-- Node2 -->
<g id="node2" class="node">
<title>Node2</title>
<g id="a_node2"><a xlink:title=" ">
<polygon fill="none" stroke="#bfbfbf" points="39,-280.5 39,-299.5 91,-299.5 91,-280.5 39,-280.5"/>
<text text-anchor="middle" x="65" y="-287.5" font-family="Helvetica,sans-Serif" font-size="10.00">assert.h</text>
</a>
</g>
</g>
<!-- Node1&#45;&gt;Node2 -->
<g id="edge1" class="edge">
<title>Node1&#45;&gt;Node2</title>
<path fill="none" stroke="midnightblue" d="M139.78,-336.4C124.21,-326.95 103.8,-314.56 88.24,-305.11"/>
<polygon fill="midnightblue" stroke="midnightblue" points="89.62,-301.86 79.26,-299.66 85.99,-307.84 89.62,-301.86"/>
</g>
<!-- Node3 -->
<g id="node3" class="node">
<title>Node3</title>
<g id="a_node3"><a xlink:title=" ">
<polygon fill="none" stroke="#bfbfbf" points="109,-280.5 109,-299.5 163,-299.5 163,-280.5 109,-280.5"/>
<text text-anchor="middle" x="136" y="-287.5" font-family="Helvetica,sans-Serif" font-size="10.00">iostream</text>
</a>
</g>
</g>
<!-- Node1&#45;&gt;Node3 -->
<g id="edge2" class="edge">
<title>Node1&#45;&gt;Node3</title>
<path fill="none" stroke="midnightblue" d="M156.6,-336.4C152.88,-328.2 148.15,-317.78 144.17,-308.99"/>
<polygon fill="midnightblue" stroke="midnightblue" points="147.25,-307.32 139.93,-299.66 140.87,-310.21 147.25,-307.32"/>
</g>
<!-- Node4 -->
<g id="node4" class="node">
<title>Node4</title>
<g id="a_node4"><a xlink:href="EventHandler_8h.html" target="_top" xlink:title=" ">
<polygon fill="none" stroke="black" points="133.5,-112.5 133.5,-131.5 216.5,-131.5 216.5,-112.5 133.5,-112.5"/>
<text text-anchor="middle" x="175" y="-119.5" font-family="Helvetica,sans-Serif" font-size="10.00">EventHandler.h</text>
</a>
</g>
</g>
<!-- Node1&#45;&gt;Node4 -->
<g id="edge3" class="edge">
<title>Node1&#45;&gt;Node4</title>
<path fill="none" stroke="midnightblue" d="M166.13,-336.43C168.22,-326.35 170.8,-312.41 172,-300 177.57,-242.51 176.58,-174.05 175.66,-141.7"/>
<polygon fill="midnightblue" stroke="midnightblue" points="179.15,-141.39 175.33,-131.5 172.15,-141.61 179.15,-141.39"/>
</g>
<!-- Node9 -->
<g id="node9" class="node">
<title>Node9</title>
<g id="a_node9"><a xlink:href="Node_8h.html" target="_top" xlink:title=" ">
<polygon fill="none" stroke="black" points="390,-280.5 390,-299.5 438,-299.5 438,-280.5 390,-280.5"/>
<text text-anchor="middle" x="414" y="-287.5" font-family="Helvetica,sans-Serif" font-size="10.00">Node.h</text>
</a>
</g>
</g>
<!-- Node1&#45;&gt;Node9 -->
<g id="edge8" class="edge">
<title>Node1&#45;&gt;Node9</title>
<path fill="none" stroke="midnightblue" d="M221.53,-336.62C270.7,-324.97 339.28,-308.71 379.91,-299.08"/>
<polygon fill="midnightblue" stroke="midnightblue" points="380.93,-302.44 389.85,-296.72 379.32,-295.62 380.93,-302.44"/>
</g>
<!-- Node5 -->
<g id="node5" class="node">
<title>Node5</title>
<g id="a_node5"><a xlink:title=" ">
<polygon fill="none" stroke="#bfbfbf" points="0,-56.5 0,-75.5 38,-75.5 38,-56.5 0,-56.5"/>
<text text-anchor="middle" x="19" y="-63.5" font-family="Helvetica,sans-Serif" font-size="10.00">array</text>
</a>
</g>
</g>
<!-- Node4&#45;&gt;Node5 -->
<g id="edge4" class="edge">
<title>Node4&#45;&gt;Node5</title>
<path fill="none" stroke="midnightblue" d="M150.28,-112.44C122.46,-102.81 77.32,-87.19 47.89,-77"/>
<polygon fill="midnightblue" stroke="midnightblue" points="48.79,-73.61 38.19,-73.64 46.5,-80.22 48.79,-73.61"/>
</g>
<!-- Node6 -->
<g id="node6" class="node">
<title>Node6</title>
<g id="a_node6"><a xlink:title=" ">
<polygon fill="none" stroke="#bfbfbf" points="56.5,-56.5 56.5,-75.5 115.5,-75.5 115.5,-56.5 56.5,-56.5"/>
<text text-anchor="middle" x="86" y="-63.5" font-family="Helvetica,sans-Serif" font-size="10.00">functional</text>
</a>
</g>
</g>
<!-- Node4&#45;&gt;Node6 -->
<g id="edge5" class="edge">
<title>Node4&#45;&gt;Node6</title>
<path fill="none" stroke="midnightblue" d="M160.7,-112.32C146.82,-103.9 125.51,-90.97 109.2,-81.07"/>
<polygon fill="midnightblue" stroke="midnightblue" points="110.63,-77.85 100.26,-75.65 107,-83.83 110.63,-77.85"/>
</g>
<!-- Node7 -->
<g id="node7" class="node">
<title>Node7</title>
<g id="a_node7"><a xlink:title=" ">
<polygon fill="none" stroke="#bfbfbf" points="234.5,-56.5 234.5,-75.5 263.5,-75.5 263.5,-56.5 234.5,-56.5"/>
<text text-anchor="middle" x="249" y="-63.5" font-family="Helvetica,sans-Serif" font-size="10.00">list</text>
</a>
</g>
</g>
<!-- Node4&#45;&gt;Node7 -->
<g id="edge6" class="edge">
<title>Node4&#45;&gt;Node7</title>
<path fill="none" stroke="midnightblue" d="M186.89,-112.32C198.15,-104.11 215.29,-91.6 228.71,-81.81"/>
<polygon fill="midnightblue" stroke="midnightblue" points="230.88,-84.56 236.89,-75.83 226.75,-78.9 230.88,-84.56"/>
</g>
<!-- Node8 -->
<g id="node8" class="node">
<title>Node8</title>
<g id="a_node8"><a xlink:title=" ">
<polygon fill="none" stroke="#bfbfbf" points="133.5,-56.5 133.5,-75.5 216.5,-75.5 216.5,-56.5 133.5,-56.5"/>
<text text-anchor="middle" x="175" y="-63.5" font-family="Helvetica,sans-Serif" font-size="10.00">unordered_map</text>
</a>
</g>
</g>
<!-- Node4&#45;&gt;Node8 -->
<g id="edge7" class="edge">
<title>Node4&#45;&gt;Node8</title>
<path fill="none" stroke="midnightblue" d="M175,-112.08C175,-105.01 175,-94.86 175,-85.99"/>
<polygon fill="midnightblue" stroke="midnightblue" points="178.5,-85.75 175,-75.75 171.5,-85.75 178.5,-85.75"/>
</g>
<!-- Node9&#45;&gt;Node7 -->
<g id="edge9" class="edge">
<title>Node9&#45;&gt;Node7</title>
<path fill="none" stroke="midnightblue" d="M402.05,-280.26C373.36,-258.61 300.33,-199.35 264,-132 256.18,-117.51 252.42,-99.06 250.62,-85.53"/>
<polygon fill="midnightblue" stroke="midnightblue" points="254.09,-85.06 249.53,-75.5 247.13,-85.82 254.09,-85.06"/>
</g>
<!-- Node10 -->
<g id="node10" class="node">
<title>Node10</title>
<g id="a_node10"><a xlink:href="bwContainerWidget_8h.html" target="_top" xlink:title=" ">
<polygon fill="none" stroke="black" points="442,-224.5 442,-243.5 552,-243.5 552,-224.5 442,-224.5"/>
<text text-anchor="middle" x="497" y="-231.5" font-family="Helvetica,sans-Serif" font-size="10.00">bwContainerWidget.h</text>
</a>
</g>
</g>
<!-- Node9&#45;&gt;Node10 -->
<g id="edge10" class="edge">
<title>Node9&#45;&gt;Node10</title>
<path fill="none" stroke="midnightblue" d="M427.34,-280.32C440.16,-271.98 459.78,-259.21 474.94,-249.35"/>
<polygon fill="midnightblue" stroke="midnightblue" points="477.22,-252.04 483.7,-243.65 473.41,-246.17 477.22,-252.04"/>
</g>
<!-- Node11 -->
<g id="node11" class="node">
<title>Node11</title>
<g id="a_node11"><a xlink:href="bwWidget_8h.html" target="_top" xlink:title=" ">
<polygon fill="none" stroke="black" points="446,-168.5 446,-187.5 514,-187.5 514,-168.5 446,-168.5"/>
<text text-anchor="middle" x="480" y="-175.5" font-family="Helvetica,sans-Serif" font-size="10.00">bwWidget.h</text>
</a>
</g>
</g>
<!-- Node9&#45;&gt;Node11 -->
<g id="edge29" class="edge">
<title>Node9&#45;&gt;Node11</title>
<path fill="none" stroke="midnightblue" d="M415.06,-280.43C416.98,-267.43 421.89,-242.29 433,-224 439.98,-212.5 450.64,-201.96 460.05,-193.97"/>
<polygon fill="midnightblue" stroke="midnightblue" points="462.29,-196.67 467.86,-187.66 457.89,-191.22 462.29,-196.67"/>
</g>
<!-- Node24 -->
<g id="node24" class="node">
<title>Node24</title>
<g id="a_node24"><a xlink:href="bwLayoutInterface_8h.html" target="_top" xlink:title=" ">
<polygon fill="none" stroke="black" points="604.5,-224.5 604.5,-243.5 709.5,-243.5 709.5,-224.5 604.5,-224.5"/>
<text text-anchor="middle" x="657" y="-231.5" font-family="Helvetica,sans-Serif" font-size="10.00">bwLayoutInterface.h</text>
</a>
</g>
</g>
<!-- Node9&#45;&gt;Node24 -->
<g id="edge27" class="edge">
<title>Node9&#45;&gt;Node24</title>
<path fill="none" stroke="midnightblue" d="M438.19,-283.62C477.8,-274.82 557.25,-257.17 608.73,-245.73"/>
<polygon fill="midnightblue" stroke="midnightblue" points="609.63,-249.11 618.63,-243.53 608.11,-242.28 609.63,-249.11"/>
</g>
<!-- Node10&#45;&gt;Node11 -->
<g id="edge11" class="edge">
<title>Node10&#45;&gt;Node11</title>
<path fill="none" stroke="midnightblue" d="M494.19,-224.08C491.92,-216.85 488.63,-206.41 485.79,-197.4"/>
<polygon fill="midnightblue" stroke="midnightblue" points="489.1,-196.24 482.75,-187.75 482.42,-198.34 489.1,-196.24"/>
</g>
<!-- Node22 -->
<g id="node22" class="node">
<title>Node22</title>
<g id="a_node22"><a xlink:href="bwWidgetBaseStyle_8h.html" target="_top" xlink:title=" ">
<polygon fill="none" stroke="black" points="578.5,-168.5 578.5,-187.5 691.5,-187.5 691.5,-168.5 578.5,-168.5"/>
<text text-anchor="middle" x="635" y="-175.5" font-family="Helvetica,sans-Serif" font-size="10.00">bwWidgetBaseStyle.h</text>
</a>
</g>
</g>
<!-- Node10&#45;&gt;Node22 -->
<g id="edge25" class="edge">
<title>Node10&#45;&gt;Node22</title>
<path fill="none" stroke="midnightblue" d="M518.87,-224.44C541.78,-215.48 577.98,-201.31 603.87,-191.18"/>
<polygon fill="midnightblue" stroke="midnightblue" points="605.2,-194.42 613.24,-187.52 602.65,-187.9 605.2,-194.42"/>
</g>
<!-- Node11&#45;&gt;Node4 -->
<g id="edge24" class="edge">
<title>Node11&#45;&gt;Node4</title>
<path fill="none" stroke="midnightblue" d="M445.9,-170.96C392.6,-161.53 289.18,-143.22 226.68,-132.15"/>
<polygon fill="midnightblue" stroke="midnightblue" points="227.1,-128.67 216.64,-130.37 225.88,-135.56 227.1,-128.67"/>
</g>
<!-- Node12 -->
<g id="node12" class="node">
<title>Node12</title>
<g id="a_node12"><a xlink:title=" ">
<polygon fill="none" stroke="#bfbfbf" points="441,-56.5 441,-75.5 491,-75.5 491,-56.5 441,-56.5"/>
<text text-anchor="middle" x="466" y="-63.5" font-family="Helvetica,sans-Serif" font-size="10.00">optional</text>
</a>
</g>
</g>
<!-- Node11&#45;&gt;Node12 -->
<g id="edge12" class="edge">
<title>Node11&#45;&gt;Node12</title>
<path fill="none" stroke="midnightblue" d="M478.9,-168.37C476.64,-150.62 471.43,-109.67 468.37,-85.6"/>
<polygon fill="midnightblue" stroke="midnightblue" points="471.83,-85.07 467.09,-75.59 464.88,-85.95 471.83,-85.07"/>
</g>
<!-- Node13 -->
<g id="node13" class="node">
<title>Node13</title>
<g id="a_node13"><a xlink:title=" ">
<polygon fill="none" stroke="#bfbfbf" points="273.5,-112.5 273.5,-131.5 324.5,-131.5 324.5,-112.5 273.5,-112.5"/>
<text text-anchor="middle" x="299" y="-119.5" font-family="Helvetica,sans-Serif" font-size="10.00">typeinfo</text>
</a>
</g>
</g>
<!-- Node11&#45;&gt;Node13 -->
<g id="edge13" class="edge">
<title>Node11&#45;&gt;Node13</title>
<path fill="none" stroke="midnightblue" d="M451.32,-168.44C419.7,-159.01 368.8,-143.82 334.64,-133.63"/>
<polygon fill="midnightblue" stroke="midnightblue" points="335.2,-130.15 324.62,-130.64 333.2,-136.86 335.2,-130.15"/>
</g>
<!-- Node14 -->
<g id="node14" class="node">
<title>Node14</title>
<g id="a_node14"><a xlink:href="bwDistance_8h.html" target="_top" xlink:title=" ">
<polygon fill="none" stroke="black" points="630.5,-112.5 630.5,-131.5 707.5,-131.5 707.5,-112.5 630.5,-112.5"/>
<text text-anchor="middle" x="669" y="-119.5" font-family="Helvetica,sans-Serif" font-size="10.00">bwDistance.h</text>
</a>
</g>
</g>
<!-- Node11&#45;&gt;Node14 -->
<g id="edge14" class="edge">
<title>Node11&#45;&gt;Node14</title>
<path fill="none" stroke="midnightblue" d="M509.95,-168.44C542.16,-159.24 593.53,-144.56 629.14,-134.39"/>
<polygon fill="midnightblue" stroke="midnightblue" points="630.54,-137.63 639.19,-131.52 628.62,-130.9 630.54,-137.63"/>
</g>
<!-- Node17 -->
<g id="node17" class="node">
<title>Node17</title>
<g id="a_node17"><a xlink:href="bwFunctorInterface_8h.html" target="_top" xlink:title=" ">
<polygon fill="none" stroke="black" points="342.5,-112.5 342.5,-131.5 451.5,-131.5 451.5,-112.5 342.5,-112.5"/>
<text text-anchor="middle" x="397" y="-119.5" font-family="Helvetica,sans-Serif" font-size="10.00">bwFunctorInterface.h</text>
</a>
</g>
</g>
<!-- Node11&#45;&gt;Node17 -->
<g id="edge17" class="edge">
<title>Node11&#45;&gt;Node17</title>
<path fill="none" stroke="midnightblue" d="M466.66,-168.32C453.84,-159.98 434.22,-147.21 419.06,-137.35"/>
<polygon fill="midnightblue" stroke="midnightblue" points="420.59,-134.17 410.3,-131.65 416.78,-140.04 420.59,-134.17"/>
</g>
<!-- Node18 -->
<g id="node18" class="node">
<title>Node18</title>
<g id="a_node18"><a xlink:href="bwRectangle_8h.html" target="_top" xlink:title=" ">
<polygon fill="none" stroke="black" points="726,-112.5 726,-131.5 808,-131.5 808,-112.5 726,-112.5"/>
<text text-anchor="middle" x="767" y="-119.5" font-family="Helvetica,sans-Serif" font-size="10.00">bwRectangle.h</text>
</a>
</g>
</g>
<!-- Node11&#45;&gt;Node18 -->
<g id="edge18" class="edge">
<title>Node11&#45;&gt;Node18</title>
<path fill="none" stroke="midnightblue" d="M514.05,-170.59C563.92,-161.21 657.19,-143.66 715.48,-132.69"/>
<polygon fill="midnightblue" stroke="midnightblue" points="716.4,-136.08 725.58,-130.79 715.11,-129.2 716.4,-136.08"/>
</g>
<!-- Node19 -->
<g id="node19" class="node">
<title>Node19</title>
<g id="a_node19"><a xlink:href="bwStyleProperties_8h.html" target="_top" xlink:title=" ">
<polygon fill="none" stroke="black" points="508,-112.5 508,-131.5 612,-131.5 612,-112.5 508,-112.5"/>
<text text-anchor="middle" x="560" y="-119.5" font-family="Helvetica,sans-Serif" font-size="10.00">bwStyleProperties.h</text>
</a>
</g>
</g>
<!-- Node11&#45;&gt;Node19 -->
<g id="edge19" class="edge">
<title>Node11&#45;&gt;Node19</title>
<path fill="none" stroke="midnightblue" d="M492.85,-168.32C505.22,-159.98 524.13,-147.21 538.74,-137.35"/>
<polygon fill="midnightblue" stroke="midnightblue" points="540.85,-140.15 547.18,-131.65 536.93,-134.35 540.85,-140.15"/>
</g>
<!-- Node15 -->
<g id="node15" class="node">
<title>Node15</title>
<g id="a_node15"><a xlink:href="bwPoint_8h.html" target="_top" xlink:title=" ">
<polygon fill="none" stroke="black" points="677,-56.5 677,-75.5 737,-75.5 737,-56.5 677,-56.5"/>
<text text-anchor="middle" x="707" y="-63.5" font-family="Helvetica,sans-Serif" font-size="10.00">bwPoint.h</text>
</a>
</g>
</g>
<!-- Node14&#45;&gt;Node15 -->
<g id="edge15" class="edge">
<title>Node14&#45;&gt;Node15</title>
<path fill="none" stroke="midnightblue" d="M675.27,-112.08C680.64,-104.46 688.52,-93.26 695.08,-83.94"/>
<polygon fill="midnightblue" stroke="midnightblue" points="697.95,-85.94 700.84,-75.75 692.22,-81.91 697.95,-85.94"/>
</g>
<!-- Node16 -->
<g id="node16" class="node">
<title>Node16</title>
<g id="a_node16"><a xlink:title=" ">
<polygon fill="none" stroke="#bfbfbf" points="591,-0.5 591,-19.5 635,-19.5 635,-0.5 591,-0.5"/>
<text text-anchor="middle" x="613" y="-7.5" font-family="Helvetica,sans-Serif" font-size="10.00">vector</text>
</a>
</g>
</g>
<!-- Node15&#45;&gt;Node16 -->
<g id="edge16" class="edge">
<title>Node15&#45;&gt;Node16</title>
<path fill="none" stroke="midnightblue" d="M691.9,-56.32C677.1,-47.82 654.31,-34.73 637.02,-24.8"/>
<polygon fill="midnightblue" stroke="midnightblue" points="638.48,-21.6 628.07,-19.65 634.99,-27.67 638.48,-21.6"/>
</g>
<!-- Node19&#45;&gt;Node12 -->
<g id="edge21" class="edge">
<title>Node19&#45;&gt;Node12</title>
<path fill="none" stroke="midnightblue" d="M544.9,-112.32C530.1,-103.82 507.31,-90.73 490.02,-80.8"/>
<polygon fill="midnightblue" stroke="midnightblue" points="491.48,-77.6 481.07,-75.65 487.99,-83.67 491.48,-77.6"/>
</g>
<!-- Node19&#45;&gt;Node16 -->
<g id="edge23" class="edge">
<title>Node19&#45;&gt;Node16</title>
<path fill="none" stroke="midnightblue" d="M552.54,-112.15C542.6,-99.21 527.43,-74.66 538,-56 547.29,-39.59 565.23,-28.51 581.23,-21.45"/>
<polygon fill="midnightblue" stroke="midnightblue" points="582.88,-24.55 590.84,-17.56 580.26,-18.06 582.88,-24.55"/>
</g>
<!-- Node20 -->
<g id="node20" class="node">
<title>Node20</title>
<g id="a_node20"><a xlink:title=" ">
<polygon fill="none" stroke="#bfbfbf" points="547,-56.5 547,-75.5 599,-75.5 599,-56.5 547,-56.5"/>
<text text-anchor="middle" x="573" y="-63.5" font-family="Helvetica,sans-Serif" font-size="10.00">memory</text>
</a>
</g>
</g>
<!-- Node19&#45;&gt;Node20 -->
<g id="edge20" class="edge">
<title>Node19&#45;&gt;Node20</title>
<path fill="none" stroke="midnightblue" d="M562.15,-112.08C563.87,-104.93 566.35,-94.64 568.5,-85.69"/>
<polygon fill="midnightblue" stroke="midnightblue" points="571.96,-86.29 570.89,-75.75 565.15,-84.65 571.96,-86.29"/>
</g>
<!-- Node21 -->
<g id="node21" class="node">
<title>Node21</title>
<g id="a_node21"><a xlink:title=" ">
<polygon fill="none" stroke="#bfbfbf" points="617.5,-56.5 617.5,-75.5 658.5,-75.5 658.5,-56.5 617.5,-56.5"/>
<text text-anchor="middle" x="638" y="-63.5" font-family="Helvetica,sans-Serif" font-size="10.00">string</text>
</a>
</g>
</g>
<!-- Node19&#45;&gt;Node21 -->
<g id="edge22" class="edge">
<title>Node19&#45;&gt;Node21</title>
<path fill="none" stroke="midnightblue" d="M572.53,-112.32C584.59,-103.98 603.03,-91.21 617.27,-81.35"/>
<polygon fill="midnightblue" stroke="midnightblue" points="619.27,-84.22 625.5,-75.65 615.28,-78.47 619.27,-84.22"/>
</g>
<!-- Node23 -->
<g id="node23" class="node">
<title>Node23</title>
<g id="a_node23"><a xlink:href="bwColor_8h.html" target="_top" xlink:title=" ">
<polygon fill="none" stroke="black" points="826,-112.5 826,-131.5 886,-131.5 886,-112.5 826,-112.5"/>
<text text-anchor="middle" x="856" y="-119.5" font-family="Helvetica,sans-Serif" font-size="10.00">bwColor.h</text>
</a>
</g>
</g>
<!-- Node22&#45;&gt;Node23 -->
<g id="edge26" class="edge">
<title>Node22&#45;&gt;Node23</title>
<path fill="none" stroke="midnightblue" d="M670.02,-168.44C709.71,-158.75 774.29,-142.97 815.95,-132.79"/>
<polygon fill="midnightblue" stroke="midnightblue" points="816.88,-136.16 825.76,-130.39 815.22,-129.36 816.88,-136.16"/>
</g>
<!-- Node24&#45;&gt;Node18 -->
<g id="edge28" class="edge">
<title>Node24&#45;&gt;Node18</title>
<path fill="none" stroke="midnightblue" d="M665.63,-224.37C684.11,-205.89 727.71,-162.29 751.26,-138.74"/>
<polygon fill="midnightblue" stroke="midnightblue" points="753.81,-141.14 758.41,-131.59 748.86,-136.19 753.81,-141.14"/>
</g>
</g>
</svg>
