<?xml version="1.0" encoding="UTF-8" standalone="no"?>
<!DOCTYPE svg PUBLIC "-//W3C//DTD SVG 1.1//EN"
 "http://www.w3.org/Graphics/SVG/1.1/DTD/svg11.dtd">
<!-- Generated by graphviz version 2.50.0 (20211204.2007)
 -->
<!-- Title: Graphical Class Hierarchy Pages: 1 -->
<svg width="501pt" height="78pt"
 viewBox="0.00 0.00 501.00 77.50" xmlns="http://www.w3.org/2000/svg" xmlns:xlink="http://www.w3.org/1999/xlink">
<g id="graph0" class="graph" transform="scale(1 1) rotate(0) translate(4 73.5)">
<title>Graphical Class Hierarchy</title>
<!-- Node0 -->
<g id="node1" class="node">
<title>Node0</title>
<g id="a_node1"><a xlink:href="classbWidgets_1_1bwEvent.html" target="_top" xlink:title=" ">
<polygon fill="none" stroke="black" points="0,-22.5 0,-41.5 102,-41.5 102,-22.5 0,-22.5"/>
<text text-anchor="middle" x="51" y="-29.5" font-family="Helvetica,sans-Serif" font-size="10.00">bWidgets::bwEvent</text>
</a>
</g>
</g>
<!-- Node1 -->
<g id="node2" class="node">
<title>Node1</title>
<g id="a_node2"><a xlink:href="classbWidgets_1_1bwMouseButtonEvent.html" target="_top" xlink:title=" ">
<polygon fill="none" stroke="black" points="138,-22.5 138,-41.5 298,-41.5 298,-22.5 138,-22.5"/>
<text text-anchor="middle" x="218" y="-29.5" font-family="Helvetica,sans-Serif" font-size="10.00">bWidgets::bwMouseButtonEvent</text>
</a>
</g>
</g>
<!-- Node0&#45;&gt;Node1 -->
<g id="edge1" class="edge">
<title>Node0&#45;&gt;Node1</title>
<path fill="none" stroke="midnightblue" d="M112.58,-32C120.77,-32 129.27,-32 137.72,-32"/>
<polygon fill="midnightblue" stroke="midnightblue" points="112.4,-28.5 102.4,-32 112.4,-35.5 112.4,-28.5"/>
</g>
<!-- Node2 -->
<g id="node3" class="node">
<title>Node2</title>
<g id="a_node3"><a xlink:href="classbWidgets_1_1bwMouseButtonDragEvent.html" target="_top" xlink:title=" ">
<polygon fill="none" stroke="black" points="336,-39 336,-69 491,-69 491,-39 336,-39"/>
<text text-anchor="start" x="344" y="-57" font-family="Helvetica,sans-Serif" font-size="10.00">bWidgets::bwMouseButtonDrag</text>
<text text-anchor="middle" x="413.5" y="-46" font-family="Helvetica,sans-Serif" font-size="10.00">Event</text>
</a>
</g>
</g>
<!-- Node1&#45;&gt;Node2 -->
<g id="edge2" class="edge">
<title>Node1&#45;&gt;Node2</title>
<path fill="none" stroke="midnightblue" d="M308.23,-42.14C317.46,-43.19 326.78,-44.25 335.86,-45.29"/>
<polygon fill="midnightblue" stroke="midnightblue" points="308.59,-38.66 298.26,-41.01 307.8,-45.62 308.59,-38.66"/>
</g>
<!-- Node3 -->
<g id="node4" class="node">
<title>Node3</title>
<g id="a_node4"><a xlink:href="classbWidgets_1_1bwMouseWheelEvent.html" target="_top" xlink:title=" ">
<polygon fill="none" stroke="black" points="334,-0.5 334,-19.5 493,-19.5 493,-0.5 334,-0.5"/>
<text text-anchor="middle" x="413.5" y="-7.5" font-family="Helvetica,sans-Serif" font-size="10.00">bWidgets::bwMouseWheelEvent</text>
</a>
</g>
</g>
<!-- Node1&#45;&gt;Node3 -->
<g id="edge3" class="edge">
<title>Node1&#45;&gt;Node3</title>
<path fill="none" stroke="midnightblue" d="M308.28,-21.85C316.86,-20.87 325.52,-19.89 333.99,-18.93"/>
<polygon fill="midnightblue" stroke="midnightblue" points="307.8,-18.38 298.26,-22.99 308.59,-25.34 307.8,-18.38"/>
</g>
</g>
</svg>
