<?xml version="1.0" encoding="UTF-8" standalone="no"?>
<!DOCTYPE svg PUBLIC "-//W3C//DTD SVG 1.1//EN"
 "http://www.w3.org/Graphics/SVG/1.1/DTD/svg11.dtd">
<!-- Generated by graphviz version 2.50.0 (20211204.2007)
 -->
<!-- Title: Graphical Class Hierarchy Pages: 1 -->
<svg width="535pt" height="192pt"
 viewBox="0.00 0.00 535.00 191.50" xmlns="http://www.w3.org/2000/svg" xmlns:xlink="http://www.w3.org/1999/xlink">
<g id="graph0" class="graph" transform="scale(1 1) rotate(0) translate(4 187.5)">
<title>Graphical Class Hierarchy</title>
<!-- Node0 -->
<g id="node1" class="node">
<title>Node0</title>
<g id="a_node1"><a xlink:href="classbWidgets_1_1bwScreenGraph_1_1EventHandler.html" target="_top" xlink:title="API for registering and calling event&#45;listeners.">
<polygon fill="none" stroke="black" points="0,-57.5 0,-87.5 134,-87.5 134,-57.5 0,-57.5"/>
<text text-anchor="start" x="8" y="-75.5" font-family="Helvetica,sans-Serif" font-size="10.00">bWidgets::bwScreenGraph</text>
<text text-anchor="middle" x="67" y="-64.5" font-family="Helvetica,sans-Serif" font-size="10.00">::EventHandler</text>
</a>
</g>
</g>
<!-- Node1 -->
<g id="node2" class="node">
<title>Node1</title>
<g id="a_node2"><a xlink:href="classbWidgets_1_1bwAbstractButtonHandler.html" target="_top" xlink:title=" ">
<polygon fill="none" stroke="black" points="177.5,-120.5 177.5,-150.5 319.5,-150.5 319.5,-120.5 177.5,-120.5"/>
<text text-anchor="start" x="185.5" y="-138.5" font-family="Helvetica,sans-Serif" font-size="10.00">bWidgets::bwAbstractButton</text>
<text text-anchor="middle" x="248.5" y="-127.5" font-family="Helvetica,sans-Serif" font-size="10.00">Handler</text>
</a>
</g>
</g>
<!-- Node0&#45;&gt;Node1 -->
<g id="edge1" class="edge">
<title>Node0&#45;&gt;Node1</title>
<path fill="none" stroke="midnightblue" d="M116.71,-91.15C133.53,-97.46 152.54,-104.44 170,-110.5 179.62,-113.84 189.95,-117.28 199.84,-120.5"/>
<polygon fill="midnightblue" stroke="midnightblue" points="117.68,-87.77 107.09,-87.53 115.21,-94.33 117.68,-87.77"/>
</g>
<!-- Node5 -->
<g id="node6" class="node">
<title>Node5</title>
<g id="a_node6"><a xlink:href="classbWidgets_1_1bwPanelHandler.html" target="_top" xlink:title=" ">
<polygon fill="none" stroke="black" points="181,-82 181,-101 316,-101 316,-82 181,-82"/>
<text text-anchor="middle" x="248.5" y="-89" font-family="Helvetica,sans-Serif" font-size="10.00">bWidgets::bwPanelHandler</text>
</a>
</g>
</g>
<!-- Node0&#45;&gt;Node5 -->
<g id="edge5" class="edge">
<title>Node0&#45;&gt;Node5</title>
<path fill="none" stroke="midnightblue" d="M144.23,-80.57C156.45,-81.86 169,-83.19 180.97,-84.46"/>
<polygon fill="midnightblue" stroke="midnightblue" points="144.39,-77.07 134.07,-79.49 143.65,-84.03 144.39,-77.07"/>
</g>
<!-- Node6 -->
<g id="node7" class="node">
<title>Node6</title>
<g id="a_node7"><a xlink:href="classbWidgets_1_1bwScrollViewHandler.html" target="_top" xlink:title=" ">
<polygon fill="none" stroke="black" points="170,-44 170,-63 327,-63 327,-44 170,-44"/>
<text text-anchor="middle" x="248.5" y="-51" font-family="Helvetica,sans-Serif" font-size="10.00">bWidgets::bwScrollViewHandler</text>
</a>
</g>
</g>
<!-- Node0&#45;&gt;Node6 -->
<g id="edge6" class="edge">
<title>Node0&#45;&gt;Node6</title>
<path fill="none" stroke="midnightblue" d="M144.25,-64.43C152.68,-63.54 161.27,-62.63 169.71,-61.73"/>
<polygon fill="midnightblue" stroke="midnightblue" points="143.65,-60.97 134.07,-65.51 144.39,-67.93 143.65,-60.97"/>
</g>
<!-- Node7 -->
<g id="node8" class="node">
<title>Node7</title>
<g id="a_node8"><a xlink:href="classbWidgets_1_1bwTextBoxHandler.html" target="_top" xlink:title=" ">
<polygon fill="none" stroke="black" points="175.5,-6 175.5,-25 321.5,-25 321.5,-6 175.5,-6"/>
<text text-anchor="middle" x="248.5" y="-13" font-family="Helvetica,sans-Serif" font-size="10.00">bWidgets::bwTextBoxHandler</text>
</a>
</g>
</g>
<!-- Node0&#45;&gt;Node7 -->
<g id="edge7" class="edge">
<title>Node0&#45;&gt;Node7</title>
<path fill="none" stroke="midnightblue" d="M115.19,-53.62C132.3,-47.12 151.88,-40.08 170,-34.5 181.12,-31.08 193.29,-27.86 204.62,-25.07"/>
<polygon fill="midnightblue" stroke="midnightblue" points="113.5,-50.51 105.42,-57.37 116.01,-57.05 113.5,-50.51"/>
</g>
<!-- Node2 -->
<g id="node3" class="node">
<title>Node2</title>
<g id="a_node3"><a xlink:href="classbWidgets_1_1bwCheckboxHandler.html" target="_top" xlink:title=" ">
<polygon fill="none" stroke="black" points="367.5,-164 367.5,-183 522.5,-183 522.5,-164 367.5,-164"/>
<text text-anchor="middle" x="445" y="-171" font-family="Helvetica,sans-Serif" font-size="10.00">bWidgets::bwCheckboxHandler</text>
</a>
</g>
</g>
<!-- Node1&#45;&gt;Node2 -->
<g id="edge2" class="edge">
<title>Node1&#45;&gt;Node2</title>
<path fill="none" stroke="midnightblue" d="M329.81,-151.19C352,-155.53 375.4,-160.1 395.2,-163.97"/>
<polygon fill="midnightblue" stroke="midnightblue" points="330.2,-147.7 319.72,-149.22 328.86,-154.57 330.2,-147.7"/>
</g>
<!-- Node3 -->
<g id="node4" class="node">
<title>Node3</title>
<g id="a_node4"><a xlink:href="classbWidgets_1_1bwRadioButtonHandler.html" target="_top" xlink:title=" ">
<polygon fill="none" stroke="black" points="363,-126 363,-145 527,-145 527,-126 363,-126"/>
<text text-anchor="middle" x="445" y="-133" font-family="Helvetica,sans-Serif" font-size="10.00">bWidgets::bwRadioButtonHandler</text>
</a>
</g>
</g>
<!-- Node1&#45;&gt;Node3 -->
<g id="edge3" class="edge">
<title>Node1&#45;&gt;Node3</title>
<path fill="none" stroke="midnightblue" d="M330.04,-135.5C340.92,-135.5 352.09,-135.5 362.98,-135.5"/>
<polygon fill="midnightblue" stroke="midnightblue" points="329.72,-132 319.72,-135.5 329.72,-139 329.72,-132"/>
</g>
<!-- Node4 -->
<g id="node5" class="node">
<title>Node4</title>
<g id="a_node5"><a xlink:href="classbWidgets_1_1bwScrollBarHandler.html" target="_top" xlink:title=" ">
<polygon fill="none" stroke="black" points="370,-88 370,-107 520,-107 520,-88 370,-88"/>
<text text-anchor="middle" x="445" y="-95" font-family="Helvetica,sans-Serif" font-size="10.00">bWidgets::bwScrollBarHandler</text>
</a>
</g>
</g>
<!-- Node1&#45;&gt;Node4 -->
<g id="edge4" class="edge">
<title>Node1&#45;&gt;Node4</title>
<path fill="none" stroke="midnightblue" d="M329.81,-119.81C352,-115.47 375.4,-110.9 395.2,-107.03"/>
<polygon fill="midnightblue" stroke="midnightblue" points="328.86,-116.43 319.72,-121.78 330.2,-123.3 328.86,-116.43"/>
</g>
<!-- Node8 -->
<g id="node9" class="node">
<title>Node8</title>
<g id="a_node9"><a xlink:href="classbWidgets_1_1bwNumberSliderHandler.html" target="_top" xlink:title=" ">
<polygon fill="none" stroke="black" points="377,-0.5 377,-30.5 513,-30.5 513,-0.5 377,-0.5"/>
<text text-anchor="start" x="385" y="-18.5" font-family="Helvetica,sans-Serif" font-size="10.00">bWidgets::bwNumberSlider</text>
<text text-anchor="middle" x="445" y="-7.5" font-family="Helvetica,sans-Serif" font-size="10.00">Handler</text>
</a>
</g>
</g>
<!-- Node7&#45;&gt;Node8 -->
<g id="edge8" class="edge">
<title>Node7&#45;&gt;Node8</title>
<path fill="none" stroke="midnightblue" d="M331.92,-15.5C346.89,-15.5 362.33,-15.5 376.8,-15.5"/>
<polygon fill="midnightblue" stroke="midnightblue" points="331.65,-12 321.65,-15.5 331.65,-19 331.65,-12"/>
</g>
</g>
</svg>
