<?xml version="1.0" encoding="UTF-8" standalone="no"?>
<!DOCTYPE svg PUBLIC "-//W3C//DTD SVG 1.1//EN"
 "http://www.w3.org/Graphics/SVG/1.1/DTD/svg11.dtd">
<!-- Generated by graphviz version 2.50.0 (20211204.2007)
 -->
<!-- Title: Graphical Class Hierarchy Pages: 1 -->
<svg width="472pt" height="256pt"
 viewBox="0.00 0.00 472.00 256.00" xmlns="http://www.w3.org/2000/svg" xmlns:xlink="http://www.w3.org/1999/xlink">
<g id="graph0" class="graph" transform="scale(1 1) rotate(0) translate(4 252)">
<title>Graphical Class Hierarchy</title>
<!-- Node0 -->
<g id="node1" class="node">
<title>Node0</title>
<g id="a_node1"><a xlink:href="classbWidgets_1_1bwWidget.html" target="_top" xlink:title="Abstract base class that all widgets derive from.">
<polygon fill="none" stroke="black" points="0,-57.5 0,-76.5 107,-76.5 107,-57.5 0,-57.5"/>
<text text-anchor="middle" x="53.5" y="-64.5" font-family="Helvetica,sans-Serif" font-size="10.00">bWidgets::bwWidget</text>
</a>
</g>
</g>
<!-- Node1 -->
<g id="node2" class="node">
<title>Node1</title>
<g id="a_node2"><a xlink:href="classbWidgets_1_1bwAbstractButton.html" target="_top" xlink:title="Base class for button like widgets.">
<polygon fill="none" stroke="black" points="146.5,-152.5 146.5,-171.5 288.5,-171.5 288.5,-152.5 146.5,-152.5"/>
<text text-anchor="middle" x="217.5" y="-159.5" font-family="Helvetica,sans-Serif" font-size="10.00">bWidgets::bwAbstractButton</text>
</a>
</g>
</g>
<!-- Node0&#45;&gt;Node1 -->
<g id="edge1" class="edge">
<title>Node0&#45;&gt;Node1</title>
<path fill="none" stroke="midnightblue" d="M79.68,-81.77C113.22,-101.43 171.62,-135.68 200.03,-152.34"/>
<polygon fill="midnightblue" stroke="midnightblue" points="81.32,-78.67 70.92,-76.63 77.78,-84.71 81.32,-78.67"/>
</g>
<!-- Node6 -->
<g id="node7" class="node">
<title>Node6</title>
<g id="a_node7"><a xlink:href="classbWidgets_1_1bwContainerWidget.html" target="_top" xlink:title=" ">
<polygon fill="none" stroke="black" points="143,-76.5 143,-95.5 292,-95.5 292,-76.5 143,-76.5"/>
<text text-anchor="middle" x="217.5" y="-83.5" font-family="Helvetica,sans-Serif" font-size="10.00">bWidgets::bwContainerWidget</text>
</a>
</g>
</g>
<!-- Node0&#45;&gt;Node6 -->
<g id="edge6" class="edge">
<title>Node0&#45;&gt;Node6</title>
<path fill="none" stroke="midnightblue" d="M117.22,-74.36C125.66,-75.35 134.37,-76.37 142.98,-77.38"/>
<polygon fill="midnightblue" stroke="midnightblue" points="117.44,-70.86 107.1,-73.17 116.62,-77.81 117.44,-70.86"/>
</g>
<!-- Node9 -->
<g id="node10" class="node">
<title>Node9</title>
<g id="a_node10"><a xlink:href="classbWidgets_1_1bwLabel.html" target="_top" xlink:title=" ">
<polygon fill="none" stroke="black" points="167.5,-38.5 167.5,-57.5 267.5,-57.5 267.5,-38.5 167.5,-38.5"/>
<text text-anchor="middle" x="217.5" y="-45.5" font-family="Helvetica,sans-Serif" font-size="10.00">bWidgets::bwLabel</text>
</a>
</g>
</g>
<!-- Node0&#45;&gt;Node9 -->
<g id="edge9" class="edge">
<title>Node0&#45;&gt;Node9</title>
<path fill="none" stroke="midnightblue" d="M117.29,-59.64C133.94,-57.68 151.67,-55.6 167.46,-53.75"/>
<polygon fill="midnightblue" stroke="midnightblue" points="116.62,-56.19 107.1,-60.83 117.44,-63.14 116.62,-56.19"/>
</g>
<!-- Node10 -->
<g id="node11" class="node">
<title>Node10</title>
<g id="a_node11"><a xlink:href="classbWidgets_1_1bwTextBox.html" target="_top" xlink:title=" ">
<polygon fill="none" stroke="black" points="161,-0.5 161,-19.5 274,-19.5 274,-0.5 161,-0.5"/>
<text text-anchor="middle" x="217.5" y="-7.5" font-family="Helvetica,sans-Serif" font-size="10.00">bWidgets::bwTextBox</text>
</a>
</g>
</g>
<!-- Node0&#45;&gt;Node10 -->
<g id="edge10" class="edge">
<title>Node0&#45;&gt;Node10</title>
<path fill="none" stroke="midnightblue" d="M83.94,-53.02C100.95,-45.28 122.9,-35.87 143,-29 153.23,-25.51 164.44,-22.3 174.97,-19.56"/>
<polygon fill="midnightblue" stroke="midnightblue" points="82.16,-49.98 74.54,-57.35 85.09,-56.34 82.16,-49.98"/>
</g>
<!-- Node2 -->
<g id="node3" class="node">
<title>Node2</title>
<g id="a_node3"><a xlink:href="classbWidgets_1_1bwCheckbox.html" target="_top" xlink:title=" ">
<polygon fill="none" stroke="black" points="335.5,-228.5 335.5,-247.5 456.5,-247.5 456.5,-228.5 335.5,-228.5"/>
<text text-anchor="middle" x="396" y="-235.5" font-family="Helvetica,sans-Serif" font-size="10.00">bWidgets::bwCheckbox</text>
</a>
</g>
</g>
<!-- Node1&#45;&gt;Node2 -->
<g id="edge2" class="edge">
<title>Node1&#45;&gt;Node2</title>
<path fill="none" stroke="midnightblue" d="M243.23,-176.73C264.98,-189.23 297.81,-207.01 328,-219 336.99,-222.57 346.9,-225.77 356.29,-228.47"/>
<polygon fill="midnightblue" stroke="midnightblue" points="244.74,-173.56 234.34,-171.56 241.22,-179.61 244.74,-173.56"/>
</g>
<!-- Node3 -->
<g id="node4" class="node">
<title>Node3</title>
<g id="a_node4"><a xlink:href="classbWidgets_1_1bwPushButton.html" target="_top" xlink:title=" ">
<polygon fill="none" stroke="black" points="332,-190.5 332,-209.5 460,-209.5 460,-190.5 332,-190.5"/>
<text text-anchor="middle" x="396" y="-197.5" font-family="Helvetica,sans-Serif" font-size="10.00">bWidgets::bwPushButton</text>
</a>
</g>
</g>
<!-- Node1&#45;&gt;Node3 -->
<g id="edge3" class="edge">
<title>Node1&#45;&gt;Node3</title>
<path fill="none" stroke="midnightblue" d="M273.09,-173.75C298.04,-179.13 327.23,-185.41 350.78,-190.48"/>
<polygon fill="midnightblue" stroke="midnightblue" points="273.55,-170.27 263.04,-171.59 272.08,-177.12 273.55,-170.27"/>
</g>
<!-- Node4 -->
<g id="node5" class="node">
<title>Node4</title>
<g id="a_node5"><a xlink:href="classbWidgets_1_1bwRadioButton.html" target="_top" xlink:title="A radio&#45;button like widget retaining a pressed state once pressed.">
<polygon fill="none" stroke="black" points="330.5,-152.5 330.5,-171.5 461.5,-171.5 461.5,-152.5 330.5,-152.5"/>
<text text-anchor="middle" x="396" y="-159.5" font-family="Helvetica,sans-Serif" font-size="10.00">bWidgets::bwRadioButton</text>
</a>
</g>
</g>
<!-- Node1&#45;&gt;Node4 -->
<g id="edge4" class="edge">
<title>Node1&#45;&gt;Node4</title>
<path fill="none" stroke="midnightblue" d="M298.6,-162C309.19,-162 319.95,-162 330.24,-162"/>
<polygon fill="midnightblue" stroke="midnightblue" points="298.51,-158.5 288.51,-162 298.51,-165.5 298.51,-158.5"/>
</g>
<!-- Node5 -->
<g id="node6" class="node">
<title>Node5</title>
<g id="a_node6"><a xlink:href="classbWidgets_1_1bwScrollBar.html" target="_top" xlink:title=" ">
<polygon fill="none" stroke="black" points="338,-114.5 338,-133.5 454,-133.5 454,-114.5 338,-114.5"/>
<text text-anchor="middle" x="396" y="-121.5" font-family="Helvetica,sans-Serif" font-size="10.00">bWidgets::bwScrollBar</text>
</a>
</g>
</g>
<!-- Node1&#45;&gt;Node5 -->
<g id="edge5" class="edge">
<title>Node1&#45;&gt;Node5</title>
<path fill="none" stroke="midnightblue" d="M273.09,-150.25C298.04,-144.87 327.23,-138.59 350.78,-133.52"/>
<polygon fill="midnightblue" stroke="midnightblue" points="272.08,-146.88 263.04,-152.41 273.55,-153.73 272.08,-146.88"/>
</g>
<!-- Node7 -->
<g id="node8" class="node">
<title>Node7</title>
<g id="a_node8"><a xlink:href="classbWidgets_1_1bwPanel.html" target="_top" xlink:title=" ">
<polygon fill="none" stroke="black" points="345.5,-76.5 345.5,-95.5 446.5,-95.5 446.5,-76.5 345.5,-76.5"/>
<text text-anchor="middle" x="396" y="-83.5" font-family="Helvetica,sans-Serif" font-size="10.00">bWidgets::bwPanel</text>
</a>
</g>
</g>
<!-- Node6&#45;&gt;Node7 -->
<g id="edge7" class="edge">
<title>Node6&#45;&gt;Node7</title>
<path fill="none" stroke="midnightblue" d="M302.25,-86C317.02,-86 331.96,-86 345.4,-86"/>
<polygon fill="midnightblue" stroke="midnightblue" points="302.07,-82.5 292.07,-86 302.07,-89.5 302.07,-82.5"/>
</g>
<!-- Node8 -->
<g id="node9" class="node">
<title>Node8</title>
<g id="a_node9"><a xlink:href="classbWidgets_1_1bwScrollView.html" target="_top" xlink:title=" ">
<polygon fill="none" stroke="black" points="334.5,-38.5 334.5,-57.5 457.5,-57.5 457.5,-38.5 334.5,-38.5"/>
<text text-anchor="middle" x="396" y="-45.5" font-family="Helvetica,sans-Serif" font-size="10.00">bWidgets::bwScrollView</text>
</a>
</g>
</g>
<!-- Node6&#45;&gt;Node8 -->
<g id="edge8" class="edge">
<title>Node6&#45;&gt;Node8</title>
<path fill="none" stroke="midnightblue" d="M273.09,-74.25C298.04,-68.87 327.23,-62.59 350.78,-57.52"/>
<polygon fill="midnightblue" stroke="midnightblue" points="272.08,-70.88 263.04,-76.41 273.55,-77.73 272.08,-70.88"/>
</g>
<!-- Node11 -->
<g id="node12" class="node">
<title>Node11</title>
<g id="a_node12"><a xlink:href="classbWidgets_1_1bwNumberSlider.html" target="_top" xlink:title=" ">
<polygon fill="none" stroke="black" points="328,-0.5 328,-19.5 464,-19.5 464,-0.5 328,-0.5"/>
<text text-anchor="middle" x="396" y="-7.5" font-family="Helvetica,sans-Serif" font-size="10.00">bWidgets::bwNumberSlider</text>
</a>
</g>
</g>
<!-- Node10&#45;&gt;Node11 -->
<g id="edge11" class="edge">
<title>Node10&#45;&gt;Node11</title>
<path fill="none" stroke="midnightblue" d="M284.48,-10C298.62,-10 313.58,-10 327.77,-10"/>
<polygon fill="midnightblue" stroke="midnightblue" points="284.35,-6.5 274.35,-10 284.35,-13.5 284.35,-6.5"/>
</g>
</g>
</svg>
