<?xml version="1.0" encoding="UTF-8" standalone="no"?>
<!DOCTYPE svg PUBLIC "-//W3C//DTD SVG 1.1//EN"
 "http://www.w3.org/Graphics/SVG/1.1/DTD/svg11.dtd">
<!-- Generated by graphviz version 2.50.0 (20211204.2007)
 -->
<!-- Title: Graphical Class Hierarchy Pages: 1 -->
<svg width="448pt" height="123pt"
 viewBox="0.00 0.00 448.00 123.00" xmlns="http://www.w3.org/2000/svg" xmlns:xlink="http://www.w3.org/1999/xlink">
<g id="graph0" class="graph" transform="scale(1 1) rotate(0) translate(4 119)">
<title>Graphical Class Hierarchy</title>
<!-- Node0 -->
<g id="node1" class="node">
<title>Node0</title>
<g id="a_node1"><a xlink:href="classbWidgets_1_1bwStyle.html" target="_top" xlink:title=" ">
<polygon fill="none" stroke="black" points="0,-38.5 0,-57.5 99,-57.5 99,-38.5 0,-38.5"/>
<text text-anchor="middle" x="49.5" y="-45.5" font-family="Helvetica,sans-Serif" font-size="10.00">bWidgets::bwStyle</text>
</a>
</g>
</g>
<!-- Node1 -->
<g id="node2" class="node">
<title>Node1</title>
<g id="a_node2"><a xlink:href="classbWidgets_1_1bwStyleCSS.html" target="_top" xlink:title="Style&#45;class for CSS driven Styles.">
<polygon fill="none" stroke="black" points="141,-76.5 141,-95.5 261,-95.5 261,-76.5 141,-76.5"/>
<text text-anchor="middle" x="201" y="-83.5" font-family="Helvetica,sans-Serif" font-size="10.00">bWidgets::bwStyleCSS</text>
</a>
</g>
</g>
<!-- Node0&#45;&gt;Node1 -->
<g id="edge1" class="edge">
<title>Node0&#45;&gt;Node1</title>
<path fill="none" stroke="midnightblue" d="M98.15,-60.11C118.97,-65.4 143.04,-71.52 162.55,-76.48"/>
<polygon fill="midnightblue" stroke="midnightblue" points="98.78,-56.66 88.23,-57.59 97.05,-63.44 98.78,-56.66"/>
</g>
<!-- Node4 -->
<g id="node5" class="node">
<title>Node4</title>
<g id="a_node5"><a xlink:href="classbWidgets_1_1bwStyleClassic.html" target="_top" xlink:title=" ">
<polygon fill="none" stroke="black" points="135,-38.5 135,-57.5 267,-57.5 267,-38.5 135,-38.5"/>
<text text-anchor="middle" x="201" y="-45.5" font-family="Helvetica,sans-Serif" font-size="10.00">bWidgets::bwStyleClassic</text>
</a>
</g>
</g>
<!-- Node0&#45;&gt;Node4 -->
<g id="edge4" class="edge">
<title>Node0&#45;&gt;Node4</title>
<path fill="none" stroke="midnightblue" d="M109.15,-48C117.58,-48 126.3,-48 134.85,-48"/>
<polygon fill="midnightblue" stroke="midnightblue" points="109.04,-44.5 99.04,-48 109.04,-51.5 109.04,-44.5"/>
</g>
<!-- Node5 -->
<g id="node6" class="node">
<title>Node5</title>
<g id="a_node6"><a xlink:href="classbWidgets_1_1bwStyleFlat.html" target="_top" xlink:title=" ">
<polygon fill="none" stroke="black" points="143,-0.5 143,-19.5 259,-19.5 259,-0.5 143,-0.5"/>
<text text-anchor="middle" x="201" y="-7.5" font-family="Helvetica,sans-Serif" font-size="10.00">bWidgets::bwStyleFlat</text>
</a>
</g>
</g>
<!-- Node0&#45;&gt;Node5 -->
<g id="edge5" class="edge">
<title>Node0&#45;&gt;Node5</title>
<path fill="none" stroke="midnightblue" d="M98.15,-35.89C118.97,-30.6 143.04,-24.48 162.55,-19.52"/>
<polygon fill="midnightblue" stroke="midnightblue" points="97.05,-32.56 88.23,-38.41 98.78,-39.34 97.05,-32.56"/>
</g>
<!-- Node2 -->
<g id="node3" class="node">
<title>Node2</title>
<g id="a_node3"><a xlink:href="classbWidgets_1_1bwStyleFlatDark.html" target="_top" xlink:title=" ">
<polygon fill="none" stroke="black" points="303,-95.5 303,-114.5 440,-114.5 440,-95.5 303,-95.5"/>
<text text-anchor="middle" x="371.5" y="-102.5" font-family="Helvetica,sans-Serif" font-size="10.00">bWidgets::bwStyleFlatDark</text>
</a>
</g>
</g>
<!-- Node1&#45;&gt;Node2 -->
<g id="edge2" class="edge">
<title>Node1&#45;&gt;Node2</title>
<path fill="none" stroke="midnightblue" d="M271.57,-93.85C281.87,-95.01 292.46,-96.2 302.71,-97.36"/>
<polygon fill="midnightblue" stroke="midnightblue" points="271.74,-90.34 261.41,-92.7 270.95,-97.3 271.74,-90.34"/>
</g>
<!-- Node3 -->
<g id="node4" class="node">
<title>Node3</title>
<g id="a_node4"><a xlink:href="classbWidgets_1_1bwStyleFlatLight.html" target="_top" xlink:title=" ">
<polygon fill="none" stroke="black" points="303,-57.5 303,-76.5 440,-76.5 440,-57.5 303,-57.5"/>
<text text-anchor="middle" x="371.5" y="-64.5" font-family="Helvetica,sans-Serif" font-size="10.00">bWidgets::bwStyleFlatLight</text>
</a>
</g>
</g>
<!-- Node1&#45;&gt;Node3 -->
<g id="edge3" class="edge">
<title>Node1&#45;&gt;Node3</title>
<path fill="none" stroke="midnightblue" d="M271.57,-78.15C281.87,-76.99 292.46,-75.8 302.71,-74.64"/>
<polygon fill="midnightblue" stroke="midnightblue" points="270.95,-74.7 261.41,-79.3 271.74,-81.66 270.95,-74.7"/>
</g>
</g>
</svg>
