<?xml version="1.0" encoding="UTF-8" standalone="no"?>
<!DOCTYPE svg PUBLIC "-//W3C//DTD SVG 1.1//EN"
 "http://www.w3.org/Graphics/SVG/1.1/DTD/svg11.dtd">
<!-- Generated by graphviz version 2.50.0 (20211204.2007)
 -->
<!-- Title: Graphical Class Hierarchy Pages: 1 -->
<svg width="482pt" height="88pt"
 viewBox="0.00 0.00 482.00 88.00" xmlns="http://www.w3.org/2000/svg" xmlns:xlink="http://www.w3.org/1999/xlink">
<g id="graph0" class="graph" transform="scale(1 1) rotate(0) translate(4 84)">
<title>Graphical Class Hierarchy</title>
<!-- Node0 -->
<g id="node1" class="node">
<title>Node0</title>
<g id="a_node1"><a xlink:href="classbWidgets_1_1bwScreenGraph_1_1Node.html" target="_top" xlink:title="The base data&#45;structure for a screen&#45;graph node.">
<polygon fill="none" stroke="black" points="0,-24.5 0,-54.5 134,-54.5 134,-24.5 0,-24.5"/>
<text text-anchor="start" x="8" y="-42.5" font-family="Helvetica,sans-Serif" font-size="10.00">bWidgets::bwScreenGraph</text>
<text text-anchor="middle" x="67" y="-31.5" font-family="Helvetica,sans-Serif" font-size="10.00">::Node</text>
</a>
</g>
</g>
<!-- Node1 -->
<g id="node2" class="node">
<title>Node1</title>
<g id="a_node2"><a xlink:href="classbWidgets_1_1bwScreenGraph_1_1LayoutNode.html" target="_top" xlink:title="Node for aligning children to a specific layout.">
<polygon fill="none" stroke="black" points="170,-49.5 170,-79.5 304,-79.5 304,-49.5 170,-49.5"/>
<text text-anchor="start" x="178" y="-67.5" font-family="Helvetica,sans-Serif" font-size="10.00">bWidgets::bwScreenGraph</text>
<text text-anchor="middle" x="237" y="-56.5" font-family="Helvetica,sans-Serif" font-size="10.00">::LayoutNode</text>
</a>
</g>
</g>
<!-- Node0&#45;&gt;Node1 -->
<g id="edge1" class="edge">
<title>Node0&#45;&gt;Node1</title>
<path fill="none" stroke="midnightblue" d="M144.32,-50.86C152.83,-52.12 161.44,-53.4 169.81,-54.65"/>
<polygon fill="midnightblue" stroke="midnightblue" points="144.8,-47.39 134.4,-49.38 143.77,-54.31 144.8,-47.39"/>
</g>
<!-- Node3 -->
<g id="node4" class="node">
<title>Node3</title>
<g id="a_node4"><a xlink:href="classbWidgets_1_1bwScreenGraph_1_1WidgetNode.html" target="_top" xlink:title="Node representing a single widget with no children.">
<polygon fill="none" stroke="black" points="170,-0.5 170,-30.5 304,-30.5 304,-0.5 170,-0.5"/>
<text text-anchor="start" x="178" y="-18.5" font-family="Helvetica,sans-Serif" font-size="10.00">bWidgets::bwScreenGraph</text>
<text text-anchor="middle" x="237" y="-7.5" font-family="Helvetica,sans-Serif" font-size="10.00">::WidgetNode</text>
</a>
</g>
</g>
<!-- Node0&#45;&gt;Node3 -->
<g id="edge3" class="edge">
<title>Node0&#45;&gt;Node3</title>
<path fill="none" stroke="midnightblue" d="M144.32,-28.6C152.83,-27.38 161.44,-26.15 169.81,-24.96"/>
<polygon fill="midnightblue" stroke="midnightblue" points="143.8,-25.14 134.4,-30.01 144.79,-32.07 143.8,-25.14"/>
</g>
<!-- Node2 -->
<g id="node3" class="node">
<title>Node2</title>
<g id="a_node3"><a xlink:href="classbWidgets_1_1bwScreenGraph_1_1ContainerNode.html" target="_top" xlink:title="Node representing a widget with children.">
<polygon fill="none" stroke="black" points="340,-24.5 340,-54.5 474,-54.5 474,-24.5 340,-24.5"/>
<text text-anchor="start" x="348" y="-42.5" font-family="Helvetica,sans-Serif" font-size="10.00">bWidgets::bwScreenGraph</text>
<text text-anchor="middle" x="407" y="-31.5" font-family="Helvetica,sans-Serif" font-size="10.00">::ContainerNode</text>
</a>
</g>
</g>
<!-- Node1&#45;&gt;Node2 -->
<g id="edge2" class="edge">
<title>Node1&#45;&gt;Node2</title>
<path fill="none" stroke="midnightblue" d="M314.32,-53.14C322.83,-51.88 331.44,-50.6 339.81,-49.35"/>
<polygon fill="midnightblue" stroke="midnightblue" points="313.77,-49.69 304.4,-54.62 314.8,-56.61 313.77,-49.69"/>
</g>
<!-- Node3&#45;&gt;Node2 -->
<g id="edge4" class="edge">
<title>Node3&#45;&gt;Node2</title>
<path fill="none" stroke="midnightblue" d="M314.32,-26.4C322.83,-27.62 331.44,-28.85 339.81,-30.04"/>
<polygon fill="midnightblue" stroke="midnightblue" points="314.79,-22.93 304.4,-24.99 313.8,-29.86 314.79,-22.93"/>
</g>
</g>
</svg>
