<?xml version="1.0" encoding="UTF-8" standalone="no"?>
<!DOCTYPE svg PUBLIC "-//W3C//DTD SVG 1.1//EN"
 "http://www.w3.org/Graphics/SVG/1.1/DTD/svg11.dtd">
<!-- Generated by graphviz version 2.50.0 (20211204.2007)
 -->
<!-- Title: bwidgets/screen_graph/Iterators.cc Pages: 1 -->
<svg width="869pt" height="431pt"
 viewBox="0.00 0.00 868.75 431.00" xmlns="http://www.w3.org/2000/svg" xmlns:xlink="http://www.w3.org/1999/xlink">
<g id="graph0" class="graph" transform="scale(1 1) rotate(0) translate(4 427)">
<title>bwidgets/screen_graph/Iterators.cc</title>
<!-- Node1 -->
<g id="node1" class="node">
<title>Node1</title>
<g id="a_node1"><a xlink:title=" ">
<polygon fill="#bfbfbf" stroke="black" points="348,-392.5 348,-422.5 465,-422.5 465,-392.5 348,-392.5"/>
<text text-anchor="start" x="356" y="-410.5" font-family="Helvetica,sans-Serif" font-size="10.00">bwidgets/screen_graph</text>
<text text-anchor="middle" x="406.5" y="-399.5" font-family="Helvetica,sans-Serif" font-size="10.00">/Iterators.cc</text>
</a>
</g>
</g>
<!-- Node2 -->
<g id="node2" class="node">
<title>Node2</title>
<g id="a_node2"><a xlink:href="Iterators_8h.html" target="_top" xlink:title=" ">
<polygon fill="none" stroke="black" points="340,-336.5 340,-355.5 401,-355.5 401,-336.5 340,-336.5"/>
<text text-anchor="middle" x="370.5" y="-343.5" font-family="Helvetica,sans-Serif" font-size="10.00">Iterators.h</text>
</a>
</g>
</g>
<!-- Node1&#45;&gt;Node2 -->
<g id="edge1" class="edge">
<title>Node1&#45;&gt;Node2</title>
<path fill="none" stroke="midnightblue" d="M397.97,-392.4C392.9,-384.02 386.43,-373.33 381.04,-364.42"/>
<polygon fill="midnightblue" stroke="midnightblue" points="383.91,-362.4 375.74,-355.66 377.92,-366.03 383.91,-362.4"/>
</g>
<!-- Node29 -->
<g id="node29" class="node">
<title>Node29</title>
<g id="a_node29"><a xlink:title=" ">
<polygon fill="none" stroke="#bfbfbf" points="419,-336.5 419,-355.5 468,-355.5 468,-336.5 419,-336.5"/>
<text text-anchor="middle" x="443.5" y="-343.5" font-family="Helvetica,sans-Serif" font-size="10.00">cassert</text>
</a>
</g>
</g>
<!-- Node1&#45;&gt;Node29 -->
<g id="edge37" class="edge">
<title>Node1&#45;&gt;Node29</title>
<path fill="none" stroke="midnightblue" d="M415.27,-392.4C420.48,-384.02 427.13,-373.33 432.67,-364.42"/>
<polygon fill="midnightblue" stroke="midnightblue" points="435.81,-366 438.12,-355.66 429.86,-362.3 435.81,-366"/>
</g>
<!-- Node3 -->
<g id="node3" class="node">
<title>Node3</title>
<g id="a_node3"><a xlink:title=" ">
<polygon fill="none" stroke="#bfbfbf" points="281,-280.5 281,-299.5 328,-299.5 328,-280.5 281,-280.5"/>
<text text-anchor="middle" x="304.5" y="-287.5" font-family="Helvetica,sans-Serif" font-size="10.00">iterator</text>
</a>
</g>
</g>
<!-- Node2&#45;&gt;Node3 -->
<g id="edge2" class="edge">
<title>Node2&#45;&gt;Node3</title>
<path fill="none" stroke="midnightblue" d="M359.9,-336.32C350.04,-328.26 335.15,-316.08 323.28,-306.37"/>
<polygon fill="midnightblue" stroke="midnightblue" points="325.25,-303.46 315.3,-299.83 320.82,-308.88 325.25,-303.46"/>
</g>
<!-- Node4 -->
<g id="node4" class="node">
<title>Node4</title>
<g id="a_node4"><a xlink:href="Node_8h.html" target="_top" xlink:title=" ">
<polygon fill="none" stroke="black" points="346.5,-280.5 346.5,-299.5 394.5,-299.5 394.5,-280.5 346.5,-280.5"/>
<text text-anchor="middle" x="370.5" y="-287.5" font-family="Helvetica,sans-Serif" font-size="10.00">Node.h</text>
</a>
</g>
</g>
<!-- Node2&#45;&gt;Node4 -->
<g id="edge3" class="edge">
<title>Node2&#45;&gt;Node4</title>
<path fill="none" stroke="midnightblue" d="M370.5,-336.08C370.5,-329.01 370.5,-318.86 370.5,-309.99"/>
<polygon fill="midnightblue" stroke="midnightblue" points="374,-309.75 370.5,-299.75 367,-309.75 374,-309.75"/>
</g>
<!-- Node25 -->
<g id="node25" class="node">
<title>Node25</title>
<g id="a_node25"><a xlink:href="ScreenGraph_8h.html" target="_top" xlink:title=" ">
<polygon fill="none" stroke="black" points="568.5,-280.5 568.5,-299.5 650.5,-299.5 650.5,-280.5 568.5,-280.5"/>
<text text-anchor="middle" x="609.5" y="-287.5" font-family="Helvetica,sans-Serif" font-size="10.00">ScreenGraph.h</text>
</a>
</g>
</g>
<!-- Node2&#45;&gt;Node25 -->
<g id="edge29" class="edge">
<title>Node2&#45;&gt;Node25</title>
<path fill="none" stroke="midnightblue" d="M401.15,-337.91C403.97,-337.26 406.79,-336.62 409.5,-336 461.32,-324.19 520.75,-310.84 561.27,-301.77"/>
<polygon fill="midnightblue" stroke="midnightblue" points="562.15,-305.16 571.14,-299.56 560.62,-298.33 562.15,-305.16"/>
</g>
<!-- Node5 -->
<g id="node5" class="node">
<title>Node5</title>
<g id="a_node5"><a xlink:title=" ">
<polygon fill="none" stroke="#bfbfbf" points="0,-56.5 0,-75.5 29,-75.5 29,-56.5 0,-56.5"/>
<text text-anchor="middle" x="14.5" y="-63.5" font-family="Helvetica,sans-Serif" font-size="10.00">list</text>
</a>
</g>
</g>
<!-- Node4&#45;&gt;Node5 -->
<g id="edge4" class="edge">
<title>Node4&#45;&gt;Node5</title>
<path fill="none" stroke="midnightblue" d="M346.37,-282.55C271.31,-261.94 44.84,-195.26 8.5,-132 0.39,-117.89 3.27,-99.15 7.36,-85.42"/>
<polygon fill="midnightblue" stroke="midnightblue" points="10.77,-86.27 10.71,-75.67 4.15,-83.99 10.77,-86.27"/>
</g>
<!-- Node6 -->
<g id="node6" class="node">
<title>Node6</title>
<g id="a_node6"><a xlink:href="bwContainerWidget_8h.html" target="_top" xlink:title=" ">
<polygon fill="none" stroke="black" points="398.5,-224.5 398.5,-243.5 508.5,-243.5 508.5,-224.5 398.5,-224.5"/>
<text text-anchor="middle" x="453.5" y="-231.5" font-family="Helvetica,sans-Serif" font-size="10.00">bwContainerWidget.h</text>
</a>
</g>
</g>
<!-- Node4&#45;&gt;Node6 -->
<g id="edge5" class="edge">
<title>Node4&#45;&gt;Node6</title>
<path fill="none" stroke="midnightblue" d="M383.84,-280.32C396.66,-271.98 416.28,-259.21 431.44,-249.35"/>
<polygon fill="midnightblue" stroke="midnightblue" points="433.72,-252.04 440.2,-243.65 429.91,-246.17 433.72,-252.04"/>
</g>
<!-- Node7 -->
<g id="node7" class="node">
<title>Node7</title>
<g id="a_node7"><a xlink:href="bwWidget_8h.html" target="_top" xlink:title=" ">
<polygon fill="none" stroke="black" points="379.5,-168.5 379.5,-187.5 447.5,-187.5 447.5,-168.5 379.5,-168.5"/>
<text text-anchor="middle" x="413.5" y="-175.5" font-family="Helvetica,sans-Serif" font-size="10.00">bwWidget.h</text>
</a>
</g>
</g>
<!-- Node4&#45;&gt;Node7 -->
<g id="edge28" class="edge">
<title>Node4&#45;&gt;Node7</title>
<path fill="none" stroke="midnightblue" d="M372.42,-280.4C375.36,-267.77 381.51,-243.6 389.5,-224 393.3,-214.67 398.46,-204.75 403.03,-196.6"/>
<polygon fill="midnightblue" stroke="midnightblue" points="406.2,-198.11 408.16,-187.7 400.13,-194.62 406.2,-198.11"/>
</g>
<!-- Node24 -->
<g id="node24" class="node">
<title>Node24</title>
<g id="a_node24"><a xlink:href="bwLayoutInterface_8h.html" target="_top" xlink:title=" ">
<polygon fill="none" stroke="black" points="114,-168.5 114,-187.5 219,-187.5 219,-168.5 114,-168.5"/>
<text text-anchor="middle" x="166.5" y="-175.5" font-family="Helvetica,sans-Serif" font-size="10.00">bwLayoutInterface.h</text>
</a>
</g>
</g>
<!-- Node4&#45;&gt;Node24 -->
<g id="edge26" class="edge">
<title>Node4&#45;&gt;Node24</title>
<path fill="none" stroke="midnightblue" d="M354.49,-280.37C319.04,-261.25 233.69,-215.23 191.28,-192.36"/>
<polygon fill="midnightblue" stroke="midnightblue" points="192.9,-189.26 182.43,-187.59 189.57,-195.42 192.9,-189.26"/>
</g>
<!-- Node6&#45;&gt;Node7 -->
<g id="edge6" class="edge">
<title>Node6&#45;&gt;Node7</title>
<path fill="none" stroke="midnightblue" d="M446.89,-224.08C441.24,-216.46 432.96,-205.26 426.05,-195.94"/>
<polygon fill="midnightblue" stroke="midnightblue" points="428.75,-193.7 419.98,-187.75 423.12,-197.87 428.75,-193.7"/>
</g>
<!-- Node22 -->
<g id="node22" class="node">
<title>Node22</title>
<g id="a_node22"><a xlink:href="bwWidgetBaseStyle_8h.html" target="_top" xlink:title=" ">
<polygon fill="none" stroke="black" points="526,-168.5 526,-187.5 639,-187.5 639,-168.5 526,-168.5"/>
<text text-anchor="middle" x="582.5" y="-175.5" font-family="Helvetica,sans-Serif" font-size="10.00">bwWidgetBaseStyle.h</text>
</a>
</g>
</g>
<!-- Node6&#45;&gt;Node22 -->
<g id="edge24" class="edge">
<title>Node6&#45;&gt;Node22</title>
<path fill="none" stroke="midnightblue" d="M473.94,-224.44C495.17,-215.56 528.6,-201.56 552.75,-191.45"/>
<polygon fill="midnightblue" stroke="midnightblue" points="554.28,-194.61 562.16,-187.52 551.58,-188.15 554.28,-194.61"/>
</g>
<!-- Node8 -->
<g id="node8" class="node">
<title>Node8</title>
<g id="a_node8"><a xlink:title=" ">
<polygon fill="none" stroke="#bfbfbf" points="458.5,-56.5 458.5,-75.5 508.5,-75.5 508.5,-56.5 458.5,-56.5"/>
<text text-anchor="middle" x="483.5" y="-63.5" font-family="Helvetica,sans-Serif" font-size="10.00">optional</text>
</a>
</g>
</g>
<!-- Node7&#45;&gt;Node8 -->
<g id="edge7" class="edge">
<title>Node7&#45;&gt;Node8</title>
<path fill="none" stroke="midnightblue" d="M414.47,-168.37C416.26,-155.29 421.02,-130.06 432.5,-112 440.02,-100.17 451.54,-89.63 461.73,-81.73"/>
<polygon fill="midnightblue" stroke="midnightblue" points="463.88,-84.49 469.85,-75.75 459.73,-78.86 463.88,-84.49"/>
</g>
<!-- Node9 -->
<g id="node9" class="node">
<title>Node9</title>
<g id="a_node9"><a xlink:title=" ">
<polygon fill="none" stroke="#bfbfbf" points="442,-112.5 442,-131.5 493,-131.5 493,-112.5 442,-112.5"/>
<text text-anchor="middle" x="467.5" y="-119.5" font-family="Helvetica,sans-Serif" font-size="10.00">typeinfo</text>
</a>
</g>
</g>
<!-- Node7&#45;&gt;Node9 -->
<g id="edge8" class="edge">
<title>Node7&#45;&gt;Node9</title>
<path fill="none" stroke="midnightblue" d="M422.42,-168.08C430.28,-160.22 441.93,-148.57 451.42,-139.08"/>
<polygon fill="midnightblue" stroke="midnightblue" points="454.15,-141.3 458.75,-131.75 449.2,-136.35 454.15,-141.3"/>
</g>
<!-- Node10 -->
<g id="node10" class="node">
<title>Node10</title>
<g id="a_node10"><a xlink:href="bwDistance_8h.html" target="_top" xlink:title=" ">
<polygon fill="none" stroke="black" points="755,-112.5 755,-131.5 832,-131.5 832,-112.5 755,-112.5"/>
<text text-anchor="middle" x="793.5" y="-119.5" font-family="Helvetica,sans-Serif" font-size="10.00">bwDistance.h</text>
</a>
</g>
</g>
<!-- Node7&#45;&gt;Node10 -->
<g id="edge9" class="edge">
<title>Node7&#45;&gt;Node10</title>
<path fill="none" stroke="midnightblue" d="M447.56,-172.16C515.2,-162.55 666.69,-141.02 744.83,-129.92"/>
<polygon fill="midnightblue" stroke="midnightblue" points="745.48,-133.36 754.89,-128.49 744.5,-126.43 745.48,-133.36"/>
</g>
<!-- Node13 -->
<g id="node13" class="node">
<title>Node13</title>
<g id="a_node13"><a xlink:href="bwFunctorInterface_8h.html" target="_top" xlink:title=" ">
<polygon fill="none" stroke="black" points="511,-112.5 511,-131.5 620,-131.5 620,-112.5 511,-112.5"/>
<text text-anchor="middle" x="565.5" y="-119.5" font-family="Helvetica,sans-Serif" font-size="10.00">bwFunctorInterface.h</text>
</a>
</g>
</g>
<!-- Node7&#45;&gt;Node13 -->
<g id="edge12" class="edge">
<title>Node7&#45;&gt;Node13</title>
<path fill="none" stroke="midnightblue" d="M437.58,-168.44C463.04,-159.4 503.39,-145.06 531.96,-134.92"/>
<polygon fill="midnightblue" stroke="midnightblue" points="533.28,-138.16 541.53,-131.52 530.93,-131.57 533.28,-138.16"/>
</g>
<!-- Node14 -->
<g id="node14" class="node">
<title>Node14</title>
<g id="a_node14"><a xlink:href="bwRectangle_8h.html" target="_top" xlink:title=" ">
<polygon fill="none" stroke="black" points="17.5,-112.5 17.5,-131.5 99.5,-131.5 99.5,-112.5 17.5,-112.5"/>
<text text-anchor="middle" x="58.5" y="-119.5" font-family="Helvetica,sans-Serif" font-size="10.00">bwRectangle.h</text>
</a>
</g>
</g>
<!-- Node7&#45;&gt;Node14 -->
<g id="edge13" class="edge">
<title>Node7&#45;&gt;Node14</title>
<path fill="none" stroke="midnightblue" d="M379.14,-172.29C324.38,-164.71 213.68,-149.06 109.72,-132.16"/>
<polygon fill="midnightblue" stroke="midnightblue" points="110.12,-128.68 99.68,-130.52 108.99,-135.59 110.12,-128.68"/>
</g>
<!-- Node15 -->
<g id="node15" class="node">
<title>Node15</title>
<g id="a_node15"><a xlink:href="bwStyleProperties_8h.html" target="_top" xlink:title=" ">
<polygon fill="none" stroke="black" points="281.5,-112.5 281.5,-131.5 385.5,-131.5 385.5,-112.5 281.5,-112.5"/>
<text text-anchor="middle" x="333.5" y="-119.5" font-family="Helvetica,sans-Serif" font-size="10.00">bwStyleProperties.h</text>
</a>
</g>
</g>
<!-- Node7&#45;&gt;Node15 -->
<g id="edge14" class="edge">
<title>Node7&#45;&gt;Node15</title>
<path fill="none" stroke="midnightblue" d="M400.65,-168.32C388.28,-159.98 369.37,-147.21 354.76,-137.35"/>
<polygon fill="midnightblue" stroke="midnightblue" points="356.57,-134.35 346.32,-131.65 352.65,-140.15 356.57,-134.35"/>
</g>
<!-- Node18 -->
<g id="node18" class="node">
<title>Node18</title>
<g id="a_node18"><a xlink:href="EventHandler_8h.html" target="_top" xlink:title=" ">
<polygon fill="none" stroke="black" points="118,-112.5 118,-131.5 263,-131.5 263,-112.5 118,-112.5"/>
<text text-anchor="middle" x="190.5" y="-119.5" font-family="Helvetica,sans-Serif" font-size="10.00">screen_graph/EventHandler.h</text>
</a>
</g>
</g>
<!-- Node7&#45;&gt;Node18 -->
<g id="edge19" class="edge">
<title>Node7&#45;&gt;Node18</title>
<path fill="none" stroke="midnightblue" d="M379.14,-168.68C340.58,-159.34 277.85,-144.15 235.42,-133.88"/>
<polygon fill="midnightblue" stroke="midnightblue" points="236.17,-130.46 225.63,-131.51 234.53,-137.26 236.17,-130.46"/>
</g>
<!-- Node11 -->
<g id="node11" class="node">
<title>Node11</title>
<g id="a_node11"><a xlink:href="bwPoint_8h.html" target="_top" xlink:title=" ">
<polygon fill="none" stroke="black" points="796.5,-56.5 796.5,-75.5 856.5,-75.5 856.5,-56.5 796.5,-56.5"/>
<text text-anchor="middle" x="826.5" y="-63.5" font-family="Helvetica,sans-Serif" font-size="10.00">bwPoint.h</text>
</a>
</g>
</g>
<!-- Node10&#45;&gt;Node11 -->
<g id="edge10" class="edge">
<title>Node10&#45;&gt;Node11</title>
<path fill="none" stroke="midnightblue" d="M798.95,-112.08C803.51,-104.61 810.17,-93.72 815.79,-84.52"/>
<polygon fill="midnightblue" stroke="midnightblue" points="818.92,-86.11 821.15,-75.75 812.95,-82.46 818.92,-86.11"/>
</g>
<!-- Node12 -->
<g id="node12" class="node">
<title>Node12</title>
<g id="a_node12"><a xlink:title=" ">
<polygon fill="none" stroke="#bfbfbf" points="532.5,-0.5 532.5,-19.5 576.5,-19.5 576.5,-0.5 532.5,-0.5"/>
<text text-anchor="middle" x="554.5" y="-7.5" font-family="Helvetica,sans-Serif" font-size="10.00">vector</text>
</a>
</g>
</g>
<!-- Node11&#45;&gt;Node12 -->
<g id="edge11" class="edge">
<title>Node11&#45;&gt;Node12</title>
<path fill="none" stroke="midnightblue" d="M796.35,-59.01C744.61,-48.74 639.38,-27.85 586.44,-17.34"/>
<polygon fill="midnightblue" stroke="midnightblue" points="587.07,-13.9 576.58,-15.38 585.7,-20.76 587.07,-13.9"/>
</g>
<!-- Node15&#45;&gt;Node8 -->
<g id="edge16" class="edge">
<title>Node15&#45;&gt;Node8</title>
<path fill="none" stroke="midnightblue" d="M357.27,-112.44C382.39,-103.4 422.21,-89.06 450.4,-78.92"/>
<polygon fill="midnightblue" stroke="midnightblue" points="451.62,-82.2 459.84,-75.52 449.25,-75.61 451.62,-82.2"/>
</g>
<!-- Node15&#45;&gt;Node12 -->
<g id="edge18" class="edge">
<title>Node15&#45;&gt;Node12</title>
<path fill="none" stroke="midnightblue" d="M327.59,-112.35C319.12,-98.79 305.97,-72.37 319.5,-56 344.85,-25.33 463.86,-15.36 522.16,-12.29"/>
<polygon fill="midnightblue" stroke="midnightblue" points="522.48,-15.78 532.3,-11.79 522.14,-8.79 522.48,-15.78"/>
</g>
<!-- Node16 -->
<g id="node16" class="node">
<title>Node16</title>
<g id="a_node16"><a xlink:title=" ">
<polygon fill="none" stroke="#bfbfbf" points="388.5,-56.5 388.5,-75.5 440.5,-75.5 440.5,-56.5 388.5,-56.5"/>
<text text-anchor="middle" x="414.5" y="-63.5" font-family="Helvetica,sans-Serif" font-size="10.00">memory</text>
</a>
</g>
</g>
<!-- Node15&#45;&gt;Node16 -->
<g id="edge15" class="edge">
<title>Node15&#45;&gt;Node16</title>
<path fill="none" stroke="midnightblue" d="M346.51,-112.32C359.03,-103.98 378.18,-91.21 392.97,-81.35"/>
<polygon fill="midnightblue" stroke="midnightblue" points="395.14,-84.11 401.52,-75.65 391.26,-78.29 395.14,-84.11"/>
</g>
<!-- Node17 -->
<g id="node17" class="node">
<title>Node17</title>
<g id="a_node17"><a xlink:title=" ">
<polygon fill="none" stroke="#bfbfbf" points="329,-56.5 329,-75.5 370,-75.5 370,-56.5 329,-56.5"/>
<text text-anchor="middle" x="349.5" y="-63.5" font-family="Helvetica,sans-Serif" font-size="10.00">string</text>
</a>
</g>
</g>
<!-- Node15&#45;&gt;Node17 -->
<g id="edge17" class="edge">
<title>Node15&#45;&gt;Node17</title>
<path fill="none" stroke="midnightblue" d="M336.14,-112.08C338.29,-104.85 341.38,-94.41 344.05,-85.4"/>
<polygon fill="midnightblue" stroke="midnightblue" points="347.42,-86.33 346.91,-75.75 340.71,-84.34 347.42,-86.33"/>
</g>
<!-- Node18&#45;&gt;Node5 -->
<g id="edge22" class="edge">
<title>Node18&#45;&gt;Node5</title>
<path fill="none" stroke="midnightblue" d="M162.61,-112.44C128.5,-101.98 71.31,-84.43 38.88,-74.48"/>
<polygon fill="midnightblue" stroke="midnightblue" points="39.87,-71.12 29.28,-71.54 37.82,-77.81 39.87,-71.12"/>
</g>
<!-- Node19 -->
<g id="node19" class="node">
<title>Node19</title>
<g id="a_node19"><a xlink:title=" ">
<polygon fill="none" stroke="#bfbfbf" points="234.5,-56.5 234.5,-75.5 272.5,-75.5 272.5,-56.5 234.5,-56.5"/>
<text text-anchor="middle" x="253.5" y="-63.5" font-family="Helvetica,sans-Serif" font-size="10.00">array</text>
</a>
</g>
</g>
<!-- Node18&#45;&gt;Node19 -->
<g id="edge20" class="edge">
<title>Node18&#45;&gt;Node19</title>
<path fill="none" stroke="midnightblue" d="M200.62,-112.32C210.03,-104.26 224.24,-92.08 235.57,-82.37"/>
<polygon fill="midnightblue" stroke="midnightblue" points="237.88,-85 243.19,-75.83 233.32,-79.68 237.88,-85"/>
</g>
<!-- Node20 -->
<g id="node20" class="node">
<title>Node20</title>
<g id="a_node20"><a xlink:title=" ">
<polygon fill="none" stroke="#bfbfbf" points="56,-56.5 56,-75.5 115,-75.5 115,-56.5 56,-56.5"/>
<text text-anchor="middle" x="85.5" y="-63.5" font-family="Helvetica,sans-Serif" font-size="10.00">functional</text>
</a>
</g>
</g>
<!-- Node18&#45;&gt;Node20 -->
<g id="edge21" class="edge">
<title>Node18&#45;&gt;Node20</title>
<path fill="none" stroke="midnightblue" d="M173.63,-112.32C156.79,-103.66 130.69,-90.24 111.26,-80.25"/>
<polygon fill="midnightblue" stroke="midnightblue" points="112.82,-77.12 102.33,-75.65 109.62,-83.34 112.82,-77.12"/>
</g>
<!-- Node21 -->
<g id="node21" class="node">
<title>Node21</title>
<g id="a_node21"><a xlink:title=" ">
<polygon fill="none" stroke="#bfbfbf" points="133,-56.5 133,-75.5 216,-75.5 216,-56.5 133,-56.5"/>
<text text-anchor="middle" x="174.5" y="-63.5" font-family="Helvetica,sans-Serif" font-size="10.00">unordered_map</text>
</a>
</g>
</g>
<!-- Node18&#45;&gt;Node21 -->
<g id="edge23" class="edge">
<title>Node18&#45;&gt;Node21</title>
<path fill="none" stroke="midnightblue" d="M187.86,-112.08C185.71,-104.85 182.62,-94.41 179.95,-85.4"/>
<polygon fill="midnightblue" stroke="midnightblue" points="183.29,-84.34 177.09,-75.75 176.58,-86.33 183.29,-84.34"/>
</g>
<!-- Node23 -->
<g id="node23" class="node">
<title>Node23</title>
<g id="a_node23"><a xlink:href="bwColor_8h.html" target="_top" xlink:title=" ">
<polygon fill="none" stroke="black" points="638.5,-112.5 638.5,-131.5 698.5,-131.5 698.5,-112.5 638.5,-112.5"/>
<text text-anchor="middle" x="668.5" y="-119.5" font-family="Helvetica,sans-Serif" font-size="10.00">bwColor.h</text>
</a>
</g>
</g>
<!-- Node22&#45;&gt;Node23 -->
<g id="edge25" class="edge">
<title>Node22&#45;&gt;Node23</title>
<path fill="none" stroke="midnightblue" d="M596.32,-168.32C609.73,-159.9 630.32,-146.97 646.09,-137.07"/>
<polygon fill="midnightblue" stroke="midnightblue" points="648.11,-139.94 654.72,-131.65 644.39,-134.01 648.11,-139.94"/>
</g>
<!-- Node24&#45;&gt;Node14 -->
<g id="edge27" class="edge">
<title>Node24&#45;&gt;Node14</title>
<path fill="none" stroke="midnightblue" d="M149.15,-168.32C131.83,-159.66 104.98,-146.24 85,-136.25"/>
<polygon fill="midnightblue" stroke="midnightblue" points="86.32,-133 75.81,-131.65 83.19,-139.26 86.32,-133"/>
</g>
<!-- Node26 -->
<g id="node26" class="node">
<title>Node26</title>
<g id="a_node26"><a xlink:href="bwContext_8h.html" target="_top" xlink:title=" ">
<polygon fill="none" stroke="black" points="573.5,-224.5 573.5,-243.5 645.5,-243.5 645.5,-224.5 573.5,-224.5"/>
<text text-anchor="middle" x="609.5" y="-231.5" font-family="Helvetica,sans-Serif" font-size="10.00">bwContext.h</text>
</a>
</g>
</g>
<!-- Node25&#45;&gt;Node26 -->
<g id="edge30" class="edge">
<title>Node25&#45;&gt;Node26</title>
<path fill="none" stroke="midnightblue" d="M609.5,-280.08C609.5,-273.01 609.5,-262.86 609.5,-253.99"/>
<polygon fill="midnightblue" stroke="midnightblue" points="613,-253.75 609.5,-243.75 606,-253.75 613,-253.75"/>
</g>
<!-- Node27 -->
<g id="node27" class="node">
<title>Node27</title>
<g id="a_node27"><a xlink:href="bwEventDispatcher_8h.html" target="_top" xlink:title=" ">
<polygon fill="none" stroke="black" points="704.5,-224.5 704.5,-243.5 814.5,-243.5 814.5,-224.5 704.5,-224.5"/>
<text text-anchor="middle" x="759.5" y="-231.5" font-family="Helvetica,sans-Serif" font-size="10.00">bwEventDispatcher.h</text>
</a>
</g>
</g>
<!-- Node25&#45;&gt;Node27 -->
<g id="edge31" class="edge">
<title>Node25&#45;&gt;Node27</title>
<path fill="none" stroke="midnightblue" d="M633.27,-280.44C658.39,-271.4 698.21,-257.06 726.4,-246.92"/>
<polygon fill="midnightblue" stroke="midnightblue" points="727.62,-250.2 735.84,-243.52 725.25,-243.61 727.62,-250.2"/>
</g>
<!-- Node27&#45;&gt;Node8 -->
<g id="edge32" class="edge">
<title>Node27&#45;&gt;Node8</title>
<path fill="none" stroke="midnightblue" d="M758.51,-224.35C755.46,-201.94 744.08,-141.67 707.5,-112 679,-88.87 574.63,-75.67 518.99,-70.12"/>
<polygon fill="midnightblue" stroke="midnightblue" points="519.16,-66.62 508.87,-69.15 518.49,-73.59 519.16,-66.62"/>
</g>
<!-- Node27&#45;&gt;Node11 -->
<g id="edge36" class="edge">
<title>Node27&#45;&gt;Node11</title>
<path fill="none" stroke="midnightblue" d="M781.55,-224.44C798.1,-217.01 820.28,-204.81 834.5,-188 857.22,-161.16 866.69,-145.66 856.5,-112 853.38,-101.7 847.05,-91.61 841,-83.6"/>
<polygon fill="midnightblue" stroke="midnightblue" points="843.72,-81.4 834.71,-75.82 838.27,-85.8 843.72,-81.4"/>
</g>
<!-- Node28 -->
<g id="node28" class="node">
<title>Node28</title>
<g id="a_node28"><a xlink:href="bwEvent_8h.html" target="_top" xlink:title=" ">
<polygon fill="none" stroke="black" points="762,-168.5 762,-187.5 825,-187.5 825,-168.5 762,-168.5"/>
<text text-anchor="middle" x="793.5" y="-175.5" font-family="Helvetica,sans-Serif" font-size="10.00">bwEvent.h</text>
</a>
</g>
</g>
<!-- Node27&#45;&gt;Node28 -->
<g id="edge33" class="edge">
<title>Node27&#45;&gt;Node28</title>
<path fill="none" stroke="midnightblue" d="M765.11,-224.08C769.87,-216.53 776.82,-205.49 782.65,-196.23"/>
<polygon fill="midnightblue" stroke="midnightblue" points="785.62,-198.08 787.99,-187.75 779.7,-194.35 785.62,-198.08"/>
</g>
<!-- Node28&#45;&gt;Node10 -->
<g id="edge34" class="edge">
<title>Node28&#45;&gt;Node10</title>
<path fill="none" stroke="midnightblue" d="M793.5,-168.08C793.5,-161.01 793.5,-150.86 793.5,-141.99"/>
<polygon fill="midnightblue" stroke="midnightblue" points="797,-141.75 793.5,-131.75 790,-141.75 797,-141.75"/>
</g>
<!-- Node28&#45;&gt;Node11 -->
<g id="edge35" class="edge">
<title>Node28&#45;&gt;Node11</title>
<path fill="none" stroke="midnightblue" d="M807.87,-168.33C819.38,-160.47 834.69,-147.72 841.5,-132 848.1,-116.76 842.6,-98.19 836.48,-84.81"/>
<polygon fill="midnightblue" stroke="midnightblue" points="839.52,-83.06 831.87,-75.73 833.28,-86.23 839.52,-83.06"/>
</g>
</g>
</svg>
