<?xml version="1.0" encoding="UTF-8" standalone="no"?>
<!DOCTYPE svg PUBLIC "-//W3C//DTD SVG 1.1//EN"
 "http://www.w3.org/Graphics/SVG/1.1/DTD/svg11.dtd">
<!-- Generated by graphviz version 2.50.0 (20211204.2007)
 -->
<!-- Title: bwidgets/screen_graph/Node.h Pages: 1 -->
<svg width="797pt" height="319pt"
 viewBox="0.00 0.00 796.56 319.00" xmlns="http://www.w3.org/2000/svg" xmlns:xlink="http://www.w3.org/1999/xlink">
<g id="graph0" class="graph" transform="scale(1 1) rotate(0) translate(4 315)">
<title>bwidgets/screen_graph/Node.h</title>
<!-- Node1 -->
<g id="node1" class="node">
<title>Node1</title>
<g id="a_node1"><a xlink:title=" ">
<polygon fill="#bfbfbf" stroke="black" points="598,-280.5 598,-310.5 715,-310.5 715,-280.5 598,-280.5"/>
<text text-anchor="start" x="606" y="-298.5" font-family="Helvetica,sans-Serif" font-size="10.00">bwidgets/screen_graph</text>
<text text-anchor="middle" x="656.5" y="-287.5" font-family="Helvetica,sans-Serif" font-size="10.00">/Node.h</text>
</a>
</g>
</g>
<!-- Node2 -->
<g id="node2" class="node">
<title>Node2</title>
<g id="a_node2"><a xlink:title=" ">
<polygon fill="none" stroke="#bfbfbf" points="716,-56.5 716,-75.5 745,-75.5 745,-56.5 716,-56.5"/>
<text text-anchor="middle" x="730.5" y="-63.5" font-family="Helvetica,sans-Serif" font-size="10.00">list</text>
</a>
</g>
</g>
<!-- Node1&#45;&gt;Node2 -->
<g id="edge1" class="edge">
<title>Node1&#45;&gt;Node2</title>
<path fill="none" stroke="midnightblue" d="M715,-285.8C740.32,-278.87 767.71,-266.4 783.5,-244 790.16,-234.55 789.29,-119.99 785.5,-112 778.89,-98.05 765.6,-86.99 753.75,-79.32"/>
<polygon fill="midnightblue" stroke="midnightblue" points="755.47,-76.27 745.09,-74.13 751.87,-82.28 755.47,-76.27"/>
</g>
<!-- Node3 -->
<g id="node3" class="node">
<title>Node3</title>
<g id="a_node3"><a xlink:href="bwContainerWidget_8h.html" target="_top" xlink:title=" ">
<polygon fill="none" stroke="black" points="664.5,-224.5 664.5,-243.5 774.5,-243.5 774.5,-224.5 664.5,-224.5"/>
<text text-anchor="middle" x="719.5" y="-231.5" font-family="Helvetica,sans-Serif" font-size="10.00">bwContainerWidget.h</text>
</a>
</g>
</g>
<!-- Node1&#45;&gt;Node3 -->
<g id="edge2" class="edge">
<title>Node1&#45;&gt;Node3</title>
<path fill="none" stroke="midnightblue" d="M671.43,-280.4C680.87,-271.49 693.08,-259.95 702.83,-250.74"/>
<polygon fill="midnightblue" stroke="midnightblue" points="705.47,-253.07 710.33,-243.66 700.66,-247.98 705.47,-253.07"/>
</g>
<!-- Node4 -->
<g id="node4" class="node">
<title>Node4</title>
<g id="a_node4"><a xlink:href="bwWidget_8h.html" target="_top" xlink:title=" ">
<polygon fill="none" stroke="black" points="390.5,-168.5 390.5,-187.5 458.5,-187.5 458.5,-168.5 390.5,-168.5"/>
<text text-anchor="middle" x="424.5" y="-175.5" font-family="Helvetica,sans-Serif" font-size="10.00">bwWidget.h</text>
</a>
</g>
</g>
<!-- Node1&#45;&gt;Node4 -->
<g id="edge25" class="edge">
<title>Node1&#45;&gt;Node4</title>
<path fill="none" stroke="midnightblue" d="M617.21,-280.5C592.22,-271.14 559.43,-258.01 531.5,-244 500.7,-228.55 467.01,-207.31 445.82,-193.37"/>
<polygon fill="midnightblue" stroke="midnightblue" points="447.56,-190.32 437.29,-187.71 443.69,-196.15 447.56,-190.32"/>
</g>
<!-- Node21 -->
<g id="node21" class="node">
<title>Node21</title>
<g id="a_node21"><a xlink:href="bwLayoutInterface_8h.html" target="_top" xlink:title=" ">
<polygon fill="none" stroke="black" points="541,-224.5 541,-243.5 646,-243.5 646,-224.5 541,-224.5"/>
<text text-anchor="middle" x="593.5" y="-231.5" font-family="Helvetica,sans-Serif" font-size="10.00">bwLayoutInterface.h</text>
</a>
</g>
</g>
<!-- Node1&#45;&gt;Node21 -->
<g id="edge23" class="edge">
<title>Node1&#45;&gt;Node21</title>
<path fill="none" stroke="midnightblue" d="M641.57,-280.4C632.13,-271.49 619.92,-259.95 610.17,-250.74"/>
<polygon fill="midnightblue" stroke="midnightblue" points="612.34,-247.98 602.67,-243.66 607.53,-253.07 612.34,-247.98"/>
</g>
<!-- Node3&#45;&gt;Node4 -->
<g id="edge3" class="edge">
<title>Node3&#45;&gt;Node4</title>
<path fill="none" stroke="midnightblue" d="M672.76,-224.44C616.74,-214.19 523.59,-197.14 468.72,-187.09"/>
<polygon fill="midnightblue" stroke="midnightblue" points="469.08,-183.6 458.61,-185.24 467.82,-190.49 469.08,-183.6"/>
</g>
<!-- Node19 -->
<g id="node19" class="node">
<title>Node19</title>
<g id="a_node19"><a xlink:href="bwWidgetBaseStyle_8h.html" target="_top" xlink:title=" ">
<polygon fill="none" stroke="black" points="663,-168.5 663,-187.5 776,-187.5 776,-168.5 663,-168.5"/>
<text text-anchor="middle" x="719.5" y="-175.5" font-family="Helvetica,sans-Serif" font-size="10.00">bwWidgetBaseStyle.h</text>
</a>
</g>
</g>
<!-- Node3&#45;&gt;Node19 -->
<g id="edge21" class="edge">
<title>Node3&#45;&gt;Node19</title>
<path fill="none" stroke="midnightblue" d="M719.5,-224.08C719.5,-217.01 719.5,-206.86 719.5,-197.99"/>
<polygon fill="midnightblue" stroke="midnightblue" points="723,-197.75 719.5,-187.75 716,-197.75 723,-197.75"/>
</g>
<!-- Node5 -->
<g id="node5" class="node">
<title>Node5</title>
<g id="a_node5"><a xlink:title=" ">
<polygon fill="none" stroke="#bfbfbf" points="316.5,-56.5 316.5,-75.5 366.5,-75.5 366.5,-56.5 316.5,-56.5"/>
<text text-anchor="middle" x="341.5" y="-63.5" font-family="Helvetica,sans-Serif" font-size="10.00">optional</text>
</a>
</g>
</g>
<!-- Node4&#45;&gt;Node5 -->
<g id="edge4" class="edge">
<title>Node4&#45;&gt;Node5</title>
<path fill="none" stroke="midnightblue" d="M423.6,-168.22C421.87,-154.93 417.06,-129.43 404.5,-112 395.14,-99.01 380.85,-88.37 368.25,-80.7"/>
<polygon fill="midnightblue" stroke="midnightblue" points="369.88,-77.6 359.47,-75.65 366.39,-83.67 369.88,-77.6"/>
</g>
<!-- Node6 -->
<g id="node6" class="node">
<title>Node6</title>
<g id="a_node6"><a xlink:title=" ">
<polygon fill="none" stroke="#bfbfbf" points="95,-112.5 95,-131.5 146,-131.5 146,-112.5 95,-112.5"/>
<text text-anchor="middle" x="120.5" y="-119.5" font-family="Helvetica,sans-Serif" font-size="10.00">typeinfo</text>
</a>
</g>
</g>
<!-- Node4&#45;&gt;Node6 -->
<g id="edge5" class="edge">
<title>Node4&#45;&gt;Node6</title>
<path fill="none" stroke="midnightblue" d="M390.35,-172.25C340.9,-165.16 246.3,-150.81 155.92,-131.92"/>
<polygon fill="midnightblue" stroke="midnightblue" points="156.56,-128.48 146.05,-129.84 155.12,-135.33 156.56,-128.48"/>
</g>
<!-- Node7 -->
<g id="node7" class="node">
<title>Node7</title>
<g id="a_node7"><a xlink:href="bwDistance_8h.html" target="_top" xlink:title=" ">
<polygon fill="none" stroke="black" points="0,-112.5 0,-131.5 77,-131.5 77,-112.5 0,-112.5"/>
<text text-anchor="middle" x="38.5" y="-119.5" font-family="Helvetica,sans-Serif" font-size="10.00">bwDistance.h</text>
</a>
</g>
</g>
<!-- Node4&#45;&gt;Node7 -->
<g id="edge6" class="edge">
<title>Node4&#45;&gt;Node7</title>
<path fill="none" stroke="midnightblue" d="M390.24,-173.11C330.69,-166.2 204,-150.89 87.37,-132.23"/>
<polygon fill="midnightblue" stroke="midnightblue" points="87.63,-128.73 77.2,-130.59 86.51,-135.64 87.63,-128.73"/>
</g>
<!-- Node10 -->
<g id="node10" class="node">
<title>Node10</title>
<g id="a_node10"><a xlink:href="bwFunctorInterface_8h.html" target="_top" xlink:title=" ">
<polygon fill="none" stroke="black" points="287,-112.5 287,-131.5 396,-131.5 396,-112.5 287,-112.5"/>
<text text-anchor="middle" x="341.5" y="-119.5" font-family="Helvetica,sans-Serif" font-size="10.00">bwFunctorInterface.h</text>
</a>
</g>
</g>
<!-- Node4&#45;&gt;Node10 -->
<g id="edge9" class="edge">
<title>Node4&#45;&gt;Node10</title>
<path fill="none" stroke="midnightblue" d="M411.16,-168.32C398.34,-159.98 378.72,-147.21 363.56,-137.35"/>
<polygon fill="midnightblue" stroke="midnightblue" points="365.09,-134.17 354.8,-131.65 361.28,-140.04 365.09,-134.17"/>
</g>
<!-- Node11 -->
<g id="node11" class="node">
<title>Node11</title>
<g id="a_node11"><a xlink:href="bwRectangle_8h.html" target="_top" xlink:title=" ">
<polygon fill="none" stroke="black" points="616.5,-112.5 616.5,-131.5 698.5,-131.5 698.5,-112.5 616.5,-112.5"/>
<text text-anchor="middle" x="657.5" y="-119.5" font-family="Helvetica,sans-Serif" font-size="10.00">bwRectangle.h</text>
</a>
</g>
</g>
<!-- Node4&#45;&gt;Node11 -->
<g id="edge10" class="edge">
<title>Node4&#45;&gt;Node11</title>
<path fill="none" stroke="midnightblue" d="M458.88,-169.03C499.13,-159.7 565.99,-144.21 610.88,-133.8"/>
<polygon fill="midnightblue" stroke="midnightblue" points="611.72,-137.2 620.67,-131.54 610.14,-130.38 611.72,-137.2"/>
</g>
<!-- Node12 -->
<g id="node12" class="node">
<title>Node12</title>
<g id="a_node12"><a xlink:href="bwStyleProperties_8h.html" target="_top" xlink:title=" ">
<polygon fill="none" stroke="black" points="164.5,-112.5 164.5,-131.5 268.5,-131.5 268.5,-112.5 164.5,-112.5"/>
<text text-anchor="middle" x="216.5" y="-119.5" font-family="Helvetica,sans-Serif" font-size="10.00">bwStyleProperties.h</text>
</a>
</g>
</g>
<!-- Node4&#45;&gt;Node12 -->
<g id="edge11" class="edge">
<title>Node4&#45;&gt;Node12</title>
<path fill="none" stroke="midnightblue" d="M391.54,-168.44C355.71,-159.14 298.34,-144.25 259.11,-134.06"/>
<polygon fill="midnightblue" stroke="midnightblue" points="259.86,-130.64 249.3,-131.52 258.1,-137.42 259.86,-130.64"/>
</g>
<!-- Node15 -->
<g id="node15" class="node">
<title>Node15</title>
<g id="a_node15"><a xlink:href="EventHandler_8h.html" target="_top" xlink:title=" ">
<polygon fill="none" stroke="black" points="453,-112.5 453,-131.5 598,-131.5 598,-112.5 453,-112.5"/>
<text text-anchor="middle" x="525.5" y="-119.5" font-family="Helvetica,sans-Serif" font-size="10.00">screen_graph/EventHandler.h</text>
</a>
</g>
</g>
<!-- Node4&#45;&gt;Node15 -->
<g id="edge16" class="edge">
<title>Node4&#45;&gt;Node15</title>
<path fill="none" stroke="midnightblue" d="M440.73,-168.32C456.85,-159.7 481.8,-146.36 500.46,-136.39"/>
<polygon fill="midnightblue" stroke="midnightblue" points="502.14,-139.46 509.31,-131.65 498.84,-133.28 502.14,-139.46"/>
</g>
<!-- Node8 -->
<g id="node8" class="node">
<title>Node8</title>
<g id="a_node8"><a xlink:href="bwPoint_8h.html" target="_top" xlink:title=" ">
<polygon fill="none" stroke="black" points="18.5,-56.5 18.5,-75.5 78.5,-75.5 78.5,-56.5 18.5,-56.5"/>
<text text-anchor="middle" x="48.5" y="-63.5" font-family="Helvetica,sans-Serif" font-size="10.00">bwPoint.h</text>
</a>
</g>
</g>
<!-- Node7&#45;&gt;Node8 -->
<g id="edge7" class="edge">
<title>Node7&#45;&gt;Node8</title>
<path fill="none" stroke="midnightblue" d="M40.15,-112.08C41.48,-104.93 43.38,-94.64 45.04,-85.69"/>
<polygon fill="midnightblue" stroke="midnightblue" points="48.5,-86.22 46.88,-75.75 41.62,-84.95 48.5,-86.22"/>
</g>
<!-- Node9 -->
<g id="node9" class="node">
<title>Node9</title>
<g id="a_node9"><a xlink:title=" ">
<polygon fill="none" stroke="#bfbfbf" points="120.5,-0.5 120.5,-19.5 164.5,-19.5 164.5,-0.5 120.5,-0.5"/>
<text text-anchor="middle" x="142.5" y="-7.5" font-family="Helvetica,sans-Serif" font-size="10.00">vector</text>
</a>
</g>
</g>
<!-- Node8&#45;&gt;Node9 -->
<g id="edge8" class="edge">
<title>Node8&#45;&gt;Node9</title>
<path fill="none" stroke="midnightblue" d="M63.6,-56.32C78.4,-47.82 101.19,-34.73 118.48,-24.8"/>
<polygon fill="midnightblue" stroke="midnightblue" points="120.51,-27.67 127.43,-19.65 117.02,-21.6 120.51,-27.67"/>
</g>
<!-- Node12&#45;&gt;Node5 -->
<g id="edge13" class="edge">
<title>Node12&#45;&gt;Node5</title>
<path fill="none" stroke="midnightblue" d="M236.31,-112.44C256.79,-103.6 288.98,-89.69 312.36,-79.59"/>
<polygon fill="midnightblue" stroke="midnightblue" points="313.99,-82.7 321.79,-75.52 311.22,-76.27 313.99,-82.7"/>
</g>
<!-- Node12&#45;&gt;Node9 -->
<g id="edge15" class="edge">
<title>Node12&#45;&gt;Node9</title>
<path fill="none" stroke="midnightblue" d="M223.19,-112.39C232.47,-99.33 246.87,-74.13 235.5,-56 222.23,-34.84 195.89,-23.39 174.62,-17.34"/>
<polygon fill="midnightblue" stroke="midnightblue" points="175.22,-13.88 164.66,-14.79 173.48,-20.66 175.22,-13.88"/>
</g>
<!-- Node13 -->
<g id="node13" class="node">
<title>Node13</title>
<g id="a_node13"><a xlink:title=" ">
<polygon fill="none" stroke="#bfbfbf" points="115.5,-56.5 115.5,-75.5 167.5,-75.5 167.5,-56.5 115.5,-56.5"/>
<text text-anchor="middle" x="141.5" y="-63.5" font-family="Helvetica,sans-Serif" font-size="10.00">memory</text>
</a>
</g>
</g>
<!-- Node12&#45;&gt;Node13 -->
<g id="edge12" class="edge">
<title>Node12&#45;&gt;Node13</title>
<path fill="none" stroke="midnightblue" d="M204.45,-112.32C193.04,-104.11 175.67,-91.6 162.07,-81.81"/>
<polygon fill="midnightblue" stroke="midnightblue" points="163.93,-78.84 153.77,-75.83 159.84,-84.52 163.93,-78.84"/>
</g>
<!-- Node14 -->
<g id="node14" class="node">
<title>Node14</title>
<g id="a_node14"><a xlink:title=" ">
<polygon fill="none" stroke="#bfbfbf" points="186,-56.5 186,-75.5 227,-75.5 227,-56.5 186,-56.5"/>
<text text-anchor="middle" x="206.5" y="-63.5" font-family="Helvetica,sans-Serif" font-size="10.00">string</text>
</a>
</g>
</g>
<!-- Node12&#45;&gt;Node14 -->
<g id="edge14" class="edge">
<title>Node12&#45;&gt;Node14</title>
<path fill="none" stroke="midnightblue" d="M214.85,-112.08C213.52,-104.93 211.62,-94.64 209.96,-85.69"/>
<polygon fill="midnightblue" stroke="midnightblue" points="213.38,-84.95 208.12,-75.75 206.5,-86.22 213.38,-84.95"/>
</g>
<!-- Node15&#45;&gt;Node2 -->
<g id="edge19" class="edge">
<title>Node15&#45;&gt;Node2</title>
<path fill="none" stroke="midnightblue" d="M557.98,-112.44C599.09,-101.62 668.96,-83.21 705.91,-73.48"/>
<polygon fill="midnightblue" stroke="midnightblue" points="707.05,-76.8 715.83,-70.86 705.27,-70.03 707.05,-76.8"/>
</g>
<!-- Node16 -->
<g id="node16" class="node">
<title>Node16</title>
<g id="a_node16"><a xlink:title=" ">
<polygon fill="none" stroke="#bfbfbf" points="585.5,-56.5 585.5,-75.5 623.5,-75.5 623.5,-56.5 585.5,-56.5"/>
<text text-anchor="middle" x="604.5" y="-63.5" font-family="Helvetica,sans-Serif" font-size="10.00">array</text>
</a>
</g>
</g>
<!-- Node15&#45;&gt;Node16 -->
<g id="edge17" class="edge">
<title>Node15&#45;&gt;Node16</title>
<path fill="none" stroke="midnightblue" d="M538.19,-112.32C550.4,-103.98 569.08,-91.21 583.5,-81.35"/>
<polygon fill="midnightblue" stroke="midnightblue" points="585.56,-84.19 591.84,-75.65 581.61,-78.41 585.56,-84.19"/>
</g>
<!-- Node17 -->
<g id="node17" class="node">
<title>Node17</title>
<g id="a_node17"><a xlink:title=" ">
<polygon fill="none" stroke="#bfbfbf" points="407,-56.5 407,-75.5 466,-75.5 466,-56.5 407,-56.5"/>
<text text-anchor="middle" x="436.5" y="-63.5" font-family="Helvetica,sans-Serif" font-size="10.00">functional</text>
</a>
</g>
</g>
<!-- Node15&#45;&gt;Node17 -->
<g id="edge18" class="edge">
<title>Node15&#45;&gt;Node17</title>
<path fill="none" stroke="midnightblue" d="M511.2,-112.32C497.32,-103.9 476.01,-90.97 459.7,-81.07"/>
<polygon fill="midnightblue" stroke="midnightblue" points="461.13,-77.85 450.76,-75.65 457.5,-83.83 461.13,-77.85"/>
</g>
<!-- Node18 -->
<g id="node18" class="node">
<title>Node18</title>
<g id="a_node18"><a xlink:title=" ">
<polygon fill="none" stroke="#bfbfbf" points="484,-56.5 484,-75.5 567,-75.5 567,-56.5 484,-56.5"/>
<text text-anchor="middle" x="525.5" y="-63.5" font-family="Helvetica,sans-Serif" font-size="10.00">unordered_map</text>
</a>
</g>
</g>
<!-- Node15&#45;&gt;Node18 -->
<g id="edge20" class="edge">
<title>Node15&#45;&gt;Node18</title>
<path fill="none" stroke="midnightblue" d="M525.5,-112.08C525.5,-105.01 525.5,-94.86 525.5,-85.99"/>
<polygon fill="midnightblue" stroke="midnightblue" points="529,-85.75 525.5,-75.75 522,-85.75 529,-85.75"/>
</g>
<!-- Node20 -->
<g id="node20" class="node">
<title>Node20</title>
<g id="a_node20"><a xlink:href="bwColor_8h.html" target="_top" xlink:title=" ">
<polygon fill="none" stroke="black" points="716.5,-112.5 716.5,-131.5 776.5,-131.5 776.5,-112.5 716.5,-112.5"/>
<text text-anchor="middle" x="746.5" y="-119.5" font-family="Helvetica,sans-Serif" font-size="10.00">bwColor.h</text>
</a>
</g>
</g>
<!-- Node19&#45;&gt;Node20 -->
<g id="edge22" class="edge">
<title>Node19&#45;&gt;Node20</title>
<path fill="none" stroke="midnightblue" d="M723.96,-168.08C727.65,-160.69 733.02,-149.95 737.59,-140.81"/>
<polygon fill="midnightblue" stroke="midnightblue" points="740.78,-142.26 742.12,-131.75 734.52,-139.13 740.78,-142.26"/>
</g>
<!-- Node21&#45;&gt;Node11 -->
<g id="edge24" class="edge">
<title>Node21&#45;&gt;Node11</title>
<path fill="none" stroke="midnightblue" d="M598.52,-224.37C609.04,-206.3 633.54,-164.18 647.43,-140.31"/>
<polygon fill="midnightblue" stroke="midnightblue" points="650.5,-142 652.5,-131.59 644.45,-138.47 650.5,-142"/>
</g>
</g>
</svg>
