<?xml version="1.0" encoding="UTF-8" standalone="no"?>
<!DOCTYPE svg PUBLIC "-//W3C//DTD SVG 1.1//EN"
 "http://www.w3.org/Graphics/SVG/1.1/DTD/svg11.dtd">
<!-- Generated by graphviz version 2.50.0 (20211204.2007)
 -->
<!-- Title: bwidgets/screen_graph/ScreenGraph.h Pages: 1 -->
<svg width="208pt" height="319pt"
 viewBox="0.00 0.00 208.00 319.00" xmlns="http://www.w3.org/2000/svg" xmlns:xlink="http://www.w3.org/1999/xlink">
<g id="graph0" class="graph" transform="scale(1 1) rotate(0) translate(4 315)">
<title>bwidgets/screen_graph/ScreenGraph.h</title>
<!-- Node1 -->
<g id="node1" class="node">
<title>Node1</title>
<g id="a_node1"><a xlink:title=" ">
<polygon fill="#bfbfbf" stroke="black" points="31.5,-280.5 31.5,-310.5 148.5,-310.5 148.5,-280.5 31.5,-280.5"/>
<text text-anchor="start" x="39.5" y="-298.5" font-family="Helvetica,sans-Serif" font-size="10.00">bwidgets/screen_graph</text>
<text text-anchor="middle" x="90" y="-287.5" font-family="Helvetica,sans-Serif" font-size="10.00">/ScreenGraph.h</text>
</a>
</g>
</g>
<!-- Node2 -->
<g id="node2" class="node">
<title>Node2</title>
<g id="a_node2"><a xlink:href="bwContext_8h.html" target="_top" xlink:title=" ">
<polygon fill="none" stroke="black" points="0,-224.5 0,-243.5 72,-243.5 72,-224.5 0,-224.5"/>
<text text-anchor="middle" x="36" y="-231.5" font-family="Helvetica,sans-Serif" font-size="10.00">bwContext.h</text>
</a>
</g>
</g>
<!-- Node1&#45;&gt;Node2 -->
<g id="edge1" class="edge">
<title>Node1&#45;&gt;Node2</title>
<path fill="none" stroke="midnightblue" d="M77.2,-280.4C69.28,-271.66 59.06,-260.41 50.79,-251.3"/>
<polygon fill="midnightblue" stroke="midnightblue" points="53.17,-248.71 43.86,-243.66 47.99,-253.42 53.17,-248.71"/>
</g>
<!-- Node3 -->
<g id="node3" class="node">
<title>Node3</title>
<g id="a_node3"><a xlink:href="bwEventDispatcher_8h.html" target="_top" xlink:title=" ">
<polygon fill="none" stroke="black" points="90,-224.5 90,-243.5 200,-243.5 200,-224.5 90,-224.5"/>
<text text-anchor="middle" x="145" y="-231.5" font-family="Helvetica,sans-Serif" font-size="10.00">bwEventDispatcher.h</text>
</a>
</g>
</g>
<!-- Node1&#45;&gt;Node3 -->
<g id="edge2" class="edge">
<title>Node1&#45;&gt;Node3</title>
<path fill="none" stroke="midnightblue" d="M103.03,-280.4C111.19,-271.58 121.72,-260.18 130.19,-251.02"/>
<polygon fill="midnightblue" stroke="midnightblue" points="132.78,-253.38 137,-243.66 127.64,-248.63 132.78,-253.38"/>
</g>
<!-- Node4 -->
<g id="node4" class="node">
<title>Node4</title>
<g id="a_node4"><a xlink:title=" ">
<polygon fill="none" stroke="#bfbfbf" points="45,-168.5 45,-187.5 95,-187.5 95,-168.5 45,-168.5"/>
<text text-anchor="middle" x="70" y="-175.5" font-family="Helvetica,sans-Serif" font-size="10.00">optional</text>
</a>
</g>
</g>
<!-- Node3&#45;&gt;Node4 -->
<g id="edge3" class="edge">
<title>Node3&#45;&gt;Node4</title>
<path fill="none" stroke="midnightblue" d="M132.95,-224.32C121.54,-216.11 104.17,-203.6 90.57,-193.81"/>
<polygon fill="midnightblue" stroke="midnightblue" points="92.43,-190.84 82.27,-187.83 88.34,-196.52 92.43,-190.84"/>
</g>
<!-- Node5 -->
<g id="node5" class="node">
<title>Node5</title>
<g id="a_node5"><a xlink:href="bwEvent_8h.html" target="_top" xlink:title=" ">
<polygon fill="none" stroke="black" points="113.5,-168.5 113.5,-187.5 176.5,-187.5 176.5,-168.5 113.5,-168.5"/>
<text text-anchor="middle" x="145" y="-175.5" font-family="Helvetica,sans-Serif" font-size="10.00">bwEvent.h</text>
</a>
</g>
</g>
<!-- Node3&#45;&gt;Node5 -->
<g id="edge4" class="edge">
<title>Node3&#45;&gt;Node5</title>
<path fill="none" stroke="midnightblue" d="M145,-224.08C145,-217.01 145,-206.86 145,-197.99"/>
<polygon fill="midnightblue" stroke="midnightblue" points="148.5,-197.75 145,-187.75 141.5,-197.75 148.5,-197.75"/>
</g>
<!-- Node7 -->
<g id="node7" class="node">
<title>Node7</title>
<g id="a_node7"><a xlink:href="bwPoint_8h.html" target="_top" xlink:title=" ">
<polygon fill="none" stroke="black" points="137,-56.5 137,-75.5 197,-75.5 197,-56.5 137,-56.5"/>
<text text-anchor="middle" x="167" y="-63.5" font-family="Helvetica,sans-Serif" font-size="10.00">bwPoint.h</text>
</a>
</g>
</g>
<!-- Node3&#45;&gt;Node7 -->
<g id="edge9" class="edge">
<title>Node3&#45;&gt;Node7</title>
<path fill="none" stroke="midnightblue" d="M156.27,-224.43C165.97,-216.27 179.28,-203.05 185,-188 198.28,-153.07 184.8,-108.99 175.07,-84.84"/>
<polygon fill="midnightblue" stroke="midnightblue" points="178.24,-83.35 171.1,-75.53 171.8,-86.1 178.24,-83.35"/>
</g>
<!-- Node6 -->
<g id="node6" class="node">
<title>Node6</title>
<g id="a_node6"><a xlink:href="bwDistance_8h.html" target="_top" xlink:title=" ">
<polygon fill="none" stroke="black" points="61.5,-112.5 61.5,-131.5 138.5,-131.5 138.5,-112.5 61.5,-112.5"/>
<text text-anchor="middle" x="100" y="-119.5" font-family="Helvetica,sans-Serif" font-size="10.00">bwDistance.h</text>
</a>
</g>
</g>
<!-- Node5&#45;&gt;Node6 -->
<g id="edge5" class="edge">
<title>Node5&#45;&gt;Node6</title>
<path fill="none" stroke="midnightblue" d="M137.57,-168.08C131.15,-160.38 121.69,-149.03 113.88,-139.65"/>
<polygon fill="midnightblue" stroke="midnightblue" points="116.38,-137.19 107.29,-131.75 111.01,-141.67 116.38,-137.19"/>
</g>
<!-- Node5&#45;&gt;Node7 -->
<g id="edge8" class="edge">
<title>Node5&#45;&gt;Node7</title>
<path fill="none" stroke="midnightblue" d="M146.73,-168.37C150.28,-150.62 158.47,-109.67 163.28,-85.6"/>
<polygon fill="midnightblue" stroke="midnightblue" points="166.75,-86.08 165.28,-75.59 159.89,-84.71 166.75,-86.08"/>
</g>
<!-- Node6&#45;&gt;Node7 -->
<g id="edge6" class="edge">
<title>Node6&#45;&gt;Node7</title>
<path fill="none" stroke="midnightblue" d="M110.76,-112.32C120.77,-104.26 135.89,-92.08 147.93,-82.37"/>
<polygon fill="midnightblue" stroke="midnightblue" points="150.45,-84.83 156.04,-75.83 146.06,-79.38 150.45,-84.83"/>
</g>
<!-- Node8 -->
<g id="node8" class="node">
<title>Node8</title>
<g id="a_node8"><a xlink:title=" ">
<polygon fill="none" stroke="#bfbfbf" points="145,-0.5 145,-19.5 189,-19.5 189,-0.5 145,-0.5"/>
<text text-anchor="middle" x="167" y="-7.5" font-family="Helvetica,sans-Serif" font-size="10.00">vector</text>
</a>
</g>
</g>
<!-- Node7&#45;&gt;Node8 -->
<g id="edge7" class="edge">
<title>Node7&#45;&gt;Node8</title>
<path fill="none" stroke="midnightblue" d="M167,-56.08C167,-49.01 167,-38.86 167,-29.99"/>
<polygon fill="midnightblue" stroke="midnightblue" points="170.5,-29.75 167,-19.75 163.5,-29.75 170.5,-29.75"/>
</g>
</g>
</svg>
